<?xml version="1.0" encoding="UTF-8" standalone="no"?>
<!DOCTYPE svg PUBLIC "-//W3C//DTD SVG 1.1//EN" "http://www.w3.org/Graphics/SVG/1.1/DTD/svg11.dtd">
<svg xmlns="http://www.w3.org/2000/svg" version="1.1" viewBox="0.00 0.00 242.00 385.00">
<path fill="#839088" d="
  M 115.29 185.67
  C 115.29 185.67 119.59 181.28 121.03 180.01
  Q 131.70 170.58 137.46 165.26
  A 2.69 2.68 -21.5 0 0 138.34 163.25
  C 138.14 139.31 151.00 122.12 171.96 111.69
  Q 185.43 104.99 200.27 102.34
  Q 203.10 101.83 204.24 102.37
  Q 206.12 103.26 205.65 105.81
  C 199.60 138.60 177.82 163.94 143.36 167.17
  A 2.83 2.78 -69.2 0 0 141.68 167.94
  C 131.61 177.62 120.09 186.15 110.89 198.17
  Q 96.77 216.60 95.63 238.26
  Q 94.53 259.22 101.05 280.03
  A 0.29 0.28 45.9 0 0 101.59 280.04
  L 105.00 270.25
  A 3.24 3.12 52.3 0 0 105.16 268.80
  Q 103.63 256.07 108.44 243.96
  Q 116.21 224.42 135.78 217.54
  Q 148.82 212.95 161.70 213.49
  Q 165.45 213.65 164.78 217.63
  Q 164.24 220.84 162.31 227.31
  C 154.79 252.55 137.11 269.24 110.56 272.14
  A 2.11 2.11 0.0 0 0 108.87 273.36
  C 106.04 279.57 104.47 284.95 105.26 291.77
  A 7.03 7.02 -60.0 0 0 105.76 293.64
  C 107.74 298.26 109.77 303.06 112.38 308.20
  Q 116.90 317.10 119.39 324.33
  Q 124.46 339.05 121.58 355.81
  A 3.07 3.07 0.0 0 1 118.11 358.33
  L 117.90 358.30
  A 2.82 2.82 0.0 0 1 115.53 354.98
  Q 118.46 339.63 113.64 326.29
  Q 104.73 301.61 87.08 281.59
  A 3.09 3.08 68.9 0 0 84.72 280.54
  C 67.23 280.71 51.86 272.79 44.69 256.56
  Q 41.60 249.55 39.56 241.95
  C 38.55 238.18 41.44 237.40 44.56 237.68
  Q 57.78 238.86 66.76 243.81
  Q 85.65 254.24 89.16 276.25
  A 4.02 4.02 0.0 0 0 90.06 278.20
  L 95.56 284.64
  A 0.33 0.32 -74.0 0 0 96.11 284.33
  Q 94.98 280.59 93.81 276.23
  Q 88.93 258.14 89.43 241.65
  Q 89.73 231.48 89.48 228.97
  Q 88.75 221.51 87.84 216.36
  A 2.08 2.06 -82.9 0 0 86.67 214.84
  C 54.20 199.75 51.76 166.07 57.19 135.28
  C 57.93 131.07 62.84 133.37 65.34 134.92
  C 78.45 143.05 89.66 155.17 94.95 169.50
  Q 102.71 190.53 93.04 212.38
  C 92.01 214.69 92.09 215.90 92.75 218.06
  A 0.29 0.29 0.0 0 0 93.30 218.08
  C 94.89 213.99 96.40 210.07 98.24 206.55
  Q 104.04 195.48 106.82 189.10
  Q 114.10 172.42 116.47 154.81
  A 2.23 2.21 -57.7 0 0 116.15 153.35
  C 103.32 132.80 99.89 108.18 108.05 85.05
  Q 117.43 58.47 139.75 40.98
  C 143.00 38.43 148.78 33.79 149.91 40.66
  Q 151.96 53.13 153.01 66.48
  Q 154.76 88.73 148.33 110.86
  Q 141.18 135.47 123.27 153.75
  A 3.78 3.75 69.7 0 0 122.21 156.08
  Q 121.46 165.07 118.73 173.80
  Q 115.30 184.75 115.04 185.04
  A 0.38 0.38 0.0 0 0 115.29 185.67
  Z
  M 117.84 142.06
  Q 118.71 114.80 131.80 89.84
  A 1.25 1.24 23.6 0 1 133.32 89.25
  L 133.64 89.36
  A 1.36 1.36 0.0 0 1 134.42 91.22
  Q 121.96 117.44 122.03 145.42
  A 0.26 0.26 0.0 0 0 122.49 145.59
  C 139.19 126.68 146.96 102.70 147.25 77.52
  Q 147.43 61.98 144.56 45.63
  A 0.41 0.40 -23.5 0 0 143.91 45.38
  C 124.71 60.39 110.57 83.75 109.65 107.70
  Q 108.95 125.86 117.04 142.24
  A 0.42 0.42 0.0 0 0 117.84 142.06
  Z
  M 147.85 160.48
  C 175.63 155.33 192.06 135.84 198.78 109.34
  A 0.39 0.39 0.0 0 0 198.32 108.86
  Q 182.86 112.26 169.81 119.78
  Q 148.35 132.15 144.29 156.30
  A 0.33 0.33 0.0 0 0 144.64 156.68
  Q 145.09 156.65 145.33 156.34
  C 152.95 146.64 161.96 137.82 172.72 132.31
  A 1.06 1.06 0.0 0 1 174.21 132.91
  L 174.22 132.96
  A 1.59 1.58 -26.6 0 1 173.61 134.78
  Q 158.57 145.02 147.58 160.05
  A 0.27 0.27 0.0 0 0 147.85 160.48
  Z
  M 89.09 205.08
  A 0.25 0.25 0.0 0 0 89.57 205.09
  C 98.68 179.08 84.76 154.35 62.89 140.61
  A 0.49 0.49 0.0 0 0 62.14 140.99
  Q 61.65 146.66 61.26 150.00
  Q 59.73 162.91 62.54 175.96
  Q 66.72 195.30 82.99 206.01
  Q 83.76 206.52 84.82 206.71
  A 0.36 0.35 -3.8 0 0 85.23 206.25
  L 72.54 169.13
  A 1.44 1.44 0.0 0 1 73.14 167.43
  L 73.37 167.28
  A 1.24 1.24 0.0 0 1 75.17 167.85
  Q 83.30 187.16 89.09 205.08
  Z
  M 114.18 265.40
  Q 136.79 261.46 148.82 242.60
  Q 155.60 231.96 158.05 219.73
  A 0.19 0.19 0.0 0 0 157.86 219.51
  C 136.59 220.23 117.91 229.51 112.30 251.32
  Q 111.19 255.63 110.52 261.58
  A 0.33 0.32 -24.3 0 0 111.11 261.80
  Q 120.02 249.25 133.04 239.96
  A 2.09 2.08 -44.8 0 1 135.47 239.96
  L 135.52 240.00
  A 1.15 1.15 0.0 0 1 135.56 241.84
  Q 122.45 252.08 113.90 264.98
  A 0.28 0.27 11.6 0 0 114.18 265.40
  Z
  M 81.47 269.56
  C 75.42 254.02 62.97 245.97 46.76 243.96
  A 0.29 0.29 0.0 0 0 46.45 244.34
  C 49.73 254.88 54.28 264.43 64.32 269.67
  Q 71.36 273.35 79.42 274.10
  A 0.27 0.27 0.0 0 0 79.62 273.63
  L 61.89 258.62
  A 0.95 0.95 0.0 0 1 61.82 257.23
  L 61.85 257.19
  A 1.65 1.64 -52.0 0 1 63.86 256.94
  Q 73.31 262.60 81.01 269.87
  A 0.28 0.28 0.0 0 0 81.47 269.56
  Z"
/>
</svg>
