<?xml version="1.0" encoding="UTF-8" standalone="no"?>
<!DOCTYPE svg PUBLIC "-//W3C//DTD SVG 1.1//EN" "http://www.w3.org/Graphics/SVG/1.1/DTD/svg11.dtd">
<svg xmlns="http://www.w3.org/2000/svg" version="1.1" viewBox="0.00 0.00 392.00 327.00">
<path fill="#0f553b" d="
  M 285.26 37.80
  L 285.81 38.21
  A 0.26 0.25 -36.9 0 1 285.74 38.65
  L 279.49 41.06
  A 2.20 2.19 82.2 0 0 278.10 42.90
  L 277.43 49.99
  A 4.10 4.00 40.5 0 0 277.57 51.53
  Q 278.12 53.50 278.12 54.21
  A 1.10 1.10 0.0 0 1 275.95 54.44
  Q 274.94 49.77 276.13 43.42
  A 0.67 0.67 0.0 0 0 275.13 42.72
  L 272.02 44.51
  A 0.94 0.94 0.0 0 1 270.67 44.04
  L 270.51 43.61
  A 0.88 0.86 64.5 0 1 270.88 42.54
  L 276.20 39.47
  A 0.65 0.63 81.7 0 0 276.50 39.05
  L 279.18 25.13
  A 0.47 0.47 0.0 0 1 279.80 24.78
  L 280.30 24.95
  A 1.08 1.08 0.0 0 1 281.02 26.18
  L 278.74 38.02
  A 0.72 0.72 0.0 0 0 279.64 38.85
  L 284.20 37.59
  A 1.22 1.19 -33.0 0 1 285.26 37.80
  Z"
/>
<path fill="#0f553b" d="
  M 225.54 63.75
  Q 224.86 65.72 223.36 66.03
  A 1.87 1.86 78.5 0 1 221.16 64.57
  Q 220.43 60.90 220.89 57.21
  C 222.05 47.85 223.96 41.38 225.36 31.30
  A 0.89 0.89 0.0 0 1 226.60 30.61
  L 226.71 30.65
  A 1.46 1.46 0.0 0 1 227.56 32.16
  C 226.68 39.77 223.35 52.40 222.93 62.86
  A 0.64 0.64 0.0 0 0 223.74 63.51
  L 224.99 63.16
  A 0.46 0.45 2.1 0 1 225.54 63.75
  Z"
/>
<ellipse fill="#0f553b" cx="0.00" cy="0.00" transform="translate(266.70,33.64) rotate(-92.5)" rx="2.13" ry="1.27"/>
<path fill="#0f553b" d="
  M 294.74 45.68
  Q 294.51 46.04 293.06 48.46
  A 4.01 3.23 -69.5 0 1 289.74 50.43
  C 286.04 50.14 286.63 42.12 287.08 39.51
  A 1.82 1.81 -4.3 0 1 288.32 38.08
  L 288.45 38.04
  A 0.74 0.74 0.0 0 1 289.41 38.83
  Q 288.67 45.01 289.74 47.66
  A 0.58 0.58 0.0 0 0 290.72 47.82
  Q 294.78 42.98 296.77 36.98
  A 1.08 1.08 0.0 0 1 298.01 36.26
  L 298.04 36.27
  A 0.96 0.95 10.1 0 1 298.80 37.35
  Q 296.69 50.66 296.48 53.75
  C 296.14 58.70 295.58 76.10 289.10 75.08
  C 284.96 74.43 284.68 68.57 285.95 65.37
  Q 288.54 58.85 294.04 52.58
  A 0.93 0.93 0.0 0 0 294.26 52.14
  L 295.45 45.96
  A 0.39 0.39 0.0 0 0 294.74 45.68
  Z
  M 294.00 56.78
  A 0.43 0.43 0.0 0 0 293.22 56.49
  C 290.66 59.90 286.28 66.87 287.67 71.52
  A 1.86 1.58 71.4 0 0 289.84 72.82
  C 293.39 71.46 293.79 60.04 294.00 56.78
  Z"
/>
<rect fill="#0f553b" x="-1.07" y="-6.74" transform="translate(265.97,49.47) rotate(3.4)" width="2.14" height="13.48" rx="1.04"/>
<path fill="#0f553b" d="
  M 252.88 46.73
  Q 253.39 46.20 253.88 45.61
  Q 256.72 42.20 260.83 44.14
  A 0.68 0.68 0.0 0 1 260.43 45.42
  Q 255.35 44.55 253.46 50.07
  Q 251.89 54.66 251.90 57.40
  A 1.47 1.47 0.0 0 1 250.60 58.87
  L 250.55 58.88
  A 1.05 1.04 87.4 0 1 249.38 57.80
  L 249.77 46.28
  A 0.87 0.86 -79.2 0 1 250.92 45.49
  Q 251.44 45.67 252.00 46.62
  A 0.56 0.56 0.0 0 0 252.88 46.73
  Z"
/>
<rect fill="#0f553b" x="-1.74" y="-1.98" transform="translate(307.49,46.92) rotate(-0.2)" width="3.48" height="3.96" rx="1.53"/>
<path fill="#0f553b" d="
  M 245.09 58.05
  A 0.59 0.59 0.0 0 1 245.91 58.83
  Q 244.32 61.99 241.20 60.94
  A 0.92 0.92 0.0 0 1 240.72 60.55
  L 239.07 57.68
  A 0.45 0.44 -47.8 0 0 238.28 57.72
  Q 236.52 61.49 233.52 63.09
  Q 230.70 64.60 229.56 61.82
  C 228.36 58.88 232.67 51.44 234.26 49.29
  Q 235.72 47.33 237.69 46.27
  A 1.39 1.39 0.0 0 1 239.61 46.91
  Q 240.34 48.49 241.43 49.66
  A 1.62 1.61 32.5 0 1 241.79 51.27
  Q 240.41 55.50 241.77 58.28
  A 1.37 1.37 0.0 0 0 243.69 58.86
  L 245.09 58.05
  Z
  M 238.5720 49.0925
  A 6.93 1.96 -60.6 0 0 233.4624 54.1678
  A 6.93 1.96 -60.6 0 0 231.7680 61.1675
  A 6.93 1.96 -60.6 0 0 236.8776 56.0922
  A 6.93 1.96 -60.6 0 0 238.5720 49.0925
  Z"
/>
<path fill="#0f553b" d="
  M 217.29 62.10
  L 217.34 62.11
  A 0.41 0.41 0.0 0 1 217.62 62.77
  Q 216.71 63.92 213.85 66.60
  C 211.31 68.97 206.55 70.80 204.44 67.41
  C 201.95 63.44 205.12 56.93 207.63 53.40
  C 208.81 51.75 212.57 50.62 213.23 53.36
  Q 213.70 55.29 213.04 56.93
  A 0.59 0.59 0.0 0 1 211.91 56.74
  L 211.80 54.82
  A 0.91 0.91 0.0 0 0 210.27 54.20
  Q 206.56 57.64 205.87 62.73
  Q 205.52 65.24 206.51 66.03
  C 209.14 68.15 214.02 64.42 216.08 62.50
  A 1.57 1.54 26.2 0 1 217.29 62.10
  Z"
/>
<path fill="#0f553b" d="
  M 46.97 69.17
  L 41.03 72.15
  A 0.79 0.79 0.0 0 1 39.90 71.59
  L 39.89 71.54
  A 1.78 1.77 -19.3 0 1 40.74 69.79
  C 43.45 68.17 46.85 66.79 48.90 64.55
  A 1.32 1.31 -68.4 0 1 49.86 64.13
  L 51.01 64.14
  A 2.99 2.99 0.0 0 0 52.11 63.93
  C 55.04 62.81 62.28 59.30 68.16 58.16
  Q 69.70 57.86 70.14 58.57
  Q 70.51 59.17 70.08 60.72
  A 0.64 0.62 12.8 0 1 69.35 61.17
  L 67.06 60.73
  A 1.20 1.16 -49.0 0 0 66.39 60.79
  L 50.52 66.92
  A 1.31 1.29 -7.9 0 0 49.69 68.00
  L 48.14 84.32
  A 0.51 0.51 0.0 0 0 48.78 84.86
  L 60.88 81.53
  A 0.71 0.71 0.0 0 1 61.75 82.02
  L 61.86 82.43
  A 0.74 0.74 0.0 0 1 61.28 83.36
  Q 54.04 84.71 47.68 88.47
  A 1.41 1.39 77.7 0 0 47.00 89.54
  L 45.50 105.36
  A 1.13 1.12 -84.6 0 1 44.28 106.38
  L 43.89 106.34
  A 0.90 0.89 5.5 0 1 43.08 105.37
  L 44.52 90.28
  A 0.48 0.48 0.0 0 0 43.75 89.85
  Q 42.43 90.87 41.43 91.05
  A 1.06 1.06 0.0 0 1 40.72 89.09
  L 44.15 87.11
  A 1.44 1.43 85.2 0 0 44.78 86.36
  Q 45.71 83.82 46.04 81.53
  Q 47.32 72.76 47.69 69.67
  A 0.50 0.50 0.0 0 0 46.97 69.17
  Z"
/>
<path fill="#0f553b" d="
  M 168.24 69.12
  L 168.54 69.18
  A 0.47 0.45 -72.7 0 0 169.05 68.90
  Q 171.02 64.28 174.42 60.89
  A 1.45 1.43 23.2 0 1 175.52 60.46
  Q 177.65 60.54 177.76 63.02
  Q 177.80 63.77 178.68 71.25
  A 1.18 1.17 78.9 0 0 180.16 72.25
  L 181.49 71.89
  A 0.49 0.48 -89.3 0 1 182.08 72.50
  Q 181.50 74.37 180.15 74.63
  A 3.21 2.42 66.5 0 1 177.28 73.01
  Q 175.20 69.50 175.57 63.88
  A 0.63 0.63 0.0 0 0 174.63 63.29
  Q 174.47 63.37 174.25 63.77
  Q 170.95 69.87 167.79 76.29
  Q 167.54 76.78 166.86 76.93
  A 1.20 1.18 86.5 0 1 165.43 75.65
  Q 166.04 68.51 167.00 61.69
  A 1.46 1.45 87.7 0 1 168.12 60.47
  L 168.24 60.44
  A 0.78 0.77 -1.8 0 1 169.18 61.32
  L 167.97 68.73
  A 0.35 0.34 -80.4 0 0 168.24 69.12
  Z"
/>
<path fill="#0f553b" d="
  M 157.9620 63.7343
  A 8.52 5.09 -72.5 0 1 160.2544 73.3906
  A 8.52 5.09 -72.5 0 1 152.8380 79.9857
  A 8.52 5.09 -72.5 0 1 150.5456 70.3294
  A 8.52 5.09 -72.5 0 1 157.9620 63.7343
  Z
  M 157.5828 65.9530
  A 6.19 2.81 -72.0 0 0 152.9975 70.9717
  A 6.19 2.81 -72.0 0 0 153.7572 77.7270
  A 6.19 2.81 -72.0 0 0 158.3425 72.7083
  A 6.19 2.81 -72.0 0 0 157.5828 65.9530
  Z"
/>
<path fill="#0f553b" d="
  M 123.12 71.08
  Q 119.27 71.09 117.23 75.48
  A 1.18 1.18 0.0 0 0 117.96 77.10
  C 121.70 78.22 126.08 78.55 126.08 81.96
  C 126.08 84.80 121.37 87.23 119.22 87.90
  Q 115.72 89.00 113.98 86.44
  A 0.96 0.96 0.0 0 1 115.15 85.01
  L 116.73 85.68
  A 1.26 1.25 50.2 0 0 117.47 85.75
  Q 121.36 84.90 123.38 82.50
  A 0.74 0.74 0.0 0 0 123.11 81.35
  Q 121.06 80.42 117.25 79.25
  C 114.88 78.51 114.38 76.36 115.15 74.23
  Q 116.50 70.52 121.30 69.01
  A 1.80 1.79 -32.3 0 1 123.05 69.40
  L 123.58 69.88
  A 0.69 0.69 0.0 0 1 123.12 71.08
  Z"
/>
<path fill="#0f553b" d="
  M 110.82 87.02
  A 0.49 0.49 0.0 0 1 111.52 87.44
  L 111.53 87.66
  A 1.27 1.27 0.0 0 1 110.96 88.79
  Q 108.26 90.61 106.41 88.08
  A 1.46 1.37 -69.9 0 1 106.17 87.52
  L 105.71 85.05
  A 0.53 0.52 54.8 0 0 104.74 84.88
  C 103.08 87.75 100.92 92.01 97.74 91.90
  C 92.86 91.73 96.01 80.27 96.77 77.83
  A 1.60 1.59 -80.3 0 1 98.36 76.70
  L 98.40 76.70
  A 0.92 0.92 0.0 0 1 99.24 77.93
  Q 97.12 83.84 97.28 88.30
  A 1.07 1.07 0.0 0 0 98.85 89.21
  Q 99.73 88.74 100.53 87.52
  Q 103.81 82.49 104.56 81.37
  A 5.43 5.35 -20.8 0 0 105.27 79.82
  L 106.46 75.50
  A 1.02 1.01 21.2 0 1 107.90 74.87
  L 107.94 74.89
  A 1.51 1.51 0.0 0 1 108.76 76.50
  Q 107.81 81.87 108.00 85.34
  Q 108.09 86.94 108.73 87.27
  Q 109.48 87.65 110.82 87.02
  Z"
/>
<path fill="#0f553b" d="
  M 92.30 88.78
  Q 91.84 89.71 89.76 91.76
  C 87.06 94.43 84.90 96.37 80.95 95.25
  A 2.08 1.98 -14.0 0 1 80.07 94.75
  Q 77.00 91.79 78.54 87.54
  C 79.86 83.93 82.29 77.93 86.55 76.93
  A 1.83 1.82 71.6 0 1 88.64 77.98
  Q 89.16 79.20 88.79 81.59
  A 0.78 0.78 0.0 0 1 87.30 81.78
  Q 87.22 81.60 87.23 79.93
  A 0.86 0.86 0.0 0 0 85.74 79.35
  Q 81.37 84.18 80.70 90.13
  A 2.53 2.35 -87.3 0 0 83.08 92.95
  C 85.94 92.87 89.37 90.06 91.54 88.19
  A 0.49 0.49 0.0 0 1 92.30 88.78
  Z"
/>
<path fill="#0f553b" d="
  M 71.4799 81.1835
  A 9.26 5.03 -72.4 0 1 73.4745 91.5309
  A 9.26 5.03 -72.4 0 1 65.8801 98.8365
  A 9.26 5.03 -72.4 0 1 63.8855 88.4891
  A 9.26 5.03 -72.4 0 1 71.4799 81.1835
  Z
  M 70.8678 83.9782
  A 6.49 2.73 -71.7 0 0 66.2381 89.2828
  A 6.49 2.73 -71.7 0 0 66.7922 96.3018
  A 6.49 2.73 -71.7 0 0 71.4219 90.9972
  A 6.49 2.73 -71.7 0 0 70.8678 83.9782
  Z"
/>
<path fill="#0f553b" d="
  M 356.11 93.57
  A 0.33 0.33 0.0 0 1 356.60 93.99
  C 354.22 97.90 349.25 101.09 344.69 98.76
  C 342.77 97.78 343.06 94.48 341.65 93.12
  A 0.63 0.63 0.0 0 1 341.75 92.13
  L 342.55 91.62
  A 1.72 1.70 -3.0 0 0 343.15 90.96
  L 345.25 86.79
  A 3.54 3.45 80.3 0 1 345.80 85.99
  C 347.96 83.59 350.91 80.65 353.88 82.29
  A 2.17 2.01 -65.2 0 1 354.73 84.91
  Q 352.28 91.21 346.02 93.22
  A 1.74 1.74 0.0 0 0 345.38 96.16
  L 345.93 96.66
  A 3.23 3.22 56.9 0 0 349.09 97.33
  Q 353.33 95.93 356.11 93.57
  Z
  M 352.2086 83.9820
  A 4.61 1.20 -48.6 0 0 348.2599 86.6464
  A 4.61 1.20 -48.6 0 0 346.1114 90.8980
  A 4.61 1.20 -48.6 0 0 350.0601 88.2336
  A 4.61 1.20 -48.6 0 0 352.2086 83.9820
  Z"
/>
<path fill="#0f553b" d="
  M 335.39 88.42
  Q 331.40 87.87 330.07 91.62
  A 1.26 1.25 -71.1 0 0 330.86 93.24
  Q 335.20 94.64 335.51 94.78
  C 339.12 96.36 337.83 99.64 335.47 101.39
  Q 333.27 103.03 329.26 103.23
  Q 327.18 103.33 327.12 101.33
  A 1.04 0.91 -69.9 0 1 328.73 100.44
  C 330.50 102.41 333.92 99.47 335.38 98.14
  A 0.74 0.74 0.0 0 0 335.14 96.89
  C 331.47 95.55 323.98 94.75 329.19 88.65
  C 330.87 86.67 332.58 85.25 335.06 85.69
  Q 336.04 85.86 336.45 87.17
  A 0.97 0.97 0.0 0 1 335.39 88.42
  Z"
/>
<path fill="#0f553b" d="
  M 320.2606 90.7028
  A 7.94 4.80 -69.5 0 1 321.9760 99.8210
  A 7.94 4.80 -69.5 0 1 314.6994 105.5772
  A 7.94 4.80 -69.5 0 1 312.9840 96.4590
  A 7.94 4.80 -69.5 0 1 320.2606 90.7028
  Z
  M 319.7154 93.4528
  A 5.38 2.63 -65.8 0 0 315.1111 97.2819
  A 5.38 2.63 -65.8 0 0 315.3046 103.2672
  A 5.38 2.63 -65.8 0 0 319.9089 99.4381
  A 5.38 2.63 -65.8 0 0 319.7154 93.4528
  Z"
/>
<ellipse fill="#0f553b" cx="0.00" cy="0.00" transform="translate(364.42,93.86) rotate(-87.2)" rx="2.06" ry="1.73"/>
<path fill="#0f553b" d="
  M 298.33 99.20
  Q 299.48 96.79 299.84 96.57
  Q 303.14 94.52 303.15 94.51
  Q 305.52 92.89 306.69 93.18
  C 311.65 94.38 310.77 100.20 308.54 103.38
  C 307.25 105.22 304.26 108.37 301.36 108.12
  A 0.86 0.86 0.0 0 0 300.43 108.89
  L 298.66 126.63
  A 1.09 1.08 6.3 0 1 297.45 127.59
  L 297.42 127.58
  A 1.25 1.24 -82.6 0 1 296.39 126.23
  Q 297.45 114.89 299.14 102.52
  Q 299.23 101.87 298.35 100.17
  A 1.09 1.09 0.0 0 1 298.33 99.20
  Z
  M 301.15 105.33
  A 0.65 0.65 0.0 0 0 302.09 105.98
  C 305.15 104.43 310.07 99.44 307.26 95.86
  A 1.00 1.00 0.0 0 0 306.36 95.49
  Q 303.53 95.84 301.98 98.46
  A 2.04 2.02 63.3 0 0 301.72 99.28
  L 301.15 105.33
  Z"
/>
<path fill="#0f553b" d="
  M 234.27 122.31
  C 233.25 125.10 230.44 124.89 229.40 122.30
  Q 228.14 119.16 228.02 115.82
  A 0.73 0.72 58.5 0 0 226.66 115.49
  Q 222.03 123.90 221.11 125.14
  Q 220.71 125.67 220.02 125.64
  A 1.30 1.22 -84.9 0 1 218.88 124.18
  Q 222.18 99.17 222.37 97.85
  Q 222.59 96.25 223.74 94.80
  A 0.96 0.95 62.3 0 1 225.44 95.33
  Q 225.62 97.86 225.02 100.75
  Q 223.45 108.30 222.06 116.03
  Q 221.84 117.24 221.96 117.93
  A 0.45 0.45 0.0 0 0 222.79 118.08
  C 224.11 115.77 226.60 110.69 229.79 112.53
  A 0.91 0.91 0.0 0 1 230.24 113.22
  L 231.21 121.22
  A 1.00 1.00 0.0 0 0 232.32 122.09
  L 233.94 121.90
  A 0.31 0.31 0.0 0 1 234.27 122.31
  Z"
/>
<path fill="#0f553b" d="
  M 295.89 95.86
  A 0.77 0.77 0.0 0 1 296.33 96.94
  L 296.29 97.01
  A 1.07 1.06 -68.5 0 1 295.07 97.55
  Q 292.05 96.73 290.62 99.12
  Q 287.49 104.33 287.13 110.38
  A 1.19 1.19 0.0 0 1 285.94 111.50
  L 285.65 111.50
  A 0.47 0.47 0.0 0 1 285.18 111.03
  L 285.18 98.74
  A 0.83 0.83 0.0 0 1 286.73 98.32
  L 287.32 99.34
  A 0.54 0.54 0.0 0 0 288.27 99.32
  Q 290.96 94.24 295.89 95.86
  Z"
/>
<path fill="#0f553b" d="
  M 276.63 109.33
  Q 275.29 112.02 273.15 114.11
  C 270.04 117.15 267.77 112.93 268.18 110.34
  Q 268.77 106.60 270.23 102.60
  A 1.25 1.24 6.4 0 1 271.26 101.79
  L 271.41 101.77
  A 0.52 0.51 3.9 0 1 271.97 102.41
  Q 271.03 106.14 270.68 111.25
  Q 270.63 111.94 270.88 112.38
  A 0.60 0.60 0.0 0 0 271.88 112.44
  L 275.70 107.20
  A 2.76 2.69 72.1 0 0 276.15 106.29
  L 277.80 100.38
  A 1.00 1.00 0.0 0 1 278.50 99.68
  L 279.06 99.53
  A 0.76 0.75 -4.2 0 1 280.01 100.35
  Q 279.66 103.22 279.20 106.48
  Q 278.88 108.73 279.92 110.46
  A 0.80 0.80 0.0 0 0 280.80 110.81
  L 281.97 110.48
  A 0.77 0.76 -74.0 0 1 282.69 111.78
  Q 281.05 113.28 279.54 113.02
  A 1.43 1.40 -15.0 0 1 278.74 112.57
  Q 277.75 111.45 277.20 109.39
  A 0.31 0.30 50.8 0 0 276.63 109.33
  Z"
/>
<path fill="#0f553b" d="
  M 207.30 118.33
  L 203.77 119.70
  A 0.93 0.92 64.2 0 1 202.64 119.30
  L 202.47 119.01
  A 1.17 1.16 66.3 0 1 203.09 117.41
  L 207.90 115.52
  A 1.47 1.46 85.1 0 0 208.80 114.45
  L 211.49 101.41
  A 0.67 0.67 0.0 0 1 212.37 100.91
  L 212.69 101.09
  A 1.55 1.54 20.4 0 1 213.44 102.71
  L 211.38 113.39
  A 0.75 0.74 80.6 0 0 212.48 114.18
  L 216.59 111.80
  A 0.97 0.96 70.3 0 1 218.02 112.48
  L 218.10 112.92
  A 1.03 1.02 74.7 0 1 217.46 114.05
  L 211.32 116.42
  A 0.93 0.91 -6.2 0 0 210.73 117.14
  C 210.10 121.10 208.24 125.13 209.22 129.59
  A 0.66 0.65 80.0 0 1 208.68 130.37
  C 207.33 130.57 206.85 129.78 206.81 128.52
  Q 206.67 123.98 208.03 118.99
  A 0.55 0.55 0.0 0 0 207.30 118.33
  Z"
/>
<path fill="#0f553b" d="
  M 253.91 109.34
  L 254.88 106.55
  A 1.87 1.86 -89.6 0 1 256.05 105.39
  C 257.79 104.80 260.49 102.64 262.77 102.73
  C 266.75 102.89 266.77 107.58 265.74 110.31
  Q 263.18 117.07 257.13 118.21
  A 0.96 0.96 0.0 0 0 256.35 119.06
  L 254.71 136.32
  A 1.13 1.12 5.1 0 1 253.49 137.33
  L 252.93 137.28
  A 0.98 0.98 0.0 0 1 252.06 136.19
  Q 254.49 116.80 255.06 111.25
  Q 255.14 110.49 254.30 110.18
  A 0.67 0.67 0.0 0 1 253.91 109.34
  Z
  M 257.00 115.46
  A 0.70 0.70 0.0 0 0 258.02 116.13
  C 261.27 114.42 266.45 108.98 263.38 105.19
  A 1.07 1.07 0.0 0 0 262.41 104.81
  Q 259.38 105.24 257.77 108.08
  A 2.18 2.17 62.3 0 0 257.50 108.96
  L 257.00 115.46
  Z"
/>
<ellipse fill="#0f553b" cx="0.00" cy="0.00" transform="translate(198.40,108.56) rotate(-97.3)" rx="2.16" ry="1.13"/>
<path fill="#0f553b" d="
  M 173.63 134.92
  A 0.30 0.29 -29.6 0 0 174.19 135.07
  L 179.34 124.84
  A 1.26 1.25 -34.6 0 1 181.71 125.27
  Q 182.09 128.93 183.32 131.09
  A 1.54 1.54 0.0 0 0 185.88 131.28
  Q 188.65 127.68 189.57 122.46
  A 1.62 1.59 39.5 0 0 189.48 121.62
  L 188.68 119.70
  A 1.09 1.08 -17.7 0 1 189.45 118.22
  L 189.54 118.20
  A 1.43 1.43 0.0 0 1 191.20 119.17
  C 192.70 123.88 190.20 129.17 187.23 132.82
  Q 184.97 135.61 181.85 133.34
  A 1.02 0.98 -84.1 0 1 181.50 132.89
  L 180.15 129.40
  A 0.39 0.39 0.0 0 0 179.42 129.39
  Q 177.64 133.79 175.52 136.33
  A 2.12 1.75 -44.9 0 1 172.49 136.61
  C 170.99 134.63 172.12 126.60 172.70 123.37
  A 0.98 0.97 -79.0 0 1 173.85 122.59
  L 173.90 122.61
  A 0.85 0.85 0.0 0 1 174.53 123.50
  L 173.63 134.92
  Z"
/>
<rect fill="#0f553b" x="-1.21" y="-6.58" transform="translate(197.58,124.83) rotate(7.4)" width="2.42" height="13.16" rx="1.09"/>
<ellipse fill="#0f553b" cx="0.00" cy="0.00" transform="translate(112.06,128.01) rotate(-93.0)" rx="2.09" ry="1.40"/>
<path fill="#0f553b" d="
  M 139.48 136.51
  A 0.25 0.24 61.9 0 0 139.94 136.65
  Q 140.15 136.27 142.61 131.61
  Q 143.57 129.79 145.60 129.44
  A 1.77 1.77 0.0 0 1 147.67 131.08
  L 148.18 139.98
  A 0.96 0.96 0.0 0 0 149.85 140.57
  L 150.96 139.35
  A 0.68 0.68 0.0 0 1 152.09 140.06
  Q 151.32 141.93 150.32 142.44
  C 145.27 145.07 145.57 135.14 145.79 132.85
  A 0.67 0.67 0.0 0 0 144.56 132.42
  Q 141.64 136.82 139.55 142.78
  C 139.25 143.63 138.46 144.65 137.46 144.63
  A 1.24 1.24 0.0 0 1 136.24 143.32
  Q 136.59 137.19 137.88 131.62
  A 1.25 1.23 -83.7 0 1 139.07 130.65
  L 139.39 130.66
  A 0.60 0.60 0.0 0 1 139.97 131.32
  L 139.48 136.51
  Z"
/>
<path fill="#0f553b" d="
  M 56.16 163.25
  Q 62.32 159.78 67.51 154.04
  C 71.83 149.26 77.44 138.97 68.45 135.61
  C 61.11 132.86 52.06 135.93 46.82 140.95
  A 0.71 0.71 0.0 0 1 45.64 140.60
  L 45.61 140.46
  A 1.87 1.86 64.0 0 1 46.26 138.56
  C 53.32 132.94 63.45 129.74 71.82 135.02
  C 76.19 137.79 76.01 144.17 73.84 148.41
  Q 69.41 157.05 61.42 162.44
  Q 54.35 167.20 55.35 166.71
  A 0.03 0.03 0.0 0 0 55.32 166.66
  L 49.33 168.97
  A 1.19 1.18 68.7 0 1 47.80 168.29
  L 47.67 167.96
  A 0.71 0.71 0.0 0 1 48.08 167.05
  L 53.84 164.82
  A 0.62 0.62 0.0 0 0 54.11 163.86
  Q 53.25 162.72 53.73 158.01
  Q 55.12 144.43 55.95 137.27
  A 0.85 0.84 12.9 0 1 57.07 136.57
  L 57.30 136.66
  A 1.06 1.06 0.0 0 1 58.01 137.76
  L 55.62 162.90
  A 0.36 0.36 0.0 0 0 56.16 163.25
  Z"
/>
<path fill="#0f553b" d="
  M 127.11 147.49
  L 127.11 144.04
  A 0.48 0.48 0.0 0 0 126.20 143.81
  Q 124.35 147.29 121.84 148.29
  Q 118.37 149.67 117.73 145.85
  Q 117.43 144.10 119.59 139.30
  Q 122.04 133.85 125.74 132.38
  A 1.08 1.08 0.0 0 1 126.54 132.38
  Q 127.99 132.93 129.39 134.74
  A 1.28 1.25 28.6 0 1 129.65 135.59
  L 129.03 146.07
  A 0.44 0.44 0.0 0 0 129.63 146.51
  L 131.42 145.81
  A 0.53 0.52 10.4 0 1 132.00 146.65
  L 129.36 149.56
  A 1.99 1.99 0.0 0 0 128.84 150.90
  C 128.78 156.39 128.27 164.73 125.49 169.25
  C 124.51 170.84 121.60 173.08 119.75 171.47
  Q 116.47 168.62 118.02 164.27
  Q 121.01 155.82 125.83 150.72
  A 4.72 4.71 66.7 0 0 127.11 147.49
  Z
  M 126.5501 134.8624
  A 6.33 2.10 -61.4 0 0 121.6762 139.4147
  A 6.33 2.10 -61.4 0 0 120.4899 145.9776
  A 6.33 2.10 -61.4 0 0 125.3638 141.4253
  A 6.33 2.10 -61.4 0 0 126.5501 134.8624
  Z
  M 126.84 153.99
  A 0.43 0.42 67.9 0 0 126.09 153.67
  C 123.39 156.91 118.73 163.59 119.89 168.25
  A 1.84 1.56 74.2 0 0 121.97 169.64
  C 125.54 168.46 126.48 157.20 126.84 153.99
  Z"
/>
<rect fill="#0f553b" x="-1.25" y="-7.31" transform="translate(110.77,144.25) rotate(6.6)" width="2.50" height="14.62" rx="1.15"/>
<path fill="#0f553b" d="
  M 101.29 140.52
  Q 98.56 138.96 95.94 143.15
  A 1.37 1.37 0.0 0 0 96.84 145.23
  C 100.02 145.84 106.42 147.25 102.81 151.89
  Q 100.08 155.40 94.98 155.54
  Q 93.67 155.58 93.01 154.38
  A 1.00 1.00 0.0 0 1 94.08 152.92
  L 96.22 153.33
  A 1.05 1.04 39.0 0 0 96.82 153.27
  Q 99.71 152.01 101.41 150.00
  A 0.94 0.93 -63.7 0 0 100.90 148.48
  L 95.86 147.38
  A 2.02 1.85 -17.1 0 1 95.08 147.01
  C 90.62 143.48 97.33 136.62 101.37 137.81
  A 1.50 1.50 0.0 0 1 102.41 139.53
  L 102.31 140.06
  A 0.69 0.68 20.6 0 1 101.29 140.52
  Z"
/>
<path fill="#0f553b" d="
  M 90.50 152.49
  Q 86.89 156.93 83.87 157.75
  Q 76.96 159.64 76.14 152.34
  A 3.30 3.20 -41.6 0 1 76.23 151.13
  C 77.26 147.40 81.16 140.18 85.92 141.85
  C 88.33 142.69 87.49 146.66 86.27 148.02
  Q 83.41 151.22 80.02 151.93
  A 1.38 1.38 0.0 0 0 79.11 153.97
  L 79.52 154.68
  A 2.59 2.58 70.8 0 0 82.14 155.95
  Q 86.27 155.33 89.66 151.89
  A 0.41 0.41 0.0 0 1 90.20 151.85
  L 90.44 152.04
  A 0.32 0.31 38.2 0 1 90.50 152.49
  Z
  M 85.2586 143.7663
  A 3.98 1.34 -47.7 0 0 81.5889 145.8082
  A 3.98 1.34 -47.7 0 0 79.9014 149.6537
  A 3.98 1.34 -47.7 0 0 83.5711 147.6118
  A 3.98 1.34 -47.7 0 0 85.2586 143.7663
  Z"
/>
<path fill="#0f553b" d="
  M 272.91 162.80
  L 273.03 163.21
  A 0.50 0.50 0.0 0 1 272.73 163.81
  L 267.81 165.71
  A 1.47 1.47 0.0 0 0 266.95 166.61
  Q 265.04 172.44 265.91 180.21
  A 0.67 0.67 0.0 0 1 265.09 180.94
  L 264.60 180.82
  A 1.62 1.61 9.5 0 1 263.37 179.10
  L 264.38 168.44
  A 0.63 0.63 0.0 0 0 263.53 167.79
  L 260.39 169.01
  A 0.97 0.97 0.0 0 1 259.26 167.52
  Q 260.36 166.04 264.23 164.78
  A 1.53 1.52 86.4 0 0 265.25 163.62
  L 267.90 149.88
  A 0.92 0.91 -81.7 0 1 268.88 149.14
  L 269.24 149.18
  A 0.88 0.87 4.4 0 1 270.04 150.10
  L 269.86 153.08
  A 2.13 1.85 -41.4 0 1 269.82 153.36
  L 267.52 162.16
  A 0.98 0.97 89.7 0 0 268.72 163.35
  L 272.19 162.39
  A 0.58 0.58 0.0 0 1 272.91 162.80
  Z"
/>
<path fill="#0f553b" d="
  M 223.02 187.78
  Q 223.00 189.10 221.24 190.41
  A 1.38 1.38 0.0 0 1 219.25 190.05
  C 217.11 186.68 219.27 177.19 220.38 171.82
  Q 221.85 164.66 224.16 154.91
  A 0.87 0.86 -71.3 0 1 225.36 154.31
  L 225.42 154.34
  A 1.36 1.36 0.0 0 1 226.20 155.75
  Q 225.11 164.24 221.84 175.31
  Q 220.54 179.70 220.07 187.42
  A 0.78 0.78 0.0 0 0 220.80 188.25
  Q 221.67 188.31 222.44 187.54
  A 0.34 0.34 0.0 0 1 223.02 187.78
  Z"
/>
<path fill="#0f553b" d="
  M 247.22 181.08
  L 248.39 181.70
  A 1.76 1.73 49.6 0 0 249.73 181.82
  Q 252.73 180.89 254.35 179.31
  A 1.05 1.04 40.9 0 0 254.23 177.72
  Q 253.50 177.20 250.16 176.13
  C 243.51 174.00 250.98 165.28 255.64 167.09
  A 0.92 0.91 10.9 0 1 256.22 167.94
  L 256.22 168.40
  A 0.66 0.66 0.0 0 1 255.38 169.04
  Q 251.95 168.12 250.22 171.89
  A 1.94 1.94 0.0 0 0 251.32 174.52
  Q 251.54 174.60 255.16 175.86
  C 258.15 176.90 257.41 180.05 255.33 181.54
  C 253.22 183.05 247.65 185.59 246.02 182.23
  A 0.88 0.87 1.1 0 1 247.22 181.08
  Z"
/>
<path fill="#0f553b" d="
  M 177.20 182.71
  A 0.50 0.50 0.0 0 0 177.82 183.29
  L 185.24 181.35
  A 0.57 0.57 0.0 0 1 185.93 182.07
  L 185.90 182.19
  A 1.60 1.59 -85.1 0 1 185.06 182.90
  L 176.73 185.87
  A 1.52 1.51 -6.1 0 0 175.73 187.10
  L 174.49 196.51
  A 1.44 1.41 38.4 0 0 174.58 197.23
  L 175.53 199.68
  A 1.03 1.03 0.0 0 1 174.96 200.99
  L 174.72 201.09
  A 1.13 1.12 -19.0 0 1 173.21 200.36
  C 172.11 196.53 172.93 191.56 173.64 187.85
  A 0.43 0.42 -5.2 0 0 173.07 187.38
  L 168.86 189.01
  A 1.08 1.08 0.0 0 1 167.47 188.39
  L 167.31 187.97
  A 0.73 0.73 0.0 0 1 167.73 187.02
  L 173.25 184.89
  A 1.73 1.71 -4.2 0 0 174.29 183.70
  L 177.71 169.50
  A 0.54 0.54 0.0 0 1 178.60 169.23
  L 178.93 169.53
  A 1.68 1.66 26.7 0 1 179.45 171.07
  L 177.20 182.71
  Z"
/>
<path fill="#0f553b" d="
  M 236.41 181.94
  C 234.42 183.88 232.55 188.72 228.48 188.01
  A 2.58 1.91 -86.5 0 1 226.88 185.55
  C 226.88 181.04 230.25 176.32 232.81 172.57
  Q 234.55 170.02 236.76 170.53
  A 1.46 1.44 83.9 0 1 237.75 171.34
  Q 237.79 171.41 238.08 172.52
  C 238.46 173.96 240.22 174.49 239.68 176.11
  Q 238.65 179.23 239.48 182.18
  A 1.55 1.54 -22.9 0 0 241.74 183.09
  L 243.51 182.07
  A 0.58 0.57 84.6 0 1 244.34 182.76
  Q 243.67 184.67 241.43 185.20
  Q 238.41 185.92 237.20 182.14
  A 0.48 0.48 0.0 0 0 236.41 181.94
  Z
  M 236.27 173.59
  A 0.73 0.73 0.0 0 0 234.99 173.00
  Q 231.51 177.23 229.48 182.99
  Q 228.96 184.47 229.19 185.25
  A 0.91 0.91 0.0 0 0 230.79 185.55
  L 236.23 178.41
  A 1.72 1.69 56.3 0 0 236.52 176.89
  Q 236.01 175.12 236.27 173.59
  Z"
/>
<ellipse fill="#0f553b" cx="0.00" cy="0.00" transform="translate(279.94,174.76) rotate(-8.3)" rx="1.85" ry="1.64"/>
<path fill="#0f553b" d="
  M 136.68 197.31
  A 0.28 0.28 0.0 0 0 137.22 197.27
  Q 138.45 186.43 141.70 174.67
  A 0.70 0.70 0.0 0 1 142.94 174.45
  L 142.97 174.50
  A 3.46 3.43 31.7 0 1 143.57 176.99
  Q 141.95 187.77 140.00 195.74
  Q 138.83 200.49 139.66 205.01
  A 0.57 0.56 -18.4 0 0 140.47 205.41
  Q 141.49 204.91 141.92 204.10
  A 0.65 0.65 0.0 0 1 143.12 204.57
  Q 142.62 206.42 141.00 207.30
  A 2.27 2.26 58.9 0 1 138.05 206.56
  Q 137.04 205.08 137.00 203.20
  A 0.43 0.43 0.0 0 0 136.17 203.06
  Q 134.54 207.29 131.32 209.47
  C 128.40 211.45 125.68 210.23 126.22 206.49
  C 126.82 202.28 129.24 195.97 133.57 194.09
  A 1.87 1.86 70.5 0 1 136.12 195.31
  L 136.68 197.31
  Z
  M 129.47 208.13
  C 131.99 207.09 134.01 203.06 135.35 200.67
  A 1.26 1.24 -36.7 0 0 135.49 199.76
  Q 135.04 197.77 134.05 196.63
  A 0.59 0.59 0.0 0 0 133.15 196.63
  Q 128.91 201.60 128.05 207.00
  A 1.04 1.04 0.0 0 0 129.47 208.13
  Z"
/>
<path fill="#0f553b" d="
  M 123.65 177.39
  L 123.70 177.42
  A 1.96 1.96 0.0 0 1 124.54 179.48
  C 122.74 187.83 120.02 197.07 119.25 205.24
  Q 119.07 207.14 119.24 208.96
  A 1.33 1.32 10.8 0 0 119.96 210.01
  L 120.54 210.30
  A 0.97 0.97 0.0 0 1 120.68 211.95
  L 120.06 212.40
  A 1.56 1.54 45.3 0 1 118.22 212.38
  C 115.75 210.49 116.84 202.61 117.55 199.74
  Q 120.23 188.98 122.29 177.97
  A 0.89 0.89 0.0 0 1 123.65 177.39
  Z"
/>
<path fill="#0f553b" d="
  M 192.65 180.73
  Q 194.28 182.76 194.80 183.55
  C 197.06 186.96 194.57 192.51 192.05 194.98
  C 189.20 197.77 184.86 197.50 185.10 192.57
  Q 185.26 189.11 186.09 187.24
  Q 187.90 183.15 188.08 182.37
  A 1.23 1.22 -6.6 0 1 188.85 181.40
  L 191.39 180.39
  A 1.10 1.09 59.7 0 1 192.65 180.73
  Z
  M 192.3357 183.3635
  A 5.98 2.74 -70.2 0 0 187.7320 188.0619
  A 5.98 2.74 -70.2 0 0 188.2843 194.6165
  A 5.98 2.74 -70.2 0 0 192.8880 189.9181
  A 5.98 2.74 -70.2 0 0 192.3357 183.3635
  Z"
/>
<ellipse fill="#0f553b" cx="0.00" cy="0.00" transform="translate(110.49,190.63) rotate(-91.3)" rx="2.26" ry="1.43"/>
<path fill="#0f553b" d="
  M 69.17 205.01
  A 0.43 0.43 0.0 0 0 69.64 205.70
  Q 74.55 203.90 79.68 205.86
  C 84.08 207.55 82.43 212.89 79.81 215.33
  Q 69.13 225.26 56.14 228.92
  Q 54.76 229.31 54.06 228.66
  A 1.40 1.38 -19.1 0 1 55.24 226.28
  Q 57.12 226.57 59.08 225.84
  Q 59.66 225.62 67.58 221.56
  C 71.53 219.53 77.56 215.31 80.00 210.80
  A 2.18 2.18 0.0 0 0 78.89 207.74
  C 74.10 205.80 68.43 207.35 64.14 210.03
  A 1.28 1.26 76.8 0 0 63.56 210.98
  L 62.41 223.07
  A 0.87 0.86 16.2 0 1 61.16 223.75
  L 60.83 223.59
  A 1.23 1.22 17.1 0 1 60.17 222.36
  C 60.68 218.03 61.71 213.61 60.34 211.48
  A 0.82 0.79 42.8 0 1 60.30 210.71
  L 61.64 208.05
  A 1.86 1.79 -30.7 0 0 61.85 207.29
  L 62.56 197.19
  A 0.64 0.64 0.0 0 1 63.49 196.66
  L 63.53 196.67
  A 1.63 1.61 13.5 0 1 64.41 198.09
  Q 64.43 199.35 64.06 205.65
  Q 64.02 206.35 64.61 206.32
  Q 64.84 206.31 65.10 206.07
  C 68.43 202.84 73.64 198.52 75.36 194.10
  A 1.70 1.69 13.2 0 0 73.93 191.80
  C 71.81 191.61 67.83 193.61 64.03 195.33
  Q 58.84 197.67 55.84 201.25
  A 0.92 0.92 0.0 0 1 54.22 200.55
  Q 54.48 198.42 56.28 197.29
  C 59.36 195.35 74.21 185.93 77.16 191.56
  C 78.69 194.47 75.02 199.91 73.16 201.44
  Q 70.19 203.90 69.17 205.01
  Z"
/>
<path fill="#0f553b" d="
  M 108.56 214.52
  A 0.15 0.15 0.0 0 1 108.40 214.65
  L 108.00 214.61
  A 3.81 1.75 -84.7 0 1 106.61 210.66
  L 107.26 203.59
  A 3.81 1.75 -84.7 0 1 109.36 199.96
  L 109.76 199.99
  A 0.15 0.15 0.0 0 1 109.89 200.16
  L 108.56 214.52
  Z"
/>
<path fill="#0f553b" d="
  M 96.88 211.53
  A 0.26 0.26 0.0 0 0 96.39 211.47
  C 95.17 213.96 92.38 218.42 89.65 219.15
  A 1.84 1.84 0.0 0 1 87.48 218.07
  C 85.79 213.95 87.55 207.87 89.06 204.21
  A 0.72 0.72 0.0 0 1 90.13 203.89
  L 90.15 203.91
  A 1.16 1.16 0.0 0 1 90.62 205.19
  Q 88.96 211.13 89.05 215.74
  A 0.62 0.62 0.0 0 0 89.97 216.27
  C 93.64 214.30 96.82 206.91 97.60 203.27
  A 1.64 1.64 0.0 0 1 99.20 201.98
  L 99.46 201.98
  A 0.86 0.85 3.3 0 1 100.31 202.93
  C 99.91 206.49 98.99 210.28 99.60 213.70
  A 0.72 0.72 0.0 0 0 100.31 214.29
  L 101.66 214.29
  A 0.68 0.68 0.0 0 1 102.20 215.39
  Q 101.14 216.76 99.58 216.47
  A 3.05 2.95 4.2 0 1 97.09 213.68
  Q 97.03 212.27 96.88 211.53
  Z"
/>
<path fill="#0f553b" d="
  M 224.88 242.67
  L 239.23 226.83
  A 0.90 0.89 -58.9 0 1 240.18 226.59
  L 240.47 226.68
  A 0.70 0.70 0.0 0 1 240.63 227.60
  Q 238.56 230.85 236.09 233.27
  C 231.94 237.35 230.08 240.12 225.76 244.39
  A 1.24 1.24 0.0 0 0 226.13 246.41
  Q 233.47 249.61 242.43 251.44
  A 0.66 0.66 0.0 0 1 242.89 252.37
  L 242.88 252.40
  A 1.07 1.06 -72.9 0 1 241.76 253.00
  Q 232.33 251.59 224.02 247.90
  A 0.43 0.42 -70.5 0 0 223.44 248.18
  Q 221.89 254.12 221.91 259.68
  A 0.99 0.98 1.4 0 1 220.87 260.66
  L 220.81 260.65
  A 1.09 1.09 0.0 0 1 219.78 259.49
  Q 220.50 249.05 221.19 246.17
  Q 223.30 237.43 224.85 229.34
  A 0.63 0.63 0.0 0 1 225.58 228.84
  L 226.07 228.94
  A 0.89 0.89 0.0 0 1 226.77 229.98
  L 224.37 242.42
  A 0.30 0.29 -18.6 0 0 224.88 242.67
  Z"
/>
<path fill="#0f553b" d="
  M 214.47 254.63
  C 211.79 259.36 205.28 264.72 199.79 263.50
  C 193.53 262.11 194.01 254.78 195.79 249.74
  C 197.77 244.13 201.45 235.84 206.75 233.28
  C 210.77 231.34 212.01 235.57 210.78 238.52
  A 0.91 0.90 -33.8 0 1 209.04 238.18
  L 209.04 235.48
  A 0.39 0.38 -66.4 0 0 208.94 235.22
  Q 207.98 234.17 205.83 236.55
  Q 199.12 243.95 197.38 253.91
  C 196.51 258.92 198.79 263.51 204.62 260.87
  Q 209.23 258.79 213.68 254.05
  A 0.49 0.49 0.0 0 1 214.47 254.63
  Z"
/>
<rect fill="#0f553b" x="-14.35" y="-1.06" transform="translate(162.89,260.18) rotate(-14.6)" width="28.70" height="2.12" rx="0.92"/>
<path fill="#0f553b" d="
  M 221.49 280.48
  Q 220.74 280.52 219.22 280.90
  Q 215.45 281.84 194.00 287.74
  Q 187.61 289.49 183.94 290.87
  Q 178.00 293.08 173.91 294.16
  Q 171.66 294.74 164.49 297.99
  Q 159.87 300.09 154.91 301.42
  A 2.54 2.53 -39.2 0 1 153.12 301.24
  L 152.92 301.14
  A 0.47 0.47 0.0 0 1 152.93 300.29
  Q 154.24 299.70 159.80 297.25
  C 165.60 294.69 171.52 292.87 176.55 290.95
  C 183.08 288.45 191.74 286.43 196.88 284.72
  Q 202.64 282.79 207.29 281.73
  Q 216.98 279.53 226.26 277.01
  C 237.03 274.08 250.10 272.42 259.55 270.66
  Q 264.80 269.69 273.00 268.77
  Q 274.86 268.56 277.93 269.11
  A 0.44 0.44 0.0 0 1 278.29 269.54
  L 278.29 269.88
  A 0.33 0.33 0.0 0 1 277.94 270.21
  Q 275.75 270.06 275.07 270.17
  Q 261.94 272.20 246.89 275.47
  C 240.46 276.86 234.06 279.05 226.98 280.68
  Q 225.97 280.91 224.66 280.85
  A 0.39 0.38 -80.0 0 0 224.28 281.12
  Q 224.19 281.45 224.41 281.57
  A 0.02 0.02 0.0 0 1 224.39 281.61
  Q 223.40 281.37 217.76 283.64
  Q 214.33 285.02 211.39 285.81
  Q 207.05 286.98 200.61 289.55
  A 0.04 0.04 0.0 0 0 200.62 289.62
  L 200.63 289.62
  Q 213.01 286.62 225.34 283.50
  A 0.30 0.30 0.0 0 1 225.70 283.72
  L 225.71 283.73
  A 0.21 0.21 0.0 0 1 225.56 283.98
  Q 200.59 291.04 188.40 296.21
  Q 179.81 299.86 169.76 303.92
  A 0.78 0.78 0.0 0 1 168.70 303.34
  L 168.69 303.30
  A 1.24 1.23 -18.2 0 1 169.37 301.97
  Q 181.79 295.90 183.12 295.36
  Q 188.10 293.36 194.51 290.57
  Q 200.00 288.18 207.02 286.03
  C 211.55 284.63 216.70 282.56 221.61 281.22
  A 0.38 0.38 0.0 0 0 221.49 280.48
  Z"
/>
<path fill="#0f553b" d="
  M 228.93 283.58
  Q 228.70 283.71 228.13 283.58
  A 0.22 0.22 0.0 0 1 228.12 283.15
  Q 228.65 282.99 228.80 283.00
  A 0.31 0.31 0.0 0 1 228.93 283.58
  Z"
/>
</svg>
