<?xml version="1.0" encoding="UTF-8" standalone="no"?>
<!DOCTYPE svg PUBLIC "-//W3C//DTD SVG 1.1//EN" "http://www.w3.org/Graphics/SVG/1.1/DTD/svg11.dtd">
<svg xmlns="http://www.w3.org/2000/svg" version="1.1" viewBox="0.00 0.00 328.00 441.00">
<path fill="#0f261b" d="
  M 30.12 63.83
  L 30.05 62.84
  A 0.63 0.61 73.5 0 1 30.35 62.27
  Q 33.19 60.61 34.19 60.39
  C 40.54 59.00 45.77 57.33 50.79 56.58
  C 58.61 55.40 65.68 53.71 73.46 52.83
  C 82.76 51.77 93.22 50.10 103.14 49.15
  C 123.80 47.16 141.64 44.59 159.22 42.13
  Q 170.81 40.51 180.32 39.74
  C 191.15 38.87 198.84 37.64 208.56 37.29
  Q 224.70 36.72 236.27 35.06
  C 244.60 33.87 252.85 34.68 261.21 33.80
  Q 261.99 33.72 265.60 34.99
  A 1.83 1.83 0.0 0 1 266.59 35.85
  Q 268.24 39.01 268.61 41.39
  Q 270.83 55.84 273.56 75.48
  Q 275.56 89.98 276.82 110.80
  Q 277.47 121.62 278.47 128.21
  C 280.34 140.52 280.51 150.12 282.19 161.48
  Q 283.84 172.60 284.82 188.46
  Q 285.34 196.98 286.56 204.99
  Q 288.05 214.82 288.53 221.49
  Q 290.71 251.63 292.09 263.25
  C 295.63 293.27 297.46 307.73 300.24 331.40
  Q 301.18 339.42 301.19 347.13
  Q 301.22 357.87 302.64 367.23
  Q 302.80 368.32 302.24 369.72
  A 1.38 1.38 0.0 0 1 299.72 369.82
  C 297.59 365.53 298.26 358.00 297.61 352.70
  C 295.94 339.22 294.90 324.70 293.21 310.79
  Q 291.69 298.24 286.72 256.50
  Q 285.45 245.84 282.88 217.19
  C 281.78 204.86 279.66 192.92 278.64 180.57
  C 278.14 174.59 277.15 169.50 276.78 163.39
  C 276.38 156.55 275.24 149.44 274.65 143.22
  Q 271.31 108.31 270.30 99.69
  Q 269.57 93.42 268.41 82.02
  Q 265.80 56.44 263.60 39.44
  A 1.75 1.75 0.0 0 0 261.79 37.92
  Q 253.95 38.24 247.10 39.23
  Q 243.72 39.72 232.39 39.98
  Q 221.59 40.24 201.75 43.01
  Q 186.49 45.14 151.40 48.27
  Q 134.29 49.80 125.63 51.09
  C 114.80 52.69 103.34 54.65 91.43 56.18
  Q 70.95 58.80 52.77 61.08
  Q 51.08 61.29 44.25 61.41
  A 10.31 10.22 37.1 0 0 41.87 61.73
  L 31.03 64.50
  A 0.74 0.73 -8.5 0 1 30.12 63.83
  Z"
/>
<path fill="#0f261b" d="
  M 65.19 393.72
  L 65.12 393.73
  A 1.66 1.66 0.0 0 1 63.23 392.32
  Q 60.44 372.28 57.77 345.51
  Q 55.88 326.60 54.08 315.07
  C 50.45 291.76 48.59 271.31 45.28 247.60
  Q 40.60 214.03 38.03 178.25
  Q 37.24 167.27 34.82 150.02
  Q 32.53 133.62 31.37 121.85
  Q 28.92 96.96 27.46 69.52
  A 2.83 2.81 60.1 0 1 27.91 67.83
  L 29.14 65.93
  A 1.09 1.08 58.2 0 1 31.13 66.40
  Q 32.84 81.83 33.89 89.47
  Q 34.75 95.73 36.38 112.46
  Q 39.29 142.19 40.98 162.23
  Q 41.86 172.59 43.79 188.25
  C 45.39 201.21 47.34 220.38 49.65 237.12
  C 51.01 246.97 51.84 258.07 53.13 267.69
  C 56.05 289.54 58.95 315.91 62.35 341.63
  Q 65.63 366.42 66.77 391.80
  A 1.86 1.86 0.0 0 1 65.19 393.72
  Z"
/>
<path fill="#121a14" d="
  M 96.7229 71.5267
  A 4.52 4.25 -133.6 0 1 102.9177 71.8691
  A 4.52 4.25 -133.6 0 1 102.9571 78.0733
  A 4.52 4.25 -133.6 0 1 96.7623 77.7309
  A 4.52 4.25 -133.6 0 1 96.7229 71.5267
  Z
  M 100.75 73.96
  Q 100.17 73.34 99.37 73.79
  A 0.46 0.45 -55.8 0 0 99.53 74.64
  Q 99.55 74.64 100.65 74.34
  A 0.23 0.23 0.0 0 0 100.75 73.96
  Z"
/>
<path fill="#121a14" d="
  M 81.9850 74.6893
  A 4.69 4.46 -40.9 0 1 81.3601 81.1311
  A 4.69 4.46 -40.9 0 1 74.8950 80.8307
  A 4.69 4.46 -40.9 0 1 75.5199 74.3889
  A 4.69 4.46 -40.9 0 1 81.9850 74.6893
  Z
  M 79.63 77.64
  A 1.41 1.41 0.0 0 0 78.22 76.23
  A 1.41 1.41 0.0 0 0 76.81 77.64
  A 1.41 1.41 0.0 0 0 78.22 79.05
  A 1.41 1.41 0.0 0 0 79.63 77.64
  Z"
/>
<path fill="#0f261b" d="
  M 56.0430 75.5566
  A 5.03 4.80 -95.9 0 1 61.3346 80.0666
  A 5.03 4.80 -95.9 0 1 57.0770 85.5634
  A 5.03 4.80 -95.9 0 1 51.7854 81.0534
  A 5.03 4.80 -95.9 0 1 56.0430 75.5566
  Z
  M 58.03 80.27
  A 1.40 1.40 0.0 0 0 56.63 78.87
  A 1.40 1.40 0.0 0 0 55.23 80.27
  A 1.40 1.40 0.0 0 0 56.63 81.67
  A 1.40 1.40 0.0 0 0 58.03 80.27
  Z"
/>
<path fill="#000100" d="
  M 38.15 101.95
  A 0.37 0.37 0.0 0 1 38.13 101.21
  Q 54.59 98.48 73.42 96.75
  Q 79.04 96.24 84.95 95.37
  Q 87.22 95.03 96.48 93.88
  Q 122.98 90.60 162.81 85.12
  Q 183.41 82.28 217.19 78.83
  Q 220.12 78.53 226.84 77.65
  Q 232.07 76.97 241.17 76.81
  A 0.38 0.38 0.0 0 1 241.49 77.41
  Q 241.22 77.80 240.62 77.90
  Q 228.83 79.74 211.76 81.80
  Q 177.04 86.00 156.07 88.75
  C 136.12 91.38 111.60 94.12 90.63 97.05
  C 75.06 99.23 69.10 99.48 51.55 101.18
  C 48.89 101.43 45.25 101.07 43.33 101.17
  C 41.53 101.28 39.73 102.12 38.15 101.95
  Z"
/>
<path fill="#121a14" d="
  M 135.43 133.75
  Q 135.41 133.04 136.40 132.88
  Q 149.66 130.78 171.27 128.57
  Q 192.48 126.41 229.61 121.61
  Q 234.95 120.92 240.67 122.09
  A 1.75 1.74 10.6 0 1 242.05 124.09
  L 242.03 124.19
  A 1.91 1.90 5.8 0 1 240.07 125.78
  Q 233.00 125.48 226.57 126.12
  Q 170.20 131.71 145.08 133.65
  Q 136.49 134.31 135.94 134.28
  A 0.55 0.54 -89.4 0 1 135.43 133.75
  Z"
/>
<path fill="#121a14" d="
  M 99.46 132.97
  Q 87.68 135.56 75.96 136.21
  A 0.89 0.88 -7.1 0 0 75.14 137.26
  Q 75.95 141.62 77.93 154.76
  Q 78.12 156.03 78.13 159.88
  A 1.08 1.08 0.0 0 0 79.37 160.95
  L 104.02 157.25
  A 1.01 1.00 80.8 0 0 104.86 156.08
  Q 103.52 148.72 103.68 139.20
  A 0.71 0.71 0.0 0 0 102.54 138.62
  Q 102.25 138.85 101.95 139.44
  Q 97.76 147.69 94.22 152.98
  A 2.34 2.33 39.0 0 1 90.65 153.35
  L 82.64 145.52
  A 1.42 1.41 -40.0 0 1 82.84 143.33
  L 83.07 143.17
  A 2.06 2.06 0.0 0 1 85.69 143.41
  L 90.78 148.51
  A 1.10 1.10 0.0 0 0 92.51 148.28
  L 106.80 123.52
  A 3.41 3.40 -75.0 0 1 109.72 121.83
  L 110.14 121.83
  A 1.70 1.70 0.0 0 1 111.52 124.44
  L 105.07 134.67
  A 1.90 1.87 -34.9 0 0 104.82 136.02
  Q 107.12 147.60 108.36 155.67
  Q 108.57 157.04 108.39 158.30
  A 2.27 2.26 0.5 0 1 106.44 160.21
  Q 93.58 161.82 78.52 164.12
  C 75.74 164.55 75.19 163.31 74.98 160.76
  Q 73.24 140.17 72.86 137.12
  A 1.06 1.06 0.0 0 1 73.38 136.08
  Q 76.42 134.31 76.95 134.21
  C 84.45 132.81 92.05 131.24 99.32 131.48
  A 0.76 0.75 39.7 0 1 99.46 132.97
  Z"
/>
<rect fill="#000100" x="-30.17" y="-1.58" transform="translate(167.18,147.39) rotate(-7.3)" width="60.34" height="3.16" rx="1.56"/>
<path fill="#0f261b" d="
  M 109.73 205.37
  Q 106.37 210.29 102.43 217.16
  Q 102.41 217.19 100.75 219.00
  A 1.77 1.77 0.0 0 1 98.20 219.05
  L 90.55 211.41
  A 1.39 1.39 0.0 0 1 90.84 209.22
  L 91.07 209.09
  A 2.07 2.06 52.3 0 1 93.57 209.42
  L 98.17 214.01
  A 1.05 1.05 0.0 0 0 99.81 213.81
  C 102.55 209.26 106.92 202.22 111.35 195.87
  Q 113.55 192.72 115.19 189.20
  Q 115.96 187.56 117.44 186.88
  A 1.70 1.68 -24.6 0 1 119.69 187.70
  Q 120.21 188.84 119.60 190.11
  Q 116.68 196.15 112.80 201.20
  A 1.79 1.75 -31.1 0 0 112.45 202.56
  L 115.60 223.58
  A 1.17 1.14 -35.9 0 1 115.47 224.34
  Q 114.81 225.52 112.67 225.91
  Q 102.51 227.75 85.27 230.13
  C 83.06 230.44 82.28 229.36 82.14 227.05
  Q 81.57 217.88 79.88 201.59
  A 1.13 1.11 -15.7 0 1 80.53 200.45
  L 84.95 198.40
  A 0.46 0.33 -54.2 0 1 85.07 198.36
  Q 96.01 195.27 106.76 195.28
  A 1.61 1.61 0.0 0 1 108.16 196.10
  L 108.17 196.13
  A 0.69 0.68 72.1 0 1 107.66 197.14
  C 102.32 197.75 97.40 198.99 91.76 199.47
  Q 84.57 200.09 83.14 200.19
  A 1.00 0.99 -6.1 0 0 82.22 201.33
  L 85.89 225.72
  A 0.98 0.97 -8.3 0 0 87.00 226.54
  L 111.17 222.91
  A 0.83 0.81 83.9 0 0 111.86 222.04
  L 110.79 205.66
  A 0.58 0.58 0.0 0 0 109.73 205.37
  Z"
/>
<path fill="#121a14" d="
  M 240.58 189.05
  A 0.26 0.25 -40.7 0 1 240.54 189.55
  C 236.50 190.03 233.15 190.81 229.55 191.20
  Q 212.53 193.02 187.82 196.09
  Q 172.99 197.94 143.67 200.15
  A 0.45 0.45 0.0 0 1 143.21 199.56
  L 143.24 199.47
  A 1.03 1.02 -83.7 0 1 144.10 198.77
  Q 149.19 198.16 171.92 195.53
  C 190.22 193.42 209.83 190.28 228.56 188.13
  Q 234.70 187.43 240.58 189.05
  Z"
/>
<rect fill="#000100" x="-23.86" y="-1.10" transform="translate(169.04,212.29) rotate(-7.0)" width="47.72" height="2.20" rx="1.08"/>
<path fill="#000100" d="
  M 150.06 262.02
  A 0.62 0.62 0.0 0 1 150.06 260.79
  Q 188.21 257.16 227.01 251.55
  C 232.10 250.81 242.05 248.90 245.83 251.78
  A 0.65 0.65 0.0 0 1 245.50 252.95
  Q 239.84 253.53 234.84 253.92
  Q 226.32 254.58 224.18 254.86
  C 200.32 257.97 181.86 260.06 158.75 261.93
  Q 153.51 262.35 150.06 262.02
  Z"
/>
<path fill="#121a14" d="
  M 117.64 267.04
  A 0.28 0.28 0.0 0 0 117.12 266.91
  Q 113.27 272.70 108.00 281.61
  Q 106.65 283.89 104.40 281.96
  Q 100.79 278.88 97.37 274.56
  A 1.55 1.55 0.0 0 1 97.76 272.28
  L 97.82 272.25
  A 1.98 1.98 0.0 0 1 100.40 272.60
  L 104.47 277.23
  A 1.21 1.21 0.0 0 0 106.41 277.05
  L 121.63 251.82
  A 2.03 2.02 30.2 0 1 124.35 251.11
  L 124.41 251.14
  A 2.02 2.02 0.0 0 1 125.19 253.91
  L 118.60 265.35
  A 1.04 1.03 45.8 0 0 118.59 266.38
  C 119.00 267.09 119.71 267.77 119.88 268.80
  Q 121.25 276.70 121.19 277.83
  Q 121.13 278.89 121.94 282.72
  Q 122.46 285.17 122.03 287.70
  A 1.85 1.85 0.0 0 1 120.49 289.21
  Q 104.38 291.77 93.52 293.29
  Q 90.29 293.74 89.97 291.03
  C 89.34 285.69 88.45 279.81 88.22 274.97
  Q 87.97 269.86 87.19 265.81
  C 86.72 263.37 89.30 262.17 91.32 261.63
  Q 102.76 258.63 113.62 258.94
  A 1.27 1.27 0.0 0 1 114.82 259.89
  L 114.89 260.19
  A 0.27 0.26 79.2 0 1 114.67 260.52
  L 89.99 264.23
  A 0.76 0.74 -10.2 0 0 89.36 265.12
  Q 90.77 272.05 90.98 274.50
  C 91.40 279.31 93.26 283.93 92.89 288.70
  A 1.26 1.26 0.0 0 0 94.34 290.05
  L 118.33 286.45
  A 1.06 1.06 0.0 0 0 119.20 285.14
  L 118.65 282.98
  A 1.84 0.92 -73.9 0 1 118.62 282.77
  L 117.64 267.04
  Z"
/>
<rect fill="#000100" x="-25.13" y="-1.16" transform="translate(176.69,275.47) rotate(-7.5)" width="50.26" height="2.32" rx="1.14"/>
<path fill="#000100" d="
  M 156.16 326.29
  L 156.15 326.26
  A 0.70 0.70 0.0 0 1 156.74 325.39
  Q 188.27 321.41 196.24 320.18
  Q 206.54 318.59 213.03 317.68
  Q 245.79 313.12 248.00 312.75
  Q 251.11 312.24 258.50 312.47
  A 1.25 1.24 5.3 0 1 259.69 313.90
  L 259.68 313.96
  A 1.69 1.68 3.3 0 1 258.07 315.39
  Q 254.88 315.50 252.54 315.70
  Q 237.82 316.99 218.24 319.91
  Q 197.88 322.94 157.16 326.99
  A 0.94 0.94 0.0 0 1 156.16 326.29
  Z"
/>
<path fill="#121a14" d="
  M 125.39 332.63
  A 0.78 0.78 0.0 0 0 123.98 332.45
  L 115.60 346.34
  A 1.64 1.64 0.0 0 1 113.04 346.65
  L 105.32 338.94
  A 1.21 1.20 -26.6 0 1 106.00 336.90
  L 106.79 336.78
  A 2.20 2.19 63.0 0 1 108.68 337.40
  L 112.56 341.28
  A 1.03 1.03 0.0 0 0 114.16 341.11
  L 130.56 315.70
  A 1.65 1.65 0.0 0 1 133.18 315.50
  L 133.28 315.60
  A 2.63 2.62 40.3 0 1 133.56 318.87
  L 126.93 328.79
  A 1.21 1.19 -33.2 0 0 126.74 329.66
  L 130.15 350.22
  A 2.70 2.69 68.0 0 1 129.02 352.88
  Q 127.93 353.64 125.73 353.96
  Q 112.68 355.88 99.33 357.13
  A 1.87 1.87 0.0 0 1 97.31 355.58
  L 95.32 344.01
  A 1.85 1.72 43.0 0 1 95.29 343.59
  Q 95.42 337.92 94.00 330.01
  A 2.67 2.65 -20.2 0 1 95.29 327.24
  Q 96.61 326.48 99.04 325.85
  Q 100.97 325.34 114.89 322.93
  Q 118.67 322.27 122.89 322.63
  A 1.03 1.03 0.0 0 1 122.96 324.68
  L 97.30 328.54
  A 0.62 0.61 -8.5 0 0 96.78 329.23
  L 100.33 352.82
  A 1.15 1.15 0.0 0 0 101.65 353.79
  L 125.68 350.18
  A 0.67 0.67 0.0 0 0 126.24 349.41
  Q 125.30 343.81 125.21 336.13
  C 125.19 334.87 125.63 333.41 125.39 332.63
  Z"
/>
<path fill="#000100" d="
  M 248.25 334.31
  A 0.25 0.25 0.0 0 1 248.51 334.53
  L 248.51 334.54
  A 0.22 0.22 0.0 0 1 248.33 334.79
  Q 245.72 335.37 241.57 336.29
  Q 237.61 337.18 221.29 338.24
  A 9.20 9.02 34.8 0 0 219.35 338.57
  Q 212.77 340.46 205.21 341.44
  Q 182.26 344.40 159.65 346.79
  A 1.34 1.33 -6.6 0 1 158.18 345.63
  L 158.18 345.59
  A 1.40 1.40 0.0 0 1 159.31 344.04
  C 161.49 343.65 164.05 343.73 166.98 343.33
  Q 207.30 337.79 226.06 335.12
  Q 230.12 334.55 232.75 334.55
  Q 241.87 334.54 248.25 334.31
  Z"
/>
<path fill="#0f261b" d="
  M 67.65 399.52
  A 1.62 1.62 0.0 0 1 69.51 397.00
  Q 70.11 397.25 72.80 398.70
  C 75.60 400.21 78.13 400.75 81.50 400.46
  C 89.26 399.79 100.91 397.94 105.25 397.48
  Q 128.75 394.94 204.84 387.17
  Q 217.06 385.92 233.13 383.89
  C 254.08 381.25 267.66 379.38 285.54 378.36
  Q 291.97 377.99 296.28 374.37
  A 1.33 1.32 30.7 0 1 297.40 374.09
  Q 299.97 374.62 300.17 377.00
  A 1.95 1.94 -14.3 0 1 299.02 378.93
  C 296.63 379.98 293.84 381.00 291.02 381.51
  Q 276.22 384.22 270.76 384.72
  Q 219.02 389.49 183.76 394.34
  Q 133.73 401.21 88.51 404.54
  C 82.83 404.95 71.33 404.04 67.65 399.52
  Z"
/>
</svg>
