<?xml version="1.0" encoding="UTF-8" standalone="no"?>
<!DOCTYPE svg PUBLIC "-//W3C//DTD SVG 1.1//EN" "http://www.w3.org/Graphics/SVG/1.1/DTD/svg11.dtd">
<svg xmlns="http://www.w3.org/2000/svg" version="1.1" viewBox="0.00 0.00 256.00 284.00">
<path fill="#0d1b14" d="
  M 117.59 51.51
  L 123.75 45.35
  A 2.87 2.83 -15.0 0 0 124.45 44.16
  C 125.91 39.20 127.59 35.34 133.26 34.52
  C 142.59 33.16 137.60 49.83 126.75 46.64
  A 1.46 1.45 -55.8 0 0 125.42 46.90
  Q 121.26 50.21 118.35 54.31
  Q 117.30 55.79 117.66 58.51
  Q 118.02 61.18 118.46 66.28
  Q 118.50 66.75 118.69 66.97
  A 0.46 0.46 0.0 0 0 119.40 66.93
  Q 121.28 64.31 124.52 58.80
  C 126.48 55.46 130.64 52.47 134.56 54.50
  Q 136.63 55.56 135.90 58.60
  C 134.48 64.52 129.29 65.72 124.06 65.39
  A 1.92 1.91 16.7 0 0 122.29 66.34
  L 119.20 71.68
  A 0.84 0.84 0.0 0 0 119.10 72.15
  L 120.25 85.39
  A 0.82 0.82 0.0 0 1 119.23 86.26
  L 118.93 86.18
  A 1.66 1.65 4.7 0 1 117.68 84.72
  L 116.47 70.78
  A 0.80 0.80 0.0 0 0 115.96 70.10
  Q 110.67 68.05 105.38 68.75
  C 103.60 68.99 100.82 67.55 99.35 65.67
  Q 97.22 62.93 94.71 61.69
  C 90.17 59.43 92.11 55.11 96.36 55.28
  Q 106.43 55.69 110.15 65.55
  A 1.59 1.55 7.8 0 0 110.72 66.28
  Q 112.68 67.67 115.44 68.08
  A 0.58 0.58 0.0 0 0 116.10 67.45
  L 115.17 57.16
  A 1.94 1.93 -69.0 0 0 114.67 56.03
  C 114.02 55.32 112.77 54.99 112.07 54.28
  Q 111.64 53.85 108.59 50.52
  A 3.01 2.99 -18.3 0 0 106.65 49.55
  C 101.04 49.02 95.59 46.79 93.07 41.46
  Q 91.05 37.20 95.07 35.35
  C 102.41 31.98 108.79 47.97 113.63 52.59
  A 0.59 0.59 0.0 0 0 114.63 52.11
  L 113.91 43.79
  A 1.52 1.50 -77.7 0 0 113.17 42.62
  L 111.48 41.64
  A 1.11 1.11 0.0 0 1 111.94 39.58
  L 113.15 39.47
  A 0.50 0.50 0.0 0 0 113.51 38.68
  Q 112.91 37.87 110.61 31.93
  C 109.08 27.96 108.50 22.80 110.61 18.95
  C 112.08 16.27 114.89 15.56 116.78 18.34
  C 121.36 25.07 119.40 33.83 116.42 40.90
  C 115.46 43.18 116.72 48.61 117.05 51.32
  A 0.32 0.32 0.0 0 0 117.59 51.51
  Z
  M 115.31 37.18
  Q 115.65 37.15 115.94 35.73
  C 117.16 29.70 118.09 24.64 114.72 19.05
  Q 114.37 18.47 113.71 18.53
  Q 113.05 18.58 112.81 19.21
  C 110.43 25.29 112.21 30.12 114.44 35.86
  Q 114.97 37.21 115.31 37.18
  Z
  M 135.2607 37.3024
  A 5.03 2.97 -42.8 0 0 129.5521 38.5408
  A 5.03 2.97 -42.8 0 0 127.8793 44.1376
  A 5.03 2.97 -42.8 0 0 133.5879 42.8992
  A 5.03 2.97 -42.8 0 0 135.2607 37.3024
  Z
  M 106.25 46.27
  Q 103.60 42.29 102.87 41.03
  C 101.88 39.31 97.69 35.51 95.52 37.05
  A 2.37 2.36 63.4 0 0 94.64 39.70
  C 96.26 44.77 101.10 46.52 105.88 46.90
  A 0.41 0.41 0.0 0 0 106.25 46.27
  Z
  M 124.55 62.70
  A 0.69 0.68 -88.1 0 0 125.40 63.61
  C 129.31 62.31 132.33 63.35 133.66 58.32
  Q 134.13 56.56 132.96 55.98
  C 129.74 54.38 125.60 60.12 124.55 62.70
  Z
  M 108.17 65.88
  Q 104.81 57.50 95.83 57.24
  Q 95.06 57.21 94.76 57.50
  A 1.05 1.03 -47.4 0 0 94.81 59.05
  C 98.41 61.97 102.27 67.20 107.63 66.77
  A 0.65 0.64 76.6 0 0 108.17 65.88
  Z"
/>
<ellipse fill="#0d1b14" cx="0.00" cy="0.00" transform="translate(169.20,121.88) rotate(-88.2)" rx="3.30" ry="2.09"/>
<path fill="#0d1b14" d="
  M 97.13 151.00
  C 98.74 148.16 104.75 139.57 108.63 141.66
  C 113.45 144.27 112.73 149.06 112.65 154.81
  A 1.76 1.72 -62.7 0 0 112.95 155.79
  Q 113.54 156.67 114.47 157.11
  A 1.23 1.22 -68.9 0 1 115.12 158.60
  C 114.29 161.21 110.47 160.87 109.57 158.41
  Q 108.55 155.61 108.72 152.48
  Q 108.88 149.61 108.42 147.28
  A 1.73 1.72 62.8 0 0 105.55 146.35
  C 100.84 150.77 98.02 157.08 95.32 162.47
  A 1.80 1.80 0.0 0 1 91.97 162.10
  Q 91.52 160.31 91.83 157.30
  Q 93.62 140.17 96.12 121.35
  A 1.60 1.59 5.7 0 1 97.82 119.96
  L 97.88 119.96
  A 1.56 1.56 0.0 0 1 99.33 121.67
  L 96.41 150.77
  A 0.39 0.39 0.0 0 0 97.13 151.00
  Z"
/>
<path fill="#0d1b14" d="
  M 54.60 166.06
  Q 56.36 163.53 57.68 159.70
  Q 62.76 144.85 65.82 134.11
  Q 66.40 132.08 67.83 131.88
  C 69.91 131.59 70.33 134.31 70.27 135.76
  Q 69.83 146.75 70.66 157.50
  Q 70.91 160.80 72.05 163.66
  A 0.97 0.97 0.0 0 0 73.81 163.77
  C 80.45 151.71 82.47 138.69 83.88 125.13
  Q 84.06 123.37 85.47 122.48
  A 1.35 1.35 0.0 0 1 87.53 123.50
  Q 87.75 125.89 87.34 129.67
  Q 85.65 145.01 80.23 159.95
  Q 79.01 163.30 77.08 165.83
  C 74.47 169.23 70.58 168.94 68.86 164.88
  Q 65.80 157.68 66.56 149.95
  A 0.63 0.63 0.0 0 0 65.96 149.26
  L 65.64 149.24
  A 0.37 0.36 -80.1 0 0 65.27 149.51
  Q 62.66 159.07 57.79 168.74
  Q 56.66 170.97 54.78 171.68
  A 2.81 2.81 0.0 0 1 51.51 170.70
  C 48.71 166.85 48.81 158.19 48.97 153.75
  Q 49.57 136.35 49.57 136.30
  C 49.66 134.23 49.22 132.45 49.46 130.32
  A 1.79 1.79 0.0 0 1 51.61 128.77
  L 51.69 128.79
  A 2.25 2.24 7.6 0 1 53.47 131.11
  Q 52.38 149.90 53.57 165.78
  A 0.57 0.57 0.0 0 0 54.60 166.06
  Z"
/>
<path fill="#0d1b14" d="
  M 185.84 149.95
  A 1.41 1.41 0.0 0 0 185.66 147.89
  C 181.21 144.40 174.43 140.30 178.12 133.53
  C 180.17 129.77 186.52 124.24 191.19 127.11
  C 193.94 128.79 194.58 133.33 191.27 134.94
  A 1.09 1.09 0.0 0 1 189.70 133.85
  L 189.96 131.30
  A 1.37 1.36 -4.3 0 0 188.26 129.84
  Q 184.04 130.94 181.36 134.96
  C 178.04 139.91 184.15 142.55 187.19 145.05
  C 190.13 147.47 191.30 151.99 187.03 154.03
  Q 183.02 155.94 177.86 153.42
  A 3.12 3.12 0.0 0 1 176.15 151.14
  L 176.10 150.82
  A 0.94 0.94 0.0 0 1 177.41 149.80
  Q 183.52 152.54 185.84 149.95
  Z"
/>
<rect fill="#0d1b14" x="-1.87" y="-11.19" transform="translate(166.34,144.74) rotate(6.5)" width="3.74" height="22.38" rx="1.83"/>
<path fill="#0d1b14" d="
  M 133.1102 136.8970
  A 12.51 8.35 -69.7 0 1 136.6014 151.5269
  A 12.51 8.35 -69.7 0 1 124.4298 160.3630
  A 12.51 8.35 -69.7 0 1 120.9386 145.7331
  A 12.51 8.35 -69.7 0 1 133.1102 136.8970
  Z
  M 131.6406 140.3206
  A 8.82 4.41 -70.8 0 0 124.5753 147.1997
  A 8.82 4.41 -70.8 0 0 125.8394 156.9794
  A 8.82 4.41 -70.8 0 0 132.9047 150.1003
  A 8.82 4.41 -70.8 0 0 131.6406 140.3206
  Z"
/>
<path fill="#0d1b14" d="
  M 216.63 186.59
  A 1.03 1.03 0.0 0 1 214.87 185.95
  L 214.73 184.34
  A 1.71 1.70 -30.4 0 1 215.02 183.24
  Q 219.66 176.25 226.89 177.59
  C 230.79 178.31 232.95 182.05 232.85 186.08
  C 232.70 191.62 228.70 195.69 225.09 199.46
  C 221.59 203.13 220.44 206.93 220.84 211.78
  A 1.36 1.35 0.9 0 1 219.33 213.24
  L 219.14 213.22
  A 1.91 1.90 -89.6 0 1 217.46 211.51
  C 216.58 202.05 221.46 198.15 227.45 191.57
  C 229.62 189.19 230.46 184.05 227.61 181.60
  C 225.10 179.45 220.39 181.07 218.97 183.29
  Q 217.25 185.98 216.63 186.59
  Z"
/>
<path fill="#0d1b14" d="
  M 149.03 217.27
  A 1.06 1.06 0.0 0 0 147.89 216.05
  Q 146.21 216.21 145.80 215.54
  C 144.67 213.68 147.24 212.25 148.87 211.75
  A 1.97 1.96 85.2 0 0 150.24 210.12
  C 151.10 203.69 152.76 194.17 157.04 189.04
  C 161.06 184.23 167.43 185.84 167.32 192.47
  Q 167.29 194.27 166.17 195.17
  A 1.48 1.42 66.1 0 1 163.86 194.22
  Q 163.29 190.96 163.28 190.92
  A 1.31 1.31 0.0 0 0 161.19 190.13
  C 156.60 193.70 154.77 204.04 154.27 209.53
  A 0.80 0.79 83.3 0 0 155.31 210.36
  Q 158.10 209.43 160.90 209.28
  A 1.91 1.73 -0.0 0 1 162.91 211.10
  Q 162.84 212.43 161.00 213.01
  Q 157.10 214.23 154.11 214.66
  A 1.19 1.19 0.0 0 0 153.11 215.61
  Q 150.46 229.33 151.87 243.14
  A 1.73 1.73 0.0 0 1 150.30 245.04
  L 150.03 245.07
  A 1.69 1.68 -4.2 0 1 148.21 243.50
  Q 147.26 228.37 149.03 217.27
  Z"
/>
<path fill="#0d1b14" d="
  M 68.69 230.94
  A 0.41 0.41 0.0 0 0 69.44 230.96
  C 71.03 227.44 74.50 222.32 78.51 221.41
  A 2.14 2.14 0.0 0 1 79.51 221.41
  C 85.88 222.87 83.92 231.67 84.90 235.86
  A 0.14 0.10 18.0 0 0 84.95 235.93
  Q 87.94 237.57 87.56 238.36
  C 85.64 242.31 81.30 240.20 80.99 236.17
  Q 80.42 228.91 80.27 227.29
  A 1.83 1.82 -7.6 0 0 78.14 225.67
  Q 78.07 225.68 77.38 226.38
  Q 72.30 231.56 67.91 241.62
  Q 67.08 243.53 64.82 243.13
  A 1.15 1.14 79.7 0 1 64.02 242.57
  Q 63.36 241.40 63.60 239.01
  Q 65.52 219.84 68.22 200.76
  A 1.38 1.38 0.0 0 1 70.09 199.67
  L 70.15 199.69
  A 2.27 2.26 13.7 0 1 71.58 202.02
  Q 70.19 216.35 68.57 230.00
  Q 68.51 230.48 68.69 230.94
  Z"
/>
<path fill="#0d1b14" d="
  M 195.14 208.43
  A 0.62 0.62 0.0 0 0 196.27 208.80
  Q 198.84 204.85 202.97 203.25
  C 205.31 202.34 208.28 202.91 208.92 205.49
  A 1.60 1.54 -85.7 0 1 206.82 207.37
  Q 203.75 206.01 200.92 208.95
  C 195.83 214.25 195.17 219.90 194.18 227.04
  A 1.65 1.65 0.0 0 1 192.04 228.38
  L 191.98 228.37
  A 2.50 2.49 11.0 0 1 190.29 225.88
  L 191.35 204.98
  A 2.13 2.13 0.0 0 1 193.59 202.96
  L 193.93 202.98
  A 1.48 1.48 0.0 0 1 195.34 204.53
  L 195.14 208.43
  Z"
/>
<ellipse fill="#0d1b14" cx="0.00" cy="0.00" transform="translate(98.05,207.07) rotate(-86.1)" rx="3.15" ry="2.19"/>
<path fill="#0d1b14" d="
  M 179.7852 206.8718
  A 12.70 8.48 -68.4 0 1 182.9945 221.8017
  A 12.70 8.48 -68.4 0 1 170.4348 230.4882
  A 12.70 8.48 -68.4 0 1 167.2255 215.5583
  A 12.70 8.48 -68.4 0 1 179.7852 206.8718
  Z
  M 178.1749 210.5779
  A 8.93 4.51 -70.2 0 0 170.9066 217.4523
  A 8.93 4.51 -70.2 0 0 172.1251 227.3821
  A 8.93 4.51 -70.2 0 0 179.3934 220.5077
  A 8.93 4.51 -70.2 0 0 178.1749 210.5779
  Z"
/>
<path fill="#0d1b14" d="
  M 45.58 225.52
  A 0.61 0.61 0.0 0 0 44.88 224.76
  Q 44.45 224.84 41.97 225.25
  A 1.65 1.56 -1.8 0 1 40.04 223.54
  C 40.23 221.90 43.67 221.34 45.54 220.96
  A 1.73 1.72 -0.8 0 0 46.88 219.59
  Q 48.01 213.41 50.53 208.62
  A 1.42 1.42 0.0 0 1 52.94 208.45
  Q 53.80 209.64 53.30 211.33
  Q 52.31 214.70 51.10 218.72
  A 0.78 0.78 0.0 0 0 52.12 219.67
  C 53.63 219.10 58.11 217.90 59.00 219.57
  A 1.77 1.65 70.0 0 1 57.92 222.11
  Q 54.54 222.76 50.56 223.37
  A 1.49 1.47 -88.5 0 0 49.35 224.53
  C 48.22 230.13 46.20 240.49 48.95 244.13
  A 1.78 1.76 -32.0 0 0 51.16 244.63
  Q 54.22 243.06 56.68 240.27
  A 1.51 1.40 -42.3 0 1 58.97 240.29
  Q 59.58 241.17 59.04 242.26
  C 57.39 245.58 51.95 249.74 47.97 247.88
  C 41.39 244.83 44.14 230.89 45.58 225.52
  Z"
/>
<path fill="#0d1b14" d="
  M 118.67 218.67
  Q 118.79 217.07 118.80 215.86
  A 1.31 1.31 0.0 0 0 118.10 214.67
  C 115.61 213.38 112.04 216.58 110.78 218.58
  C 107.62 223.60 112.66 226.50 116.38 229.38
  C 118.77 231.23 120.97 235.80 117.72 237.99
  Q 112.95 241.20 106.79 238.17
  A 2.35 2.34 14.5 0 1 105.48 235.96
  L 105.49 235.72
  A 1.09 1.08 14.5 0 1 107.06 234.80
  Q 110.60 236.59 113.99 235.67
  A 1.63 1.63 0.0 0 0 114.75 232.98
  C 110.98 228.97 103.46 225.13 107.20 217.71
  C 109.20 213.75 115.65 208.45 120.23 211.97
  Q 123.55 214.51 121.91 218.34
  Q 121.34 219.68 120.10 219.90
  A 1.22 1.18 -3.2 0 1 118.67 218.67
  Z"
/>
<rect fill="#0d1b14" x="-1.79" y="-11.42" transform="translate(95.26,229.68) rotate(5.4)" width="3.58" height="22.84" rx="1.74"/>
<ellipse fill="#0d1b14" cx="0.00" cy="0.00" transform="translate(218.59,223.66) rotate(-77.1)" rx="2.85" ry="2.64"/>
</svg>
