<?xml version="1.0" encoding="UTF-8" standalone="no"?>
<!DOCTYPE svg PUBLIC "-//W3C//DTD SVG 1.1//EN" "http://www.w3.org/Graphics/SVG/1.1/DTD/svg11.dtd">
<svg xmlns="http://www.w3.org/2000/svg" version="1.1" viewBox="0.00 0.00 285.00 256.00">
<path fill="#0a150f" d="
  M 99.23 43.62
  L 99.00 43.52
  A 0.21 0.21 0.0 0 0 98.76 43.60
  Q 92.16 54.05 87.39 62.38
  Q 86.73 63.53 85.15 65.10
  A 1.25 1.23 22.7 0 1 84.25 65.46
  Q 81.99 65.44 81.77 63.65
  Q 80.73 55.15 81.37 45.83
  A 0.31 0.31 0.0 0 0 80.77 45.69
  L 70.76 71.65
  A 0.88 0.87 33.0 0 1 69.33 71.95
  L 69.26 71.87
  A 2.83 2.82 32.9 0 1 68.63 68.97
  Q 74.75 51.59 80.01 38.27
  Q 80.75 36.40 81.96 36.08
  A 2.10 1.84 80.5 0 1 84.29 37.99
  Q 84.63 41.69 84.49 46.76
  Q 84.36 51.78 84.77 59.84
  A 0.13 0.13 0.0 0 0 85.01 59.90
  Q 92.32 46.84 99.65 37.26
  A 2.08 1.92 -40.4 0 1 103.05 37.40
  Q 103.64 38.59 103.13 40.83
  C 100.16 53.86 98.06 61.54 97.73 71.95
  A 1.61 1.61 0.0 0 1 95.41 73.35
  Q 95.38 73.34 94.76 72.59
  A 1.57 1.54 -68.0 0 1 94.43 71.79
  Q 94.09 68.71 94.65 65.41
  Q 95.18 62.34 97.55 50.51
  Q 98.36 46.51 99.47 44.22
  A 0.44 0.44 0.0 0 0 99.23 43.62
  Z"
/>
<path fill="#0a150f" d="
  M 205.08 39.34
  L 205.53 39.79
  A 2.03 2.01 -58.7 0 1 206.02 41.84
  Q 201.21 56.55 198.61 65.64
  Q 197.21 70.53 196.86 76.43
  A 1.27 1.27 0.0 0 1 195.20 77.57
  L 195.12 77.55
  A 2.07 2.06 -80.1 0 1 193.70 75.52
  Q 193.86 70.27 196.38 61.83
  Q 200.03 49.64 203.32 39.75
  A 1.06 1.06 0.0 0 1 205.08 39.34
  Z"
/>
<ellipse fill="#0a150f" cx="0.00" cy="0.00" transform="translate(111.69,44.42) rotate(-79.3)" rx="2.99" ry="1.76"/>
<ellipse fill="#0a150f" cx="0.00" cy="0.00" transform="translate(143.00,46.03) rotate(-81.0)" rx="3.04" ry="1.68"/>
<path fill="#0a150f" d="
  M 118.89 60.17
  A 0.44 0.44 0.0 0 0 119.67 60.55
  Q 122.23 57.12 126.08 55.14
  A 1.86 1.85 35.7 0 1 127.20 54.96
  C 131.93 55.71 130.87 61.50 130.52 66.11
  A 3.44 3.32 35.7 0 0 130.84 67.86
  Q 131.03 68.28 131.28 68.80
  A 1.36 1.32 66.0 0 1 130.60 70.64
  C 128.74 71.39 127.16 70.36 127.25 68.41
  Q 127.49 63.41 127.70 60.24
  A 1.28 1.28 0.0 0 0 125.73 59.08
  C 121.93 61.51 119.61 65.40 116.25 70.01
  A 1.47 1.43 3.8 0 1 115.78 70.41
  Q 115.32 70.65 114.99 70.60
  A 2.16 2.09 13.5 0 1 113.25 67.87
  Q 115.42 61.31 117.46 52.71
  A 1.12 1.12 0.0 0 1 119.24 52.09
  L 119.39 52.23
  A 2.91 2.90 28.3 0 1 120.30 55.25
  L 118.89 60.17
  Z"
/>
<path fill="#0a150f" d="
  M 150.21 61.56
  L 150.49 61.67
  A 0.35 0.35 0.0 0 0 150.89 61.56
  C 152.37 59.59 155.88 54.90 158.33 57.05
  Q 160.65 59.10 159.96 62.13
  A 0.53 0.53 0.0 0 0 160.89 62.57
  C 162.15 60.96 164.30 58.15 166.41 58.88
  C 169.75 60.02 169.15 65.62 169.10 68.29
  A 3.13 3.13 0.0 0 0 169.76 70.24
  Q 170.30 70.95 170.30 71.04
  A 2.08 1.63 9.0 0 1 167.69 72.50
  C 165.05 71.78 165.85 66.82 165.87 63.24
  A 0.69 0.68 -24.8 0 0 164.66 62.80
  Q 160.61 67.62 158.30 71.29
  Q 157.87 71.97 156.93 71.90
  A 1.80 1.79 -79.4 0 1 155.36 69.60
  Q 156.69 65.07 157.07 61.12
  A 0.67 0.67 0.0 0 0 155.91 60.59
  Q 151.15 65.74 147.34 71.72
  A 1.50 1.49 -50.1 0 1 144.97 71.94
  Q 143.90 70.76 144.32 69.29
  Q 146.48 61.81 148.40 53.90
  A 1.50 1.50 0.0 0 1 150.15 52.79
  L 150.20 52.81
  A 1.60 1.59 6.8 0 1 151.48 54.43
  Q 151.36 58.14 149.99 61.01
  A 0.41 0.41 0.0 0 0 150.21 61.56
  Z"
/>
<rect fill="#0a150f" x="-1.62" y="-8.88" transform="translate(107.00,62.70) rotate(14.8)" width="3.24" height="17.76" rx="1.58"/>
<path fill="#0a150f" d="
  M 184.48 68.43
  C 182.28 71.24 178.71 75.59 174.97 73.89
  C 172.64 72.82 172.10 70.07 172.87 67.76
  Q 175.58 59.60 182.52 55.14
  A 2.21 2.20 -38.8 0 1 185.27 55.43
  L 188.97 59.13
  A 1.69 1.68 -54.1 0 1 189.28 61.08
  Q 187.16 65.27 188.87 70.16
  A 1.95 1.94 9.4 0 0 189.53 71.08
  L 190.69 71.96
  A 1.16 1.16 0.0 0 1 190.59 73.88
  C 187.05 76.02 185.45 71.06 185.17 68.63
  A 0.39 0.39 0.0 0 0 184.48 68.43
  Z
  M 185.27 59.91
  L 183.13 58.44
  A 0.94 0.94 0.0 0 0 181.82 58.68
  L 178.80 63.09
  A 7.60 2.19 -55.6 0 0 176.32 70.60
  L 176.40 70.65
  A 7.60 2.19 -55.6 0 0 182.50 65.62
  L 185.52 61.21
  A 0.94 0.94 0.0 0 0 185.27 59.91
  Z"
/>
<rect fill="#0a150f" x="-1.65" y="-8.43" transform="translate(138.16,64.22) rotate(13.8)" width="3.30" height="16.86" rx="1.61"/>
<path fill="#0a150f" d="
  M 58.15 94.87
  L 58.60 95.31
  A 2.00 1.98 -59.3 0 1 59.11 97.33
  Q 54.51 111.87 52.04 120.85
  Q 50.71 125.68 50.43 131.50
  A 1.25 1.25 0.0 0 1 48.80 132.64
  L 48.72 132.62
  A 2.04 2.03 -80.6 0 1 47.30 130.63
  Q 47.41 125.46 49.81 117.12
  Q 53.28 105.07 56.42 95.30
  A 1.05 1.05 0.0 0 1 58.15 94.87
  Z"
/>
<path fill="#0a150f" d="
  M 184.15 122.24
  Q 186.23 119.17 189.48 118.08
  C 194.66 116.34 196.12 121.41 195.35 125.41
  Q 194.21 131.30 188.31 135.07
  Q 184.18 137.70 181.20 135.09
  A 0.63 0.63 0.0 0 0 180.32 135.13
  Q 179.64 135.85 179.51 135.86
  A 1.75 1.71 2.5 0 1 177.64 133.86
  Q 180.27 118.93 185.71 102.84
  A 1.23 1.22 26.3 0 1 187.55 102.22
  L 187.60 102.26
  A 2.16 2.16 0.0 0 1 188.50 104.69
  L 183.46 121.92
  A 0.39 0.38 -19.9 0 0 184.15 122.24
  Z
  M 181.84 132.65
  C 183.60 133.01 185.45 133.12 187.05 131.99
  C 189.93 129.94 193.36 125.45 192.24 121.76
  A 1.46 1.46 0.0 0 0 190.01 120.98
  Q 184.17 125.06 181.49 132.03
  A 0.47 0.47 0.0 0 0 181.84 132.65
  Z"
/>
<path fill="#0a150f" d="
  M 149.74 114.96
  L 149.74 115.40
  A 1.17 1.17 0.0 0 1 148.57 116.57
  L 143.77 116.57
  A 1.40 1.39 11.5 0 0 142.49 117.41
  Q 139.41 124.59 139.12 130.57
  A 1.97 1.97 0.0 0 0 141.48 132.59
  Q 143.82 132.11 146.11 130.27
  A 0.90 0.90 0.0 0 1 147.57 130.97
  L 147.57 131.69
  A 1.92 1.91 69.5 0 1 146.92 133.13
  Q 144.42 135.32 142.27 135.75
  C 137.58 136.68 135.32 133.14 135.91 128.87
  Q 136.61 123.79 138.73 117.74
  A 0.57 0.57 0.0 0 0 138.23 116.98
  Q 136.64 116.87 136.02 116.66
  A 1.44 1.44 0.0 0 1 136.21 113.82
  L 139.61 113.48
  A 1.18 1.18 0.0 0 0 140.59 112.75
  L 143.55 105.43
  A 1.45 1.45 0.0 0 1 145.66 104.73
  L 145.69 104.75
  A 1.97 1.96 27.5 0 1 146.48 107.24
  L 143.91 113.02
  A 0.36 0.36 0.0 0 0 144.24 113.53
  L 148.32 113.53
  A 1.43 1.42 -90.0 0 1 149.74 114.96
  Z"
/>
<path fill="#0a150f" d="
  M 228.22 116.88
  L 232.01 116.88
  A 1.66 1.65 0.0 0 1 233.67 118.53
  L 233.67 118.79
  A 1.24 1.24 0.0 0 1 232.43 120.03
  L 226.91 120.03
  A 1.26 1.25 -78.1 0 0 225.76 120.79
  Q 222.90 127.27 222.42 134.05
  A 2.23 1.91 -87.1 0 0 224.26 136.43
  C 225.79 136.46 227.87 135.11 229.54 134.12
  A 0.34 0.32 37.6 0 1 229.82 134.09
  Q 230.02 134.15 230.04 134.16
  A 1.57 1.56 37.7 0 1 230.36 136.63
  C 227.17 139.75 219.73 141.74 219.38 134.85
  Q 219.06 128.42 222.26 121.30
  A 0.87 0.86 12.0 0 0 221.46 120.08
  L 219.30 120.08
  A 1.11 1.11 0.0 0 1 218.27 118.57
  L 218.52 117.92
  A 1.28 1.26 10.3 0 1 219.71 117.11
  L 222.84 117.11
  A 1.00 0.99 11.8 0 0 223.75 116.52
  L 227.34 108.58
  A 1.36 1.36 0.0 0 1 229.30 107.98
  L 229.53 108.12
  A 1.37 1.37 0.0 0 1 230.13 109.80
  L 227.70 116.11
  A 0.57 0.56 -79.3 0 0 228.22 116.88
  Z"
/>
<path fill="#0a150f" d="
  M 68.61 124.66
  A 0.43 0.43 0.0 0 0 67.82 124.59
  Q 65.52 128.90 60.91 130.57
  A 1.65 1.61 -45.8 0 1 59.87 130.60
  Q 54.73 129.03 56.68 123.35
  C 58.15 119.06 61.81 113.30 66.25 111.37
  A 3.17 3.17 0.0 0 1 69.85 112.13
  C 71.00 113.37 71.31 114.09 72.71 115.08
  C 74.23 116.15 72.80 118.64 72.05 120.28
  C 71.30 121.91 71.48 127.07 74.40 127.31
  A 1.66 1.38 -46.9 0 1 74.23 130.29
  C 70.65 131.47 69.45 127.28 68.61 124.66
  Z
  M 68.5862 114.7938
  A 7.43 2.44 -54.2 0 0 62.2610 119.3927
  A 7.43 2.44 -54.2 0 0 59.8938 126.8462
  A 7.43 2.44 -54.2 0 0 66.2190 122.2473
  A 7.43 2.44 -54.2 0 0 68.5862 114.7938
  Z"
/>
<path fill="#0a150f" d="
  M 74.88 141.42
  L 76.04 142.17
  A 2.39 2.37 37.9 0 0 79.06 141.80
  Q 83.26 137.33 85.61 130.97
  A 0.41 0.41 0.0 0 0 84.93 130.54
  Q 84.19 131.28 83.35 131.10
  A 1.26 1.25 71.8 0 1 82.80 130.82
  C 78.61 127.10 79.49 118.77 80.52 113.79
  A 1.30 1.29 -73.2 0 1 82.36 112.80
  L 82.53 112.89
  A 1.90 1.90 0.0 0 1 83.56 115.07
  C 83.08 117.05 81.83 125.93 84.27 127.51
  A 0.62 0.62 0.0 0 0 85.09 127.37
  Q 88.94 122.52 90.95 114.94
  A 1.95 1.94 -78.0 0 1 93.15 113.51
  L 93.26 113.53
  A 1.56 1.56 0.0 0 1 94.48 115.56
  Q 89.65 129.79 87.62 134.62
  C 85.54 139.55 80.68 148.45 74.31 145.01
  Q 72.84 144.21 72.75 142.65
  A 1.38 1.38 0.0 0 1 74.88 141.42
  Z"
/>
<path fill="#0a150f" d="
  M 105.52 113.13
  A 0.87 0.86 46.5 0 1 106.24 113.15
  L 109.99 114.91
  A 1.13 1.10 -1.1 0 1 110.47 115.37
  C 113.53 121.01 110.86 127.09 106.36 131.11
  Q 102.88 134.19 99.23 132.44
  A 2.77 2.73 81.1 0 1 98.43 131.85
  C 93.25 126.33 99.64 115.63 105.52 113.13
  Z
  M 107.2762 116.9321
  A 7.05 3.42 -64.4 0 0 101.1457 121.8123
  A 7.05 3.42 -64.4 0 0 101.1838 129.6479
  A 7.05 3.42 -64.4 0 0 107.3143 124.7677
  A 7.05 3.42 -64.4 0 0 107.2762 116.9321
  Z"
/>
<path fill="#0a150f" d="
  M 124.92 128.47
  Q 122.68 131.58 120.38 132.79
  A 2.90 2.82 -62.2 0 1 119.43 133.10
  C 114.44 133.86 114.67 126.83 115.48 123.72
  Q 116.80 118.67 118.52 115.30
  A 1.39 1.38 -60.5 0 1 120.49 114.75
  L 120.55 114.79
  A 1.74 1.74 0.0 0 1 121.22 116.97
  C 119.61 120.61 117.74 125.19 118.43 128.93
  A 0.74 0.73 68.4 0 0 119.55 129.42
  C 123.76 126.68 125.93 122.00 127.89 116.61
  A 1.48 1.47 -63.7 0 1 130.07 115.87
  L 130.13 115.92
  A 2.30 2.29 26.3 0 1 131.05 118.63
  Q 129.23 123.62 128.58 126.31
  Q 127.76 129.67 129.84 131.58
  A 1.51 1.50 43.3 0 1 129.91 133.72
  L 129.80 133.84
  A 2.02 2.01 -51.8 0 1 127.28 134.15
  Q 126.14 133.43 125.34 128.57
  A 0.23 0.23 0.0 0 0 124.92 128.47
  Z"
/>
<path fill="#0a150f" d="
  M 201.93 132.87
  A 0.80 0.80 0.0 0 0 203.15 133.18
  Q 207.08 130.14 209.02 126.00
  C 210.63 122.58 211.52 119.66 213.00 119.05
  A 1.52 1.52 0.0 0 1 215.02 120.93
  C 213.38 125.98 210.73 131.21 213.79 135.74
  Q 214.12 136.22 213.97 136.57
  A 1.99 1.90 21.1 0 1 211.52 137.59
  C 210.16 137.11 209.43 135.33 209.43 133.97
  Q 209.44 132.65 209.26 132.39
  A 0.46 0.46 0.0 0 0 208.52 132.36
  C 206.87 134.46 203.18 138.07 200.47 136.18
  C 196.12 133.14 200.17 122.80 202.19 119.07
  A 1.53 1.53 0.0 0 1 204.15 118.40
  L 204.21 118.42
  A 1.44 1.43 -66.6 0 1 204.95 120.31
  Q 200.68 130.12 201.93 132.87
  Z"
/>
<path fill="#0a150f" d="
  M 151.06 143.39
  L 151.01 143.37
  A 1.09 1.09 0.0 0 1 150.66 141.75
  C 152.76 138.98 154.14 137.99 153.35 134.61
  A 2.10 1.89 88.2 0 1 155.53 132.03
  Q 156.39 132.22 156.86 133.12
  C 158.29 135.85 154.97 141.24 153.09 143.10
  A 1.73 1.73 0.0 0 1 151.06 143.39
  Z"
/>
<path fill="#0a150f" d="
  M 50.10 170.55
  L 53.95 170.54
  A 1.69 1.68 -0.0 0 1 55.64 172.22
  L 55.64 172.48
  A 1.26 1.26 0.0 0 1 54.38 173.75
  L 48.77 173.75
  A 1.28 1.27 -78.2 0 0 47.60 174.52
  Q 44.70 181.11 44.22 188.00
  A 2.26 1.94 -87.2 0 0 46.09 190.42
  C 47.64 190.45 49.76 189.08 51.45 188.07
  A 0.35 0.33 37.5 0 1 51.74 188.04
  Q 51.94 188.10 51.96 188.11
  A 1.59 1.59 0.0 0 1 52.29 190.62
  C 49.05 193.79 41.49 195.82 41.13 188.82
  Q 40.80 182.28 44.05 175.04
  A 0.89 0.88 12.0 0 0 43.23 173.80
  L 41.04 173.80
  A 1.13 1.12 -79.4 0 1 39.99 172.27
  L 40.24 171.61
  A 1.30 1.28 10.3 0 1 41.45 170.78
  L 44.63 170.78
  A 1.01 1.00 11.8 0 0 45.56 170.18
  L 49.20 162.11
  A 1.39 1.38 -62.0 0 1 51.19 161.50
  L 51.43 161.64
  A 1.39 1.39 0.0 0 1 52.04 163.35
  L 49.57 169.76
  A 0.57 0.57 0.0 0 0 50.10 170.55
  Z"
/>
<path fill="#0a150f" d="
  M 229.05 165.45
  L 229.49 165.88
  A 1.94 1.92 -58.9 0 1 229.96 167.84
  Q 225.42 181.92 222.98 190.61
  Q 221.66 195.29 221.35 200.93
  A 1.21 1.21 0.0 0 1 219.77 202.03
  L 219.69 202.01
  A 1.98 1.97 -80.3 0 1 218.32 200.07
  Q 218.46 195.06 220.83 186.98
  Q 224.27 175.32 227.37 165.85
  A 1.02 1.01 -58.3 0 1 229.05 165.45
  Z"
/>
<path fill="#0a150f" d="
  M 34.83 176.57
  Q 34.65 175.77 35.20 173.81
  A 0.92 0.91 2.6 0 0 34.15 172.67
  Q 30.80 173.27 28.78 175.33
  C 25.92 178.25 27.80 180.85 30.16 183.31
  C 32.35 185.58 35.59 189.84 31.62 192.06
  Q 27.87 194.15 22.93 191.11
  A 2.13 2.12 -67.8 0 1 21.97 188.81
  L 22.01 188.67
  A 1.10 1.10 0.0 0 1 23.66 187.98
  C 25.97 189.41 27.75 190.60 29.80 189.44
  A 1.16 1.16 0.0 0 0 30.12 187.69
  C 26.53 183.33 21.40 178.90 26.31 173.19
  C 28.18 171.00 33.82 167.93 36.43 170.04
  Q 39.61 172.62 36.72 176.93
  A 1.05 1.04 55.7 0 1 34.83 176.57
  Z"
/>
<path fill="#0a150f" d="
  M 62.83 177.93
  A 0.47 0.47 0.0 0 0 63.66 178.09
  Q 66.55 174.11 70.78 174.18
  Q 73.58 174.23 73.79 176.75
  A 1.53 1.43 15.4 0 1 71.43 177.99
  C 65.91 174.37 60.84 189.11 59.72 192.33
  A 1.57 1.57 0.0 0 1 57.53 193.21
  L 57.47 193.18
  A 2.00 2.00 0.0 0 1 56.56 191.05
  L 60.37 173.54
  A 1.56 1.55 9.8 0 1 62.10 172.33
  L 62.15 172.34
  A 1.67 1.67 0.0 0 1 63.47 174.29
  Q 62.79 177.79 62.83 177.93
  Z"
/>
<path fill="#0a150f" d="
  M 83.99 174.13
  L 87.80 175.96
  A 1.15 1.13 -0.6 0 1 88.29 176.43
  C 91.36 182.22 88.58 188.40 83.94 192.46
  Q 80.36 195.58 76.65 193.75
  A 2.83 2.79 81.6 0 1 75.84 193.14
  C 70.60 187.46 77.23 176.59 83.26 174.10
  A 0.89 0.88 47.0 0 1 83.99 174.13
  Z
  M 84.9131 178.1982
  A 7.15 3.30 -64.1 0 0 78.8215 183.1886
  A 7.15 3.30 -64.1 0 0 78.6669 191.0618
  A 7.15 3.30 -64.1 0 0 84.7585 186.0714
  A 7.15 3.30 -64.1 0 0 84.9131 178.1982
  Z"
/>
<path fill="#0a150f" d="
  M 97.92 183.71
  A 0.31 0.31 0.0 0 0 98.49 183.89
  C 100.34 180.98 104.66 176.40 107.84 179.42
  C 110.25 181.71 109.53 185.83 109.16 189.71
  A 1.16 1.14 -65.1 0 0 109.49 190.63
  Q 111.01 192.16 109.34 193.62
  A 1.78 1.72 -40.6 0 1 106.84 193.47
  Q 105.67 192.07 105.81 190.25
  Q 106.35 183.41 106.35 183.39
  A 1.44 1.43 -3.7 0 0 104.55 181.81
  Q 104.26 181.89 103.93 182.17
  Q 100.85 184.86 97.93 188.93
  Q 94.87 193.21 94.36 193.76
  A 0.80 0.79 35.1 0 1 93.41 193.92
  C 92.27 193.33 91.65 192.20 92.03 190.78
  Q 94.39 182.14 96.43 175.50
  A 1.20 1.20 0.0 0 1 98.36 174.94
  L 98.51 175.07
  A 2.95 2.94 -60.7 0 1 99.39 178.23
  Q 97.96 182.57 97.92 183.71
  Z"
/>
<path fill="#0a150f" d="
  M 114.26 202.40
  C 114.66 205.24 114.53 207.22 116.38 208.46
  Q 117.37 209.13 118.38 207.80
  C 121.22 204.08 122.35 197.69 123.39 192.92
  A 0.37 0.37 0.0 0 0 122.76 192.58
  Q 120.75 194.55 118.31 194.28
  A 2.54 2.50 63.1 0 1 117.30 193.94
  C 108.37 188.57 120.89 170.42 127.12 177.98
  A 1.53 1.53 0.0 0 0 127.98 178.50
  L 129.45 178.80
  A 0.86 0.86 0.0 0 1 130.15 179.57
  C 130.33 181.27 129.33 182.26 129.30 183.55
  C 129.24 186.16 127.82 188.82 127.27 191.22
  C 125.50 198.87 124.71 203.02 121.91 208.39
  Q 119.82 212.41 115.55 211.41
  A 2.23 2.19 70.0 0 1 114.63 210.97
  Q 111.42 208.37 111.43 203.81
  A 2.49 2.48 75.3 0 1 112.68 201.67
  L 112.73 201.64
  A 1.04 1.03 71.4 0 1 114.26 202.40
  Z
  M 124.3534 179.4266
  A 6.44 3.12 -63.7 0 0 118.7030 183.8176
  A 6.44 3.12 -63.7 0 0 118.6466 190.9734
  A 6.44 3.12 -63.7 0 0 124.2970 186.5824
  A 6.44 3.12 -63.7 0 0 124.3534 179.4266
  Z"
/>
<path fill="#0a150f" d="
  M 136.84 187.96
  C 136.18 191.27 136.47 195.56 141.38 194.39
  A 0.87 0.80 -65.8 0 0 141.59 194.30
  L 144.77 192.37
  A 1.06 1.05 -25.3 0 1 146.31 192.92
  Q 146.73 194.08 145.60 195.10
  C 141.31 199.00 134.76 198.76 133.51 192.12
  Q 132.07 184.50 138.23 178.70
  Q 141.05 176.04 143.67 176.33
  C 152.52 177.30 147.35 189.86 138.91 187.55
  Q 137.94 187.29 137.49 187.35
  A 0.77 0.76 -87.8 0 0 136.84 187.96
  Z
  M 145.45 181.43
  L 144.08 179.41
  A 0.77 0.77 0.0 0 0 143.01 179.21
  L 142.08 179.83
  A 5.49 1.97 -34.1 0 0 138.64 184.54
  L 138.67 184.58
  A 5.49 1.97 -34.1 0 0 144.32 183.13
  L 145.24 182.50
  A 0.77 0.77 0.0 0 0 145.45 181.43
  Z"
/>
<path fill="#0a150f" d="
  M 156.42 182.83
  A 0.46 0.46 0.0 0 0 157.23 182.97
  Q 159.98 179.01 164.13 178.98
  Q 166.87 178.97 167.13 181.44
  A 1.50 1.41 14.1 0 1 164.85 182.70
  C 159.36 179.28 154.71 193.84 153.68 197.02
  A 1.54 1.54 0.0 0 1 151.56 197.93
  L 151.50 197.90
  A 1.96 1.96 0.0 0 1 150.56 195.83
  L 153.91 178.59
  A 1.53 1.52 8.5 0 1 155.58 177.36
  L 155.63 177.37
  A 1.64 1.64 0.0 0 1 156.97 179.25
  Q 156.38 182.70 156.42 182.83
  Z"
/>
<path fill="#0a150f" d="
  M 196.09 187.00
  A 0.98 0.90 -50.3 0 1 194.58 187.20
  C 193.83 186.32 194.33 184.27 194.19 183.33
  A 1.40 1.39 68.3 0 0 192.01 182.39
  C 188.44 184.91 186.30 188.81 185.84 193.07
  C 185.65 194.86 186.30 197.41 188.55 197.28
  C 191.24 197.13 193.44 194.71 195.41 193.13
  A 0.95 0.95 0.0 0 1 196.96 193.87
  L 196.96 194.78
  A 2.10 2.10 0.0 0 1 196.22 196.38
  Q 191.90 200.02 189.49 200.14
  Q 181.73 200.54 182.67 192.26
  Q 183.42 185.70 188.40 181.11
  C 193.39 176.52 199.97 180.58 196.09 187.00
  Z"
/>
<path fill="#0a150f" d="
  M 212.7194 181.0346
  A 10.56 6.73 -64.3 0 1 214.2042 193.4685
  A 10.56 6.73 -64.3 0 1 203.5606 200.0654
  A 10.56 6.73 -64.3 0 1 202.0758 187.6315
  A 10.56 6.73 -64.3 0 1 212.7194 181.0346
  Z
  M 211.1875 184.1912
  A 7.17 3.39 -65.2 0 0 205.1026 189.2781
  A 7.17 3.39 -65.2 0 0 205.1725 197.2088
  A 7.17 3.39 -65.2 0 0 211.2574 192.1219
  A 7.17 3.39 -65.2 0 0 211.1875 184.1912
  Z"
/>
<path fill="#0a150f" d="
  M 251.44 186.58
  A 0.55 0.55 0.0 0 0 252.42 187.01
  Q 255.05 183.38 259.17 183.25
  Q 261.83 183.17 262.37 185.42
  A 1.58 1.44 1.1 0 1 260.44 187.12
  C 258.99 186.77 257.99 186.52 256.62 187.50
  C 252.17 190.68 250.53 195.55 248.42 201.20
  A 1.46 1.45 -67.4 0 1 246.46 202.01
  L 246.41 201.98
  A 1.85 1.84 -71.5 0 1 245.41 199.96
  L 248.97 182.38
  A 1.57 1.57 0.0 0 1 250.81 181.15
  L 250.83 181.15
  A 1.65 1.64 -79.1 0 1 252.13 183.08
  L 251.44 186.58
  Z"
/>
<path fill="#0a150f" d="
  M 239.5738 182.3356
  A 10.57 6.80 -64.3 0 1 241.1173 194.8089
  A 10.57 6.80 -64.3 0 1 230.4062 201.3844
  A 10.57 6.80 -64.3 0 1 228.8627 188.9111
  A 10.57 6.80 -64.3 0 1 239.5738 182.3356
  Z
  M 238.0621 185.6080
  A 7.11 3.39 -64.4 0 0 231.9328 190.5552
  A 7.11 3.39 -64.4 0 0 231.9179 198.4320
  A 7.11 3.39 -64.4 0 0 238.0472 193.4848
  A 7.11 3.39 -64.4 0 0 238.0621 185.6080
  Z"
/>
</svg>
