<?xml version="1.0" encoding="UTF-8" standalone="no"?>
<!DOCTYPE svg PUBLIC "-//W3C//DTD SVG 1.1//EN" "http://www.w3.org/Graphics/SVG/1.1/DTD/svg11.dtd">
<svg xmlns="http://www.w3.org/2000/svg" version="1.1" viewBox="0.00 0.00 285.00 278.00">
<path fill="#132018" d="
  M 116.15 63.64
  L 114.26 73.18
  A 1.43 1.42 17.3 0 1 112.29 74.21
  L 112.03 74.09
  A 2.20 2.19 -72.5 0 1 110.71 71.55
  L 120.23 31.29
  A 2.66 2.65 -86.5 0 1 122.51 29.26
  L 122.65 29.25
  A 1.44 1.44 0.0 0 1 124.17 31.04
  L 118.14 54.69
  A 0.44 0.44 0.0 0 0 118.79 55.18
  L 128.20 49.74
  A 1.47 1.46 -29.9 0 1 130.21 50.28
  L 130.53 50.83
  A 1.52 1.51 -30.0 0 1 129.97 52.91
  L 119.24 59.11
  A 0.81 0.81 0.0 0 0 119.00 60.30
  C 121.50 63.59 123.35 67.24 126.72 69.45
  A 1.10 1.08 -38.9 0 0 127.72 69.55
  Q 130.50 68.43 131.00 68.51
  A 1.01 1.01 0.0 0 1 131.73 69.95
  C 129.66 74.05 124.47 72.50 121.96 69.76
  Q 119.83 67.43 117.10 63.44
  A 0.53 0.53 0.0 0 0 116.15 63.64
  Z"
/>
<path fill="#132018" d="
  M 77.04 39.90
  A 0.41 0.40 -46.2 0 0 76.32 39.92
  Q 70.73 51.20 64.00 62.70
  C 63.15 64.16 62.14 65.75 60.46 65.95
  A 2.37 2.20 81.2 0 1 58.02 64.02
  Q 56.66 56.95 55.99 44.06
  Q 55.93 42.95 55.51 41.84
  A 0.30 0.30 0.0 0 0 54.95 41.87
  L 45.90 73.43
  A 1.56 1.56 0.0 0 1 43.80 74.44
  L 43.72 74.41
  A 1.89 1.88 -71.9 0 1 42.58 72.15
  Q 47.62 53.82 53.33 35.82
  Q 53.98 33.77 54.92 32.66
  A 2.14 2.10 50.9 0 1 58.39 33.06
  Q 59.05 34.24 59.20 36.28
  Q 60.04 48.07 60.97 58.69
  A 0.57 0.57 0.0 0 0 62.04 58.92
  Q 73.11 38.94 76.98 32.28
  Q 78.30 30.00 80.93 30.63
  A 1.36 1.36 0.0 0 1 81.73 31.20
  Q 82.73 32.72 82.40 34.30
  Q 79.22 49.43 77.78 64.76
  Q 77.60 66.69 77.65 73.84
  A 1.56 1.56 0.0 0 1 75.66 75.35
  L 74.99 75.16
  A 1.92 1.92 0.0 0 1 73.60 73.26
  Q 74.02 58.25 77.22 40.65
  Q 77.27 40.33 77.04 39.90
  Z"
/>
<path fill="#132018" d="
  M 202.91 58.89
  A 0.44 0.43 -15.3 0 0 203.63 59.30
  Q 204.92 58.13 206.47 56.01
  Q 207.55 54.52 211.31 52.36
  A 2.17 2.13 -60.2 0 1 212.27 52.09
  C 219.61 51.84 217.95 61.85 217.56 66.10
  A 3.45 3.41 32.8 0 0 218.00 68.09
  L 218.89 69.63
  A 1.06 1.06 0.0 0 1 218.08 71.22
  L 216.29 71.40
  A 1.57 1.55 71.9 0 1 214.77 70.62
  C 212.05 65.88 216.14 59.23 213.45 56.18
  A 1.13 1.11 51.2 0 0 211.95 56.01
  C 206.94 59.66 203.31 65.92 200.43 71.35
  A 1.70 1.67 29.0 0 1 198.10 71.99
  Q 197.07 71.39 197.10 70.01
  Q 197.12 68.21 198.17 63.39
  Q 200.94 50.60 205.28 31.91
  A 1.67 1.66 12.5 0 1 207.24 30.66
  L 207.31 30.67
  A 1.67 1.66 -78.3 0 1 208.61 32.66
  L 202.91 58.89
  Z"
/>
<path fill="#132018" d="
  M 181.63 53.19
  A 0.71 0.70 11.7 0 0 180.99 52.22
  Q 178.20 52.17 177.60 51.95
  Q 176.55 51.57 176.42 51.25
  A 1.95 1.69 -16.0 0 1 177.97 48.87
  Q 179.24 48.63 181.79 48.59
  A 1.57 1.56 8.7 0 0 183.25 47.52
  L 185.80 39.84
  A 2.23 2.22 -77.1 0 1 188.19 38.34
  L 188.49 38.39
  A 1.35 1.34 12.3 0 1 189.59 40.09
  L 187.65 46.86
  A 0.82 0.81 6.6 0 0 188.48 47.90
  C 190.84 47.79 193.89 47.15 194.73 48.95
  A 1.34 1.22 -20.0 0 1 193.82 50.68
  Q 190.27 51.70 186.59 51.58
  A 0.96 0.95 9.7 0 0 185.65 52.24
  C 184.03 57.18 181.73 64.67 182.70 69.03
  C 183.52 72.75 189.80 68.20 191.25 67.05
  Q 191.65 66.73 191.98 66.91
  A 1.86 1.84 -56.9 0 1 192.54 69.65
  C 189.44 73.78 181.21 76.93 179.21 69.56
  C 178.40 66.54 178.89 64.55 179.63 60.77
  Q 180.64 55.65 181.63 53.19
  Z"
/>
<path fill="#132018" d="
  M 99.92 64.52
  A 0.64 0.64 0.0 0 0 98.76 64.38
  Q 96.64 67.84 93.55 70.19
  C 88.12 74.32 83.86 70.37 84.62 64.36
  C 85.02 61.16 88.07 56.20 90.08 53.59
  Q 92.78 50.09 96.28 48.72
  C 99.92 47.30 101.72 51.74 103.79 53.38
  A 1.51 1.49 -68.3 0 1 104.36 54.73
  C 104.25 55.86 103.08 57.72 103.00 59.60
  Q 102.75 65.73 107.21 68.53
  A 1.09 1.09 0.0 0 1 106.74 70.53
  L 104.88 70.72
  A 2.12 2.11 -29.3 0 1 103.37 70.30
  Q 101.26 68.68 99.92 64.52
  Z
  M 89.27 68.25
  C 92.80 68.24 97.59 60.30 99.13 57.19
  C 100.19 55.05 99.26 52.83 97.11 52.53
  A 1.74 1.72 33.8 0 0 96.06 52.73
  C 91.88 55.05 87.96 62.97 88.61 67.68
  A 0.67 0.66 -4.0 0 0 89.27 68.25
  Z"
/>
<path fill="#132018" d="
  M 139.64 61.41
  A 0.76 0.76 0.0 0 0 138.70 62.03
  C 138.18 65.52 138.59 70.56 143.48 70.31
  C 145.55 70.22 148.26 67.76 149.79 67.04
  A 1.01 1.01 0.0 0 1 151.22 68.02
  C 151.04 70.91 146.48 73.33 144.39 73.63
  C 139.31 74.33 135.85 71.32 135.00 66.42
  Q 133.67 58.64 139.67 52.13
  C 142.17 49.43 145.23 47.67 148.69 48.82
  C 153.10 50.28 153.70 54.90 151.03 58.28
  Q 147.00 63.38 139.64 61.41
  Z
  M 140.87 58.46
  C 144.38 59.21 148.59 57.90 149.20 53.91
  A 1.14 1.11 -62.2 0 0 148.93 52.99
  C 146.03 49.69 141.72 54.86 140.40 57.47
  A 0.70 0.69 -70.5 0 0 140.87 58.46
  Z"
/>
<path fill="#132018" d="
  M 228.94 61.90
  A 0.75 0.74 -78.7 0 0 228.02 62.51
  C 227.53 65.93 227.97 70.87 232.75 70.60
  C 234.78 70.49 237.41 68.07 238.91 67.36
  A 0.99 0.98 79.0 0 1 240.32 68.31
  C 240.16 71.14 235.71 73.54 233.66 73.84
  C 228.69 74.56 225.28 71.62 224.43 66.83
  Q 223.08 59.23 228.92 52.82
  C 231.35 50.16 234.34 48.42 237.73 49.53
  C 242.06 50.93 242.67 55.45 240.08 58.78
  Q 236.16 63.79 228.94 61.90
  Z
  M 230.17 58.80
  C 233.57 59.42 237.59 58.04 238.06 54.18
  A 1.10 1.07 -63.9 0 0 237.77 53.31
  C 234.89 50.21 230.89 55.31 229.69 57.86
  A 0.67 0.67 0.0 0 0 230.17 58.80
  Z"
/>
<ellipse fill="#132018" cx="0.00" cy="0.00" transform="translate(155.47,112.21) rotate(-77.8)" rx="2.90" ry="2.08"/>
<path fill="#132018" d="
  M 69.26 139.98
  A 1.36 1.35 -34.1 0 0 69.66 137.92
  Q 68.48 136.49 64.48 132.61
  C 58.27 126.59 63.98 119.82 70.23 117.75
  Q 75.49 116.01 78.19 120.09
  A 2.60 2.60 0.0 0 1 78.61 121.78
  Q 78.34 124.64 76.55 125.98
  A 1.41 1.41 0.0 0 1 74.34 124.53
  L 74.83 122.48
  A 1.41 1.40 2.9 0 0 73.28 120.77
  C 68.26 121.42 62.38 126.12 67.63 131.32
  C 70.96 134.62 75.91 138.27 72.44 142.32
  A 2.17 2.15 -81.5 0 1 71.73 142.85
  Q 66.33 145.32 60.90 142.09
  A 2.38 2.38 0.0 0 1 59.80 139.50
  L 59.87 139.21
  A 1.05 1.04 17.9 0 1 61.29 138.49
  C 64.66 139.89 67.00 141.21 69.26 139.98
  Z"
/>
<path fill="#132018" d="
  M 109.06 124.40
  A 0.74 0.73 55.5 0 0 110.30 124.63
  C 113.26 121.28 118.01 118.17 121.80 122.13
  A 1.57 1.50 -8.4 0 1 119.95 124.51
  C 117.90 123.56 116.40 123.72 114.47 125.28
  C 109.43 129.36 108.35 134.71 106.59 140.73
  A 1.74 1.73 18.1 0 1 104.33 141.87
  L 104.26 141.85
  A 2.17 2.17 0.0 0 1 102.86 139.47
  C 103.83 133.37 104.70 129.55 105.25 124.28
  Q 105.59 121.01 106.62 118.73
  A 1.57 1.56 47.9 0 1 109.53 118.88
  Q 110.03 120.39 109.21 123.45
  Q 109.00 124.23 109.06 124.40
  Z"
/>
<path fill="#132018" d="
  M 217.05 126.32
  L 216.88 126.31
  A 1.17 1.16 -76.1 0 1 215.88 124.65
  Q 216.67 122.94 216.65 122.64
  A 1.73 1.72 -7.1 0 0 214.63 121.07
  Q 211.67 121.58 209.30 123.81
  C 203.73 129.05 211.08 132.25 213.65 135.79
  Q 215.49 138.31 214.69 140.97
  A 2.48 2.37 -17.2 0 1 214.19 141.87
  C 211.51 144.91 204.85 144.21 202.00 141.79
  Q 201.01 140.95 201.63 139.73
  A 1.72 1.71 -61.6 0 1 204.00 139.02
  Q 206.94 140.68 210.77 139.65
  A 0.80 0.80 0.0 0 0 211.22 138.41
  C 209.38 135.82 205.30 132.88 204.27 130.31
  Q 202.69 126.32 205.65 122.63
  C 208.30 119.35 214.70 115.57 218.49 119.06
  Q 220.74 121.13 219.31 124.83
  A 2.31 2.31 0.0 0 1 217.05 126.32
  Z"
/>
<path fill="#132018" d="
  M 85.97 131.04
  A 0.75 0.74 -79.0 0 0 85.05 131.66
  C 84.57 135.09 85.03 140.03 89.82 139.74
  C 91.85 139.62 94.48 137.18 95.98 136.46
  A 0.99 0.99 0.0 0 1 97.39 137.41
  C 97.24 140.25 92.80 142.66 90.75 142.98
  C 85.78 143.72 82.35 140.80 81.47 136.00
  Q 80.09 128.39 85.91 121.95
  C 88.33 119.27 91.31 117.52 94.71 118.62
  C 99.05 120.00 99.69 124.53 97.11 127.86
  Q 93.20 132.91 85.97 131.04
  Z
  M 95.0549 122.6912
  A 4.64 2.54 -32.0 0 0 89.7740 122.9960
  A 4.64 2.54 -32.0 0 0 87.1851 127.6088
  A 4.64 2.54 -32.0 0 0 92.4660 127.3040
  A 4.64 2.54 -32.0 0 0 95.0549 122.6912
  Z"
/>
<path fill="#132018" d="
  M 185.43 131.29
  A 0.75 0.74 -78.9 0 0 184.52 131.90
  C 184.03 135.33 184.49 140.26 189.27 139.98
  C 191.30 139.87 193.93 137.43 195.43 136.72
  A 0.99 0.99 0.0 0 1 196.83 137.66
  C 196.68 140.50 192.24 142.91 190.19 143.22
  C 185.22 143.95 181.80 141.02 180.94 136.23
  Q 179.57 128.63 185.39 122.20
  C 187.81 119.53 190.80 117.78 194.19 118.88
  C 198.52 120.27 199.15 124.80 196.57 128.13
  Q 192.66 133.16 185.43 131.29
  Z
  M 194.4355 122.5506
  A 4.74 2.34 -36.8 0 0 189.2383 123.5163
  A 4.74 2.34 -36.8 0 0 186.8445 128.2294
  A 4.74 2.34 -36.8 0 0 192.0417 127.2637
  A 4.74 2.34 -36.8 0 0 194.4355 122.5506
  Z"
/>
<path fill="#132018" d="
  M 174.28 127.46
  A 1.30 1.30 0.0 0 1 172.16 126.42
  L 172.24 123.86
  A 1.78 1.78 0.0 0 0 169.87 122.13
  C 165.66 123.61 163.02 131.55 162.72 135.38
  C 162.48 138.41 164.21 140.83 167.45 139.20
  Q 170.70 137.57 173.14 134.91
  A 1.82 1.82 0.0 0 1 175.42 134.59
  L 175.48 134.63
  A 1.35 1.35 0.0 0 1 175.87 136.58
  C 173.35 140.06 167.97 144.16 163.70 142.78
  C 160.04 141.60 158.70 137.66 159.23 133.93
  Q 160.47 125.18 167.40 119.74
  C 171.20 116.76 175.88 120.32 175.59 124.72
  Q 175.47 126.49 174.28 127.46
  Z"
/>
<path fill="#132018" d="
  M 132.31 136.53
  Q 132.70 136.42 132.89 136.14
  Q 136.34 130.87 140.92 122.34
  A 2.23 2.22 20.5 0 1 143.39 121.22
  L 143.47 121.24
  A 1.35 1.35 0.0 0 1 144.38 123.16
  Q 141.38 129.19 135.75 138.26
  Q 134.51 140.26 133.60 141.22
  A 1.61 1.57 17.8 0 1 132.64 141.70
  Q 129.81 142.10 128.92 138.84
  Q 126.71 130.77 126.38 122.21
  A 1.82 1.82 0.0 0 1 128.24 120.32
  L 128.33 120.32
  A 2.03 2.02 88.7 0 1 130.22 122.13
  L 131.65 136.08
  A 0.53 0.52 -10.3 0 0 132.31 136.53
  Z"
/>
<rect fill="#132018" x="-1.75" y="-10.38" transform="translate(150.39,132.49) rotate(14.0)" width="3.50" height="20.76" rx="1.71"/>
<path fill="#132018" d="
  M 90.99 214.55
  L 90.79 214.49
  A 2.22 2.21 11.1 0 1 89.24 212.19
  Q 89.78 205.60 90.71 200.94
  Q 92.91 190.01 97.13 174.00
  A 2.03 2.03 0.0 0 1 99.39 172.52
  L 99.46 172.54
  A 1.70 1.70 0.0 0 1 100.84 174.66
  C 97.30 187.94 93.72 200.15 92.87 213.26
  A 1.45 1.45 0.0 0 1 90.99 214.55
  Z"
/>
<path fill="#132018" d="
  M 81.30 198.66
  A 1.08 1.07 88.8 0 1 80.02 197.42
  Q 80.81 192.69 78.56 192.82
  Q 76.95 192.91 75.48 194.46
  Q 69.93 200.31 69.94 207.97
  Q 69.94 210.39 73.03 211.33
  A 1.85 1.81 -43.7 0 0 74.04 211.34
  Q 78.12 210.16 81.77 206.52
  A 1.38 1.38 0.0 0 1 84.03 207.99
  C 82.77 211.31 76.61 214.89 73.20 214.73
  C 67.16 214.44 65.47 208.71 66.51 203.50
  Q 67.86 196.75 72.70 191.99
  C 75.58 189.16 79.81 187.66 82.64 191.28
  Q 84.24 193.33 83.39 196.74
  A 2.57 2.55 0.7 0 1 81.44 198.63
  L 81.30 198.66
  Z"
/>
<path fill="#132018" d="
  M 105.77 202.06
  A 0.76 0.76 0.0 0 0 104.83 202.67
  C 104.29 206.14 104.67 211.17 109.53 210.96
  C 111.60 210.87 114.31 208.44 115.85 207.74
  A 1.00 1.00 0.0 0 1 117.26 208.72
  C 117.06 211.61 112.51 213.98 110.42 214.26
  C 105.36 214.93 101.93 211.90 101.12 207.02
  Q 99.85 199.26 105.87 192.82
  C 108.38 190.14 111.44 188.41 114.88 189.59
  C 119.26 191.07 119.82 195.68 117.14 199.02
  Q 113.09 204.08 105.77 202.06
  Z
  M 106.96 199.25
  C 110.58 199.96 114.87 198.54 115.43 194.44
  A 1.17 1.14 -63.1 0 0 115.14 193.50
  C 112.11 190.16 107.77 195.54 106.46 198.24
  A 0.71 0.71 0.0 0 0 106.96 199.25
  Z"
/>
<path fill="#132018" d="
  M 137.30 205.87
  A 0.49 0.49 0.0 0 0 136.41 205.72
  C 134.45 208.93 130.14 213.73 125.87 212.85
  C 114.12 210.43 131.74 181.16 138.88 192.14
  Q 139.72 193.42 141.26 194.42
  A 2.04 2.04 0.0 0 1 141.92 197.15
  Q 139.48 201.34 141.22 206.20
  C 141.89 208.08 142.92 208.69 144.66 209.36
  A 1.14 1.14 0.0 0 1 145.07 211.22
  C 141.51 214.91 137.93 208.83 137.30 205.87
  Z
  M 128.03 208.96
  C 131.34 207.34 134.63 202.35 136.19 199.72
  Q 138.22 196.30 135.83 193.80
  A 1.86 1.85 -42.9 0 0 133.25 193.71
  Q 127.72 198.70 125.77 205.50
  Q 125.24 207.34 125.72 208.44
  Q 126.32 209.80 128.03 208.96
  Z"
/>
<path fill="#132018" d="
  M 176.55 202.23
  A 0.76 0.76 0.0 0 0 175.60 202.84
  C 175.03 206.33 175.38 211.39 180.28 211.21
  C 182.36 211.14 185.10 208.71 186.65 208.01
  A 1.01 1.01 0.0 0 1 188.07 209.01
  C 187.85 211.91 183.25 214.27 181.15 214.54
  C 176.05 215.18 172.62 212.11 171.84 207.19
  Q 170.61 199.38 176.71 192.94
  C 179.25 190.26 182.34 188.54 185.79 189.74
  C 190.19 191.26 190.73 195.90 188.01 199.25
  Q 183.90 204.31 176.55 202.23
  Z
  M 178.00 199.18
  C 181.46 199.93 185.61 198.65 186.23 194.72
  A 1.12 1.09 -62.0 0 0 185.96 193.81
  C 183.11 190.54 178.85 195.63 177.54 198.20
  A 0.69 0.68 -70.3 0 0 178.00 199.18
  Z"
/>
<path fill="#132018" d="
  M 157.26 196.16
  Q 160.51 191.77 165.14 191.26
  Q 168.56 190.87 169.93 193.28
  A 1.46 1.46 0.0 0 1 168.26 195.40
  L 165.92 194.73
  A 1.84 1.78 -47.4 0 0 164.75 194.80
  C 158.24 197.48 154.82 206.04 153.45 212.92
  A 1.81 1.81 0.0 0 1 151.25 214.33
  L 151.17 214.31
  A 1.93 1.93 0.0 0 1 149.82 212.13
  L 153.39 191.23
  A 1.72 1.71 -80.2 0 1 155.37 189.82
  L 155.88 189.91
  A 1.46 1.46 0.0 0 1 157.08 191.60
  L 156.37 195.77
  A 0.50 0.50 0.0 0 0 157.26 196.16
  Z"
/>
<path fill="#132018" d="
  M 201.23 196.10
  Q 204.52 191.67 209.20 191.15
  Q 212.66 190.76 214.04 193.20
  A 1.47 1.47 0.0 0 1 212.35 195.34
  L 209.99 194.66
  A 1.86 1.80 -47.4 0 0 208.80 194.73
  C 202.22 197.44 198.75 206.09 197.36 213.05
  A 1.83 1.83 0.0 0 1 195.13 214.47
  L 195.05 214.45
  A 1.96 1.95 -76.6 0 1 193.69 212.24
  L 197.32 191.11
  A 1.74 1.73 -80.2 0 1 199.32 189.69
  L 199.84 189.78
  A 1.48 1.48 0.0 0 1 201.05 191.49
  L 200.33 195.71
  A 0.51 0.50 68.3 0 0 201.23 196.10
  Z"
/>
<path fill="#132018" d="
  M 214.88 234.78
  A 0.34 0.34 0.0 0 1 214.73 235.43
  Q 193.01 235.05 165.00 235.79
  Q 162.81 235.85 160.49 235.92
  Q 142.51 236.48 117.43 237.32
  C 95.82 238.04 77.47 239.70 57.24 240.61
  A 1.66 1.66 0.0 0 1 55.73 239.80
  L 55.71 239.76
  A 0.69 0.69 0.0 0 1 56.19 238.73
  Q 58.41 238.38 62.26 238.10
  Q 106.92 234.91 112.76 234.74
  C 122.63 234.46 135.59 233.64 142.00 233.57
  Q 180.26 233.17 210.50 233.89
  Q 213.00 233.95 214.88 234.78
  Z"
/>
<path fill="#132018" d="
  M 206.30 248.44
  Q 205.43 248.69 204.50 248.68
  Q 180.12 248.22 146.09 248.70
  Q 138.31 248.81 133.93 249.19
  C 128.41 249.67 123.43 249.51 117.70 249.95
  Q 97.66 251.46 80.25 252.54
  Q 75.44 252.84 72.98 252.56
  Q 72.31 252.49 72.09 252.21
  A 0.45 0.45 0.0 0 1 72.41 251.48
  C 83.80 250.65 94.85 249.21 106.12 248.27
  Q 109.39 248.00 121.94 247.05
  Q 130.35 246.41 135.58 246.42
  C 140.68 246.43 146.91 246.08 153.81 246.35
  Q 174.74 247.18 193.76 247.34
  Q 205.12 247.44 206.34 248.00
  A 0.24 0.23 -40.4 0 1 206.30 248.44
  Z"
/>
</svg>
