<?xml version="1.0" encoding="UTF-8" standalone="no"?>
<!DOCTYPE svg PUBLIC "-//W3C//DTD SVG 1.1//EN" "http://www.w3.org/Graphics/SVG/1.1/DTD/svg11.dtd">
<svg xmlns="http://www.w3.org/2000/svg" version="1.1" viewBox="0.00 0.00 879.00 284.00">
<path stroke="#83bb66" stroke-width="2.00" fill="none" stroke-linecap="butt" vector-effect="non-scaling-stroke" d="
  M 192.29 85.57
  Q 164.81 95.48 135.82 101.15
  A 0.42 0.42 0.0 0 1 135.32 100.76
  L 135.16 95.25"
/>
<path fill="#9ec671" d="
  M 67.47 84.92
  C 64.31 71.12 74.29 59.24 87.73 57.40
  Q 103.09 55.29 114.05 67.03
  C 121.30 74.79 124.12 85.18 124.52 95.76
  C 125.00 108.29 123.38 124.91 124.60 138.83
  A 0.60 0.60 0.0 0 1 123.98 139.48
  Q 105.78 138.97 83.26 139.52
  Q 72.91 139.77 64.15 137.84
  C 51.66 135.08 39.97 124.78 38.94 111.19
  C 37.89 97.18 47.30 85.61 61.72 84.84
  C 63.49 84.75 65.15 85.36 66.83 85.61
  A 0.57 0.57 0.0 0 0 67.47 84.92
  Z"
/>
<path fill="#9ec671" d="
  M 192.29 85.57
  Q 164.81 95.48 135.82 101.15
  A 0.42 0.42 0.0 0 1 135.32 100.76
  L 135.16 95.25
  C 135.48 78.35 145.60 59.67 164.01 57.23
  C 175.40 55.71 187.18 61.14 191.50 71.94
  Q 194.04 78.28 192.29 85.57
  Z"
/>
<path fill="#68af5b" d="
  M 135.16 95.25
  L 135.32 100.76
  A 0.42 0.42 0.0 0 0 135.82 101.15
  Q 164.81 95.48 192.29 85.57
  Q 201.52 83.54 208.68 87.68
  C 220.45 94.48 224.05 109.42 217.67 121.39
  C 209.00 137.65 190.52 140.18 174.00 139.61
  Q 155.68 138.98 135.41 139.47
  A 0.47 0.47 0.0 0 1 134.93 138.94
  Q 136.03 129.29 134.90 109.77
  Q 134.69 106.24 135.16 95.25
  Z"
/>
<path fill="#f5f2e6" d="
  M 783.66 125.58
  A 1.05 1.05 0.0 0 1 783.92 127.65
  Q 777.45 129.29 772.66 133.21
  Q 764.34 140.01 754.70 149.09
  A 0.64 0.64 0.0 0 0 754.64 149.95
  Q 768.02 166.85 779.37 180.62
  Q 783.32 185.42 788.73 186.15
  A 1.45 1.45 0.0 0 1 789.97 187.43
  L 789.98 187.47
  A 1.05 1.04 -3.0 0 1 788.94 188.62
  Q 778.39 188.62 775.00 188.65
  C 770.40 188.70 768.65 187.42 765.56 183.53
  Q 755.97 171.41 745.97 159.35
  Q 744.63 157.73 743.33 157.05
  A 1.25 1.25 0.0 0 0 741.50 158.15
  Q 741.41 168.96 741.45 178.51
  Q 741.48 185.91 748.04 186.12
  A 1.30 1.30 0.0 0 1 749.30 187.42
  L 749.30 187.71
  A 0.98 0.97 -90.0 0 1 748.33 188.69
  Q 727.71 188.73 723.00 188.63
  Q 722.30 188.61 722.20 188.56
  A 1.20 1.19 51.0 0 1 722.43 186.35
  C 727.93 184.81 729.30 182.93 729.31 177.00
  Q 729.42 123.58 729.31 107.50
  C 729.27 102.36 727.91 99.76 722.63 98.70
  A 1.23 1.23 0.0 0 1 722.50 96.33
  L 740.38 90.63
  A 0.84 0.84 0.0 0 1 741.48 91.43
  L 741.48 154.34
  A 0.68 0.68 0.0 0 0 742.60 154.86
  Q 754.10 145.10 764.00 134.89
  Q 766.69 132.12 764.27 128.94
  A 1.36 1.35 -12.0 0 0 763.48 128.43
  L 760.29 127.69
  A 1.07 1.07 0.0 0 1 760.53 125.58
  L 783.66 125.58
  Z"
/>
<path fill="#f5f2e6" d="
  M 354.01 122.35
  Q 353.85 122.74 353.78 122.79
  A 1.61 1.61 0.0 0 1 351.38 122.08
  Q 349.43 117.44 348.04 114.97
  Q 338.78 98.63 320.00 99.08
  Q 302.19 99.52 292.82 113.84
  C 276.81 138.33 285.81 185.26 321.04 185.99
  C 336.82 186.31 347.69 177.46 356.51 165.02
  Q 356.97 164.37 357.67 164.55
  A 1.56 1.51 -73.5 0 1 358.71 166.55
  Q 356.48 173.04 353.87 181.78
  A 2.76 2.74 -5.7 0 1 352.52 183.42
  Q 348.50 185.51 344.45 186.72
  C 324.65 192.64 300.85 192.04 284.71 177.19
  Q 271.95 165.45 270.50 146.77
  C 268.87 125.72 280.36 106.67 299.87 98.88
  C 316.44 92.26 335.36 94.24 351.85 101.94
  A 1.87 1.86 10.8 0 1 352.92 103.51
  L 354.10 121.81
  A 1.18 1.16 -35.9 0 1 354.01 122.35
  Z"
/>
<path fill="#f5f2e6" d="
  M 386.30 141.02
  Q 387.62 140.14 388.52 139.26
  Q 399.68 128.28 418.07 108.82
  C 420.48 106.27 423.33 100.66 417.88 99.41
  Q 415.94 98.96 415.57 98.84
  A 1.15 1.15 0.0 0 1 415.91 96.60
  Q 437.33 96.59 440.50 96.62
  Q 441.01 96.62 441.19 96.70
  A 1.12 1.12 0.0 0 1 441.09 98.81
  C 433.90 100.90 429.06 104.34 423.26 110.02
  Q 413.29 119.78 399.26 134.02
  A 1.14 1.14 0.0 0 0 399.18 135.55
  Q 418.19 159.27 434.97 179.02
  Q 439.60 184.47 446.47 186.17
  A 1.27 1.27 0.0 0 1 446.20 188.67
  Q 438.11 188.84 430.70 188.64
  Q 424.86 188.47 421.89 184.77
  Q 411.43 171.68 391.69 147.71
  Q 388.94 144.37 387.84 143.62
  A 1.09 1.09 0.0 0 0 386.68 143.59
  Q 386.11 143.93 385.99 146.50
  Q 385.87 149.26 385.95 178.03
  Q 385.98 186.00 393.37 185.96
  A 1.03 1.02 -1.8 0 1 394.40 186.92
  L 394.45 187.68
  A 0.92 0.91 88.2 0 1 393.54 188.66
  Q 380.27 188.73 366.18 188.62
  Q 365.17 188.61 364.53 188.38
  A 1.03 1.03 0.0 0 1 364.59 186.42
  C 367.21 185.64 370.67 185.51 371.80 181.82
  Q 372.63 179.10 372.63 174.50
  Q 372.57 118.84 372.66 111.57
  Q 372.72 106.80 371.85 103.50
  C 371.12 100.73 368.04 99.82 364.83 99.04
  A 1.02 0.98 -14.0 0 1 364.31 98.74
  Q 364.02 98.43 363.94 98.17
  A 1.24 1.22 -8.0 0 1 365.14 96.61
  Q 373.54 96.58 393.34 96.62
  A 1.08 1.08 0.0 0 1 394.42 97.79
  L 394.40 97.96
  A 1.39 1.39 0.0 0 1 393.14 99.24
  C 384.85 100.10 385.85 106.66 385.90 113.94
  Q 385.94 117.79 385.87 140.79
  A 0.28 0.28 0.0 0 0 386.30 141.02
  Z"
/>
<path fill="#f5f2e6" d="
  M 518.12 169.47
  L 535.65 122.36
  A 1.41 1.33 -45.3 0 0 535.67 121.45
  Q 531.69 109.77 529.74 105.27
  Q 527.54 100.17 521.36 99.22
  A 1.56 1.56 0.0 0 1 520.05 97.86
  L 520.05 97.82
  A 1.08 1.08 0.0 0 1 521.12 96.62
  Q 545.98 96.55 551.58 96.61
  Q 551.89 96.62 552.10 96.87
  A 1.28 1.22 63.8 0 1 551.46 98.90
  C 547.14 99.82 543.82 101.74 544.82 107.01
  Q 545.35 109.85 547.86 116.65
  Q 550.56 123.94 566.21 168.76
  Q 566.32 169.08 566.58 169.31
  A 0.35 0.35 0.0 0 0 567.15 169.17
  Q 575.51 145.49 586.85 111.38
  C 588.32 106.94 588.10 102.27 583.56 99.93
  Q 583.10 99.69 579.89 98.88
  Q 579.45 98.76 579.26 98.50
  Q 579.08 98.25 578.95 97.80
  A 0.93 0.93 0.0 0 1 579.84 96.60
  Q 585.21 96.58 602.47 96.56
  Q 603.22 96.55 603.27 96.59
  A 1.29 1.29 0.0 0 1 602.85 98.91
  C 595.75 100.69 593.68 107.36 591.21 114.45
  Q 575.15 160.52 565.63 187.34
  Q 564.78 189.71 562.53 190.16
  A 2.11 2.11 0.0 0 1 560.14 188.80
  L 538.47 128.98
  A 0.35 0.35 0.0 0 0 537.81 128.98
  Q 531.99 144.81 515.96 188.15
  A 3.16 2.90 10.4 0 1 512.95 190.04
  C 511.12 189.98 511.03 188.67 510.41 187.00
  Q 490.20 132.99 480.81 106.77
  Q 478.58 100.56 471.88 99.11
  A 1.23 1.22 -44.3 0 1 471.91 96.71
  Q 472.76 96.55 474.57 96.55
  C 488.06 96.57 501.86 96.25 502.73 96.94
  A 1.10 1.10 0.0 0 1 502.21 98.89
  C 491.83 100.43 495.43 107.86 497.71 114.40
  Q 507.75 143.21 517.35 169.47
  A 0.41 0.41 0.0 0 0 518.12 169.47
  Z"
/>
<path fill="#f5f2e6" d="
  M 689.90 123.88
  A 0.51 0.50 -8.9 0 1 690.56 124.36
  L 690.56 137.83
  A 0.31 0.30 -8.5 0 0 690.96 138.12
  Q 691.19 138.05 691.31 137.81
  Q 694.53 131.93 699.45 127.74
  C 703.86 123.97 711.68 121.83 716.02 126.82
  C 719.41 130.71 717.54 136.37 713.46 139.00
  A 2.36 2.36 0.0 0 1 710.82 138.94
  Q 710.44 138.67 708.41 136.99
  C 704.40 133.68 699.91 133.42 695.81 137.01
  Q 690.24 141.88 690.50 148.98
  Q 690.66 153.37 690.53 177.60
  Q 690.48 185.84 697.48 185.98
  A 1.50 1.50 0.0 0 1 698.94 187.32
  L 698.94 187.35
  A 1.16 1.15 -3.1 0 1 697.79 188.63
  Q 676.44 188.64 671.88 188.65
  Q 671.39 188.66 670.86 188.37
  A 0.98 0.98 0.0 0 1 670.98 186.58
  C 675.21 185.03 678.40 184.68 678.52 178.97
  Q 678.71 170.73 678.60 140.24
  Q 678.58 134.21 673.31 132.54
  Q 671.89 132.09 671.00 131.58
  A 0.95 0.95 0.0 0 1 671.19 129.85
  L 689.90 123.88
  Z"
/>
<path fill="#f5f2e6" d="
  M 663.3757 151.2520
  A 33.85 33.35 -10.0 0 1 635.8312 189.9733
  A 33.85 33.35 -10.0 0 1 596.7043 163.0080
  A 33.85 33.35 -10.0 0 1 624.2488 124.2867
  A 33.85 33.35 -10.0 0 1 663.3757 151.2520
  Z
  M 610.14 159.15
  C 611.39 171.47 618.59 189.19 634.37 186.32
  C 648.26 183.80 650.92 166.81 649.73 155.13
  C 648.55 143.44 642.54 127.34 628.42 127.66
  C 612.38 128.01 608.89 146.82 610.14 159.15
  Z"
/>
<path fill="#f5f2e6" d="
  M 793.68 169.50
  A 1.47 1.46 31.7 0 1 796.49 168.84
  C 798.95 174.61 801.26 179.66 806.46 183.19
  Q 812.26 187.13 818.41 186.47
  C 824.04 185.86 828.68 182.26 828.88 176.43
  C 829.05 171.26 825.71 168.16 821.35 165.90
  C 817.39 163.85 807.98 160.59 802.04 156.53
  C 792.08 149.70 791.75 135.71 801.50 128.68
  C 811.13 121.73 824.78 123.18 835.45 127.78
  A 0.77 0.76 11.8 0 1 835.91 128.48
  L 835.91 142.70
  A 1.12 1.11 -57.2 0 1 833.78 143.16
  Q 832.58 140.52 831.24 137.74
  C 827.92 130.89 820.95 126.48 813.18 127.93
  C 808.25 128.85 804.38 133.10 804.65 138.29
  Q 804.95 144.04 811.29 147.10
  C 819.17 150.91 826.42 152.80 833.54 157.98
  Q 838.29 161.44 839.35 167.59
  C 841.82 181.92 830.45 189.67 817.48 190.03
  Q 806.04 190.35 794.97 185.29
  A 0.52 0.51 11.0 0 1 794.67 184.86
  L 793.68 169.50
  Z"
/>
<path fill="#54a34b" d="
  M 67.24 202.92
  C 66.31 203.03 65.24 203.57 63.87 203.73
  C 52.67 205.00 42.82 197.83 39.81 186.95
  C 36.15 173.72 43.14 160.75 55.04 154.78
  Q 66.26 149.16 79.77 149.43
  Q 106.75 149.96 123.99 149.62
  A 0.80 0.80 0.0 0 1 124.81 150.47
  Q 124.02 165.86 124.84 182.99
  C 125.56 198.01 123.49 216.00 110.20 225.92
  Q 97.35 235.51 82.66 230.45
  C 71.44 226.59 64.07 215.50 67.72 203.49
  A 0.45 0.44 5.1 0 0 67.24 202.92
  Z"
/>
<path fill="#47894d" d="
  M 192.85 203.40
  A 0.57 0.57 0.0 0 0 192.21 204.09
  C 195.43 217.93 185.45 229.89 171.97 231.78
  Q 156.57 233.95 145.53 222.20
  C 138.23 214.44 135.36 204.02 134.92 193.41
  C 134.40 180.83 135.97 164.15 134.70 150.19
  A 0.61 0.60 -1.9 0 1 135.32 149.53
  Q 153.58 149.98 176.18 149.35
  Q 186.57 149.07 195.36 150.98
  C 207.91 153.70 219.67 164.00 220.75 177.63
  C 221.85 191.69 212.45 203.33 197.98 204.15
  C 196.21 204.25 194.54 203.64 192.85 203.40
  Z"
/>
</svg>
