<?xml version="1.0" encoding="UTF-8" standalone="no"?>
<!DOCTYPE svg PUBLIC "-//W3C//DTD SVG 1.1//EN" "http://www.w3.org/Graphics/SVG/1.1/DTD/svg11.dtd">
<svg xmlns="http://www.w3.org/2000/svg" version="1.1" viewBox="0.00 0.00 921.00 271.00">
<g stroke-width="2.00" fill="none" stroke-linecap="butt">
<path stroke="#78bd6a" vector-effect="non-scaling-stroke" d="
  M 223.14 81.71
  C 208.25 85.81 193.43 89.71 179.13 95.19
  Q 159.76 102.61 140.37 109.77"
/>
<path stroke="#4f9953" vector-effect="non-scaling-stroke" d="
  M 128.50 192.30
  C 109.33 199.09 89.95 205.31 71.28 213.28"
/>
<path stroke="#4f9458" vector-effect="non-scaling-stroke" d="
  M 209.78 144.95
  Q 175.85 161.60 139.78 172.78"
/>
</g>
<path fill="#84c570" d="
  M 223.14 81.71
  C 208.25 85.81 193.43 89.71 179.13 95.19
  Q 159.76 102.61 140.37 109.77
  C 138.90 88.18 137.14 60.06 159.47 47.94
  C 171.46 41.42 185.36 43.26 194.62 53.44
  Q 202.06 61.61 199.71 73.23
  A 0.40 0.40 0.0 0 0 200.18 73.70
  Q 213.91 71.10 223.14 81.71
  Z"
/>
<path fill="#add183" d="
  M 69.13 73.01
  C 66.76 60.34 73.96 50.03 85.57 45.87
  Q 95.97 42.15 106.95 46.75
  C 119.84 52.15 126.99 65.50 128.56 79.26
  Q 129.65 88.85 129.11 97.51
  Q 128.13 113.42 129.20 129.55
  A 0.60 0.60 0.0 0 1 128.57 130.18
  Q 114.96 129.32 92.77 130.31
  Q 83.30 130.73 71.53 129.46
  C 58.15 128.01 45.29 120.18 40.97 107.08
  C 37.88 97.72 40.03 87.56 46.59 80.50
  Q 54.97 71.48 68.61 73.54
  A 0.46 0.45 -0.8 0 0 69.13 73.01
  Z"
/>
<path fill="#1c2a27" d="
  M 771.43 80.16
  L 771.43 144.31
  A 1.31 1.31 0.0 0 0 773.61 145.30
  Q 783.21 136.90 794.75 125.51
  Q 795.84 124.44 796.65 122.25
  A 1.52 1.51 -47.2 0 0 796.61 121.09
  Q 795.27 118.14 791.47 118.15
  A 0.82 0.81 -0.3 0 1 790.64 117.34
  L 790.64 116.77
  A 0.87 0.87 0.0 0 1 791.49 115.90
  Q 805.38 115.46 815.40 115.87
  Q 815.69 115.88 815.88 116.05
  A 1.06 1.05 -31.0 0 1 815.42 117.87
  Q 808.80 119.49 803.30 124.06
  Q 795.65 130.42 784.97 140.10
  A 0.74 0.73 -40.7 0 0 784.89 141.11
  Q 793.22 151.26 807.19 168.60
  C 810.70 172.96 814.34 177.24 820.32 178.73
  Q 820.76 178.83 820.97 179.04
  Q 821.14 179.21 821.33 179.63
  A 1.03 1.03 0.0 0 1 820.43 181.10
  Q 815.11 181.26 809.50 181.35
  C 805.06 181.41 800.96 181.62 798.13 177.92
  Q 796.95 176.36 796.74 176.11
  Q 787.98 165.59 776.03 150.23
  Q 774.84 148.69 773.33 148.26
  A 1.41 1.41 0.0 0 0 771.53 149.58
  Q 771.25 161.52 771.65 172.56
  C 771.81 176.75 774.86 178.36 778.58 178.80
  A 1.03 1.02 -86.9 0 1 779.49 179.82
  L 779.49 180.20
  A 0.97 0.97 0.0 0 1 778.53 181.17
  Q 763.26 181.31 752.83 181.15
  Q 751.98 181.14 751.48 180.85
  A 1.01 1.01 0.0 0 1 751.70 179.01
  C 758.02 177.18 758.83 174.88 758.83 168.26
  Q 758.83 120.12 758.77 95.51
  Q 758.76 91.81 755.93 89.27
  C 754.79 88.24 752.99 87.87 751.62 87.36
  A 1.11 1.11 0.0 0 1 751.68 85.26
  L 770.63 79.56
  A 0.63 0.62 81.7 0 1 771.43 80.16
  Z"
/>
<path fill="#6bb463" d="
  M 140.37 109.77
  Q 159.76 102.61 179.13 95.19
  C 193.43 89.71 208.25 85.81 223.14 81.71
  Q 230.30 90.64 229.20 101.50
  Q 228.39 109.50 222.29 116.81
  C 208.69 133.14 182.94 130.68 162.99 129.92
  Q 152.36 129.52 140.52 130.28
  A 0.87 0.87 0.0 0 1 139.61 129.31
  Q 140.74 119.46 140.37 109.77
  Z"
/>
<path fill="#1c2a27" d="
  M 372.11 156.64
  A 1.34 1.31 -76.2 0 1 373.15 158.40
  Q 370.19 166.78 367.72 174.65
  A 2.37 2.34 86.9 0 1 366.43 176.10
  C 336.98 189.14 295.60 184.83 283.41 150.15
  C 280.01 140.47 279.84 128.75 283.08 118.72
  C 294.65 82.89 335.34 76.40 365.58 90.99
  A 2.26 2.25 -79.5 0 1 366.83 92.82
  L 368.28 111.05
  A 1.48 1.48 0.0 0 1 365.43 111.74
  Q 362.84 105.52 360.47 102.04
  Q 350.60 87.59 332.49 88.10
  C 299.09 89.05 291.35 125.98 299.38 151.86
  C 304.15 167.25 316.98 177.51 332.72 178.54
  C 346.34 179.44 358.67 172.73 366.89 162.12
  C 369.08 159.29 370.84 156.46 372.11 156.64
  Z"
/>
<path fill="#1c2a27" d="
  M 409.62 181.23
  L 379.90 181.23
  A 0.35 0.31 -21.7 0 1 379.68 181.15
  Q 379.39 180.93 379.34 180.91
  A 1.02 1.02 0.0 0 1 379.44 178.96
  C 386.87 177.17 387.61 174.10 387.61 166.76
  Q 387.61 129.66 387.56 100.33
  C 387.54 94.03 386.99 88.89 380.08 88.21
  A 1.43 1.42 -89.5 0 1 378.81 86.91
  L 378.81 86.86
  A 1.10 1.09 -2.7 0 1 379.90 85.68
  Q 393.58 85.62 408.48 85.62
  Q 409.34 85.62 409.56 85.70
  A 1.20 1.20 0.0 0 1 409.45 87.99
  C 404.23 89.35 401.70 90.71 401.50 96.53
  Q 401.42 98.75 401.42 130.93
  A 0.81 0.81 0.0 0 0 402.80 131.50
  Q 419.43 114.87 434.77 98.01
  C 436.83 95.75 439.12 91.87 436.24 89.16
  A 1.97 1.94 74.2 0 0 435.43 88.70
  L 432.64 87.93
  A 1.15 1.15 0.0 0 1 432.55 85.75
  Q 432.59 85.74 433.25 85.72
  Q 437.96 85.58 457.25 85.67
  Q 458.18 85.67 458.58 85.85
  A 1.03 1.03 0.0 0 1 458.46 87.78
  C 450.82 90.05 446.13 93.73 439.74 99.99
  Q 435.79 103.86 415.03 124.98
  A 0.85 0.85 0.0 0 0 414.98 126.11
  Q 438.36 154.88 451.90 170.69
  Q 457.15 176.83 464.49 179.07
  A 1.09 1.08 -37.3 0 1 464.20 181.19
  Q 456.23 181.42 447.25 181.16
  C 442.67 181.03 440.29 179.08 437.33 175.46
  Q 405.59 136.62 404.32 135.13
  Q 403.94 134.69 403.27 134.67
  A 1.73 1.56 1.2 0 0 401.49 136.20
  Q 401.29 158.07 401.49 169.97
  Q 401.62 177.91 409.06 178.72
  A 1.45 1.45 0.0 0 1 410.35 180.16
  L 410.35 180.50
  A 0.73 0.73 0.0 0 1 409.62 181.23
  Z"
/>
<path fill="#1c2a27" d="
  M 588.82 160.60
  A 0.53 0.53 0.0 0 0 589.82 160.60
  Q 601.30 127.29 609.17 103.65
  C 610.83 98.67 612.18 93.19 608.04 89.77
  C 606.67 88.64 603.72 88.22 602.44 87.74
  A 1.08 1.04 35.5 0 1 602.10 85.93
  Q 602.40 85.69 603.00 85.69
  Q 621.32 85.62 626.00 85.67
  Q 626.64 85.68 626.80 85.76
  A 1.11 1.11 0.0 0 1 626.65 87.81
  C 622.95 89.06 620.27 90.79 618.45 94.69
  Q 616.03 99.88 615.48 101.49
  Q 603.03 137.48 587.22 181.61
  A 1.18 1.18 0.0 0 1 586.65 182.28
  Q 585.36 182.96 583.58 182.56
  Q 582.79 182.38 582.00 180.21
  Q 564.67 132.46 559.96 119.70
  A 0.47 0.47 0.0 0 0 559.07 119.70
  Q 549.57 145.67 536.96 179.31
  Q 535.89 182.17 535.29 182.37
  Q 533.62 182.93 532.21 182.43
  A 1.45 1.43 89.0 0 1 531.33 181.57
  Q 510.64 125.56 499.90 96.39
  Q 497.49 89.85 490.78 87.97
  Q 489.83 87.70 489.69 86.94
  A 1.06 1.06 0.0 0 1 490.72 85.69
  Q 507.56 85.55 521.25 85.68
  Q 522.20 85.69 522.51 85.85
  A 1.08 1.07 -35.3 0 1 522.16 87.87
  C 512.85 89.17 514.66 95.70 516.98 102.33
  Q 526.01 128.09 538.02 161.26
  A 0.38 0.38 0.0 0 0 538.73 161.26
  L 556.77 112.75
  A 1.90 1.89 -44.8 0 0 556.78 111.43
  Q 554.10 103.91 551.22 95.78
  Q 548.93 89.33 541.94 88.13
  A 1.33 1.26 25.9 0 1 541.14 85.99
  Q 541.45 85.67 542.75 85.65
  Q 550.46 85.59 573.06 85.65
  Q 573.67 85.65 573.86 85.85
  A 1.29 1.26 -27.6 0 1 573.17 87.95
  C 569.57 88.77 566.58 90.01 566.47 94.26
  Q 566.39 97.14 567.64 100.67
  Q 572.24 113.58 588.82 160.60
  Z"
/>
<path fill="#1c2a27" d="
  M 719.09 128.80
  Q 719.39 128.46 722.39 124.15
  Q 727.12 117.36 733.11 115.18
  C 738.49 113.23 746.77 114.49 746.84 121.66
  C 746.87 125.04 744.55 130.10 740.56 130.03
  A 1.64 1.63 63.6 0 1 739.62 129.71
  C 737.19 127.92 735.61 126.42 733.39 125.65
  Q 728.08 123.80 723.67 127.88
  Q 718.82 132.35 718.80 138.72
  Q 718.70 166.75 719.03 172.72
  C 719.25 176.78 722.62 178.40 726.41 178.76
  A 1.26 1.25 3.0 0 1 727.55 180.02
  L 727.55 180.07
  A 1.11 1.10 -0.3 0 1 726.45 181.17
  Q 711.71 181.29 698.98 181.15
  A 1.13 1.01 86.8 0 1 697.97 180.14
  Q 697.92 179.73 698.23 179.32
  C 698.67 178.71 700.14 178.59 701.49 178.19
  Q 706.20 176.78 706.25 171.20
  Q 706.42 151.12 706.25 130.97
  Q 706.18 123.69 699.14 122.37
  Q 698.42 122.23 698.22 121.87
  A 1.23 1.19 69.0 0 1 698.97 120.10
  Q 702.32 119.31 716.80 114.29
  Q 717.39 114.09 717.88 114.12
  A 0.99 0.99 0.0 0 1 718.82 115.11
  L 718.82 128.70
  A 0.15 0.15 0.0 0 0 719.09 128.80
  Z"
/>
<path fill="#1c2a27" d="
  M 690.4824 144.9291
  A 35.42 34.59 -5.9 0 1 658.8056 182.9768
  A 35.42 34.59 -5.9 0 1 620.0176 152.2109
  A 35.42 34.59 -5.9 0 1 651.6944 114.1632
  A 35.42 34.59 -5.9 0 1 690.4824 144.9291
  Z
  M 634.36 150.49
  C 635.37 161.16 640.27 175.79 652.05 178.57
  C 660.96 180.67 669.35 176.48 672.94 168.19
  C 675.82 161.54 676.76 154.00 676.06 146.56
  C 675.35 139.11 673.02 131.88 668.95 125.89
  C 663.87 118.42 654.85 115.87 646.49 119.60
  C 635.44 124.53 633.35 139.82 634.36 150.49
  Z"
/>
<path fill="#1c2a27" d="
  M 868.04 134.16
  L 867.32 133.43
  A 0.67 0.65 13.0 0 1 867.17 133.20
  C 863.15 123.62 857.20 116.40 846.10 118.17
  C 841.66 118.88 837.73 122.29 837.15 126.90
  C 836.20 134.60 841.43 137.30 847.62 140.14
  C 855.77 143.89 871.21 147.58 873.12 159.98
  C 875.05 172.48 866.47 180.27 854.95 182.25
  Q 841.38 184.58 827.50 178.11
  A 1.91 1.90 10.8 0 1 826.40 176.50
  Q 825.84 167.12 825.67 162.00
  Q 825.64 161.27 825.68 161.18
  A 1.31 1.30 -46.4 0 1 828.06 161.12
  C 832.00 169.41 836.25 176.84 845.79 178.78
  Q 852.73 180.20 857.87 176.72
  C 863.49 172.91 863.52 164.93 858.66 160.54
  Q 856.21 158.32 852.36 156.67
  Q 849.82 155.58 839.68 150.78
  C 831.59 146.95 826.44 141.67 826.40 132.80
  C 826.38 125.84 830.79 119.93 836.96 117.00
  C 846.68 112.38 859.01 113.94 868.88 118.26
  A 0.84 0.84 0.0 0 1 869.38 119.03
  L 869.38 133.60
  A 0.79 0.78 -67.5 0 1 868.04 134.16
  Z"
/>
<path fill="#56a852" d="
  M 128.50 192.30
  C 109.33 199.09 89.95 205.31 71.28 213.28
  Q 66.89 205.46 69.47 197.12
  A 0.38 0.38 0.0 0 0 69.01 196.64
  C 58.11 199.43 47.01 193.69 42.21 183.63
  C 35.99 170.61 41.02 156.49 52.68 148.39
  C 62.35 141.68 74.56 140.45 86.50 140.69
  Q 113.02 141.22 118.00 141.23
  Q 123.43 141.24 128.63 140.76
  A 0.57 0.56 -0.5 0 1 129.25 141.36
  C 128.54 151.21 128.75 157.28 129.24 170.11
  Q 129.67 181.17 128.50 192.30
  Z"
/>
<path fill="#579e5d" d="
  M 209.78 144.95
  Q 175.85 161.60 139.78 172.78
  Q 139.87 166.78 140.13 160.74
  Q 140.58 150.22 139.71 141.51
  A 0.63 0.63 0.0 0 1 140.36 140.82
  C 155.03 141.60 169.45 140.82 184.00 140.79
  C 193.55 140.77 201.31 141.22 209.78 144.95
  Z"
/>
<path fill="#478953" d="
  M 209.78 144.95
  C 223.24 150.59 232.19 164.43 228.35 178.84
  C 224.88 191.85 213.35 199.29 199.86 196.83
  A 0.38 0.38 0.0 0 0 199.44 197.33
  C 202.40 205.78 198.06 214.84 191.40 220.43
  C 185.19 225.66 176.21 227.53 168.05 225.96
  C 152.05 222.90 142.12 208.57 140.59 192.71
  Q 139.38 180.09 139.78 172.78
  Q 175.85 161.60 209.78 144.95
  Z"
/>
<path fill="#478953" d="
  M 128.50 192.30
  C 126.57 206.08 120.14 218.50 107.06 224.13
  C 94.42 229.57 78.21 225.88 71.28 213.28
  C 89.95 205.31 109.33 199.09 128.50 192.30
  Z"
/>
</svg>
