<?xml version="1.0" encoding="UTF-8" standalone="no"?>
<!DOCTYPE svg PUBLIC "-//W3C//DTD SVG 1.1//EN" "http://www.w3.org/Graphics/SVG/1.1/DTD/svg11.dtd">
<svg xmlns="http://www.w3.org/2000/svg" version="1.1" viewBox="0.00 0.00 438.00 447.00">
<g stroke-width="2.00" fill="none" stroke-linecap="butt">
<path stroke="#86be68" vector-effect="non-scaling-stroke" d="
  M 205.11 149.48
  L 205.12 176.39"
/>
<path stroke="#3b8846" vector-effect="non-scaling-stroke" d="
  M 204.90 321.54
  L 204.88 322.73"
/>
</g>
<path fill="#a0cc75" d="
  M 205.11 149.48
  L 205.12 176.39
  L 205.11 213.09
  A 0.50 0.49 -90.0 0 1 204.62 213.59
  Q 185.20 213.62 140.72 213.64
  C 120.17 213.65 99.99 212.16 81.52 203.27
  C 63.41 194.56 51.08 178.15 49.02 158.09
  C 46.88 137.23 60.02 115.32 80.06 108.86
  Q 91.24 105.26 104.05 108.43
  A 0.77 0.77 0.0 0 0 104.98 107.51
  Q 102.61 97.60 104.69 87.46
  C 109.79 62.68 135.29 48.18 159.61 53.87
  C 177.10 57.97 190.25 69.51 197.14 85.95
  C 205.70 106.39 205.30 126.92 205.11 149.48
  Z"
/>
<path fill="#6baf5a" d="
  M 224.93 213.60
  A 0.67 0.67 0.0 0 1 224.26 212.93
  Q 224.36 176.82 224.17 134.50
  Q 224.12 123.45 225.61 111.73
  C 227.62 95.98 232.20 81.13 242.13 70.01
  C 254.77 55.83 274.60 49.26 293.38 54.37
  Q 309.55 58.78 318.69 71.77
  C 326.46 82.81 327.29 95.35 324.94 107.87
  A 0.52 0.52 0.0 0 0 325.58 108.48
  C 344.79 103.74 361.57 110.22 372.65 126.30
  C 381.31 138.87 383.15 154.65 378.31 169.64
  C 372.61 187.31 358.16 200.75 340.82 206.83
  Q 321.54 213.60 298.95 213.63
  Q 259.72 213.68 224.93 213.60
  Z"
/>
<path fill="#6baf5a" d="
  M 205.11 149.48
  L 205.12 176.39
  L 205.11 149.48
  Z"
/>
<path fill="#45a34a" d="
  M 204.90 321.54
  L 204.88 322.73
  Q 204.46 333.05 202.21 343.22
  C 197.03 366.66 182.28 390.56 157.11 395.29
  C 140.35 398.45 123.61 392.92 112.57 379.75
  C 103.51 368.93 101.17 353.98 104.42 340.37
  A 0.61 0.60 89.5 0 0 103.68 339.64
  C 83.35 344.91 64.75 336.42 54.88 318.39
  C 45.89 301.94 47.15 282.96 56.44 266.70
  C 64.88 251.93 78.20 242.97 94.62 238.11
  C 108.73 233.93 121.90 233.88 140.59 233.78
  Q 176.78 233.60 204.52 233.85
  A 0.65 0.64 0.9 0 1 205.16 234.50
  L 204.90 321.54
  Z"
/>
<path fill="#306d42" d="
  M 224.93 233.82
  Q 264.26 233.67 287.50 233.71
  Q 305.29 233.74 317.99 234.86
  Q 331.63 236.07 345.72 242.01
  Q 361.68 248.74 371.35 263.32
  C 383.97 282.34 384.98 306.96 370.45 325.13
  C 359.65 338.62 343.14 343.47 326.25 339.51
  A 0.80 0.79 89.3 0 0 325.30 340.49
  C 332.39 367.81 314.76 392.98 286.95 395.49
  C 251.26 398.71 230.37 367.54 225.93 335.91
  Q 224.11 322.94 224.22 310.00
  Q 224.29 302.08 224.28 234.47
  A 0.65 0.65 0.0 0 1 224.93 233.82
  Z"
/>
<path fill="#306d42" d="
  M 204.90 321.54
  L 204.88 322.73
  L 204.90 321.54
  Z"
/>
</svg>
