<?xml version="1.0" encoding="UTF-8"?>
<!DOCTYPE svg PUBLIC "-//W3C//DTD SVG 1.1//EN" "http://www.w3.org/Graphics/SVG/1.1/DTD/svg11.dtd">
<svg xmlns="http://www.w3.org/2000/svg" version="1.1" width="384px" height="396px" style="shape-rendering:geometricPrecision; text-rendering:geometricPrecision; image-rendering:optimizeQuality; fill-rule:evenodd; clip-rule:evenodd" xmlns:xlink="http://www.w3.org/1999/xlink">
<g><path fill="#687550" fill-opacity="0.612" d="M 52.08,158.07 c -0.28,7.8 -0.39,15.61 -0.32,23.43 c -0.06,53.33 0.01,106.66 0.21,159.97 c 0.37,0.5 0.86,0.7 1.48,0.62 c 2.36,-0.42 4.72,-0.43 7.08,-0.02 c 30.65,0.19 61.31,0.09 91.96,-0.31 c 10.34,0.35 20.69,0.45 31.04,0.32 c 1.65,-0.02 2.07,-0.72 1.26,-2.13 c 1.49,-0.21 1.56,2.23 0.6,3 c -1.3,0.03 -2.59,-0.08 -3.88,-0.32 c -8.67,0.05 -17.35,0.06 -26.02,0.01 c -1.01,0.08 -2.01,0.22 -3,0.43 c -4.62,-0.91 -9.35,-0.2 -14.03,-0.41 c -1.98,0.53 -3.96,0.53 -5.94,0 c -8.29,0.09 -16.82,-0.43 -25.02,0.6 c -1.31,-0.25 -2.63,-0.48 -3.95,-0.67 c -9.7,0.28 -19.39,0.31 -29.08,0.09 c -1,0.1 -1.99,0.23 -2.98,0.38 c -3.98,-0.35 -7.97,-0.51 -11.98,-0.47 c -2.34,0.11 -4.68,0.28 -7.02,0.5 c -0.6,0.01 -1.15,-0.13 -1.67,-0.42 c -0.14,-23.7 -0.18,-47.43 -0.13,-71.17 c -0.11,-1 -0.22,-2 -0.33,-3 c 0.31,-16.99 0.42,-33.99 0.33,-51 c -0.25,-2.67 -0.39,-5.36 -0.4,-8.04 c 0.18,-4.28 0.69,-8.7 0,-12.96 c -0.01,-11.66 0.14,-23.33 0.46,-35 c 0.16,-1.57 -1.42,-3.88 1.33,-3.43 Z"/></g>
<g><path fill="#7a8c63" fill-opacity="0.149" stroke="#7a8c63" stroke-width="0.5" stroke-opacity="0.149" d="M 333.62,156.75 c 0.87,1.64 1.28,3.4 1.24,5.28 c 0.01,1.31 0.02,2.62 0,3.93 c -0.12,3.03 -0.11,6.06 0.03,9.08 c 0.03,0.98 0.04,1.96 0.01,2.94 c -0.14,6.36 -0.14,12.71 -0.01,19.06 c 0.02,1 0.03,1.99 0.03,2.98 c 0,0.32 0,0.64 0,0.96 c 0,1 -0.01,2 -0.04,3 c -0.15,10.69 -0.14,21.37 0.01,32.05 c 0.03,0.97 0.03,1.95 0,2.92 c -0.16,2.7 -0.15,5.39 0.01,8.08 c 0.02,0.98 0.02,1.95 -0.01,2.92 c -0.2,15.69 -0.2,31.38 0,47.08 c 0.03,1.31 0.03,2.63 0.01,3.94 c -0.18,5.02 -0.18,10.04 0,15.06 c 0.01,1.65 0,3.29 -0.03,4.94 c -0.19,1.03 -0.19,2.05 0,3.08 c 0,3.63 -0.02,7.27 -0.04,10.9 c -0.1,2.1 -0.19,4.2 -0.27,6.3 c -0.22,0.64 -0.66,0.91 -1.32,0.81 c -0.85,-1.36 -0.31,-3.9 -0.45,-5.49 c 0.43,-1.34 0.8,-2.7 1.1,-4.07 c -0.04,-14.33 -0.04,-28.67 0.01,-43 c -0.3,-2.27 -1.4,-2.67 -0.11,-5 c -0.16,-2.02 -0.34,-4.03 -0.55,-6.04 c 0.65,-1.94 0.86,-3.92 0.65,-5.96 c -0.47,-1.63 -0.79,-3.3 -0.95,-4.99 c 0.31,-1.34 0.63,-2.68 0.96,-4.01 c -0.05,-10.33 -0.05,-20.66 -0.01,-30.99 c -0.28,-1.35 -0.57,-2.68 -0.87,-4.01 c 0.93,-1.6 1.1,-3.26 0.52,-5 c 0.32,-4.99 0.43,-9.99 0.34,-15 c -0.51,-1.67 -0.51,-3.34 0,-5 c -0.03,-6.33 -0.02,-12.66 0.02,-18.99 c -0.2,-1.03 -0.45,-2.04 -0.75,-3.05 c 0.31,-0.97 0.56,-1.96 0.75,-2.96 c -0.05,-5.67 -0.05,-11.33 -0.01,-16.99 c 0.02,-1.64 -1.4,-3.27 -0.27,-4.76 Z"/></g>
<g><path fill="#75815c" fill-opacity="0.129" d="M 41.03,152.99 c -0.11,0.69 -0.21,1.39 -0.3,2.08 c -0.11,1.28 -0.14,2.57 -0.09,3.85 c -0.63,0.33 -0.94,0.85 -0.93,1.59 c -0.05,57.66 -0.07,115.31 -0.06,172.97 c 0.14,1.7 0.43,3.37 0.87,5.02 c 0.01,2.48 -0.04,4.96 -0.17,7.42 c 0.13,0.03 0.26,0.07 0.39,0.1 c 0,0.26 0.01,0.53 0.01,0.79 c -0.47,0.36 -0.85,0.8 -1.15,1.3 c -0.99,-0.24 -0.42,-3.79 -0.61,-4.61 c 0.02,-58.07 -0.03,-116.13 -0.16,-174.19 c 0.21,-4.29 0.27,-8.57 0.18,-12.86 c 0.23,-1.18 0.67,-3.1 2.02,-3.46 Z"/></g>
<g><path fill="#62704a" fill-opacity="0.722" d="M 128.85,165.76 c -0.17,2.55 -0.2,5.11 -0.1,7.67 c -0.44,1.36 -0.89,2.71 -1.36,4.06 c 0,0.92 0.07,1.84 0.2,2.75 c -1.55,3.15 -0.65,6.86 -0.97,10.26 c 0.48,1.99 0.79,3.99 0.93,6.01 c 1.59,2.44 0.95,2.34 0.81,5.07 c 0.23,1.08 0.66,2.07 1.29,2.98 c 0.05,0.86 0.04,1.73 -0.03,2.59 c -0.51,-0.16 -0.87,-0.48 -1.09,-0.96 c -0.68,-2.3 -1.36,-4.6 -2.03,-6.91 c 0.01,-1.43 -0.3,-2.78 -0.94,-4.06 c -0.19,-4.91 -0.21,-9.82 -0.05,-14.73 c 0.58,-2.26 0.93,-4.56 1.05,-6.89 c 0.55,-2.67 1.32,-5.29 2.29,-7.84 Z"/></g>
<g><path fill="#778561" fill-opacity="0.102" d="M 189.65,141.29 c -0.83,-0.17 -1.66,-0.22 -2.5,-0.15 c -0.9,-1.71 3.71,-1.53 2.5,0.15 Z"/></g>
<g><path fill="#92a180" fill-opacity="0.106" d="M 237.84,247.2 c 2.04,-0.2 1.21,3.41 0.02,2.72 c 0.01,-0.9 0,-1.81 -0.02,-2.72 Z"/></g>
<g><path fill="#72815a" fill-opacity="0.98" stroke="#72815a" stroke-width="0.5" stroke-opacity="0.98" d="M 345.35,152.76 c -1.07,2.01 0.17,4.57 0.03,6.74 c 0,62.92 -0.02,125.83 -0.05,188.74 c 0.04,1.73 -3.12,3.91 -4.54,4.58 c -12.42,0.05 -24.84,0.2 -37.25,0.44 c -1.01,-0.1 -2.03,-0.21 -3.04,-0.31 c -85.11,0.04 -170.22,0.02 -255.33,-0.07 c -2.9,-1.21 -3.48,-2.93 -5.57,-4.77 c 0.3,-0.5 0.68,-0.94 1.15,-1.3 c 0.7,1.44 1.13,1.36 1.31,-0.22 c -0.06,-61.7 -0.08,-123.39 -0.05,-185.09 c -0.05,-1.98 -0.13,-3.95 -0.22,-5.92 c -0.22,-0.46 -0.57,-0.63 -1.06,-0.51 c 0.09,-0.69 0.19,-1.39 0.3,-2.08 c 0.4,-0.76 0.89,-1.44 1.48,-2.06 c 13.27,-11.51 27.39,-22.63 41.14,-33.68 c 3.34,-2.42 10.55,-9.17 13.31,-10.95 c 28.42,-23.33 56.9,-46.43 85.37,-69.69 c 5.62,-4.84 10.68,-8.91 17.63,-2.89 c 47.1,38.55 94.08,77.23 141.66,115.18 c 1.36,1.18 2.6,2.46 3.73,3.86 Z M 52.08,158.07 c -2.75,-0.45 -1.17,1.86 -1.33,3.43 c -0.32,11.67 -0.47,23.34 -0.46,35 c 0.69,4.26 0.18,8.68 0,12.96 c 0.01,2.68 0.15,5.37 0.4,8.04 c 0.09,17.01 -0.02,34.01 -0.33,51 c 0.11,1 0.22,2 0.33,3 c -0.05,23.74 -0.01,47.47 0.13,71.17 c 0.52,0.29 1.07,0.43 1.67,0.42 c 2.34,-0.22 4.68,-0.39 7.02,-0.5 c 4.01,-0.04 8,0.12 11.98,0.47 c 0.99,-0.15 1.98,-0.28 2.98,-0.38 c 9.69,0.22 19.38,0.19 29.08,-0.09 c 1.32,0.19 2.64,0.42 3.95,0.67 c 8.2,-1.03 16.73,-0.51 25.02,-0.6 c 1.98,0.53 3.96,0.53 5.94,0 c 4.68,0.21 9.41,-0.5 14.03,0.41 c 0.99,-0.21 1.99,-0.35 3,-0.43 c 8.67,0.05 17.35,0.04 26.02,-0.01 c 1.29,0.24 2.58,0.35 3.88,0.32 c 0.96,-0.77 0.89,-3.21 -0.6,-3 c -7.45,-13.53 -10.56,-27.14 -14.46,-41.9 c -4.14,-12.86 -13.73,-12.25 -24.82,-14.37 c -0.97,-0.07 -1.94,-0.01 -2.91,0.18 c -3.75,-1.98 -10.17,-3.25 -14.29,-5.64 c -14.53,-9 -22.16,-18.66 -28.85,-34.46 c -6.85,-15.16 4.98,-11.45 14.05,-10.87 c 23.46,4.89 35.59,17.21 48.28,36.77 c 0.18,0.54 6.88,14.23 6.97,9.04 c -1.34,-6.67 -2.76,-13.33 -4.24,-19.98 c -5.34,-16.29 -7.63,-22.94 -22.1,-32.79 c -6.48,-6 -9.22,-10.85 -12.8,-18.78 c 0.07,-0.86 0.08,-1.73 0.03,-2.59 c -0.63,-0.91 -1.06,-1.9 -1.29,-2.98 c 0.14,-2.73 0.78,-2.63 -0.81,-5.07 c -0.14,-2.02 -0.45,-4.02 -0.93,-6.01 c 0.32,-3.4 -0.58,-7.11 0.97,-10.26 c -0.13,-0.91 -0.2,-1.83 -0.2,-2.75 c 0.47,-1.35 0.92,-2.7 1.36,-4.06 c -0.1,-2.56 -0.07,-5.12 0.1,-7.67 c 0.79,-0.67 1.57,-1.36 2.36,-2.05 c 5.16,-2.72 19.14,13.4 22.77,16.86 c 13.22,20.1 11.5,31.76 9.57,54.44 c 1.8,6.33 3.71,12.61 5.72,18.84 c 1.05,-1.09 1.14,-6 1.9,-7.78 c 0.81,-0.99 1.19,-2.14 1.13,-3.46 c 0.43,-0.44 0.87,-0.88 1.32,-1.31 c 0.12,-1.27 0.21,-2.55 0.25,-3.83 c 1.8,-4.21 2.39,-9.38 3.06,-13.91 c 0.37,-0.63 0.85,-1.17 1.44,-1.61 c 0.22,-1.28 0.63,-2.49 1.23,-3.65 c 0.02,-1.48 0.15,-2.95 0.4,-4.41 c 0.52,-0.95 0.86,-1.97 1.04,-3.04 c 0.58,-0.81 1.12,-1.65 1.6,-2.52 c 0.03,-0.95 0.14,-1.9 0.33,-2.84 c 1.8,-3.29 3.32,-6.7 4.56,-10.23 c 0.36,-1.72 0.99,-4.8 -1.4,-5.32 c -0.58,-2.08 -1.25,-4.13 -2.01,-6.13 c 0.52,-3.38 -1.33,-7.15 -2.53,-10.24 c 0.02,-1.42 -0.25,-2.79 -0.81,-4.1 c -0.09,-3 -0.12,-6 -0.07,-9 c 0.6,-1.97 0.93,-3.98 0.98,-6.03 c 0.84,-2.25 1.59,-4.53 2.25,-6.84 c 0.3,-0.86 2.66,-4.07 1.01,-4.67 c 0.45,-0.94 1.18,-1.54 2.2,-1.79 c 0.84,-0.07 1.67,-0.02 2.5,0.15 c 9.18,6.73 6.83,32.67 4.53,42.4 c -0.07,0.42 0.05,0.75 0.37,1 c 3.75,-5.16 7.81,-13.21 8.49,-19.66 c 0.68,0.1 1.21,-0.12 1.6,-0.66 c 0.62,-2.94 1.38,-5.85 2.29,-8.74 c 0.9,-1.76 1.75,-3.54 2.55,-5.34 c 0.17,-0.61 -0.02,-1.08 -0.55,-1.41 c 1.65,-2.51 3.36,-4.98 5.15,-7.39 c 7.17,-7.05 27.61,-21.99 38.05,-19.09 c 1.76,2.37 2.27,5.01 1.53,7.92 c -5.88,25.85 -19.43,41.75 -44.66,50.2 c -15.6,7.46 -24.81,38.76 -28.69,53.99 c 0.9,1.83 1.86,-0.84 2.25,-1.51 c 13.04,-13.85 17.36,-29.72 37.42,-36.92 c 0.36,0.47 0.85,0.68 1.45,0.6 c 3.7,-0.87 7.36,-1.83 11,-2.88 c 2.77,-0.15 5.52,-0.23 8.26,-0.25 c -1.23,-1.2 -5.25,0.13 -5.71,-1.25 c 7.29,-0.48 27.51,-0.52 33.3,3.8 c 0.72,1.5 0.61,2.95 -0.33,4.35 c -18.3,25.18 -38.5,34.01 -69.47,32.57 c -24.63,2 -23.3,26.63 -23.65,45.48 c 0.89,6.5 1.69,13.03 2.37,19.57 c -1.01,2.37 0.54,4.19 2.48,2.19 c -0.55,-1.77 -0.9,-3.6 -1.06,-5.49 c 0.42,-0.22 0.79,-0.51 1.08,-0.89 c 0.05,0.41 0.24,0.7 0.6,0.88 c 0.86,-2.14 1.63,-4.31 2.29,-6.53 c 0.06,-0.89 0.12,-1.78 0.19,-2.68 c 0.9,-2.52 1.3,-5.12 1.2,-7.82 c 0.32,-0.08 0.56,-0.27 0.73,-0.55 c 3.71,-9.33 9.75,-16.77 18.14,-22.3 c 4.26,-0.03 6.44,-1.78 10.02,-3.71 c 1.66,-0.34 3.23,-0.91 4.7,-1.7 c -0.2,-0.28 -0.43,-0.54 -0.68,-0.77 c 5.73,-2.48 13.21,-3.86 19.46,-3.37 c 0.87,0.31 1.37,0.93 1.49,1.87 c 0.02,0.91 0.03,1.82 0.02,2.72 c -2.94,11.42 -17.26,25.55 -27.84,30.8 c -4.82,2.75 -21.24,6.72 -23.01,11.85 c -7.72,16.9 -0.74,34.09 7.93,49 c 0.76,0.51 1.61,0.76 2.54,0.75 c 44.4,0.14 88.79,0.21 133.17,0.19 c 0.88,-0.04 1.75,-0.19 2.59,-0.45 c 0.66,0.1 1.1,-0.17 1.32,-0.81 c 0.08,-2.1 0.17,-4.2 0.27,-6.3 c 0.83,-0.08 1.21,-0.55 1.14,-1.41 c 0.03,-3 0.01,-6 -0.06,-8.99 c -0.22,-0.45 -0.56,-0.61 -1.04,-0.5 c -0.19,-1.03 -0.19,-2.05 0,-3.08 c 0.83,-0.08 1.21,-0.56 1.14,-1.43 c -0.16,-0.82 0.53,-3.82 -1.11,-3.51 c -0.18,-5.02 -0.18,-10.04 0,-15.06 c 1.42,0.43 1.89,-3.95 -0.01,-3.94 c -0.2,-15.7 -0.2,-31.39 0,-47.08 c 1.68,0.09 1.63,-2.94 0.01,-2.92 c -0.16,-2.69 -0.17,-5.38 -0.01,-8.08 c 1.68,0.11 1.65,-2.98 0,-2.92 c -0.15,-10.68 -0.16,-21.36 -0.01,-32.05 c 1.64,-0.01 1.68,-2.95 0.04,-3 c 0,-0.32 0,-0.64 0,-0.96 c 1.62,-0.04 1.63,-3.04 -0.03,-2.98 c -0.13,-6.35 -0.13,-12.7 0.01,-19.06 c 1.67,0.04 1.7,-3.04 -0.01,-2.94 c -0.14,-3.02 -0.15,-6.05 -0.03,-9.08 c 1.72,0.36 1.71,-4.25 0,-3.93 c 0.04,-1.88 -0.37,-3.64 -1.24,-5.28 c -46.26,-37.67 -93.2,-74.85 -138.89,-113.12 c -0.89,-0.81 -1.84,-0.9 -2.87,-0.27 c -1.56,1.47 -3.23,2.79 -5.02,3.96 c -44.65,36.42 -89.46,72.37 -133.8,109.35 c -0.41,0.41 -0.73,0.87 -0.96,1.4 Z M 207.63,174.41 c 16.82,-4.35 30.93,-24.6 36.25,-40.1 c 1.06,-3.02 -5.39,0.64 -6.18,0.76 c -17.46,8.06 -26.59,20.44 -30.07,39.34 Z M 187.39,156.2 c -1.9,8.33 -0.86,14.01 0.67,22.2 c 0.45,0.66 0.99,4.42 1.71,4.19 c 1.72,0.22 2.26,-0.49 1.6,-2.15 c 0.54,-1.61 0.96,-3.25 1.26,-4.92 c -0.5,-5.32 -1.17,-10.61 -1.99,-15.88 c -0.47,-0.41 -0.94,-0.81 -1.41,-1.21 c -0.06,-0.82 0.35,-4.82 -1.44,-4.12 c -0.44,0.56 -0.58,1.19 -0.4,1.89 Z M 182.35,158.83 c -0.11,1 0.25,1.76 1.09,2.26 c 1.98,-1.25 0.68,-3.81 -1.09,-2.26 Z M 40.64,158.92 c 0.04,62.37 0.07,124.74 0.1,187.1 c -0.13,-0.03 -0.26,-0.07 -0.39,-0.1 c 0.13,-2.46 0.18,-4.94 0.17,-7.42 c -0.44,-1.65 -0.73,-3.32 -0.87,-5.02 c -0.01,-57.66 0.01,-115.31 0.06,-172.97 c -0.01,-0.74 0.3,-1.26 0.93,-1.59 Z M 134.26,180.35 c -0.88,-0.19 -1.32,0.17 -1.32,1.09 c -0.04,2.02 -0.09,4.04 -0.14,6.06 c 0.46,3.47 0.8,6.94 1.02,10.42 c 0.36,0.82 0.65,1.67 0.88,2.53 c 0.26,-0.54 0.62,-0.98 1.1,-1.32 c 1.37,6.92 5.93,13.25 9.8,18.95 c 2.73,2.77 8.24,7.67 10.27,10.52 c 0.3,0.19 0.6,0.22 0.92,0.06 c 0.46,0.4 0.98,0.7 1.56,0.91 c 0.23,-1.66 0.43,-3.36 0.6,-5.1 c 0.21,-0.74 0.45,-1.48 0.7,-2.21 c 0,-2.19 0,-4.39 0.01,-6.58 c -0.32,-0.68 -0.57,-1.38 -0.77,-2.1 c -0.07,-3.8 -0.85,-7.45 -2.34,-10.93 c -0.14,-0.85 -0.23,-1.7 -0.28,-2.55 c -0.67,-2.22 -1.21,-2.16 -1.64,0.16 c -2.31,-9.05 -10.62,-18.56 -17.24,-25.12 c -0.5,-0.48 -1.58,-1.38 -2.16,-0.47 c -0.16,1.93 -0.48,3.82 -0.97,5.68 Z M 196.28,226 c 0.07,0.54 0.38,0.75 0.93,0.63 c 21.42,-1.45 36.17,-4.37 52.49,-19.27 c 1.72,-1.53 3.35,-3.14 4.89,-4.82 c -0.19,-0.43 -0.54,-0.67 -1.03,-0.71 c -23.41,-3.16 -44.35,3.84 -57.28,24.17 Z M 137.63,252.99 c 2.33,-0.32 -1.29,-2.51 -1.71,-3.25 c -1.92,-2.02 -4.25,-2.87 -7.01,-2.57 c -3.12,-1.59 -19.51,-8.26 -21.8,-5.67 c 1.18,2.7 2.52,5.33 4.01,7.91 c 13.47,19.75 24.82,24.63 47.44,30.38 c 3.28,0.72 -1.92,-5.2 -1.96,-5.9 c -5.92,-8.09 -10.67,-14.9 -18.97,-20.9 Z M 221.9,255.01 c -17.26,6.39 -23.03,10.51 -32.38,26.88 c -0.25,0.38 -0.22,0.72 0.08,1.03 c 4.76,-2.57 9.55,-5.11 14.39,-7.59 c 8.79,-5.12 15.38,-10.73 21.13,-19.22 c 0.58,-0.54 1.09,-1.14 1.52,-1.79 c -1.1,-1.01 -2.39,-1.3 -3.88,-0.88 c -0.57,0.37 -0.86,0.89 -0.86,1.57 Z"/></g>
<g><path fill="#74835b" fill-opacity="0.537" d="M 225.12,256.11 c 0.56,-2.16 -2.18,-1.04 -3.22,-1.1 c 0,-0.68 0.29,-1.2 0.86,-1.57 c 1.49,-0.42 2.78,-0.13 3.88,0.88 c -0.43,0.65 -0.94,1.25 -1.52,1.79 Z"/></g>
<g><path fill="#5e6a45" fill-opacity="0.78" d="M 156.79,228.66 c 1.5,-1.58 0.78,-12.5 0.85,-15.15 c -0.81,-3.28 -1.42,-6.61 -1.81,-9.97 c -0.32,-1.12 -0.72,-2.22 -1.2,-3.28 c 0.43,-2.32 0.97,-2.38 1.64,-0.16 c 0.05,0.85 0.14,1.7 0.28,2.55 c 1.49,3.48 2.27,7.13 2.34,10.93 c 0.2,0.72 0.45,1.42 0.77,2.1 c -0.01,2.19 -0.01,4.39 -0.01,6.58 c -0.25,0.73 -0.49,1.47 -0.7,2.21 c -0.17,1.74 -0.37,3.44 -0.6,5.1 c -0.58,-0.21 -1.1,-0.51 -1.56,-0.91 Z"/></g>
<g><path fill="#5f6c46" fill-opacity="0.847" d="M 134.26,180.35 c -0.04,2.71 -0.07,5.43 -0.09,8.15 c 0.32,3.58 0.86,7.12 1.63,10.63 c -0.48,0.34 -0.84,0.78 -1.1,1.32 c -0.23,-0.86 -0.52,-1.71 -0.88,-2.53 c -0.22,-3.48 -0.56,-6.95 -1.02,-10.42 c 0.05,-2.02 0.1,-4.04 0.14,-6.06 c 0,-0.92 0.44,-1.28 1.32,-1.09 Z"/></g>
<g><path fill="#616d48" fill-opacity="0.149" stroke="#616d48" stroke-width="0.5" stroke-opacity="0.149" d="M 45.17,352.88 c 85.11,0.09 170.22,0.11 255.33,0.07 c 1.01,0.1 2.03,0.21 3.04,0.31 c 12.41,-0.24 24.83,-0.39 37.25,-0.44 c 0.17,1.6 -3.42,0.94 -4.29,1.17 c -95.67,0.03 -191.33,0.03 -287,0.02 c -0.75,-0.21 -4.95,0.56 -4.33,-1.13 Z"/></g>
<g><path fill="#56623e" fill-opacity="0.988" d="M 334.87,324.05 c 0.48,-0.11 0.82,0.05 1.04,0.5 c 0.07,2.99 0.09,5.99 0.06,8.99 c 0.07,0.86 -0.31,1.33 -1.14,1.41 c 0.02,-3.63 0.04,-7.27 0.04,-10.9 Z"/></g>
<g><path fill="#66744d" fill-opacity="0.373" d="M 178.62,294.77 c 0.16,1.89 0.51,3.72 1.06,5.49 c -1.94,2 -3.49,0.18 -2.48,-2.19 c 1.81,0 0.06,-2.65 1.42,-3.3 Z"/></g>
<g><path fill="#5f6e48" fill-opacity="0.698" d="M 183.98,277.73 c 0.1,2.7 -0.3,5.3 -1.2,7.82 c -0.07,0.9 -0.13,1.79 -0.19,2.68 c -0.66,2.22 -1.43,4.39 -2.29,6.53 c -0.36,-0.18 -0.55,-0.47 -0.6,-0.88 c 0.48,-3.08 1.04,-6.15 1.69,-9.19 c 0.82,-2.36 1.68,-4.68 2.59,-6.96 Z"/></g>
<g><path fill="#64714b" fill-opacity="0.831" d="M 234.98,192.3 c 0.46,1.38 4.48,0.05 5.71,1.25 c -2.74,0.02 -5.49,0.1 -8.26,0.25 c -3.64,1.05 -7.3,2.01 -11,2.88 c -0.6,0.08 -1.09,-0.13 -1.45,-0.6 c 4.86,-1.8 9.86,-3.06 15,-3.78 Z"/></g>
<g><path fill="#788a62" fill-opacity="0.992" d="M 182.35,158.83 c 1.77,-1.55 3.07,1.01 1.09,2.26 c -0.84,-0.5 -1.2,-1.26 -1.09,-2.26 Z"/></g>
<g><path fill="#59653e" fill-opacity="0.969" d="M 40.73,155.07 c 0.49,-0.12 0.84,0.05 1.06,0.51 c 0.09,1.97 0.17,3.94 0.22,5.92 c -0.03,61.7 -0.01,123.39 0.05,185.09 c -0.18,1.58 -0.61,1.66 -1.31,0.22 c 0,-0.26 -0.01,-0.53 -0.01,-0.79 c -0.03,-62.36 -0.06,-124.73 -0.1,-187.1 c -0.05,-1.28 -0.02,-2.57 0.09,-3.85 Z M 128.91,247.17 c 2.76,-0.3 5.09,0.55 7.01,2.57 c 0.42,0.74 4.04,2.93 1.71,3.25 c -1.92,-1.51 -3.9,-2.95 -5.92,-4.33 c -1.06,-0.32 -2,-0.82 -2.8,-1.49 Z"/></g>
<g><path fill="#62714a" fill-opacity="0.769" d="M 189.77,182.59 c 0.4,-2.02 0.69,-4.05 0.86,-6.09 c -0.39,-5.25 -0.74,-10.51 -1.04,-15.77 c -2.29,-1.64 -1.2,-1.43 -1.52,-4.09 c -0.13,-0.33 -0.35,-0.47 -0.68,-0.44 c -0.18,-0.7 -0.04,-1.33 0.4,-1.89 c 1.79,-0.7 1.38,3.3 1.44,4.12 c 0.47,0.4 0.94,0.8 1.41,1.21 c 0.82,5.27 1.49,10.56 1.99,15.88 c -0.3,1.67 -0.72,3.31 -1.26,4.92 c 0.66,1.66 0.12,2.37 -1.6,2.15 Z"/></g>
<g><path fill="#737e59" fill-opacity="0.478" d="M 345.35,152.76 c 0.97,0.43 0.5,3.8 0.66,4.74 c 0.03,63.36 0,126.72 -0.11,190.07 c -0.06,0.36 -0.25,0.58 -0.57,0.67 c 0.03,-62.91 0.05,-125.82 0.05,-188.74 c 0.14,-2.17 -1.1,-4.73 -0.03,-6.74 Z"/></g>
<g><path fill="#627048" fill-opacity="0.733" d="M 208.93,148.88 c 0.53,0.33 0.72,0.8 0.55,1.41 c -0.8,1.8 -1.65,3.58 -2.55,5.34 c -0.91,2.89 -1.67,5.8 -2.29,8.74 c -0.39,0.54 -0.92,0.76 -1.6,0.66 c 0.33,-1.05 0.46,-2.12 0.39,-3.22 c 0.42,-0.72 0.75,-1.47 1,-2.26 c 0.24,-1.6 0.61,-3.18 1.11,-4.71 c 0.3,-0.61 0.73,-1.12 1.29,-1.54 c 0.51,-1.56 1.22,-3.03 2.1,-4.42 Z"/></g>
<g><path fill="#606e48" fill-opacity="0.753" d="M 184.95,142.93 c 1.65,0.6 -0.71,3.81 -1.01,4.67 c -0.66,2.31 -1.41,4.59 -2.25,6.84 c -0.05,2.05 -0.38,4.06 -0.98,6.03 c -0.05,3 -0.02,6 0.07,9 c 0.56,1.31 0.83,2.68 0.81,4.1 c 1.2,3.09 3.05,6.86 2.53,10.24 c -0.17,-0.01 -0.35,-0.02 -0.52,-0.02 c -0.81,-2.41 -1.6,-4.84 -2.37,-7.3 c -0.56,-2.31 0.03,-2.54 -1.78,-4.19 c -0.19,-3.92 -0.28,-7.86 -0.26,-11.81 c 0.37,-1.54 0.5,-3.11 0.38,-4.7 c 1.08,-2.23 1.78,-4.59 2.12,-7.06 c 1.07,-1.68 1.33,-4.96 3.26,-5.8 Z M 186.13,189.94 c 2.39,0.52 1.76,3.6 1.4,5.32 c -1.24,3.53 -2.76,6.94 -4.56,10.23 c -0.19,0.94 -0.3,1.89 -0.33,2.84 c -0.48,0.87 -1.02,1.71 -1.6,2.52 c -0.18,1.07 -0.52,2.09 -1.04,3.04 c -0.25,1.46 -0.38,2.93 -0.4,4.41 c -0.6,1.16 -1.01,2.37 -1.23,3.65 c -0.59,0.44 -1.07,0.98 -1.44,1.61 c -0.67,4.53 -1.26,9.7 -3.06,13.91 c -0.04,1.28 -0.13,2.56 -0.25,3.83 c -0.45,0.43 -0.89,0.87 -1.32,1.31 c 0.06,1.32 -0.32,2.47 -1.13,3.46 c 0.5,-1.47 0.52,-2.95 0.06,-4.43 c 0.51,-0.42 1.02,-0.86 1.51,-1.31 c -0.02,-1.28 0.07,-2.56 0.28,-3.82 c 0.31,-2.39 0.84,-4.72 1.6,-6.99 c -0.17,-2.37 -0.35,-1.56 1.1,-3.21 c 0.17,-1.86 0.45,-3.7 0.83,-5.52 c 0.27,-0.55 0.64,-1.01 1.13,-1.41 c 0.31,-1.93 0.73,-3.83 1.27,-5.71 c 1.96,-5.27 3.81,-10.55 5.57,-15.86 c 0.3,-0.54 0.7,-1.01 1.18,-1.41 c 0.6,-2.49 1.43,-3.9 0.43,-6.46 Z M 216.89,248.7 c 0.25,0.23 0.48,0.49 0.68,0.77 c -1.47,0.79 -3.04,1.36 -4.7,1.7 c -3.58,1.93 -5.76,3.68 -10.02,3.71 c 1.25,-0.97 2.59,-1.78 4.03,-2.41 c 3.25,-1.5 6.59,-2.76 10.01,-3.77 Z"/></g>
<g><path fill="#13140e" fill-opacity="0.008" stroke="#13140e" stroke-width="0.5" stroke-opacity="0.008" d="M 221.9,255.01 c 1.04,0.06 3.78,-1.06 3.22,1.1 c -5.75,8.49 -12.34,14.1 -21.13,19.22 c -4.84,2.48 -9.63,5.02 -14.39,7.59 c -0.3,-0.31 -0.33,-0.65 -0.08,-1.03 c 9.35,-16.37 15.12,-20.49 32.38,-26.88 Z"/></g>
<g><path fill="#414c33" fill-opacity="0.059" stroke="#414c33" stroke-width="0.5" stroke-opacity="0.059" d="M 187.39,156.2 c 0.33,-0.03 0.55,0.11 0.68,0.44 c 0.32,2.66 -0.77,2.45 1.52,4.09 c 0.3,5.26 0.65,10.52 1.04,15.77 c -0.17,2.04 -0.46,4.07 -0.86,6.09 c -0.72,0.23 -1.26,-3.53 -1.71,-4.19 c -1.53,-8.19 -2.57,-13.87 -0.67,-22.2 Z"/></g>
<g><path fill="#565f3c" fill-opacity="0.98" d="M 334.89,297.03 c 1.9,-0.01 1.43,4.37 0.01,3.94 c 0.02,-1.31 0.02,-2.63 -0.01,-3.94 Z"/></g>
<g><path fill="#4e5936" fill-opacity="0.988" d="M 334.9,247.03 c 1.62,-0.02 1.67,3.01 -0.01,2.92 c 0.03,-0.97 0.03,-1.94 0.01,-2.92 Z"/></g>
<g><path fill="#535e3c" fill-opacity="0.973" d="M 334.89,236.03 c 1.65,-0.06 1.68,3.03 0,2.92 c 0.03,-0.97 0.03,-1.95 0,-2.92 Z"/></g>
<g><path fill="#515d39" fill-opacity="0.98" d="M 334.89,175.04 c 1.71,-0.1 1.68,2.98 0.01,2.94 c 0.03,-0.98 0.02,-1.96 -0.01,-2.94 Z M 334.89,197.04 c 1.66,-0.06 1.65,2.94 0.03,2.98 c 0,-0.99 -0.01,-1.98 -0.03,-2.98 Z M 334.92,200.98 c 1.64,0.05 1.6,2.99 -0.04,3 c 0.03,-1 0.04,-2 0.04,-3 Z M 334.9,316.03 c 1.64,-0.31 0.95,2.69 1.11,3.51 c 0.07,0.87 -0.31,1.35 -1.14,1.43 c 0.03,-1.65 0.04,-3.29 0.03,-4.94 Z"/></g>
<g><path fill="#54613b" fill-opacity="0.984" d="M 334.86,162.03 c 1.71,-0.32 1.72,4.29 0,3.93 c 0.02,-1.31 0.01,-2.62 0,-3.93 Z"/></g>
</svg>
