<?xml version="1.0" encoding="UTF-8"?>
<!DOCTYPE svg PUBLIC "-//W3C//DTD SVG 1.1//EN" "http://www.w3.org/Graphics/SVG/1.1/DTD/svg11.dtd">
<svg xmlns="http://www.w3.org/2000/svg" version="1.1" width="835px" height="349px" viewBox="326 359 835 349" style="shape-rendering:geometricPrecision; text-rendering:geometricPrecision; image-rendering:optimizeQuality; fill-rule:evenodd; clip-rule:evenodd" xmlns:xlink="http://www.w3.org/1999/xlink">
<g><path fill="#506348" fill-opacity="0.961" d="M 947.67,665.85 c 0.86,0.89 1.53,1.91 2.02,3.07 c 1.21,-0.12 2.42,-0.34 3.61,-0.68 c 1.73,1.36 0.84,2.93 -0.8,3.76 c -0.61,0.89 -1.1,1.85 -1.48,2.86 c -3.31,-1.4 -5.26,-5.68 -3.35,-9.01 Z"/></g>
<g><path fill="#4d6644" fill-opacity="0.757" d="M 1014.02,475.88 c 2.98,1.5 6.65,1 9.87,0.88 c -0.2,2.18 -6.06,0.92 -7.48,1.14 c -1.19,-0.19 -1.98,-0.87 -2.39,-2.02 Z"/></g>
<g><path fill="#556749" fill-opacity="0.6" d="M 1077.93,445.62 c 0.02,0.58 0.04,1.16 0.07,1.74 c -0.74,-0.21 -1.48,-0.37 -2.24,-0.47 c 0.53,-0.71 1.26,-1.13 2.17,-1.27 Z"/></g>
<g><path fill="#4f6948" fill-opacity="0.541" d="M 983.08,638.66 c -0.22,0.77 -0.72,1.22 -1.51,1.35 c 0.32,-0.65 0.83,-1.1 1.51,-1.35 Z"/></g>
<g><path fill="#374e32" fill-opacity="0.976" stroke="#374e32" stroke-width="0.5" stroke-opacity="0.976" d="M 1039.67,425.07 c 0.6,4.94 0.06,12.43 -6.2,13.15 c -3.48,-0.25 -2.79,-5.9 -2.49,-8.18 c 1.94,-2.03 5.06,-1.84 7.41,-3.26 c 0.41,-0.59 0.84,-1.16 1.28,-1.71 Z M 649.17,443.97 c 0.67,2.7 0.75,5.42 0.25,8.16 c -3.01,-0.07 -5.06,-0.67 -7.93,0.81 c -1.31,-0.66 -0.85,-3.2 -1.23,-4.44 c 0.17,-2.67 3.69,-3.29 5.85,-3.29 c 0.92,-0.66 1.94,-1.08 3.06,-1.24 Z M 791.48,496.23 c -3.84,-0.78 -3.84,-4.62 -3.75,-7.54 c 2.04,-1.87 8.34,-6.16 8.69,-0.67 c 0.36,3.35 -3.03,5.9 -4.94,8.21 Z M 584.21,514.59 c -0.87,-0.59 -1.82,-0.97 -2.86,-1.13 c 2.63,-0.84 2.76,-5.84 0.23,-6.52 c -0.46,-0.32 -0.64,-0.75 -0.54,-1.29 c 2.76,-0.05 5.67,-1.9 8.39,-2.44 c 1.79,0.42 2.35,1.52 1.69,3.29 c -1.24,3.6 -3.54,6.29 -6.91,8.09 Z"/></g>
<g><path fill="#050804" fill-opacity="0.012" stroke="#050804" stroke-width="0.5" stroke-opacity="0.012" d="M 622.28,472.79 c -1.21,-0.07 -2.02,0.43 -2.46,1.51 c -0.51,0.29 -1.06,0.42 -1.66,0.39 c -0.77,0.07 -2.2,0.19 -2.05,-1.02 c 2.68,-9.44 8.9,-20.41 16.89,-26.35 c 1,-0.43 5.12,-2.19 5.37,-0.38 c 1.83,6.25 -3,12.65 -6.59,17.34 c -2.97,3.14 -6.14,5.98 -9.5,8.51 Z"/></g>
<g><path fill="#273f23" fill-opacity="0.988" stroke="#273f23" stroke-width="0.5" stroke-opacity="0.988" d="M 406.01,370.92 c -0.11,0.93 -2.46,2.27 -1.43,3 c 1.53,0.28 2.96,0.82 4.3,1.61 c 2.54,0.79 4.54,0.08 6,-2.11 c -0.12,-0.92 -0.41,-1.78 -0.88,-2.59 c 2.01,0.33 3.91,0.96 5.7,1.9 c 0.48,1.1 1.31,1.44 2.47,1.05 c 7.25,6.77 8.92,11.47 10.4,21.29 c -1.27,3.74 -1.37,6.44 -1.49,10.45 c -0.06,2.04 -1.5,0.91 -1.89,-0.19 c 0.13,-0.65 0.32,-1.27 0.58,-1.87 c -0.83,-0.27 -1.66,-0.23 -2.47,0.11 c 0.93,1.87 0.33,2.88 -1.81,3.06 c -0.53,-1.02 -0.94,-2.11 -1.23,-3.28 c -0.3,-0.62 -0.76,-1.08 -1.38,-1.37 c -0.13,-17.4 -11.31,-26.6 -25.82,-13.47 c -9.13,8.97 -15.2,18.53 -21.45,29.71 c -2.79,-0.69 -3.46,-2.27 -2.01,-4.73 c -1.31,-0.8 -2.67,-1.5 -4.09,-2.1 c -1.37,1.84 -2.32,3.25 -4.79,1.48 c 9.42,-15.04 22.51,-38.14 41.29,-41.95 Z M 776.39,389.08 c -4.23,13.07 -11.22,27.64 -13.2,41.23 c 0.57,1.05 1.86,0.41 2.83,0.58 c -1.89,3.59 -4.08,-0.48 -6.56,0.7 c -0.18,-0.3 -0.18,-0.61 0,-0.93 c 1.54,-2.53 2.03,-5.25 1.48,-8.17 c -0.6,-1.62 -5.49,1.5 -5.64,3.05 c 0.04,2.01 0.76,3.75 2.15,5.2 c 0.59,1.86 -1.76,2.34 -2.98,2.93 c -1.79,-0.04 -3.52,-0.38 -5.19,-1.03 c 0.53,-0.82 0.94,-1.7 1.24,-2.63 c 3.1,-11.62 6.88,-23.92 11.55,-34.98 c 0.51,0.63 1.15,0.89 1.92,0.78 c 2.53,-1.7 4.53,-7.62 5.61,-10.47 c -0.07,-0.36 -0.24,-0.65 -0.53,-0.88 c 0.5,-0.46 1.01,-0.93 1.53,-1.42 c 0.17,-1.09 0.71,-1.39 1.64,-0.92 c 1.07,2.52 2.45,4.85 4.15,6.96 Z M 590.33,387.99 c -0.07,1.34 -0.25,2.66 -0.55,3.97 c -0.5,-1.67 -1.62,-2.47 -3.36,-2.4 c -1.81,0.77 -1.75,1.42 0.19,1.97 c -0.75,1.22 -0.98,2.54 -0.66,3.96 c 0.98,1.2 2.05,-1.21 3.26,-1.23 c -3.66,14.74 -7.11,29.33 -10.01,44.26 c -2.15,15.89 -8.78,51.15 -1.04,64.87 c 0.72,1.07 1.69,1.82 2.88,2.26 c -0.1,0.54 0.08,0.97 0.54,1.29 c 2.53,0.68 2.4,5.68 -0.23,6.52 c 1.04,0.16 1.99,0.54 2.86,1.13 c -12.76,5.89 -18.93,-8.26 -20.97,-18.12 c -3.78,-30.21 5.69,-68.27 12.97,-97.83 c 0.71,-1.84 1.35,-3.7 1.95,-5.57 c 0.62,0.03 1.13,0.29 1.52,0.77 c 0.22,0.7 0.71,2.95 1.7,1.28 c 0.53,-3.01 0.93,-6.01 1.2,-9 c 1.62,-0.94 3.12,-0.79 4.51,0.45 c 1.5,0.87 1.24,2.6 3.24,1.42 Z M 363.62,414.84 c 2.63,-0.34 4.08,0.81 4.33,3.45 c -1.46,2.31 -2.86,4.66 -4.17,7.06 c -1.09,0.47 -2.03,1.13 -2.84,1.97 c -0.56,1.65 -0.91,3.34 -1.04,5.08 c -2.41,2.34 -3.09,-0.69 -3.58,-2.34 c 2.46,-5.06 4.89,-10.13 7.3,-15.22 Z M 1033.07,417.74 c -0.19,1.34 1.39,1.26 2.16,0.77 c 2.43,1.53 3.91,3.72 4.44,6.56 c -0.44,0.55 -0.87,1.12 -1.28,1.71 c -2.35,1.42 -5.47,1.23 -7.41,3.26 c -0.19,-0.62 -0.6,-0.86 -1.23,-0.71 c -3.58,2.26 -6.44,5.22 -8.58,8.88 c -0.74,-0.58 -1.36,-1.28 -1.85,-2.1 c -1.1,-0.12 -2.15,-0.37 -3.16,-0.75 c -1.31,-3.08 -0.98,-3.27 -4.4,-3.61 c 4.66,-6.18 12.5,-16.24 21.31,-14.01 Z M 771.22,441.56 c -1.43,-1.1 -2.95,-2.02 -4.58,-2.75 c -1.08,-1.64 -1.84,-3.41 -2.29,-5.31 c 0.63,-1.22 4.55,0.33 6.21,-1.35 c 1.12,-0.04 2.18,-0.24 3.18,-0.59 c -0.27,-0.61 -0.54,-1.21 -0.82,-1.81 c 4.94,-0.04 29.33,-7.36 28.58,1.78 c -2.14,7.2 -23.84,7.51 -30.28,10.03 Z M 904.84,427.98 c 1.15,-0.05 2.3,-0.13 3.44,-0.24 c 15.66,12.23 11.97,33.22 1.39,47.51 c -1.64,-0.07 -3.27,-0.07 -4.9,-0.01 c -1.34,1.34 -0.94,2.24 -2.26,0.21 c -1.02,0.34 -1.69,-0.01 -2.03,-1.04 c -0.56,0.23 -1.13,0.38 -1.72,0.47 c -0.17,-0.68 -0.17,-1.4 0,-2.16 c -0.14,-0.34 -0.38,-0.58 -0.72,-0.71 c 7.41,-8.74 12.87,-21.39 6.55,-32.27 c -1.46,-2.76 -3.71,-4.53 -6.74,-5.3 c 1.32,-0.79 0.2,-1.37 0.8,-2.31 c 3.5,-1.04 1.59,-4.7 6.19,-4.15 Z M 945.63,428.77 c 0.25,5.05 -1.02,11.71 -1.71,16.8 c -0.03,0.89 0.35,1.21 1.17,0.97 c 0.85,-1.57 1.74,-3.13 2.67,-4.67 c 1.93,0.65 2.48,1.88 1.64,3.7 c 0.53,4.21 4.2,0.43 6.69,3.52 c -0.68,1 -1.32,2.01 -1.95,3.04 c -0.85,-0.46 -1.74,-0.81 -2.67,-1.05 c -0.98,-1.55 -3.96,-3.63 -4.48,-0.54 c 0.38,1.64 0.71,3.3 1,4.96 c -0.01,0.88 -0.43,1.32 -1.27,1.32 c -0.49,-0.6 -0.84,-1.29 -1.04,-2.06 c -1.03,-0.98 -1.93,-2.06 -2.69,-3.25 c -0.97,-0.27 -1.92,-0.31 -2.86,-0.13 c -0.35,-0.57 -0.63,-1.18 -0.83,-1.82 c 0.44,-0.67 0.9,-1.33 1.39,-1.96 c -0.7,-1.31 -0.52,-3.77 -2.15,-4.26 c -0.34,0.9 -0.65,1.83 -0.94,2.77 c -0.73,0.86 -1.45,1.71 -2.16,2.55 c -1.84,0.15 -0.1,-2.84 -2.34,-3.65 c 0.33,-1.99 0.71,-3.98 1.12,-5.96 c 2.39,0.49 1.85,-1.94 2.02,-3.38 c 0.71,-0.21 1.33,-0.56 1.87,-1.04 c 1.25,-4.5 4.38,-3.91 7.52,-5.86 Z M 649.17,443.97 c -1.12,0.16 -2.14,0.58 -3.06,1.24 c -2.16,0 -5.68,0.62 -5.85,3.29 c 0.38,1.24 -0.08,3.78 1.23,4.44 c 2.87,-1.48 4.92,-0.88 7.93,-0.81 c -2.2,10.55 -9.19,21.25 -18.16,27.31 c -1.45,-0.81 -3,-1.32 -4.65,-1.52 c -0.79,-1.21 -1.84,-2.12 -3.14,-2.75 c -0.17,-1.48 0.94,-1.78 -1.19,-2.38 c 3.36,-2.53 6.53,-5.37 9.5,-8.51 c 3.59,-4.69 8.42,-11.09 6.59,-17.34 c -0.25,-1.81 -4.37,-0.05 -5.37,0.38 c -7.99,5.94 -14.21,16.91 -16.89,26.35 c -0.15,1.21 1.28,1.09 2.05,1.02 c -0.2,3.46 -6.37,2.51 -8.54,2.04 c -2.61,-2.29 -3.16,-0.99 -6.05,-1.87 c 3.61,-13.74 11.72,-28.99 23.79,-37.11 c 8.23,-4.93 18.76,-4.12 21.81,6.22 Z M 701.72,439.69 c -0.15,1.38 1.72,1.29 2.58,1.03 c 6.34,4.27 6.63,17.52 -1.81,19.21 c -4.98,-0.39 -1.82,-7.68 -3.29,-8.44 c -2.11,-0.36 -2.59,1.62 -3.86,2.85 c -0.48,-1.5 -1.99,-0.6 -3.1,-1.31 c -1.26,-0.19 -2.91,1.78 -3.78,2.54 c -0.68,-0.46 -1.37,-0.9 -2.08,-1.32 c -1.77,0.39 -3.57,0.64 -5.4,0.74 c 4.34,-6.75 11.47,-16.94 20.74,-15.3 Z M 476.51,452.58 c 11.51,6.81 15.52,13.09 16.5,26.92 c -1.02,13.63 -8.13,24.61 -18.84,32.72 c -5.23,-0.44 -1.15,-1.42 -3.34,-2.37 c -0.87,-0.5 -1.75,-0.98 -2.63,-1.44 c -2.05,-0.47 -4.54,0.02 -1.58,-2.04 c -0.22,-1.18 -1.75,-0.15 -2.52,-0.3 c 0.06,-0.45 0.13,-0.9 0.19,-1.36 c 0.48,0.11 0.92,0.03 1.32,-0.26 c 8.38,-4.21 13.75,-14.04 15.7,-22.89 c 1.32,-6.43 -1.66,-16.16 -8.38,-18.32 c 0.16,-0.53 0.01,-0.96 -0.44,-1.28 c -5.45,-0.1 -1,-2.15 0.38,-3.6 c 1.68,-1.29 1.63,-5.67 3.64,-5.78 Z M 525.37,457.12 c -1.01,6.79 -1.99,13.58 -2.96,20.38 c -0.25,5.67 -0.53,11.34 -0.83,17 c 0.38,4.71 1.42,10.7 3.43,15 c 3.17,4.42 7.42,1.14 10.68,-1.18 c 3.75,-3.27 7.39,-6.66 10.91,-10.16 c 1.28,-0.83 2.64,-1.06 4.09,-0.69 c 0.57,0.06 1.06,-0.1 1.46,-0.49 c 0.13,1.64 0.12,3.28 -0.03,4.94 c -1.04,1.53 -2.03,3.11 -2.96,4.71 c -2.08,2.9 -4.29,5.7 -6.64,8.4 c -3.18,2.55 -6.04,5.73 -9.99,7.1 c -5.28,1.6 -10.12,0.72 -14.51,-2.67 c -1.91,-2.18 -3.55,-4.53 -4.94,-7.06 c -4.56,-11.51 -3.71,-24.63 -2.71,-36.73 c 0.55,-5.3 1.3,-10.57 2.24,-15.82 c 2.64,0.58 0.32,3.7 1.85,4.85 c 1.83,-1.42 -1.03,-3.47 2.84,-3.84 c 1.04,-1.17 2.11,-2.31 3.21,-3.42 c 0.56,1.14 1.25,2.19 2.06,3.16 c 0.9,-1.67 1.56,-3.42 1.98,-5.26 c 0.42,0.52 0.69,1.11 0.82,1.78 Z M 668.68,479.69 c 1.73,0.98 1.97,2.22 0.72,3.72 c 2.46,2.17 0.78,3.49 -0.32,5.8 c -5.2,4.58 -10.82,8.57 -16.86,11.98 c -1.08,-2.23 -4.9,-0.79 -5.87,-5.53 c 1.85,-1.19 2.88,-1.56 2.15,-4.08 c 7.04,-3.44 13.77,-7.4 20.18,-11.89 Z M 424.28,510.09 c -0.82,-0.73 -1.05,-1.59 -0.69,-2.6 c -0.97,-0.79 -2.06,-1.39 -3.27,-1.81 c -2.64,2.34 -1.49,0.37 -3.54,-0.93 c 4.11,-3.25 8.28,-9.59 14.22,-8.2 c -0.18,1.44 -0.18,2.89 0.01,4.35 c -0.78,2.49 -5,6.98 -6.73,9.19 Z M 379.16,541.09 c -5.39,1.19 -10.79,1.22 -16.19,0.08 c 0.09,-0.45 0.31,-0.81 0.68,-1.08 c 2.7,-1.07 2.73,-1.13 4.31,-3.48 c 0.75,-0.27 1.41,-0.68 1.98,-1.23 c 0.36,-1.37 1.23,-2.12 2.61,-2.25 c 0.6,-0.26 4.74,0.19 2.94,1.47 c -1.38,-0.93 -4.61,-0.8 -3.07,1.39 c 1.51,1.17 2.88,2.45 4.12,3.86 c 1.19,-0.16 2.07,0.25 2.62,1.24 Z M 986.83,619.17 c 4.96,-0.51 9.89,-0.26 14.77,0.76 c 0.48,-0.05 0.75,-0.31 0.79,-0.77 c 1.4,-0.93 2.69,0.68 1.09,1.84 c -1.86,0.45 -2.44,-0.3 -2.45,2.06 c -0.74,0.88 -1.67,1.44 -2.8,1.67 c -0.69,1.95 -1.42,3.87 -2.19,5.77 c -1.8,0.36 -3.63,0.53 -5.48,0.49 c -0.36,0.19 -0.53,0.48 -0.54,0.87 c -1.01,-0.16 -2.02,-0.33 -3.03,-0.5 c 0.13,-0.57 -0.03,-1.03 -0.49,-1.39 c -1.45,0.01 -2.85,-0.11 -4.22,-0.35 c 1.12,-3.13 3.69,-4.73 5.51,-7.36 c -0.09,-1.09 -0.41,-2.12 -0.96,-3.09 Z"/></g>
<g><path fill="#060c05" fill-opacity="0.012" stroke="#060c05" stroke-width="0.5" stroke-opacity="0.012" d="M 1094.7,420.19 c 0.93,2.43 -1.22,7.02 -2.67,9.03 c -3.9,6.15 -8.59,11.62 -14.1,16.4 c -0.91,0.14 -1.64,0.56 -2.17,1.27 c -1.47,1.39 -3.17,2.31 -5.11,2.75 c -2.2,-0.91 2.06,-8.24 2.74,-9.69 c 2.95,-5.63 6.62,-10.73 11.02,-15.31 c 2.15,-2.3 4.7,-4.03 7.64,-5.17 c 1.1,-0.53 1.98,-0.29 2.65,0.72 Z"/></g>
<g><path fill="#2d4329" fill-opacity="0.988" stroke="#2d4329" stroke-width="0.5" stroke-opacity="0.988" d="M 1092.03,429.22 c 2.14,-0.28 4.27,-0.36 6.41,-0.23 c 1.45,1.76 -1.02,6 3.2,5.25 c -3.87,7.94 -13.14,17.94 -20.61,22.8 c -0.02,-0.46 -0.24,-0.77 -0.67,-0.94 c -3.01,0.15 -2.49,-2.42 -2.44,-4.6 c 0.59,-0.67 1.18,-1.34 1.78,-2 c -0.56,-0.73 -1.13,-1.44 -1.7,-2.14 c -0.03,-0.58 -0.05,-1.16 -0.07,-1.74 c 5.51,-4.78 10.2,-10.25 14.1,-16.4 Z"/></g>
<g><path fill="#1a3519" fill-opacity="0.992" stroke="#1a3519" stroke-width="0.5" stroke-opacity="0.992" d="M 942.44,474.05 c -2.96,5.4 -4.36,18.94 -12.82,17.58 c -10.63,-2.79 -1.3,-18.76 -0.92,-25.78 c 0.85,0.48 1.75,0.81 2.7,1.01 c 2.03,-0.85 3.74,-2.13 5.14,-3.85 c -0.09,-0.55 -0.3,-1.08 -0.65,-1.58 c 0.45,-0.57 1.02,-1.02 1.7,-1.35 c 0.78,-1.41 1.77,-2.65 3,-3.71 c 0.69,0.46 1.04,1.11 1.05,1.95 c -1,3.01 -2.92,4.84 -2.66,8.21 c -0.22,1.89 0.69,1 1.63,0.64 c 0.5,0.7 0.86,1.48 1.06,2.35 c -0.98,1.73 -0.73,3.24 0.77,4.53 Z"/></g>
<g><path fill="#3f5338" fill-opacity="0.98" stroke="#3f5338" stroke-width="0.5" stroke-opacity="0.98" d="M 1103.29,412.7 c 4.76,6.77 1.51,14.88 -1.65,21.54 c -4.22,0.75 -1.75,-3.49 -3.2,-5.25 c -2.14,-0.13 -4.27,-0.05 -6.41,0.23 c 1.45,-2.01 3.6,-6.6 2.67,-9.03 c 1.09,-1.64 -1.2,-2.9 -0.3,-4.93 c 1.95,2.63 3.59,4.08 5.5,0.43 c 0.84,-0.39 1.57,0.58 2.11,-0.34 c -0.15,-1.8 -2.06,-2.39 1.28,-2.65 Z M 945.63,428.77 c -3.14,1.95 -6.27,1.36 -7.52,5.86 c -0.54,0.48 -1.16,0.83 -1.87,1.04 c -0.17,1.44 0.37,3.87 -2.02,3.38 c 0.4,-3.37 0.76,-6.74 1.07,-10.12 c 1.35,-6.48 9.18,-8.23 10.34,-0.16 Z"/></g>
<g><path fill="#30462c" fill-opacity="0.984" stroke="#30462c" stroke-width="0.5" stroke-opacity="0.984" d="M 1103.29,412.7 c -3.34,0.26 -1.43,0.85 -1.28,2.65 c -0.54,0.92 -1.27,-0.05 -2.11,0.34 c -1.91,3.65 -3.55,2.2 -5.5,-0.43 c -0.9,2.03 1.39,3.29 0.3,4.93 c -0.67,-1.01 -1.55,-1.25 -2.65,-0.72 c -2.94,1.14 -5.49,2.87 -7.64,5.17 c -1.98,-0.35 -2.86,1.07 -4.4,-1.17 c 0.33,-0.93 0.57,-1.87 0.73,-2.82 c -1.46,-3.95 -4.67,3.36 -6.81,1.96 c -0.34,-0.53 -0.65,-1.08 -0.92,-1.65 c 5.57,-7.87 22.83,-19.35 30.28,-8.26 Z M 343.32,465.15 c 1.66,-5.47 3.39,-10.91 5.19,-16.32 c 4.42,-1.52 2.27,-0.27 3.33,2.51 c -2.19,3.73 -1.74,6.49 -4.66,10.3 c 0.1,0.71 0.35,1.36 0.76,1.95 c 0.07,1.36 -0.41,2.52 -1.41,3.46 c -1.94,2.38 -2.57,2.13 -1.88,-0.76 c -0.15,-0.72 -0.59,-1.11 -1.33,-1.14 Z"/></g>
<g><path fill="#284424" fill-opacity="0.996" stroke="#284424" stroke-width="0.5" stroke-opacity="0.996" d="M 601.77,484.02 c 2.73,-0.57 3.5,0.88 5.86,1.43 c 1.32,-0.02 2.61,0.14 3.87,0.5 c 0.46,0.39 0.75,0.88 0.86,1.47 c 0.26,2.12 0.7,4.19 1.32,6.23 c 0.12,0.38 0.03,0.68 -0.28,0.9 c -1.32,-0.04 -2.64,0.06 -3.95,0.32 c -0.76,-0.06 -1.46,-0.29 -2.12,-0.68 c -2.16,0.95 -2.83,0.74 -4.56,-1.14 c -0.7,-2.97 -1.03,-5.98 -1,-9.03 Z"/></g>
<g><path fill="#395135" fill-opacity="0.941" d="M 776.39,389.08 c -1.7,-2.11 -3.08,-4.44 -4.15,-6.96 c -0.93,-0.47 -1.47,-0.17 -1.64,0.92 c -0.52,0.49 -1.03,0.96 -1.53,1.42 c 0.29,0.23 0.46,0.52 0.53,0.88 c -1.08,2.85 -3.08,8.77 -5.61,10.47 c -0.77,0.11 -1.41,-0.15 -1.92,-0.78 c 1.3,-3.77 2.79,-7.46 4.48,-11.07 c 4.06,-7.82 12.78,-4.45 9.84,5.12 Z"/></g>
<g><path fill="#3c5135" fill-opacity="0.98" d="M 878.92,434.69 c 1.43,0.73 2.02,1.9 1.78,3.53 c -1.2,1.23 -2.24,2.58 -3.14,4.05 c -0.66,1.06 -0.37,1.72 0.86,1.99 c 1.09,-0.69 1.97,-1.59 2.63,-2.71 c 0.74,-0.86 2.51,0.98 2.46,1.87 c 0.13,2.16 -0.82,3.5 -2.86,4 c -2.19,-0.36 -4.31,-0.17 -6.38,0.58 c -1.26,0.26 -1.47,-1.39 -1.81,-2.21 c 2,-3.82 4.15,-7.52 6.46,-11.1 Z"/></g>
<g><path fill="#44583f" fill-opacity="0.941" d="M 590.33,387.99 c -2,1.18 -1.74,-0.55 -3.24,-1.42 c -1.39,-1.24 -2.89,-1.39 -4.51,-0.45 c -0.27,2.99 -0.67,5.99 -1.2,9 c -0.99,1.67 -1.48,-0.58 -1.7,-1.28 c -0.39,-0.48 -0.9,-0.74 -1.52,-0.77 c 0.62,-3.43 1.92,-6.57 3.91,-9.4 c 4.01,-3.9 8.41,-0.69 8.26,4.32 Z"/></g>
<g><path fill="#384d31" fill-opacity="0.98" stroke="#384d31" stroke-width="0.5" stroke-opacity="0.98" d="M 414,370.83 c 0.47,0.81 0.76,1.67 0.88,2.59 c -1.46,2.19 -3.46,2.9 -6,2.11 c -1.34,-0.79 -2.77,-1.33 -4.3,-1.61 c -1.03,-0.73 1.32,-2.07 1.43,-3 c 2.66,-0.46 5.32,-0.49 7.99,-0.09 Z"/></g>
<g><path fill="#364d35" fill-opacity="0.973" d="M 540.54,384.84 c -0.85,0.89 -1.58,1.86 -2.2,2.91 c -0.36,-0.5 -0.71,-1.02 -1.05,-1.57 c -2.9,-0.32 -1.46,4.22 -3.59,3.54 c -0.97,-1.17 -1.74,-2.48 -2.31,-3.92 c 1.88,-3.82 6.94,-5.46 9.15,-0.96 Z"/></g>
<g><path fill="#41563d" fill-opacity="0.957" stroke="#41563d" stroke-width="0.5" stroke-opacity="0.957" d="M 1145.21,466.66 c -2.44,-0.58 -2.15,-2.13 -2.81,-4.09 c 0.31,-0.89 0.49,-1.81 0.56,-2.75 c 1.61,-0.8 3.17,-0.78 4.7,0.07 c 1.94,2.83 0.03,5.19 -2.45,6.77 Z"/></g>
<g><path fill="#4f6343" fill-opacity="0.694" d="M 1069.95,471.99 c 0.69,0.67 1.38,1.34 2.08,2.01 c -1.38,0.08 -2.08,-0.59 -2.08,-2.01 Z M 1073.97,474.93 c 2.44,0.95 4.95,1.59 7.53,1.92 c 2.66,0.02 5.32,0 7.98,-0.05 c 1.79,-0.4 3.59,-0.77 5.4,-1.11 c 0.41,1.31 -1.75,0.84 -2.4,1.14 c -0.54,0.54 -1.17,0.89 -1.89,1.06 c -3.71,-0.01 -7.42,0.02 -11.13,0.09 c -1.23,-0.48 -2.49,-0.87 -3.79,-1.18 c -0.82,-0.41 -1.38,-1.03 -1.7,-1.87 Z"/></g>
<g><path fill="#3e5539" fill-opacity="0.965" d="M 952.92,583.76 c -0.01,0.41 -0.03,0.83 -0.05,1.25 c -3.79,-0.15 1.46,3.45 -4.44,2.77 c -1.14,0.65 -1.06,2.45 -2.73,2.25 c -0.81,-5.46 2.61,-6.71 7.22,-6.27 Z"/></g>
<g><path fill="#0b2109" fill-opacity="0.725" d="M 795.01,629.14 c -4.99,0.56 -10,0.88 -15.02,0.95 c -0.06,-0.46 0.13,-0.81 0.55,-1.02 c 2.01,-0.08 3.99,-0.35 5.94,-0.82 c 1.75,0.47 7.71,-0.89 8.53,0.89 Z"/></g>
<g><path fill="#385735" fill-opacity="0.98" d="M 338.87,485.94 c 0.11,-0.64 0.22,-1.28 0.34,-1.92 c 1.11,-0.68 2.24,-1.3 3.4,-1.86 c 0.96,-0.14 1.36,0.26 1.21,1.2 c -0.93,1.37 -1.83,2.72 -2.71,4.07 c -1.05,0.51 -1,-1.36 -2.24,-1.49 Z"/></g>
<g><path fill="#233c20" fill-opacity="0.992" stroke="#233c20" stroke-width="0.5" stroke-opacity="0.992" d="M 540.54,384.84 c 2.04,6.3 -6.8,30.54 -8.02,38.45 c -2.37,11.28 -4.75,22.56 -7.15,33.83 c -0.13,-0.67 -0.4,-1.26 -0.82,-1.78 c -0.42,1.84 -1.08,3.59 -1.98,5.26 c -0.81,-0.97 -1.5,-2.02 -2.06,-3.16 c -1.1,1.11 -2.17,2.25 -3.21,3.42 c -3.87,0.37 -1.01,2.42 -2.84,3.84 c -1.53,-1.15 0.79,-4.27 -1.85,-4.85 c 4.88,-24.63 9.38,-50.71 18.78,-74.05 c 0.57,1.44 1.34,2.75 2.31,3.92 c 2.13,0.68 0.69,-3.86 3.59,-3.54 c 0.34,0.55 0.69,1.07 1.05,1.57 c 0.62,-1.05 1.35,-2.02 2.2,-2.91 Z M 432.57,395.07 c -0.22,6.03 3.1,18.02 -4.51,20.64 c -8.31,0.89 -5.34,-8.76 -5.18,-13.73 c 0.62,0.29 1.08,0.75 1.38,1.37 c 0.29,1.17 0.7,2.26 1.23,3.28 c 2.14,-0.18 2.74,-1.19 1.81,-3.06 c 0.81,-0.34 1.64,-0.38 2.47,-0.11 c -0.26,0.6 -0.45,1.22 -0.58,1.87 c 0.39,1.1 1.83,2.23 1.89,0.19 c 0.12,-4.01 0.22,-6.71 1.49,-10.45 Z M 375.61,418.22 c -13.5,24.62 -32.07,71.44 -23.12,98.8 c 1.36,4.03 3.75,7.27 7.19,9.71 c 0.54,1.19 1.45,1.54 2.72,1.06 c 1.73,1.09 3.61,1.76 5.64,2.04 c 0.04,0.85 0.51,1.25 1.41,1.18 c 0.97,-0.19 4.58,0.62 4.57,-1.05 c 1.68,-0.21 3.33,-0.53 4.97,-0.97 c 0.18,0.81 0.68,1.24 1.52,1.3 c 1.67,-0.12 3.29,-0.45 4.86,-0.98 c 0.79,1.14 1.67,2.22 2.64,3.23 c 1.11,0.55 2.22,1.1 3.33,1.65 c 0.55,0.85 -0.47,1.32 0.75,2.12 c -4.05,2.31 -8.36,3.91 -12.93,4.78 c -0.55,-0.99 -1.43,-1.4 -2.62,-1.24 c -1.24,-1.41 -2.61,-2.69 -4.12,-3.86 c -1.54,-2.19 1.69,-2.32 3.07,-1.39 c 1.8,-1.28 -2.34,-1.73 -2.94,-1.47 c -1.38,0.13 -2.25,0.88 -2.61,2.25 c -0.57,0.55 -1.23,0.96 -1.98,1.23 c -1.58,2.35 -1.61,2.41 -4.31,3.48 c -0.37,0.27 -0.59,0.63 -0.68,1.08 c -25.64,-5.63 -27.45,-33.84 -24.1,-55.23 c 1.24,0.13 1.19,2 2.24,1.49 c 0.88,-1.35 1.78,-2.7 2.71,-4.07 c 0.15,-0.94 -0.25,-1.34 -1.21,-1.2 c -1.16,0.56 -2.29,1.18 -3.4,1.86 c 1.13,-6.34 2.5,-12.63 4.11,-18.87 c 0.74,0.03 1.18,0.42 1.33,1.14 c -0.69,2.89 -0.06,3.14 1.88,0.76 c 1,-0.94 1.48,-2.1 1.41,-3.46 c -0.41,-0.59 -0.66,-1.24 -0.76,-1.95 c 2.92,-3.81 2.47,-6.57 4.66,-10.3 c -1.06,-2.78 1.09,-4.03 -3.33,-2.51 c 2.34,-6.37 4.94,-12.63 7.81,-18.77 c 0.49,1.65 1.17,4.68 3.58,2.34 c 0.13,-1.74 0.48,-3.43 1.04,-5.08 c 0.81,-0.84 1.75,-1.5 2.84,-1.97 c 1.31,-2.4 2.71,-4.75 4.17,-7.06 c -0.25,-2.64 -1.7,-3.79 -4.33,-3.45 c 0.36,-0.66 0.72,-1.32 1.1,-1.97 c 2.47,1.77 3.42,0.36 4.79,-1.48 c 1.42,0.6 2.78,1.3 4.09,2.1 c -1.45,2.46 -0.78,4.04 2.01,4.73 Z M 1084.41,424.64 c -4.4,4.58 -8.07,9.68 -11.02,15.31 c -0.68,1.45 -4.94,8.78 -2.74,9.69 c 1.94,-0.44 3.64,-1.36 5.11,-2.75 c 0.76,0.1 1.5,0.26 2.24,0.47 c 0.57,0.7 1.14,1.41 1.7,2.14 c -0.6,0.66 -1.19,1.33 -1.78,2 c -0.05,2.18 -0.57,4.75 2.44,4.6 c 0.43,0.17 0.65,0.48 0.67,0.94 c -3.63,2.68 -7.69,4.15 -12.18,4.41 c -0.98,0.99 -1.22,3.64 -1.39,5.05 c 0.41,2.01 1.24,3.84 2.49,5.49 c 0,1.42 0.7,2.09 2.08,2.01 c 0.4,0.73 1.05,1.04 1.94,0.93 c 0.32,0.84 0.88,1.46 1.7,1.87 c 1.3,0.31 2.56,0.7 3.79,1.18 c 3.71,-0.07 7.42,-0.1 11.13,-0.09 c 0.72,-0.17 1.35,-0.52 1.89,-1.06 c 0.65,-0.3 2.81,0.17 2.4,-1.14 c 1.24,-0.43 2.5,-0.73 3.79,-0.91 c 2.13,0.21 5.66,0.71 6.51,-1.94 c 0.66,0 1.33,-0.06 1.98,-0.18 c 11.85,-3.49 24.2,-9.39 35.8,-12.84 c -0.07,0.94 -0.25,1.86 -0.56,2.75 c 0.66,1.96 0.37,3.51 2.81,4.09 c -19.86,12.46 -64.23,34.63 -84.27,13.9 c -1.75,-2.27 -3.26,-4.68 -4.53,-7.21 c -4.4,1.88 -10.74,6.86 -15.48,9.1 c -13.5,6.88 -34.09,11.99 -41.62,-6.12 c -4.41,-15.64 4.64,-31.57 12.45,-44.58 c 3.42,0.34 3.09,0.53 4.4,3.61 c 1.01,0.38 2.06,0.63 3.16,0.75 c 0.49,0.82 1.11,1.52 1.85,2.1 c -5.14,7.33 -17.09,31.23 -7.15,37.67 c 0.41,1.15 1.2,1.83 2.39,2.02 c 1.42,-0.22 7.28,1.04 7.48,-1.14 c 5.51,-1.27 10.76,-3.22 15.75,-5.85 c 0.91,0.14 2.64,0.18 2.56,-1.18 c 3.9,-2.5 12.86,-4.58 13.24,-10.02 c 0.5,-13.95 8.57,-28.38 17.57,-38.75 c 0.27,0.57 0.58,1.12 0.92,1.65 c 2.14,1.4 5.35,-5.91 6.81,-1.96 c -0.16,0.95 -0.4,1.89 -0.73,2.82 c 1.54,2.24 2.42,0.82 4.4,1.17 Z M 903.2,425.43 c -0.44,2.12 2.03,0.83 1.64,2.55 c -4.6,-0.55 -2.69,3.11 -6.19,4.15 c -0.6,0.94 0.52,1.52 -0.8,2.31 c -12.22,-3.31 -24.09,36.6 -21.05,45.54 c 0.39,1.07 1.13,1.71 2.24,1.93 c 0.2,2.15 5.57,1.07 6.87,0.43 c 0.36,-0.5 0.69,-1.02 0.99,-1.57 c 0.49,-0.59 1.1,-0.86 1.85,-0.81 c 0.72,-0.13 1.21,-0.53 1.49,-1.2 c 2.89,-1.9 5.49,-4.15 7.8,-6.75 c 0.34,0.13 0.58,0.37 0.72,0.71 c -0.17,0.76 -0.17,1.48 0,2.16 c 0.59,-0.09 1.16,-0.24 1.72,-0.47 c 0.34,1.03 1.01,1.38 2.03,1.04 c 1.32,2.03 0.92,1.13 2.26,-0.21 c 1.63,-0.06 3.26,-0.06 4.9,0.01 c -8.58,11.67 -23.33,24.6 -38.6,16.22 c -13.36,-11.44 -4.36,-32.56 1.39,-45.68 c 0.34,0.82 0.55,2.47 1.81,2.21 c 2.07,-0.75 4.19,-0.94 6.38,-0.58 c 2.04,-0.5 2.99,-1.84 2.86,-4 c 0.05,-0.89 -1.72,-2.73 -2.46,-1.87 c -0.66,1.12 -1.54,2.02 -2.63,2.71 c -1.23,-0.27 -1.52,-0.93 -0.86,-1.99 c 0.9,-1.47 1.94,-2.82 3.14,-4.05 c 0.24,-1.63 -0.35,-2.8 -1.78,-3.53 c 0.81,-7.48 8.64,-13.22 15.65,-14.32 c 4.85,-0.38 6.13,1.51 8.63,5.06 Z M 984.02,481.6 c 0.07,1.28 1.69,0.89 2.51,1.41 c 0.89,0.75 1.13,3.02 2.51,3.03 c -2.64,5.79 -9.57,7.18 -14.08,2.56 c -11,-16.03 2.73,-37.97 -3.18,-53.86 c -3.58,-2.91 -13.91,11.68 -15.69,14.35 c -2.49,-3.09 -6.16,0.69 -6.69,-3.52 c 0.84,-1.82 0.29,-3.05 -1.64,-3.7 c 1.22,-2.25 2.64,-4.35 4.28,-6.32 c 11.22,-14.39 30.75,-20.91 32.93,3.95 c 1.27,6.1 -5.34,40.13 -0.95,42.1 Z M 954.14,452.13 c -4.19,7.15 -8.08,14.46 -11.7,21.92 c -1.5,-1.29 -1.75,-2.8 -0.77,-4.53 c -0.2,-0.87 -0.56,-1.65 -1.06,-2.35 c -0.94,0.36 -1.85,1.25 -1.63,-0.64 c -0.26,-3.37 1.66,-5.2 2.66,-8.21 c -0.01,-0.84 -0.36,-1.49 -1.05,-1.95 c -1.23,1.06 -2.22,2.3 -3,3.71 c -0.68,0.33 -1.25,0.78 -1.7,1.35 c 0.35,0.5 0.56,1.03 0.65,1.58 c -1.4,1.72 -3.11,3 -5.14,3.85 c -0.95,-0.2 -1.85,-0.53 -2.7,-1.01 c 1.89,-6.86 3.35,-13.8 4.4,-20.84 c 2.24,0.81 0.5,3.8 2.34,3.65 c 0.71,-0.84 1.43,-1.69 2.16,-2.55 c 0.29,-0.94 0.6,-1.87 0.94,-2.77 c 1.63,0.49 1.45,2.95 2.15,4.26 c -0.49,0.63 -0.95,1.29 -1.39,1.96 c 0.2,0.64 0.48,1.25 0.83,1.82 c 0.94,-0.18 1.89,-0.14 2.86,0.13 c 0.76,1.19 1.66,2.27 2.69,3.25 c 0.2,0.77 0.55,1.46 1.04,2.06 c 0.84,0 1.26,-0.44 1.27,-1.32 c -0.29,-1.66 -0.62,-3.32 -1,-4.96 c 0.52,-3.09 3.5,-1.01 4.48,0.54 c 0.93,0.24 1.82,0.59 2.67,1.05 Z M 734.09,467.68 c 0.25,-0.01 0.49,-0.02 0.74,-0.02 c 1.62,0.37 1.91,0.67 2.79,2.06 c 0.86,0.23 1.45,-0.05 1.76,-0.85 c 3.29,2.99 -8.59,13.13 -10.47,15.51 c -4.87,3.63 -10.45,8.92 -15.77,11.66 c -0.96,-1.65 -2.39,-1.38 -2.89,-3.7 c 0.47,-0.87 0.98,-1.73 1.51,-2.57 c -1.35,-1.58 -1.96,-0.83 -0.15,-2.27 c -0.23,-0.65 -0.5,-1.28 -0.8,-1.9 c 3.22,-2.21 6.48,-4.38 9.76,-6.51 c 4.04,-3.39 8.05,-6.74 12.05,-10.06 c 0.78,-0.14 1.27,-0.59 1.47,-1.35 Z M 952.87,585.01 c 0.77,-0.03 1.53,-0.12 2.29,-0.25 c 10.13,5.24 21.22,8.21 31.56,13.02 c 0.45,1.04 1.24,1.4 2.37,1.07 c 0.3,0.06 0.61,0.12 0.92,0.18 c -0.28,0.78 -0.82,1.29 -1.64,1.53 c 1.47,0.56 2.89,1.2 4.28,1.92 c -2.63,1.78 -3.79,3.03 -7.19,1.9 c -0.03,1.99 0.02,4.03 0.16,6.1 c -0.13,0.33 -0.35,0.56 -0.67,0.71 c -6.58,-3.29 -38.03,-14.92 -39.25,-21.16 c 1.67,0.2 1.59,-1.6 2.73,-2.25 c 5.9,0.68 0.65,-2.92 4.44,-2.77 Z M 869.08,613.48 c 1.04,0.17 2.02,0.5 2.94,1 c 0.46,1.15 1.04,2.23 1.73,3.24 c 2.98,1.08 2.9,-0.19 4.95,-1.5 c 1,0.05 2.05,1.95 3.05,2.49 c -0.17,1.05 -0.33,2.09 -0.48,3.1 c -1.82,1.88 -2.43,1.07 -4.62,0.65 c -0.93,-0.04 -3.54,1.05 -1.85,2.09 c 4.18,0.19 8.35,0.22 12.54,0.09 c 0.6,-0.43 0.61,-0.88 0.02,-1.35 c -0.73,0.04 -1.43,0.21 -2.1,0.53 c -5.28,-0.74 -0.72,-6.99 2.22,-5.25 c -0.34,-1.72 1.01,-3.46 1.96,-1.02 c 1.34,-0.65 2.69,-0.65 4.07,0.01 c 1.8,-0.94 2.96,-0.15 4.17,1.22 c 0.96,0.33 7.33,-0.5 5.54,-2.56 c -2.35,-0.48 -3.68,1 -5.94,-0.75 c 2.37,-0.37 4.77,-0.52 7.2,-0.45 c 0.46,-0.26 0.64,-0.64 0.53,-1.15 c 3.33,-0.17 13.13,0.91 15.68,-0.12 c 0.28,0.85 0.87,1.27 1.78,1.26 c 3.64,0.01 7.28,-0.05 10.91,-0.18 c 1.87,0.04 3.73,0.1 5.59,0.19 c 0.21,0.73 0.7,1.07 1.49,1.03 c 3.36,-0.21 6.72,-0.21 10.08,0 c 0.59,-0.04 1.07,-0.28 1.45,-0.73 c 3.2,0.52 8.83,1.12 11.84,0.33 c 0.12,1.69 2.29,1.43 3.44,1.26 c 4.11,-0.04 8.21,-0.13 12.31,-0.26 c 0.5,2.46 5.55,1.42 7.34,1.33 c -0.03,0.4 -0.06,0.79 -0.09,1.19 c 0.55,0.97 0.87,2 0.96,3.09 c -1.82,2.63 -4.39,4.23 -5.51,7.36 c 1.37,0.24 2.77,0.36 4.22,0.35 c 0.46,0.36 0.62,0.82 0.49,1.39 c -64,-5.62 -127.83,-6.01 -191.98,-2.22 c -0.82,-1.78 -6.78,-0.42 -8.53,-0.89 c -1.95,0.47 -3.93,0.74 -5.94,0.82 c -0.42,0.21 -0.61,0.56 -0.55,1.02 c -60.41,3.81 -119.79,11.31 -178.99,23.95 c 0.12,-0.49 -0.06,-0.8 -0.54,-0.95 c -2.63,0.09 -5.21,0.51 -7.73,1.27 c -0.36,0.34 -0.52,0.75 -0.49,1.23 c -22.71,4.48 -44.55,10.93 -66.88,17.01 c -16.12,4.92 -31.74,10.9 -47.39,16.81 c -5.58,1.7 -12.82,9.98 -17.53,2.73 c -3.06,-9.36 17.13,-13.95 22.85,-17.53 c 89.74,-35.26 189.03,-48.08 284.53,-57 c 1.23,0.58 5.51,2.43 5.21,-0.48 c 31.86,-1.67 64.15,-3.48 96.05,-3.65 Z"/></g>
<g><path fill="#465939" fill-opacity="0.388" stroke="#465939" stroke-width="0.5" stroke-opacity="0.388" d="M 979.58,616.65 c 1.95,0.4 3.9,0.44 5.86,0.1 c 0.57,0.26 1.96,0.17 1.48,1.23 c -1.79,0.09 -6.84,1.13 -7.34,-1.33 Z M 996.02,616.94 c 1.79,-0.1 5.25,0.82 6.37,2.22 c -0.04,0.46 -0.31,0.72 -0.79,0.77 c -4.88,-1.02 -9.81,-1.27 -14.77,-0.76 c 0.03,-0.4 0.06,-0.79 0.09,-1.19 c 2.88,-0.16 5.76,-0.18 8.66,-0.06 c 0.51,-0.15 0.65,-0.48 0.44,-0.98 Z"/></g>
<g><path fill="#495e40" fill-opacity="0.976" d="M 589.78,391.96 c -0.18,0.77 -0.37,1.53 -0.57,2.3 c -1.21,0.02 -2.28,2.43 -3.26,1.23 c -0.32,-1.42 -0.09,-2.74 0.66,-3.96 c -1.94,-0.55 -2,-1.2 -0.19,-1.97 c 1.74,-0.07 2.86,0.73 3.36,2.4 Z"/></g>
<g><path fill="#455838" fill-opacity="0.635" d="M 938.97,615.02 c 3.51,-0.03 7.02,-0.08 10.53,-0.17 c 0.86,-0.01 1.69,0.14 2.49,0.47 c -0.38,0.45 -0.86,0.69 -1.45,0.73 c -3.36,-0.21 -6.72,-0.21 -10.08,0 c -0.79,0.04 -1.28,-0.3 -1.49,-1.03 Z"/></g>
<g><path fill="#4e5d46" fill-opacity="0.831" d="M 989.04,486.04 c -1.38,-0.01 -1.62,-2.28 -2.51,-3.03 c -0.82,-0.52 -2.44,-0.13 -2.51,-1.41 c 0.84,-0.02 1.67,-0.12 2.49,-0.29 c 2.67,-0.01 3.12,2.63 2.53,4.73 Z"/></g>
<g><path fill="#071b03" fill-opacity="0.812" d="M 601,654.04 c -2.88,0.7 -5.81,1.22 -8.76,1.55 c -0.03,-0.48 0.13,-0.89 0.49,-1.23 c 2.52,-0.76 5.1,-1.18 7.73,-1.27 c 0.48,0.15 0.66,0.46 0.54,0.95 Z"/></g>
<g><path fill="#3d5234" fill-opacity="0.506" d="M 920.69,613.75 c 3.62,0.27 7.23,0.28 10.84,0.02 c 0.82,0.03 1.43,0.38 1.85,1.06 c -3.63,0.13 -7.27,0.19 -10.91,0.18 c -0.91,0.01 -1.5,-0.41 -1.78,-1.26 Z"/></g>
<g><path fill="#3c5033" fill-opacity="0.667" d="M 745.97,434.83 c 0.19,2.27 -7.07,2.28 -8.19,1.68 c 2.66,-0.91 5.38,-1.47 8.19,-1.68 Z"/></g>
<g><path fill="#20391d" fill-opacity="0.992" stroke="#20391d" stroke-width="0.5" stroke-opacity="0.992" d="M 766.02,430.89 c 0.55,-0.06 1.09,-0.09 1.64,-0.1 c 1.19,0.4 2.04,0.07 2.56,-1 c 0.9,0.21 1.8,0.2 2.7,-0.04 c 0.28,0.6 0.55,1.2 0.82,1.81 c -1,0.35 -2.06,0.55 -3.18,0.59 c -1.66,1.68 -5.58,0.13 -6.21,1.35 c 0.45,1.9 1.21,3.67 2.29,5.31 c 1.63,0.73 3.15,1.65 4.58,2.75 c -2.41,0.97 -10.17,1.52 -11.57,3.5 c -2.88,9.43 -10.81,47.69 0.35,53.88 c 0.39,0.95 1.09,1.24 2.11,0.88 c -0.79,1.9 6.01,1.67 5.73,-0.12 c 0.89,-0.47 1.82,-0.66 2.79,-0.58 c 1.15,0.09 1.98,-0.36 2.49,-1.34 c 5.15,-2.58 10.02,-5.61 14.61,-9.09 c -0.09,2.92 -0.09,6.76 3.75,7.54 c -8.77,10.26 -22.42,20.25 -36.44,14.15 c -17.79,-9.71 -13.36,-33.17 -11.64,-49.69 c 0.93,-4.37 1.78,-8.75 2.56,-13.13 c -1.67,-3.24 -14.14,4.14 -18.44,-1.15 c 1.85,0.34 3.18,-0.3 3.98,-1.93 c 0.23,0.39 0.56,0.68 0.98,0.85 c 0.64,-0.5 1.33,-0.92 2.06,-1.25 c 0.93,0.66 1.88,1.28 2.87,1.88 c 4.25,0.04 2.91,-3.8 2.77,-6.41 c -1.12,-0.46 -2.29,-0.7 -3.51,-0.7 c -0.37,-0.51 -0.58,-1.08 -0.61,-1.72 c 0.58,-0.19 1.15,-0.4 1.72,-0.62 c 1.12,0.6 8.38,0.59 8.19,-1.68 c 1.45,-0.2 2.55,-0.93 3.31,-2.19 c 1.67,0.65 3.4,0.99 5.19,1.03 c 1.22,-0.59 3.57,-1.07 2.98,-2.93 c -1.39,-1.45 -2.11,-3.19 -2.15,-5.2 c 0.15,-1.55 5.04,-4.67 5.64,-3.05 c 0.55,2.92 0.06,5.64 -1.48,8.17 c -0.18,0.32 -0.18,0.63 0,0.93 c 2.48,-1.18 4.67,2.89 6.56,-0.7 Z M 476.51,452.58 c -2.01,0.11 -1.96,4.49 -3.64,5.78 c -1.38,1.45 -5.83,3.5 -0.38,3.6 c 0.45,0.32 0.6,0.75 0.44,1.28 c -7.69,-2.77 -11.36,12.31 -14.21,17.05 c -1.65,5.69 -8.92,23.33 -0.72,26.23 c 1.58,-0.09 3.16,-0.29 4.73,-0.6 c 0.45,0.05 0.91,0.1 1.37,0.15 c 0.77,0.15 2.3,-0.88 2.52,0.3 c -2.96,2.06 -0.47,1.57 1.58,2.04 c 0.88,0.46 1.76,0.94 2.63,1.44 c 2.19,0.95 -1.89,1.93 3.34,2.37 c -10.88,8.95 -28.01,8.17 -31.08,-7.74 c -2.1,-14.06 4.28,-27.86 10.91,-39.87 c 1.62,-9.28 14.38,-22.07 22.51,-12.03 Z M 695.34,454.34 c -6.06,6.1 -20.02,33.68 -8.28,38.5 c -0.06,0.41 0.1,0.72 0.49,0.91 c 0.85,0.24 8.41,1.01 7.38,-0.92 c 5.53,-1.88 10.83,-4.29 15.88,-7.23 c 0.3,0.62 0.57,1.25 0.8,1.9 c -1.81,1.44 -1.2,0.69 0.15,2.27 c -0.53,0.84 -1.04,1.7 -1.51,2.57 c 0.5,2.32 1.93,2.05 2.89,3.7 c -4.36,2.89 -11.8,7.44 -17.06,7.67 c 0.02,-1.72 -4.71,0.03 -5.62,0.06 c -1.64,-0.22 -3.28,-0.43 -4.92,-0.63 c -0.48,0.18 -0.66,0.51 -0.54,1 c -5.28,-1.09 -9.31,-3.93 -12.09,-8.54 c -0.98,-1.81 -1.72,-3.69 -2.23,-5.67 c -0.5,-0.31 -1.03,-0.55 -1.6,-0.72 c 1.1,-2.31 2.78,-3.63 0.32,-5.8 c 1.25,-1.5 1.01,-2.74 -0.72,-3.72 c 2,-1.48 3.3,-3.43 3.93,-5.83 c 0.15,1.3 0.77,2.29 1.88,2.96 c 2.8,-2.39 2.44,-1.73 1.7,-5.15 c 0.7,-0.94 0.99,-1.99 0.89,-3.13 c -0.18,-0.13 -0.37,-0.26 -0.55,-0.39 c -0.83,0.72 -1.75,1.31 -2.75,1.76 c 1.81,-5.25 4.21,-10.23 7.2,-14.92 c 1.83,-0.1 3.63,-0.35 5.4,-0.74 c 0.71,0.42 1.4,0.86 2.08,1.32 c 0.87,-0.76 2.52,-2.73 3.78,-2.54 c 1.11,0.71 2.62,-0.19 3.1,1.31 Z M 622.28,472.79 c 2.13,0.6 1.02,0.9 1.19,2.38 c 1.3,0.63 2.35,1.54 3.14,2.75 c 1.65,0.2 3.2,0.71 4.65,1.52 c -4.46,4.23 -9.74,6.67 -15.83,7.33 c -3.05,0.25 -0.19,5.48 0.32,6.92 c 0.8,1.45 1.96,2.52 3.49,3.21 c 0.33,0.69 0.76,1.29 1.31,1.8 c 1.8,0.19 9.34,1.76 9.65,-0.88 c 6.14,-0.37 12.68,-3.76 18.3,-6.24 c 0.73,2.52 -0.3,2.89 -2.15,4.08 c 0.97,4.74 4.79,3.3 5.87,5.53 c -10.25,5.94 -19.42,10.36 -31.69,8.58 c -9.35,-1.9 -15.27,-7.48 -17.76,-16.72 c 1.73,1.88 2.4,2.09 4.56,1.14 c 0.66,0.39 1.36,0.62 2.12,0.68 c 1.31,-0.26 2.63,-0.36 3.95,-0.32 c 0.31,-0.22 0.4,-0.52 0.28,-0.9 c -0.62,-2.04 -1.06,-4.11 -1.32,-6.23 c -0.11,-0.59 -0.4,-1.08 -0.86,-1.47 c -1.26,-0.36 -2.55,-0.52 -3.87,-0.5 c -2.36,-0.55 -3.13,-2 -5.86,-1.43 c 0.34,-3.1 0.94,-6.16 1.8,-9.16 c 2.89,0.88 3.44,-0.42 6.05,1.87 c 2.17,0.47 8.34,1.42 8.54,-2.04 c 0.6,0.03 1.15,-0.1 1.66,-0.39 c 1.17,0.01 1.99,-0.5 2.46,-1.51 Z M 416.78,504.75 c 2.05,1.3 0.9,3.27 3.54,0.93 c 1.21,0.42 2.3,1.02 3.27,1.81 c -0.36,1.01 -0.13,1.87 0.69,2.6 c -9.23,10.26 -19.8,19.95 -32.19,26.22 c -1.22,-0.8 -0.2,-1.27 -0.75,-2.12 c -1.11,-0.55 -2.22,-1.1 -3.33,-1.65 c -0.97,-1.01 -1.85,-2.09 -2.64,-3.23 c -1.57,0.53 -3.19,0.86 -4.86,0.98 c -0.84,-0.06 -1.34,-0.49 -1.52,-1.3 c 12.82,-3.05 28.18,-15.31 37.79,-24.24 Z M 990.01,599.03 c 6.6,3.23 13.67,5.12 20.14,8.62 c -0.72,1.74 2.3,1.39 3.12,1.09 c 5.45,4.19 21.54,5.7 22.44,15.79 c 0.15,5.33 0.87,9.46 -5.02,11.79 c -27.24,9.25 -51.44,21.17 -74.63,38.32 c -1.66,0.56 -3.34,0.63 -5.04,0.22 c 0.38,-1.01 0.87,-1.97 1.48,-2.86 c 1.64,-0.83 2.53,-2.4 0.8,-3.76 c -1.19,0.34 -2.4,0.56 -3.61,0.68 c -0.49,-1.16 -1.16,-2.18 -2.02,-3.07 c 2.47,-6.88 14.4,-13.46 20.2,-17.87 c 0.85,0.14 2.33,-0.05 2.01,-1.29 c 0.38,-0.23 0.69,-0.53 0.93,-0.91 c 0.76,0.26 2.36,0.31 2.4,-0.81 c 1.05,0.24 1.6,-0.18 1.67,-1.24 c 0.33,-0.26 0.62,-0.55 0.86,-0.89 c 0.66,0.15 2.49,0.28 2.15,-0.92 c 0.71,-0.1 1.14,-0.51 1.27,-1.23 c 0.87,0.03 1.68,-0.2 2.41,-0.68 c 0.79,-0.13 1.29,-0.58 1.51,-1.35 c 0.23,-0.09 0.47,-0.17 0.7,-0.25 c 0.79,0.38 1.6,0.45 2.44,0.21 c 0.74,-1.05 4.18,-1.64 3.59,-3.16 c 0.6,-1.3 6.93,-1.03 4.59,-3.25 c -1.47,0.09 -2.93,-0.03 -4.38,-0.35 c 0.01,-0.39 0.18,-0.68 0.54,-0.87 c 1.85,0.04 3.68,-0.13 5.48,-0.49 c 0.77,-1.9 1.5,-3.82 2.19,-5.77 c 1.13,-0.23 2.06,-0.79 2.8,-1.67 c 0.01,-2.36 0.59,-1.61 2.45,-2.06 c 1.6,-1.16 0.31,-2.77 -1.09,-1.84 c -1.12,-1.4 -4.58,-2.32 -6.37,-2.22 c -0.79,-1.59 -9.13,-4.6 -11.07,-5.75 c 0.32,-0.15 0.54,-0.38 0.67,-0.71 c -0.14,-2.07 -0.19,-4.11 -0.16,-6.1 c 3.4,1.13 4.56,-0.12 7.19,-1.9 c -1.39,-0.72 -2.81,-1.36 -4.28,-1.92 c 0.82,-0.24 1.36,-0.75 1.64,-1.53 Z"/></g>
<g><path fill="#061b05" fill-opacity="0.816" d="M 696.08,503.71 c -3.64,1.39 -7.34,1.54 -11.08,0.43 c -0.12,-0.49 0.06,-0.82 0.54,-1 c 1.64,0.2 3.28,0.41 4.92,0.63 c 0.91,-0.03 5.64,-1.78 5.62,-0.06 Z"/></g>
<g><path fill="#4b6141" fill-opacity="0.62" d="M 619.24,496.9 c 3.58,1.16 7.23,1.47 10.96,0.92 c -0.31,2.64 -7.85,1.07 -9.65,0.88 c -0.55,-0.51 -0.98,-1.11 -1.31,-1.8 Z"/></g>
<g><path fill="#354f2f" fill-opacity="0.984" d="M 672.61,473.86 c 0.37,-1.32 0.76,-2.64 1.17,-3.95 c 1,-0.45 1.92,-1.04 2.75,-1.76 c 0.18,0.13 0.37,0.26 0.55,0.39 c 0.1,1.14 -0.19,2.19 -0.89,3.13 c 0.74,3.42 1.1,2.76 -1.7,5.15 c -1.11,-0.67 -1.73,-1.66 -1.88,-2.96 Z"/></g>
<g><path fill="#2c4627" fill-opacity="0.98" d="M 736.06,437.13 c 0.03,0.64 0.24,1.21 0.61,1.72 c 1.22,0 2.39,0.24 3.51,0.7 c 0.14,2.61 1.48,6.45 -2.77,6.41 c -0.99,-0.6 -1.94,-1.22 -2.87,-1.88 c -0.73,0.33 -1.42,0.75 -2.06,1.25 c -0.42,-0.17 -0.75,-0.46 -0.98,-0.85 c -0.8,1.63 -2.13,2.27 -3.98,1.93 c -2.67,-5.9 3.75,-8.82 8.54,-9.28 Z M 869.08,613.48 c 11.98,-0.16 23.95,-0.03 35.93,0.39 c 0.11,0.51 -0.07,0.89 -0.53,1.15 c -2.43,-0.07 -4.83,0.08 -7.2,0.45 c 2.26,1.75 3.59,0.27 5.94,0.75 c 1.79,2.06 -4.58,2.89 -5.54,2.56 c -1.21,-1.37 -2.37,-2.16 -4.17,-1.22 c -1.38,-0.66 -2.73,-0.66 -4.07,-0.01 c -0.95,-2.44 -2.3,-0.7 -1.96,1.02 c -2.94,-1.74 -7.5,4.51 -2.22,5.25 c 0.67,-0.32 1.37,-0.49 2.1,-0.53 c 0.59,0.47 0.58,0.92 -0.02,1.35 c -4.19,0.13 -8.36,0.1 -12.54,-0.09 c -1.69,-1.04 0.92,-2.13 1.85,-2.09 c 2.19,0.42 2.8,1.23 4.62,-0.65 c 0.15,-1.01 0.31,-2.05 0.48,-3.1 c -1,-0.54 -2.05,-2.44 -3.05,-2.49 c -2.05,1.31 -1.97,2.58 -4.95,1.5 c -0.69,-1.01 -1.27,-2.09 -1.73,-3.24 c -0.92,-0.5 -1.9,-0.83 -2.94,-1 Z"/></g>
<g><path fill="#435a3a" fill-opacity="0.62" d="M 886.9,480.77 c -0.3,0.55 -0.63,1.07 -0.99,1.57 c -1.3,0.64 -6.67,1.72 -6.87,-0.43 c 2.92,-0.25 5.1,0.11 7.86,-1.14 Z"/></g>
<g><path fill="#435a3c" fill-opacity="0.627" d="M 760,498.94 c 0.88,-0.06 1.59,0.23 2.11,0.88 c -1.02,0.36 -1.72,0.07 -2.11,-0.88 Z M 762.11,499.82 c 1.91,-0.05 3.82,-0.09 5.73,-0.12 c 0.28,1.79 -6.52,2.02 -5.73,0.12 Z"/></g>
<g><path fill="#3a5134" fill-opacity="0.588" d="M 1105.18,472.84 c -0.85,2.65 -4.38,2.15 -6.51,1.94 c 1.34,-0.98 4.8,-1.47 6.51,-1.94 Z"/></g>
<g><path fill="#4a5f42" fill-opacity="0.733" d="M 687.06,492.84 c 2.62,0.25 5.25,0.25 7.87,-0.01 c 1.03,1.93 -6.53,1.16 -7.38,0.92 c -0.39,-0.19 -0.55,-0.5 -0.49,-0.91 Z"/></g>
<g><path fill="#475f3e" fill-opacity="0.627" d="M 989.81,635.46 c 0.59,1.52 -2.85,2.11 -3.59,3.16 c -0.84,0.24 -1.65,0.17 -2.44,-0.21 c 1.92,-1.18 3.93,-2.16 6.03,-2.95 Z"/></g>
<g><path fill="#42563c" fill-opacity="0.651" d="M 773.03,617.13 c 0.3,2.91 -3.98,1.06 -5.21,0.48 c 1.72,-0.31 3.46,-0.47 5.21,-0.48 Z"/></g>
<g><path fill="#415b3b" fill-opacity="0.486" d="M 979.16,640.69 c -0.13,0.72 -0.56,1.13 -1.27,1.23 c 0.13,-0.71 0.56,-1.11 1.27,-1.23 Z M 977.89,641.92 c 0.34,1.2 -1.49,1.07 -2.15,0.92 c 0.5,-0.75 1.21,-1.06 2.15,-0.92 Z M 974.88,643.73 c -0.07,1.06 -0.62,1.48 -1.67,1.24 c -0.47,-0.99 1.08,-1.1 1.67,-1.24 Z M 973.21,644.97 c -0.04,1.12 -1.64,1.07 -2.4,0.81 c 0.25,-0.95 1.66,-0.73 2.4,-0.81 Z"/></g>
<g><path fill="#46543a" fill-opacity="0.725" d="M 739.38,468.87 c -0.31,0.8 -0.9,1.08 -1.76,0.85 c -0.88,-1.39 -1.17,-1.69 -2.79,-2.06 c 1.84,-0.9 3.36,-0.49 4.55,1.21 Z"/></g>
<g><path fill="#49573c" fill-opacity="0.69" d="M 903.2,425.43 c 1.76,0.65 3.45,1.42 5.08,2.31 c -1.14,0.11 -2.29,0.19 -3.44,0.24 c 0.39,-1.72 -2.08,-0.43 -1.64,-2.55 Z"/></g>
<g><path fill="#4b603f" fill-opacity="0.659" d="M 368.04,529.83 c 1.99,0.19 3.98,0.23 5.98,0.13 c 0.01,1.67 -3.6,0.86 -4.57,1.05 c -0.9,0.07 -1.37,-0.33 -1.41,-1.18 Z"/></g>
<g><path fill="#4a5a3f" fill-opacity="0.612" d="M 1033.07,417.74 c 0.76,0.15 1.48,0.41 2.16,0.77 c -0.77,0.49 -2.35,0.57 -2.16,-0.77 Z M 701.72,439.69 c 0.94,0.14 1.81,0.48 2.58,1.03 c -0.86,0.26 -2.73,0.35 -2.58,-1.03 Z"/></g>
<g><path fill="#415133" fill-opacity="0.643" d="M 1010.15,607.65 c 1.14,0.08 2.18,0.44 3.12,1.09 c -0.82,0.3 -3.84,0.65 -3.12,-1.09 Z"/></g>
<g><path fill="#495c3b" fill-opacity="0.569" d="M 963.83,615.65 c 1.01,0.27 2.95,0.13 3.44,1.26 c -1.15,0.17 -3.32,0.43 -3.44,-1.26 Z"/></g>
<g><path fill="#46583b" fill-opacity="0.514" d="M 952.92,583.76 c 0.72,0.14 2.08,0.05 2.24,1 c -0.76,0.13 -1.52,0.22 -2.29,0.25 c 0.02,-0.42 0.04,-0.84 0.05,-1.25 Z"/></g>
<g><path fill="#445836" fill-opacity="0.569" d="M 986.72,597.78 c 0.71,0.1 2.45,-0.06 2.37,1.07 c -1.13,0.33 -1.92,-0.03 -2.37,-1.07 Z"/></g>
<g><path fill="#435a37" fill-opacity="0.451" d="M 359.68,526.73 c 1.08,-0.03 1.99,0.32 2.72,1.06 c -1.27,0.48 -2.18,0.13 -2.72,-1.06 Z"/></g>
<g><path fill="#435b3c" fill-opacity="0.478" d="M 1042.2,469.73 c 0.08,1.36 -1.65,1.32 -2.56,1.18 c 0.64,-0.8 1.49,-1.19 2.56,-1.18 Z"/></g>
<g><path fill="#4f6344" fill-opacity="0.502" d="M 622.28,472.79 c -0.47,1.01 -1.29,1.52 -2.46,1.51 c 0.44,-1.08 1.25,-1.58 2.46,-1.51 Z"/></g>
<g><path fill="#3f5435" fill-opacity="0.545" d="M 773.12,497.78 c -0.51,0.98 -1.34,1.43 -2.49,1.34 c 0.5,-1 1.33,-1.45 2.49,-1.34 Z"/></g>
<g><path fill="#3d5435" fill-opacity="0.486" d="M 969.88,646.69 c 0.32,1.24 -1.16,1.43 -2.01,1.29 c 0.39,-0.81 1.06,-1.24 2.01,-1.29 Z"/></g>
<g><path fill="#485f41" fill-opacity="0.498" d="M 770.22,429.79 c -0.52,1.07 -1.37,1.4 -2.56,1 c 0.7,-0.69 1.55,-1.02 2.56,-1 Z"/></g>
<g><path fill="#495d41" fill-opacity="0.439" d="M 419.7,372.73 c 0.77,0.19 2.21,0.1 2.47,1.05 c -1.16,0.39 -1.99,0.05 -2.47,-1.05 Z"/></g>
<g><path fill="#4a5c3f" fill-opacity="0.459" d="M 734.09,467.68 c -0.2,0.76 -0.69,1.21 -1.47,1.35 c 0.27,-0.69 0.76,-1.14 1.47,-1.35 Z"/></g>
<g><path fill="#42583b" fill-opacity="0.455" d="M 464.29,504.71 c -0.06,0.46 -0.13,0.91 -0.19,1.36 c -0.46,-0.05 -0.92,-0.1 -1.37,-0.15 c 0.36,-0.61 0.88,-1.01 1.56,-1.21 Z"/></g>
<g><path fill="#495d3e" fill-opacity="0.482" d="M 890.24,478.76 c -0.28,0.67 -0.77,1.07 -1.49,1.2 c 0.32,-0.61 0.81,-1.01 1.49,-1.2 Z"/></g>
</svg>
