<?xml version="1.0" encoding="UTF-8" standalone="no"?>
<!DOCTYPE svg PUBLIC "-//W3C//DTD SVG 1.1//EN" "http://www.w3.org/Graphics/SVG/1.1/DTD/svg11.dtd">
<svg xmlns="http://www.w3.org/2000/svg" version="1.1" viewBox="0.00 0.00 2030.00 1548.00">
<g stroke-width="2.00" fill="none" stroke-linecap="butt">
<path stroke="#d8322a" vector-effect="non-scaling-stroke" d="
  M 485.33 177.48
  L 485.21 751.95"
/>
<path stroke="#84538a" vector-effect="non-scaling-stroke" d="
  M 484.78 751.96
  L 43.45 420.79"
/>
<path stroke="#8f7644" vector-effect="non-scaling-stroke" d="
  M 1545.94 751.28
  Q 1545.23 751.62 1544.91 751.95"
/>
<path stroke="#97b22b" vector-effect="non-scaling-stroke" d="
  M 1986.68 420.32
  L 1545.94 751.28"
/>
<path stroke="#f27f1c" vector-effect="non-scaling-stroke" d="
  M 1545.94 751.28
  Q 1545.75 751.36 1545.60 751.38
  A 0.37 0.36 -4.1 0 1 1545.18 751.02
  L 1544.93 177.28"
/>
</g>
<path fill="#c5211f" d="
  M 485.33 177.48
  L 485.21 751.95
  L 484.78 751.96
  L 43.45 420.79
  Q 43.45 420.61 43.41 420.51
  Q 43.31 420.30 43.31 420.28
  Q 43.35 292.26 43.25 262.50
  Q 43.14 231.47 44.74 219.04
  C 55.65 134.75 117.74 66.50 200.94 48.95
  C 248.54 38.92 297.87 46.56 340.22 70.46
  Q 350.12 76.06 372.15 92.56
  Q 428.78 134.97 485.33 177.48
  Z"
/>
<path fill="#fabb03" d="
  M 1986.68 420.32
  L 1545.94 751.28
  Q 1545.75 751.36 1545.60 751.38
  A 0.37 0.36 -4.1 0 1 1545.18 751.02
  L 1544.93 177.28
  Q 1606.50 131.03 1668.10 84.85
  C 1721.21 45.03 1789.93 33.92 1852.62 55.44
  C 1924.05 79.97 1975.83 143.70 1985.27 218.83
  Q 1986.67 230.04 1986.68 263.73
  Q 1986.69 342.00 1986.68 420.32
  Z"
/>
<path fill="#ea4335" d="
  M 1544.93 177.28
  L 1545.18 751.02
  A 0.37 0.36 -4.1 0 0 1545.60 751.38
  Q 1545.75 751.36 1545.94 751.28
  Q 1545.23 751.62 1544.91 751.95
  L 1015.41 1149.39
  A 0.71 0.70 -44.6 0 1 1014.56 1149.39
  L 485.21 751.95
  L 485.33 177.48
  L 1014.60 574.73
  A 0.67 0.67 0.0 0 0 1015.40 574.73
  L 1544.93 177.28
  Z"
/>
<path fill="#34a852" d="
  M 1986.68 420.32
  Q 1986.70 896.75 1986.67 1373.25
  Q 1986.67 1405.71 1969.15 1436.51
  Q 1951.09 1468.26 1919.24 1486.28
  Q 1898.49 1498.02 1874.46 1501.91
  Q 1863.54 1503.68 1838.47 1503.38
  Q 1831.62 1503.30 1545.31 1503.36
  A 0.41 0.41 0.0 0 1 1544.90 1502.95
  L 1544.91 751.95
  Q 1545.23 751.62 1545.94 751.28
  L 1986.68 420.32
  Z"
/>
<path fill="#4285f4" d="
  M 43.45 420.79
  L 484.78 751.96
  L 484.98 1502.86
  A 0.50 0.50 0.0 0 1 484.48 1503.36
  Q 208.91 1503.29 192.79 1503.40
  Q 166.27 1503.60 155.79 1501.93
  C 98.63 1492.84 53.63 1448.37 44.74 1390.90
  Q 43.31 1381.67 43.31 1355.03
  Q 43.33 1140.99 43.28 421.75
  Q 43.28 421.23 43.45 420.79
  Z"
/>
</svg>
