<?xml version="1.0" encoding="UTF-8" standalone="no"?>
<!DOCTYPE svg PUBLIC "-//W3C//DTD SVG 1.1//EN" "http://www.w3.org/Graphics/SVG/1.1/DTD/svg11.dtd">
<svg xmlns="http://www.w3.org/2000/svg" version="1.1" viewBox="0.00 0.00 1760.00 1786.00">
<path fill="#050505" d="
  M 1760.00 985.89
  L 1760.00 1078.96
  Q 1758.57 1089.95 1756.88 1100.90
  Q 1745.34 1176.01 1709.94 1242.66
  Q 1692.44 1275.60 1672.97 1301.97
  Q 1602.37 1397.55 1493.06 1446.06
  Q 1453.49 1463.61 1404.58 1474.21
  A 0.72 0.72 0.0 0 0 1404.06 1474.68
  Q 1373.06 1567.75 1308.80 1638.04
  C 1227.89 1726.55 1115.91 1779.58 995.76 1785.13
  Q 931.63 1788.10 871.82 1774.21
  C 781.85 1753.31 701.26 1705.33 639.44 1636.24
  A 0.88 0.88 0.0 0 0 638.59 1635.96
  Q 554.00 1653.35 470.74 1639.41
  C 350.89 1619.34 244.02 1551.50 174.54 1451.61
  C 134.90 1394.63 108.18 1328.81 98.18 1260.50
  Q 82.89 1155.98 115.83 1055.58
  A 1.30 1.27 -57.4 0 0 115.57 1054.34
  Q 65.34 998.29 35.81 928.94
  Q 1.52 848.41 0.00 758.52
  L 0.00 746.86
  Q 2.79 611.19 77.89 499.88
  C 138.35 410.27 230.22 345.20 334.67 317.46
  Q 341.46 315.65 357.45 311.87
  A 0.76 0.74 1.9 0 0 357.98 311.39
  Q 383.63 235.59 429.04 177.01
  Q 506.23 77.45 623.26 31.29
  Q 684.24 7.24 752.51 1.86
  C 828.71 -4.15 905.07 9.05 974.56 40.65
  Q 1059.17 79.13 1122.72 149.46
  A 0.67 0.66 -26.2 0 0 1123.34 149.67
  Q 1231.28 127.71 1334.61 155.72
  Q 1392.77 171.48 1444.92 202.04
  Q 1532.10 253.12 1590.56 338.69
  C 1604.95 359.76 1619.36 385.62 1629.96 409.56
  Q 1673.75 508.49 1667.88 616.50
  Q 1664.79 673.32 1646.35 730.13
  A 1.41 1.41 0.0 0 0 1646.64 731.52
  C 1652.65 738.29 1660.18 747.04 1665.66 754.03
  Q 1745.59 856.00 1760.00 985.89
  Z
  M 605.89 935.99
  Q 605.87 748.66 605.87 460.05
  Q 605.87 448.40 607.14 443.07
  Q 611.40 425.27 624.36 413.04
  Q 628.79 408.86 645.57 399.22
  Q 936.63 231.96 989.71 201.77
  Q 995.37 198.55 1001.13 195.30
  A 0.53 0.53 0.0 0 0 1001.21 194.43
  Q 918.44 127.15 812.04 118.51
  C 806.68 118.08 796.61 117.82 788.85 117.39
  A 2.82 2.72 57.3 0 1 787.96 117.18
  Q 784.86 115.82 780.74 115.93
  Q 702.60 118.04 635.14 152.66
  C 573.03 184.54 522.35 235.15 490.20 297.24
  C 467.05 341.92 454.60 391.25 453.18 441.74
  Q 453.02 447.44 453.02 456.75
  Q 453.04 697.11 453.03 848.25
  A 1.28 1.28 0.0 0 0 453.67 849.36
  L 604.80 936.62
  A 0.73 0.73 0.0 0 0 605.89 935.99
  Z
  M 1546.04 647.50
  Q 1546.68 647.57 1546.82 646.79
  Q 1551.05 622.91 1551.35 597.02
  Q 1552.32 510.50 1512.46 434.75
  Q 1509.44 429.01 1506.17 424.00
  C 1500.38 415.14 1495.17 406.25 1489.15 397.83
  Q 1440.84 330.33 1368.15 293.36
  C 1322.40 270.10 1271.54 257.59 1220.50 256.97
  Q 1146.06 256.07 1076.96 287.43
  Q 1062.02 294.21 1025.16 315.78
  Q 1001.14 329.83 706.09 500.81
  A 1.52 1.52 0.0 0 0 705.34 502.12
  L 705.34 675.79
  A 0.51 0.51 0.0 0 0 706.10 676.23
  Q 712.85 672.33 1114.04 440.51
  Q 1126.98 433.04 1132.70 431.29
  Q 1150.84 425.75 1169.37 431.34
  Q 1175.26 433.12 1186.59 439.73
  Q 1195.66 445.03 1545.39 646.72
  A 0.82 0.79 -85.4 0 1 1545.76 647.17
  Q 1545.87 647.48 1546.04 647.50
  Z
  M 335.65 439.77
  Q 272.92 463.31 224.31 508.58
  C 164.41 564.38 126.62 640.61 118.96 721.74
  Q 113.29 781.75 129.05 840.59
  Q 149.18 915.75 201.89 975.79
  Q 227.16 1004.57 262.41 1029.22
  Q 273.34 1036.86 316.78 1061.74
  Q 336.86 1073.24 626.44 1240.46
  A 1.64 1.62 -44.7 0 0 628.07 1240.46
  L 780.09 1152.69
  A 0.40 0.40 0.0 0 0 780.09 1152.00
  Q 553.46 1021.28 366.39 913.38
  Q 343.29 900.05 337.53 874.61
  Q 335.94 867.61 336.12 853.79
  Q 336.19 848.02 336.15 440.11
  A 0.37 0.37 0.0 0 0 335.65 439.77
  Z
  M 981.13 632.63
  A 0.42 0.42 0.0 0 0 981.13 633.35
  Q 1373.89 859.33 1389.73 868.36
  Q 1402.62 875.71 1407.17 880.02
  Q 1420.48 892.65 1424.59 910.35
  Q 1425.88 915.94 1425.88 928.80
  Q 1425.87 1344.61 1425.87 1344.89
  A 0.64 0.64 0.0 0 0 1426.74 1345.50
  C 1498.85 1318.44 1558.34 1269.15 1597.94 1202.90
  C 1598.97 1201.18 1599.80 1198.90 1600.83 1197.07
  Q 1633.14 1139.52 1641.46 1075.84
  C 1657.42 953.64 1604.52 832.06 1504.35 760.54
  Q 1490.76 750.83 1458.20 732.09
  Q 1294.17 637.66 1133.86 545.23
  A 1.33 1.33 0.0 0 0 1132.52 545.23
  L 981.13 632.63
  Z
  M 706.01 892.61
  Q 706.00 946.06 706.04 992.86
  A 1.15 1.13 15.2 0 0 706.60 993.83
  Q 841.95 1072.01 880.63 1094.35
  Q 881.18 1094.67 881.67 1094.67
  Q 882.16 1094.67 882.71 1094.35
  Q 921.39 1072.01 1056.74 993.84
  A 1.15 1.13 -15.2 0 0 1057.30 992.87
  Q 1057.34 946.06 1057.34 892.61
  Q 1057.34 839.17 1057.31 792.36
  A 1.15 1.13 15.2 0 0 1056.74 791.39
  Q 921.39 713.21 882.72 690.87
  Q 882.17 690.55 881.68 690.55
  Q 881.18 690.55 880.64 690.87
  Q 841.96 713.21 706.60 791.38
  A 1.15 1.13 -15.2 0 0 706.04 792.36
  Q 706.01 839.16 706.01 892.61
  Z
  M 1156.53 849.73
  Q 1156.33 849.91 1156.33 850.25
  Q 1156.32 853.60 1156.33 1323.81
  Q 1156.34 1338.02 1155.01 1343.57
  Q 1150.94 1360.59 1138.40 1372.55
  Q 1134.23 1376.53 1121.07 1384.12
  Q 806.68 1565.45 768.62 1587.36
  Q 766.60 1588.53 762.02 1591.00
  A 0.66 0.66 0.0 0 0 761.91 1592.09
  C 821.35 1641.30 896.36 1668.53 973.50 1668.75
  Q 974.12 1668.75 975.64 1669.11
  A 7.24 7.08 50.8 0 0 977.40 1669.31
  Q 1067.96 1667.73 1143.28 1623.48
  Q 1219.11 1578.92 1264.01 1502.27
  Q 1282.42 1470.84 1293.12 1436.80
  Q 1304.07 1401.97 1307.56 1366.62
  Q 1309.11 1350.94 1309.07 1310.85
  Q 1308.97 1222.92 1309.04 938.39
  A 1.42 1.40 15.2 0 0 1308.33 937.17
  L 1156.84 849.70
  A 0.28 0.27 38.2 0 0 1156.53 849.73
  Z
  M 1054.90 1109.61
  Q 854.51 1225.64 646.35 1346.21
  Q 635.94 1352.24 631.55 1353.82
  C 614.57 1359.93 595.91 1358.17 580.34 1349.16
  Q 403.97 1247.17 216.20 1138.66
  A 0.36 0.35 20.5 0 0 215.67 1138.90
  C 195.45 1256.19 240.27 1376.55 332.37 1451.92
  Q 391.86 1500.60 466.24 1518.80
  C 539.70 1536.76 616.17 1529.32 685.22 1498.02
  Q 700.94 1490.89 734.56 1471.17
  Q 745.65 1464.67 1054.81 1285.86
  A 1.49 1.48 -15.0 0 0 1055.56 1284.57
  L 1055.56 1109.99
  A 0.44 0.44 0.0 0 0 1054.90 1109.61
  Z"
/>
</svg>
