<?xml version="1.0" encoding="UTF-8" standalone="no"?>
<!DOCTYPE svg PUBLIC "-//W3C//DTD SVG 1.1//EN" "http://www.w3.org/Graphics/SVG/1.1/DTD/svg11.dtd">
<svg xmlns="http://www.w3.org/2000/svg" version="1.1" viewBox="0.00 0.00 1600.00 1600.00">
<path fill="#36c5f0" d="
  M 758.16 347.86
  Q 758.13 347.89 758.10 347.91
  A 0.22 0.04 -35.4 0 1 757.96 347.97
  Q 693.51 347.98 605.53 348.08
  Q 582.69 348.11 571.58 346.53
  C 472.40 332.48 408.25 233.05 437.42 136.66
  Q 448.92 98.66 476.94 69.69
  Q 477.73 68.87 478.33 68.27
  Q 478.94 67.67 479.75 66.88
  Q 508.70 38.83 546.69 27.30
  C 643.05 -1.96 742.54 62.10 756.68 161.27
  Q 758.26 172.38 758.26 195.22
  Q 758.23 283.20 758.28 347.65
  A 0.22 0.04 -54.7 0 1 758.22 347.79
  Q 758.20 347.82 758.16 347.86
  Z"
/>
<path fill="#2eb67d" d="
  M 1005.73 20.21
  C 1087.46 20.21 1156.82 80.87 1168.21 161.62
  Q 1169.69 172.13 1169.71 201.28
  Q 1169.73 235.63 1169.73 389.21
  Q 1169.74 542.78 1169.71 577.13
  Q 1169.69 606.28 1168.21 616.79
  C 1156.82 697.55 1087.47 758.21 1005.73 758.21
  C 924.00 758.21 854.65 697.55 843.26 616.79
  Q 841.78 606.28 841.76 577.13
  Q 841.73 542.78 841.73 389.21
  Q 841.73 235.63 841.76 201.28
  Q 841.78 172.13 843.26 161.62
  C 854.65 80.87 924.00 20.21 1005.73 20.21
  Z"
/>
<path fill="#36c5f0" d="
  M 389.20 758.26
  Q 235.63 758.27 201.28 758.24
  Q 172.13 758.22 161.62 756.74
  C 80.87 745.35 20.21 676.00 20.21 594.27
  C 20.20 512.54 80.86 443.19 161.62 431.80
  Q 172.13 430.32 201.27 430.29
  Q 235.63 430.27 389.20 430.27
  Q 542.77 430.27 577.12 430.29
  Q 606.27 430.31 616.78 431.79
  C 697.53 443.18 758.19 512.53 758.19 594.26
  C 758.19 675.99 697.53 745.34 616.78 756.74
  Q 606.27 758.22 577.12 758.24
  Q 542.77 758.26 389.20 758.26
  Z"
/>
<path fill="#2eb67d" d="
  M 1531.71 478.31
  Q 1532.31 478.92 1533.10 479.73
  Q 1561.15 508.67 1572.69 546.66
  C 1601.96 643.02 1537.92 742.52 1438.75 756.68
  Q 1427.64 758.27 1404.80 758.27
  Q 1316.82 758.26 1252.37 758.32
  A 0.22 0.04 35.3 0 1 1252.23 758.25
  Q 1252.20 758.23 1252.16 758.19
  Q 1252.13 758.17 1252.11 758.14
  A 0.22 0.04 54.6 0 1 1252.05 758.00
  Q 1252.03 693.55 1251.91 605.56
  Q 1251.88 582.72 1253.46 571.61
  C 1267.49 472.43 1366.91 408.26 1463.31 437.41
  Q 1501.31 448.91 1530.29 476.92
  Q 1531.10 477.71 1531.71 478.31
  Z"
/>
<path fill="#e01e5a" d="
  M 68.29 1121.68
  Q 67.68 1121.08 66.89 1120.26
  Q 38.84 1091.32 27.30 1053.33
  C -1.97 956.97 62.08 857.48 161.25 843.33
  Q 172.36 841.73 195.20 841.74
  Q 283.18 841.75 347.63 841.70
  A 0.22 0.04 35.3 0 1 347.77 841.76
  Q 347.80 841.78 347.84 841.82
  Q 347.86 841.84 347.88 841.87
  A 0.22 0.04 54.6 0 1 347.95 842.02
  Q 347.97 906.47 348.08 994.45
  Q 348.11 1017.29 346.53 1028.40
  C 332.50 1127.58 233.08 1191.74 136.68 1162.58
  Q 98.68 1151.09 69.71 1123.07
  Q 68.89 1122.28 68.29 1121.68
  Z"
/>
<path fill="#e01e5a" d="
  M 758.26 1210.79
  Q 758.26 1364.36 758.24 1398.71
  Q 758.22 1427.85 756.74 1438.36
  C 745.35 1519.12 676.00 1579.78 594.27 1579.78
  C 512.54 1579.78 443.19 1519.13 431.80 1438.37
  Q 430.32 1427.86 430.29 1398.72
  Q 430.27 1364.37 430.27 1210.79
  Q 430.26 1057.22 430.29 1022.87
  Q 430.31 993.72 431.79 983.22
  C 443.18 902.46 512.53 841.80 594.26 841.80
  C 675.99 841.80 745.34 902.45 756.73 983.21
  Q 758.21 993.72 758.23 1022.86
  Q 758.26 1057.21 758.26 1210.79
  Z"
/>
<path fill="#ecb22e" d="
  M 1210.79 841.73
  Q 1364.37 841.73 1398.72 841.76
  Q 1427.87 841.78 1438.38 843.26
  C 1519.13 854.65 1579.80 924.00 1579.80 1005.73
  C 1579.80 1087.47 1519.14 1156.82 1438.38 1168.21
  Q 1427.87 1169.69 1398.72 1169.71
  Q 1364.37 1169.74 1210.79 1169.74
  Q 1057.22 1169.74 1022.86 1169.72
  Q 993.72 1169.69 983.21 1168.21
  C 902.45 1156.82 841.79 1087.47 841.79 1005.74
  C 841.79 924.01 902.45 854.65 983.21 843.26
  Q 993.72 841.78 1022.86 841.76
  Q 1057.21 841.73 1210.79 841.73
  Z"
/>
<path fill="#ecb22e" d="
  M 1121.68 1531.73
  Q 1121.07 1532.33 1120.26 1533.12
  Q 1091.31 1561.17 1053.32 1572.71
  C 956.96 1601.97 857.47 1537.91 843.32 1438.74
  Q 841.73 1427.63 841.74 1404.79
  Q 841.76 1316.81 841.71 1252.36
  A 0.22 0.04 -54.7 0 1 841.77 1252.22
  Q 841.79 1252.19 841.83 1252.15
  Q 841.86 1252.12 841.89 1252.10
  A 0.22 0.04 -35.4 0 1 842.03 1252.04
  Q 906.48 1252.02 994.46 1251.92
  Q 1017.30 1251.89 1028.41 1253.47
  C 1127.60 1267.51 1191.75 1366.94 1162.59 1463.34
  Q 1151.09 1501.34 1123.07 1530.31
  Q 1122.28 1531.12 1121.68 1531.73
  Z"
/>
</svg>
