<?xml version="1.0" encoding="UTF-8" standalone="no"?>
<!DOCTYPE svg PUBLIC "-//W3C//DTD SVG 1.1//EN" "http://www.w3.org/Graphics/SVG/1.1/DTD/svg11.dtd">
<svg xmlns="http://www.w3.org/2000/svg" version="1.1" viewBox="0.00 0.00 1254.00 1254.00">
<path fill="#26503d" d="
  M 1084.84 383.74
  L 1068.24 355.70
  A 4.15 4.15 0.0 0 1 1069.48 350.15
  L 1069.56 350.10
  A 3.47 3.47 0.0 0 1 1074.50 351.26
  C 1079.39 359.78 1086.02 368.66 1090.51 375.87
  Q 1095.72 384.23 1098.51 388.96
  Q 1100.63 392.57 1099.06 395.39
  Q 1098.14 397.04 1093.41 398.69
  Q 1070.50 406.71 1045.92 411.96
  A 3.79 3.78 -18.3 0 1 1041.69 409.83
  L 1041.64 409.72
  A 2.86 2.86 0.0 0 1 1043.23 405.86
  C 1056.61 400.76 1071.07 395.90 1085.61 392.07
  A 0.45 0.45 0.0 0 0 1085.68 391.23
  Q 1081.66 389.35 1077.25 388.83
  A 6.93 6.81 -30.7 0 1 1075.66 388.44
  Q 1053.07 379.93 1041.70 376.34
  Q 1006.87 365.35 967.84 357.61
  Q 958.52 355.76 948.98 354.58
  Q 933.51 352.67 929.99 352.39
  C 916.03 351.30 901.04 351.35 886.02 352.41
  Q 865.55 353.87 861.50 354.28
  Q 845.94 355.84 823.58 359.95
  Q 797.53 364.74 762.39 375.66
  C 757.71 377.11 752.78 379.27 746.89 381.42
  Q 729.43 387.82 707.95 397.96
  C 697.38 402.95 682.21 412.04 674.46 416.38
  Q 669.37 419.23 663.89 423.10
  C 655.97 428.69 646.93 434.11 639.58 440.83
  Q 637.55 442.70 636.00 440.49
  C 634.51 438.35 637.26 435.81 638.91 434.41
  C 642.72 431.19 649.01 426.15 654.24 422.47
  C 663.65 415.87 674.38 407.77 684.20 401.91
  Q 698.73 393.22 714.03 385.90
  C 720.96 382.59 726.99 380.27 735.05 376.84
  Q 767.10 363.21 805.41 355.19
  Q 823.92 351.32 829.53 350.11
  Q 841.02 347.63 848.26 347.01
  C 860.05 346.00 871.47 344.84 885.31 344.58
  Q 888.83 344.51 898.35 343.82
  C 905.10 343.34 912.03 343.29 917.78 343.78
  Q 924.62 344.37 939.74 345.06
  C 946.41 345.36 955.63 347.40 962.12 348.16
  Q 973.32 349.47 983.39 352.31
  C 996.73 356.07 1012.05 358.40 1024.16 362.36
  C 1031.70 364.83 1036.21 366.01 1043.15 368.45
  Q 1054.70 372.50 1063.16 375.19
  Q 1069.40 377.17 1072.27 378.60
  C 1077.55 381.21 1080.49 383.26 1084.34 384.38
  A 0.44 0.44 0.0 0 0 1084.84 383.74
  Z"
/>
<path fill="#26503d" d="
  M 741.65 543.27
  A 0.50 0.50 0.0 0 0 742.42 543.64
  L 749.57 538.94
  A 3.12 3.11 56.6 0 1 753.89 539.83
  L 754.14 540.21
  A 2.44 2.44 0.0 0 1 753.44 543.59
  L 742.98 550.47
  A 0.88 0.88 0.0 0 0 742.81 551.81
  Q 746.61 555.92 751.72 557.79
  A 2.67 2.67 0.0 0 1 753.48 560.34
  Q 753.43 563.23 750.28 563.41
  C 747.26 563.58 741.93 559.12 739.13 556.96
  A 0.97 0.97 0.0 0 0 737.60 557.49
  Q 736.90 560.25 736.51 563.70
  C 736.34 565.20 734.14 566.89 732.46 566.19
  C 730.62 565.42 730.38 563.06 730.82 561.08
  Q 733.69 548.14 738.72 533.10
  C 739.51 530.72 739.95 527.32 740.87 524.83
  A 1.65 1.36 -68.1 0 1 742.82 523.77
  C 747.24 525.76 741.21 538.83 741.65 543.27
  Z"
/>
<path fill="#26503d" d="
  M 629.75 552.14
  A 0.69 0.68 -2.2 0 0 630.61 552.93
  C 633.39 552.15 641.57 549.51 641.46 554.04
  Q 641.42 555.69 639.71 556.30
  Q 634.06 558.32 629.06 559.17
  A 1.23 1.23 0.0 0 0 628.07 560.11
  Q 627.43 562.97 626.09 570.02
  Q 625.65 572.35 625.91 574.40
  A 0.85 0.84 -3.9 0 0 626.75 575.13
  L 629.39 575.13
  A 1.07 1.07 0.0 0 1 630.19 575.49
  C 634.46 580.31 621.90 584.91 620.74 574.48
  C 620.24 569.98 621.54 565.71 622.15 561.83
  A 0.74 0.74 0.0 0 0 621.30 560.98
  C 618.46 561.46 615.10 563.50 613.61 560.14
  C 612.07 556.64 619.00 555.65 621.37 555.15
  C 623.23 554.75 623.95 553.81 624.45 551.87
  Q 626.23 545.03 628.44 537.68
  A 1.68 1.68 0.0 0 1 630.72 536.63
  L 630.78 536.66
  A 2.38 2.37 -73.4 0 1 632.20 539.30
  L 629.75 552.14
  Z"
/>
<path fill="#26503d" d="
  M 766.02 545.66
  A 0.59 0.59 0.0 0 0 766.20 546.54
  C 768.18 547.60 772.69 549.82 774.23 551.94
  C 777.84 556.91 774.37 561.10 769.64 563.26
  Q 765.19 565.30 760.14 564.97
  A 2.97 2.97 0.0 0 1 757.38 561.72
  L 757.40 561.52
  A 3.24 3.24 0.0 0 1 760.76 558.60
  Q 765.82 558.79 768.91 556.85
  A 1.04 1.03 -38.0 0 0 769.11 555.25
  C 765.58 551.59 755.78 550.66 761.18 542.95
  Q 764.71 537.91 771.05 536.68
  A 3.82 3.81 -18.2 0 1 775.22 538.78
  L 775.29 538.92
  A 2.18 2.18 0.0 0 1 773.62 542.01
  Q 768.27 542.76 766.02 545.66
  Z"
/>
<path fill="#26503d" d="
  M 575.96 587.03
  L 575.70 587.14
  A 2.81 2.81 0.0 0 1 572.04 585.71
  C 569.81 580.77 570.85 576.00 571.78 572.02
  Q 573.73 563.76 579.16 541.13
  A 2.94 2.92 -76.7 0 1 582.67 538.95
  L 582.84 538.99
  A 2.78 2.77 -76.0 0 1 584.89 542.41
  Q 580.93 557.10 577.51 572.77
  Q 576.92 575.47 576.67 579.53
  Q 576.61 580.44 577.63 583.12
  A 3.07 3.07 0.0 0 1 575.96 587.03
  Z"
/>
<path fill="#26503d" d="
  M 564.74 544.03
  L 564.84 544.08
  A 3.11 3.10 -69.4 0 1 566.39 547.51
  Q 562.27 565.31 559.89 578.18
  Q 559.39 580.87 559.73 585.45
  A 2.68 2.68 0.0 0 1 557.14 588.32
  L 556.92 588.33
  A 2.96 2.95 85.5 0 1 553.89 585.73
  Q 553.33 581.27 554.37 576.37
  Q 557.91 559.68 561.94 545.22
  A 1.95 1.94 -67.9 0 1 564.74 544.03
  Z"
/>
<path fill="#26503d" d="
  M 715.14 562.57
  C 712.49 565.21 710.36 568.10 706.53 568.79
  C 703.17 569.39 700.18 567.51 699.98 564.01
  C 699.61 557.74 707.51 545.98 714.24 545.60
  A 1.68 1.64 59.4 0 1 715.24 545.87
  Q 716.82 546.88 718.21 547.10
  C 720.39 547.46 722.15 548.68 721.87 550.94
  C 721.53 553.73 720.25 556.83 721.84 560.20
  A 1.43 1.43 0.0 0 0 722.53 560.89
  Q 722.86 561.05 724.37 561.45
  Q 725.59 561.78 725.90 562.42
  C 727.34 565.36 723.70 567.11 721.26 566.91
  C 718.91 566.72 717.42 564.39 716.34 562.70
  A 0.78 0.78 0.0 0 0 715.14 562.57
  Z
  M 714.5518 551.0369
  A 7.05 2.02 -52.5 0 0 708.6574 555.4003
  A 7.05 2.02 -52.5 0 0 705.9682 562.2231
  A 7.05 2.02 -52.5 0 0 711.8626 557.8597
  A 7.05 2.02 -52.5 0 0 714.5518 551.0369
  Z"
/>
<path fill="#26503d" d="
  M 682.38 565.59
  L 682.42 565.63
  A 4.66 4.66 0.0 0 0 686.43 566.66
  Q 689.80 565.93 693.69 563.93
  Q 695.07 563.23 696.38 563.57
  A 1.83 1.65 -66.4 0 1 697.26 566.22
  Q 696.44 567.56 694.60 568.87
  C 689.65 572.39 682.41 574.82 678.05 569.40
  C 676.19 567.07 676.16 564.56 675.47 561.08
  A 1.37 1.36 59.0 0 1 675.74 559.97
  Q 676.97 558.45 678.43 555.80
  C 680.52 552.03 686.76 544.70 691.63 546.92
  Q 696.03 548.93 693.97 554.48
  Q 691.65 560.74 682.85 563.38
  A 1.29 1.29 0.0 0 0 682.38 565.59
  Z
  M 689.3054 552.3002
  A 3.47 0.92 -43.3 0 0 686.1490 554.0104
  A 3.47 0.92 -43.3 0 0 684.2546 557.0598
  A 3.47 0.92 -43.3 0 0 687.4110 555.3496
  A 3.47 0.92 -43.3 0 0 689.3054 552.3002
  Z"
/>
<path fill="#26503d" d="
  M 653.05 569.30
  A 0.58 0.57 40.8 0 0 652.06 569.37
  Q 649.78 573.99 647.05 575.38
  A 2.98 2.93 28.7 0 1 645.99 575.68
  C 642.71 575.97 641.34 571.64 641.45 569.00
  Q 641.73 562.49 642.17 558.88
  Q 642.45 556.61 643.43 554.93
  A 1.94 1.94 0.0 0 1 646.61 554.68
  C 647.70 556.01 647.18 557.98 647.17 559.30
  Q 647.13 564.26 646.46 566.50
  A 0.56 0.56 0.0 0 0 647.39 567.07
  Q 648.10 566.39 649.97 563.42
  C 650.74 562.21 651.19 560.47 652.25 559.29
  C 653.38 558.04 655.93 558.19 656.66 559.62
  Q 657.04 560.36 657.02 562.45
  Q 657.00 564.71 658.09 566.95
  A 1.31 1.31 0.0 0 0 660.24 567.26
  Q 664.54 562.52 666.14 553.83
  A 2.75 2.74 -82.6 0 1 669.04 551.59
  L 669.21 551.61
  A 2.34 2.33 -83.5 0 1 671.35 554.30
  Q 669.59 565.49 663.57 572.02
  Q 660.03 575.86 655.96 573.17
  C 654.69 572.34 653.85 570.48 653.05 569.30
  Z"
/>
<path fill="#26503d" d="
  M 790.02 557.89
  Q 792.35 564.53 788.50 570.40
  Q 786.63 573.26 783.53 572.96
  A 1.94 1.94 0.0 0 1 781.99 570.12
  C 783.56 567.14 786.13 565.13 784.50 560.70
  A 3.36 3.36 0.0 0 1 786.23 556.50
  L 786.46 556.39
  A 2.60 2.60 0.0 0 1 790.02 557.89
  Z"
/>
<path fill="#26503d" d="
  M 535.79 585.69
  Q 535.71 585.75 533.35 588.34
  C 531.01 590.91 526.42 593.90 522.92 592.49
  C 519.57 591.14 518.73 587.09 520.11 583.85
  C 522.11 579.15 530.09 566.39 536.40 569.10
  C 538.68 570.08 542.63 570.67 542.07 574.48
  Q 541.46 578.59 541.76 581.65
  A 2.56 2.55 -87.6 0 0 543.83 583.91
  L 546.22 584.37
  A 1.13 1.12 -20.7 0 1 546.69 584.58
  C 549.07 586.37 547.98 588.66 545.71 589.75
  Q 541.74 591.67 538.46 587.79
  Q 536.73 585.73 536.71 585.72
  A 0.76 0.75 46.7 0 0 535.79 585.69
  Z
  M 534.9204 574.2755
  A 7.41 2.23 -52.7 0 0 528.6561 578.8186
  A 7.41 2.23 -52.7 0 0 525.9396 586.0645
  A 7.41 2.23 -52.7 0 0 532.2039 581.5214
  A 7.41 2.23 -52.7 0 0 534.9204 574.2755
  Z"
/>
<path fill="#26503d" d="
  M 455.14 582.40
  A 0.80 0.79 26.5 0 0 455.55 583.62
  C 461.69 585.58 469.91 587.20 467.99 595.34
  Q 467.59 597.03 464.56 599.56
  Q 459.12 604.07 451.25 603.74
  C 444.92 603.47 446.24 595.68 451.79 597.34
  C 455.64 598.49 458.22 596.99 461.43 594.63
  Q 462.20 594.07 462.31 593.53
  A 2.40 2.15 14.6 0 0 460.62 590.98
  C 457.99 590.17 451.77 588.69 450.28 586.20
  C 446.74 580.29 454.14 575.65 459.22 573.49
  C 461.86 572.37 466.16 571.82 467.07 575.04
  Q 467.49 576.51 466.20 577.88
  A 0.91 0.90 -61.5 0 1 465.30 578.15
  Q 462.54 577.47 461.47 577.89
  Q 457.13 579.61 455.14 582.40
  Z"
/>
<path fill="#26503d" d="
  M 495.40 582.16
  A 0.66 0.66 0.0 0 0 496.59 582.36
  Q 499.92 577.27 503.86 574.09
  C 508.78 570.11 512.93 574.10 513.23 579.26
  Q 513.57 585.34 514.78 590.06
  C 515.46 592.69 512.73 594.55 510.48 593.65
  C 507.39 592.43 507.54 586.51 507.91 583.80
  A 0.93 0.90 44.0 0 0 507.90 583.50
  L 507.24 579.69
  A 0.91 0.91 0.0 0 0 505.65 579.27
  Q 501.14 584.65 496.70 592.21
  Q 495.80 593.76 494.83 594.33
  C 492.97 595.45 490.54 594.90 489.78 592.66
  Q 489.45 591.68 489.80 589.43
  Q 490.40 585.53 489.56 581.83
  A 0.62 0.62 0.0 0 0 488.44 581.62
  Q 483.44 588.88 479.94 596.96
  C 478.73 599.76 475.10 599.43 473.93 596.73
  Q 473.21 595.06 474.20 591.21
  Q 475.59 585.81 476.47 579.52
  Q 476.80 577.17 478.68 576.45
  A 2.14 1.88 70.2 0 1 481.22 577.85
  Q 481.49 578.61 481.77 580.07
  A 0.55 0.55 0.0 0 0 482.78 580.24
  Q 485.20 576.11 488.52 575.06
  C 493.14 573.58 494.48 578.55 495.40 582.16
  Z"
/>
<path fill="#26503d" d="
  M 300.16 618.24
  C 298.09 620.74 295.98 623.74 292.53 626.76
  C 287.68 630.99 279.69 629.26 279.35 621.97
  C 279.02 614.85 288.24 602.76 295.76 602.18
  A 0.77 0.52 -29.3 0 1 296.00 602.20
  L 298.72 602.87
  A 0.94 0.94 0.0 0 0 299.87 602.13
  C 300.66 597.89 300.89 595.09 302.21 590.87
  Q 303.34 587.27 304.36 582.11
  C 304.72 580.26 305.77 578.08 307.68 578.09
  A 2.13 2.12 87.6 0 1 309.77 580.02
  Q 310.23 584.96 309.37 589.59
  Q 307.70 598.59 306.46 603.47
  C 305.58 606.94 303.79 619.00 309.88 618.99
  A 1.10 1.10 0.0 0 1 310.82 619.52
  Q 311.88 621.29 311.29 622.26
  Q 309.12 625.84 305.18 624.09
  Q 302.52 622.91 300.97 618.38
  A 0.47 0.47 0.0 0 0 300.16 618.24
  Z
  M 286.45 623.49
  C 291.57 622.03 295.97 615.69 298.68 610.91
  A 1.71 1.70 36.7 0 0 298.37 608.84
  C 296.54 607.10 294.43 607.53 292.32 609.23
  C 288.81 612.05 284.41 617.95 285.12 622.63
  A 1.06 1.06 0.0 0 0 286.45 623.49
  Z"
/>
<path fill="#26503d" d="
  M 386.44 606.28
  A 1.79 1.38 31.3 0 0 385.55 603.96
  Q 379.05 600.70 379.03 600.70
  Q 372.62 597.42 376.88 591.66
  Q 380.96 586.13 387.22 584.69
  C 388.70 584.35 390.99 584.62 391.84 586.11
  Q 392.89 587.93 391.88 589.27
  A 1.38 1.36 -72.6 0 1 390.85 589.82
  Q 385.18 590.13 381.62 594.39
  A 1.08 1.08 0.0 0 0 382.03 596.08
  C 387.03 598.17 395.16 600.86 392.56 608.18
  C 391.01 612.55 382.89 614.84 378.76 615.18
  Q 375.41 615.45 373.87 613.26
  A 2.04 2.01 -65.6 0 1 373.51 612.28
  C 373.30 609.81 375.59 608.71 378.01 608.85
  C 380.20 608.98 384.86 608.21 386.44 606.28
  Z"
/>
<path fill="#26503d" d="
  M 138.44 599.99
  L 136.08 599.54
  A 1.00 0.98 -10.0 0 1 135.40 599.07
  C 133.19 595.34 139.88 591.83 142.47 590.75
  C 150.52 587.36 161.06 583.56 166.52 592.52
  A 2.39 2.22 25.5 0 1 166.84 593.33
  C 168.43 601.60 163.78 607.73 158.20 612.80
  A 0.60 0.60 0.0 0 0 158.58 613.85
  Q 161.10 613.95 165.40 615.08
  C 173.28 617.16 176.87 623.38 174.53 631.55
  Q 173.84 633.96 169.80 638.59
  C 162.25 647.28 147.10 652.36 135.08 651.80
  C 131.11 651.61 130.78 645.84 135.00 645.77
  Q 135.87 645.76 136.45 645.56
  A 0.79 0.78 79.4 0 0 136.97 644.79
  Q 136.56 635.83 136.75 633.74
  C 137.31 627.77 137.05 622.19 137.62 617.42
  Q 138.07 613.54 138.83 600.50
  A 0.49 0.48 -82.6 0 0 138.44 599.99
  Z
  M 143.94 615.08
  A 0.86 0.85 75.1 0 0 145.22 615.83
  C 151.63 612.12 160.57 604.49 162.17 596.83
  A 2.76 2.76 0.0 0 0 161.11 594.05
  C 156.69 590.77 149.35 593.15 144.70 595.20
  A 1.28 1.26 78.4 0 0 143.94 596.37
  L 143.94 615.08
  Z
  M 142.08 644.89
  A 0.79 0.78 88.0 0 0 142.98 645.73
  Q 153.72 644.06 162.84 637.36
  C 166.45 634.71 174.08 625.15 166.54 621.46
  C 161.33 618.91 155.91 618.72 150.36 620.94
  Q 147.43 622.12 144.32 622.83
  A 0.70 0.70 0.0 0 0 143.77 623.46
  L 142.08 644.89
  Z"
/>
<circle fill="#26503d" cx="270.83" cy="592.66" r="3.05"/>
<path fill="#26503d" d="
  M 341.44 615.17
  A 0.98 0.97 48.1 0 0 340.12 615.09
  C 336.29 618.25 331.38 622.12 326.05 622.54
  Q 317.54 623.21 315.13 615.59
  C 314.61 613.94 313.64 612.86 313.02 611.64
  A 1.74 1.74 0.0 0 1 313.57 609.44
  L 315.58 608.00
  A 0.96 0.95 -5.2 0 0 315.91 607.61
  Q 318.23 602.48 322.75 598.27
  C 325.84 595.39 331.20 593.97 333.49 598.55
  C 334.37 600.29 333.73 603.36 332.60 605.22
  Q 328.87 611.34 321.87 613.58
  A 1.17 1.17 0.0 0 0 321.56 615.65
  L 321.73 615.78
  A 5.28 5.27 55.5 0 0 326.01 616.58
  C 327.76 616.16 330.81 615.07 332.89 613.88
  Q 338.57 610.65 340.05 610.32
  A 0.69 0.68 -9.0 0 0 340.59 609.59
  Q 340.42 608.00 344.60 601.87
  Q 348.28 596.49 353.90 593.53
  A 3.32 3.29 40.9 0 1 356.59 593.35
  L 361.41 595.13
  A 2.99 2.98 -75.6 0 1 363.33 598.39
  Q 362.60 603.17 363.35 606.92
  A 2.42 2.42 0.0 0 0 365.28 608.83
  L 367.55 609.26
  A 1.40 1.40 0.0 0 1 368.63 610.24
  C 369.94 614.74 366.14 615.61 362.66 614.97
  A 2.26 2.17 -19.6 0 1 361.68 614.53
  Q 359.37 612.67 358.13 610.19
  A 0.62 0.62 0.0 0 0 357.08 610.09
  C 354.28 613.88 349.89 619.26 344.50 617.57
  Q 343.43 617.23 341.44 615.17
  Z
  M 356.0100 598.8880
  A 7.87 2.32 -52.6 0 0 349.3870 603.7309
  A 7.87 2.32 -52.6 0 0 346.4500 611.3920
  A 7.87 2.32 -52.6 0 0 353.0730 606.5491
  A 7.87 2.32 -52.6 0 0 356.0100 598.8880
  Z
  M 328.2031 601.7497
  A 4.14 1.33 -43.7 0 0 324.2911 603.6485
  A 4.14 1.33 -43.7 0 0 322.2169 607.4703
  A 4.14 1.33 -43.7 0 0 326.1289 605.5715
  A 4.14 1.33 -43.7 0 0 328.2031 601.7497
  Z"
/>
<ellipse fill="#26503d" cx="0.00" cy="0.00" transform="translate(187.40,604.72) rotate(-6.4)" rx="3.36" ry="3.05"/>
<path fill="#26503d" d="
  M 402.52 621.57
  C 404.20 617.32 407.22 615.73 405.79 610.37
  C 405.40 608.90 405.89 607.23 407.11 606.45
  A 2.49 2.41 -33.6 0 1 410.44 607.07
  C 413.54 611.50 411.85 617.99 408.47 621.69
  Q 406.71 623.61 404.92 624.01
  A 2.02 1.85 3.0 0 1 402.52 621.57
  Z"
/>
<path fill="#26503d" d="
  M 269.80 607.02
  Q 272.37 607.77 272.29 610.29
  Q 272.12 615.65 270.70 622.86
  A 2.34 2.13 -42.3 0 0 270.66 623.28
  L 270.70 627.74
  A 1.41 1.31 -35.3 0 1 270.57 628.36
  Q 269.56 630.59 267.02 630.15
  C 264.20 629.67 264.64 624.47 264.95 622.48
  Q 265.88 616.58 267.10 609.89
  Q 267.32 608.71 268.83 607.25
  A 0.99 0.98 -58.1 0 1 269.80 607.02
  Z"
/>
<path fill="#26503d" d="
  M 214.33 634.52
  A 0.67 0.67 0.0 0 0 213.14 634.11
  C 210.18 637.90 204.14 641.22 199.88 637.83
  C 193.73 632.91 199.99 623.39 203.62 619.40
  C 205.90 616.89 209.88 613.86 213.44 614.83
  Q 216.72 615.73 218.01 616.19
  A 3.17 3.17 0.0 0 1 220.12 619.30
  Q 219.88 625.74 220.35 629.12
  C 220.87 632.81 220.07 639.99 221.54 642.59
  A 1.47 1.47 0.0 0 1 221.31 644.35
  Q 220.26 645.40 219.86 651.70
  Q 219.22 661.65 214.58 669.44
  Q 211.57 674.47 205.70 674.76
  A 2.90 2.82 53.0 0 1 204.55 674.58
  Q 199.56 672.68 198.34 667.88
  C 196.76 661.61 199.18 656.80 202.82 651.92
  C 205.45 648.40 209.12 645.95 213.50 643.39
  A 1.66 1.66 0.0 0 0 214.33 641.95
  L 214.33 634.52
  Z
  M 213.4484 619.9139
  A 8.22 3.02 -52.9 0 0 206.0813 624.6483
  A 8.22 3.02 -52.9 0 0 203.5316 633.0261
  A 8.22 3.02 -52.9 0 0 210.8987 628.2917
  A 8.22 3.02 -52.9 0 0 213.4484 619.9139
  Z
  M 213.12 648.03
  C 207.57 651.49 200.56 661.54 204.79 667.87
  A 1.74 1.74 0.0 0 0 207.37 668.22
  C 212.30 663.99 213.88 654.63 214.22 648.68
  A 0.72 0.72 0.0 0 0 213.12 648.03
  Z"
/>
<rect fill="#26503d" x="-2.88" y="-11.23" transform="translate(185.03,630.48) rotate(6.0)" width="5.76" height="22.46" rx="2.79"/>
<path fill="#26503d" d="
  M 651.26 655.43
  Q 648.73 656.37 646.69 656.19
  A 2.45 2.20 86.9 0 1 644.68 654.18
  C 643.99 650.18 649.28 649.69 652.58 648.96
  A 3.05 3.04 -88.9 0 0 654.87 646.75
  Q 656.36 641.04 660.07 631.33
  Q 660.60 629.94 661.65 629.51
  A 1.90 1.76 71.8 0 1 664.05 630.84
  C 665.02 634.52 662.30 641.30 661.17 644.70
  Q 660.96 645.33 660.97 645.92
  A 1.13 1.13 0.0 0 0 662.38 646.98
  C 664.88 646.34 670.72 644.29 671.97 647.69
  A 2.40 2.14 -21.2 0 1 670.53 650.50
  Q 666.44 652.16 660.90 653.02
  A 3.09 3.09 0.0 0 0 658.35 655.49
  L 656.02 667.71
  A 1.41 1.41 0.0 0 0 657.65 669.36
  L 661.06 668.77
  A 1.69 1.69 0.0 0 1 662.87 669.69
  Q 664.36 672.68 661.50 674.25
  Q 654.11 678.33 650.77 670.78
  C 649.32 667.51 650.96 660.65 652.24 656.35
  A 0.75 0.75 0.0 0 0 651.26 655.43
  Z"
/>
<path fill="#26503d" d="
  M 602.90 659.17
  C 604.09 658.49 605.29 657.35 607.11 656.75
  Q 610.59 655.61 613.95 658.85
  C 616.83 661.62 616.26 663.97 616.04 668.33
  A 3.14 3.12 -29.5 0 1 615.65 669.72
  Q 608.88 682.00 594.99 681.94
  A 1.86 1.84 65.9 0 1 593.75 681.46
  C 590.39 678.44 592.32 671.96 593.36 668.37
  Q 597.13 655.32 602.57 635.60
  A 2.23 2.22 -74.9 0 1 605.27 634.04
  L 605.41 634.09
  A 2.70 2.70 0.0 0 1 607.18 637.30
  L 601.95 658.45
  A 0.65 0.65 0.0 0 0 602.90 659.17
  Z
  M 600.15 675.81
  Q 606.63 674.17 609.95 669.03
  Q 612.15 665.62 610.00 663.00
  A 1.73 1.72 51.3 0 0 607.61 662.73
  Q 601.30 667.67 599.51 675.18
  A 0.53 0.52 -0.4 0 0 600.15 675.81
  Z"
/>
<path fill="#26503d" d="
  M 761.10 654.88
  A 0.66 0.66 0.0 0 0 759.97 654.53
  Q 757.33 657.31 755.02 659.25
  C 749.03 664.28 738.97 667.42 733.74 659.84
  A 1.78 1.78 0.0 0 0 730.99 659.61
  Q 726.87 663.86 722.45 665.64
  C 714.66 668.77 707.41 665.84 706.73 656.76
  Q 706.48 653.50 707.77 651.29
  C 710.77 646.14 720.00 633.03 726.17 641.64
  C 727.78 643.89 727.12 647.03 725.53 649.34
  Q 721.54 655.15 714.35 656.47
  A 1.53 1.52 -23.8 0 0 713.41 658.89
  L 713.46 658.95
  A 4.13 4.12 -22.3 0 0 717.26 660.54
  C 722.62 659.84 726.28 657.24 730.75 654.37
  A 2.21 2.10 -25.4 0 0 731.69 651.93
  Q 731.57 651.57 731.70 650.75
  A 1.70 1.63 -22.0 0 1 732.04 649.99
  Q 734.08 647.46 737.44 642.73
  C 740.48 638.45 747.52 633.01 752.18 638.70
  A 2.61 2.57 -73.9 0 1 752.64 639.55
  C 755.07 647.07 745.19 652.20 739.74 654.39
  A 1.19 1.19 0.0 0 0 739.34 656.32
  C 741.68 658.68 744.92 658.10 747.88 656.59
  Q 755.39 652.75 760.46 648.90
  C 763.40 646.67 763.37 643.47 764.69 640.18
  C 765.57 637.97 767.35 636.54 769.48 638.06
  A 1.09 1.04 -82.3 0 1 769.90 638.64
  L 770.40 640.35
  A 0.56 0.56 0.0 0 0 771.37 640.54
  Q 773.63 637.68 776.91 635.74
  C 782.52 632.41 785.84 637.14 786.53 642.26
  Q 786.83 644.48 787.06 648.37
  A 2.87 2.82 29.6 0 0 787.42 649.63
  C 788.54 651.65 789.43 653.61 787.01 655.23
  C 782.78 658.05 780.76 653.82 780.82 650.01
  Q 780.87 646.41 780.47 642.81
  A 1.44 1.44 0.0 0 0 778.15 641.84
  C 774.34 644.79 770.05 651.48 768.01 655.73
  C 766.76 658.35 764.13 659.75 761.76 657.51
  A 0.96 0.94 -74.8 0 1 761.47 656.99
  L 761.10 654.88
  Z
  M 747.4447 642.3706
  A 3.84 1.15 -42.2 0 0 743.8275 644.0981
  A 3.84 1.15 -42.2 0 0 741.7553 647.5294
  A 3.84 1.15 -42.2 0 0 745.3725 645.8019
  A 3.84 1.15 -42.2 0 0 747.4447 642.3706
  Z
  M 721.4205 645.2887
  A 3.79 1.08 -40.3 0 0 717.8315 646.9163
  A 3.79 1.08 -40.3 0 0 715.6395 650.1913
  A 3.79 1.08 -40.3 0 0 719.2285 648.5637
  A 3.79 1.08 -40.3 0 0 721.4205 645.2887
  Z"
/>
<path fill="#26503d" d="
  M 684.57 663.88
  A 0.80 0.80 0.0 0 0 683.51 664.12
  C 682.08 666.22 680.33 668.89 678.00 669.26
  C 670.23 670.48 673.11 653.93 673.64 650.38
  A 2.73 2.72 6.9 0 1 676.61 648.06
  L 676.83 648.08
  A 2.29 2.29 0.0 0 1 678.85 650.83
  Q 677.70 656.36 678.16 660.20
  A 0.58 0.57 60.6 0 0 679.18 660.49
  Q 681.28 657.81 682.94 653.96
  Q 683.95 651.64 686.14 651.86
  A 2.34 2.34 0.0 0 1 688.22 653.88
  C 688.50 655.96 688.39 659.11 689.69 660.72
  A 1.23 1.23 0.0 0 0 691.60 660.71
  Q 696.28 654.83 697.82 646.04
  A 2.64 2.63 10.9 0 1 700.96 643.92
  L 701.09 643.95
  A 2.88 2.87 -79.6 0 1 703.34 647.22
  Q 701.47 658.98 694.72 665.31
  C 691.70 668.14 688.09 668.30 685.59 664.89
  Q 685.05 664.15 684.57 663.88
  Z"
/>
<ellipse fill="#26503d" cx="0.00" cy="0.00" transform="translate(805.51,648.33) rotate(-26.1)" rx="3.66" ry="3.36"/>
<path fill="#26503d" d="
  M 643.14 669.19
  L 643.14 669.23
  A 3.54 3.53 -25.0 0 1 641.89 672.66
  C 636.57 676.93 627.63 680.72 622.32 675.01
  C 620.81 673.38 620.79 670.64 618.70 668.89
  A 2.32 2.32 0.0 0 1 619.27 664.99
  L 620.90 664.27
  A 0.87 0.84 -83.5 0 0 621.30 663.94
  C 623.60 660.40 631.10 649.28 636.70 652.30
  Q 640.49 654.34 639.74 658.44
  C 638.74 663.95 631.75 668.14 627.00 669.20
  A 1.14 1.14 0.0 0 0 626.50 671.17
  Q 627.13 671.72 627.71 671.95
  A 5.59 5.58 46.1 0 0 632.41 672.05
  L 641.18 668.22
  A 1.43 1.43 0.0 0 1 643.14 669.19
  Z
  M 634.5438 658.0531
  A 3.69 1.06 -38.1 0 0 630.9859 659.4958
  A 3.69 1.06 -38.1 0 0 628.7362 662.6069
  A 3.69 1.06 -38.1 0 0 632.2941 661.1642
  A 3.69 1.06 -38.1 0 0 634.5438 658.0531
  Z"
/>
<ellipse fill="#26503d" cx="0.00" cy="0.00" transform="translate(522.67,655.61) rotate(-174.8)" rx="3.23" ry="2.99"/>
<path fill="#26503d" d="
  M 537.37 671.60
  C 539.86 668.06 543.41 663.71 547.57 663.86
  C 554.51 664.10 554.06 673.72 554.07 678.79
  A 2.12 2.04 -63.7 0 0 554.46 680.01
  C 554.91 680.62 555.67 680.90 555.84 681.96
  Q 556.16 683.91 554.64 685.07
  C 551.67 687.34 548.67 684.40 548.48 681.66
  C 548.24 678.29 548.84 673.84 547.57 670.73
  A 1.03 1.03 0.0 0 0 545.98 670.31
  C 541.38 673.93 537.65 680.55 534.72 686.11
  Q 533.93 687.59 531.95 687.77
  C 528.29 688.10 528.22 684.20 529.06 681.41
  Q 530.36 677.06 531.20 669.78
  C 531.35 668.42 533.17 666.45 534.76 667.40
  Q 536.61 668.50 536.21 671.14
  A 0.64 0.64 0.0 0 0 537.37 671.60
  Z"
/>
<path fill="#26503d" d="
  M 381.75 695.88
  A 0.28 0.28 0.0 0 0 382.27 696.01
  Q 385.70 690.68 390.06 687.11
  Q 391.11 686.25 394.03 685.92
  A 2.47 2.41 51.0 0 1 395.05 686.04
  C 399.98 687.80 400.31 693.28 400.86 697.83
  A 4.54 4.52 -63.3 0 0 401.41 699.50
  Q 401.97 700.51 402.36 701.30
  A 2.54 2.46 -36.9 0 1 401.91 704.13
  Q 400.08 706.07 397.85 704.99
  C 394.93 703.59 394.90 697.87 394.33 693.20
  A 1.15 1.15 0.0 0 0 392.54 692.39
  Q 390.64 693.69 388.61 696.37
  Q 387.20 698.22 381.92 706.24
  C 380.26 708.76 377.79 710.71 375.20 708.31
  A 2.08 2.01 13.5 0 1 374.66 707.46
  Q 374.19 706.02 374.32 704.01
  C 374.75 697.27 376.65 689.91 377.11 683.33
  Q 377.56 676.89 379.08 667.83
  C 379.89 662.97 384.15 664.87 384.09 668.77
  C 384.03 672.51 384.06 675.86 383.46 679.83
  C 382.32 687.40 381.47 690.66 381.75 695.88
  Z"
/>
<circle fill="#26503d" cx="416.81" cy="670.55" r="2.87"/>
<path fill="#26503d" d="
  M 362.93 685.94
  L 363.26 686.06
  A 0.19 0.17 -37.1 0 0 363.39 686.07
  C 367.00 685.43 372.02 683.79 373.20 686.32
  C 374.92 690.04 364.52 692.16 362.30 692.50
  A 1.43 1.42 3.9 0 0 361.16 693.49
  Q 358.93 700.97 358.77 707.73
  A 1.07 1.07 0.0 0 0 359.76 708.83
  L 362.49 709.05
  A 0.95 0.94 74.3 0 1 363.20 709.45
  C 365.66 712.86 361.19 715.25 358.31 715.26
  A 2.90 2.81 55.7 0 1 357.19 715.03
  C 350.70 712.21 353.04 701.04 354.84 695.68
  A 0.81 0.81 0.0 0 0 353.84 694.65
  C 351.99 695.19 349.19 696.07 347.83 694.77
  C 345.65 692.69 347.30 690.16 349.79 689.52
  Q 354.22 688.39 354.79 688.25
  A 2.74 2.72 0.7 0 0 356.79 686.31
  L 361.03 670.66
  A 1.86 1.86 0.0 0 1 363.74 669.52
  L 364.10 669.72
  A 2.99 2.98 -69.1 0 1 365.59 673.06
  L 362.57 685.27
  A 0.57 0.57 0.0 0 0 362.93 685.94
  Z"
/>
<rect fill="#26503d" x="-2.71" y="-9.80" transform="translate(518.44,679.70) rotate(12.2)" width="5.42" height="19.60" rx="2.61"/>
<path fill="#26503d" d="
  M 470.38 698.66
  L 470.69 694.65
  A 0.76 0.76 0.0 0 0 469.37 694.08
  C 465.06 698.90 455.40 700.43 454.45 691.41
  C 453.79 685.16 461.97 677.37 466.87 674.66
  A 4.16 4.15 42.5 0 1 470.55 674.50
  C 473.50 675.81 477.25 676.81 477.16 680.77
  Q 476.89 691.82 477.36 699.84
  A 1.60 1.57 50.9 0 1 477.31 700.37
  L 476.50 703.37
  A 1.74 1.68 53.5 0 0 476.44 703.82
  C 476.20 712.29 474.47 727.45 465.67 731.13
  C 459.68 733.64 455.64 730.40 453.98 724.76
  C 452.37 719.30 456.71 711.95 460.53 708.52
  Q 463.57 705.78 468.48 702.10
  A 4.76 4.76 0.0 0 0 470.38 698.66
  Z
  M 469.9524 680.2237
  A 7.25 2.71 -50.9 0 0 463.2769 684.1409
  A 7.25 2.71 -50.9 0 0 460.8076 691.4763
  A 7.25 2.71 -50.9 0 0 467.4831 687.5591
  A 7.25 2.71 -50.9 0 0 469.9524 680.2237
  Z
  M 469.07 705.15
  C 463.99 708.93 456.82 716.25 458.44 723.01
  Q 459.27 726.48 462.32 726.14
  C 464.98 725.85 467.60 719.61 468.17 717.44
  Q 469.79 711.22 470.20 705.77
  A 0.71 0.71 0.0 0 0 469.07 705.15
  Z"
/>
<path fill="#26503d" d="
  M 430.57 685.58
  A 0.44 0.44 0.0 0 0 431.39 685.70
  Q 434.25 680.53 439.21 678.21
  A 1.92 1.91 36.7 0 1 440.32 678.05
  C 444.82 678.75 445.36 682.10 443.53 685.77
  A 0.84 0.84 0.0 0 1 442.02 685.78
  Q 441.54 684.82 440.81 684.44
  A 0.91 0.90 37.1 0 0 439.76 684.58
  Q 435.89 688.20 435.34 689.11
  Q 432.76 693.44 429.61 698.54
  Q 428.57 700.21 427.63 700.61
  C 425.02 701.75 423.07 699.57 423.43 697.16
  Q 424.22 691.83 424.44 691.18
  C 425.26 688.77 424.24 682.27 427.73 681.65
  A 2.14 1.92 -7.8 0 1 430.21 683.32
  Q 430.33 684.47 430.57 685.58
  Z"
/>
<rect fill="#26503d" x="-2.88" y="-9.29" transform="translate(412.71,694.22) rotate(11.1)" width="5.76" height="18.58" rx="2.76"/>
<path fill="#26503d" d="
  M 330.42 709.70
  A 1.16 1.16 0.0 0 0 330.36 711.90
  L 332.30 712.62
  A 4.03 4.03 0.0 0 0 334.92 712.68
  Q 340.98 710.80 347.36 706.87
  A 1.72 1.66 -28.0 0 1 349.80 707.57
  C 351.32 711.01 343.44 715.44 341.00 716.69
  C 336.22 719.14 328.83 720.08 325.12 715.38
  Q 323.54 713.39 321.71 707.83
  A 1.05 1.04 55.8 0 1 321.90 706.82
  C 323.12 705.37 324.07 704.27 324.73 702.83
  C 326.43 699.15 333.02 690.66 337.93 692.51
  C 343.07 694.45 341.95 700.33 339.16 703.71
  Q 335.47 708.16 330.42 709.70
  Z
  M 335.4535 698.9297
  A 3.15 0.93 -43.8 0 0 332.5363 700.4388
  A 3.15 0.93 -43.8 0 0 330.9065 703.2903
  A 3.15 0.93 -43.8 0 0 333.8237 701.7812
  A 3.15 0.93 -43.8 0 0 335.4535 698.9297
  Z"
/>
<path fill="#26503d" d="
  M 288.29 705.75
  Q 288.32 705.72 290.48 703.40
  C 293.41 700.27 297.16 699.07 299.84 703.42
  A 0.88 0.57 32.8 0 1 299.94 703.64
  L 300.62 705.81
  A 0.82 0.81 -37.5 0 0 302.09 706.00
  Q 304.46 702.20 307.93 699.71
  C 312.85 696.17 316.20 701.40 316.37 705.84
  Q 316.58 711.35 318.29 715.36
  A 1.49 1.47 41.2 0 1 318.36 716.32
  Q 317.77 718.63 315.36 718.65
  Q 311.48 718.69 311.25 714.23
  Q 310.98 708.93 310.60 706.09
  A 0.97 0.97 0.0 0 0 308.87 705.63
  Q 305.21 710.55 301.94 717.65
  C 301.40 718.82 299.55 720.21 298.08 720.13
  C 295.36 719.97 294.94 717.89 295.19 715.47
  Q 295.64 710.90 295.45 707.80
  A 0.55 0.55 0.0 0 0 294.59 707.38
  Q 293.02 708.44 292.11 710.12
  Q 288.59 716.57 286.39 722.58
  Q 286.10 723.38 285.57 723.76
  C 281.92 726.37 279.66 722.71 280.33 719.26
  Q 281.79 711.65 282.13 706.71
  C 282.28 704.47 283.74 702.14 286.10 703.16
  A 1.44 1.44 0.0 0 1 286.80 703.83
  L 287.77 705.71
  A 0.31 0.30 49.2 0 0 288.29 705.75
  Z"
/>
<path fill="#26503d" d="
  M 236.36 713.36
  Q 240.24 714.35 243.30 715.45
  C 253.60 719.14 250.85 727.80 243.06 731.83
  C 239.22 733.81 233.47 735.37 229.01 734.16
  Q 228.12 733.92 227.09 731.99
  C 226.01 729.98 227.69 727.74 229.53 727.20
  C 231.12 726.73 232.35 727.85 233.70 728.17
  A 2.74 2.58 46.7 0 0 234.72 728.23
  Q 240.37 727.52 243.64 723.82
  A 1.60 1.59 35.0 0 0 243.20 721.36
  Q 239.94 719.58 234.56 718.75
  C 230.65 718.15 227.44 714.87 230.00 710.99
  C 232.50 707.20 240.00 701.79 245.60 702.52
  A 3.05 3.05 0.0 0 1 248.40 705.46
  L 248.41 705.70
  A 2.15 2.14 0.9 0 1 246.13 707.91
  Q 240.44 707.53 236.08 712.44
  A 0.56 0.56 0.0 0 0 236.36 713.36
  Z"
/>
<path fill="#26503d" d="
  M 266.33 704.12
  C 273.19 705.07 278.67 710.26 275.60 717.69
  Q 273.55 722.64 269.78 725.69
  C 265.85 728.87 259.65 730.56 255.87 726.33
  C 252.96 723.09 254.13 716.68 256.11 713.18
  Q 259.57 707.05 264.80 704.38
  A 2.61 2.56 34.9 0 1 266.33 704.12
  Z
  M 270.4402 711.4007
  A 7.54 4.04 -46.5 0 0 262.3195 714.0890
  A 7.54 4.04 -46.5 0 0 260.0598 722.3393
  A 7.54 4.04 -46.5 0 0 268.1805 719.6510
  A 7.54 4.04 -46.5 0 0 270.4402 711.4007
  Z"
/>
<path fill="#26503d" d="
  M 173.48 721.55
  A 0.47 0.47 0.0 0 0 174.27 721.49
  C 176.90 716.88 185.14 709.44 190.74 713.20
  A 2.72 2.62 29.7 0 1 191.71 716.53
  C 191.07 717.88 189.73 718.45 188.18 718.53
  C 179.52 719.02 175.45 729.73 174.45 737.12
  A 3.59 3.59 0.0 0 1 170.87 740.23
  L 170.63 740.23
  A 3.05 3.05 0.0 0 1 167.60 737.11
  Q 167.86 725.41 167.47 721.91
  C 167.30 720.28 168.08 718.63 169.40 718.10
  A 2.63 2.35 70.4 0 1 172.61 719.86
  Q 172.92 720.81 173.48 721.55
  Z"
/>
<path fill="#26503d" d="
  M 146.09 719.55
  C 148.68 717.44 151.17 718.31 154.76 718.80
  C 158.64 719.34 161.82 722.35 162.53 726.46
  Q 163.43 731.67 159.72 736.50
  C 157.09 739.94 153.21 744.07 148.51 744.77
  C 143.96 745.45 140.55 743.94 138.74 739.66
  C 135.82 732.78 141.03 723.67 146.09 719.55
  Z
  M 153.74 724.73
  C 152.26 725.71 151.46 727.33 149.50 726.87
  Q 147.80 726.47 146.94 727.49
  Q 142.90 732.37 144.14 737.36
  A 2.91 2.62 -7.3 0 0 147.01 739.35
  C 151.47 739.20 162.10 727.62 154.70 724.63
  A 1.02 1.01 38.7 0 0 153.74 724.73
  Z"
/>
<path fill="#26503d" d="
  M 324.35 799.11
  L 324.42 798.72
  A 1.84 1.84 0.0 0 1 325.85 797.26
  Q 341.48 793.98 352.19 790.92
  Q 360.12 788.65 364.35 787.79
  C 369.15 786.82 375.01 785.09 380.65 783.90
  Q 396.27 780.62 405.01 778.31
  C 413.92 775.96 422.52 774.94 432.06 772.83
  Q 433.55 772.50 439.71 771.94
  C 447.75 771.21 453.98 769.90 466.89 767.60
  C 482.54 764.82 498.24 761.33 511.54 759.65
  Q 544.76 755.46 583.38 752.93
  Q 583.41 752.93 591.12 751.98
  A 2.45 2.44 -18.5 0 1 593.54 753.18
  L 593.59 753.27
  A 1.00 1.00 0.0 0 1 592.80 754.76
  Q 572.68 756.34 563.53 757.62
  Q 553.57 759.01 541.02 760.54
  Q 538.96 760.79 511.93 765.85
  Q 490.07 769.94 465.85 772.92
  Q 455.41 774.20 444.08 777.04
  Q 432.97 779.82 423.15 781.69
  C 400.97 785.92 383.04 789.08 365.81 792.83
  C 361.12 793.86 355.80 794.58 350.45 795.87
  Q 338.51 798.75 325.67 800.50
  A 1.18 1.18 0.0 0 1 324.35 799.11
  Z"
/>
</svg>
