<?xml version="1.0" encoding="UTF-8" standalone="no"?>
<!DOCTYPE svg PUBLIC "-//W3C//DTD SVG 1.1//EN" "http://www.w3.org/Graphics/SVG/1.1/DTD/svg11.dtd">
<svg xmlns="http://www.w3.org/2000/svg" version="1.1" viewBox="0.00 0.00 1254.00 1254.00">
<path fill="#1b4832" d="
  M 913.05 372.22
  Q 912.73 372.28 912.47 372.66
  C 905.69 382.39 890.95 393.93 878.41 388.54
  Q 873.73 386.53 871.97 381.88
  A 0.86 0.86 0.0 0 0 870.51 381.62
  C 866.95 385.79 861.41 390.07 855.78 386.45
  C 850.53 383.08 849.18 375.97 848.23 370.01
  A 0.94 0.94 0.0 0 0 846.58 369.55
  Q 844.50 372.01 842.88 374.89
  Q 837.63 384.21 833.90 392.60
  C 831.11 398.87 824.48 395.91 824.66 390.19
  Q 824.92 381.81 826.37 373.48
  A 12.42 12.38 49.5 0 0 826.56 371.00
  C 826.43 365.71 827.44 361.14 828.06 355.93
  Q 830.13 338.53 831.20 328.25
  Q 831.40 326.31 833.28 325.22
  C 836.21 323.53 838.24 327.46 837.93 329.82
  C 837.13 335.97 837.35 341.05 836.47 346.05
  C 835.53 351.43 835.38 359.82 834.45 365.84
  Q 833.93 369.18 833.39 375.50
  Q 833.35 376.00 833.69 376.19
  A 0.71 0.70 -62.3 0 0 834.67 375.88
  Q 837.87 369.31 842.68 363.42
  Q 845.25 360.26 846.92 359.70
  C 851.93 358.04 854.70 362.03 855.40 366.32
  C 856.05 370.26 856.99 383.10 862.57 380.44
  Q 865.52 379.03 869.00 375.69
  A 3.83 3.80 -19.7 0 0 870.16 373.26
  L 870.40 370.35
  A 5.49 5.47 58.3 0 1 870.75 368.86
  Q 870.89 368.50 873.67 361.43
  Q 875.60 356.54 881.33 351.76
  C 888.64 345.65 898.43 353.23 894.40 361.93
  Q 889.59 372.34 878.53 375.19
  A 1.11 1.11 0.0 0 0 877.75 376.58
  Q 879.28 381.57 883.42 382.80
  Q 886.21 383.62 891.76 381.17
  C 900.11 377.48 908.05 371.26 911.88 362.93
  Q 913.30 359.84 914.28 352.84
  Q 915.55 343.66 915.86 341.59
  C 916.95 334.10 918.47 327.52 919.38 320.18
  C 919.92 315.79 924.75 316.26 925.04 320.30
  Q 925.45 325.96 924.45 334.50
  Q 921.84 356.75 921.72 360.52
  Q 921.70 361.25 921.05 369.97
  Q 920.55 376.69 925.13 380.28
  A 3.63 3.62 -45.7 0 1 925.20 385.93
  L 925.13 385.98
  A 5.49 5.48 -45.4 0 1 918.22 386.03
  C 913.98 382.63 913.84 378.07 913.92 372.93
  A 0.74 0.72 -5.0 0 0 913.05 372.22
  Z
  M 888.2298 356.2706
  A 7.08 2.32 -52.4 0 0 882.0719 360.4645
  A 7.08 2.32 -52.4 0 0 879.5902 367.4894
  A 7.08 2.32 -52.4 0 0 885.7481 363.2955
  A 7.08 2.32 -52.4 0 0 888.2298 356.2706
  Z"
/>
<path fill="#1b4832" d="
  M 725.71 375.44
  A 0.57 0.57 0.0 0 0 725.07 374.89
  L 713.41 376.38
  A 3.19 3.19 0.0 0 1 709.98 374.21
  L 709.90 373.99
  A 2.52 2.52 0.0 0 1 711.64 370.67
  L 725.44 367.15
  A 1.58 1.57 85.6 0 0 726.63 365.76
  Q 727.23 359.19 728.07 354.74
  C 729.11 349.15 729.17 345.57 729.94 338.70
  C 730.22 336.20 732.31 334.15 734.74 336.22
  C 736.71 337.90 735.80 343.16 735.68 345.44
  C 735.33 351.80 734.47 358.02 734.06 364.68
  A 0.97 0.97 0.0 0 0 735.19 365.69
  C 740.44 364.80 743.80 363.60 747.41 365.76
  C 749.36 366.93 749.63 368.54 748.43 370.34
  C 747.39 371.89 745.30 371.35 743.25 371.28
  A 1.58 1.21 -43.1 0 0 742.84 371.32
  L 734.53 373.13
  A 1.89 1.89 0.0 0 0 733.05 374.83
  Q 732.08 387.50 732.05 398.01
  C 732.04 399.96 732.20 400.89 733.22 402.71
  Q 735.85 407.41 731.21 411.14
  A 2.26 2.23 -70.0 0 1 730.24 411.60
  C 726.10 412.47 724.10 407.67 724.01 404.24
  C 723.90 399.97 724.01 390.23 724.93 383.82
  Q 725.78 377.87 725.71 375.44
  Z"
/>
<path fill="#1b4832" d="
  M 946.44 378.42
  A 0.59 0.58 -84.3 0 0 945.79 378.96
  Q 944.19 399.74 941.62 418.53
  Q 941.09 422.38 937.44 422.79
  C 932.42 423.35 932.32 415.62 932.58 412.25
  Q 934.04 393.23 936.40 377.51
  Q 936.98 373.63 937.58 371.68
  C 938.99 367.05 938.56 363.65 939.85 358.26
  Q 940.50 355.53 940.93 350.71
  Q 941.19 347.74 944.34 347.83
  A 0.96 0.92 67.3 0 1 944.98 348.11
  L 946.43 349.56
  A 1.10 1.09 -53.9 0 0 948.18 349.28
  C 950.86 344.09 956.93 338.99 962.98 341.46
  C 968.34 343.65 970.71 348.79 970.80 354.19
  C 970.94 362.89 963.29 371.94 956.21 376.20
  Q 951.61 378.98 946.44 378.42
  Z
  M 946.85 370.59
  A 1.63 1.63 0.0 0 0 949.09 371.93
  Q 959.40 367.70 963.05 357.40
  C 964.65 352.88 963.13 343.35 956.08 349.36
  C 952.16 352.70 950.37 357.36 948.72 362.46
  C 947.79 365.36 946.62 368.49 946.85 370.59
  Z"
/>
<path fill="#1b4832" d="
  M 762.56 368.60
  Q 772.48 371.48 774.62 381.25
  C 776.49 389.83 770.60 400.47 762.77 404.14
  C 754.23 408.15 747.46 400.30 747.76 392.28
  Q 748.19 380.81 753.92 372.31
  Q 756.10 369.07 761.33 368.49
  A 3.41 3.28 -38.7 0 1 762.56 368.60
  Z
  M 760.64 376.31
  Q 754.15 384.22 755.14 394.74
  C 755.40 397.59 758.22 398.79 760.59 397.08
  C 766.55 392.79 771.43 382.52 764.72 376.56
  Q 763.35 375.34 761.84 375.61
  A 1.97 1.94 -74.9 0 0 760.64 376.31
  Z"
/>
<path fill="#1b4832" d="
  M 521.46 421.14
  A 0.52 0.52 0.0 0 0 522.39 421.14
  Q 525.71 414.64 529.97 408.48
  Q 532.86 404.30 535.05 402.58
  C 539.20 399.33 543.20 402.62 544.14 406.86
  Q 544.20 407.15 545.28 414.49
  Q 545.87 418.57 547.82 422.34
  A 2.60 2.59 71.8 0 0 550.54 423.72
  C 551.99 423.49 554.23 423.29 555.04 424.99
  C 557.14 429.39 551.64 432.02 548.22 431.28
  C 542.28 430.01 539.40 424.84 538.62 419.64
  Q 537.97 415.28 537.31 412.65
  A 0.88 0.88 0.0 0 0 535.77 412.31
  Q 534.19 414.25 532.13 417.87
  Q 526.96 426.96 521.71 437.18
  Q 521.21 438.14 519.46 439.18
  A 2.16 2.15 29.1 0 1 518.40 439.48
  C 513.94 439.59 512.29 434.91 512.80 431.22
  Q 513.85 423.52 514.26 416.76
  C 514.95 405.30 516.64 396.40 518.54 383.08
  Q 518.95 380.18 518.98 378.46
  C 519.01 376.55 519.03 369.82 522.44 371.01
  C 527.04 372.63 524.31 380.86 524.29 384.31
  Q 524.23 391.47 521.28 420.02
  Q 521.21 420.64 521.46 421.14
  Z"
/>
<path fill="#1b4832" d="
  M 345.37 391.23
  A 0.74 0.74 0.0 0 0 344.44 390.42
  L 327.49 395.15
  A 2.36 2.36 0.0 0 1 324.50 393.11
  L 324.49 392.95
  A 3.93 3.91 -12.3 0 1 327.03 389.00
  C 333.47 386.60 338.52 385.69 343.82 384.07
  C 350.51 382.02 357.23 381.06 363.93 379.88
  C 367.20 379.30 373.04 379.90 372.48 384.68
  A 2.25 1.96 7.4 0 1 369.98 386.35
  Q 366.95 385.93 364.44 386.42
  Q 356.71 387.91 352.86 388.79
  A 1.01 0.99 82.5 0 0 352.08 389.82
  C 352.22 393.17 352.40 396.81 351.87 399.97
  Q 351.17 404.16 350.86 410.47
  Q 350.72 413.16 349.72 420.94
  Q 348.13 433.30 346.62 450.75
  Q 346.31 454.23 346.49 457.49
  A 0.81 0.80 73.7 0 0 347.69 458.15
  Q 355.53 453.70 363.67 451.96
  C 366.00 451.47 370.03 452.46 369.66 455.49
  A 2.68 2.67 1.3 0 1 367.21 457.82
  C 360.03 458.39 354.47 462.21 348.48 466.16
  A 2.51 2.45 -3.8 0 0 347.61 467.13
  C 346.46 469.39 347.03 472.75 342.97 472.62
  A 1.10 1.07 67.6 0 1 342.23 472.30
  L 340.98 471.05
  A 1.13 1.12 53.4 0 0 339.66 470.85
  C 332.93 474.47 325.43 477.39 319.00 473.29
  C 316.01 471.38 316.37 466.86 320.01 466.29
  A 1.73 1.70 -34.7 0 1 321.10 466.48
  Q 324.80 468.49 326.74 467.99
  Q 331.84 466.68 336.94 463.88
  A 2.55 2.53 -14.3 0 0 338.27 461.67
  C 338.34 455.50 338.00 451.68 338.78 446.55
  C 339.84 439.68 340.32 429.40 341.50 420.77
  Q 343.42 406.65 345.37 391.23
  Z"
/>
<path fill="#1b4832" d="
  M 384.52 405.18
  C 386.44 401.42 388.48 397.79 388.90 393.75
  A 1.88 1.87 -69.5 0 0 388.12 392.03
  Q 385.24 390.00 384.29 386.34
  A 2.09 2.03 44.1 0 1 384.26 385.38
  Q 385.14 380.80 389.64 380.85
  A 2.49 2.40 -31.5 0 1 390.68 381.08
  C 396.40 383.71 395.58 390.80 394.46 395.95
  C 393.74 399.22 389.91 408.95 385.62 407.36
  A 1.77 1.49 23.1 0 1 384.52 405.18
  Z"
/>
<path fill="#1b4832" d="
  M 637.79 409.56
  Q 638.67 417.08 646.52 416.48
  Q 648.43 416.34 652.50 414.85
  C 657.03 413.19 661.68 409.45 665.30 406.81
  Q 666.56 405.89 667.88 405.69
  A 2.18 2.03 74.7 0 1 670.12 407.08
  Q 670.78 408.82 669.61 410.35
  C 664.66 416.80 655.57 422.46 647.81 423.66
  Q 640.61 424.78 634.52 419.99
  A 4.47 4.15 88.3 0 1 633.85 419.31
  Q 628.46 412.38 630.70 403.14
  Q 630.96 402.06 632.97 397.46
  Q 636.54 389.34 642.87 385.15
  C 649.56 380.73 657.72 386.82 655.72 394.40
  C 653.82 401.64 645.26 406.72 638.48 408.53
  A 0.95 0.95 0.0 0 0 637.79 409.56
  Z
  M 648.05 389.84
  C 643.89 390.55 640.41 396.96 639.09 400.62
  A 0.83 0.83 0.0 0 0 640.24 401.64
  C 644.28 399.59 649.52 395.73 649.04 390.59
  A 0.85 0.85 0.0 0 0 648.05 389.84
  Z"
/>
<path fill="#1b4832" d="
  M 598.45 419.25
  Q 597.79 419.39 597.13 420.13
  C 591.96 425.87 580.71 434.21 572.63 432.90
  C 565.60 431.76 560.89 427.34 559.47 420.45
  C 557.95 413.10 562.55 403.33 567.02 397.55
  C 570.16 393.49 575.54 390.43 580.42 393.79
  C 584.76 396.79 585.30 402.15 582.54 406.54
  C 579.13 411.97 574.36 416.16 568.25 417.64
  A 1.27 1.27 0.0 0 0 567.29 419.03
  C 568.71 430.28 582.15 423.94 587.16 420.40
  C 591.45 417.37 598.35 412.14 599.48 406.98
  Q 600.43 402.66 600.84 396.92
  C 601.05 393.95 603.95 391.98 606.35 394.92
  A 0.99 0.91 20.8 0 1 606.55 395.32
  L 607.24 398.29
  A 0.49 0.49 0.0 0 0 608.18 398.36
  C 609.98 393.73 612.54 389.32 617.19 386.99
  C 620.70 385.24 625.07 388.00 627.83 390.25
  C 630.56 392.46 628.23 396.20 625.28 394.98
  Q 623.74 394.34 621.88 393.46
  A 2.36 2.35 -49.0 0 0 619.55 393.63
  C 618.14 394.59 616.35 396.78 615.58 398.23
  Q 609.57 409.53 607.47 422.71
  C 606.73 427.33 600.03 428.02 599.15 422.84
  Q 598.84 421.00 599.01 419.76
  A 0.46 0.45 -2.2 0 0 598.45 419.25
  Z
  M 577.0556 399.5340
  A 6.93 2.38 -51.8 0 0 570.8997 403.5082
  A 6.93 2.38 -51.8 0 0 568.4844 410.4260
  A 6.93 2.38 -51.8 0 0 574.6403 406.4518
  A 6.93 2.38 -51.8 0 0 577.0556 399.5340
  Z"
/>
<path fill="#1b4832" d="
  M 406.50 430.66
  L 406.53 430.68
  A 0.61 0.61 0.0 0 0 407.43 430.45
  Q 411.11 423.17 414.50 418.80
  C 418.63 413.48 424.42 416.04 425.95 421.81
  Q 427.24 426.67 427.49 431.84
  A 0.66 0.66 0.0 0 0 428.67 432.22
  Q 434.05 425.29 439.53 418.03
  C 443.19 413.19 447.81 415.39 448.93 420.60
  C 449.80 424.65 449.75 434.04 453.40 439.64
  A 2.72 2.72 0.0 0 0 456.91 440.59
  Q 457.13 440.48 461.08 438.30
  A 2.12 2.11 61.3 0 1 463.97 439.16
  C 466.47 443.80 459.03 448.11 455.70 448.47
  Q 453.23 448.73 449.82 446.70
  C 444.00 443.22 442.85 434.82 441.84 428.75
  A 0.76 0.76 0.0 0 0 440.51 428.38
  Q 438.73 430.45 437.31 432.57
  Q 432.91 439.13 428.96 443.60
  C 427.03 445.79 423.64 445.89 421.63 443.66
  Q 420.61 442.52 420.36 439.72
  C 419.98 435.35 420.15 430.56 419.17 425.87
  A 0.75 0.75 0.0 0 0 417.82 425.59
  Q 415.11 429.41 412.92 434.16
  Q 409.10 442.44 405.94 450.59
  Q 404.95 453.16 401.64 453.44
  A 2.09 2.07 55.9 0 1 400.52 453.22
  C 397.49 451.69 396.92 448.96 397.69 445.59
  C 398.58 441.66 398.77 437.19 399.72 432.24
  Q 400.45 428.40 400.80 422.44
  A 2.78 2.78 0.0 0 1 403.78 419.83
  L 403.97 419.85
  A 3.15 3.15 0.0 0 1 406.88 422.78
  Q 407.16 427.01 406.14 429.36
  A 1.08 1.07 -60.8 0 0 406.50 430.66
  Z"
/>
<path fill="#1b4832" d="
  M 1007.58 497.46
  A 0.58 0.58 0.0 0 0 1006.53 497.40
  C 1003.33 503.19 995.11 511.32 987.95 508.15
  C 982.61 505.78 980.63 497.92 979.74 492.01
  Q 979.63 491.28 979.43 491.02
  A 0.98 0.98 0.0 0 0 977.85 491.06
  C 973.53 497.21 971.38 501.75 967.01 510.81
  Q 965.52 513.90 964.43 514.66
  C 960.79 517.19 957.04 513.62 957.39 509.75
  Q 958.01 502.78 959.02 494.75
  Q 961.20 477.41 963.86 452.85
  Q 964.19 449.78 966.90 450.15
  C 970.71 450.67 970.12 458.55 969.74 461.29
  Q 968.73 468.68 968.70 470.01
  Q 968.61 473.97 968.13 477.06
  C 967.16 483.33 967.10 488.07 965.99 493.99
  Q 965.94 494.30 966.07 494.87
  A 0.63 0.63 0.0 0 0 967.23 495.03
  Q 971.11 487.92 975.58 483.10
  C 979.80 478.56 985.02 481.22 986.13 486.63
  C 987.28 492.27 987.88 497.13 990.21 500.89
  A 2.59 2.58 -18.7 0 0 992.68 502.10
  Q 994.31 501.92 996.10 500.55
  Q 1007.68 491.64 1008.16 476.61
  A 0.71 0.71 0.0 0 0 1007.31 475.89
  L 998.11 477.80
  A 3.09 3.08 80.4 0 1 994.42 475.17
  L 994.37 474.75
  A 3.11 3.09 80.6 0 1 996.81 471.32
  L 1007.54 469.09
  A 2.09 2.08 -87.6 0 0 1009.13 467.62
  C 1010.47 463.07 1010.07 458.14 1010.96 454.13
  Q 1011.13 453.35 1012.50 444.05
  C 1013.22 439.14 1018.48 440.82 1018.36 445.05
  Q 1018.06 455.78 1016.82 466.28
  A 0.92 0.91 -0.7 0 0 1017.86 467.29
  Q 1023.48 466.49 1026.47 466.49
  C 1028.54 466.50 1033.21 468.33 1032.33 471.35
  Q 1031.73 473.39 1029.39 473.43
  Q 1022.86 473.54 1017.41 474.67
  A 1.54 1.53 -3.1 0 0 1016.19 476.02
  Q 1014.80 489.51 1015.16 502.24
  C 1015.21 503.92 1017.57 506.09 1017.65 508.08
  C 1017.79 511.60 1013.84 514.61 1010.82 512.19
  C 1006.89 509.05 1007.51 503.80 1007.73 498.28
  A 1.90 1.68 41.4 0 0 1007.66 497.72
  Q 1007.61 497.51 1007.58 497.46
  Z"
/>
<ellipse fill="#1b4832" cx="0.00" cy="0.00" transform="translate(898.84,473.53) rotate(-131.0)" rx="5.08" ry="4.12"/>
<path fill="#1b4832" d="
  M 790.35 494.42
  A 0.79 0.78 82.8 0 0 791.38 495.22
  L 803.10 491.29
  A 3.34 3.34 0.0 0 1 807.33 493.40
  L 807.41 493.66
  A 2.98 2.98 0.0 0 1 805.70 497.37
  Q 796.27 501.18 792.31 502.29
  C 790.37 502.83 789.71 503.57 789.52 505.68
  Q 787.98 522.82 787.69 528.27
  C 787.50 531.94 791.47 535.93 788.34 539.98
  C 786.20 542.75 781.63 541.87 780.62 538.62
  Q 779.67 535.52 779.78 531.24
  Q 780.08 519.14 781.78 507.38
  A 0.99 0.99 0.0 0 0 780.49 506.30
  C 778.25 507.03 767.44 510.99 767.15 505.48
  C 767.07 503.98 768.81 502.84 770.22 502.43
  Q 774.42 501.20 779.64 499.15
  Q 781.79 498.31 782.76 496.98
  A 1.96 1.92 67.0 0 0 783.12 496.06
  Q 783.98 488.43 785.15 481.81
  C 785.73 478.51 785.22 474.57 786.77 471.61
  A 1.82 1.79 -0.9 0 1 787.49 470.88
  Q 790.05 469.49 791.77 471.64
  C 794.09 474.53 792.62 477.46 792.12 480.72
  Q 790.64 490.40 790.35 494.42
  Z"
/>
<path fill="#1b4832" d="
  M 677.39 522.54
  A 0.61 0.61 0.0 0 0 678.28 522.08
  C 679.55 511.23 680.82 499.65 683.62 488.96
  C 684.12 487.06 684.98 484.17 686.87 483.63
  C 691.97 482.20 691.63 491.35 691.30 494.01
  Q 689.43 508.82 688.29 513.34
  C 685.59 524.04 683.77 535.55 687.74 544.72
  C 689.90 549.72 694.51 544.89 698.11 542.38
  Q 699.12 541.68 699.57 541.80
  A 2.61 2.07 -74.5 0 1 700.87 544.88
  C 699.59 549.46 692.35 555.43 687.31 553.16
  C 681.68 550.62 680.25 546.66 678.81 541.10
  A 0.68 0.68 0.0 0 0 677.56 540.95
  C 673.82 547.90 670.41 554.33 663.10 557.72
  Q 658.45 559.88 654.39 555.59
  C 646.12 546.84 658.92 523.70 668.80 520.29
  C 672.28 519.09 674.83 521.18 677.39 522.54
  Z
  M 671.13 526.45
  C 664.48 528.36 657.92 543.09 659.29 549.71
  A 1.22 1.22 0.0 0 0 660.68 550.66
  C 662.92 550.29 666.33 546.02 667.86 544.06
  Q 671.63 539.22 674.56 532.05
  A 2.38 2.34 47.5 0 0 674.62 530.42
  Q 673.93 528.29 672.28 526.74
  A 1.18 1.18 0.0 0 0 671.13 526.45
  Z"
/>
<path fill="#1b4832" d="
  M 936.97 506.61
  A 0.87 0.87 0.0 0 0 935.50 506.78
  C 932.89 512.42 927.46 519.73 920.82 520.32
  A 2.93 2.79 -36.3 0 1 919.57 520.16
  Q 912.06 517.39 913.59 509.13
  C 915.16 500.68 920.79 489.63 929.02 485.26
  C 931.36 484.01 932.87 483.47 935.31 484.89
  Q 937.19 485.98 939.04 485.71
  C 941.82 485.30 944.24 486.73 944.21 489.29
  Q 944.11 498.69 944.30 504.35
  C 944.42 508.10 943.99 511.22 943.25 514.73
  A 1.00 1.00 0.0 0 0 944.87 515.70
  Q 948.27 512.82 951.57 512.80
  A 1.77 1.70 -3.3 0 1 953.33 514.31
  Q 953.52 516.11 952.27 516.79
  C 948.76 518.69 945.87 520.26 944.19 523.04
  A 4.03 3.95 62.9 0 0 943.62 524.87
  Q 942.70 540.41 940.11 553.82
  C 938.67 561.29 933.13 580.45 921.54 576.19
  Q 916.98 574.52 914.76 570.23
  C 906.68 554.68 924.02 534.27 934.19 524.17
  C 935.69 522.68 936.50 520.77 936.57 518.37
  Q 936.70 513.52 937.02 507.25
  Q 937.04 506.69 936.97 506.61
  Z
  M 933.9279 490.5625
  A 12.77 3.51 -59.1 0 0 924.3582 499.7175
  A 12.77 3.51 -59.1 0 0 920.8121 512.4775
  A 12.77 3.51 -59.1 0 0 930.3818 503.3225
  A 12.77 3.51 -59.1 0 0 933.9279 490.5625
  Z
  M 936.06 532.17
  A 0.74 0.74 0.0 0 0 934.76 531.62
  C 930.32 536.96 925.31 543.62 922.79 550.00
  C 920.08 556.88 918.13 562.29 921.72 568.39
  A 2.46 2.46 0.0 0 0 925.25 569.16
  C 928.72 566.73 930.86 561.01 931.81 557.05
  Q 934.69 545.09 936.06 532.17
  Z"
/>
<ellipse fill="#1b4832" cx="0.00" cy="0.00" transform="translate(757.35,492.07) rotate(-131.7)" rx="5.08" ry="4.13"/>
<path fill="#1b4832" d="
  M 863.78 502.29
  A 0.43 0.43 0.0 0 0 864.61 502.40
  Q 866.68 497.42 869.47 493.55
  C 873.98 487.33 881.35 488.25 885.90 493.44
  Q 887.04 494.74 886.55 496.45
  C 885.27 500.97 881.33 497.43 879.15 496.33
  A 2.62 2.59 39.3 0 0 876.41 496.59
  Q 874.40 498.12 872.98 500.76
  Q 866.56 512.72 864.18 526.86
  Q 863.90 528.56 861.81 529.64
  C 858.93 531.14 855.94 528.55 855.71 525.74
  Q 855.39 521.99 855.99 514.75
  Q 857.23 499.71 857.41 498.81
  Q 857.94 496.07 860.50 495.94
  A 1.76 1.76 0.0 0 1 861.73 496.37
  C 863.98 498.36 863.45 499.96 863.78 502.29
  Z"
/>
<path fill="#1b4832" d="
  M 640.33 491.52
  C 644.33 491.95 643.57 497.35 643.25 500.09
  Q 641.65 513.84 640.42 523.61
  C 639.44 531.42 638.85 539.71 639.24 546.24
  Q 639.36 548.30 641.02 553.67
  A 2.39 2.32 14.9 0 0 641.61 554.65
  L 643.91 556.95
  A 1.53 1.45 -77.3 0 1 644.28 557.57
  C 645.17 560.41 642.49 563.06 639.75 563.05
  Q 637.86 563.05 636.03 561.24
  C 632.67 557.92 632.55 554.67 631.80 549.64
  Q 631.34 546.56 631.35 544.33
  C 631.42 528.19 634.45 510.65 636.97 495.72
  C 637.28 493.86 637.92 491.26 640.33 491.52
  Z"
/>
<path fill="#1b4832" d="
  M 897.08 491.31
  C 902.10 491.53 901.24 498.36 900.75 502.32
  C 899.84 509.78 898.72 513.25 901.03 518.60
  C 902.62 522.32 898.27 527.34 894.26 524.25
  Q 891.24 521.92 891.54 517.30
  Q 892.05 509.53 893.32 501.70
  C 893.76 498.96 893.48 495.77 894.57 493.23
  A 3.11 2.35 -74.5 0 1 897.08 491.31
  Z"
/>
<ellipse fill="#1b4832" cx="0.00" cy="0.00" transform="translate(1044.34,500.87) rotate(-112.6)" rx="5.50" ry="4.99"/>
<ellipse fill="#1b4832" cx="0.00" cy="0.00" transform="translate(611.96,511.13) rotate(-129.8)" rx="5.04" ry="4.21"/>
<path fill="#1b4832" d="
  M 522.26 544.64
  A 0.64 0.64 0.0 0 0 522.85 545.36
  Q 523.00 545.37 523.24 545.28
  Q 523.45 545.20 523.57 545.02
  C 527.41 539.26 533.92 531.85 541.67 536.47
  C 545.20 538.58 546.75 543.26 547.24 547.23
  C 548.03 553.62 544.38 560.45 540.15 565.87
  C 536.49 570.55 528.78 576.18 522.61 573.63
  A 0.81 0.81 0.0 0 0 521.50 574.31
  C 521.28 576.98 520.80 579.30 518.03 579.96
  C 513.99 580.92 512.01 573.62 512.31 571.23
  Q 513.90 558.45 514.65 548.87
  Q 515.03 544.01 515.75 540.68
  C 516.55 536.98 516.44 533.92 517.10 529.76
  Q 518.56 520.70 519.29 510.06
  C 519.49 507.19 522.15 505.16 524.72 507.64
  C 527.18 510.02 525.21 514.32 525.03 517.29
  Q 524.37 528.73 522.26 544.64
  Z
  M 535.78 542.07
  C 528.42 546.11 526.22 553.53 523.04 562.57
  C 521.41 567.19 525.63 568.94 529.00 566.51
  Q 538.61 559.56 539.91 547.47
  Q 540.18 544.94 538.31 542.58
  A 1.99 1.99 0.0 0 0 535.78 542.07
  Z"
/>
<path fill="#1b4832" d="
  M 755.66 509.72
  C 760.70 509.94 759.84 516.79 759.35 520.77
  C 758.44 528.25 757.31 531.73 759.63 537.10
  C 761.23 540.83 756.87 545.87 752.84 542.77
  Q 749.81 540.44 750.11 535.80
  Q 750.62 528.00 751.89 520.15
  C 752.33 517.40 752.05 514.20 753.14 511.65
  A 3.12 2.36 -74.5 0 1 755.66 509.72
  Z"
/>
<path fill="#1b4832" d="
  M 605.08 556.86
  A 0.60 0.60 0.0 0 0 604.02 556.62
  C 601.04 560.36 597.85 563.20 593.40 564.61
  C 585.86 567.01 581.05 561.95 577.83 556.02
  A 0.62 0.62 0.0 0 0 576.72 556.06
  C 573.51 563.15 562.48 575.65 555.34 563.84
  A 4.07 3.96 22.4 0 1 554.89 562.80
  C 552.48 553.91 554.93 546.61 557.11 537.63
  A 2.73 2.73 0.0 0 1 560.78 535.74
  L 560.92 535.80
  A 3.60 3.59 17.5 0 1 563.08 539.94
  C 561.76 545.71 559.92 555.12 562.00 560.05
  A 1.08 1.08 0.0 0 0 563.69 560.46
  C 570.52 554.83 574.81 545.21 577.15 537.16
  C 579.09 530.45 585.67 532.49 585.41 538.53
  Q 585.36 539.83 584.41 547.99
  A 5.37 5.17 43.9 0 0 584.47 549.57
  Q 585.33 554.17 586.18 555.57
  C 590.51 562.66 599.77 553.87 604.51 549.87
  A 2.18 2.16 -16.0 0 0 605.26 548.53
  Q 606.72 538.77 607.53 532.08
  C 607.79 529.89 610.05 528.17 612.28 529.51
  C 615.25 531.29 614.61 534.31 614.41 538.21
  Q 614.29 540.36 613.77 542.73
  C 613.08 545.84 612.32 551.80 613.93 554.93
  Q 615.12 557.25 614.95 558.19
  C 614.40 561.26 612.27 563.48 609.08 562.65
  C 606.76 562.05 605.58 559.11 605.08 556.86
  Z"
/>
<path fill="#1b4832" d="
  M 440.28 574.69
  Q 439.81 575.29 436.74 579.98
  C 434.50 583.39 429.34 588.56 424.88 587.60
  C 417.93 586.11 415.94 577.94 417.05 571.77
  Q 418.48 563.89 419.94 556.98
  A 2.86 2.85 16.5 0 1 423.76 554.91
  L 423.92 554.97
  A 3.76 3.76 0.0 0 1 426.24 559.34
  Q 424.32 567.54 424.12 573.49
  Q 424.01 576.67 424.90 579.09
  A 1.26 1.26 0.0 0 0 426.84 579.67
  C 430.28 577.12 431.83 574.05 434.76 569.23
  Q 438.51 563.06 440.07 556.73
  C 440.92 553.29 442.42 550.30 446.30 552.25
  A 2.19 2.18 -2.7 0 1 447.15 553.02
  C 449.05 556.08 448.46 558.85 447.69 562.43
  Q 447.02 565.58 447.98 571.01
  Q 448.83 575.79 452.83 577.54
  A 3.34 3.31 -45.2 0 0 455.55 577.52
  L 460.34 575.34
  A 1.65 1.62 38.1 0 1 461.32 575.23
  Q 463.11 575.59 463.87 577.29
  C 464.62 578.94 462.88 580.67 461.71 581.43
  Q 452.46 587.38 445.05 580.71
  C 443.39 579.21 442.40 577.06 441.33 574.81
  A 0.62 0.62 0.0 0 0 440.28 574.69
  Z"
/>
<path fill="#1b4832" d="
  M 359.32 579.43
  A 0.45 0.45 0.0 0 0 358.96 578.84
  Q 358.20 578.72 357.72 579.49
  C 353.33 586.51 349.62 593.43 342.29 596.23
  A 2.43 2.38 37.4 0 1 341.15 596.37
  C 334.21 595.58 332.10 588.74 333.07 582.73
  Q 334.53 573.66 336.02 567.02
  C 336.85 563.32 341.11 563.53 341.76 567.10
  Q 341.96 568.20 341.33 570.39
  Q 339.03 578.38 340.02 587.21
  A 1.31 1.31 0.0 0 0 342.20 588.04
  C 349.45 581.49 354.65 572.00 357.79 563.00
  C 358.46 561.07 360.01 559.22 361.97 559.63
  A 4.22 4.17 -2.3 0 1 365.10 562.48
  C 365.68 564.33 366.17 567.00 366.17 568.90
  Q 366.17 585.75 366.15 586.88
  A 0.77 0.77 0.0 0 0 367.50 587.40
  Q 371.82 582.38 381.54 569.78
  C 384.18 566.37 385.89 560.92 390.51 557.74
  C 397.68 552.82 406.24 558.74 408.82 565.80
  Q 410.80 571.24 408.54 577.68
  C 405.92 585.11 396.36 597.75 386.83 591.72
  C 382.74 589.13 381.85 584.78 381.89 580.22
  A 0.68 0.68 0.0 0 0 380.66 579.82
  Q 375.85 586.51 367.99 595.98
  C 365.23 599.29 366.12 601.99 365.97 604.74
  Q 365.91 605.88 363.54 623.27
  Q 363.22 625.68 361.27 633.77
  C 360.11 638.58 356.86 644.98 352.52 647.24
  C 347.45 649.89 341.96 647.37 339.48 642.43
  C 335.79 635.08 341.42 623.73 345.60 616.79
  Q 350.85 608.09 357.16 599.56
  A 6.22 6.21 -25.4 0 0 358.39 596.10
  Q 358.69 589.61 358.83 581.78
  Q 358.85 580.76 359.32 579.43
  Z
  M 397.45 562.56
  A 1.50 1.48 -57.6 0 0 395.83 562.93
  Q 392.45 566.49 391.24 569.97
  Q 389.34 575.39 389.26 575.72
  A 7.08 5.12 85.7 0 0 389.09 576.68
  C 388.75 579.19 388.63 583.21 390.42 585.26
  A 2.46 2.30 -37.0 0 0 393.56 585.59
  Q 398.77 582.11 401.35 576.15
  C 403.49 571.22 403.02 564.68 397.45 562.56
  Z
  M 357.31 610.50
  Q 356.87 610.54 356.74 610.73
  C 353.14 615.80 341.81 633.76 346.05 640.49
  A 2.06 2.03 51.7 0 0 349.21 640.88
  Q 352.06 638.08 353.25 633.98
  Q 356.55 622.61 357.83 611.02
  A 0.47 0.47 0.0 0 0 357.31 610.50
  Z"
/>
<path fill="#1b4832" d="
  M 818.12 633.88
  Q 818.74 637.40 814.96 637.26
  C 798.64 636.67 782.24 638.30 766.19 640.75
  Q 759.23 641.81 756.82 642.11
  Q 748.93 643.07 747.44 643.30
  Q 699.84 650.58 684.88 653.16
  Q 667.22 656.21 623.38 665.14
  Q 620.93 665.63 608.43 668.84
  C 604.90 669.75 601.15 669.91 597.57 670.85
  Q 586.69 673.70 576.79 676.01
  Q 554.28 681.27 536.77 685.51
  C 534.27 686.12 526.82 687.94 525.87 685.23
  A 2.45 2.45 0.0 0 1 527.19 682.18
  Q 531.59 680.23 536.69 678.94
  C 550.89 675.33 567.61 670.70 585.11 666.56
  Q 598.18 663.47 613.35 659.74
  Q 614.78 659.38 616.22 659.09
  Q 660.01 650.27 687.29 645.91
  C 690.68 645.37 694.09 644.37 697.00 643.96
  Q 711.86 641.88 729.79 639.13
  Q 737.00 638.02 774.08 634.26
  C 778.69 633.79 782.82 634.16 787.17 633.54
  Q 789.23 633.25 792.38 633.24
  Q 802.11 633.23 811.25 632.65
  Q 814.40 632.45 817.38 633.11
  A 0.95 0.94 -89.2 0 1 818.12 633.88
  Z"
/>
<path fill="#1b4832" d="
  M 911.89 831.69
  A 1.38 1.38 0.0 0 1 909.76 830.85
  Q 909.09 827.78 908.89 823.84
  Q 908.74 821.09 905.35 814.88
  C 898.61 802.53 892.67 791.83 889.12 779.94
  C 887.04 773.01 887.13 762.65 890.50 755.67
  C 894.76 746.83 905.62 738.59 916.00 741.64
  Q 931.22 746.12 935.94 761.47
  A 1.00 1.00 0.0 0 0 937.30 762.09
  C 938.95 761.36 941.45 760.01 943.74 759.70
  Q 951.76 758.62 957.11 759.92
  C 967.50 762.44 974.24 769.65 975.91 780.47
  C 977.89 793.33 970.39 803.54 959.40 809.55
  Q 946.74 816.48 936.51 819.22
  Q 926.07 822.01 919.22 824.98
  Q 915.88 826.42 914.47 828.73
  Q 913.22 830.77 911.89 831.69
  Z"
/>
<path fill="#1b4832" d="
  M 904.80 838.02
  Q 901.08 838.81 898.36 841.61
  Q 888.85 851.41 881.61 858.35
  C 873.62 866.02 862.70 873.15 851.23 872.60
  Q 838.38 871.97 831.10 861.99
  Q 820.92 848.03 828.50 832.89
  Q 831.78 826.34 838.12 823.34
  A 0.66 0.66 0.0 0 0 838.40 822.38
  C 836.90 820.04 835.72 818.31 834.91 815.71
  Q 830.20 800.72 840.66 788.89
  C 845.60 783.32 854.82 779.52 862.22 781.52
  C 872.88 784.40 878.85 791.18 884.71 800.33
  Q 890.83 809.88 894.44 819.40
  C 897.02 826.22 900.14 830.71 905.32 834.73
  C 906.52 835.66 907.33 835.31 908.58 834.90
  A 1.66 1.45 -19.6 0 1 910.57 835.69
  Q 911.36 837.69 910.09 838.84
  A 2.72 2.13 -39.3 0 1 906.42 838.92
  Q 906.11 838.47 905.69 838.19
  A 1.14 1.12 55.5 0 0 904.80 838.02
  Z"
/>
<path fill="#1b4832" d="
  M 976.75 866.37
  C 978.83 871.18 979.83 874.87 978.48 880.01
  Q 974.90 893.65 960.17 896.79
  C 958.35 897.18 956.25 896.87 954.39 896.92
  A 2.79 2.77 25.1 0 0 952.78 897.50
  Q 949.77 899.85 949.68 899.92
  C 938.26 908.67 923.26 901.10 918.13 889.35
  C 913.16 877.96 914.41 868.37 915.54 856.35
  C 916.09 850.53 916.94 845.32 913.41 840.83
  C 912.15 839.23 912.67 837.50 914.79 837.47
  Q 918.08 837.41 919.66 837.10
  A 4.56 4.38 24.4 0 0 920.96 836.64
  Q 927.29 833.20 936.40 828.93
  Q 950.71 822.23 966.99 820.49
  C 977.91 819.32 990.03 824.30 993.49 835.49
  Q 997.09 847.11 989.72 857.11
  Q 984.74 863.88 977.15 865.60
  A 0.57 0.56 -17.7 0 0 976.75 866.37
  Z"
/>
<path fill="#1b4832" d="
  M 906.39 843.52
  Q 908.06 843.91 907.51 846.31
  Q 907.07 848.26 906.37 851.08
  A 11.37 11.29 51.1 0 0 906.04 854.25
  Q 906.60 869.65 903.59 885.36
  Q 900.70 900.44 892.79 913.73
  C 890.76 917.13 887.62 918.12 884.14 915.44
  C 879.36 911.75 874.38 908.20 872.89 902.86
  C 871.00 896.04 874.10 889.34 877.75 883.01
  Q 882.06 875.52 887.74 867.98
  C 896.48 856.36 899.65 852.60 904.65 844.25
  Q 905.26 843.25 906.39 843.52
  Z"
/>
</svg>
