<?xml version="1.0" encoding="UTF-8"?>
<!DOCTYPE svg PUBLIC "-//W3C//DTD SVG 1.1//EN" "http://www.w3.org/Graphics/SVG/1.1/DTD/svg11.dtd">
<svg xmlns="http://www.w3.org/2000/svg" version="1.1" width="1293px" height="1217px" style="shape-rendering:geometricPrecision; text-rendering:geometricPrecision; image-rendering:optimizeQuality; fill-rule:evenodd; clip-rule:evenodd" xmlns:xlink="http://www.w3.org/1999/xlink">
<g><path fill="#a9a88c" d="M 438.64,275.83 c 0.96,0.38 1.89,0.82 2.8,1.3 c 0.52,1.68 1.51,3.01 2.96,4.01 c 0.54,2.18 -0.33,4.59 3.05,4.22 c 22.17,-2.42 44.51,-4.43 66.69,-7.57 c 0.72,0.55 2.77,0.12 2.88,1.18 c -5.56,-0.21 -10.75,2.37 -16.53,1.94 c -2.74,0.45 -5.47,1.03 -8.19,1.73 c -6.28,0.6 -12.53,1.33 -18.76,2.19 c -3.21,1.28 -7.22,0.47 -10.26,1.79 c -2.06,-0.19 -4.03,0.14 -5.92,0.98 c -3.62,0.09 -7.24,0.12 -10.86,0.11 c -3.56,-0.2 -3.14,-4.03 -4.44,-6.35 c -1.12,-1.69 -5.07,-3.12 -3.42,-5.53 Z"/></g>
<g><path fill="#c5c4aa" d="M 435.7,252.8 c 0.25,0.9 4.37,9.13 5.22,10.87 c -0.81,4.56 0.19,7.8 -2.28,12.16 c -1.65,2.41 2.3,3.84 3.42,5.53 c 1.3,2.32 0.88,6.15 4.44,6.35 c 3.62,0.01 7.24,-0.02 10.86,-0.11 c 1.89,-0.84 3.86,-1.17 5.92,-0.98 c 3.04,-1.32 7.05,-0.51 10.26,-1.79 c 6.23,-0.86 12.48,-1.59 18.76,-2.19 c 2.72,-0.7 5.45,-1.28 8.19,-1.73 c 5.78,0.43 10.97,-2.15 16.53,-1.94 c -0.36,1.37 -6.2,2.06 -7.48,2.04 c -2.1,0.46 -4.16,1.04 -6.19,1.72 c -0.77,-0.13 -1.55,-0.19 -2.33,-0.18 c -5.25,2.67 -12,0.59 -17.71,3.27 c -5.03,-0.17 -8.18,0.49 -12.89,2.12 c -3.04,-0.04 -4.66,0.57 -7.44,1.52 c -2.23,-0.02 -2.06,-0.74 -3.63,1.25 c -2.53,-0.49 -2.85,-0.12 -5.09,1.1 c -1.31,-0.06 -2.57,-0.37 -3.77,-0.92 c -5.16,0.15 -7.72,-2.09 -9.03,-6.85 c -2.02,-2.33 -4.33,-3.66 -5.26,-6.78 c 0.64,-3.93 1.5,-7.82 2.58,-11.68 c -1.34,-1.67 -2.44,-3.54 -3.28,-5.6 c -0.22,-1.63 -0.65,-3.21 -1.28,-4.73 c -0.43,-1.4 0.06,-2.22 1.48,-2.45 Z"/></g>
<g><path fill="#b7b59b" d="M 817.1,239.32 c -0.11,0.74 -0.49,1.28 -1.15,1.62 c -1.76,0.73 -3.58,1.28 -5.45,1.63 c -10.85,1.39 -21.71,2.68 -32.59,3.88 c -18.48,2.21 -36.9,5.4 -55.44,6.78 c -10.68,1.36 -21.37,2.75 -32.04,4.19 c -20.71,1.9 -41.28,5 -61.88,7.4 c -18.54,3.22 -37.35,5.23 -56.07,7.16 c -18.49,2.33 -36.98,4.67 -55.46,6.99 c -0.11,-1.06 -2.16,-0.63 -2.88,-1.18 c 2.84,-0.25 5.66,-0.72 8.47,-1.42 c 2.44,0.16 4.8,-0.17 7.08,-0.99 c 4.3,-0.23 8.59,-0.6 12.84,-1.12 c 2.59,-0.95 5.26,-1.28 8,-0.99 c 1.1,-0.15 2.16,-0.47 3.17,-0.95 c 1.94,0.08 3.88,0.07 5.82,-0.05 c 3.07,-0.59 6.13,-1.23 9.19,-1.93 c 3.05,0.18 6.04,-0.14 8.98,-0.98 c 4.62,-0.4 9.25,-0.8 13.87,-1.2 c 1.05,-0.14 2.07,-0.42 3.05,-0.83 c 1.3,0.01 2.61,-0.03 3.91,-0.11 c 4.04,-0.6 8.08,-1.21 12.11,-1.85 c 2.42,0.15 4.75,-0.19 7.01,-1.04 c 2.34,-0.01 4.68,-0.12 7.01,-0.33 c 3.03,-0.45 6.05,-1 9.05,-1.68 c 2.42,0.26 4.76,-0.06 7.02,-0.97 c 3.04,0.24 6.01,-0.09 8.92,-1 c 2.67,-0.05 4.56,0.35 7.02,-1.05 c 1.63,0 3.26,-0.04 4.89,-0.11 c 3.36,-0.63 6.74,-1.22 10.11,-1.79 c 3.09,0.21 6.1,-0.14 9.05,-1.06 c 3.36,0.05 6.69,-0.28 9.98,-0.96 c 3.06,0.22 6.05,-0.11 8.98,-1.01 c 2.07,0.17 4.06,-0.15 5.97,-0.96 c 2.74,0.12 5.41,-0.25 8.01,-1.1 c 2.76,0.34 5.44,0.04 8.05,-0.91 c 5.67,-0.25 11.16,-1.21 16.75,-2.07 c 1.34,0.03 2.68,-0.01 4.02,-0.12 c 9.08,-1.23 18.16,-2.52 27.23,-3.86 c 2.71,0.25 5.36,-0.06 7.94,-0.92 c 2.46,0.15 4.82,-0.22 7.1,-1.14 c 3.55,-0.14 7.08,-0.49 10.6,-1.03 c 6.13,-0.91 12.24,-1.88 18.35,-2.91 c 1.14,-0.02 2.27,-0.03 3.41,-0.03 Z"/></g>
<g><path fill="#d1d0b8" d="M 815.95,240.94 c -1.43,3.78 -3.68,2.57 -6.62,3.86 c -1.16,0.06 -2.15,-1 -3.31,-0.31 c -0.59,0.68 -1.09,1.43 -1.49,2.23 c -1.04,-0.39 -2.04,-0.85 -3,-1.39 c -1.16,2.4 -1.88,0.35 -4.09,0.67 c -2.9,-0.39 -4.09,1.81 -6.97,0.4 c -1.43,0.53 -2.74,1.28 -3.93,2.26 c -2.39,-1.39 -1.25,-1.75 -4.02,-0.66 c -1.87,0.45 -3.41,-0.07 -4.61,-1.55 c 10.88,-1.2 21.74,-2.49 32.59,-3.88 c 1.87,-0.35 3.69,-0.9 5.45,-1.63 Z"/></g>
<g><path fill="#bfbda2" d="M 433.68,223.98 c 0.2,1.04 0.49,2.05 0.85,3.05 c -0.12,0.65 -0.14,1.3 -0.06,1.95 c 3.13,2.4 3.7,4.88 5.65,8.08 c -0.31,0.76 -0.23,4.08 -1.86,2.28 c -0.45,-0.77 -1.05,-1.38 -1.81,-1.84 c 0.94,-1.97 -2.42,-5.59 -2.98,-7.51 c -1.06,-2.1 -1.38,-4.29 -0.96,-6.58 c 0.4,0.17 0.79,0.36 1.17,0.57 Z"/></g>
<g><path fill="#dadac1" fill-opacity="0.341" d="M 839.25,982.26 c -1.33,1.97 -6.35,0.55 -8.47,1.14 c -3.78,1.31 -7.89,0.76 -11.82,0.88 c 0.12,-0.38 0.37,-0.66 0.75,-0.81 c 3.13,-0.42 6.01,0.07 9.03,-1.11 c 3.51,-0.12 7.01,-0.16 10.51,-0.1 Z"/></g>
<g><path fill="#dcdcc3" fill-opacity="0.286" d="M 426.05,212.75 c -0.35,1.65 -4.35,0.7 -5.56,1.09 c -1.09,0.17 -2.15,0.44 -3.18,0.82 c -3.88,-0.09 -7.74,0.04 -11.6,0.41 c 0.4,-0.75 1.03,-1.18 1.9,-1.3 c 2.87,-0.09 5.75,-0.1 8.63,-0.02 c 2.72,-1.97 6.65,-0.6 9.81,-1 Z"/></g>
<g><path fill="#d9d8bd" fill-opacity="0.314" d="M 800.13,986.38 c 0.03,0.42 -0.17,0.7 -0.58,0.82 c -2.35,0.07 -4.7,0.11 -7.05,0.1 c -2.47,0.78 -5,1.08 -7.6,0.92 c 0.51,-1.35 3.63,-1.11 4.85,-1.84 c 3.47,-0.05 6.93,-0.05 10.38,0 Z"/></g>
<g><path fill="#dcdbc4" stroke="#dcdbc4" stroke-width="0.5" d="M 839.25,982.26 c -3.5,-0.06 -7,-0.02 -10.51,0.1 c -3.02,1.18 -5.9,0.69 -9.03,1.11 c -0.38,0.15 -0.63,0.43 -0.75,0.81 c -1.8,0.02 -3.59,0.03 -5.39,0.04 c -2.9,0.97 -5.9,1.29 -8.98,0.95 c -1.68,0.29 -2.4,1.37 -4.46,1.11 c -3.45,-0.05 -6.91,-0.05 -10.38,0 c -1.22,0.73 -4.34,0.49 -4.85,1.84 c -2.79,0.12 -5.59,0.14 -8.38,0.06 c -3.42,1.69 -8.25,0.96 -12.05,0.98 c -0.98,0.3 -1.95,0.65 -2.9,1.06 c -2.38,0.01 -4.76,-0.01 -7.14,-0.06 c -3.16,1.55 -5.49,0.9 -8.9,1.04 c -4.5,1.87 -11.12,0.75 -16.04,0.96 c -2.93,1.4 -4.77,1.01 -7.96,1.09 c -3.57,1.63 -7.16,0.73 -11.01,0.91 c -3.34,1.69 -5.39,0.99 -9.03,1.02 c -3.55,1.68 -6.2,0.86 -10.02,0.93 c -3.34,1.53 -5.3,1.09 -8.94,1.08 c -3.26,1.75 -5.46,0.81 -8.98,0.98 c -4.37,2.11 -13.51,-0.24 -16.04,1.89 c -1.92,0.11 -3.85,0.17 -5.78,0.17 c -1.81,1.44 -4.04,1.02 -6.21,0.93 c -4.45,1.94 -9.3,0.72 -14.09,0.99 c -0.95,0.33 -1.89,0.7 -2.83,1.09 c -1.95,-0.04 -3.9,-0.04 -5.84,0 c -2.08,1.68 -4.79,0.81 -7.24,0.91 c -4.12,1.8 -7.64,0.79 -12.03,1.02 c -4.11,1.85 -7.63,0.77 -12,1.03 c -3.63,1.66 -6.89,0.7 -10.77,1.11 c -2.11,1.77 -8.48,0.49 -11.29,0.86 c -2.82,1.25 -4.68,1.01 -7.72,1.07 c -2.06,1.72 -7.57,0.77 -10.19,0.95 c -3.55,1.55 -6.2,0.99 -10.02,0.96 c -3.74,1.86 -6.71,0.76 -10.72,1.11 c -2.07,1.6 -3.68,0.67 -6.07,1.02 c -2.27,1.64 -6.57,0.83 -9.26,0.85 c -1,0.32 -1.99,0.67 -2.98,1.06 c -4.17,0.33 -8.08,-0.92 -11.91,1.05 c -1.92,0.02 -3.84,0.02 -5.75,0.01 c -3.46,2.43 -9.86,-0.5 -14.26,1.92 c -2.66,0.1 -5.32,0.1 -7.98,0.01 c -3.57,1.66 -6.22,0.81 -10.05,1.04 c -3.62,1.51 -6.12,0.9 -9.98,0.91 c -3.34,1.54 -5.47,0.97 -9.09,1.05 c -4.4,2.37 -8.6,-0.32 -12.87,2.04 c -3.65,0.25 -5.7,-0.79 -9.03,1.04 c -1.93,-0.08 -3.86,-0.09 -5.79,-0.02 c -3.18,1.98 -9.5,0.55 -13.25,0.95 c -2.92,1.42 -4.56,0.98 -7.72,1.05 c -3.01,1.98 -9.64,0.59 -13.26,0.9 c -3.59,1.69 -6.11,0.95 -9.99,1.04 c -3.2,1.56 -5.56,0.8 -8.98,1.05 c -4.77,2.25 -9.35,-0.33 -13.98,2.01 c -2.35,0.02 -4.7,-0.01 -7.06,-0.09 c -3.21,1.59 -5.31,0.88 -8.78,1.15 c -0.73,0.52 -1.55,0.83 -2.44,0.92 c -3.26,-0.74 -8.09,0.26 -11.58,0.08 c -3.27,0.92 -6.6,1.25 -10,1 c -0.41,0.15 -0.62,0.44 -0.64,0.88 c -3.39,0.1 -5.4,-0.52 -8.55,0.98 c -2.34,0.07 -4.69,0.07 -7.04,0 c -2.94,1.43 -6.71,1.21 -9.96,0.83 c -2.67,-0.73 -1.46,-4.32 -1.91,-6.3 c -1.71,-2.41 -0.66,-6.47 -0.91,-9.28 c -1.46,-3.32 -0.89,-5.48 -1,-9.01 c -1.98,-4.86 -0.7,-9.79 -1.04,-14.94 c -1.76,-4.36 -0.8,-8.41 -0.97,-13.04 c -0.31,-1.76 -1.31,-2.55 -1.01,-4.75 c -1.98,-2.99 -0.62,-10.64 -0.97,-14.33 c -1.87,-4.26 -0.78,-9.27 -1.03,-13.89 c -0.32,-0.99 -0.67,-1.99 -1.04,-2.98 c 0.08,-1.95 0.07,-3.9 -0.02,-5.85 c -1.93,-2.6 -0.53,-9.89 -0.92,-13.23 c -2.12,-4.13 0.16,-7.91 -2.03,-11.91 c 0.04,-1.28 0.02,-2.55 -0.06,-3.82 c -1.82,-2.26 -0.53,-7.42 -0.91,-10.27 c -0.28,-1.02 -0.62,-2.03 -1.02,-3.02 c -0.28,-3.72 0.71,-6.44 -1,-9.91 c -0.42,-4.56 0.99,-9.8 -1.02,-13.98 c -0.33,-4.12 0.94,-7.32 -1.03,-11.12 c 0.02,-1.24 0,-2.48 -0.05,-3.72 c -0.7,-1.08 -1,-2.27 -0.89,-3.55 c 0.24,-0.86 0.35,-1.74 0.32,-2.64 c -0.36,-2.95 -0.49,-5.91 -0.4,-8.87 c -0.53,-1.63 -0.86,-3.29 -0.97,-4.99 c -0.23,-0.36 -0.56,-0.58 -0.97,-0.66 c -0.02,-3.77 -0.03,-7.54 -0.03,-11.31 c -1.92,-2.89 -0.57,-11.57 -0.92,-15.27 c -2.27,-4.37 0.21,-8.49 -2,-12.9 c -0.18,-3.11 0.52,-5.14 -1.03,-8.02 c 0.02,-3.66 0.04,-7.33 0.04,-11 c -1.46,-3.34 -1.07,-5.35 -1.04,-8.96 c -1.55,-3.48 -0.93,-6.31 -0.98,-10.03 c -1.73,-3.8 -0.65,-6.79 -1.09,-10.8 c -0.42,-0.7 -0.72,-1.45 -0.91,-2.24 c -0.25,-4.05 0.77,-7.2 -1.07,-10.96 c -0.15,-3.59 0.7,-5.64 -0.97,-8.92 c -0.14,-3.66 0.72,-6.73 -0.95,-10.12 c 0.01,-1.99 0.01,-3.99 0.02,-5.98 c -1.6,-3.35 -1.03,-5.42 -1.05,-9.06 c -2,-4.42 -0.66,-9.15 -0.98,-13.91 c -1.47,-3.28 -0.93,-5.53 -0.99,-9.04 c -1.78,-3.72 -0.8,-6.83 -1.06,-10.8 c -1.89,-2.06 -0.56,-7.55 -0.98,-10.26 c -1.76,-3.82 -0.79,-6.64 -1.03,-10.7 c -0.5,-0.67 -0.83,-1.41 -0.99,-2.22 c -0.3,-3.74 0.82,-6.55 -1.01,-9.98 c -0.3,-3.73 0.9,-6.59 -0.97,-10.01 c -0.33,-4.26 0.87,-8.04 -0.94,-12.02 c -0.47,-3.45 0.77,-5.74 -1,-8.97 c -0.06,-1.94 -0.11,-3.88 -0.13,-5.82 c -1.79,-2.12 -0.53,-6.38 -0.97,-9.01 c -1.73,-2.36 -0.74,-6.44 -0.91,-9.23 c -1.8,-3.86 -0.71,-6.89 -1.04,-11 c -1.49,-3.12 -0.81,-5.42 -1.1,-8.75 c -1.73,-2.57 -0.49,-9.07 -0.92,-12.27 c -2.31,-4.41 0.34,-8.52 -1.96,-12.96 c -0.38,-3.72 0.76,-6.52 -1.03,-9.97 c -0.05,-3.44 0.54,-5.86 -1.02,-9.03 c 0.06,-2 0.08,-4.01 0.05,-6.01 c -1.61,-3.29 -0.96,-5.39 -1,-8.95 c -1.02,-2.84 -1.38,-5.77 -1.09,-8.79 c -1.83,-2.61 -0.6,-9.99 -0.94,-13.29 c -1.59,-3.49 -0.74,-5.96 -1.04,-9.67 c -1.76,-2.7 -0.63,-6.07 -1,-9.08 c -1.74,-2.45 -0.77,-7.31 -0.89,-10.21 c -1.53,-3.27 -1.07,-5.21 -1.1,-8.77 c -1.84,-2.19 -0.67,-8.39 -0.96,-11.25 c -1.32,-3.16 -0.9,-5.42 -1.11,-8.78 c -1.78,-2.33 -0.48,-6.12 -1.03,-8.9 c -1.67,-2.45 -0.53,-8.24 -0.83,-11.25 c -1.51,-3.29 -0.92,-5.32 -1.14,-8.84 c -0.47,-0.66 -0.76,-1.38 -0.89,-2.17 c -0.1,-3.46 0.55,-5.86 -0.99,-9.07 c 0.04,-2.25 0,-4.5 -0.12,-6.75 c -1.78,-2.54 -0.49,-8.84 -0.96,-11.95 c -0.43,-0.72 -0.73,-1.48 -0.9,-2.29 c -0.12,-3.29 0.43,-4.92 -1.02,-7.93 c -0.28,-3.62 0.61,-5.63 -0.97,-9.04 c -0.31,-3.55 0.59,-5.68 -1.01,-9.01 c 0.72,-4.39 -1.57,-7.66 -1.01,-12.02 c 0.6,-2.58 1.97,-2.25 -0.4,-4.28 c -1.73,-2.92 0.6,-10.49 -1.62,-14.7 c 0,-2.25 0,-4.5 0.01,-6.76 c -1.88,-2.27 -0.51,-7.19 -1.09,-10.05 c -1.81,-2.56 -0.49,-7.85 -0.99,-10.95 c -1.37,-2.01 -0.88,-3.77 -1.06,-6.06 c -1.52,-2.44 -0.63,-7.37 -0.89,-10.23 c -2.58,-5.25 0.61,-11.33 -1.99,-16.92 c 0.29,-2.44 -0.03,-4.79 -0.98,-7.03 c 0.01,-1.67 -0.78,-4.71 1.71,-4.88 c 2.68,0.11 5.36,0.14 8.04,0.08 c 3.92,-1.72 6.92,-0.8 11.06,-0.98 c 2.91,-1.15 4.64,-0.96 7.75,-1.11 c 2.51,-1.82 7.24,-0.61 10.24,-0.88 c 4.04,-1.95 7.68,-0.71 12.03,-1.01 c 3.72,-1.77 6.96,-0.8 10.95,-1.06 c 3.5,-1.54 6.06,-0.69 9.74,-1.07 c 2.13,-1.63 6.71,-0.7 9.3,-0.85 c 3.51,-1.82 6.14,-0.88 9.98,-1.03 c 3.62,-1.45 6.81,-1.02 10.67,-1.07 c 2.3,-1.78 6.57,-0.64 9.35,-0.92 c 3.77,-1.81 6.92,-0.9 11,-1 c 4.22,-1.88 8.48,-0.72 12.99,-0.97 c 3.6,-1.72 5.84,-0.85 9.69,-1.1 c 2.83,-2.01 10.68,-0.51 14.27,-0.92 c 3.35,-1.51 5.36,-1.02 8.99,-1.01 c 3.88,-1.73 6.95,-0.89 11.08,-1.02 c 3.54,-1.78 10.84,-0.78 14.97,-0.96 c 3.25,-1.25 5.33,-1.23 8.83,-1.03 c 0.61,0.07 1.06,-0.14 1.36,-0.65 c 3.86,-0.37 7.72,-0.5 11.6,-0.41 c 1.03,-0.38 2.09,-0.65 3.18,-0.82 c 1.21,-0.39 5.21,0.56 5.56,-1.09 c 3.28,-0.33 6.26,0.64 9.42,-0.72 c 1.44,0.75 3.76,2.21 1.95,3.93 c -1.05,0.15 -2.08,0.33 -3.11,0.51 c 0.96,0.83 1.58,1.85 1.87,3.07 c -0.96,1.39 -1.79,2.87 -2.5,4.44 c -0.38,-0.21 -0.77,-0.4 -1.17,-0.57 c -0.42,2.29 -0.1,4.48 0.96,6.58 c 0.56,1.92 3.92,5.54 2.98,7.51 c 0.76,0.46 1.36,1.07 1.81,1.84 c 1.63,1.8 1.55,-1.52 1.86,-2.28 c 0.93,0.91 1.17,1.98 0.71,3.21 c -1.42,2 -2.62,4.13 -3.59,6.38 c 0.74,2.94 1.18,4.15 -1.54,6.15 c -1.42,0.23 -1.91,1.05 -1.48,2.45 c 0.63,1.52 1.06,3.1 1.28,4.73 c 0.84,2.06 1.94,3.93 3.28,5.6 c -1.08,3.86 -1.94,7.75 -2.58,11.68 c 0.93,3.12 3.24,4.45 5.26,6.78 c 1.31,4.76 3.87,7 9.03,6.85 c 1.2,0.55 2.46,0.86 3.77,0.92 c 2.24,-1.22 2.56,-1.59 5.09,-1.1 c 1.57,-1.99 1.4,-1.27 3.63,-1.25 c 2.78,-0.95 4.4,-1.56 7.44,-1.52 c 4.71,-1.63 7.86,-2.29 12.89,-2.12 c 5.71,-2.68 12.46,-0.6 17.71,-3.27 c 0.78,-0.01 1.56,0.05 2.33,0.18 c 2.03,-0.68 4.09,-1.26 6.19,-1.72 c 1.28,0.02 7.12,-0.67 7.48,-2.04 c 18.48,-2.32 36.97,-4.66 55.46,-6.99 c 18.72,-1.93 37.53,-3.94 56.07,-7.16 c 20.6,-2.4 41.17,-5.5 61.88,-7.4 c 10.67,-1.44 21.36,-2.83 32.04,-4.19 c 18.54,-1.38 36.96,-4.57 55.44,-6.78 c 1.2,1.48 2.74,2 4.61,1.55 c 2.77,-1.09 1.63,-0.73 4.02,0.66 c 1.19,-0.98 2.5,-1.73 3.93,-2.26 c 2.88,1.41 4.07,-0.79 6.97,-0.4 c 2.21,-0.32 2.93,1.73 4.09,-0.67 c 0.96,0.54 1.96,1 3,1.39 c 0.4,-0.8 0.9,-1.55 1.49,-2.23 c 1.16,-0.69 2.15,0.37 3.31,0.31 c 2.94,-1.29 5.19,-0.08 6.62,-3.86 c 0.66,-0.34 1.04,-0.88 1.15,-1.62 c 2.82,-0.7 1.01,-1.45 0.22,-3.04 c 0.06,-1.66 -0.25,-3.24 -0.94,-4.75 c 0.52,-1.58 0.83,-3.2 0.93,-4.86 c 0.49,-0.48 0.98,-0.95 1.48,-1.41 c -0.35,-1.39 -0.88,-2.72 -1.59,-4 c 0.03,-0.61 0.18,-1.21 0.45,-1.77 c -0.6,-0.98 -0.6,-1.96 -0.01,-2.93 c -1.05,-0.77 -3.97,-1.3 -3,0.97 c -0.17,0.4 -0.45,0.5 -0.85,0.31 c -0.84,-1.23 -1.63,-2.51 -2.36,-3.83 c -0.49,-0.92 -3.78,-2.98 -1.81,-3.97 c 1.15,-0.23 3.18,1.99 3.17,-0.34 c -0.95,-0.39 -1.9,-0.78 -2.85,-1.18 c -1.78,-1.28 0.88,-1.66 1.55,-2.54 c 0.07,-0.51 0.02,-1.03 -0.12,-1.54 c 1.46,-2.44 2,-1.24 -0.16,-3.1 c 0.44,-1.95 0.92,-3.9 1.43,-5.84 c -0.48,-0.72 -0.98,-1.43 -1.48,-2.14 c 0.13,-0.93 0.37,-1.83 0.72,-2.71 c -1.92,-0.6 -3.73,-1.48 -5.42,-2.64 c -1.29,-1.49 -2.29,-3.17 -2.99,-5.02 c -0.98,-3.1 3.78,0.28 3.31,-3.32 c -1.63,-0.38 -3.33,-0.68 -5.08,-0.9 c -0.48,-0.46 -0.68,-1.03 -0.59,-1.73 c 0.32,-1.46 -0.19,-3.75 2.02,-3.7 c 0.3,1 -0.37,2.63 0.61,3.29 c 2.9,0.09 5.81,0.11 8.72,0.05 c 4.75,-2.19 9.51,0.25 13.99,-1.93 c 2.7,-0.01 5.39,-0.01 8.09,0 c 3.41,-1.69 6.25,-0.84 9.96,-1.08 c 4.42,-1.82 9.02,-0.63 13.71,-1.02 c 2.02,-1.59 4.67,-0.8 7.03,-0.97 c 2.54,-1.87 9.99,-0.6 13.27,-0.97 c 3.41,-1.71 6.1,-0.72 9.75,-1.05 c 1.89,-1.82 7.42,-0.57 9.99,-1.05 c 0.76,-0.48 1.58,-0.82 2.46,-1.02 c 0.87,0.3 1.77,0.45 2.69,0.45 c 2.95,-0.41 5.92,-0.54 8.89,-0.41 c 1.95,-0.69 3.96,-1.05 6.03,-1.07 c 0.39,-0.16 0.61,-0.44 0.68,-0.85 c 4.16,-0.01 8.33,0.01 12.5,0.04 c 0.99,-0.34 1.98,-0.69 2.98,-1.05 c 0.93,-0.35 6.26,0.75 6.21,-0.68 c 3.86,-0.3 7.73,-0.45 11.6,-0.45 c 3.28,-0.73 6.61,-1.09 9.99,-1.08 c 0.38,-0.14 0.65,-0.39 0.8,-0.77 c 1.73,-0.06 3.45,-0.12 5.17,-0.15 c 2.08,-1.66 6.37,-0.48 8.96,-0.95 c 2.28,-1.84 7.19,-0.51 10.05,-0.98 c 2.16,-1.66 8.49,-0.78 11.24,-0.75 c 3.06,1.17 1.39,6.08 1.78,8.59 c 1.26,2.71 1.09,3.8 1.04,6.78 c 1.75,2.15 0.69,5.7 0.97,8.3 c 1.34,2.82 0.98,4.66 1.1,7.71 c 1.77,2.63 0.65,7.17 0.88,10.23 c 1.46,3.38 1,5.36 1.02,9.02 c 1.44,3.31 0.95,5.44 0.98,9 c 1.71,2.99 0.35,5.91 2.04,9.01 c -0.02,3.19 -0.42,4.93 0.93,7.85 c 0.42,4.02 -0.72,7.26 1.03,11.03 c -0.01,1.94 0.03,3.88 0.12,5.82 c 1.55,2.36 0.69,6.46 0.87,9.2 c 1.02,3.04 1.12,4.56 1.12,7.82 c 1.73,2.22 0.64,5.63 0.88,8.27 c 1.64,3.25 0.82,5.26 1.09,8.77 c 1.7,2.45 0.57,7.24 0.95,10.16 c 1.53,3.18 0.79,5.47 1.09,8.85 c 1.72,1.89 0.57,6.53 1,8.98 c 1.33,1.96 0.89,3.99 0.93,6.24 c 2.38,4.5 -0.35,8.58 2.03,12.95 c -0.02,2.36 -0.05,4.71 -0.11,7.07 c 0.37,0.96 0.74,1.93 1.12,2.9 c -0.09,3.03 -0.11,6.05 -0.07,9.08 c 0.68,2.29 1.35,4.59 2,6.89 c 0.44,3.83 -0.88,6.44 1,10.01 c 0.19,3.58 -0.63,5.74 1.01,9.04 c 0.02,2.02 0,4.04 -0.03,6.06 c 1.86,3.91 0.75,7.73 0.99,11.95 c 0.13,0.73 0.43,1.39 0.9,1.97 c 0.23,1.6 0.3,3.2 0.22,4.82 c 1.68,2.12 0.65,6.62 0.96,9.25 c 1.26,3.07 1.05,4.66 0.92,8.05 c 1.16,2.9 1.12,4.53 1.09,7.67 c 1.9,2.49 0.62,8.16 0.89,11.22 c 0.28,1 0.63,1.99 1.04,2.96 c 0,2.26 0.01,4.52 0.04,6.78 c 1.78,2.33 0.72,7.3 1.02,10.11 c 1.92,2.23 0.52,7.06 1.06,9.89 c 1.53,2.32 0.63,4.5 1.03,7.05 c 1.72,2.2 0.49,8.35 0.82,11.21 c 1.6,3.54 0.89,6.27 1.06,10.07 c 1.14,2.72 1.17,3.99 0.93,7.03 c 1.78,3.65 0.82,7.05 1.03,11.01 c 1.25,2.86 1.1,4.82 1.01,7.92 c 1.06,2.53 1.06,4.01 1.14,6.74 c 1.69,2.34 0.56,8.32 0.89,11.26 c 2.29,4.45 -0.37,8.55 2,13.03 c -0.02,1.99 -0.03,3.99 -0.04,5.98 c 1.61,3 0.85,4.58 1.11,7.78 c 1.84,2.43 0.56,8.18 0.92,11.21 c 1.74,4.1 0.75,7.65 0.92,12.01 c 0.13,0.74 0.42,1.42 0.9,2.02 c 0.13,1.58 0.22,3.15 0.27,4.73 c 1.57,2.13 0.66,5.75 0.87,8.26 c 0.28,1.03 0.63,2.03 1.05,3.02 c 0.26,4.04 -0.78,7.13 0.97,10.94 c 0.02,1.94 0.07,3.89 0.14,5.83 c 1.7,2.41 0.55,7.29 0.84,10.18 c 2.18,4.42 -0.17,8.57 2.06,12.94 c 0.14,3.26 -0.4,4.97 0.96,8 c 0.03,2.28 0.07,4.56 0.12,6.84 c 1.81,2.46 0.64,9.16 0.88,12.28 c 1.15,2.97 0.93,4.58 1.12,7.73 c 1.61,2.15 0.69,6.59 0.88,9.2 c 1.67,3.8 0.8,6.79 1.15,10.82 c 1.61,2.09 0.59,6.6 0.84,9.17 c 0.33,1.02 0.68,2.04 1.06,3.05 c 0,3.26 0,6.52 0,9.78 c 1.79,1.69 0.62,5.69 1.07,7.96 c 1.62,2.1 0.56,4.66 1.01,7.04 c 1.66,2.11 0.68,7.61 0.84,10.27 c 1.6,3.41 0.83,6.03 1.15,9.68 c 1.79,2.56 0.63,7.29 0.88,10.3 c 0.3,1 0.66,1.99 1.05,2.97 c -0.04,1.94 -0.04,3.87 -0.01,5.81 c 1.78,2.09 0.84,6.57 0.94,9.16 c 1.68,3.59 0.98,6.09 0.99,9.98 c 0.32,1.02 0.68,2.03 1.08,3.03 c -0.02,2.28 -0.02,4.55 0.02,6.83 c 1.74,2.26 0.69,6.53 0.95,9.24 c 2.34,4.72 -0.37,9.18 2.01,13.88 c 0.02,3.37 0.02,6.73 -0.01,10.1 c 1.62,3.5 0.81,6.16 0.98,9.94 c 1.54,3.25 0.9,5.55 1.07,9.04 c 1.55,3.41 0.77,6.35 0.94,10.01 c 1.48,3.3 0.98,5.39 1.05,8.96 c 0.29,0.99 0.61,1.97 0.98,2.94 c -0.04,3.01 -0.06,6.03 -0.05,9.05 c 1.41,3.08 1.03,4.69 1.01,8.07 c 1.87,4.28 0.66,8.21 1.06,12.74 c 1.74,2.08 0.7,5.68 0.94,8.22 c 0.32,0.98 0.66,1.96 1.04,2.94 c 0.06,3.34 -0.6,5.91 0.95,8.96 c 0.35,3.75 -0.74,6.63 1.04,10.11 c 0.49,3.8 -0.92,6.42 1.01,9.95 c 0.7,6.07 -3.49,4.82 -7.84,4.79 c -3.06,1.17 -4.52,0.96 -7.76,1.07 c -3.63,2.62 -11.34,-0.66 -16.2,2 c -3.55,0.26 -5.69,-0.78 -8.96,0.98 c -2.29,-0.06 -4.57,-0.03 -6.86,0.06 c -2.36,1.74 -6.39,0.64 -9.19,0.93 c -3.24,1.33 -5.23,1.11 -8.8,1.06 c -2.88,1.97 -12.39,0.52 -16.15,0.91 c -1.02,0.28 -2.03,0.63 -3.02,1.04 c -1.91,-0.01 -3.83,0.01 -5.74,0.06 c -2.92,2.34 -10.04,-0.52 -14.27,1.94 c -3.71,0.36 -6.57,-0.7 -10.04,1.01 c -2.33,0.06 -4.66,0.04 -6.99,-0.06 c -4.35,2.44 -8.47,-0.35 -12.89,2.03 c -3.71,0.35 -6.65,-0.77 -10.08,1.01 c -3.83,0.36 -7.43,-0.73 -10.98,1.01 c -3.59,0.33 -6.69,-0.7 -9.98,1.03 c -2.29,-0.07 -4.57,-0.06 -6.86,0.05 c -2.15,1.71 -6.37,0.52 -9,0.95 c -2.45,1.89 -8.14,0.56 -11.19,1 c -3.85,1.72 -6.91,0.72 -10.99,0.99 c -3.26,1.55 -5.37,0.75 -8.83,1.04 c -2.03,1.85 -6.43,0.52 -8.98,0.98 c -2.7,1.82 -8.97,0.63 -12.23,0.93 c -2.89,1.05 -5.89,1.39 -8.99,1.03 c -1.05,0.42 -2.14,0.73 -3.25,0.96 Z M 665.93,396.94 c 0.18,1.47 1.03,2.25 2.55,2.32 c 1.84,0.55 3.06,-1.04 4.67,-1.55 c 4.41,-5.28 9.94,-21.95 6.39,-27.85 c -1.44,-2.19 -6.15,-3.9 -7.48,-0.33 c 0.36,2.31 0.59,4.64 0.7,7 c -0.8,7.51 -4.1,13.6 -6.83,20.41 Z M 640.1,414.93 c 0.61,-0.18 1.21,-0.36 1.82,-0.53 c 4.36,-1.6 8.86,-2.42 13.5,-2.47 c 4.12,-0.68 3.07,-4.5 0.55,-6.41 c -6.36,-3.24 -22.5,4.02 -29.51,5.4 c -0.79,0.24 -1.49,0.1 -2.09,-0.4 c 1.21,-2.09 2.24,-4.27 3.09,-6.56 c 2.12,-5.52 4.17,-11.07 6.13,-16.64 c -0.11,-4.38 -2.29,-5.97 -6.53,-4.78 c -4.64,11.06 -9.26,22.13 -13.87,33.2 c -10.93,4.46 -22.06,9.96 -33.17,13.79 c -2.85,0.43 -6.32,-0.57 -5.19,3.97 c 2.99,7.5 12,1.64 17.1,-0.03 c 5.35,-2.29 10.7,-4.61 16.03,-6.96 c 0.83,-0.29 1.22,0.01 1.17,0.91 c -2.67,7.82 -5.25,15.66 -7.74,23.53 c -13.4,20.35 -26.98,39.76 -48.13,52.79 c -7.3,2.78 -15.43,9.13 -19.78,-1.72 c -0.28,-2.47 -0.39,-4.94 -0.32,-7.41 c 2.74,-1.22 5.46,-2.52 8.18,-3.89 c 10.05,-7.65 16.6,-14.42 21.46,-26.39 c 0.24,-2.33 0.71,-4.61 1.41,-6.84 c -0.17,-9.7 -8.67,-12.28 -16.38,-8.11 c -12.11,8.92 -20.36,26.05 -23.37,40.51 c -8.11,10.29 -23.88,29.85 -36.45,33.61 c -8.15,2.22 -6.82,-15.6 -6.64,-19.83 c 1.12,-7.74 2.33,-15.47 3.63,-23.18 c 7.66,-30.11 18,-59.41 29.69,-88.17 c -0.11,-4.72 -5.13,-7.76 -8.47,-3.65 c -12.88,32.44 -24.27,65.57 -31.59,99.75 c -2.61,13.03 -7.24,44.94 14.82,43.26 c 7.36,-1.45 10.91,-4.5 16.41,-9.36 c 3.06,-2.95 6.04,-5.97 8.94,-9.06 c 2.98,-3.77 5.95,-7.53 8.9,-11.3 c 0.54,-0.23 0.92,-0.06 1.14,0.51 c 1.64,9.92 12.53,16 22,12.98 c 16.34,-5.87 28.32,-17.93 39.26,-30.92 c 3.63,-4.71 7.09,-9.51 10.38,-14.4 c 0.29,0.36 0.39,0.77 0.29,1.23 c -2.1,7.05 -2.09,16.43 1.19,23.08 c 3.7,5.8 10.89,6.77 16.7,3.74 c 7.24,-3.64 11.23,-8.68 16.46,-14.57 c 1.6,-3.04 5.82,-7.5 5.1,-11.11 c -0.58,-1.68 -1.58,-1.97 -3,-0.85 c -4.57,4.29 -20.79,23.55 -27.41,20.05 c -7.76,-9.56 9.37,-56.19 13.99,-68.25 c 0.72,-1.44 1.86,-2.37 3.43,-2.79 c 5.59,-2.01 11.21,-3.92 16.87,-5.73 Z M 678.72,431.07 c 0.5,14.13 16.26,15.07 26.37,19.4 c 2.17,1.43 7.11,2.33 5.66,5.91 c -1.23,6.4 -20.45,20.7 -25.88,18.28 c -0.47,-1.11 -1.23,-1.89 -2.29,-2.36 c -4.25,1.94 -3.26,8.11 1.06,9.58 c 6.16,1.97 8.91,-0.21 14.4,-2.3 c 8.27,-4.61 21.65,-13.46 20.9,-24.17 c -2.85,-12.07 -20.65,-13.85 -29.88,-18.94 c -6.89,-4.22 6.94,-15.97 10.82,-18.09 c 1.74,-2.67 6.32,-4 8.89,-6.11 c 5.76,-2.07 9.08,-5.5 15.23,-1.7 c 1.13,-0.04 1.96,-0.57 2.5,-1.59 c 1.68,-5.85 -4.37,-8.02 -9.06,-7.87 c -14.19,1.06 -29.81,13.81 -37.05,25.73 c -0.4,1.47 -0.95,2.88 -1.67,4.23 Z M 775.32,563.94 c 0.29,-0.97 0.58,-1.93 0.88,-2.9 c 2.09,-5.56 5.04,-17.42 8.56,-21.69 c 11.92,-5.06 24.17,-9.1 36.76,-12.11 c 2.3,-0.4 4.61,-0.51 6.92,-0.33 c 4.35,-5.67 -3.48,-8.03 -8.05,-6.89 c -10.32,2.09 -20.42,4.95 -30.32,8.57 c -0.55,0.32 -1.08,0.68 -1.58,1.08 c -0.79,-1.58 0.55,-3.36 0.85,-4.94 c 2.84,-7.46 5.76,-14.87 8.77,-22.22 c 0.69,-3.75 -5.46,-7.2 -7.03,-3.88 c -4.72,11.38 -9.4,22.82 -13.72,34.32 c -2.34,1.61 -4.9,2.73 -7.69,3.35 c -3.21,1.66 -6.54,2.99 -10,3.98 c -4.92,2.17 -12.77,6.73 -18.2,5.05 c -3,-0.39 -1.37,8.1 5.04,7.57 c 8.43,-0.95 17.22,-5.87 25.19,-8.8 c 0.53,-0.23 0.9,-0.09 1.13,0.42 c -0.48,1.81 -0.94,3.63 -1.36,5.47 c -5.58,15.27 -9.69,30.42 -11.71,46.54 c -0.49,8.91 -0.21,21.08 10.88,23.12 c 11.32,1.49 19.75,-9.44 26.81,-16.65 c 2.64,-4.53 8.56,-10.62 7.08,-16.2 c -0.38,-0.65 -0.91,-0.8 -1.59,-0.45 c -7.82,8.33 -17.28,20.42 -27.62,25.35 c -9.71,2.76 -7.83,-10.55 -7.16,-16.31 c 1.87,-10.6 4.26,-21.08 7.16,-31.45 Z M 540.66,591.78 c 1.37,7.93 14.74,1.15 18.46,-1.27 c 0.71,-0.26 1.09,0 1.16,0.76 c -3.27,11.03 -6.4,22.11 -9.4,33.22 c -1.49,9.77 -5.04,25.08 4.1,32.05 c 9.79,4.72 14.67,-0.24 22.33,-5.62 c 8.06,-7.5 15.95,-15.6 22.73,-24.34 c 0.36,-0.36 0.79,-0.54 1.3,-0.55 c -0.15,2.48 -0.26,5 -0.34,7.54 c 1.05,5.23 2.9,6.27 7.65,8.1 c 10.64,0.6 21.01,-16.5 25.81,-24.69 c 0.46,-0.58 0.85,-1.48 1.51,-0.57 c -0.02,11.19 6.21,20.04 18.33,15.55 c 10.92,-7.16 17.2,-17.96 25.44,-27.53 c 2.35,-3.77 4.58,-7.6 6.67,-11.52 c 0.98,-1.22 1.47,-1.05 1.46,0.53 c -0.32,0.63 -0.57,1.29 -0.76,1.97 c -1.59,9.38 -3.14,18.77 -4.64,28.15 c 0.83,5.38 5.53,6.8 9.21,2.85 c 0.41,-2 0.71,-4.02 0.91,-6.05 c 1.29,-4.21 2.51,-8.44 3.67,-12.69 c 1.46,-2.87 2.81,-5.8 4.04,-8.78 c 1.42,-1.99 2.66,-4.09 3.71,-6.31 c 2.46,-3.22 4.84,-6.51 7.15,-9.84 c 2.43,-1.91 4.72,-3.98 6.85,-6.23 c 4.2,-1.96 7.67,-4.37 12.52,-4.08 c 3.17,1.66 7.13,2.49 7.07,-2.77 c -3.13,-4.67 -4.55,-4.58 -9.94,-5.34 c -9.88,1.99 -14.81,6.21 -22.02,12.83 c -3.15,4.11 -6.2,8.29 -9.14,12.52 c 0.42,-2.83 0.75,-5.71 0.97,-8.64 c 1.42,-4.33 3.39,-12.41 -3.95,-12.4 c -3.42,0.28 -3.06,3.2 -3.78,5.67 c -5.71,11.24 -12.5,20.97 -19.97,31.07 c -4.11,4.45 -16.18,20.48 -22.28,19.86 c -5.5,-1.53 -1.22,-19.03 -1.04,-23.2 c 1.38,-4.94 2.78,-9.87 4.21,-14.79 c -0.2,-4.83 -3.41,-3.98 -6.78,-4.68 c -7.93,-10.68 -19.98,2.65 -25.45,9.19 c -3.98,6.01 -7.88,11.58 -11.07,18.14 c -1.83,1.52 -3.41,3.25 -4.76,5.19 c -7.34,8.41 -15.46,15.89 -23.26,23.84 c -3.38,2.12 -18.18,17.27 -21.26,9.52 c -2.61,-12.08 1.86,-23.1 4.29,-34.69 c 2.81,-9.32 5.88,-18.55 9.23,-27.69 c 0.25,-0.4 0.6,-0.69 1.03,-0.88 c 2.46,-0.7 4.81,-1.66 7.06,-2.89 c 6.8,-2.56 13.73,-4.61 20.79,-6.17 c 2.08,-0.49 5.4,0.98 6.01,-2.04 c 1.2,-8.49 -12.81,-4.09 -16.93,-3.06 c -4.06,1.32 -8.15,2.58 -12.26,3.79 c -0.55,0.23 -1.01,0.12 -1.38,-0.33 c 2.23,-6.64 4.64,-13.24 7.23,-19.79 c 1.47,-2.4 2.04,-2.53 1.3,-5.71 c -0.45,-2.69 -4.57,-4.52 -6.74,-2.82 c -1.15,1.53 -1.84,3.26 -2.06,5.19 c -3.75,9.24 -7.43,18.51 -11.04,27.8 c -6.19,2.78 -12.38,5.58 -18.55,8.41 c -3.69,0.35 -5.09,-0.01 -5.4,4.22 Z M 483.33,623.03 c 0.3,1.68 0.72,3.32 1.25,4.93 c 7.39,11.18 29.38,6.46 34.52,14.61 c 0.23,9.14 -20.6,23.71 -28.73,26.22 c -0.92,-0.26 -1.85,-0.48 -2.8,-0.67 c -0.53,0.09 -0.94,0.37 -1.22,0.83 c -1.3,1.73 -1.29,3.45 0.03,5.17 c 5.01,4.36 10.52,0.42 15.58,-1.69 c 9.69,-6.02 32.18,-21.23 22.85,-34.78 c -5.68,-7.42 -22.34,-8.09 -30.84,-11.13 c -1.91,-0.69 -2.53,-2 -1.83,-3.91 c 4.08,-8.46 23.96,-24.5 33.38,-24.42 c 1.08,0.42 2.09,0.99 3.03,1.7 c 2.2,0.54 3.56,-0.31 4.08,-2.55 c -1.54,-9.08 -10.56,-7.16 -16.96,-5.08 c -11.48,5.13 -29.45,17.98 -32.34,30.77 Z M 561.89,732.95 c -1.23,4.35 -2.34,8.73 -3.32,13.13 c -4.21,17.77 -9.09,35.23 -12.1,53.28 c -0.9,6.15 5.9,8.95 8.95,3.7 c 6.83,-14.93 18.08,-41.24 30.49,-51.62 c 0.83,-0.16 1.28,0.2 1.36,1.06 c 0.01,10.29 -3.15,20.83 -0.06,30.92 c 0.93,1.5 1.64,3.11 2.13,4.81 c 5.04,5.8 9.94,6.43 16.79,3.44 c 1.68,-1.41 3.49,-2.61 5.44,-3.61 c 1.41,-1.58 2.94,-3.03 4.59,-4.36 c 2.87,-3.1 5.68,-6.24 8.42,-9.43 c 0.42,0.03 0.71,0.25 0.88,0.65 c 5.5,12.28 15.21,13.48 26.9,8.82 c 5.21,-2.91 15.48,-9.43 18.55,-14.32 c 3.57,-2.16 5.92,-6.2 8.67,-9.25 c 4.53,-5.89 8.86,-11.91 12.98,-18.08 c 0.09,0.13 0.18,0.25 0.28,0.37 c -0.5,1.95 -0.75,3.95 -0.75,5.97 c -1.43,6.99 -2.51,14.04 -3.25,21.14 c 0.67,4.5 7.07,5.88 8.7,1.59 c 2.96,-18.74 14.16,-47.64 34.94,-52.14 c 1.61,0.64 3.28,1.03 4.99,1.16 c 4.71,-1.32 2.28,-6.76 -1.14,-7.89 c -11.21,-3.5 -19.78,5.2 -26.94,12.52 c -1.95,2.83 -3.98,5.59 -6.07,8.28 c -0.15,-0.11 -0.3,-0.22 -0.44,-0.33 c -0.84,-5.47 6.19,-18.12 -4.11,-17.46 c -1.33,0.26 -2.16,1.04 -2.51,2.34 c -0.17,2.29 -0.66,4.51 -1.48,6.66 c -7.89,15.32 -17.74,28.81 -30.02,40.86 c -5.83,6.07 -27.25,21.56 -31.27,6.79 c -0.08,-1.49 -1.1,-3.81 0.2,-4.95 c 12.83,-2.08 37.57,-31.82 23.5,-42.59 c -2.12,-1.2 -4.37,-1.63 -6.77,-1.3 c -10.69,2.79 -17.94,16.15 -22.18,25.58 c -0.67,2.33 -1.46,4.62 -2.37,6.86 c -0.53,2.7 -1.12,5.38 -1.76,8.03 c -5.44,6.91 -16.44,20.99 -25.46,22.13 c -5,-1.47 -3.61,-11.24 -4,-15.16 c 0.44,-7.65 2.62,-16.67 0.37,-24.13 c -1.1,-3.12 -1.99,-2.88 -4.56,-4.43 c -8.75,-2.62 -17.55,12.22 -21.99,18.02 c -2.65,4.12 -5.04,8.37 -7.16,12.76 c -0.5,-0.64 -0.59,-1.37 -0.3,-2.17 c 1.9,-7.01 3.61,-14.05 5.14,-21.15 c 5.15,-19.34 10.36,-38.6 16.15,-57.77 c 2.72,-7.29 -5.28,-11.01 -7.67,-5.52 c -4.34,15.57 -8.59,31.17 -12.74,46.79 Z M 738.11,739.96 c 0.09,3.04 1.79,2.65 2.99,4.7 c 2.21,11.36 3.48,15.8 15.49,18.6 c 11.96,0.74 23.68,-6.56 33.41,-12.78 c 3.48,-2.63 17.24,-12.88 14.44,-17.58 c -0.39,-0.48 -0.87,-0.62 -1.44,-0.4 c -13.57,9.58 -26.09,18.98 -42.57,23.05 c -8.5,0.19 -11.72,-4.75 -10.35,-12.91 c 0.74,-1.21 2.1,-0.48 3.25,-0.95 c 1.72,-1.8 3.87,-1.13 5.5,-3.25 c 5.21,-2.54 11.8,-9.15 15.31,-13.93 c 0.76,-1.82 1.74,-3.52 2.92,-5.1 c 3.02,-6.83 6.53,-14.43 -0.96,-19.97 c -12.06,-4.53 -20.05,9.04 -26.14,17.07 c -3.84,6.81 -6.1,13.32 -8.14,20.78 c -1.29,0.8 -2.52,1.7 -3.71,2.67 Z M 534.62,878.05 c 0.83,5.41 4.63,5.24 8.73,3.65 c 8.03,-5.05 17.62,-8.43 26.06,-12.88 c 8.56,-3.36 17.07,-6.83 25.52,-10.41 c 5.12,-1.74 10.16,-3.67 15.13,-5.8 c 2.38,-0.37 4.57,-1.2 6.58,-2.5 c 17.62,-5.83 35.29,-11.46 53.03,-16.87 c 7.68,-2 15.31,-4.15 22.91,-6.44 c 0.8,-0.12 1.61,-0.2 2.43,-0.23 c 37.57,-10.18 76.15,-17.33 114.67,-23.23 c 10.17,-1.14 20.76,-1.89 30.83,-3.51 c 11.68,-0.5 23.85,-2.39 35.46,-1.21 c 2.21,-0.55 3.2,-1.94 2.97,-4.15 c -1.43,-5.63 -14.85,-3.39 -19.43,-4.18 c -30.61,1.79 -60.61,6.04 -90.88,11.05 c -13.48,3.04 -27,5.74 -40.56,8.12 c -6.58,1.54 -12.97,3.57 -19.63,4.64 c -33.94,8.35 -67.03,18.16 -100.09,29.56 c -8.7,3.36 -17.44,6.63 -26.21,9.82 c -15.19,6.44 -31.46,12.05 -45.49,20.76 c -0.9,1.15 -1.58,2.42 -2.03,3.81 Z"/></g>
<g><path fill="#d1d1b8" fill-opacity="0.353" d="M 330.3,1033.32 c -1.32,1.81 -6.41,0.63 -8.45,0.99 c -4.16,1.7 -9.34,0.72 -13.77,0.97 c 0.02,-0.44 0.23,-0.73 0.64,-0.88 c 3.4,0.25 6.73,-0.08 10,-1 c 3.49,0.18 8.32,-0.82 11.58,-0.08 Z"/></g>
<g><path fill="#d8d7be" fill-opacity="0.255" d="M 261.68,841.03 c 0.41,0.08 0.74,0.3 0.97,0.66 c 0.11,1.7 0.44,3.36 0.97,4.99 c -0.09,2.96 0.04,5.92 0.4,8.87 c 0.03,0.9 -0.08,1.78 -0.32,2.64 c -0.58,-0.39 -0.86,-0.97 -0.85,-1.73 c -0.16,-2.62 -0.22,-5.24 -0.18,-7.86 c -0.72,-2.47 -1.06,-5 -0.99,-7.57 Z"/></g>
<g><path fill="#dbdac3" fill-opacity="0.278" d="M 919,165.71 c -0.07,0.41 -0.29,0.69 -0.68,0.85 c -2.07,0.02 -4.08,0.38 -6.03,1.07 c -2.97,-0.13 -5.94,0 -8.89,0.41 c -0.92,0 -1.82,-0.15 -2.69,-0.45 c 1.9,-1.54 7.34,-0.68 9.76,-0.85 c 2.76,-0.87 5.61,-1.22 8.53,-1.03 Z"/></g>
<g><path fill="#d6d6bd" fill-opacity="0.314" d="M 963.08,161.72 c -0.15,0.38 -0.42,0.63 -0.8,0.77 c -3.38,-0.01 -6.71,0.35 -9.99,1.08 c -3.87,0 -7.74,0.15 -11.6,0.45 c 1.03,-2.3 6.73,-0.87 8.82,-1.36 c 4.48,-0.97 9,-1.28 13.57,-0.94 Z"/></g>
<g><path fill="#eee7d8" stroke="#eee7d8" stroke-width="0.5" d="M 803.13,173.34 c -2.21,-0.05 -1.7,2.24 -2.02,3.7 c -3.93,0.64 0.47,3.85 -2.4,3.75 c -1.46,-1.8 -0.7,-1.34 -2.72,-1.23 c -3.46,-1.13 -5.12,-0.45 -8.38,0.3 c -1.5,-0.67 -2.8,-1.55 -3.92,-2.65 c -0.57,0.92 -0.89,1.94 -0.95,3.06 c -0.83,0.71 -1.58,1.48 -2.27,2.32 c -1.26,0.18 -2.55,0.26 -3.86,0.25 c -0.29,-0.4 -0.31,-0.85 -0.05,-1.34 c -0.67,-1.31 -1.65,1.01 -2.25,1.26 c -0.85,0.2 -1.71,0.35 -2.57,0.46 c -0.58,0.72 -0.98,1.53 -1.2,2.44 c -3.45,-1.1 2.25,-4.52 -1.03,-4.67 c -0.94,-0.09 -1.87,-0.04 -2.79,0.15 c -0.18,0.55 -0.31,1.11 -0.4,1.7 c -1.61,-0.61 -3.22,-1.2 -4.86,-1.77 c -1.89,0.01 -0.43,0.99 -1.22,1.84 c -1.85,-0.51 -3.76,-0.8 -5.72,-0.85 c -1.41,0.44 -2.81,0.9 -4.18,1.39 c 0.63,0.96 0.38,1.44 -0.74,1.46 c -1.51,-0.39 -2.96,-0.95 -4.35,-1.67 c -1.01,-0.1 -1.98,0.06 -2.91,0.49 c -1.19,-0.37 -2.41,-0.55 -3.65,-0.53 c -0.2,0.52 -0.32,1.07 -0.36,1.63 c -1.18,-0.45 -2.39,-0.69 -3.63,-0.71 c -0.89,0.57 -0.66,1.95 -1.95,1.76 c -1.38,-0.67 -2.77,-1.3 -4.17,-1.88 c -1.52,0.26 -2.57,1.12 -3.13,2.59 c -0.36,-0.75 -0.94,-1.21 -1.72,-1.39 c -1.75,0.48 -3.5,0.95 -5.25,1.43 c -1.71,-0.83 -2.19,0.06 -3.77,0.11 c -2.36,-1.39 -3.11,0.19 -5.26,0.93 c -1.71,-1.13 -3.05,-0.81 -4.02,0.94 c -0.14,-1.12 -0.45,-2.18 -0.91,-3.18 c -1.05,1.23 -2.39,1.97 -4.02,2.21 c -1.04,-0.4 -2.06,-0.84 -3.06,-1.33 c -0.73,0.69 -1.37,1.47 -1.94,2.32 c -0.73,-0.46 -1.47,-0.93 -2.21,-1.39 c -0.86,0.67 -1.79,1.25 -2.8,1.75 c -1.39,0.12 -2.73,-0.08 -4.03,-0.6 c -0.63,0.42 -1.28,0.8 -1.94,1.17 c -1.62,-0.04 -3.24,-0.15 -4.84,-0.34 c -4.49,2.5 -6.43,-0.05 -10.97,0.97 c -0.16,0.57 -0.25,1.17 -0.25,1.81 c -0.24,0.37 -0.58,0.57 -1.01,0.62 c -0.84,-0.77 -1.8,-1.34 -2.88,-1.69 c -1.99,-0.33 -3.74,1.1 -5.89,0.3 c -1.73,0.49 -3.45,0.98 -5.18,1.47 c -2.26,-1.85 -1.86,-1.7 -4.13,0.05 c -0.85,-0.07 -1.47,-0.52 -1.84,-1.34 c -1.18,1.39 -1.15,1.72 -3.01,1.05 c -0.94,0.23 -1.88,0.45 -2.83,0.65 c -0.16,0.55 -0.3,1.1 -0.41,1.66 c -0.77,-0.24 -1.39,-0.7 -1.86,-1.37 c -0.93,0.14 -1.84,0.08 -2.75,-0.19 c -0.76,1.2 -1.64,2.3 -2.66,3.31 c -1.43,-0.36 -2.86,-0.79 -4.29,-1.29 c -0.43,0.45 -0.82,0.93 -1.18,1.44 c -1.67,-3.43 -5.46,-0.76 -8.08,0 c -1.44,-0.84 -1.96,-1.96 -3.93,-1.68 c -3.39,0.63 -6.74,1.51 -10.04,2.64 c -2.45,-1.28 -5.01,0.88 -7.96,-0.71 c -2.38,-0.09 -4.73,0.12 -7.04,0.64 c -4.21,-1.8 -2.62,1.37 -5.99,2.13 c -0.91,-0.66 -1.63,-1.5 -2.17,-2.51 c -0.2,-0.01 -0.41,-0.01 -0.61,-0.02 c -2.72,0.97 -5.44,1.92 -8.16,2.83 c -3.29,-1.22 -3.73,-1.32 -7.1,-0.06 c -3.97,0.4 -9.14,0.75 -12.92,1.62 c -2.93,-1.37 -6.01,0.57 -8.98,0.99 c -4.76,-1.37 -9.46,1.98 -15.06,-0.12 c -1.64,0.52 -3.31,0.91 -5,1.18 c -2.16,-1.06 -2.62,-0.61 -3.99,0.96 c -1.56,-1.91 -0.95,-1.17 -2.93,0.07 c -2.04,-0.87 -2.21,-0.11 -4.11,0.32 c -1.65,0.07 -3.25,-0.19 -4.78,-0.76 c -2.6,1.39 -0.77,1.67 -4.03,1.03 c -0.71,0.48 -1.41,0.94 -2.11,1.39 c -0.6,-1.31 -1.6,-1.86 -3.01,-1.66 c -4.42,1.34 -10.81,1.84 -14.02,4.75 c -1,-0.23 -4.44,-2.09 -5.18,-1.19 c 0.01,1 1.1,1.56 0.01,2.31 c -1.37,0.31 -2.69,0.21 -3.97,-0.29 c 0.74,-0.35 1.48,-0.69 2.22,-1.01 c -0.3,-0.32 -0.68,-0.5 -1.12,-0.53 c -1.68,-0.09 -3.33,-0.23 -4.96,-0.42 c -0.94,-0.07 -2.42,-2.25 -3.16,-1.09 c 0.23,0.81 2.15,2.31 1.22,3.14 c -1.63,-0.81 -2.42,0.99 -3.86,1.49 c -0.61,0.75 -0.99,1.6 -1.14,2.56 c -1.44,-2.44 -2.07,-2.75 -4.89,-2.93 c -3.61,-1.67 -2.75,-1.91 -6.33,0.09 c -0.88,-0.25 -1.78,-0.47 -2.68,-0.65 c -0.17,0.53 -0.29,1.07 -0.36,1.62 c -1.55,-0.64 -3.18,-0.92 -4.87,-0.85 c -1.65,0.34 -3.29,0.68 -4.94,1.01 c -2.46,-0.48 -1.13,-3.18 -3.01,-0.31 c -0.26,-0.31 -0.4,-0.67 -0.42,-1.09 c 0.2,-0.85 0.34,-1.7 0.43,-2.54 c -1.19,-1.09 -2.59,-1.61 -4.2,-1.58 c -4.05,-5.51 -6.19,-8.86 -3.67,-15.96 c 0.72,-4.3 -0.93,-5.6 -2.36,-9.21 c -0.35,-0.46 -0.8,-0.79 -1.34,-0.97 c -0.09,-0.43 -0.27,-0.81 -0.55,-1.15 c -2.11,-1.43 -3.58,-3.35 -4.41,-5.76 c -0.34,-2.87 -0.42,-5.75 -0.23,-8.64 c 1.58,-2.35 0.81,-5.3 0.83,-8.03 c -0.83,-0.41 -1.56,-0.97 -2.17,-1.69 c -0.49,-1.12 -1.19,-2.1 -2.09,-2.93 c -1.11,-1.56 -0.44,-8.46 -0.64,-10.65 c 0.1,-2.74 2.81,-1.44 4.55,-1.84 c 2.23,-1.78 6.34,-0.55 9.02,-0.97 c 1.9,-1.73 4.72,-0.7 7.03,-1 c 2.02,-1.78 5.75,-0.53 8.27,-0.92 c 2.76,-1.17 3.88,-1.21 6.98,-0.97 c 2.64,-1.06 3.85,-1.12 6.72,-1.12 c 2.33,-1.99 6.15,0 9.17,-1.93 c 1.6,-0.04 3.19,-0.06 4.79,-0.06 c 2.22,-1.69 5.55,-0.67 8.13,-0.98 c 1.98,-1.7 5.48,-0.63 7.9,-1.01 c 1.63,-0.91 3.38,-1.21 5.26,-0.89 c 2.85,-1.27 4.9,-1.08 7.99,-1.05 c 3.14,-1.5 5.37,-0.82 8.71,-1.1 c 2.2,-1.8 8.12,-0.47 11.01,-0.98 c 2.64,-2.06 5.08,0.2 7.35,-1.75 c 1.54,-0.15 3.1,-0.25 4.66,-0.3 c 2.17,-1.57 5.72,-0.64 8.27,-0.9 c 2.66,-1.12 3.85,-1.15 6.78,-1.04 c 1.8,-1.67 4.73,-0.56 6.96,-1 c 1.61,-0.95 3.34,-1.26 5.21,-0.92 c 2.97,-1.47 4.59,-0.95 7.78,-1.07 c 2.13,-1.8 6.62,-0.64 9.28,-0.95 c 2.58,-1.04 5.27,-1.38 8.07,-1.02 c 0.69,-0.11 1.32,-0.38 1.88,-0.83 c 4,0.04 6.93,-1.83 11.07,-1.11 c 2.83,-1.18 3.74,-0.97 6.79,-1.11 c 1.89,-1.68 4.9,-0.68 7.22,-0.9 c 3.28,-1.35 5.2,-1.08 8.72,-1.12 c 2.16,-1.62 4.78,-0.67 7.27,-0.85 c 2.52,-1.03 3.94,-1.18 6.72,-1.16 c 2.11,-1.57 5.49,-0.68 7.95,-0.93 c 2.1,-1.67 4.88,-0.7 7.35,-0.93 c 2.78,-1.2 3.81,-1.33 6.96,-1.01 c 3.27,-1.27 5.32,-1.01 8.79,-1.1 c 2.06,-1.57 4.65,-0.65 7,-1.01 c 1.8,-1.72 5.68,-0.58 7.99,-0.97 c 1.81,-1.72 4.75,-0.57 7.01,-0.98 c 1.77,-1.57 4.01,-0.75 6.13,-0.97 c 3.29,-1.36 5.54,-0.98 9.06,-0.99 c 3.7,-1.65 6.8,-0.8 10.73,-1.09 c 1.22,-0.84 2.57,-1.18 4.05,-1.02 c 1.96,-1.55 5.6,-0.63 7.97,-0.97 c 3.49,-2.37 10.06,0.47 13.31,-1.81 c 1.24,-0.14 2.47,-0.21 3.72,-0.23 c 2.73,-2.24 5.67,0.48 8.24,-1.72 c 1.59,-0.14 3.19,-0.21 4.79,-0.23 c 1.85,-1.46 3.82,-0.69 5.94,-0.97 c 2.28,-1.77 7.47,-0.69 10.28,-0.96 c 4.24,-1.3 9.5,-1.57 14.01,-1.73 c 3.88,-0.3 2.57,3.87 2.87,6.25 c 1.6,0.96 2.58,2.38 2.94,4.26 c 0.78,3.71 -1.43,6.45 -1.21,10.05 c -2.24,3.26 -0.15,6.7 1.27,9.71 c 2.22,0.93 1.8,2.43 3.34,3.54 c 2.46,4.54 3.43,5.6 1.5,10.74 c 0.11,1.33 0.07,2.66 -0.12,3.98 c -1.5,1.97 -0.68,5.5 -0.75,7.84 c 0.76,1.24 1.43,2.53 2.01,3.86 c 0.65,0.34 1.23,0.77 1.74,1.3 c 0.48,1.56 0.91,3.14 1.28,4.74 c 0.62,0.31 1.18,0.72 1.68,1.2 c 0.34,2.66 0.35,5.32 0.03,7.98 c -1.06,1.56 -1.69,3.27 -1.9,5.12 c -0.18,0.51 -0.54,0.78 -1.07,0.79 Z"/></g>
<g><path fill="#e5dfcf" fill-opacity="0.443" d="M 422.75,165.75 c -0.19,2.89 -0.11,5.77 0.23,8.64 c 0.83,2.41 2.3,4.33 4.41,5.76 c 0.28,0.34 0.46,0.72 0.55,1.15 c -3.32,0.12 -4.8,-3.37 -6,-5.85 c -0.25,-2.65 -0.31,-5.31 -0.2,-7.98 c 0,-0.78 0.33,-1.35 1.01,-1.72 Z"/></g>
<g><path fill="#e7e2ce" stroke="#e7e2ce" stroke-width="0.5" d="M 801.11,177.04 c -0.09,0.7 0.11,1.27 0.59,1.73 c 1.75,0.22 3.45,0.52 5.08,0.9 c 0.47,3.6 -4.29,0.22 -3.31,3.32 c 0.7,1.85 1.7,3.53 2.99,5.02 c 1.69,1.16 3.5,2.04 5.42,2.64 c -0.35,0.88 -0.59,1.78 -0.72,2.71 c 0.5,0.71 1,1.42 1.48,2.14 c -0.51,1.94 -0.99,3.89 -1.43,5.84 c 2.16,1.86 1.62,0.66 0.16,3.1 c 0.14,0.51 0.19,1.03 0.12,1.54 c -0.67,0.88 -3.33,1.26 -1.55,2.54 c 0.95,0.4 1.9,0.79 2.85,1.18 c 0.01,2.33 -2.02,0.11 -3.17,0.34 c -1.97,0.99 1.32,3.05 1.81,3.97 c 0.73,1.32 1.52,2.6 2.36,3.83 c 0.4,0.19 0.68,0.09 0.85,-0.31 c -0.97,-2.27 1.95,-1.74 3,-0.97 c -0.59,0.97 -0.59,1.95 0.01,2.93 c -0.27,0.56 -0.42,1.16 -0.45,1.77 c 0.71,1.28 1.24,2.61 1.59,4 c -0.5,0.46 -0.99,0.93 -1.48,1.41 c -0.1,1.66 -0.41,3.28 -0.93,4.86 c 0.69,1.51 1,3.09 0.94,4.75 c 0.79,1.59 2.6,2.34 -0.22,3.04 c -1.14,0 -2.27,0.01 -3.41,0.03 c -6.11,1.03 -12.22,2 -18.35,2.91 c -3.52,0.54 -7.05,0.89 -10.6,1.03 c -2.28,0.92 -4.64,1.29 -7.1,1.14 c -2.58,0.86 -5.23,1.17 -7.94,0.92 c -9.07,1.34 -18.15,2.63 -27.23,3.86 c -1.34,0.11 -2.68,0.15 -4.02,0.12 c -5.59,0.86 -11.08,1.82 -16.75,2.07 c -2.61,0.95 -5.29,1.25 -8.05,0.91 c -2.6,0.85 -5.27,1.22 -8.01,1.1 c -1.91,0.81 -3.9,1.13 -5.97,0.96 c -2.93,0.9 -5.92,1.23 -8.98,1.01 c -3.29,0.68 -6.62,1.01 -9.98,0.96 c -2.95,0.92 -5.96,1.27 -9.05,1.06 c -3.37,0.57 -6.75,1.16 -10.11,1.79 c -1.63,0.07 -3.26,0.11 -4.89,0.11 c -2.46,1.4 -4.35,1 -7.02,1.05 c -2.91,0.91 -5.88,1.24 -8.92,1 c -2.26,0.91 -4.6,1.23 -7.02,0.97 c -3,0.68 -6.02,1.23 -9.05,1.68 c -2.33,0.21 -4.67,0.32 -7.01,0.33 c -2.26,0.85 -4.59,1.19 -7.01,1.04 c -4.03,0.64 -8.07,1.25 -12.11,1.85 c -1.3,0.08 -2.61,0.12 -3.91,0.11 c -0.98,0.41 -2,0.69 -3.05,0.83 c -4.62,0.4 -9.25,0.8 -13.87,1.2 c -2.94,0.84 -5.93,1.16 -8.98,0.98 c -3.06,0.7 -6.12,1.34 -9.19,1.93 c -1.94,0.12 -3.88,0.13 -5.82,0.05 c -1.01,0.48 -2.07,0.8 -3.17,0.95 c -2.74,-0.29 -5.41,0.04 -8,0.99 c -4.25,0.52 -8.54,0.89 -12.84,1.12 c -2.28,0.82 -4.64,1.15 -7.08,0.99 c -2.81,0.7 -5.63,1.17 -8.47,1.42 c -22.18,3.14 -44.52,5.15 -66.69,7.57 c -3.38,0.37 -2.51,-2.04 -3.05,-4.22 c -1.45,-1 -2.44,-2.33 -2.96,-4.01 c -0.91,-0.48 -1.84,-0.92 -2.8,-1.3 c 2.47,-4.36 1.47,-7.6 2.28,-12.16 c -0.85,-1.74 -4.97,-9.97 -5.22,-10.87 c 2.72,-2 2.28,-3.21 1.54,-6.15 c 0.97,-2.25 2.17,-4.38 3.59,-6.38 c 0.46,-1.23 0.22,-2.3 -0.71,-3.21 c -1.95,-3.2 -2.52,-5.68 -5.65,-8.08 c -0.08,-0.65 -0.06,-1.3 0.06,-1.95 c -0.36,-1 -0.65,-2.01 -0.85,-3.05 c 0.71,-1.57 1.54,-3.05 2.5,-4.44 c -0.29,-1.22 -0.91,-2.24 -1.87,-3.07 c 1.03,-0.18 2.06,-0.36 3.11,-0.51 c 1.81,-1.72 -0.51,-3.18 -1.95,-3.93 c 2.4,-0.61 0.34,-3.29 -0.16,-4.59 c 1.61,-0.03 3.01,0.49 4.2,1.58 c -0.09,0.84 -0.23,1.69 -0.43,2.54 c 0.02,0.42 0.16,0.78 0.42,1.09 c 1.88,-2.87 0.55,-0.17 3.01,0.31 c 1.65,-0.33 3.29,-0.67 4.94,-1.01 c 1.69,-0.07 3.32,0.21 4.87,0.85 c 0.07,-0.55 0.19,-1.09 0.36,-1.62 c 0.9,0.18 1.8,0.4 2.68,0.65 c 3.58,-2 2.72,-1.76 6.33,-0.09 c 2.82,0.18 3.45,0.49 4.89,2.93 c 0.15,-0.96 0.53,-1.81 1.14,-2.56 c 1.44,-0.5 2.23,-2.3 3.86,-1.49 c 0.93,-0.83 -0.99,-2.33 -1.22,-3.14 c 0.74,-1.16 2.22,1.02 3.16,1.09 c 1.63,0.19 3.28,0.33 4.96,0.42 c 0.44,0.03 0.82,0.21 1.12,0.53 c -0.74,0.32 -1.48,0.66 -2.22,1.01 c 1.28,0.5 2.6,0.6 3.97,0.29 c 1.09,-0.75 0,-1.31 -0.01,-2.31 c 0.74,-0.9 4.18,0.96 5.18,1.19 c 3.21,-2.91 9.6,-3.41 14.02,-4.75 c 1.41,-0.2 2.41,0.35 3.01,1.66 c 0.7,-0.45 1.4,-0.91 2.11,-1.39 c 3.26,0.64 1.43,0.36 4.03,-1.03 c 1.53,0.57 3.13,0.83 4.78,0.76 c 1.9,-0.43 2.07,-1.19 4.11,-0.32 c 1.98,-1.24 1.37,-1.98 2.93,-0.07 c 1.37,-1.57 1.83,-2.02 3.99,-0.96 c 1.69,-0.27 3.36,-0.66 5,-1.18 c 5.6,2.1 10.3,-1.25 15.06,0.12 c 2.97,-0.42 6.05,-2.36 8.98,-0.99 c 3.78,-0.87 8.95,-1.22 12.92,-1.62 c 3.37,-1.26 3.81,-1.16 7.1,0.06 c 2.72,-0.91 5.44,-1.86 8.16,-2.83 c 0.2,0.01 0.41,0.01 0.61,0.02 c 0.54,1.01 1.26,1.85 2.17,2.51 c 3.37,-0.76 1.78,-3.93 5.99,-2.13 c 2.31,-0.52 4.66,-0.73 7.04,-0.64 c 2.95,1.59 5.51,-0.57 7.96,0.71 c 3.3,-1.13 6.65,-2.01 10.04,-2.64 c 1.97,-0.28 2.49,0.84 3.93,1.68 c 2.62,-0.76 6.41,-3.43 8.08,0 c 0.36,-0.51 0.75,-0.99 1.18,-1.44 c 1.43,0.5 2.86,0.93 4.29,1.29 c 1.02,-1.01 1.9,-2.11 2.66,-3.31 c 0.91,0.27 1.82,0.33 2.75,0.19 c 0.47,0.67 1.09,1.13 1.86,1.37 c 0.11,-0.56 0.25,-1.11 0.41,-1.66 c 0.95,-0.2 1.89,-0.42 2.83,-0.65 c 1.86,0.67 1.83,0.34 3.01,-1.05 c 0.37,0.82 0.99,1.27 1.84,1.34 c 2.27,-1.75 1.87,-1.9 4.13,-0.05 c 1.73,-0.49 3.45,-0.98 5.18,-1.47 c 2.15,0.8 3.9,-0.63 5.89,-0.3 c 1.08,0.35 2.04,0.92 2.88,1.69 c 0.43,-0.05 0.77,-0.25 1.01,-0.62 c 0,-0.64 0.09,-1.24 0.25,-1.81 c 4.54,-1.02 6.48,1.53 10.97,-0.97 c 1.6,0.19 3.22,0.3 4.84,0.34 c 0.66,-0.37 1.31,-0.75 1.94,-1.17 c 1.3,0.52 2.64,0.72 4.03,0.6 c 1.01,-0.5 1.94,-1.08 2.8,-1.75 c 0.74,0.46 1.48,0.93 2.21,1.39 c 0.57,-0.85 1.21,-1.63 1.94,-2.32 c 1,0.49 2.02,0.93 3.06,1.33 c 1.63,-0.24 2.97,-0.98 4.02,-2.21 c 0.46,1 0.77,2.06 0.91,3.18 c 0.97,-1.75 2.31,-2.07 4.02,-0.94 c 2.15,-0.74 2.9,-2.32 5.26,-0.93 c 1.58,-0.05 2.06,-0.94 3.77,-0.11 c 1.75,-0.48 3.5,-0.95 5.25,-1.43 c 0.78,0.18 1.36,0.64 1.72,1.39 c 0.56,-1.47 1.61,-2.33 3.13,-2.59 c 1.4,0.58 2.79,1.21 4.17,1.88 c 1.29,0.19 1.06,-1.19 1.95,-1.76 c 1.24,0.02 2.45,0.26 3.63,0.71 c 0.04,-0.56 0.16,-1.11 0.36,-1.63 c 1.24,-0.02 2.46,0.16 3.65,0.53 c 0.93,-0.43 1.9,-0.59 2.91,-0.49 c 1.39,0.72 2.84,1.28 4.35,1.67 c 1.12,-0.02 1.37,-0.5 0.74,-1.46 c 1.37,-0.49 2.77,-0.95 4.18,-1.39 c 1.96,0.05 3.87,0.34 5.72,0.85 c 0.79,-0.85 -0.67,-1.83 1.22,-1.84 c 1.64,0.57 3.25,1.16 4.86,1.77 c 0.09,-0.59 0.22,-1.15 0.4,-1.7 c 0.92,-0.19 1.85,-0.24 2.79,-0.15 c 3.28,0.15 -2.42,3.57 1.03,4.67 c 0.22,-0.91 0.62,-1.72 1.2,-2.44 c 0.86,-0.11 1.72,-0.26 2.57,-0.46 c 0.6,-0.25 1.58,-2.57 2.25,-1.26 c -0.26,0.49 -0.24,0.94 0.05,1.34 c 1.31,0.01 2.6,-0.07 3.86,-0.25 c 0.69,-0.84 1.44,-1.61 2.27,-2.32 c 0.06,-1.12 0.38,-2.14 0.95,-3.06 c 1.12,1.1 2.42,1.98 3.92,2.65 c 3.26,-0.75 4.92,-1.43 8.38,-0.3 c 2.02,-0.11 1.26,-0.57 2.72,1.23 c 2.87,0.1 -1.53,-3.11 2.4,-3.75 Z"/></g>
<g><path fill="#314c35" stroke="#314c35" stroke-width="0.5" d="M 665.93,396.94 c 2.73,-6.81 6.03,-12.9 6.83,-20.41 c -0.11,-2.36 -0.34,-4.69 -0.7,-7 c 1.33,-3.57 6.04,-1.86 7.48,0.33 c 3.55,5.9 -1.98,22.57 -6.39,27.85 c -1.61,0.51 -2.83,2.1 -4.67,1.55 c -1.52,-0.07 -2.37,-0.85 -2.55,-2.32 Z M 641.92,414.4 c -0.83,-0.24 -1.13,-0.77 -0.88,-1.59 c 1.31,-0.46 2.61,-0.92 3.91,-1.38 c -0.7,-2.11 -3.54,-1.88 -5.33,-2.18 c -3.65,0.98 -4.4,1.28 -6.84,4.05 c -0.17,0.63 -1.01,1.15 -0.16,1.62 c 1.36,0.12 2.33,-0.43 2.92,-1.66 c 1.24,0.69 2.58,0.94 4.01,0.76 c 0.45,0.15 0.64,0.45 0.55,0.91 c -5.66,1.81 -11.28,3.72 -16.87,5.73 c -1.57,0.42 -2.71,1.35 -3.43,2.79 c -4.62,12.06 -21.75,58.69 -13.99,68.25 c 6.62,3.5 22.84,-15.76 27.41,-20.05 c 1.42,-1.12 2.42,-0.83 3,0.85 c 0.72,3.61 -3.5,8.07 -5.1,11.11 c -5.23,5.89 -9.22,10.93 -16.46,14.57 c -5.81,3.03 -13,2.06 -16.7,-3.74 c -3.28,-6.65 -3.29,-16.03 -1.19,-23.08 c 0.1,-0.46 0,-0.87 -0.29,-1.23 c -3.29,4.89 -6.75,9.69 -10.38,14.4 c -10.94,12.99 -22.92,25.05 -39.26,30.92 c -9.47,3.02 -20.36,-3.06 -22,-12.98 c -0.22,-0.57 -0.6,-0.74 -1.14,-0.51 c -2.95,3.77 -5.92,7.53 -8.9,11.3 c -2.9,3.09 -5.88,6.11 -8.94,9.06 c -5.5,4.86 -9.05,7.91 -16.41,9.36 c -22.06,1.68 -17.43,-30.23 -14.82,-43.26 c 7.32,-34.18 18.71,-67.31 31.59,-99.75 c 3.34,-4.11 8.36,-1.07 8.47,3.65 c -11.69,28.76 -22.03,58.06 -29.69,88.17 c -1.3,7.71 -2.51,15.44 -3.63,23.18 c -0.18,4.23 -1.51,22.05 6.64,19.83 c 12.57,-3.76 28.34,-23.32 36.45,-33.61 c 3.01,-14.46 11.26,-31.59 23.37,-40.51 c 7.71,-4.17 16.21,-1.59 16.38,8.11 c -0.7,2.23 -1.17,4.51 -1.41,6.84 c -4.86,11.97 -11.41,18.74 -21.46,26.39 c -2.72,1.37 -5.44,2.67 -8.18,3.89 c -0.07,2.47 0.04,4.94 0.32,7.41 c 4.35,10.85 12.48,4.5 19.78,1.72 c 21.15,-13.03 34.73,-32.44 48.13,-52.79 c 2.49,-7.87 5.07,-15.71 7.74,-23.53 c 0.05,-0.9 -0.34,-1.2 -1.17,-0.91 c -5.33,2.35 -10.68,4.67 -16.03,6.96 c -5.1,1.67 -14.11,7.53 -17.1,0.03 c -1.13,-4.54 2.34,-3.54 5.19,-3.97 c 11.11,-3.83 22.24,-9.33 33.17,-13.79 c 4.61,-11.07 9.23,-22.14 13.87,-33.2 c 4.24,-1.19 6.42,0.4 6.53,4.78 c -1.96,5.57 -4.01,11.12 -6.13,16.64 c -0.85,2.29 -1.88,4.47 -3.09,6.56 c 0.6,0.5 1.3,0.64 2.09,0.4 c 7.01,-1.38 23.15,-8.64 29.51,-5.4 c 2.52,1.91 3.57,5.73 -0.55,6.41 c -4.64,0.05 -9.14,0.87 -13.5,2.47 Z M 678.72,431.07 c 0.72,-1.35 1.27,-2.76 1.67,-4.23 c 7.24,-11.92 22.86,-24.67 37.05,-25.73 c 4.69,-0.15 10.74,2.02 9.06,7.87 c -0.54,1.02 -1.37,1.55 -2.5,1.59 c -6.15,-3.8 -9.47,-0.37 -15.23,1.7 c -2.57,2.11 -7.15,3.44 -8.89,6.11 c -3.88,2.12 -17.71,13.87 -10.82,18.09 c 9.23,5.09 27.03,6.87 29.88,18.94 c 0.75,10.71 -12.63,19.56 -20.9,24.17 c -5.49,2.09 -8.24,4.27 -14.4,2.3 c -4.32,-1.47 -5.31,-7.64 -1.06,-9.58 c 1.06,0.47 1.82,1.25 2.29,2.36 c 5.43,2.42 24.65,-11.88 25.88,-18.28 c 1.45,-3.58 -3.49,-4.48 -5.66,-5.91 c -10.11,-4.33 -25.87,-5.27 -26.37,-19.4 Z M 487.05,454.98 c -0.91,0.68 -1.57,1.55 -2.01,2.6 c 1.36,1.75 3.73,0.05 2.01,-2.6 c 1.28,-0.18 2.11,0.39 2.49,1.69 c 1.85,-2.07 0.93,-4.64 1.42,-7.14 c -0.99,-1.97 -1.06,-1.89 0.83,-3.21 c -0.06,-2.9 -3.46,-0.02 -3.82,1.32 c 0.58,0.82 0.83,1.72 0.75,2.72 c -0.69,1.5 -1.24,3.04 -1.67,4.62 Z M 535.28,483.98 c 5.93,-0.74 24.54,-22.61 19.63,-28.56 c -8.31,2.34 -17.95,20.33 -19.63,28.56 Z M 485.83,459.82 c 0.11,3.34 2.57,1.91 2.29,-0.23 c -0.84,-0.7 -1.61,-0.62 -2.29,0.23 Z M 482.78,468.99 c -0.05,2.63 2,1.55 0.24,4.49 c 1.49,2.01 2.85,-1.21 2.48,-2.53 c -1.05,-0.43 -2,-4.1 -2.72,-1.96 Z M 776.2,561.04 c -1.65,-0.07 -2.85,-1.86 -0.6,-2.61 c -0.46,-1.52 -0.57,-3.08 -0.32,-4.65 c 0.79,-0.51 1.52,-1.1 2.21,-1.75 c 0.1,-1.2 2.52,-6.21 0.91,-6.84 c -3.55,-0.5 -2.04,-2.3 -4.04,1.54 c 0,0.58 0.09,1.16 0.29,1.71 c -0.55,0.27 -0.97,0.67 -1.27,1.2 c -0.71,2.81 -1.73,5.51 -3.05,8.09 c -0.28,1.96 -0.69,3.89 -1.23,5.78 c -0.91,1.34 -1.08,2.76 -0.51,4.26 c 1.22,-2.77 1.87,-0.61 3.59,-2.21 c 0.35,-1.29 0.82,-2.53 1.41,-3.7 c 1.36,0.03 1.94,0.72 1.73,2.08 c -2.9,10.37 -5.29,20.85 -7.16,31.45 c -0.67,5.76 -2.55,19.07 7.16,16.31 c 10.34,-4.93 19.8,-17.02 27.62,-25.35 c 0.68,-0.35 1.21,-0.2 1.59,0.45 c 1.48,5.58 -4.44,11.67 -7.08,16.2 c -7.06,7.21 -15.49,18.14 -26.81,16.65 c -11.09,-2.04 -11.37,-14.21 -10.88,-23.12 c 2.02,-16.12 6.13,-31.27 11.71,-46.54 c 0.42,-1.84 0.88,-3.66 1.36,-5.47 c -0.23,-0.51 -0.6,-0.65 -1.13,-0.42 c -7.97,2.93 -16.76,7.85 -25.19,8.8 c -6.41,0.53 -8.04,-7.96 -5.04,-7.57 c 5.43,1.68 13.28,-2.88 18.2,-5.05 c 3.46,-0.99 6.79,-2.32 10,-3.98 c 2.79,-0.62 5.35,-1.74 7.69,-3.35 c 4.32,-11.5 9,-22.94 13.72,-34.32 c 1.57,-3.32 7.72,0.13 7.03,3.88 c -3.01,7.35 -5.93,14.76 -8.77,22.22 c -0.3,1.58 -1.64,3.36 -0.85,4.94 c 0.5,-0.4 1.03,-0.76 1.58,-1.08 c 9.9,-3.62 20,-6.48 30.32,-8.57 c 4.57,-1.14 12.4,1.22 8.05,6.89 c -2.31,-0.18 -4.62,-0.07 -6.92,0.33 c -12.59,3.01 -24.84,7.05 -36.76,12.11 c -3.52,4.27 -6.47,16.13 -8.56,21.69 Z M 540.66,591.78 c 0.31,-4.23 1.71,-3.87 5.4,-4.22 c 6.17,-2.83 12.36,-5.63 18.55,-8.41 c 3.61,-9.29 7.29,-18.56 11.04,-27.8 c 0.22,-1.93 0.91,-3.66 2.06,-5.19 c 2.17,-1.7 6.29,0.13 6.74,2.82 c 0.74,3.18 0.17,3.31 -1.3,5.71 c -2.59,6.55 -5,13.15 -7.23,19.79 c 0.37,0.45 0.83,0.56 1.38,0.33 c 4.11,-1.21 8.2,-2.47 12.26,-3.79 c 4.12,-1.03 18.13,-5.43 16.93,3.06 c -0.61,3.02 -3.93,1.55 -6.01,2.04 c -7.06,1.56 -13.99,3.61 -20.79,6.17 c -2.25,1.23 -4.6,2.19 -7.06,2.89 c -0.43,0.19 -0.78,0.48 -1.03,0.88 c -3.35,9.14 -6.42,18.37 -9.23,27.69 c -2.43,11.59 -6.9,22.61 -4.29,34.69 c 3.08,7.75 17.88,-7.4 21.26,-9.52 c 7.8,-7.95 15.92,-15.43 23.26,-23.84 c 1.35,-1.94 2.93,-3.67 4.76,-5.19 c 3.19,-6.56 7.09,-12.13 11.07,-18.14 c 5.47,-6.54 17.52,-19.87 25.45,-9.19 c 3.37,0.7 6.58,-0.15 6.78,4.68 c -1.43,4.92 -2.83,9.85 -4.21,14.79 c -0.18,4.17 -4.46,21.67 1.04,23.2 c 6.1,0.62 18.17,-15.41 22.28,-19.86 c 7.47,-10.1 14.26,-19.83 19.97,-31.07 c 0.72,-2.47 0.36,-5.39 3.78,-5.67 c 7.34,-0.01 5.37,8.07 3.95,12.4 c -0.22,2.93 -0.55,5.81 -0.97,8.64 c 2.94,-4.23 5.99,-8.41 9.14,-12.52 c 7.21,-6.62 12.14,-10.84 22.02,-12.83 c 5.39,0.76 6.81,0.67 9.94,5.34 c 0.06,5.26 -3.9,4.43 -7.07,2.77 c -4.85,-0.29 -8.32,2.12 -12.52,4.08 c -2.13,2.25 -4.42,4.32 -6.85,6.23 c -2.31,3.33 -4.69,6.62 -7.15,9.84 c -1.05,2.22 -2.29,4.32 -3.71,6.31 c -1.23,2.98 -2.58,5.91 -4.04,8.78 c -1.16,4.25 -2.38,8.48 -3.67,12.69 c -0.2,2.03 -0.5,4.05 -0.91,6.05 c -3.68,3.95 -8.38,2.53 -9.21,-2.85 c 1.5,-9.38 3.05,-18.77 4.64,-28.15 c 0.19,-0.68 0.44,-1.34 0.76,-1.97 c 0.01,-1.58 -0.48,-1.75 -1.46,-0.53 c -2.09,3.92 -4.32,7.75 -6.67,11.52 c -8.24,9.57 -14.52,20.37 -25.44,27.53 c -12.12,4.49 -18.35,-4.36 -18.33,-15.55 c -0.66,-0.91 -1.05,-0.01 -1.51,0.57 c -4.8,8.19 -15.17,25.29 -25.81,24.69 c -4.75,-1.83 -6.6,-2.87 -7.65,-8.1 c 0.08,-2.54 0.19,-5.06 0.34,-7.54 c -0.51,0.01 -0.94,0.19 -1.3,0.55 c -6.78,8.74 -14.67,16.84 -22.73,24.34 c -7.66,5.38 -12.54,10.34 -22.33,5.62 c -9.14,-6.97 -5.59,-22.28 -4.1,-32.05 c 3,-11.11 6.13,-22.19 9.4,-33.22 c -0.07,-0.76 -0.45,-1.02 -1.16,-0.76 c -3.72,2.42 -17.09,9.2 -18.46,1.27 Z M 763.27,588.05 c -0.03,0.23 0.04,0.44 0.2,0.61 c 0.4,-1.11 0.9,-2.16 1.53,-3.16 c 1.59,-0.57 1.02,2.67 2.43,0.51 c 0.69,-2.86 1.46,-5.69 2.31,-8.51 c 0.25,-1.56 -1.48,-2.12 -2.44,-1.05 c 0.62,1.11 0.33,1.89 -0.87,2.34 c -0.32,-0.46 -0.6,-0.95 -0.82,-1.47 c -1.21,3.34 -2.6,7.07 -2.34,10.73 Z M 609.24,633 c 0.4,0.24 0.82,0.45 1.25,0.62 c 9.69,-6 18.38,-22.53 24.34,-32.32 c 1.25,-2.44 2.48,-4.89 3.69,-7.35 c -0.27,-1.81 -0.35,-3.63 -0.24,-5.46 c -0.58,-4.82 -6.36,1.45 -7.78,2.55 c -8.86,9.18 -21.13,29.12 -21.26,41.96 Z M 558.57,746.08 c 0.05,0.84 0.16,1.66 0.33,2.48 c 0.37,0.5 0.71,0.46 1,-0.12 c 1.02,-4 2.1,-7.96 3.23,-11.87 c 0.23,-1.06 0.56,-3.76 -1.24,-3.62 c 4.15,-15.62 8.4,-31.22 12.74,-46.79 c 2.39,-5.49 10.39,-1.77 7.67,5.52 c -5.79,19.17 -11,38.43 -16.15,57.77 c -1.53,7.1 -3.24,14.14 -5.14,21.15 c -0.29,0.8 -0.2,1.53 0.3,2.17 c 2.12,-4.39 4.51,-8.64 7.16,-12.76 c 4.44,-5.8 13.24,-20.64 21.99,-18.02 c 2.57,1.55 3.46,1.31 4.56,4.43 c 2.25,7.46 0.07,16.48 -0.37,24.13 c 0.39,3.92 -1,13.69 4,15.16 c 9.02,-1.14 20.02,-15.22 25.46,-22.13 c 0.64,-2.65 1.23,-5.33 1.76,-8.03 c 0.91,-2.24 1.7,-4.53 2.37,-6.86 c 4.24,-9.43 11.49,-22.79 22.18,-25.58 c 2.4,-0.33 4.65,0.1 6.77,1.3 c 14.07,10.77 -10.67,40.51 -23.5,42.59 c -1.3,1.14 -0.28,3.46 -0.2,4.95 c 4.02,14.77 25.44,-0.72 31.27,-6.79 c 12.28,-12.05 22.13,-25.54 30.02,-40.86 c 0.82,-2.15 1.31,-4.37 1.48,-6.66 c 0.35,-1.3 1.18,-2.08 2.51,-2.34 c 10.3,-0.66 3.27,11.99 4.11,17.46 c 0.14,0.11 0.29,0.22 0.44,0.33 c 2.09,-2.69 4.12,-5.45 6.07,-8.28 c 7.16,-7.32 15.73,-16.02 26.94,-12.52 c 3.42,1.13 5.85,6.57 1.14,7.89 c -1.71,-0.13 -3.38,-0.52 -4.99,-1.16 c -20.78,4.5 -31.98,33.4 -34.94,52.14 c -1.63,4.29 -8.03,2.91 -8.7,-1.59 c 0.74,-7.1 1.82,-14.15 3.25,-21.14 c 0,-2.02 0.25,-4.02 0.75,-5.97 c -0.1,-0.12 -0.19,-0.24 -0.28,-0.37 c -4.12,6.17 -8.45,12.19 -12.98,18.08 c -2.75,3.05 -5.1,7.09 -8.67,9.25 c -3.07,4.89 -13.34,11.41 -18.55,14.32 c -11.69,4.66 -21.4,3.46 -26.9,-8.82 c -0.17,-0.4 -0.46,-0.62 -0.88,-0.65 c -2.74,3.19 -5.55,6.33 -8.42,9.43 c -1.65,1.33 -3.18,2.78 -4.59,4.36 c -1.95,1 -3.76,2.2 -5.44,3.61 c -6.85,2.99 -11.75,2.36 -16.79,-3.44 c -0.49,-1.7 -1.2,-3.31 -2.13,-4.81 c -3.09,-10.09 0.07,-20.63 0.06,-30.92 c -0.08,-0.86 -0.53,-1.22 -1.36,-1.06 c -12.41,10.38 -23.66,36.69 -30.49,51.62 c -3.05,5.25 -9.85,2.45 -8.95,-3.7 c 3.01,-18.05 7.89,-35.51 12.1,-53.28 Z M 738.11,739.96 c 1.19,-0.97 2.42,-1.87 3.71,-2.67 c 2.04,-7.46 4.3,-13.97 8.14,-20.78 c 6.09,-8.03 14.08,-21.6 26.14,-17.07 c 7.49,5.54 3.98,13.14 0.96,19.97 c -1.18,1.58 -2.16,3.28 -2.92,5.1 c -3.51,4.78 -10.1,11.39 -15.31,13.93 c -1.63,2.12 -3.78,1.45 -5.5,3.25 c -1.15,0.47 -2.51,-0.26 -3.25,0.95 c -1.37,8.16 1.85,13.1 10.35,12.91 c 16.48,-4.07 29,-13.47 42.57,-23.05 c 0.57,-0.22 1.05,-0.08 1.44,0.4 c 2.8,4.7 -10.96,14.95 -14.44,17.58 c -9.73,6.22 -21.45,13.52 -33.41,12.78 c -12.01,-2.8 -13.28,-7.24 -15.49,-18.6 c -1.2,-2.05 -2.9,-1.66 -2.99,-4.7 Z M 752.37,732.71 c 8.18,-3.78 18.36,-15.38 20.34,-24.37 c 0.3,-4.41 -4.77,-0.33 -6.2,0.7 c -5.08,5.36 -13.46,16.35 -14.14,23.67 Z M 634.21,757.86 c 3.65,0.17 12.06,-9.84 14.25,-12.97 c 1.14,-2.06 8.66,-14.04 3.11,-13.92 c -8.94,5.34 -14.34,17.28 -17.36,26.89 Z M 563.92,743.88 c -0.04,0.44 0.13,0.77 0.5,0.99 c 0.34,-0.56 0.18,-0.89 -0.5,-0.99 Z M 534.62,878.05 c 0.45,-1.39 1.13,-2.66 2.03,-3.81 c 14.03,-8.71 30.3,-14.32 45.49,-20.76 c 8.77,-3.19 17.51,-6.46 26.21,-9.82 c 33.06,-11.4 66.15,-21.21 100.09,-29.56 c 6.66,-1.07 13.05,-3.1 19.63,-4.64 c 13.56,-2.38 27.08,-5.08 40.56,-8.12 c 30.27,-5.01 60.27,-9.26 90.88,-11.05 c 4.58,0.79 18,-1.45 19.43,4.18 c 0.23,2.21 -0.76,3.6 -2.97,4.15 c -11.61,-1.18 -23.78,0.71 -35.46,1.21 c -10.07,1.62 -20.66,2.37 -30.83,3.51 c -38.52,5.9 -77.1,13.05 -114.67,23.23 c -0.82,0.03 -1.63,0.11 -2.43,0.23 c -7.6,2.29 -15.23,4.44 -22.91,6.44 c -17.74,5.41 -35.41,11.04 -53.03,16.87 c -2.01,1.3 -4.2,2.13 -6.58,2.5 c -4.97,2.13 -10.01,4.06 -15.13,5.8 c -8.45,3.58 -16.96,7.05 -25.52,10.41 c -8.44,4.45 -18.03,7.83 -26.06,12.88 c -4.1,1.59 -7.9,1.76 -8.73,-3.65 Z M 804.1,801.17 c -0.38,2.93 5.38,0.66 6.61,0.28 c -1.39,-1.18 -4.88,-0.61 -6.61,-0.28 Z M 794.81,803.97 c 0.45,0.03 0.76,-0.16 0.94,-0.56 c -0.51,-0.25 -0.82,-0.06 -0.94,0.56 Z M 776.02,806.25 c 0.98,1.96 4.9,0.97 5.83,-0.72 c -1.84,-1.49 -3.92,0.31 -5.83,0.72 Z M 766.26,808.67 c 1.74,0.52 3.21,0.12 4.43,-1.21 c -0.6,-1.14 -4.32,-0.63 -4.43,1.21 Z M 756.09,810.77 c 3.07,-0.71 5.71,-0.69 8.66,-2.33 c -0.25,-0.38 -9.34,-0.41 -8.66,2.33 Z M 695.24,823.62 c 1.05,0.62 2.15,0.7 3.3,0.24 c 0.86,-0.63 0.86,-1.23 -0.03,-1.81 c -1.49,-0.29 -2.58,0.23 -3.27,1.57 Z"/></g>
<g><path fill="#829783" d="M 695.24,823.62 c 0.69,-1.34 1.78,-1.86 3.27,-1.57 c 0.89,0.58 0.89,1.18 0.03,1.81 c -1.15,0.46 -2.25,0.38 -3.3,-0.24 Z"/></g>
<g><path fill="#637a62" d="M 756.09,810.77 c -0.68,-2.74 8.41,-2.71 8.66,-2.33 c -2.95,1.64 -5.59,1.62 -8.66,2.33 Z"/></g>
<g><path fill="#91ae81" d="M 563.92,743.88 c 0.68,0.1 0.84,0.43 0.5,0.99 c -0.37,-0.22 -0.54,-0.55 -0.5,-0.99 Z"/></g>
<g><path fill="#dbdcc7" stroke="#dbdcc7" stroke-width="0.5" d="M 609.24,633 c 0.13,-12.84 12.4,-32.78 21.26,-41.96 c 1.42,-1.1 7.2,-7.37 7.78,-2.55 c -0.11,1.83 -0.03,3.65 0.24,5.46 c -1.21,2.46 -2.44,4.91 -3.69,7.35 c -5.96,9.79 -14.65,26.32 -24.34,32.32 c -0.43,-0.17 -0.85,-0.38 -1.25,-0.62 Z"/></g>
<g><path fill="#5a7258" d="M 482.78,468.99 c 0.72,-2.14 1.67,1.53 2.72,1.96 c 0.37,1.32 -0.99,4.54 -2.48,2.53 c 1.76,-2.94 -0.29,-1.86 -0.24,-4.49 Z"/></g>
<g><path fill="#dfe0cb" stroke="#dfe0cb" stroke-width="0.5" d="M 535.28,483.98 c 1.68,-8.23 11.32,-26.22 19.63,-28.56 c 4.91,5.95 -13.7,27.82 -19.63,28.56 Z M 752.37,732.71 c 0.68,-7.32 9.06,-18.31 14.14,-23.67 c 1.43,-1.03 6.5,-5.11 6.2,-0.7 c -1.98,8.99 -12.16,20.59 -20.34,24.37 Z M 634.21,757.86 c 3.02,-9.61 8.42,-21.55 17.36,-26.89 c 5.55,-0.12 -1.97,11.86 -3.11,13.92 c -2.19,3.13 -10.6,13.14 -14.25,12.97 Z"/></g>
<g><path fill="#738a6d" d="M 487.05,454.98 c 1.72,2.65 -0.65,4.35 -2.01,2.6 c 0.44,-1.05 1.1,-1.92 2.01,-2.6 Z"/></g>
<g><path fill="#6f8469" d="M 487.05,454.98 c 0.43,-1.58 0.98,-3.12 1.67,-4.62 c 0.08,-1 -0.17,-1.9 -0.75,-2.72 c 0.36,-1.34 3.76,-4.22 3.82,-1.32 c -1.89,1.32 -1.82,1.24 -0.83,3.21 c -0.49,2.5 0.43,5.07 -1.42,7.14 c -0.38,-1.3 -1.21,-1.87 -2.49,-1.69 Z"/></g>
<g><path fill="#6e816e" d="M 766.26,808.67 c 0.11,-1.84 3.83,-2.35 4.43,-1.21 c -1.22,1.33 -2.69,1.73 -4.43,1.21 Z"/></g>
<g><path fill="#6a7f6d" d="M 776.02,806.25 c 1.91,-0.41 3.99,-2.21 5.83,-0.72 c -0.93,1.69 -4.85,2.68 -5.83,0.72 Z"/></g>
<g><path fill="#94ae93" d="M 794.81,803.97 c 0.12,-0.62 0.43,-0.81 0.94,-0.56 c -0.18,0.4 -0.49,0.59 -0.94,0.56 Z"/></g>
<g><path fill="#6e8269" d="M 804.1,801.17 c 1.73,-0.33 5.22,-0.9 6.61,0.28 c -1.23,0.38 -6.99,2.65 -6.61,-0.28 Z"/></g>
<g><path fill="#667f60" d="M 485.83,459.82 c 0.68,-0.85 1.45,-0.93 2.29,-0.23 c 0.28,2.14 -2.18,3.57 -2.29,0.23 Z"/></g>
<g><path fill="#2a3c2e" d="M 561.89,732.95 c 1.8,-0.14 1.47,2.56 1.24,3.62 c -1.13,3.91 -2.21,7.87 -3.23,11.87 c -0.29,0.58 -0.63,0.62 -1,0.12 c -0.17,-0.82 -0.28,-1.64 -0.33,-2.48 c 0.98,-4.4 2.09,-8.78 3.32,-13.13 Z"/></g>
<g><path fill="#2e4932" stroke="#2e4932" stroke-width="0.5" d="M 483.33,623.03 c 2.89,-12.79 20.86,-25.64 32.34,-30.77 c 6.4,-2.08 15.42,-4 16.96,5.08 c -0.52,2.24 -1.88,3.09 -4.08,2.55 c -0.94,-0.71 -1.95,-1.28 -3.03,-1.7 c -9.42,-0.08 -29.3,15.96 -33.38,24.42 c -0.7,1.91 -0.08,3.22 1.83,3.91 c 8.5,3.04 25.16,3.71 30.84,11.13 c 9.33,13.55 -13.16,28.76 -22.85,34.78 c -5.06,2.11 -10.57,6.05 -15.58,1.69 c -1.32,-1.72 -1.33,-3.44 -0.03,-5.17 c 0.28,-0.46 0.69,-0.74 1.22,-0.83 c 0.95,0.19 1.88,0.41 2.8,0.67 c 8.13,-2.51 28.96,-17.08 28.73,-26.22 c -5.14,-8.15 -27.13,-3.43 -34.52,-14.61 c -0.53,-1.61 -0.95,-3.25 -1.25,-4.93 Z"/></g>
<g><path fill="#455e45" d="M 776.2,561.04 c -0.3,0.97 -0.59,1.93 -0.88,2.9 c 0.21,-1.36 -0.37,-2.05 -1.73,-2.08 c -0.59,1.17 -1.06,2.41 -1.41,3.7 c -1.72,1.6 -2.37,-0.56 -3.59,2.21 c -0.57,-1.5 -0.4,-2.92 0.51,-4.26 c 0.54,-1.89 0.95,-3.82 1.23,-5.78 c 1.32,-2.58 2.34,-5.28 3.05,-8.09 c 0.3,-0.53 0.72,-0.93 1.27,-1.2 c -0.2,-0.55 -0.29,-1.13 -0.29,-1.71 c 2,-3.84 0.49,-2.04 4.04,-1.54 c 1.61,0.63 -0.81,5.64 -0.91,6.84 c -0.69,0.65 -1.42,1.24 -2.21,1.75 c -0.25,1.57 -0.14,3.13 0.32,4.65 c -2.25,0.75 -1.05,2.54 0.6,2.61 Z"/></g>
<g><path fill="#456047" d="M 641.92,414.4 c -0.61,0.17 -1.21,0.35 -1.82,0.53 c 0.09,-0.46 -0.1,-0.76 -0.55,-0.91 c -1.43,0.18 -2.77,-0.07 -4.01,-0.76 c -0.59,1.23 -1.56,1.78 -2.92,1.66 c -0.85,-0.47 -0.01,-0.99 0.16,-1.62 c 2.44,-2.77 3.19,-3.07 6.84,-4.05 c 1.79,0.3 4.63,0.07 5.33,2.18 c -1.3,0.46 -2.6,0.92 -3.91,1.38 c -0.25,0.82 0.05,1.35 0.88,1.59 Z"/></g>
<g><path fill="#446047" d="M 763.27,588.05 c -0.26,-3.66 1.13,-7.39 2.34,-10.73 c 0.22,0.52 0.5,1.01 0.82,1.47 c 1.2,-0.45 1.49,-1.23 0.87,-2.34 c 0.96,-1.07 2.69,-0.51 2.44,1.05 c -0.85,2.82 -1.62,5.65 -2.31,8.51 c -1.41,2.16 -0.84,-1.08 -2.43,-0.51 c -0.63,1 -1.13,2.05 -1.53,3.16 c -0.16,-0.17 -0.23,-0.38 -0.2,-0.61 Z"/></g>
</svg>
