<?xml version="1.0" encoding="UTF-8" standalone="no"?>
<!DOCTYPE svg PUBLIC "-//W3C//DTD SVG 1.1//EN" "http://www.w3.org/Graphics/SVG/1.1/DTD/svg11.dtd">
<svg xmlns="http://www.w3.org/2000/svg" version="1.1" viewBox="0.00 0.00 1254.00 1254.00">
<path fill="#1d4c31" d="
  M 897.07 329.25
  Q 897.10 327.79 897.41 326.45
  Q 901.29 310.11 906.19 298.22
  Q 917.78 270.12 929.15 245.39
  Q 933.94 234.97 939.38 225.41
  Q 940.98 222.62 942.67 221.39
  C 944.91 219.76 947.86 220.69 947.80 223.72
  C 947.73 227.28 945.96 231.28 944.72 234.24
  Q 930.19 269.06 916.76 298.53
  C 913.82 305.00 910.39 311.70 905.88 318.17
  Q 902.72 322.70 899.35 328.08
  Q 898.72 329.09 897.64 329.62
  A 0.40 0.40 0.0 0 1 897.07 329.25
  Z"
/>
<path fill="#1d4c31" d="
  M 366.34 332.61
  C 365.20 332.12 361.76 325.24 358.54 319.57
  Q 355.15 313.60 352.32 306.82
  Q 343.72 286.25 337.76 269.76
  C 336.27 265.65 333.90 258.97 334.80 254.99
  C 335.43 252.20 338.22 251.05 340.39 253.38
  Q 342.71 255.88 344.02 259.02
  Q 352.63 279.59 360.30 300.86
  C 364.12 311.45 366.54 317.25 367.57 326.47
  Q 367.93 329.71 367.33 332.12
  A 0.72 0.72 0.0 0 1 366.34 332.61
  Z"
/>
<path fill="#1d4c31" d="
  M 940.37 364.98
  A 0.47 0.47 0.0 0 1 940.06 364.21
  C 944.45 359.13 949.19 353.14 954.25 348.19
  Q 989.03 314.11 1025.19 283.44
  C 1028.83 280.36 1034.55 275.00 1038.23 278.48
  C 1040.03 280.17 1038.61 283.26 1037.19 284.69
  Q 1021.04 300.94 1001.77 317.52
  Q 967.96 346.61 955.57 357.06
  Q 949.39 362.26 941.52 364.76
  Q 940.72 365.01 940.37 364.98
  Z"
/>
<path fill="#1d4c31" d="
  M 325.63 375.87
  L 324.52 375.54
  A 0.67 0.14 12.0 0 1 324.43 375.50
  C 316.09 370.62 309.18 364.11 301.70 357.07
  Q 274.91 331.85 247.80 303.53
  A 3.96 3.95 -45.4 0 1 247.76 298.11
  L 247.88 297.99
  A 4.13 4.12 40.1 0 1 253.42 297.52
  Q 264.32 305.85 271.22 312.30
  Q 297.28 336.64 321.17 364.06
  Q 325.03 368.49 326.67 374.87
  A 0.83 0.83 0.0 0 1 325.63 375.87
  Z"
/>
<path fill="#1d4c31" d="
  M 396.52 804.52
  A 0.19 0.18 -42.6 0 0 396.27 804.51
  L 395.84 804.85
  A 0.21 0.20 47.7 0 0 395.83 805.15
  Q 395.94 805.25 397.93 808.24
  Q 398.79 809.53 400.27 811.15
  Q 413.11 825.17 419.35 832.18
  Q 420.56 833.53 420.63 834.97
  A 0.27 0.27 0.0 0 1 420.20 835.21
  Q 416.89 832.95 413.66 829.57
  Q 402.61 818.01 393.37 806.26
  A 8.99 8.88 -0.3 0 0 391.69 804.62
  Q 389.17 802.73 387.86 800.22
  C 387.00 798.58 385.72 798.11 384.62 796.66
  Q 380.58 791.31 375.17 784.85
  C 370.82 779.65 367.14 773.22 364.71 769.60
  C 361.15 764.30 359.14 758.69 356.26 752.45
  A 0.59 0.58 64.6 0 1 356.53 751.68
  L 356.78 751.57
  A 0.24 0.24 0.0 0 1 357.09 751.64
  L 360.91 756.95
  A 0.52 0.52 0.0 0 0 361.65 757.07
  L 361.68 757.04
  A 0.67 0.66 -36.7 0 0 361.81 756.17
  C 356.12 747.42 350.50 736.67 346.52 725.54
  Q 344.69 720.41 340.87 711.14
  Q 339.51 707.84 337.87 699.33
  A 12.98 12.77 -62.2 0 0 337.17 697.00
  Q 332.95 686.72 332.56 684.41
  Q 331.27 676.58 329.64 669.27
  A 19.38 19.33 -51.3 0 1 329.19 665.12
  L 329.19 663.62
  A 7.47 7.39 37.9 0 0 328.94 661.71
  Q 327.13 654.83 326.21 645.00
  Q 324.75 629.45 324.40 623.69
  Q 322.85 598.47 326.42 570.73
  C 327.09 565.58 327.95 560.96 329.70 555.76
  Q 331.22 551.26 331.28 549.75
  Q 331.58 543.03 332.14 541.17
  C 334.54 533.10 335.97 526.48 338.52 519.00
  Q 348.80 488.97 364.78 460.27
  C 366.96 456.36 369.30 452.52 372.87 448.62
  Q 376.04 445.17 377.68 442.66
  Q 382.77 434.91 387.25 428.54
  Q 389.16 425.82 390.22 424.44
  Q 396.61 416.13 399.69 412.45
  Q 401.65 410.12 408.27 403.97
  A 0.46 0.46 0.0 0 1 409.00 404.11
  L 409.12 404.36
  A 0.55 0.54 -38.5 0 1 409.05 404.94
  L 398.30 417.96
  A 0.12 0.11 40.1 0 0 398.32 418.13
  L 398.53 418.31
  A 0.42 0.42 0.0 0 0 399.08 418.29
  C 402.51 415.06 405.13 412.33 410.11 407.27
  C 414.57 402.75 419.56 398.95 424.61 394.41
  Q 426.86 392.39 431.06 389.35
  Q 443.15 380.60 446.65 378.14
  Q 449.25 376.31 450.54 375.62
  C 456.34 372.52 460.69 368.60 466.30 363.80
  C 471.88 359.01 480.60 352.00 487.94 351.19
  A 3.98 3.95 29.3 0 0 489.20 350.84
  Q 492.44 349.33 500.99 345.46
  C 509.27 341.70 518.04 339.17 525.96 336.21
  C 529.06 335.05 532.73 334.44 536.87 332.98
  Q 547.87 329.10 558.99 328.69
  Q 561.76 328.59 573.61 325.78
  Q 581.55 323.90 586.08 323.46
  C 595.60 322.54 602.73 321.55 611.67 321.40
  A 0.49 0.49 0.0 0 1 612.13 322.09
  Q 611.92 322.57 611.43 322.63
  C 598.43 324.28 591.97 324.77 585.67 326.59
  Q 583.52 327.21 579.78 327.66
  Q 574.87 328.26 569.27 330.25
  C 567.01 331.05 563.67 329.87 561.20 330.25
  C 556.28 331.01 552.20 332.92 548.07 334.35
  C 541.48 336.64 539.87 337.55 533.29 339.12
  Q 530.19 339.85 525.47 342.44
  Q 520.12 345.36 513.01 346.25
  A 3.43 3.42 -61.4 0 0 511.96 346.56
  L 497.02 353.80
  A 0.31 0.31 0.0 0 0 497.14 354.39
  Q 498.25 354.47 499.45 354.14
  A 0.47 0.47 0.0 0 1 500.04 354.59
  L 500.04 354.88
  A 0.29 0.28 79.8 0 1 499.86 355.15
  Q 485.34 360.31 480.29 363.28
  Q 473.08 367.52 469.38 369.34
  A 13.55 13.45 -80.2 0 0 465.78 371.90
  C 464.18 373.48 460.29 376.01 457.97 379.20
  A 5.87 5.82 -3.5 0 1 457.23 380.03
  Q 448.78 388.00 438.99 397.24
  Q 435.80 400.26 433.31 403.32
  C 430.83 406.36 427.88 408.99 425.54 411.58
  A 8.01 7.71 82.1 0 0 424.56 412.93
  Q 421.99 417.43 421.48 417.96
  C 417.06 422.45 413.76 428.79 410.19 434.35
  Q 396.73 455.27 392.56 463.80
  Q 383.46 482.42 380.09 491.08
  Q 375.95 501.73 373.50 507.28
  C 370.33 514.45 367.96 520.35 366.08 527.91
  C 363.83 536.97 361.87 543.66 360.86 551.22
  Q 360.62 553.04 359.35 558.28
  Q 358.62 561.29 358.00 569.28
  C 357.37 577.53 356.97 582.03 356.25 587.77
  Q 355.92 590.35 355.81 595.24
  Q 355.58 605.87 356.64 614.29
  A 0.22 0.22 0.0 0 0 357.07 614.34
  Q 357.34 613.64 357.35 612.25
  Q 357.56 592.99 359.25 578.00
  Q 359.55 575.36 361.84 562.05
  Q 363.15 554.46 365.37 546.28
  Q 369.89 529.60 372.08 523.59
  Q 381.06 498.91 381.71 497.21
  Q 383.18 493.33 385.72 488.47
  C 400.22 460.66 415.49 435.90 435.67 415.16
  Q 442.59 408.05 449.66 402.67
  C 454.74 398.80 460.43 394.11 466.17 390.26
  C 472.54 386.00 475.92 383.32 480.82 381.37
  A 0.76 0.75 -7.3 0 1 481.85 382.16
  Q 481.85 382.19 481.47 382.48
  Q 464.45 395.65 457.18 402.94
  Q 454.81 405.31 447.97 411.97
  Q 444.49 415.36 440.24 419.41
  Q 435.74 423.69 432.90 427.19
  C 429.73 431.08 425.99 434.70 423.10 438.64
  Q 419.47 443.61 415.09 449.82
  A 8.63 8.40 86.2 0 1 414.11 450.97
  Q 410.49 454.46 408.69 458.48
  C 406.21 464.00 403.96 466.69 401.45 471.95
  Q 399.75 475.52 396.09 483.04
  C 383.35 509.21 374.10 536.89 368.39 564.33
  Q 366.93 571.33 366.21 578.77
  Q 364.36 598.03 364.13 613.58
  C 364.08 617.03 364.48 621.72 364.61 624.25
  Q 366.13 652.95 367.01 658.24
  C 367.78 662.87 368.20 667.69 369.80 672.11
  C 371.12 675.76 371.67 678.95 373.14 682.64
  Q 374.63 686.38 375.81 691.02
  Q 376.57 694.05 378.59 699.34
  Q 387.01 721.51 390.23 727.80
  Q 401.14 749.12 402.43 751.78
  C 405.98 759.11 410.39 765.41 414.44 773.30
  Q 416.48 777.29 420.47 781.80
  Q 421.19 782.62 432.42 795.52
  Q 434.81 798.26 437.07 800.10
  C 440.34 802.78 443.01 806.31 446.26 809.08
  Q 446.85 809.59 451.00 813.50
  Q 469.95 831.37 491.38 844.21
  Q 496.74 847.43 506.17 852.10
  Q 519.88 858.89 521.21 859.55
  C 545.54 871.49 572.90 877.43 600.57 878.31
  Q 605.00 878.45 615.22 879.01
  C 621.05 879.33 627.18 880.49 632.22 881.15
  A 0.65 0.64 26.4 0 1 632.59 882.25
  Q 632.16 882.66 630.89 882.91
  Q 613.98 886.26 611.01 886.75
  Q 608.88 887.11 602.43 886.78
  Q 592.73 886.28 578.28 884.64
  Q 565.61 883.19 552.27 879.57
  A 0.41 0.40 -73.4 0 0 551.77 879.85
  L 551.70 880.10
  A 0.18 0.17 -70.5 0 0 551.80 880.32
  Q 557.53 882.42 557.82 882.49
  C 574.26 886.49 591.03 890.48 606.63 891.82
  Q 610.58 892.17 613.96 892.62
  Q 619.29 893.33 621.24 893.39
  Q 643.81 894.04 660.56 891.10
  Q 674.65 888.62 690.25 885.90
  C 697.14 884.70 705.24 884.50 712.32 882.55
  C 718.21 880.93 724.26 879.38 729.55 877.24
  Q 747.03 870.17 758.58 862.56
  Q 762.64 859.88 773.92 851.61
  C 788.40 840.98 800.69 829.21 813.43 815.67
  Q 814.31 814.73 824.61 802.33
  Q 829.78 796.11 834.93 788.34
  Q 851.82 762.89 857.87 752.86
  Q 861.29 747.18 869.08 731.02
  Q 873.79 721.26 878.09 708.21
  C 884.52 688.71 889.69 672.74 892.95 654.87
  Q 896.86 633.46 898.08 610.50
  Q 898.66 599.61 897.82 589.46
  Q 895.74 564.43 890.76 540.05
  Q 889.56 534.16 888.52 530.85
  C 887.28 526.90 886.53 523.21 885.04 518.74
  Q 881.32 507.63 877.59 497.31
  Q 876.11 493.21 873.32 487.50
  Q 869.61 479.93 868.59 477.87
  Q 864.71 470.05 855.28 455.62
  Q 842.59 436.22 828.64 421.54
  Q 821.24 413.75 815.10 408.95
  Q 802.46 399.09 800.54 397.69
  C 797.81 395.70 792.80 392.75 788.45 389.75
  Q 784.31 386.89 779.24 384.66
  A 0.51 0.50 75.8 0 0 778.73 385.52
  Q 784.32 389.91 786.38 391.65
  Q 795.92 399.72 809.22 413.15
  C 831.46 435.60 848.62 462.88 862.72 490.78
  Q 865.03 495.36 867.17 500.99
  Q 867.32 501.40 870.71 510.28
  C 875.27 522.26 878.82 535.03 881.59 546.78
  C 885.07 561.59 886.83 578.00 887.14 594.54
  Q 888.35 657.99 865.43 717.37
  C 864.76 719.10 864.33 721.16 863.72 722.75
  Q 852.17 752.73 833.63 779.14
  Q 832.61 780.58 822.75 793.64
  C 817.29 800.88 813.09 805.21 805.74 813.25
  Q 786.95 833.79 762.18 850.92
  Q 741.06 865.52 714.66 874.24
  C 711.68 875.23 707.45 876.01 704.58 875.87
  A 0.63 0.62 -74.7 0 1 704.06 874.95
  Q 704.33 874.45 704.94 874.15
  Q 715.91 868.83 725.68 863.64
  Q 785.66 831.81 826.19 775.16
  Q 849.89 742.03 861.97 704.43
  Q 874.74 664.68 878.14 628.43
  C 878.95 619.81 878.97 615.55 879.44 607.34
  Q 879.70 602.81 879.35 596.19
  Q 879.05 590.47 878.80 585.02
  Q 877.42 555.25 868.31 526.97
  C 858.63 496.87 845.19 468.91 825.07 444.19
  C 807.52 422.66 788.48 403.41 766.11 386.53
  C 758.68 380.93 751.84 377.28 744.91 372.67
  C 736.69 367.20 727.54 364.12 717.38 361.65
  Q 684.75 353.74 654.75 352.01
  Q 635.91 350.93 629.11 350.69
  Q 626.84 350.61 624.90 350.31
  C 620.72 349.64 616.54 350.91 612.91 351.30
  Q 607.19 351.91 605.12 352.24
  Q 592.55 354.27 578.81 354.83
  C 570.27 355.17 564.59 356.13 558.10 359.00
  C 550.41 362.40 540.79 364.83 533.82 366.39
  Q 526.15 368.10 518.87 370.84
  Q 513.21 372.97 502.13 377.18
  A 0.50 0.49 -10.3 0 1 501.46 376.72
  L 501.46 376.43
  A 0.69 0.69 0.0 0 1 501.85 375.81
  Q 522.55 365.66 543.11 357.84
  Q 545.77 356.83 548.64 356.59
  Q 553.08 356.21 553.82 356.04
  Q 559.96 354.62 564.20 351.51
  A 6.35 6.29 16.5 0 1 565.69 350.71
  Q 571.46 348.57 577.32 347.35
  Q 588.47 345.02 598.87 343.95
  C 604.28 343.39 608.30 341.96 613.62 341.66
  Q 638.76 340.23 646.74 340.61
  C 660.62 341.26 675.46 342.32 690.03 345.51
  Q 713.05 350.57 733.20 358.56
  A 0.36 0.36 0.0 0 0 733.56 357.95
  Q 733.14 357.61 729.43 354.91
  Q 728.80 354.45 728.46 353.43
  A 0.29 0.29 0.0 0 1 728.88 353.08
  C 738.20 358.02 747.40 363.48 755.07 367.58
  C 764.08 372.40 770.89 376.74 778.93 381.01
  Q 787.40 385.50 789.47 386.86
  Q 792.64 388.94 797.00 393.30
  Q 798.81 395.11 804.58 398.68
  A 0.55 0.54 -55.7 0 0 805.30 398.54
  L 805.31 398.52
  A 0.45 0.45 0.0 0 0 805.24 397.92
  Q 801.26 394.42 796.33 390.83
  C 794.28 389.33 791.97 386.39 790.26 385.31
  C 784.94 381.97 780.29 378.20 774.39 374.50
  Q 760.83 365.99 746.07 358.17
  Q 744.01 357.08 732.92 352.36
  Q 729.87 351.06 728.03 351.56
  A 1.49 1.43 46.2 0 1 727.09 351.52
  Q 722.41 349.74 721.43 349.10
  Q 716.62 345.94 714.32 344.69
  Q 712.43 343.67 706.12 343.26
  A 8.53 7.95 -33.0 0 1 704.31 342.94
  L 682.45 336.42
  A 0.73 0.73 0.0 0 1 682.54 335.00
  C 689.79 333.80 700.63 333.45 707.02 336.56
  Q 713.07 339.50 714.58 339.92
  Q 731.64 344.58 742.47 350.84
  Q 743.23 351.28 747.73 352.87
  Q 750.15 353.73 752.89 355.14
  C 760.63 359.12 765.35 361.05 771.12 364.74
  Q 773.68 366.38 777.32 367.78
  A 12.24 11.76 -16.4 0 1 779.78 369.06
  Q 799.63 382.56 803.31 385.82
  Q 810.00 391.78 821.74 401.79
  Q 823.92 403.65 832.05 411.96
  Q 836.09 416.09 841.42 422.87
  C 850.25 434.08 857.64 443.41 863.76 454.04
  Q 866.38 458.57 867.60 460.17
  C 869.06 462.08 871.42 465.44 872.59 468.37
  C 874.01 471.90 876.22 474.50 878.19 478.12
  Q 880.38 482.11 882.24 486.48
  Q 887.70 499.31 891.89 511.39
  Q 892.54 513.28 892.98 515.11
  C 893.47 517.20 892.72 520.94 893.94 522.84
  Q 897.49 528.36 897.86 534.11
  Q 898.16 538.89 898.75 539.79
  C 899.58 541.08 900.92 545.44 901.33 547.39
  C 904.27 561.53 905.05 572.77 906.39 588.88
  Q 907.48 601.88 907.04 611.22
  Q 906.22 628.74 904.68 637.50
  Q 899.59 666.36 895.51 683.03
  Q 892.98 693.34 886.40 710.10
  Q 884.21 715.67 884.06 716.22
  C 882.56 721.49 880.52 724.86 878.39 730.61
  C 875.94 737.20 872.56 742.56 869.52 749.06
  C 866.32 755.90 862.36 762.95 858.99 769.18
  Q 856.29 774.18 853.25 778.71
  C 849.15 784.83 845.14 791.70 840.75 797.67
  Q 828.76 813.97 819.56 824.34
  C 808.94 836.34 795.88 848.16 782.28 859.00
  Q 764.43 873.22 744.54 883.52
  Q 734.97 888.47 721.01 893.59
  C 716.63 895.19 711.58 896.14 707.35 896.15
  A 0.48 0.47 -86.3 0 1 706.88 895.61
  Q 706.92 895.28 707.24 894.98
  C 708.43 893.87 712.23 891.76 713.86 890.97
  Q 730.43 882.86 740.42 877.46
  Q 740.63 877.35 741.71 876.36
  A 0.29 0.29 0.0 0 0 741.56 875.86
  Q 741.46 875.84 735.96 878.54
  Q 728.85 882.02 725.58 883.33
  Q 725.21 883.48 713.33 887.12
  Q 708.11 888.72 701.23 891.25
  Q 681.85 898.40 665.46 900.09
  Q 659.96 900.65 656.16 901.13
  C 647.00 902.29 636.99 902.61 629.01 903.91
  A 21.45 21.20 -47.6 0 1 624.41 904.15
  C 618.11 903.80 613.01 904.37 606.90 903.95
  C 598.90 903.40 592.52 903.37 585.09 902.27
  Q 574.24 900.65 568.92 900.36
  A 0.27 0.27 0.0 0 0 568.85 900.89
  L 591.07 904.81
  A 5.28 4.91 47.1 0 0 592.17 904.89
  Q 599.35 904.65 606.33 906.62
  A 1.11 0.90 -32.4 0 0 606.58 906.65
  L 610.77 906.61
  A 22.89 22.46 47.9 0 1 614.06 906.81
  L 633.73 909.42
  A 0.82 0.81 -86.8 0 1 634.44 910.22
  L 634.44 910.26
  A 0.93 0.93 0.0 0 1 633.57 911.19
  Q 630.41 911.38 618.17 912.00
  Q 610.73 912.38 602.85 911.49
  Q 593.71 910.47 584.91 909.34
  Q 578.66 908.54 575.31 907.58
  C 571.05 906.36 566.75 905.82 562.55 904.71
  Q 539.87 898.71 520.31 888.91
  Q 516.29 886.90 512.98 887.52
  A 2.51 2.48 48.8 0 1 511.72 887.43
  Q 503.67 884.60 499.47 881.78
  Q 494.13 878.19 490.52 877.49
  A 6.14 6.12 63.5 0 1 488.86 876.93
  Q 486.15 875.55 470.97 867.41
  Q 458.26 860.60 444.05 849.61
  C 442.54 848.44 440.16 847.22 438.54 845.93
  Q 431.76 840.54 424.13 834.27
  Q 419.51 830.48 416.82 827.44
  Q 412.60 822.67 409.86 820.45
  A 8.22 8.02 3.0 0 1 408.29 818.75
  Q 403.33 811.58 396.52 804.52
  Z
  M 348.39 522.89
  Q 348.85 522.78 349.00 522.21
  C 350.02 518.37 352.26 514.01 353.53 510.51
  Q 358.17 497.77 364.65 483.41
  Q 365.19 482.22 366.26 481.27
  A 0.33 0.33 0.0 0 1 366.81 481.48
  Q 366.86 482.03 365.87 484.66
  Q 361.79 495.48 356.31 508.80
  Q 352.45 518.21 351.64 521.15
  Q 346.58 539.67 344.70 547.40
  C 343.66 551.69 342.54 557.49 342.19 562.60
  Q 341.76 568.85 341.46 571.57
  A 0.18 0.18 0.0 0 0 341.80 571.65
  Q 343.54 567.02 344.19 561.65
  A 2.06 2.05 -15.6 0 1 344.98 560.26
  L 345.28 560.03
  A 0.39 0.39 0.0 0 1 345.91 560.36
  Q 345.47 571.15 344.60 580.45
  Q 343.50 592.28 343.39 597.58
  Q 343.09 612.30 343.30 614.76
  Q 345.44 640.44 345.92 645.39
  Q 347.72 664.24 354.87 684.85
  Q 364.61 712.96 369.10 722.43
  Q 370.37 725.12 370.38 725.13
  C 371.62 726.88 373.13 729.09 374.25 731.52
  Q 381.17 746.56 386.49 755.92
  Q 391.04 763.91 392.17 765.96
  Q 398.12 776.79 411.78 794.46
  Q 412.76 795.71 418.10 801.44
  Q 421.19 804.74 425.16 807.51
  Q 428.04 809.52 433.14 813.90
  A 0.63 0.62 41.9 0 0 433.99 813.86
  L 434.01 813.84
  A 0.62 0.61 44.7 0 0 434.00 812.98
  Q 430.80 809.82 427.92 806.09
  Q 419.43 795.12 413.27 785.33
  C 408.78 778.20 403.60 772.48 399.22 765.79
  Q 392.35 755.30 390.24 752.24
  Q 385.32 745.13 381.91 738.35
  Q 374.35 723.31 372.69 718.62
  Q 366.13 700.06 364.51 693.00
  Q 361.64 680.50 361.29 675.99
  Q 360.75 668.85 360.28 666.49
  Q 356.97 649.98 355.21 640.52
  Q 354.69 637.74 354.54 635.21
  A 1.23 1.21 -84.1 0 0 353.65 634.10
  Q 352.17 633.69 352.01 633.02
  Q 351.28 629.93 351.07 627.50
  Q 349.20 605.88 350.34 584.45
  C 350.80 575.89 352.28 567.84 353.36 558.78
  Q 354.64 547.92 358.44 533.35
  Q 362.38 518.22 365.11 509.09
  C 369.58 494.18 374.55 483.31 381.52 468.24
  Q 387.68 454.93 403.06 431.59
  Q 405.04 428.58 413.34 418.50
  Q 417.58 413.34 422.54 406.92
  Q 430.29 396.87 438.29 389.59
  A 0.26 0.25 -78.9 0 0 438.01 389.17
  Q 436.60 389.86 435.22 390.97
  C 421.68 401.92 406.89 415.21 395.81 429.49
  A 2.98 2.80 -16.6 0 0 395.45 430.11
  L 393.34 435.01
  A 3.08 2.65 -20.2 0 1 393.00 435.62
  C 389.21 440.81 386.88 443.50 383.86 448.34
  Q 383.50 448.93 377.23 457.69
  C 368.99 469.19 362.65 482.74 357.43 496.27
  Q 355.09 502.35 352.44 508.32
  Q 349.57 514.79 347.93 522.45
  A 0.38 0.38 0.0 0 0 348.39 522.89
  Z
  M 353.9614 488.7804
  A 0.26 0.26 0.0 0 0 353.7997 488.4502
  L 352.8347 488.1198
  A 0.26 0.26 0.0 0 0 352.5045 488.2816
  L 342.1586 518.4996
  A 0.26 0.26 0.0 0 0 342.3203 518.8298
  L 343.2853 519.1602
  A 0.26 0.26 0.0 0 0 343.6155 518.9984
  L 353.9614 488.7804
  Z
  M 341.5091 525.7071
  A 1.16 0.43 -77.6 0 0 340.8400 526.7477
  A 1.16 0.43 -77.6 0 0 341.0109 527.9729
  A 1.16 0.43 -77.6 0 0 341.6800 526.9323
  A 1.16 0.43 -77.6 0 0 341.5091 525.7071
  Z
  M 334.44 569.06
  L 339.28 538.11
  A 0.17 0.17 0.0 0 0 339.14 537.92
  L 338.95 537.89
  A 15.61 0.97 -81.1 0 0 335.57 553.16
  L 335.50 553.59
  A 15.61 0.97 -81.1 0 0 334.05 569.17
  L 334.24 569.20
  A 0.17 0.17 0.0 0 0 334.44 569.06
  Z
  M 341.5525 571.9530
  A 1.87 0.28 -81.0 0 0 340.9834 573.7562
  A 1.87 0.28 -81.0 0 0 340.9675 575.6470
  A 1.87 0.28 -81.0 0 0 341.5366 573.8438
  A 1.87 0.28 -81.0 0 0 341.5525 571.9530
  Z
  M 341.48 578.32
  L 341.47 577.90
  A 0.15 0.14 46.8 0 0 341.18 577.89
  Q 341.16 578.12 341.35 578.36
  A 0.07 0.07 0.0 0 0 341.48 578.32
  Z
  M 341.74 579.91
  Q 342.08 579.46 341.89 579.15
  A 0.38 0.37 32.6 0 0 341.19 579.30
  Q 341.14 579.77 341.17 579.83
  A 0.33 0.33 0.0 0 0 341.74 579.91
  Z
  M 353.4540 625.9163
  A 2.88 0.42 -96.1 0 0 353.3424 628.8246
  A 2.88 0.42 -96.1 0 0 354.0660 631.6437
  A 2.88 0.42 -96.1 0 0 354.1776 628.7354
  A 2.88 0.42 -96.1 0 0 353.4540 625.9163
  Z
  M 334.9935 635.3962
  A 2.22 0.42 -94.3 0 0 334.7412 637.6415
  A 2.22 0.42 -94.3 0 0 335.3265 639.8238
  A 2.22 0.42 -94.3 0 0 335.5788 637.5785
  A 2.22 0.42 -94.3 0 0 334.9935 635.3962
  Z
  M 335.98 645.10
  Q 335.51 646.10 335.63 647.25
  Q 337.17 661.82 340.21 673.11
  Q 342.18 680.38 343.52 687.24
  Q 344.98 694.68 347.33 701.22
  C 349.25 706.56 350.66 712.07 352.85 717.79
  Q 354.88 723.09 359.71 735.24
  C 361.96 740.89 365.93 746.90 368.93 750.45
  C 373.86 756.27 378.16 763.49 383.71 769.57
  A 0.74 0.74 0.0 0 0 384.61 769.72
  L 384.66 769.70
  A 0.54 0.54 0.0 0 0 384.83 768.90
  Q 380.65 763.45 377.46 758.04
  Q 367.78 741.61 360.15 724.60
  Q 358.11 720.05 351.22 703.18
  C 348.62 696.83 346.55 689.29 344.13 683.09
  Q 343.58 681.70 342.62 677.43
  Q 338.57 659.47 336.34 645.15
  A 0.19 0.19 0.0 0 0 335.98 645.10
  Z
  M 375.70 768.67
  Q 375.87 769.90 376.49 770.80
  Q 384.86 782.98 399.72 801.44
  Q 401.49 803.64 407.64 809.64
  C 422.77 824.41 438.28 838.34 455.56 849.65
  Q 460.15 852.66 468.15 858.02
  Q 471.28 860.11 473.56 861.90
  Q 475.57 863.47 479.35 865.54
  A 0.31 0.30 33.9 0 0 479.74 865.47
  L 479.98 865.18
  A 0.38 0.38 0.0 0 0 479.90 864.63
  Q 477.47 863.00 474.68 861.28
  C 470.16 858.49 465.69 854.84 461.87 852.28
  Q 457.62 849.44 454.14 846.65
  Q 444.23 838.70 434.51 830.85
  Q 430.37 827.51 426.03 823.09
  Q 418.26 815.17 411.39 807.42
  C 407.48 803.00 401.61 798.64 398.37 795.13
  Q 386.26 782.00 376.26 768.44
  A 0.31 0.31 0.0 0 0 375.70 768.67
  Z
  M 385.9160 794.4174
  A 1.48 0.57 -124.3 0 0 386.2791 795.9612
  A 1.48 0.57 -124.3 0 0 387.5840 796.8626
  A 1.48 0.57 -124.3 0 0 387.2209 795.3188
  A 1.48 0.57 -124.3 0 0 385.9160 794.4174
  Z
  M 448.49 829.49
  Q 448.18 829.23 447.94 829.27
  A 0.24 0.24 0.0 0 0 447.80 829.67
  Q 447.92 829.80 448.25 829.92
  A 0.25 0.25 0.0 0 0 448.49 829.49
  Z
  M 496.01 860.66
  Q 497.86 861.69 500.81 863.00
  Q 510.48 867.32 519.34 870.69
  A 0.40 0.39 20.8 0 0 519.84 870.47
  L 519.85 870.45
  A 0.40 0.40 0.0 0 0 519.64 869.93
  C 511.88 866.56 504.54 862.72 497.14 858.61
  C 489.75 854.50 482.61 850.29 475.65 845.48
  A 0.40 0.40 0.0 0 0 475.10 845.58
  L 475.09 845.60
  A 0.40 0.39 37.3 0 0 475.16 846.14
  Q 482.70 851.88 491.47 857.81
  Q 494.15 859.62 496.01 860.66
  Z
  M 514.4944 876.6419
  A 10.84 0.79 -157.1 0 0 524.1726 881.5877
  A 10.84 0.79 -157.1 0 0 534.4656 885.0781
  A 10.84 0.79 -157.1 0 0 524.7874 880.1323
  A 10.84 0.79 -157.1 0 0 514.4944 876.6419
  Z"
/>
<rect fill="#1d4c31" x="-7.42" y="-0.60" transform="translate(420.19,395.14) rotate(-40.7)" width="14.84" height="1.20" rx="0.27"/>
<path fill="#1d4c31" d="
  M 961.19 420.95
  A 0.60 0.59 -59.5 0 1 960.91 419.86
  Q 971.17 413.01 982.79 409.05
  Q 997.81 403.93 1017.08 398.60
  Q 1027.30 395.77 1037.24 393.94
  Q 1040.44 393.34 1042.81 394.62
  A 2.08 1.80 36.1 0 1 1043.52 397.69
  Q 1042.64 398.53 1040.95 399.20
  C 1024.04 405.94 1010.81 409.85 983.62 418.40
  Q 972.87 421.78 961.19 420.95
  Z"
/>
<path fill="#1d4c31" d="
  M 286.59 421.13
  Q 286.22 421.37 285.52 421.32
  C 278.15 420.84 269.73 419.83 261.48 417.66
  Q 237.77 411.44 221.70 405.85
  C 219.63 405.13 211.68 402.45 213.19 399.03
  C 214.68 395.65 220.56 396.40 223.39 397.12
  Q 238.41 400.98 258.21 407.32
  C 268.71 410.68 276.89 415.38 286.56 420.52
  A 0.35 0.35 0.0 0 1 286.59 421.13
  Z"
/>
<path fill="#1d4c31" d="
  M 587.50 675.17
  Q 590.32 671.34 590.44 671.20
  Q 601.72 657.48 612.53 643.83
  C 614.48 641.38 616.33 639.99 618.17 637.45
  Q 631.06 619.69 647.34 601.62
  C 653.29 595.02 658.04 587.78 664.33 581.21
  Q 672.71 572.45 678.06 566.17
  C 680.44 563.37 683.81 560.89 685.92 557.66
  Q 688.15 554.23 690.11 551.87
  Q 697.54 542.91 702.95 537.54
  C 712.85 527.72 720.30 518.76 729.55 509.06
  C 733.33 505.09 739.62 500.05 744.67 505.02
  C 747.06 507.38 748.59 508.21 750.66 510.49
  C 752.21 512.20 753.45 513.01 755.71 514.57
  A 8.24 8.21 -87.8 0 1 758.13 517.19
  Q 759.31 519.22 760.33 521.30
  C 762.05 524.80 759.45 528.33 757.00 530.89
  Q 745.42 543.01 730.75 558.83
  Q 725.40 564.60 722.39 568.30
  Q 715.77 576.42 714.25 578.00
  C 709.96 582.48 705.92 588.17 701.41 592.64
  Q 699.50 594.52 696.31 598.52
  Q 689.44 607.14 685.73 610.97
  Q 682.98 613.81 681.14 616.84
  C 679.76 619.13 676.92 621.48 674.64 624.37
  Q 666.95 634.11 656.21 646.47
  A 6.53 6.47 80.8 0 0 655.44 647.55
  C 652.42 652.81 649.45 655.94 645.27 659.28
  C 641.52 662.28 639.64 667.82 636.50 671.56
  C 634.54 673.89 633.37 675.98 631.31 677.99
  Q 628.99 680.26 626.32 684.26
  C 622.04 690.66 616.75 695.59 612.29 701.87
  Q 606.17 710.50 598.88 718.66
  Q 597.09 720.66 596.03 722.21
  C 595.13 723.53 593.58 725.91 592.18 726.88
  Q 587.27 730.31 582.13 726.05
  Q 576.96 721.78 571.00 715.14
  C 566.67 710.31 562.20 706.30 558.36 701.95
  C 553.46 696.39 548.84 693.21 543.74 688.03
  C 534.00 678.14 518.12 662.79 505.86 649.19
  Q 493.18 635.11 492.54 634.35
  C 489.01 630.15 492.47 626.80 494.57 623.59
  A 6.63 6.52 89.5 0 1 496.25 621.85
  C 499.10 619.84 500.95 616.92 503.74 615.31
  Q 505.29 614.42 508.33 611.40
  C 512.26 607.49 515.63 606.84 520.00 610.17
  Q 521.12 611.03 534.29 624.69
  A 6.57 6.22 84.4 0 0 535.20 625.48
  Q 537.03 626.78 538.74 628.39
  Q 553.94 642.73 561.56 651.10
  C 565.43 655.35 569.09 657.85 572.64 662.16
  Q 574.18 664.03 576.94 666.62
  Q 580.54 670.00 585.74 675.29
  A 1.16 1.16 0.0 0 0 587.50 675.17
  Z
  M 734.5579 546.6838
  A 0.70 0.70 0.0 0 0 734.5199 545.6946
  L 734.4905 545.6674
  A 0.70 0.70 0.0 0 0 733.5013 545.7054
  L 721.8421 558.2962
  A 0.70 0.70 0.0 0 0 721.8801 559.2854
  L 721.9095 559.3126
  A 0.70 0.70 0.0 0 0 722.8987 559.2746
  L 734.5579 546.6838
  Z
  M 704.0794 548.4009
  A 0.32 0.32 0.0 0 0 704.0533 547.9491
  L 703.6203 547.5633
  A 0.32 0.32 0.0 0 0 703.1685 547.5893
  L 688.2806 564.2991
  A 0.32 0.32 0.0 0 0 688.3067 564.7509
  L 688.7397 565.1367
  A 0.32 0.32 0.0 0 0 689.1915 565.1107
  L 704.0794 548.4009
  Z
  M 651.09 607.83
  L 661.03 597.11
  A 0.11 0.11 0.0 0 0 661.02 596.95
  L 661.01 596.94
  A 2.76 1.00 -47.2 0 0 658.41 598.29
  L 652.07 605.13
  A 2.76 1.00 -47.2 0 0 650.93 607.83
  L 650.94 607.84
  A 0.11 0.11 0.0 0 0 651.09 607.83
  Z
  M 530.9445 632.7647
  A 0.57 0.57 0.0 0 0 530.1384 632.7633
  L 530.1100 632.7916
  A 0.57 0.57 0.0 0 0 530.1086 633.5977
  L 538.8755 642.3953
  A 0.57 0.57 0.0 0 0 539.6816 642.3967
  L 539.7100 642.3684
  A 0.57 0.57 0.0 0 0 539.7114 641.5623
  L 530.9445 632.7647
  Z
  M 542.2637 645.6326
  A 1.99 0.57 -136.2 0 0 543.3055 647.4214
  A 1.99 0.57 -136.2 0 0 545.1363 648.3874
  A 1.99 0.57 -136.2 0 0 544.0945 646.5986
  A 1.99 0.57 -136.2 0 0 542.2637 645.6326
  Z"
/>
</svg>
