<?xml version="1.0" encoding="UTF-8"?>
<!DOCTYPE svg PUBLIC "-//W3C//DTD SVG 1.1//EN" "http://www.w3.org/Graphics/SVG/1.1/DTD/svg11.dtd">
<svg xmlns="http://www.w3.org/2000/svg" version="1.1" width="1849px" height="449px" style="shape-rendering:geometricPrecision; text-rendering:geometricPrecision; image-rendering:optimizeQuality; fill-rule:evenodd; clip-rule:evenodd" xmlns:xlink="http://www.w3.org/1999/xlink">
<g><path fill="#617661" fill-opacity="0.576" d="M 431.8,233.77 c 0.26,1.75 0.41,3.5 0.45,5.26 c -0.36,0.72 -0.71,1.44 -1.05,2.16 c -0.29,-2.91 -0.37,-3.75 -3.57,-3.19 c 0.82,-0.77 1.73,-1.43 2.73,-2 c 0.36,-0.83 0.84,-1.57 1.44,-2.23 Z"/></g>
<g><path fill="#546a56" fill-opacity="0.49" d="M 611.32,164.04 c -1.19,-0.05 -2.38,-0.07 -3.56,-0.05 c 0.36,-1.61 3.17,-1.3 3.56,0.05 Z M 1548.36,216.88 c -1.21,0.15 -2.41,0.13 -3.61,-0.07 c 0.73,-1.5 2.86,-1.32 3.61,0.07 Z M 1548.36,216.88 c 0.26,0.02 1.4,2.53 1.81,3.06 c -2.38,0.12 -2.98,-0.9 -1.81,-3.06 Z M 163,241.77 c -0.14,0.66 -0.55,1.02 -1.23,1.08 c 0.31,-0.48 0.72,-0.84 1.23,-1.08 Z"/></g>
<g><path fill="#5c6e5e" fill-opacity="0.549" d="M 565.35,211.84 c -1.89,0.21 -3.8,0.28 -5.73,0.2 c 0.25,-1.59 5.35,-1.54 5.73,-0.2 Z M 565.35,211.84 c 1.39,0.17 1.96,0.96 1.71,2.37 c -0.52,-0.54 -2.24,-1.46 -1.71,-2.37 Z"/></g>
<g><path fill="#5a6e5a" fill-opacity="0.537" d="M 587.32,201.76 c -1.17,0.22 -2.34,0.28 -3.53,0.18 c 0.33,-1.42 2.88,-1.18 3.53,-0.18 Z M 587.32,201.76 c 0.55,0.28 0.9,0.72 1.06,1.33 c -0.87,-0.06 -1.22,-0.5 -1.06,-1.33 Z"/></g>
<g><path fill="#526551" fill-opacity="0.816" d="M 568.43,227.81 c 0.62,1.43 0.88,2.93 0.78,4.52 c -1.62,-0.66 -1.08,-3.21 -0.78,-4.52 Z"/></g>
<g><path fill="#516652" fill-opacity="0.624" d="M 386.73,229.69 c 0.14,1.44 0.23,2.89 0.26,4.33 c -0.43,0.05 -0.73,-0.14 -0.91,-0.54 c -0.56,-1.41 -0.34,-2.68 0.65,-3.79 Z"/></g>
<g><path fill="#6a7c6b" fill-opacity="0.431" d="M 719.38,157.99 c -1.57,-0.18 -3.12,-0.09 -4.66,0.25 c 0.57,-1.83 4.34,-1.91 4.66,-0.25 Z"/></g>
<g><path fill="#6f8572" fill-opacity="0.655" d="M 1578.34,179.64 c 0.99,1.19 1.49,3.76 -0.04,4.68 c -0.5,-1.56 -0.48,-3.12 0.04,-4.68 Z"/></g>
<g><path fill="#4d6350" fill-opacity="0.471" d="M 627.25,198.8 c -0.2,0.64 -0.62,1.04 -1.27,1.19 c 0.16,-0.68 0.58,-1.08 1.27,-1.19 Z M 1762.29,213.66 c -0.36,1.16 -1.15,1.57 -2.36,1.23 c -0.09,-1.09 1.67,-1.03 2.36,-1.23 Z"/></g>
<g><path fill="#5a6e5b" fill-opacity="0.71" d="M 1727.62,200.86 c 0.49,1.75 -0.18,2.42 -2.01,2.01 c 0.72,-0.63 1.39,-1.29 2.01,-2.01 Z"/></g>
<g><path fill="#566c59" fill-opacity="0.706" d="M 859.63,217.88 c 0.58,1.8 -0.08,2.46 -1.97,1.99 c 0.68,-0.64 1.33,-1.3 1.97,-1.99 Z"/></g>
<g><path fill="#4f6352" fill-opacity="0.6" d="M 1636.64,202.83 c 0.38,0.74 0.49,2.53 -0.89,2.02 c 0.27,-0.68 0.57,-1.36 0.89,-2.02 Z"/></g>
<g><path fill="#576d5a" fill-opacity="0.498" d="M 390.01,227.74 c 0.35,1.35 -1.53,1.25 -2.3,1.02 c 0.66,-0.55 1.43,-0.89 2.3,-1.02 Z"/></g>
<g><path fill="#536653" fill-opacity="0.678" d="M 1718.36,194.65 c 0.63,0.61 0.91,1.37 0.85,2.27 c -1.01,-0.43 -1.3,-1.19 -0.85,-2.27 Z"/></g>
<g><path fill="#516958" fill-opacity="0.349" d="M 1384.62,175.02 c 1.26,-0.26 2.1,0.18 2.53,1.33 c -1.02,-0.14 -1.86,-0.59 -2.53,-1.33 Z"/></g>
<g><path fill="#637866" fill-opacity="0.341" d="M 720.06,158.8 c 0.5,0.37 0.85,0.86 1.03,1.47 c -0.62,-0.3 -0.96,-0.79 -1.03,-1.47 Z"/></g>
<g><path fill="#4e6650" fill-opacity="0.471" d="M 421.37,242.8 c -0.38,0.62 -0.93,0.99 -1.65,1.12 c 0.39,-0.6 0.94,-0.97 1.65,-1.12 Z"/></g>
<g><path fill="#5a6e5d" fill-opacity="0.298" d="M 1390.29,174.67 c -0.33,0.71 -0.84,1.25 -1.54,1.6 c 0.23,-0.81 0.74,-1.34 1.54,-1.6 Z"/></g>
<g><path fill="#4c654f" fill-opacity="0.365" d="M 174.25,213.97 c -0.31,0.57 -0.79,0.89 -1.44,0.94 c 0.27,-0.61 0.75,-0.92 1.44,-0.94 Z"/></g>
<g><path fill="#516b59" fill-opacity="0.392" d="M 1626.11,216.69 c 0.47,0.46 0.79,1.02 0.94,1.66 c -0.56,-0.41 -0.87,-0.96 -0.94,-1.66 Z"/></g>
<g><path fill="#516b57" fill-opacity="0.455" d="M 1135.83,224.69 c -0.07,0.71 -0.42,1.21 -1.07,1.5 c 0.12,-0.67 0.48,-1.17 1.07,-1.5 Z"/></g>
<g><path fill="#5f715d" fill-opacity="0.522" d="M 827.72,207.75 c 0.71,0.28 1.24,0.76 1.61,1.42 c -0.77,-0.22 -1.3,-0.69 -1.61,-1.42 Z"/></g>
<g><path fill="#596e5a" fill-opacity="0.835" d="M 366.31,222.68 c 0.31,0.36 0.63,0.7 0.96,1.04 c -0.62,-0.06 -0.94,-0.41 -0.96,-1.04 Z"/></g>
<g><path fill="#546957" fill-opacity="0.435" d="M 823.39,206.69 c -0.35,0.68 -0.9,1.08 -1.64,1.2 c 0.38,-0.61 0.93,-1.01 1.64,-1.2 Z"/></g>
<g><path fill="#526652" fill-opacity="0.447" d="M 624.99,199.73 c -0.15,0.72 -0.59,1.12 -1.33,1.19 c 0.26,-0.6 0.71,-1 1.33,-1.19 Z"/></g>
<g><path fill="#4f6553" fill-opacity="0.455" d="M 1210.72,192.63 c 0.62,0.29 1.16,0.69 1.62,1.19 c -0.8,-0.04 -1.34,-0.44 -1.62,-1.19 Z"/></g>
<g><path fill="#597159" fill-opacity="0.345" d="M 678.03,202.6 c 0.52,0.38 0.96,0.84 1.32,1.38 c -0.77,-0.15 -1.21,-0.61 -1.32,-1.38 Z"/></g>
<g><path fill="#25412f" fill-opacity="0.988" stroke="#25412f" stroke-width="0.5" stroke-opacity="0.988" d="M 74.65,262 c 0.89,0.07 2.61,0.08 2.42,-1.27 c 0.28,0.03 0.55,0.06 0.83,0.09 c 0.7,-0.01 2.29,0.21 2.39,-0.8 c 0.75,0.16 5.18,0.25 4.49,-1.23 c 2.62,-0.71 5.25,-1.37 7.88,-1.97 c 1.19,0.34 2.08,-0.01 2.69,-1.04 c 0.44,0.03 0.87,0.09 1.3,0.18 c 0.95,0.21 1.89,0.21 2.84,-0.01 c 2.83,-1.01 5.74,-1.32 8.75,-0.94 c -0.11,0.22 -0.21,0.45 -0.31,0.67 c 0.06,1.53 -0.01,3.05 -0.19,4.57 c -4.6,2.87 -33.76,11.31 -41.26,13.55 c -5.59,1.14 -12.95,-1.21 -11.32,-8.28 c 6.55,-25.51 11.33,-51.03 15.71,-77.03 c 1.37,-8.06 3.71,-40.97 9.68,-45.35 c 3.2,-2.49 5.83,2.62 5.47,5.36 c -1.72,5.91 -2.8,10.8 -3.16,16.89 c -3.7,22.07 -6.54,44.14 -11.06,66.08 c -2.29,10 -4.51,20.02 -6.67,30.06 c -0.57,3.9 2.79,1.5 5.16,1.97 c 1.46,-0.47 2.92,-0.98 4.36,-1.5 Z M 1152.59,195.79 c 0.58,0.13 2.6,0.26 2.07,-0.93 c 1,0.45 2.62,0.23 2.64,-1.14 c 12.34,-1.39 21.3,8.43 17.33,20.6 c -5.49,13.36 -24.76,27.94 -38.56,18.17 c -1.98,-1.8 -2.41,-3.9 -1.31,-6.3 c 0.65,-0.29 1,-0.79 1.07,-1.5 c 2.53,-23.16 4.54,-46.51 6.47,-69.76 c 0.89,-1.12 2.22,-3.92 3.97,-3.62 c 4.41,3.24 2.14,7.7 1.98,12.19 c -0.11,11.47 -3.06,26.51 -1.82,37.18 c 1.92,-1.8 3.97,-3.43 6.16,-4.89 Z M 1464.56,189 c 4.33,-0.07 8.66,-0.06 12.98,0.03 c 0.91,0.02 1.79,-0.11 2.66,-0.38 c 0.69,0.76 0.96,1.64 0.8,2.65 c -2.8,7.73 -19.98,1.44 -19.98,9.2 c -0.26,8.41 -3.11,22.07 -1.2,29.96 c 0.28,5.4 -4.44,7.1 -7.54,2.7 c -0.44,-1.3 -0.86,-2.61 -1.28,-3.93 c 0.47,-0.05 0.76,-0.3 0.87,-0.76 c -0.14,-2.38 -0.08,-4.74 0.18,-7.11 c -0.03,-0.56 -0.19,-1.08 -0.47,-1.57 c 0.21,-3.18 0.33,-6.37 0.37,-9.57 c 1.23,-0.24 0.9,-1.72 0.46,-2.49 c 0.39,-1.37 1.62,-7.13 0.56,-8.11 c -3.19,-0.02 -6.36,0.32 -9.5,1.03 c -1.12,0.03 -2.21,-0.13 -3.28,-0.47 c -0.35,-1.83 -0.41,-3.68 -0.17,-5.55 c 0.34,-0.76 0.86,-1.36 1.59,-1.79 c 0.99,0.16 3.75,0.51 3.72,-1.08 c 0.5,0 0.97,0.13 1.4,0.37 c 1.58,0.08 3.12,-0.1 4.64,-0.54 c 1.08,-0.44 2.04,-1.03 2.9,-1.76 c 0.92,-1.22 1.66,-11.21 1.91,-13.31 c 1.23,-2.63 1.85,-29.43 8.43,-23.65 c 2.97,5.96 -1.54,24.31 -1.78,31.63 c 0.16,1.47 -0.53,4.49 1.73,4.5 Z M 1597.95,154.46 c 1.78,-0.94 3.59,-0.97 5.42,-0.11 c 1.83,4.91 -6.15,40.75 -7.79,48.22 c 0.09,0.55 0.41,0.9 0.97,1.05 c 2.9,-5.25 10.26,-15.83 16.15,-17.65 c 1.85,0.08 3.69,0.06 5.52,-0.06 c -0.25,1.04 1.28,1.15 1.96,1.28 c 5.63,6.79 3.26,21.18 5.93,29.5 c 0.07,0.7 0.38,1.25 0.94,1.66 c 2.33,3.24 -1.31,6.41 -4.63,4.7 c -6.39,-3.98 -5.35,-16.83 -6.71,-23.39 c -0.65,-1.19 -1.05,-2.45 -1.19,-3.79 c -1.38,-3.24 -9.47,7.55 -10.37,8.72 c -3.38,3.45 -8.16,16.78 -12.48,17.73 c -2.25,0.6 -3.93,-0.11 -5.04,-2.12 c 0.37,-2.47 0.36,-4.93 -0.02,-7.39 c 0.89,0.12 1.34,-0.28 1.36,-1.22 c 0.09,-2.4 0.37,-4.77 0.83,-7.11 c 0.08,-0.67 -0.14,-1.16 -0.66,-1.48 c 0.76,-4.45 2.12,-9.55 2.12,-14.01 c 0.3,-0.38 0.5,-0.8 0.6,-1.28 c -0.11,-0.45 -0.15,-0.9 -0.13,-1.36 c 1.88,-0.38 1.51,-3.26 1.14,-4.65 c 1.08,-4.67 4.07,-18.43 3.91,-22.44 c 1.62,-0.9 2.34,-2.31 2.16,-4.22 c 0,-0.19 0,-0.39 0.01,-0.58 Z M 714.72,158.24 c 1.54,-0.34 3.09,-0.43 4.66,-0.25 c 0.43,0.1 0.66,0.36 0.68,0.81 c 0.07,0.68 0.41,1.17 1.03,1.47 c -0.21,1.15 -0.3,2.31 -0.27,3.49 c -1.53,0.49 -0.7,9.06 -0.64,10.65 c 0.08,0.34 0.28,0.59 0.59,0.73 c 0.55,5.84 -0.4,11.78 -0.7,17.58 c 0.39,1.59 2.77,1.78 3.19,0.38 c 1.14,-0.37 2.28,-0.44 3.44,-0.19 c 0.98,0.25 4.77,0.49 4.54,-1.15 c 2.03,-0.18 10.05,-0.79 10,2.58 c -2.15,8.22 -21.7,3.29 -20.91,12.15 c 0.64,11.48 -0.42,24.81 1.73,35.99 c 0.72,7.35 -7.94,6.41 -8.81,-1.12 c -1.18,-11.68 -0.01,-24.23 -1.5,-35.52 c -0.16,-0.16 -0.32,-0.31 -0.48,-0.46 c -3,0 -5.89,0.59 -8.66,1.77 c -4.6,1.32 -9.28,-1.65 -5.35,-6.32 c 2.26,-1.47 4.72,-2.45 7.39,-2.95 c 1.13,0.13 4.36,0.51 4.58,-1.12 c 0.71,-0.13 1.32,-0.45 1.84,-0.96 c 2.87,-7.33 0.74,-27.92 3.65,-37.56 Z M 607.76,163.99 c 1.18,-0.02 2.37,0 3.56,0.05 c 2.79,4.16 -1.41,48.21 -2.05,56.38 c 0.49,0.55 0.97,0.52 1.44,-0.09 c 1.14,-4.93 4.04,-7.81 6.11,-12.11 c 0.65,-0.29 1.01,-0.8 1.07,-1.51 c 1.8,-2.05 3.72,-3.97 5.77,-5.79 c 0.74,-0.07 1.18,-0.47 1.33,-1.19 c 0.33,0.09 0.66,0.17 0.99,0.26 c 0.65,-0.15 1.07,-0.55 1.27,-1.19 c 0.84,0.23 1.68,0.22 2.52,-0.05 c 0.5,1.03 1.33,1.42 2.49,1.2 c 7.44,3.15 8.74,24.9 10.02,32.15 c 0.51,4.38 3.11,6.8 2.56,11.38 c -0.09,2.74 -5.85,0.61 -6.71,-1.07 c -6.34,-9.72 -4.53,-22.41 -9.37,-32.78 c -0.57,-0.7 -1.24,-0.75 -2.01,-0.17 c -7.23,6.29 -13.66,23.47 -17.35,32.5 c -3.14,4.28 -8.24,2.77 -8.6,-2.45 c 0.19,-8.08 0.64,-16.14 1.35,-24.18 c 0.57,-0.42 0.81,-1 0.73,-1.75 c 0.15,-2.61 0.06,-5.2 -0.27,-7.78 c 0.47,-3.2 0.51,-6.4 0.14,-9.6 c 2.01,-0.55 1.1,-3.93 1.12,-5.44 c 0.11,-2.88 0.09,-5.76 -0.08,-8.63 c 1.84,-0.38 1.17,-3.14 1.02,-4.47 c 0.23,-2.46 0.19,-4.91 -0.14,-7.35 c 1.75,-0.2 1.41,-3.39 1.55,-4.62 c 0.28,-0.78 0.79,-1.34 1.54,-1.7 Z M 227.94,183 c 0.38,-5.84 4.41,-19.86 12.48,-18.04 c 3.76,2.72 -4.05,13 -4.67,16.35 c -1.14,2.77 0.53,10.01 -3.2,10.62 c -3.91,-1.49 -4.58,-5.16 -4.61,-8.93 Z M 184.47,245.55 c -0.89,-5.6 0.34,-11.91 0.24,-17.65 c -0.1,-2.24 1.53,-5.47 -1.34,-6.5 c -4.98,-0.61 -11.03,4.11 -15.28,1.9 c -3.02,-2.11 -1.76,-6.68 1.58,-7.52 c 0.81,0.21 2.53,0.31 2.38,-0.99 c 0.26,0.04 0.51,0.08 0.76,0.12 c 0.65,-0.05 1.13,-0.37 1.44,-0.94 c 0.25,0 0.49,-0.01 0.74,-0.01 c 0.87,0.06 3.47,0.35 3.1,-1.21 c 0.3,0.07 0.6,0.15 0.91,0.22 c 1.01,0.19 4.27,0.37 4.1,-1.28 c 0.53,0.01 0.94,-0.2 1.25,-0.61 c 3.76,-10.13 0.17,-26.73 3.05,-38.12 c 3.06,-2.68 1.69,-4.21 5.71,-0.78 c 4.03,6.65 -1.38,27.06 1.54,35.7 c 5.96,1.85 12.74,-3.59 19.61,0.38 c 0.53,0.19 0.8,0.58 0.8,1.15 c -3.49,8.15 -18.88,4.9 -21.61,10.31 c -0.4,8.91 -0.6,17.84 -0.59,26.78 c -1.49,5.34 4.07,17.27 -2.39,19.61 c -8.66,0.58 -5.68,-15.55 -6,-20.56 Z M 1578.34,179.64 c -0.52,1.56 -0.54,3.12 -0.04,4.68 c -0.7,2.59 -4.96,0.25 -6.69,0.07 c -5.57,0.81 -15.01,5.49 -9.97,12.32 c 3.73,4.53 8.35,8.1 11.61,12.99 c -0.44,0.81 -0.25,2.57 1.05,2.13 c -0.18,2.81 -0.2,5.63 -0.03,8.45 c -5.79,8.24 -24.57,11.54 -30.82,3.02 c -1.15,-2.51 -0.72,-4.68 1.3,-6.49 c 1.2,0.2 2.4,0.22 3.61,0.07 c -1.17,2.16 -0.57,3.18 1.81,3.06 c 0.27,0 0.55,0 0.82,0 c 0.02,0.4 0.22,0.67 0.59,0.82 c 2.95,0.36 5.9,0.33 8.84,-0.08 c 0.33,-0.18 0.46,-0.45 0.39,-0.81 c 0.06,-0.06 0.12,-0.13 0.19,-0.2 c 12.3,-3 -1.48,-14.45 -5.59,-18.58 c -14.3,-13.74 17.09,-31.06 22.93,-21.45 Z M 1738.69,215.62 c 0.63,3.01 9.6,2.69 11.84,2.05 c 0.42,-0.19 0.66,-0.51 0.73,-0.96 c 1.88,0.19 3.67,-0.12 5.37,-0.92 c 0.84,0.21 2.56,0.23 2.43,-1.07 c 0.29,0.05 0.58,0.11 0.87,0.17 c 1.21,0.34 2,-0.07 2.36,-1.23 c 3.77,0.64 -0.69,5.95 -2.27,6.87 c -17.91,10.65 -30.2,5.56 -35.48,-14.18 c -0.48,-1.42 -0.12,-2.58 1.07,-3.48 c 1.83,0.41 2.5,-0.26 2.01,-2.01 c 0.64,-2.05 1.37,-4.07 2.2,-6.06 c 1.19,0.46 1.19,-1.38 0.98,-2.05 c 2.27,-3.28 4.43,-6.25 7.29,-9.16 c 4.24,-5.15 16.16,-10.58 17.28,-0.1 c -0.98,9.78 -10.19,17.81 -18.43,22.06 c -3.81,2.67 -1.93,8.9 1.75,10.07 Z M 1662.27,185.75 c -0.23,0.69 -0.41,2.25 0.72,2.2 c 0.22,0.62 0.67,0.92 1.35,0.9 c 0.82,5.9 -3.59,14.17 3.3,20.02 c 0.43,0.64 1.02,0.97 1.79,1.01 c 2.12,1.51 4.09,0.5 6.33,0.04 c 0.78,0.04 2.54,0.33 1.99,-1.02 c 1.54,-0.04 2.72,-0.71 3.56,-2.01 c 1.16,-1.02 2.3,-2.05 3.44,-3.08 c 0.72,-0.05 1.11,-0.43 1.15,-1.16 c 1.78,-2.84 0.39,-6.85 1.54,-10.03 c 1.33,-6.18 7.58,-3.75 12.04,-5.6 c 7.64,-0.79 13.93,1.75 18.88,7.63 c -0.45,1.08 -0.16,1.84 0.85,2.27 c 0.24,0.44 0.58,0.78 1.01,1.03 c -0.55,-0.13 -0.95,0.05 -1.2,0.54 c 0.38,1.17 -0.31,6.25 1,6.63 c -5.86,12.18 -14.65,18.19 -28.3,19.13 c -1.16,0.81 -0.96,2.48 -1.37,3.7 c -0.86,10.21 -3.12,20.27 -3.32,30.5 c -0.98,3.08 -3.6,4.66 -6.01,1.83 c 0.15,-1.11 -0.24,-1.93 -1.18,-2.45 c -0.48,-5.4 0.61,-10.47 1.01,-15.8 c 1.85,-0.43 0.93,-3.96 0.72,-5.28 c 1.77,-7.49 1.28,-16.92 3.46,-24.27 c 0.05,-0.51 -0.15,-0.88 -0.58,-1.12 c -2.72,1.85 -5.52,3.62 -8.39,5.29 c -8.87,3.79 -14.84,-1.22 -19.33,-8.41 c -0.22,-0.23 -0.49,-0.32 -0.8,-0.28 c -4.52,4.8 -8.37,9.86 -14.57,12.81 c -10.4,1.57 -8.75,-9.89 -5.61,-15.92 c 1.38,0.51 1.27,-1.28 0.89,-2.02 c 3.73,-6.18 17.45,-28.13 25.63,-17.08 Z M 1737.8,194.99 c 1.48,2.82 11.2,-7.83 8.77,-9.12 c -2.69,-0.05 -7.83,6.62 -8.77,9.12 Z M 1493.69,190.73 c -0.08,1.3 1.67,1.29 2.54,1.2 c 20.7,16.7 -7.69,48.38 -17.84,32.11 c -2.78,-5.43 -1.07,-9.36 -0.69,-14.8 c 0.98,-0.48 1.39,-1.26 1.23,-2.35 c -0.02,-0.3 -0.05,-0.6 -0.08,-0.9 c 1.15,-0.06 1.09,-1.56 0.97,-2.37 c 1.52,-3.16 2.61,-5.84 1.97,-9.43 c 0.65,-0.25 1.05,-0.72 1.18,-1.41 c 3.15,-3.52 6.59,-6.73 10.72,-2.05 Z M 963.71,230.91 c 0.84,0.14 2.68,0.18 2.4,-1.19 c 0.23,0.08 0.45,0.16 0.67,0.25 c 1.01,0.08 1.83,-0.28 2.45,-1.08 c 5.14,-3.36 12.82,-6.86 16.51,-11.8 c 3.31,-8.46 8.56,-15.5 15.76,-21.1 c 7.32,-4.93 11.85,1.74 12.98,8.34 c -2.62,7.2 -1.05,18.19 4.27,23.83 c 0.06,3.97 5.53,-0.18 5.59,5.06 c -7.51,8.32 -15.08,-2.84 -17.6,-9.48 c -0.1,-0.78 -0.24,-1.55 -0.41,-2.31 c -3.87,4.53 -9.17,11.58 -14.97,13.33 c -3.27,0.74 -5.64,-0.4 -7.1,-3.42 c -0.61,-1.67 -1.23,-3.29 -1.85,-4.87 c -4.1,3.64 -8.46,6.4 -12.76,9.73 c -12.22,7.63 -27.41,3.44 -26.67,-12.72 c 2.03,-11.38 10.55,-29.98 22.66,-33.26 c 9.42,-1.04 8.01,12.44 1.74,10.32 c -2.15,-1.53 -2.92,-1.1 -5.08,0.26 c -5.46,4.79 -17.94,27.44 -6.63,30.87 c 2.76,0.64 5.44,0.39 8.04,-0.76 Z M 1643.09,207.79 c -0.83,0.52 -1.5,2.23 -0.64,2.94 c 0.84,-0.39 1.41,-1.03 1.71,-1.92 c 3.27,-1.25 11.38,-12.93 11.05,-16.46 c -0.86,-0.95 -1.29,-0.24 -2.14,0.37 c -3.11,3.19 -9.74,10.67 -9.98,15.07 Z M 366.31,222.68 c 0.02,0.63 0.34,0.98 0.96,1.04 c 12.87,14.43 13.12,25.89 -6.92,31.93 c -4.83,1.36 -9.74,1.76 -14.73,1.19 c -11.08,-4.22 -5,-13.2 -1.21,-11.2 c 0.7,0.47 1.17,1.08 1.42,1.84 c 4.35,3.87 19.65,-1.1 21.33,-5.96 c 1.05,-11.79 -26.81,-24.52 -15.69,-39.54 c 5.18,-6.67 15.2,-11.31 23.47,-8.36 c 3.32,2.21 3.79,4.87 1.4,8 c -2.89,1.07 -5.2,-1.66 -8.35,-1.14 c -16.6,5.18 -9.95,13.14 -1.68,22.2 Z M 885.67,232.77 c 0.84,0.22 2.44,0.27 2.44,-0.97 c 3.04,-1.27 5.01,-2.25 8.4,-2.2 c -2.94,7.28 -9.16,11.29 -16.52,13.19 c -0.92,-1.16 -6.17,-1.27 -6.96,-0.04 c -12.12,-2.47 -11.63,-9.59 -16.21,-18.61 c -0.72,-1.64 -0.44,-3.07 0.84,-4.27 c 1.89,0.47 2.55,-0.19 1.97,-1.99 c 2,-9.24 6.69,-16.79 14.09,-22.66 c 4.62,-2.27 9.03,-4.12 12.5,1.1 c 2.67,8.07 -3.45,14.39 -8.39,19.88 c -3.38,4.32 -14.3,7.01 -9.58,13.9 c 4.95,6.62 10.97,5.26 17.42,2.67 Z M 1210.72,192.63 c 0.28,0.75 0.82,1.15 1.62,1.19 c 1.48,-0.03 2.68,0.53 3.61,1.67 c 1.74,2.07 1.45,3.69 -0.86,4.85 c -3.21,0.47 -5.74,-0.95 -9.07,0.22 c -10.43,5.82 -13.3,18.94 -13.97,29.95 c -1.75,5.71 -8.49,4.36 -9.15,-1.95 c -0.04,-1.77 -0.04,-3.55 0.01,-5.32 c 0.43,-0.02 0.72,-0.25 0.87,-0.68 c 0.47,-2.01 0.83,-4.04 1.08,-6.09 c -0.21,-3.23 -0.29,-6.46 -0.24,-9.69 c -0.51,-1.65 -0.92,-3.33 -1.21,-5.03 c 0.45,-0.84 0.9,-1.68 1.36,-2.52 c 1.5,-0.28 3.01,-0.45 4.54,-0.51 c 2.44,1.45 0.14,5.49 2.19,6.03 c 1.31,-1.9 2.67,-3.79 4.09,-5.65 c 4.47,-4.85 8.53,-6.54 15.13,-6.47 Z M 1264.93,290.62 c -0.29,-1.81 0.46,-2.73 2.25,-2.76 c 2.38,1.78 4.87,3.42 7.46,4.91 c 8.7,4.65 21.18,6.78 29.05,-0.58 c 14.73,-15.74 8.59,-51.59 8.14,-71.53 c -0.26,-0.37 -0.57,-0.42 -0.94,-0.16 c -4.88,5.5 -15.37,12.74 -21.2,4.49 c -5.27,-10.78 13.47,-34.61 24.28,-31.39 c 12.51,4.23 8.33,7.43 5.87,17.9 c -0.3,18.08 1.96,35.92 1.05,54 c -1.37,18.51 -8.96,40.09 -31.43,38.76 c -6.69,0.69 -24.7,-5.67 -24.53,-13.64 Z M 1383.78,193.71 c 0.45,1.04 1.25,1.54 2.42,1.49 c 2.69,3.56 -2.88,26.02 -1.96,32.28 c -2.08,8.69 -8.72,2.94 -7.52,-2.98 c 0.58,-5.48 1.28,-10.94 2.1,-16.39 c 1.69,-0.49 1,-5.08 1.4,-6.51 c -1.12,-2.86 0.72,-6.76 3.56,-7.89 Z M 1692.62,212.21 c 0.22,1 0.38,2 0.48,3.01 c 8.65,2 27.19,-11.81 15.24,-18.95 c -3.31,-2.66 -13.12,-3.95 -14.41,1.24 c -0.31,4.91 -0.75,9.81 -1.31,14.7 Z M 1427.13,197.68 c -0.13,0.81 -0.43,2.73 1.01,2.1 c -0.35,1.38 0,2.51 1.06,3.41 c 1.38,6.65 1.12,14.16 2.69,20.58 c -0.14,1.23 1.49,1.37 2.34,1.49 c 0.55,7.45 -8.64,7.66 -10.27,-0.66 c -1.72,-6.29 -0.4,-14.53 -3.74,-20.15 c -1.3,-0.37 -4.15,2.6 -4.98,3.49 c -3.79,5.48 -6.85,11.35 -9.17,17.6 c -2.96,5.34 -9.6,4.74 -9.09,-2.07 c 0.4,-1.74 0.66,-3.5 0.76,-5.29 c 1.27,0.03 1.25,-1.67 1.1,-2.54 c 0.59,-4.6 1.48,-14.9 2.92,-18.74 c 1.49,0.1 2.98,0.18 4.48,0.24 c 0.85,2.79 0.98,5.62 0.39,8.49 c 0.01,0.55 0.25,0.94 0.73,1.17 c 1.56,-2.37 3.31,-4.62 5.24,-6.74 c 4.13,-4.28 9.47,-7.69 14.53,-2.38 Z M 457.59,245.83 c 0.96,0.25 3.61,0.5 3.59,-1.03 c 5.91,-1.44 12.38,-7.61 18,-7.87 c -0.51,1.67 -1.14,3.35 -1.89,5.03 c -8.26,11.8 -28.61,18.66 -38.46,4.91 c -1.33,-2.51 -2.56,-5.07 -3.69,-7.68 c -0.94,-0.33 -1.9,-0.38 -2.89,-0.16 c -0.04,-1.76 -0.19,-3.51 -0.45,-5.26 c 0.61,-0.87 1.4,-1.53 2.37,-1.99 c 2.36,-3.07 1.95,-7.16 2.68,-10.77 c 0.93,-0.48 1.22,-1.23 0.87,-2.26 c 1.65,0.78 1.36,-2.15 1.14,-2.94 c 3.28,-7.51 11.38,-19.33 20.64,-18.88 c 13.91,3.05 2.25,21.14 -3.18,27.05 c -1.98,3.09 -12.43,8.33 -12.31,11.52 c 0.97,7.83 5.72,11.65 13.58,10.33 Z M 678.03,202.6 c 0.11,0.77 0.55,1.23 1.32,1.38 c 2.12,1.22 2.91,3.06 2.37,5.5 c -1.29,4.99 -1.12,9.95 0.52,14.87 c 0.99,4.33 5.47,14.31 11.41,10.57 c 3.65,-0.38 2.15,2.05 2.04,4.4 c -6.96,6.52 -13,2.89 -17.9,-3.66 c -1.28,-2.8 -2.46,-5.62 -3.55,-8.48 c -0.47,-0.09 -0.83,0.08 -1.08,0.5 c -3.01,6.26 -15.23,22.69 -21.82,11.39 c -4.27,-10.39 10.92,-39.12 22.02,-40.54 c 2.31,0.49 3.87,1.84 4.67,4.07 Z M 821.75,207.89 c 0.74,-0.12 1.29,-0.52 1.64,-1.2 c 1.57,-0.15 3.02,0.21 4.33,1.06 c 0.31,0.73 0.84,1.2 1.61,1.42 c 0.02,7.81 0.62,20.72 5.95,26.8 c 1.46,1.73 4.87,-3.83 5.15,-4.98 c 2.58,-6.25 3.79,-12.74 3.65,-19.49 c -0.62,-2.42 -2.73,-16.8 3.98,-13.19 c 6.94,4.21 1.99,29.69 -0.71,36.55 c -1.64,0.02 -1.55,2.25 -1.1,3.33 c -11.05,14.74 -20.24,5.09 -22.84,-9.02 c -0.44,-1.45 -1.14,-1.59 -2.07,-0.42 c -2.28,5.99 -10.96,24.85 -18.78,14.3 c -5.49,-8.01 -0.69,-33.21 0.71,-42.38 c 2.26,-4.04 5.56,-3.86 6.63,0.84 c -0.45,10.36 -2.4,20.54 -2.02,30.99 c -0.08,1.16 0.14,2.22 0.69,3.19 c 0.67,-0.15 1.15,-0.55 1.43,-1.2 c 3.18,-5.76 6.61,-11.15 8.7,-17.42 c 0.69,-3.08 0.79,-6.75 3.05,-9.18 Z M 1228.19,197.63 c 0.25,0.04 0.5,0.08 0.75,0.12 c 0.37,1.17 1.19,1.66 2.46,1.46 c 1.87,4.8 -0.34,15.03 -0.27,20.62 c -0.36,0.15 -0.61,0.41 -0.77,0.77 c -0.64,3.89 -0.63,7.79 0.02,11.67 c -1.36,1.42 -2.48,3.25 -4.77,2.53 c -1.64,-0.96 -2.59,-2.39 -2.85,-4.29 c 0.32,-9.12 1.68,-22.51 2.93,-31.24 c 1.29,0.12 2.12,-0.43 2.5,-1.64 Z M 1242.44,228.15 c 1.58,-4.71 1.6,-25.09 3.11,-27.27 c 0.87,-0.94 1.87,-1.69 3.01,-2.26 c 3.76,1.42 2.54,8.75 2.57,11.89 c 0.06,1.18 0.5,1.38 1.29,0.6 c 2.9,-5 10.04,-15.48 16.94,-12.79 c 9.81,5.92 4.83,20.19 10.03,27.87 c 5.21,3.19 1.67,7.33 -2.89,6.93 c -9.06,-2.92 -5.73,-17.85 -10.27,-24.9 c -3.07,-4.15 -11.81,14.74 -12.8,16.74 c -1.11,3.79 -3.42,10.28 -8.57,8.67 c -1.62,-1.46 -2.42,-3.29 -2.42,-5.48 Z M 1485.04,215 c 0.42,1.35 -0.13,5.16 2.28,4.61 c 8.38,-3.03 12.78,-15.43 4.18,-20.62 c -1,-0.2 -2.69,2.89 -3.21,3.67 c -1.6,3.98 -2.69,8.1 -3.25,12.34 Z M 1033.67,210.2 c 0.25,-2.49 0.24,-4.97 -0.04,-7.45 c 0.55,-1.36 1.51,-2.28 2.87,-2.74 c 5.57,-0.76 4.6,9.3 4.55,12.53 c 0.21,1.14 0.69,1.28 1.44,0.43 c 5.37,-11.03 19.51,-22.1 25.25,-4.31 c 2.72,9.29 1.42,17.45 7,25.8 c -0.15,3.76 -6.94,4.21 -8.93,0.17 c -2.88,-4.34 -4.61,-27.38 -9.26,-26.47 c -7.9,4.05 -12.4,18.82 -15.34,26.77 c -2.56,3.46 -5.1,3.5 -7.63,0.13 c -2.39,-3.57 1.53,-19.51 0.09,-24.86 Z M 411.77,247.9 c 0.68,0.07 2.33,0.1 2.12,-1 c 1.03,0.19 1.8,-0.17 2.3,-1.07 c 1.13,-0.74 2.3,-1.37 3.53,-1.91 c 0.72,-0.13 1.27,-0.5 1.65,-1.12 c 2.27,-1.37 4.36,-2.97 6.26,-4.8 c 3.2,-0.56 3.28,0.28 3.57,3.19 c -7.85,9.52 -20.89,20.12 -33.84,13.86 c -10.55,-5.14 -7.73,-19.23 -10.37,-21.03 c -0.03,-1.44 -0.12,-2.89 -0.26,-4.33 c 0.21,-0.43 0.54,-0.74 0.98,-0.93 c 0.77,0.23 2.65,0.33 2.3,-1.02 c 1.52,-5.97 4.1,-11.47 7.72,-16.49 c 0.69,-0.31 1.06,-0.84 1.12,-1.6 c 4.72,-6.05 17.77,-15.84 23.04,-5.13 c 2.5,12.74 -12.14,25.83 -22.85,30.06 c -1.77,1.18 -2.42,2.82 -1.94,4.92 c 1.26,9.29 6.79,10.6 14.67,8.4 Z M 252.11,228.82 c 0.4,0.97 1.15,1.33 2.23,1.08 c 2.71,1.24 5.52,2.22 8.42,2.94 c 0.47,1.08 1.27,1.44 2.42,1.08 c -0.11,1.04 1.44,0.98 2.1,0.93 c 13.99,7.2 10.98,19.41 -2.89,24 c -5.38,1.59 -12.38,2.42 -17.54,-0.32 c 1.56,-1.15 -0.34,-1.5 -0.2,-2.95 c 0.19,-2.31 2.31,-3.37 -0.94,-3.92 c 2.91,-1.13 7.06,1.89 10.63,1.03 c 2.29,-0.5 13.71,-3.65 10.12,-7.76 c -5.5,-5.34 -16.26,-6.17 -22.9,-11.05 c -15.39,-12.29 24.51,-44.97 28.04,-27.32 c -0.34,1.58 -2.42,2.62 -3.78,3.21 c -8.68,-1.52 -25.15,15.19 -15.71,19.05 Z M 869.24,212.82 c 3.11,0.47 10.12,-8.13 9.57,-11.12 c -2.58,-1.54 -9.72,8.06 -9.57,11.12 Z M 1300.62,218.9 c 0.78,0.03 1.32,-0.31 1.63,-1.01 c 4.79,-4.44 10.26,-8.13 9.68,-15.4 c 0.03,-0.57 -0.17,-1.04 -0.6,-1.41 c -6.87,1.66 -9.8,8.03 -13.41,13.44 c -0.35,0.94 -1.66,5.82 0.45,5.25 c 0.73,-0.33 1.49,-0.62 2.25,-0.87 Z M 557.22,219.3 c 1.03,-0.4 0.73,-2.66 0.62,-3.55 c 0.19,-0.96 0.65,-3.49 1.78,-3.71 c 1.93,0.08 3.84,0.01 5.73,-0.2 c -0.53,0.91 1.19,1.83 1.71,2.37 c 0.08,4.88 0.22,8.86 1.37,13.6 c -0.3,1.31 -0.84,3.86 0.78,4.52 c 0.53,2.53 1.4,4.94 2.6,7.22 c 0.58,0.71 2.31,3.38 3.46,2.8 c 5.19,-3 6.19,-10.92 7.62,-16.25 c 1.49,-0.62 0.9,-7.12 1.07,-8.6 c -0.36,-2.08 -0.57,-4.17 -0.63,-6.28 c -0.17,-0.86 -0.68,-1.35 -1.52,-1.45 c 0,-1.53 -0.32,-7.64 1.98,-7.83 c 1.19,0.1 2.36,0.04 3.53,-0.18 c -0.16,0.83 0.19,1.27 1.06,1.33 c 0.58,0.55 1.15,1.13 1.71,1.74 c 0.33,2.48 0.35,4.96 0.06,7.45 c 0.87,7.94 0.24,15.76 -1.91,23.46 c -1.59,0.12 -1.28,2.55 -1.01,3.59 c -4.17,10.93 -14.44,17.99 -22.09,5.09 c -1.76,-3.51 -3.01,-7.2 -3.76,-11.06 c -0.42,-1.31 -1.08,-1.49 -1.96,-0.52 c -2.39,5.73 -7.78,17.67 -14.92,18.13 c -13.81,-1.69 -4.54,-35.37 -4.38,-44.36 c 0,-1.61 4.59,-6.08 5.41,-3.82 c 0.86,1.11 1.43,2.34 1.7,3.7 c -0.98,10.88 -4.01,23.37 -1.38,34.1 c 5.37,-5.99 8.71,-13.78 11.37,-21.29 Z M 1144.06,225.77 c -1.18,0.61 -1.35,2.3 0.26,2.13 c 10.24,-0.89 24.34,-9.5 22.59,-21.31 c -3.52,-11.02 -16.02,-1.69 -18.71,5.1 c -1.94,4.86 -3.85,8.7 -4.14,14.08 Z M 992.04,222.99 c 0.07,1.82 0.78,2.06 2.13,0.71 c 4.01,-3.86 7.2,-8.31 9.56,-13.35 c 0.15,-1.57 2.58,-6.16 0.82,-7.17 c -6.07,3.65 -10.69,13.26 -12.51,19.81 Z M 445.05,221.97 c 0.21,1.29 1.68,0.12 2.13,-0.28 c 1.71,-1.4 14.27,-15.62 9.42,-15.88 c -6.08,2.14 -10.2,10.27 -11.55,16.16 Z M 400.19,223.84 c 2.34,1.11 9.61,-6.24 11.17,-8.13 c 1.39,-2.17 3.1,-4.5 1.95,-7.12 c -5.78,1.37 -12.01,9.61 -13.12,15.25 Z M 659.13,230.01 c -0.03,1.21 0.43,2.88 1.85,1.42 c 5.63,-6.12 9.51,-12.73 11.07,-20.94 c 0.48,-3.19 -1.45,-2.42 -2.79,-0.73 c -4.66,6.2 -8.58,12.55 -10.13,20.25 Z M 139.65,257.88 c 0.79,0.09 2.67,0.22 2.49,-1.07 c 0.85,-0.34 1.71,-0.65 2.58,-0.93 c 0.74,0.17 2.31,0.13 2.01,-1.05 c 5.13,-3.55 10.82,-7.39 15.04,-11.98 c 0.68,-0.06 1.09,-0.42 1.23,-1.08 c -0.03,-0.37 0.11,-0.66 0.43,-0.87 c 1.13,-0.37 2.08,-1 2.84,-1.88 c 0.97,1.63 1.1,3.37 0.4,5.19 c -8.78,12 -22.37,28.25 -38.98,20.57 c -18.38,-10.34 -7.53,-38.18 3.45,-50.15 c 6.61,-7.73 18.88,-5.32 16.77,5.86 c -3.51,14.02 -7.82,17.65 -19.09,25.82 c -3.92,3.9 1.18,10.71 5.67,11.63 c 1.72,0.08 3.44,0.06 5.16,-0.06 Z M 1785.22,222.93 c 0.19,-6.21 7.47,-9.56 11.21,-3.96 c 2.49,9.99 -11.19,12.88 -11.21,3.96 Z M 127.66,237.35 c 3.12,-0.18 10.64,-9.84 11.41,-12.82 c 0.2,-1.73 0.27,-3.47 0.21,-5.2 c -1.7,-0.25 -2.67,1.69 -4.19,2.25 c -4.02,4.17 -6.75,10.01 -7.43,15.77 Z M 1540.83,320.77 c 0.18,0.83 0.24,2.4 1.39,2.42 c 0.16,5.63 -3.47,15.15 -10.23,15.21 c -1.13,-1.96 -1.15,-3.94 -0.06,-5.95 c 1.02,-1.03 4.35,-8.15 1.46,-8.14 c -17.6,-0.17 -45.71,39.12 -38.39,54.16 c 1.34,2.1 3.25,3.22 5.72,3.34 c 0.61,1.08 1.55,1.49 2.82,1.23 c 0.89,-0.05 1.43,-0.5 1.61,-1.34 c 0.3,0.03 0.59,0.06 0.88,0.09 c 1.11,0.4 1.78,0.05 2,-1.06 c 0.29,0.08 0.57,0.15 0.86,0.23 c 0.79,0.13 4.63,0.47 3.95,-1.2 c 0.63,-0.08 1.08,-0.41 1.33,-0.99 c 0.87,-0.15 1.71,-0.41 2.53,-0.78 c 0.71,0.1 2.41,-0.12 1.9,-1.25 c 0.72,0.25 2.35,0.3 2.1,-0.92 c 3.74,-2.14 7.38,-4.43 10.92,-6.88 c 0.77,-0.1 1.3,-0.51 1.59,-1.21 c 0.54,-0.16 1.04,-0.41 1.5,-0.74 c 0.62,-0.1 1.03,-0.43 1.24,-1.01 c 1.09,0.13 1.91,-0.27 2.45,-1.22 c 2.85,0.24 0.33,3.56 -0.56,4.59 c -11.25,9.72 -34,29.61 -48.14,14.44 c -6.35,-9.15 -1.32,-22.59 3.27,-31.5 c 0.65,-0.29 0.97,-0.81 0.95,-1.53 c 0.98,0.08 1.08,-1.3 1.07,-1.99 c 6.45,-10.48 14.67,-19.33 24.65,-26.53 c 6.83,-4.3 14.29,-7.85 21.19,-1.47 Z M 1552.72,383.13 c 1.67,-0.3 1.4,-2.87 1.26,-4.14 c -0.1,-0.36 -0.2,-0.72 -0.3,-1.07 c 1.51,0.31 1.4,-2 1.2,-2.9 c -0.04,-0.29 -0.08,-0.59 -0.11,-0.89 c 1.74,-0.02 1.24,-2.45 0.64,-3.4 c 1.61,-11.27 4.72,-21.77 7.32,-32.87 c 1.78,-0.17 1.19,-3.04 0.71,-4.13 c 0.65,-3.35 0.57,-11.31 5.73,-11.03 c 4.06,4.12 -0.73,19.28 -1.63,24.95 c 0.04,1.03 0.55,1.44 1.54,1.23 c 10.14,-8.89 20.15,-17.41 31.39,-24.92 c 2.01,-0.78 4.03,-0.8 6.07,-0.07 c -0.41,2.62 0.62,3.34 -1.67,5.28 c -11.73,7.62 -21.91,16.63 -32.36,25.85 c -1.38,1.43 -2.6,3.13 -0.57,4.71 c 13.5,11.2 28.01,18.03 45.33,20.76 c 7.06,2.77 1.48,4.6 -2.77,4.8 c -17.73,0.98 -31.32,-8.47 -45.45,-17.7 c -1.42,-0.56 -2.81,-1.14 -4.19,-1.72 c -0.35,1.29 -0.83,2.56 -1.45,3.81 c -1.3,3.65 -0.94,21.91 -7.93,19.62 c -2.01,-1.53 -2.94,-3.59 -2.76,-6.17 Z M 1421.26,360.12 c 0.88,-1.85 2.13,-3.4 3.74,-4.66 c 9.08,-1.81 18.25,-2.95 27.51,-3.39 c 1.76,0.31 7.94,1.76 4.59,4.5 c -7.14,2.79 -21.55,3.34 -29.6,5.37 c -2.73,0.37 -3.94,-1.02 -6.24,-1.82 Z"/></g>
<g><path fill="#61745f" fill-opacity="0.565" d="M 1302.25,217.89 c -0.31,0.7 -0.85,1.04 -1.63,1.01 c 0.38,-0.61 0.92,-0.94 1.63,-1.01 Z"/></g>
<g><path fill="#546a56" fill-opacity="0.529" d="M 1500.72,381.81 c 1.48,0.14 2.96,0.1 4.43,-0.11 c -0.18,0.84 -0.72,1.29 -1.61,1.34 c -1.27,0.26 -2.21,-0.15 -2.82,-1.23 Z"/></g>
<g><path fill="#516858" fill-opacity="0.404" d="M 1538.4,364.76 c -0.54,0.95 -1.36,1.35 -2.45,1.22 c -0.26,-1.07 1.81,-1.02 2.45,-1.22 Z M 1535.95,365.98 c -0.21,0.58 -0.62,0.91 -1.24,1.01 c 0.29,-0.49 0.7,-0.82 1.24,-1.01 Z"/></g>
<g><path fill="#4e6653" fill-opacity="0.518" d="M 77.07,260.73 c 0.19,1.35 -1.53,1.34 -2.42,1.27 c 0.58,-0.81 1.39,-1.23 2.42,-1.27 Z"/></g>
<g><path fill="#4e6854" fill-opacity="0.412" d="M 84.78,258.79 c 0.69,1.48 -3.74,1.39 -4.49,1.23 c -0.66,-1.51 3.64,-0.96 4.49,-1.23 Z M 80.29,260.02 c -0.1,1.01 -1.69,0.79 -2.39,0.8 c 0.14,-1.11 1.62,-0.85 2.39,-0.8 Z"/></g>
<g><path fill="#51634e" fill-opacity="0.467" d="M 107.93,255.68 c 2.06,0.53 1.48,4.67 -0.19,4.57 c 0.18,-1.52 0.25,-3.04 0.19,-4.57 Z"/></g>
<g><path fill="#516550" fill-opacity="0.4" d="M 966.11,229.72 c 0.28,1.37 -1.56,1.33 -2.4,1.19 c 0.59,-0.76 1.39,-1.15 2.4,-1.19 Z"/></g>
<g><path fill="#516957" fill-opacity="0.431" d="M 1431.89,223.77 c 1.13,0.01 1.92,0.5 2.34,1.49 c -0.85,-0.12 -2.48,-0.26 -2.34,-1.49 Z"/></g>
<g><path fill="#4b644e" fill-opacity="0.404" d="M 178.09,212.75 c 0.37,1.56 -2.23,1.27 -3.1,1.21 c -0.24,-1.32 2.34,-0.93 3.1,-1.21 Z"/></g>
<g><path fill="#50654f" fill-opacity="0.686" d="M 1189.31,198.72 c -1.53,0.06 -3.04,0.23 -4.54,0.51 c 1.39,-1.67 2.9,-1.84 4.54,-0.51 Z"/></g>
<g><path fill="#4c6855" fill-opacity="0.431" stroke="#4c6855" stroke-width="0.5" stroke-opacity="0.431" d="M 720.07,192.72 c 1.07,0.08 2.14,0.2 3.19,0.38 c -0.42,1.4 -2.8,1.21 -3.19,-0.38 Z"/></g>
<g><path fill="#5a6e5a" fill-opacity="0.439" d="M 1445.33,191.76 c 0.03,1.59 -2.73,1.24 -3.72,1.08 c 0.48,-1.1 2.73,-0.8 3.72,-1.08 Z"/></g>
<g><path fill="#516a54" fill-opacity="0.498" d="M 731.24,191.76 c 0.23,1.64 -3.56,1.4 -4.54,1.15 c 0.37,-1.54 3.38,-0.86 4.54,-1.15 Z"/></g>
<g><path fill="#516950" fill-opacity="0.443" d="M 1493.69,190.73 c 1.08,-0.02 1.92,0.38 2.54,1.2 c -0.87,0.09 -2.62,0.1 -2.54,-1.2 Z"/></g>
<g><path fill="#556857" fill-opacity="0.494" d="M 1662.27,185.75 c 0.45,0.66 0.69,1.39 0.72,2.2 c -1.13,0.05 -0.95,-1.51 -0.72,-2.2 Z M 1662.99,187.95 c 0.54,0.18 0.99,0.47 1.35,0.9 c -0.68,0.02 -1.13,-0.28 -1.35,-0.9 Z M 1018.75,228.16 c 1.77,0.54 3.54,1 5.31,1.4 c 0.97,0.94 2.11,2.91 0.28,3.66 c -0.06,-5.24 -5.53,-1.09 -5.59,-5.06 Z"/></g>
<g><path fill="#4c6450" fill-opacity="0.412" d="M 606.22,165.69 c -0.14,1.23 0.2,4.42 -1.55,4.62 c 0.32,-1.06 -0.05,-4.64 1.55,-4.62 Z M 1738.69,215.62 c 1.66,0.12 3.25,0.51 4.77,1.18 c 2.6,0.26 5.2,0.23 7.8,-0.09 c -0.07,0.45 -0.31,0.77 -0.73,0.96 c -2.24,0.64 -11.21,0.96 -11.84,-2.05 Z"/></g>
<g><path fill="#223f2d" fill-opacity="0.973" stroke="#223f2d" stroke-width="0.5" stroke-opacity="0.973" d="M 1224.07,172 c 0.91,-8 9.51,-3.32 10.38,2.04 c 0.19,7.33 -10.43,4.05 -10.38,-2.04 Z"/></g>
<g><path fill="#254230" fill-opacity="0.984" stroke="#254230" stroke-width="0.5" stroke-opacity="0.984" d="M 1381.79,165.81 c 1.48,0.14 2.97,0.13 4.45,-0.05 c 1.39,1.16 2.68,2.41 3.86,3.77 c 0.92,1.42 -0.05,3.51 0.19,5.14 c -0.8,0.26 -1.31,0.79 -1.54,1.6 c -0.54,-0.23 -1.08,-0.21 -1.6,0.08 c -0.43,-1.15 -1.27,-1.59 -2.53,-1.33 c -4.13,-1.58 -5.86,-5.56 -2.83,-9.21 Z"/></g>
<g><path fill="#3a5241" fill-opacity="0.761" d="M 1183.41,201.75 c 0.29,1.7 0.7,3.38 1.21,5.03 c -0.05,3.23 0.03,6.46 0.24,9.69 c -0.25,2.05 -0.61,4.08 -1.08,6.09 c -0.15,0.43 -0.44,0.66 -0.87,0.68 c 0.39,-2.23 0.68,-4.48 0.87,-6.74 c -0.45,-4.91 -0.57,-9.83 -0.37,-14.75 Z"/></g>
<g><path fill="#395340" fill-opacity="0.604" d="M 581.81,209.77 c 0.84,0.1 1.35,0.59 1.52,1.45 c 0.06,2.11 0.27,4.2 0.63,6.28 c -0.17,1.48 0.42,7.98 -1.07,8.6 c -0.02,-2.88 -0.01,-5.76 0.04,-8.63 c -0.65,-2.68 0.08,-5.05 -1.12,-7.7 Z"/></g>
<g><path fill="#485f4d" fill-opacity="0.8" d="M 1588.14,203 c 0.52,0.32 0.74,0.81 0.66,1.48 c -0.46,2.34 -0.74,4.71 -0.83,7.11 c -0.02,0.94 -0.47,1.34 -1.36,1.22 c 0.41,-3.29 0.92,-6.56 1.53,-9.81 Z M 1586.61,212.81 c 0.38,2.46 0.39,4.92 0.02,7.39 c -1.39,-1.32 -0.87,-5.74 -0.02,-7.39 Z"/></g>
<g><path fill="#4a624d" fill-opacity="0.506" d="M 108.24,255.01 c -3.01,-0.38 -5.92,-0.07 -8.75,0.94 c -0.95,0.22 -1.89,0.22 -2.84,0.01 c 0.16,-0.42 0.46,-0.7 0.9,-0.86 c 1.69,-0.13 3.31,-0.56 4.85,-1.28 c 1.18,0.03 5.66,-0.55 5.84,1.19 Z M 1514.17,378.77 c -0.25,0.58 -0.7,0.91 -1.33,0.99 c 0.24,-0.56 0.69,-0.89 1.33,-0.99 Z M 1512.84,379.76 c 0.68,1.67 -3.16,1.33 -3.95,1.2 c 0.08,-1.54 2.9,-1.1 3.95,-1.2 Z"/></g>
<g><path fill="#49624d" fill-opacity="0.561" d="M 1157.3,193.72 c -0.02,1.37 -1.64,1.59 -2.64,1.14 c 0.72,-0.69 1.6,-1.08 2.64,-1.14 Z M 1154.66,194.86 c 0.53,1.19 -1.49,1.06 -2.07,0.93 c 0.62,-0.46 1.31,-0.77 2.07,-0.93 Z M 1681.31,206.89 c -0.84,1.3 -2.02,1.97 -3.56,2.01 c 0.81,-1.35 2,-2.02 3.56,-2.01 Z M 1677.75,208.9 c 0.55,1.35 -1.21,1.06 -1.99,1.02 c 0.38,-0.84 1.04,-1.18 1.99,-1.02 Z M 416.19,245.83 c -0.5,0.9 -1.27,1.26 -2.3,1.07 c -0.05,-1.08 1.59,-0.97 2.3,-1.07 Z M 413.89,246.9 c 0.21,1.1 -1.44,1.07 -2.12,1 c 0.48,-0.76 1.19,-1.09 2.12,-1 Z"/></g>
<g><path fill="#47624e" fill-opacity="0.435" d="M 720.82,163.76 c 0.09,3.79 0.07,7.59 -0.05,11.38 c -0.31,-0.14 -0.51,-0.39 -0.59,-0.73 c -0.06,-1.59 -0.89,-10.16 0.64,-10.65 Z"/></g>
<g><path fill="#425c46" fill-opacity="0.639" d="M 1550.99,219.94 c 1.67,0.22 3.34,0.26 5.01,0.12 c 1.6,-0.07 3.21,-0.13 4.81,-0.19 c 0.07,0.36 -0.06,0.63 -0.39,0.81 c -2.94,0.41 -5.89,0.44 -8.84,0.08 c -0.37,-0.15 -0.57,-0.42 -0.59,-0.82 Z"/></g>
<g><path fill="#435c4b" fill-opacity="0.624" d="M 602.61,205.8 c 0.33,2.58 0.42,5.17 0.27,7.78 c 0.08,0.75 -0.16,1.33 -0.73,1.75 c -0.2,-2.92 -0.59,-6.76 0.46,-9.53 Z"/></g>
<g><path fill="#344d38" fill-opacity="0.718" d="M 1720.22,197.95 c -0.19,2.39 -0.25,4.78 -0.2,7.17 c -1.31,-0.38 -0.62,-5.46 -1,-6.63 c 0.25,-0.49 0.65,-0.67 1.2,-0.54 Z"/></g>
<g><path fill="#2e4d38" fill-opacity="0.125" d="M 1720.22,197.95 c 1.27,-0.24 1.3,7.31 -0.2,7.17 c -0.05,-2.39 0.01,-4.78 0.2,-7.17 Z"/></g>
<g><path fill="#375443" fill-opacity="0.106" stroke="#375443" stroke-width="0.5" stroke-opacity="0.106" d="M 1561,219.67 c -0.07,0.07 -0.13,0.14 -0.19,0.2 c -1.6,0.06 -3.21,0.12 -4.81,0.19 c 0.13,-0.79 0.61,-1.13 1.45,-1.01 c 1.27,-0.2 2.45,0.01 3.55,0.62 Z"/></g>
<g><path fill="#4c6250" fill-opacity="0.533" d="M 1440.02,194.63 c -0.24,1.87 -0.18,3.72 0.17,5.55 c -0.52,0 -0.91,-0.22 -1.19,-0.67 c -0.59,-1.84 -0.25,-3.47 1.02,-4.88 Z"/></g>
<g><path fill="#475c4a" fill-opacity="0.592" d="M 438.86,215.81 c 0.22,0.79 0.51,3.72 -1.14,2.94 c 0.07,-0.87 0.05,-2.73 1.14,-2.94 Z M 437.72,218.75 c 0.35,1.03 0.06,1.78 -0.87,2.26 c 0.13,-0.81 0.42,-1.57 0.87,-2.26 Z"/></g>
<g><path fill="#425e49" fill-opacity="0.569" d="M 588.24,235.74 c -0.12,0.94 0.1,3.23 -1.01,3.59 c -0.27,-1.04 -0.58,-3.47 1.01,-3.59 Z M 146.73,254.83 c 0.3,1.18 -1.27,1.22 -2.01,1.05 c 0.59,-0.5 1.26,-0.85 2.01,-1.05 Z"/></g>
<g><path fill="#3e5846" fill-opacity="0.659" d="M 1681.57,236.75 c 0.21,1.32 1.13,4.85 -0.72,5.28 c -0.05,-1.82 0.19,-3.58 0.72,-5.28 Z"/></g>
<g><path fill="#4b6352" fill-opacity="0.506" d="M 1603.37,154.35 c -1.83,-0.86 -3.64,-0.83 -5.42,0.11 c 0.58,-2.44 4.41,-2.16 5.42,-0.11 Z"/></g>
<g><path fill="#445c48" fill-opacity="0.576" d="M 1520.7,375.82 c 0.25,1.22 -1.38,1.17 -2.1,0.92 c 0.67,-0.38 1.37,-0.68 2.1,-0.92 Z M 1518.6,376.74 c 0.51,1.13 -1.19,1.35 -1.9,1.25 c 0.54,-0.55 1.18,-0.96 1.9,-1.25 Z"/></g>
<g><path fill="#465a47" fill-opacity="0.561" d="M 1406.24,197.14 c -1.5,-0.06 -2.99,-0.14 -4.48,-0.24 c 1.59,-1.42 3.09,-1.34 4.48,0.24 Z"/></g>
<g><path fill="#4b5f4b" fill-opacity="0.498" d="M 262.76,232.84 c 0.76,0.13 2.27,0.05 2.42,1.08 c -1.15,0.36 -1.95,0 -2.42,-1.08 Z M 265.18,233.92 c 0.9,-0.1 1.6,0.21 2.1,0.93 c -0.66,0.05 -2.21,0.11 -2.1,-0.93 Z"/></g>
<g><path fill="#3e5744" fill-opacity="0.718" d="M 1563.44,333.73 c 0.48,1.09 1.07,3.96 -0.71,4.13 c 0.06,-1.41 0.3,-2.78 0.71,-4.13 Z"/></g>
<g><path fill="#465e4c" fill-opacity="0.639" d="M 1386.24,165.76 c -1.48,0.18 -2.97,0.19 -4.45,0.05 c 0.8,-1.07 4.13,-1.42 4.45,-0.05 Z"/></g>
<g><path fill="#4b624d" fill-opacity="0.576" d="M 709.23,196.76 c -0.22,1.63 -3.45,1.25 -4.58,1.12 c 0.39,-1.15 3.55,-0.84 4.58,-1.12 Z"/></g>
<g><path fill="#465f4f" fill-opacity="0.494" d="M 1383.78,193.71 c 0.87,0.15 2.51,0.26 2.42,1.49 c -1.17,0.05 -1.97,-0.45 -2.42,-1.49 Z"/></g>
<g><path fill="#425b47" fill-opacity="0.525" d="M 1478.93,206.89 c 0.16,1.09 -0.25,1.87 -1.23,2.35 c -0.08,-1.08 0.33,-1.87 1.23,-2.35 Z"/></g>
<g><path fill="#455e4c" fill-opacity="0.482" d="M 1679.84,257.83 c 0.94,0.52 1.33,1.34 1.18,2.45 c -0.86,-0.56 -1.25,-1.38 -1.18,-2.45 Z"/></g>
<g><path fill="#435843" fill-opacity="0.6" d="M 252.11,228.82 c 0.87,0.1 1.61,0.47 2.23,1.08 c -1.08,0.25 -1.83,-0.11 -2.23,-1.08 Z"/></g>
<g><path fill="#425944" fill-opacity="0.537" d="M 969.23,228.89 c -0.62,0.8 -1.44,1.16 -2.45,1.08 c 0.65,-0.72 1.47,-1.08 2.45,-1.08 Z"/></g>
<g><path fill="#4d624d" fill-opacity="0.537" d="M 1228.94,197.75 c 1.18,-0.06 2,0.43 2.46,1.46 c -1.27,0.2 -2.09,-0.29 -2.46,-1.46 Z"/></g>
<g><path fill="#3d5a46" fill-opacity="0.529" d="M 1730.8,192.75 c 0.21,0.67 0.21,2.51 -0.98,2.05 c 0,-0.86 0.32,-1.54 0.98,-2.05 Z"/></g>
<g><path fill="#445c4c" fill-opacity="0.455" d="M 398.85,209.65 c -0.06,0.76 -0.43,1.29 -1.12,1.6 c 0.16,-0.68 0.53,-1.22 1.12,-1.6 Z"/></g>
<g><path fill="#485d48" fill-opacity="0.416" d="M 1667.64,208.87 c 0.67,0.21 1.27,0.55 1.79,1.01 c -0.77,-0.04 -1.36,-0.37 -1.79,-1.01 Z"/></g>
<g><path fill="#435f4c" fill-opacity="0.431" d="M 1533.21,367.73 c -0.29,0.7 -0.82,1.11 -1.59,1.21 c 0.34,-0.65 0.87,-1.05 1.59,-1.21 Z"/></g>
<g><path fill="#485d4b" fill-opacity="0.439" d="M 1685.9,202.65 c -0.04,0.73 -0.43,1.11 -1.15,1.16 c 0.31,-0.46 0.69,-0.85 1.15,-1.16 Z"/></g>
<g><path fill="#070f08" fill-opacity="0.02" stroke="#070f08" stroke-width="0.5" stroke-opacity="0.02" d="M 127.66,237.35 c 0.68,-5.76 3.41,-11.6 7.43,-15.77 c 1.52,-0.56 2.49,-2.5 4.19,-2.25 c 0.06,1.73 -0.01,3.47 -0.21,5.2 c -0.77,2.98 -8.29,12.64 -11.41,12.82 Z"/></g>
<g><path fill="#060b08" fill-opacity="0.016" stroke="#060b08" stroke-width="0.5" stroke-opacity="0.016" d="M 445.05,221.97 c 1.35,-5.89 5.47,-14.02 11.55,-16.16 c 4.85,0.26 -7.71,14.48 -9.42,15.88 c -0.45,0.4 -1.92,1.57 -2.13,0.28 Z M 659.13,230.01 c 1.55,-7.7 5.47,-14.05 10.13,-20.25 c 1.34,-1.69 3.27,-2.46 2.79,0.73 c -1.56,8.21 -5.44,14.82 -11.07,20.94 c -1.42,1.46 -1.88,-0.21 -1.85,-1.42 Z"/></g>
<g><path fill="#091411" fill-opacity="0.031" stroke="#091411" stroke-width="0.5" stroke-opacity="0.031" d="M 869.24,212.82 c -0.15,-3.06 6.99,-12.66 9.57,-11.12 c 0.55,2.99 -6.46,11.59 -9.57,11.12 Z M 400.19,223.84 c 1.11,-5.64 7.34,-13.88 13.12,-15.25 c 1.15,2.62 -0.56,4.95 -1.95,7.12 c -1.56,1.89 -8.83,9.24 -11.17,8.13 Z"/></g>
<g><path fill="#040805" fill-opacity="0.012" stroke="#040805" stroke-width="0.5" stroke-opacity="0.012" d="M 1485.04,215 c 0.56,-4.24 1.65,-8.36 3.25,-12.34 c 0.52,-0.78 2.21,-3.87 3.21,-3.67 c 8.6,5.19 4.2,17.59 -4.18,20.62 c -2.41,0.55 -1.86,-3.26 -2.28,-4.61 Z M 1302.25,217.89 c -0.71,0.07 -1.25,0.4 -1.63,1.01 c -0.76,0.25 -1.52,0.54 -2.25,0.87 c -2.11,0.57 -0.8,-4.31 -0.45,-5.25 c 3.61,-5.41 6.54,-11.78 13.41,-13.44 c 0.43,0.37 0.63,0.84 0.6,1.41 c 0.58,7.27 -4.89,10.96 -9.68,15.4 Z M 992.04,222.99 c 1.82,-6.55 6.44,-16.16 12.51,-19.81 c 1.76,1.01 -0.67,5.6 -0.82,7.17 c -2.36,5.04 -5.55,9.49 -9.56,13.35 c -1.35,1.35 -2.06,1.11 -2.13,-0.71 Z"/></g>
<g><path fill="#08100d" fill-opacity="0.024" stroke="#08100d" stroke-width="0.5" stroke-opacity="0.024" d="M 1644.16,208.81 c -0.59,-0.09 -0.95,-0.43 -1.07,-1.02 c 0.24,-4.4 6.87,-11.88 9.98,-15.07 c 0.85,-0.61 1.28,-1.32 2.14,-0.37 c 0.33,3.53 -7.78,15.21 -11.05,16.46 Z"/></g>
<g><path fill="#0d2015" fill-opacity="0.043" stroke="#0d2015" stroke-width="0.5" stroke-opacity="0.043" d="M 1737.8,194.99 c 0.94,-2.5 6.08,-9.17 8.77,-9.12 c 2.43,1.29 -7.29,11.94 -8.77,9.12 Z"/></g>
<g><path fill="#47604d" fill-opacity="0.396" d="M 1508.03,380.73 c -0.22,1.11 -0.89,1.46 -2,1.06 c 0.37,-0.85 1.04,-1.21 2,-1.06 Z"/></g>
<g><path fill="#405c4b" fill-opacity="0.49" d="M 1553.98,378.99 c 0.14,1.27 0.41,3.84 -1.26,4.14 c 0.33,-0.78 -0.16,-4.58 1.26,-4.14 Z"/></g>
<g><path fill="#3c5544" fill-opacity="0.58" d="M 1554.88,375.02 c 0.2,0.9 0.31,3.21 -1.2,2.9 c 0.07,-1.13 0.47,-2.1 1.2,-2.9 Z"/></g>
<g><path fill="#47614e" fill-opacity="0.631" d="M 1555.41,370.73 c 0.6,0.95 1.1,3.38 -0.64,3.4 c 0.09,-1.16 0.3,-2.29 0.64,-3.4 Z"/></g>
<g><path fill="#455f49" fill-opacity="0.588" d="M 142.14,256.81 c 0.18,1.29 -1.7,1.16 -2.49,1.07 c 0.71,-0.62 1.55,-0.97 2.49,-1.07 Z"/></g>
<g><path fill="#4a644f" fill-opacity="0.596" d="M 95.35,255.78 c -0.61,1.03 -1.5,1.38 -2.69,1.04 c 0.77,-0.65 1.67,-0.99 2.69,-1.04 Z"/></g>
<g><path fill="#153424" fill-opacity="0.902" d="M 245.71,251.66 c 3.25,0.55 1.13,1.61 0.94,3.92 c -0.14,1.45 1.76,1.8 0.2,2.95 c -2.58,-1.65 -3.63,-4.6 -1.14,-6.87 Z"/></g>
<g><path fill="#415b47" fill-opacity="0.545" d="M 461.18,244.8 c 0.02,1.53 -2.63,1.28 -3.59,1.03 c 0.53,-1.12 2.56,-0.81 3.59,-1.03 Z"/></g>
<g><path fill="#032210" fill-opacity="0.698" d="M 879.99,242.79 c -2.33,0.4 -4.65,0.39 -6.96,-0.04 c 0.79,-1.23 6.04,-1.12 6.96,0.04 Z"/></g>
<g><path fill="#445d4c" fill-opacity="0.557" d="M 847.35,234.86 c -0.12,0.89 -0.09,2.97 -1.1,3.33 c -0.45,-1.08 -0.54,-3.31 1.1,-3.33 Z"/></g>
<g><path fill="#465d49" fill-opacity="0.486" d="M 695.69,239.32 c 0.11,-2.35 1.61,-4.78 -2.04,-4.4 c 1.54,-1.72 2.77,-1.49 3.67,0.69 c 0,1.1 -0.05,3.7 -1.63,3.71 Z"/></g>
<g><path fill="#465e49" fill-opacity="0.447" d="M 888.11,231.8 c 0,1.24 -1.6,1.19 -2.44,0.97 c 0.69,-0.6 1.51,-0.92 2.44,-0.97 Z"/></g>
<g><path fill="#264130" fill-opacity="0.192" stroke="#264130" stroke-width="0.5" stroke-opacity="0.192" d="M 184.71,227.9 c 0.1,5.74 -1.13,12.05 -0.24,17.65 c -1.45,1.06 -1.6,-1.15 -1.48,-2 c 0.17,-4.02 0.23,-8.03 0.2,-12.05 c 0.22,-0.72 0.41,-3.77 1.52,-3.6 Z"/></g>
<g><path fill="#425946" fill-opacity="0.702" d="M 1451.58,219.79 c 0.28,0.49 0.44,1.01 0.47,1.57 c -0.26,2.37 -0.32,4.73 -0.18,7.11 c -0.11,0.46 -0.4,0.71 -0.87,0.76 c -0.14,-2.41 -0.12,-4.82 0.05,-7.24 c 0.14,-0.74 0.32,-1.47 0.53,-2.2 Z"/></g>
<g><path fill="#36523e" fill-opacity="0.149" d="M 1451.05,221.99 c -0.17,2.42 -0.19,4.83 -0.05,7.24 c -1.7,-0.22 -1.5,-7.32 0.05,-7.24 Z"/></g>
<g><path fill="#4a624e" fill-opacity="0.553" d="M 1231.13,219.83 c -0.19,3.57 -0.24,7.15 -0.15,10.74 c 0.08,0.69 -0.12,1.26 -0.6,1.7 c -0.65,-3.88 -0.66,-7.78 -0.02,-11.67 c 0.16,-0.36 0.41,-0.62 0.77,-0.77 Z"/></g>
<g><path fill="#475f4a" fill-opacity="0.573" d="M 1398.84,215.64 c 0.15,0.87 0.17,2.57 -1.1,2.54 c -0.07,-1.06 0.3,-1.91 1.1,-2.54 Z"/></g>
<g><path fill="#465e47" fill-opacity="0.471" d="M 557.84,215.75 c 0.11,0.89 0.41,3.15 -0.62,3.55 c -0.17,-0.92 -0.56,-3.17 0.62,-3.55 Z M 1540.83,320.77 c 1,0.46 1.46,1.27 1.39,2.42 c -1.15,-0.02 -1.21,-1.59 -1.39,-2.42 Z"/></g>
<g><path fill="#4c604b" fill-opacity="0.416" d="M 1759.06,214.72 c 0.13,1.3 -1.59,1.28 -2.43,1.07 c 0.65,-0.67 1.46,-1.03 2.43,-1.07 Z"/></g>
<g><path fill="#455f4a" fill-opacity="0.455" d="M 172.05,214.79 c 0.15,1.3 -1.57,1.2 -2.38,0.99 c 0.66,-0.61 1.46,-0.94 2.38,-0.99 Z"/></g>
<g><path fill="#46614b" fill-opacity="0.427" d="M 183.1,211.69 c 0.17,1.65 -3.09,1.47 -4.1,1.28 c -0.26,-1.7 3.14,-0.91 4.1,-1.28 Z"/></g>
<g><path fill="#435d47" fill-opacity="0.698" d="M 1573.25,209.7 c 0.4,0.69 0.75,1.4 1.05,2.13 c -1.3,0.44 -1.49,-1.32 -1.05,-2.13 Z M 1574.3,211.83 c 1.38,2.83 1.36,5.64 -0.03,8.45 c -0.17,-2.82 -0.15,-5.64 0.03,-8.45 Z"/></g>
<g><path fill="#405b49" fill-opacity="0.396" stroke="#405b49" stroke-width="0.5" stroke-opacity="0.396" d="M 1643.09,207.79 c 0.12,0.59 0.48,0.93 1.07,1.02 c -0.3,0.89 -0.87,1.53 -1.71,1.92 c -0.86,-0.71 -0.19,-2.42 0.64,-2.94 Z"/></g>
<g><path fill="#44594a" fill-opacity="0.616" d="M 1452.41,207.73 c 0.44,0.77 0.77,2.25 -0.46,2.49 c 0.03,-0.85 0.18,-1.68 0.46,-2.49 Z"/></g>
<g><path fill="#2e4a36" fill-opacity="0.102" stroke="#2e4a36" stroke-width="0.5" stroke-opacity="0.102" d="M 590.09,204.83 c 1.57,-0.14 0.7,5.62 0.97,6.68 c -0.14,0.46 -0.45,0.72 -0.91,0.77 c 0.29,-2.49 0.27,-4.97 -0.06,-7.45 Z"/></g>
<g><path fill="#475e50" fill-opacity="0.592" d="M 1380.22,201.6 c -0.4,1.43 0.29,6.02 -1.4,6.51 c 0.37,-1.41 -0.65,-6.31 1.4,-6.51 Z"/></g>
<g><path fill="#4a634b" fill-opacity="0.537" d="M 1427.13,197.68 c 0.79,0.46 1.13,1.16 1.01,2.1 c -1.44,0.63 -1.14,-1.29 -1.01,-2.1 Z M 1428.14,199.78 c 1.25,0.39 0.97,2.4 1.06,3.41 c -1.06,-0.9 -1.41,-2.03 -1.06,-3.41 Z"/></g>
<g><path fill="#4b604e" fill-opacity="0.431" d="M 1228.19,197.63 c -0.38,1.21 -1.21,1.76 -2.5,1.64 c 0.52,-1 1.36,-1.54 2.5,-1.64 Z"/></g>
<g><path fill="#4b624d" fill-opacity="0.455" d="M 1482.97,192.78 c -0.13,0.69 -0.53,1.16 -1.18,1.41 c 0.05,-0.76 0.45,-1.23 1.18,-1.41 Z M 629.77,198.75 c 1.1,-0.1 1.93,0.3 2.49,1.2 c -1.16,0.22 -1.99,-0.17 -2.49,-1.2 Z M 617.89,206.71 c -0.06,0.71 -0.42,1.22 -1.07,1.51 c 0.12,-0.67 0.47,-1.18 1.07,-1.51 Z"/></g>
<g><path fill="#405c48" fill-opacity="0.486" d="M 603.87,190.76 c -0.02,1.51 0.89,4.89 -1.12,5.44 c 0.43,-1.04 -0.26,-5.32 1.12,-5.44 Z"/></g>
<g><path fill="#455e4a" fill-opacity="0.498" d="M 1454.27,189.83 c -0.86,0.73 -1.82,1.32 -2.9,1.76 c -1.52,0.44 -3.06,0.62 -4.64,0.54 c 0.09,-0.49 0.38,-0.84 0.86,-1.04 c 2.21,-0.52 4.44,-0.94 6.68,-1.26 Z M 1144.06,225.77 c 0.04,0.72 0.13,1.43 0.26,2.13 c -1.61,0.17 -1.44,-1.52 -0.26,-2.13 Z"/></g>
<g><path fill="#49604d" fill-opacity="0.424" d="M 1480.2,188.65 c -0.87,0.27 -1.75,0.4 -2.66,0.38 c -4.32,-0.09 -8.65,-0.1 -12.98,-0.03 c 0.17,-0.4 0.46,-0.66 0.89,-0.79 c 4.37,-0.3 8.74,-0.38 13.12,-0.21 c 0.68,-0.05 1.22,0.17 1.63,0.65 Z"/></g>
<g><path fill="#4e624f" fill-opacity="0.459" d="M 1618.22,185.91 c -1.83,0.12 -3.67,0.14 -5.52,0.06 c 0.06,-1.63 5.41,-1.35 5.52,-0.06 Z M 1618.22,185.91 c 0.77,0.07 2.13,0.18 1.96,1.28 c -0.68,-0.13 -2.21,-0.24 -1.96,-1.28 Z"/></g>
<g><path fill="#3f5745" fill-opacity="0.49" d="M 1591.87,181.7 c 0.37,1.39 0.74,4.27 -1.14,4.65 c 0.28,-1.13 -0.14,-4.13 1.14,-4.65 Z M 1590.86,187.71 c -0.1,0.48 -0.3,0.9 -0.6,1.28 c -0.09,-0.57 0.11,-1 0.6,-1.28 Z M 1033.63,202.75 c 0.28,2.48 0.29,4.96 0.04,7.45 c -1.19,-0.53 -1,-7.12 -0.04,-7.45 Z M 1479.82,203.62 c 0.12,0.81 0.18,2.31 -0.97,2.37 c -0.09,-0.98 0.23,-1.77 0.97,-2.37 Z"/></g>
<g><path fill="#415d49" fill-opacity="0.498" d="M 604.81,177.66 c 0.15,1.33 0.82,4.09 -1.02,4.47 c 0.3,-1.08 -0.23,-4 1.02,-4.47 Z M 1494.99,348.77 c 0.01,0.69 -0.09,2.07 -1.07,1.99 c -0.11,-0.94 0.25,-1.6 1.07,-1.99 Z M 1493.92,350.76 c 0.02,0.72 -0.3,1.24 -0.95,1.53 c 0.03,-0.7 0.34,-1.21 0.95,-1.53 Z"/></g>
<g><path fill="#455d4b" fill-opacity="0.529" d="M 1597.94,155.04 c 0.18,1.91 -0.54,3.32 -2.16,4.22 c -0.06,-1.03 0.97,-4.08 2.16,-4.22 Z"/></g>
</svg>
