<?xml version="1.0" encoding="UTF-8" standalone="no"?>
<!DOCTYPE svg PUBLIC "-//W3C//DTD SVG 1.1//EN" "http://www.w3.org/Graphics/SVG/1.1/DTD/svg11.dtd">
<svg xmlns="http://www.w3.org/2000/svg" version="1.1" viewBox="0.00 0.00 1448.00 1086.00">
<path fill="#145033" d="
  M 918.21 431.10
  Q 917.80 431.21 917.34 431.83
  C 913.75 436.73 903.46 448.41 896.84 443.76
  Q 894.27 441.95 893.67 438.77
  A 0.79 0.78 -30.7 0 0 892.29 438.42
  C 889.03 442.42 877.54 452.48 873.85 443.52
  A 1.09 1.08 56.8 0 0 872.10 443.15
  C 868.65 446.46 862.04 450.60 858.48 445.05
  C 857.03 442.78 856.72 440.73 857.12 437.92
  Q 858.14 430.61 858.43 426.08
  A 0.91 0.91 0.0 0 0 857.10 425.21
  Q 855.55 426.02 854.01 427.75
  Q 847.72 434.82 840.39 444.58
  C 838.15 447.58 835.89 449.75 833.10 445.98
  A 1.98 1.95 -53.6 0 1 832.83 444.12
  L 852.34 390.28
  A 2.10 2.10 0.0 0 1 855.61 389.33
  L 855.80 389.46
  A 3.64 3.64 0.0 0 1 857.25 393.76
  L 844.33 429.20
  A 0.42 0.42 0.0 0 0 845.05 429.61
  C 848.60 425.34 852.99 420.15 857.72 418.95
  C 863.00 417.61 864.62 423.48 864.06 427.51
  Q 862.79 436.79 862.97 440.24
  A 1.46 1.46 0.0 0 0 865.15 441.43
  L 872.93 436.93
  A 1.32 1.25 87.2 0 0 873.49 436.28
  C 876.33 429.10 879.37 424.05 885.55 419.56
  C 889.10 416.99 894.34 415.08 897.02 419.79
  Q 897.58 420.77 897.99 420.81
  C 900.36 421.03 902.03 421.58 902.81 424.08
  A 2.00 1.96 -43.1 0 1 902.75 425.39
  C 901.10 429.41 898.41 432.62 899.18 437.45
  A 1.61 1.61 0.0 0 0 901.47 438.65
  C 909.56 434.76 915.68 426.54 919.95 418.91
  A 0.56 0.55 10.4 0 0 919.38 418.09
  L 910.82 419.30
  A 2.78 2.78 0.0 0 1 907.67 416.89
  L 907.65 416.68
  A 2.71 2.71 0.0 0 1 909.78 413.66
  Q 919.11 411.72 920.99 411.47
  Q 923.24 411.16 924.12 409.44
  Q 928.75 400.40 931.82 387.57
  A 2.08 2.08 0.0 0 1 934.77 386.20
  L 934.86 386.24
  A 3.36 3.35 -71.0 0 1 936.65 389.92
  Q 934.65 399.56 931.35 408.52
  A 0.46 0.46 0.0 0 0 931.79 409.14
  C 937.01 409.07 942.17 407.34 947.05 407.64
  A 2.49 1.99 1.8 0 1 949.39 409.63
  Q 949.46 413.28 945.22 413.83
  Q 935.50 415.10 929.87 416.24
  A 2.72 2.71 4.6 0 0 927.88 417.93
  Q 924.85 425.88 923.32 433.55
  Q 922.67 436.83 924.20 439.60
  A 1.57 1.55 35.3 0 1 924.37 440.55
  C 923.72 444.90 917.53 446.14 917.41 440.96
  Q 917.33 436.79 918.71 431.61
  A 0.42 0.41 -89.5 0 0 918.21 431.10
  Z
  M 878.86 440.12
  A 1.00 1.00 0.0 0 0 880.35 440.91
  Q 887.52 436.85 891.37 429.92
  A 2.03 1.99 51.5 0 0 891.53 428.38
  Q 890.96 426.46 891.84 424.20
  A 0.75 0.75 0.0 0 0 890.91 423.22
  C 885.75 424.90 881.40 432.15 879.54 437.05
  Q 878.79 439.04 878.86 440.12
  Z"
/>
<path fill="#145033" d="
  M 1186.29 417.28
  A 0.49 0.49 0.0 0 0 1185.55 416.64
  Q 1181.85 420.05 1178.44 422.61
  Q 1169.77 429.12 1164.44 420.38
  A 0.46 0.46 0.0 0 0 1163.69 420.32
  Q 1159.39 425.58 1153.21 427.64
  C 1149.36 428.93 1145.59 427.27 1144.75 423.22
  C 1142.89 414.27 1153.53 402.29 1161.83 399.82
  C 1164.43 399.05 1166.68 400.50 1168.15 402.45
  A 1.74 1.73 -13.1 0 0 1169.24 403.12
  C 1172.03 403.60 1174.47 405.02 1173.01 408.05
  C 1171.04 412.16 1168.87 415.35 1170.00 418.54
  A 1.65 1.65 0.0 0 0 1172.07 419.55
  C 1177.30 417.85 1182.90 412.62 1187.10 408.57
  Q 1190.43 405.37 1192.69 400.29
  C 1193.15 399.26 1194.19 397.73 1195.28 397.48
  A 2.31 2.18 -5.3 0 1 1198.10 399.69
  C 1197.91 403.21 1194.44 408.23 1193.16 410.47
  A 0.48 0.48 0.0 0 0 1193.33 411.13
  L 1193.56 411.27
  A 0.16 0.15 -55.3 0 0 1193.74 411.23
  Q 1195.58 409.07 1197.33 406.36
  C 1199.30 403.31 1201.88 400.75 1204.18 398.98
  C 1209.08 395.23 1212.03 399.86 1211.92 404.51
  Q 1211.65 416.48 1211.67 417.71
  A 1.90 1.90 0.0 0 0 1214.07 419.50
  Q 1217.42 418.58 1222.00 416.32
  A 1.94 1.92 -30.9 0 1 1224.43 416.92
  Q 1225.35 418.21 1224.36 419.37
  Q 1220.19 424.22 1214.19 424.69
  C 1209.24 425.07 1205.76 422.07 1206.03 417.22
  Q 1206.26 412.88 1206.81 406.12
  A 0.88 0.88 0.0 0 0 1205.51 405.28
  Q 1204.42 405.88 1203.62 406.87
  Q 1197.04 414.90 1191.17 422.17
  C 1189.74 423.93 1187.78 425.73 1185.87 423.90
  C 1183.86 421.99 1184.80 419.44 1186.29 417.28
  Z
  M 1161.68 405.70
  Q 1153.30 410.87 1150.63 420.05
  A 1.36 1.35 86.5 0 0 1152.46 421.68
  C 1158.00 419.30 1164.91 412.97 1162.94 406.19
  A 0.85 0.85 0.0 0 0 1161.68 405.70
  Z"
/>
<path fill="#145033" d="
  M 1135.70 420.81
  A 1.95 1.95 0.0 0 1 1138.61 422.19
  L 1138.65 422.43
  A 4.21 4.21 0.0 0 1 1136.79 426.62
  C 1129.32 431.48 1115.38 436.48 1111.14 425.59
  C 1109.20 420.61 1111.16 415.69 1113.75 411.15
  C 1116.42 406.47 1123.31 398.01 1129.54 399.82
  C 1133.66 401.01 1135.25 404.55 1133.17 408.43
  Q 1132.50 409.68 1130.98 410.11
  A 1.93 1.76 75.1 0 1 1128.76 408.68
  Q 1128.62 408.12 1128.34 406.48
  A 1.39 1.39 0.0 0 0 1126.22 405.55
  Q 1118.94 410.22 1116.79 419.14
  C 1115.94 422.69 1116.92 426.04 1121.00 426.16
  C 1126.12 426.30 1130.98 423.55 1135.70 420.81
  Z"
/>
<path fill="#145033" d="
  M 1068.87 425.86
  A 0.76 0.76 0.0 0 1 1069.30 427.01
  C 1063.05 436.27 1043.90 440.49 1039.86 427.16
  A 1.14 1.13 -7.8 0 0 1038.80 426.36
  C 1035.87 426.31 1032.31 426.16 1031.89 422.53
  Q 1031.69 420.80 1033.41 420.19
  A 1.52 1.48 40.4 0 1 1034.19 420.14
  L 1037.65 420.88
  A 1.85 1.84 13.8 0 0 1039.82 419.57
  Q 1041.80 412.45 1047.22 407.19
  C 1050.24 404.27 1054.11 401.70 1057.94 403.47
  C 1062.10 405.40 1061.30 412.24 1059.14 415.33
  C 1056.21 419.52 1051.03 422.53 1046.24 424.68
  A 1.15 1.14 -29.6 0 0 1045.77 426.37
  C 1049.94 432.35 1060.83 428.05 1065.87 426.13
  Q 1067.55 425.49 1068.87 425.86
  Z
  M 1055.4726 409.3320
  A 6.11 1.92 -45.5 0 0 1049.8206 412.3443
  A 6.11 1.92 -45.5 0 0 1046.9074 418.0480
  A 6.11 1.92 -45.5 0 0 1052.5594 415.0357
  A 6.11 1.92 -45.5 0 0 1055.4726 409.3320
  Z"
/>
<path fill="#145033" d="
  M 996.50 430.38
  A 0.34 0.34 0.0 0 0 997.02 430.45
  Q 1004.00 424.22 1009.32 416.61
  Q 1011.32 413.76 1013.90 415.79
  A 3.18 3.04 27.4 0 1 1015.02 419.06
  C 1014.00 422.70 1013.40 426.05 1015.26 429.22
  A 1.85 1.84 -34.1 0 0 1017.98 429.74
  Q 1026.50 423.09 1026.45 411.05
  A 2.37 2.36 2.8 0 1 1029.06 408.69
  L 1029.25 408.71
  A 3.06 3.06 0.0 0 1 1031.99 411.54
  C 1032.36 416.72 1030.61 421.60 1028.92 425.66
  C 1027.04 430.16 1021.57 436.36 1016.28 436.23
  C 1011.65 436.12 1008.84 432.03 1008.58 427.33
  A 0.61 0.61 0.0 0 0 1007.48 427.00
  C 1005.08 430.23 996.04 441.62 991.75 438.64
  C 988.07 436.09 989.51 429.75 990.86 426.07
  Q 992.97 420.30 996.91 410.91
  A 2.35 2.34 -64.5 0 1 1000.19 409.74
  L 1000.30 409.80
  A 2.80 2.80 0.0 0 1 1001.53 413.40
  Q 998.19 420.95 996.39 429.38
  Q 996.26 430.01 996.50 430.38
  Z"
/>
<path fill="#145033" d="
  M 507.40 452.48
  Q 507.01 452.64 506.83 452.82
  Q 502.88 456.76 497.35 463.36
  C 495.07 466.08 487.04 475.82 483.17 471.75
  Q 480.30 468.73 483.07 465.44
  A 1.65 1.64 -54.9 0 1 485.15 465.07
  L 486.60 465.90
  A 1.37 1.37 0.0 0 0 488.18 465.76
  Q 497.17 457.99 503.62 449.34
  A 0.71 0.71 0.0 0 0 502.88 448.23
  C 500.34 448.88 495.84 450.06 494.48 446.92
  A 1.91 1.91 0.0 0 1 495.86 444.29
  Q 505.13 442.47 507.87 441.65
  Q 509.27 441.23 510.71 438.71
  Q 517.40 426.99 520.91 415.95
  A 3.04 3.03 13.6 0 1 524.31 413.88
  L 524.41 413.89
  A 2.38 2.38 0.0 0 1 526.28 416.95
  Q 524.65 422.18 524.31 423.73
  Q 523.36 428.01 522.18 430.53
  Q 519.29 436.69 517.98 439.02
  A 0.89 0.89 0.0 0 0 518.90 440.33
  C 523.26 439.59 528.97 438.31 533.03 439.50
  Q 536.63 440.56 537.55 440.47
  A 4.61 4.40 -55.8 0 0 538.57 440.25
  Q 543.89 438.41 545.85 437.88
  C 547.83 437.34 552.92 438.29 554.93 439.79
  Q 559.81 443.43 558.86 449.82
  Q 556.93 462.87 545.37 469.42
  C 540.98 471.91 534.67 471.65 531.44 467.08
  C 526.92 460.68 531.44 452.16 535.13 445.95
  A 0.74 0.74 0.0 0 0 534.47 444.84
  Q 524.72 445.17 516.02 447.00
  A 1.57 1.55 -86.2 0 0 514.87 448.02
  Q 512.28 455.63 510.51 464.02
  Q 510.09 466.00 511.02 469.08
  A 1.72 1.72 0.0 0 1 510.99 470.15
  C 509.34 474.61 502.57 474.10 503.68 468.43
  Q 505.34 459.93 507.94 453.01
  A 0.42 0.41 89.1 0 0 507.40 452.48
  Z
  M 551.6688 443.9891
  A 12.22 6.25 -54.6 0 0 539.4955 450.3295
  A 12.22 6.25 -54.6 0 0 537.5112 463.9109
  A 12.22 6.25 -54.6 0 0 549.6845 457.5705
  A 12.22 6.25 -54.6 0 0 551.6688 443.9891
  Z"
/>
<path fill="#145033" d="
  M 425.38 461.46
  A 0.53 0.52 -27.4 0 0 424.40 461.15
  Q 420.51 468.03 415.95 472.94
  C 411.70 477.51 402.60 484.45 398.16 476.00
  A 0.73 0.70 -65.4 0 1 398.07 475.74
  L 397.53 471.93
  A 0.34 0.34 0.0 0 0 396.89 471.83
  Q 396.19 473.30 395.16 474.30
  C 388.29 480.95 373.41 486.43 366.88 476.09
  C 365.81 474.39 365.85 471.80 363.68 470.29
  A 2.35 2.24 -48.2 0 1 363.56 466.69
  Q 364.96 465.44 365.56 464.80
  A 3.43 3.42 78.6 0 0 366.17 463.88
  C 369.47 456.65 379.83 443.34 388.30 451.25
  A 2.16 2.14 -77.4 0 1 388.89 452.19
  C 391.75 461.69 379.72 468.14 372.44 469.98
  A 1.41 1.41 0.0 0 0 371.48 471.88
  C 374.85 480.18 389.24 473.30 394.17 470.45
  A 1.79 1.75 -67.4 0 1 394.57 470.28
  Q 395.90 469.92 396.85 470.49
  A 0.45 0.45 0.0 0 0 397.52 470.22
  Q 400.82 457.60 412.59 450.96
  Q 418.32 447.72 421.54 453.41
  A 0.73 0.73 0.0 0 0 422.82 453.39
  Q 423.88 451.39 425.37 447.68
  Q 430.87 433.99 433.83 422.64
  C 435.52 416.14 441.34 418.55 440.14 424.03
  C 439.09 428.81 438.76 432.73 437.54 437.02
  C 435.50 444.21 432.35 451.02 430.90 457.84
  Q 430.03 461.94 429.30 473.52
  Q 429.18 475.40 428.90 475.87
  Q 428.23 477.00 426.83 476.85
  A 2.57 2.57 0.0 0 1 424.56 474.67
  C 423.88 470.12 424.98 465.36 425.38 461.46
  Z
  M 383.2612 455.7063
  A 6.38 1.88 -39.1 0 0 377.1243 458.2710
  A 6.38 1.88 -39.1 0 0 373.3588 463.7537
  A 6.38 1.88 -39.1 0 0 379.4957 461.1890
  A 6.38 1.88 -39.1 0 0 383.2612 455.7063
  Z
  M 403.43 472.85
  A 1.73 1.73 0.0 0 0 405.98 473.84
  Q 412.65 469.81 416.69 463.79
  A 1.57 1.56 50.6 0 0 416.83 462.31
  Q 415.81 459.90 416.22 457.24
  A 0.99 0.98 -10.1 0 0 414.77 456.23
  Q 409.16 459.31 405.66 465.47
  C 404.39 467.72 402.88 470.94 403.43 472.85
  Z"
/>
<path fill="#145033" d="
  M 782.97 446.18
  A 0.67 0.66 -17.3 0 0 784.07 446.75
  Q 791.57 440.40 797.99 431.83
  C 800.20 428.89 802.50 426.50 805.39 430.18
  Q 806.49 431.57 805.60 433.39
  Q 803.21 438.33 803.82 443.53
  A 1.88 1.88 0.0 0 0 805.46 445.18
  C 808.78 445.59 812.16 441.64 814.18 438.91
  Q 818.47 433.13 820.31 425.99
  A 3.34 3.23 -40.0 0 0 820.41 425.04
  L 820.30 421.73
  A 0.96 0.92 61.1 0 1 820.44 421.20
  C 822.34 418.10 825.91 420.55 826.43 423.00
  Q 826.90 425.20 825.99 428.27
  C 823.42 437.03 818.42 446.42 810.31 450.51
  C 803.95 453.72 797.92 449.15 797.99 442.25
  A 0.73 0.72 63.4 0 0 796.68 441.81
  C 794.22 445.19 784.65 456.09 779.63 453.21
  C 775.71 450.95 776.43 445.94 777.65 442.14
  Q 780.47 433.42 784.31 424.95
  A 2.74 2.74 0.0 0 1 787.90 423.57
  L 788.00 423.61
  A 2.86 2.85 21.4 0 1 789.56 427.17
  Q 788.44 430.36 784.55 440.04
  Q 783.26 443.25 782.97 446.18
  Z"
/>
<path fill="#145033" d="
  M 339.88 463.94
  A 0.32 0.32 0.0 0 0 339.31 463.66
  C 332.47 472.62 324.58 479.98 314.35 484.59
  C 307.52 487.66 299.86 483.81 301.09 475.57
  A 0.46 0.46 0.0 0 0 300.35 475.14
  L 296.18 478.42
  A 2.59 2.58 54.8 0 1 292.40 477.76
  L 292.35 477.68
  A 2.35 2.34 58.2 0 1 293.12 474.40
  Q 301.66 469.29 306.47 460.80
  Q 307.47 459.02 309.03 458.41
  A 3.09 3.04 57.2 0 1 312.38 459.16
  Q 314.01 460.87 312.61 463.16
  Q 308.75 469.49 307.07 476.43
  A 2.76 2.37 -74.3 0 0 308.54 479.59
  C 310.71 480.30 316.23 477.26 318.07 476.06
  Q 328.58 469.24 336.34 459.87
  A 0.62 0.62 0.0 0 0 335.74 458.86
  L 329.77 460.04
  A 2.51 2.50 79.6 0 1 326.82 457.99
  L 326.77 457.67
  A 3.03 3.02 79.8 0 1 329.25 454.09
  L 339.82 452.35
  A 3.61 3.61 0.0 0 0 342.41 450.50
  Q 348.54 439.04 353.43 426.45
  A 2.80 2.80 0.0 0 1 356.80 424.77
  L 356.90 424.79
  A 2.52 2.51 -71.5 0 1 358.56 428.12
  C 356.76 432.75 355.93 437.52 353.98 441.74
  Q 353.76 442.24 350.14 450.18
  A 0.81 0.81 0.0 0 0 350.97 451.32
  L 366.42 449.64
  A 3.00 2.99 78.8 0 1 369.63 451.79
  L 369.77 452.30
  A 2.30 2.30 0.0 0 1 367.81 455.23
  L 348.96 457.29
  A 1.80 1.80 0.0 0 0 347.45 458.52
  Q 344.87 466.38 343.38 472.64
  Q 342.73 475.37 343.20 477.83
  C 343.92 481.66 343.89 482.90 340.89 484.31
  Q 339.36 485.03 337.69 483.93
  Q 335.02 482.18 335.96 478.50
  Q 338.02 470.43 339.88 463.94
  Z"
/>
<path fill="#145033" d="
  M 629.61 443.66
  C 625.28 449.51 620.22 454.12 611.11 463.28
  C 609.28 465.12 604.61 468.03 603.18 464.47
  A 2.29 2.27 63.0 0 1 604.08 461.68
  Q 604.62 461.34 607.60 459.57
  A 5.27 4.88 6.0 0 0 608.43 458.95
  Q 615.19 452.80 627.16 439.41
  C 628.91 437.46 629.03 435.10 630.45 433.65
  C 634.38 429.64 637.15 426.72 641.73 425.66
  C 645.12 424.88 648.75 427.06 648.10 430.91
  Q 647.64 433.62 645.15 435.42
  A 2.24 2.24 0.0 0 1 642.25 435.19
  L 640.98 433.92
  A 0.69 0.68 -38.1 0 0 640.14 433.82
  Q 639.11 434.44 637.23 436.26
  C 633.46 439.91 636.52 442.21 639.56 444.70
  Q 642.41 447.04 643.02 450.23
  A 0.70 0.69 75.9 0 0 643.91 450.77
  L 652.41 448.20
  A 3.25 3.25 0.0 0 0 654.64 445.83
  Q 656.81 436.65 664.29 430.53
  C 675.55 421.31 683.24 432.63 675.08 442.13
  Q 670.63 447.31 663.80 449.60
  A 2.16 2.16 0.0 0 0 663.32 453.46
  L 663.68 453.69
  A 10.24 10.23 -33.4 0 0 670.99 455.19
  C 678.42 453.93 684.60 450.22 691.14 447.74
  A 2.02 2.02 0.0 0 0 692.43 446.03
  C 692.68 443.27 692.86 441.04 694.02 438.84
  Q 697.90 431.50 703.52 427.29
  C 707.06 424.63 712.52 423.78 715.79 427.61
  A 2.20 2.16 -68.9 0 1 716.28 428.74
  Q 717.14 435.44 713.84 439.45
  Q 708.92 445.44 701.13 449.22
  A 1.23 1.23 0.0 0 0 700.95 451.32
  C 708.69 456.89 719.98 450.52 727.45 447.30
  A 1.52 1.51 0.1 0 1 729.44 449.29
  Q 728.65 451.12 726.96 452.23
  C 718.12 458.02 707.20 462.84 698.00 456.95
  Q 695.79 455.54 694.58 453.36
  A 0.98 0.97 65.1 0 0 693.39 452.92
  L 684.95 456.05
  A 2.87 1.67 -42.3 0 0 684.61 456.21
  Q 680.51 458.54 676.75 459.98
  C 668.67 463.09 659.27 462.06 655.11 453.91
  A 1.04 1.03 66.2 0 0 653.84 453.41
  C 650.76 454.51 646.75 455.85 643.70 453.87
  A 1.05 1.05 0.0 0 0 642.12 454.46
  C 641.37 457.09 639.97 459.25 637.60 460.92
  C 634.35 463.21 625.95 467.22 622.37 464.12
  Q 619.75 461.85 622.02 458.82
  A 2.58 2.53 32.8 0 1 625.30 458.14
  C 626.46 458.79 627.31 459.33 628.65 459.13
  Q 633.10 458.43 635.92 454.40
  Q 638.00 451.43 635.68 449.36
  Q 633.14 447.09 630.57 443.66
  A 0.60 0.60 0.0 0 0 629.61 443.66
  Z
  M 710.5210 431.6191
  A 7.76 2.24 -46.2 0 0 703.5333 435.6696
  A 7.76 2.24 -46.2 0 0 699.7790 442.8209
  A 7.76 2.24 -46.2 0 0 706.7667 438.7704
  A 7.76 2.24 -46.2 0 0 710.5210 431.6191
  Z
  M 672.4906 433.7726
  A 7.19 2.17 -44.7 0 0 665.8536 437.2876
  A 7.19 2.17 -44.7 0 0 662.2694 443.8874
  A 7.19 2.17 -44.7 0 0 668.9064 440.3724
  A 7.19 2.17 -44.7 0 0 672.4906 433.7726
  Z"
/>
<path fill="#145033" d="
  M 170.37 459.57
  A 0.58 0.57 47.1 0 0 170.40 458.69
  Q 163.35 452.25 167.19 443.77
  C 172.04 433.11 183.49 427.30 194.50 426.72
  C 199.05 426.48 205.36 428.43 206.28 433.56
  A 2.00 1.92 -41.6 0 1 206.20 434.55
  Q 205.29 437.24 202.12 436.83
  A 1.01 0.98 74.7 0 1 201.43 436.42
  L 199.70 434.02
  A 3.10 3.06 -10.8 0 0 197.94 432.84
  C 188.49 430.54 175.09 438.01 172.29 447.26
  C 170.95 451.66 174.81 456.81 179.51 455.72
  C 183.61 454.77 186.46 453.66 189.66 455.78
  Q 192.01 457.34 190.96 459.47
  A 4.08 3.64 11.7 0 1 187.39 461.54
  Q 181.92 461.52 178.42 462.18
  A 7.01 6.88 26.3 0 0 176.68 462.75
  Q 167.75 467.06 162.47 473.92
  C 159.52 477.75 155.32 487.84 162.34 490.16
  C 166.85 491.65 170.71 491.29 175.48 489.93
  Q 185.74 487.00 190.74 484.67
  Q 197.18 481.67 201.65 479.84
  A 2.25 2.25 0.0 0 1 204.67 481.34
  L 204.70 481.46
  A 2.88 2.87 69.2 0 1 203.22 484.77
  Q 193.79 489.52 182.97 493.46
  C 173.98 496.74 164.83 500.37 156.01 494.02
  Q 153.78 492.41 152.47 488.12
  C 149.64 478.91 158.79 467.29 165.88 462.62
  Q 169.68 460.12 170.37 459.57
  Z"
/>
<circle fill="#145033" cx="318.22" cy="440.48" r="3.54"/>
<path fill="#145033" d="
  M 276.86 461.99
  Q 269.22 465.24 265.33 473.43
  C 260.88 482.81 267.58 485.16 275.06 483.04
  Q 280.82 481.41 286.43 477.68
  A 2.07 2.06 -25.0 0 1 289.55 478.81
  L 289.59 478.93
  A 3.66 3.65 -25.2 0 1 288.12 483.01
  C 281.05 487.73 269.47 492.57 261.65 487.10
  C 257.05 483.87 256.43 479.13 258.44 473.93
  Q 262.23 464.13 271.16 458.15
  C 275.17 455.47 280.55 454.72 283.68 459.11
  A 2.55 2.52 23.9 0 1 284.13 460.26
  C 284.49 463.30 284.44 467.71 280.62 467.94
  A 2.03 1.64 82.7 0 1 278.84 466.23
  Q 278.67 465.24 278.67 463.18
  A 1.30 1.30 0.0 0 0 276.86 461.99
  Z"
/>
<path fill="#145033" d="
  M 226.61 474.81
  A 1.36 1.35 -40.3 0 0 226.76 473.05
  L 220.59 464.48
  A 2.71 2.70 -32.9 0 1 221.43 460.55
  L 221.80 460.34
  A 3.56 3.56 0.0 0 1 226.66 461.64
  L 231.15 469.42
  A 0.80 0.80 0.0 0 0 232.40 469.58
  L 243.03 458.95
  A 3.65 3.64 44.9 0 1 248.18 458.95
  L 248.54 459.32
  A 2.55 2.54 49.4 0 1 248.25 463.18
  Q 241.97 467.77 236.12 474.28
  A 1.34 1.32 51.3 0 0 235.96 475.83
  Q 238.57 480.35 245.61 485.43
  A 2.05 2.04 45.9 0 1 245.56 488.79
  L 245.38 488.91
  A 4.24 4.23 -42.7 0 1 240.39 488.71
  Q 234.52 484.06 231.41 479.33
  A 0.64 0.63 -38.5 0 0 230.43 479.22
  L 217.66 491.76
  A 2.76 2.76 0.0 0 1 213.76 491.72
  L 213.62 491.58
  A 2.87 2.87 0.0 0 1 213.62 487.47
  L 226.61 474.81
  Z"
/>
<rect fill="#145033" x="-2.58" y="-15.29" transform="translate(1246.67,495.56) rotate(32.8)" width="5.16" height="30.58" rx="2.52"/>
<rect fill="#145033" x="-17.17" y="-2.78" transform="translate(1268.30,509.75) rotate(-35.4)" width="34.34" height="5.56" rx="2.73"/>
<path fill="#145033" d="
  M 1108.16 562.68
  C 1114.99 547.49 1126.71 535.51 1141.48 527.50
  A 3.30 3.30 0.0 0 0 1142.30 526.87
  L 1145.71 523.23
  A 0.82 0.66 -77.6 0 1 1145.91 523.07
  Q 1156.19 517.00 1169.20 516.02
  Q 1173.06 515.72 1180.53 516.71
  Q 1186.59 517.51 1188.07 517.53
  C 1194.85 517.61 1203.12 521.94 1208.36 525.72
  C 1211.13 527.72 1216.38 531.87 1219.23 535.15
  Q 1227.52 544.69 1231.23 556.65
  Q 1234.93 568.55 1233.03 581.12
  Q 1229.58 603.89 1211.82 619.38
  Q 1186.25 641.71 1151.16 640.73
  C 1147.24 640.62 1141.66 639.31 1138.75 638.52
  C 1123.27 634.28 1111.19 622.10 1105.95 607.00
  C 1100.96 592.59 1101.82 576.77 1108.16 562.68
  Z
  M 1171.08 521.61
  Q 1171.95 522.82 1171.48 523.79
  A 0.90 0.89 14.5 0 1 1170.61 524.30
  C 1155.06 523.23 1135.84 533.88 1125.45 545.53
  C 1115.29 556.93 1108.71 570.11 1108.17 585.51
  Q 1107.32 609.68 1125.00 625.47
  C 1130.80 630.65 1139.38 633.42 1147.01 634.68
  Q 1153.50 635.74 1162.00 634.87
  Q 1187.32 632.26 1206.22 616.22
  C 1219.43 605.01 1227.41 590.34 1227.50 573.25
  C 1227.60 555.85 1219.91 541.01 1205.88 530.78
  C 1196.41 523.87 1182.84 520.49 1171.57 520.64
  A 0.61 0.61 0.0 0 0 1171.08 521.61
  Z"
/>
<rect fill="#145033" x="-15.95" y="-2.51" transform="translate(1283.60,530.14) rotate(-13.8)" width="31.90" height="5.02" rx="2.46"/>
<path fill="#145033" d="
  M 798.43 582.68
  Q 804.07 579.50 805.57 578.05
  Q 807.94 575.76 817.09 565.57
  Q 821.07 561.13 822.41 556.90
  Q 826.32 544.61 830.36 533.82
  A 2.25 2.24 28.2 0 1 833.78 532.79
  L 833.87 532.85
  A 3.87 3.87 0.0 0 1 835.28 537.27
  L 822.92 572.90
  A 0.44 0.44 0.0 0 0 823.44 573.47
  Q 823.90 573.36 824.10 573.10
  C 826.18 570.36 834.37 560.91 838.72 563.14
  Q 843.06 565.37 842.57 570.76
  Q 842.10 575.96 841.39 581.50
  Q 841.22 582.83 841.77 584.96
  A 1.52 1.52 0.0 0 0 844.13 585.82
  L 852.72 579.63
  A 3.53 3.52 -8.0 0 0 853.98 577.96
  C 856.74 570.32 863.79 561.42 872.48 560.52
  C 874.00 560.36 875.60 562.07 876.58 563.88
  C 877.58 565.75 879.87 564.16 881.26 565.43
  C 883.76 567.72 881.21 572.31 879.58 575.76
  C 878.75 577.53 878.52 579.06 878.81 580.93
  A 1.36 1.35 -15.0 0 0 880.65 581.99
  C 883.71 580.78 887.87 577.58 890.53 574.75
  Q 893.34 571.76 899.81 565.09
  C 901.38 563.48 900.23 560.37 903.86 559.63
  A 1.11 1.10 -28.5 0 1 904.86 559.92
  Q 905.60 560.65 906.30 560.98
  A 0.73 0.72 32.2 0 0 907.18 560.78
  C 911.57 555.20 919.44 553.80 924.14 559.51
  C 928.20 564.44 925.88 571.43 923.23 576.57
  A 0.62 0.62 0.0 0 0 924.01 577.43
  L 932.83 573.88
  A 1.50 1.49 81.7 0 0 933.76 572.62
  Q 934.67 561.55 943.24 555.01
  C 948.15 551.25 955.86 552.36 954.91 560.15
  C 954.06 567.15 947.79 572.45 941.82 575.58
  A 0.85 0.85 0.0 0 0 941.68 577.00
  C 948.36 582.40 960.32 575.31 966.18 572.55
  A 1.53 1.53 0.0 0 1 968.28 574.41
  Q 967.82 575.78 966.27 577.04
  C 959.03 582.92 942.49 590.50 935.60 579.35
  A 1.02 1.02 0.0 0 0 934.35 578.94
  L 925.30 582.58
  A 1.15 1.03 29.5 0 1 924.94 582.66
  L 920.59 582.99
  A 3.87 3.79 -61.1 0 0 918.99 583.47
  Q 915.01 585.74 914.54 585.98
  C 910.86 587.88 904.72 588.42 903.21 583.18
  A 0.39 0.39 0.0 0 0 902.45 583.20
  Q 898.94 599.21 893.49 622.74
  C 892.86 625.46 891.20 631.51 887.69 630.01
  C 885.49 629.07 885.72 625.97 886.15 624.19
  Q 887.64 618.02 890.19 609.56
  C 893.09 599.94 894.93 590.02 897.61 579.52
  C 897.92 578.30 898.10 576.25 898.39 574.62
  A 0.37 0.37 0.0 0 0 897.79 574.27
  Q 896.48 575.35 895.22 576.97
  Q 893.64 578.99 887.96 584.20
  C 883.53 588.26 875.76 590.37 873.20 583.09
  A 0.76 0.76 0.0 0 0 871.87 582.90
  C 868.40 587.69 856.85 595.85 853.53 585.82
  A 0.64 0.63 57.5 0 0 852.47 585.58
  C 849.88 588.30 843.66 593.17 839.68 591.01
  C 835.17 588.56 835.28 582.19 835.95 577.98
  Q 836.51 574.51 836.77 570.30
  A 0.75 0.74 78.9 0 0 835.71 569.58
  Q 833.91 570.43 832.39 572.16
  Q 823.76 581.96 819.67 589.21
  C 818.18 591.85 815.80 593.92 813.33 591.14
  A 2.83 2.81 -56.5 0 1 812.77 588.34
  L 818.30 572.39
  A 0.47 0.47 0.0 0 0 817.63 571.82
  Q 817.25 572.03 817.04 572.33
  Q 810.60 581.82 801.07 586.46
  A 0.93 0.90 -42.2 0 1 800.20 586.43
  L 798.24 585.30
  A 0.73 0.72 -70.2 0 0 797.17 585.81
  C 795.84 593.41 788.27 597.19 780.95 596.89
  C 777.34 596.75 775.97 592.77 778.35 590.02
  A 2.10 2.09 -51.9 0 1 781.13 589.68
  Q 782.06 590.33 783.00 590.84
  A 2.19 2.18 -37.1 0 0 784.52 591.05
  C 787.76 590.36 794.58 585.95 790.68 582.06
  Q 788.16 579.56 786.63 577.12
  A 0.83 0.82 -40.6 0 0 785.31 577.02
  Q 777.45 586.12 768.57 595.05
  C 766.55 597.07 762.79 599.04 761.06 595.81
  A 2.21 1.89 -32.6 0 1 761.84 593.22
  Q 762.93 592.44 764.27 591.83
  A 5.10 4.95 10.3 0 0 765.60 590.94
  Q 775.19 581.94 783.13 572.05
  Q 783.88 571.11 785.46 568.59
  Q 787.17 565.85 790.27 563.49
  C 793.80 560.82 798.77 558.31 801.77 562.53
  A 1.93 1.82 24.0 0 1 802.11 563.34
  Q 803.01 568.59 797.81 570.61
  A 1.27 1.27 0.0 0 1 796.08 569.51
  L 795.99 567.91
  A 0.62 0.62 0.0 0 0 794.99 567.47
  Q 792.03 569.80 791.08 571.68
  A 2.91 2.91 0.0 0 0 791.69 575.09
  Q 795.80 578.95 797.57 582.42
  A 0.62 0.62 0.0 0 0 798.43 582.68
  Z
  M 949.5890 559.0210
  A 6.69 2.08 -49.0 0 0 943.6302 562.7054
  A 6.69 2.08 -49.0 0 0 940.8110 569.1190
  A 6.69 2.08 -49.0 0 0 946.7698 565.4346
  A 6.69 2.08 -49.0 0 0 949.5890 559.0210
  Z
  M 904.19 580.47
  Q 906.57 579.97 907.92 580.43
  Q 909.41 580.94 911.24 580.07
  Q 920.60 575.58 920.82 565.54
  Q 920.89 562.43 918.32 561.53
  A 2.11 2.01 48.4 0 0 917.25 561.44
  C 912.09 562.34 909.30 565.91 905.84 570.37
  A 2.97 2.91 -20.5 0 0 905.29 571.55
  L 903.53 579.81
  A 0.56 0.56 0.0 0 0 904.19 580.47
  Z
  M 870.64 566.80
  C 865.19 568.60 860.42 576.94 859.25 581.49
  Q 858.90 582.83 859.51 583.69
  A 1.14 1.13 60.7 0 0 860.88 584.08
  C 865.91 581.91 869.31 578.02 870.43 572.63
  Q 870.74 571.15 871.91 568.12
  A 1.01 1.01 0.0 0 0 870.64 566.80
  Z"
/>
<path fill="#145033" d="
  M 623.14 591.08
  A 0.42 0.41 -18.9 0 0 623.88 591.44
  Q 624.95 589.77 629.88 583.39
  C 632.38 580.16 638.11 574.14 641.54 579.21
  Q 642.83 581.13 642.73 584.25
  Q 642.52 590.53 642.14 596.25
  Q 642.07 597.32 642.37 598.57
  A 1.63 1.62 -21.7 0 0 644.75 599.59
  Q 656.73 592.73 665.05 581.55
  Q 665.33 581.17 665.28 580.95
  Q 665.14 580.45 664.46 580.45
  Q 663.27 580.44 659.06 581.45
  A 2.80 2.80 0.0 0 1 655.65 579.25
  L 655.60 579.02
  A 2.62 2.62 0.0 0 1 657.65 575.88
  L 668.40 573.76
  A 3.36 3.32 8.8 0 0 670.67 572.12
  C 675.08 564.18 677.67 556.71 680.76 547.43
  A 3.40 3.39 13.4 0 1 684.47 545.15
  L 684.58 545.16
  A 2.42 2.42 0.0 0 1 686.53 548.30
  Q 684.71 553.94 684.44 555.24
  C 683.27 560.94 681.15 564.59 678.30 571.61
  A 0.66 0.65 4.4 0 0 679.06 572.49
  C 684.04 571.28 690.03 569.95 694.68 571.37
  C 698.62 572.57 699.75 572.08 703.13 570.67
  Q 707.14 569.00 711.97 570.39
  C 720.70 572.90 720.88 582.42 717.47 589.24
  C 714.63 594.92 709.85 600.07 703.56 601.99
  C 696.43 604.16 690.27 598.91 691.01 591.48
  Q 691.72 584.22 696.24 578.10
  A 0.66 0.65 25.0 0 0 695.86 577.07
  Q 694.53 576.75 693.20 576.88
  Q 683.22 577.89 676.90 579.08
  A 1.74 1.74 0.0 0 0 675.54 580.33
  Q 672.18 592.23 671.19 596.23
  Q 670.81 597.79 671.61 601.56
  A 1.93 1.92 49.1 0 1 671.54 602.56
  C 670.40 605.78 666.12 606.37 664.18 603.15
  A 2.63 2.61 -52.7 0 1 663.91 601.11
  L 668.28 585.62
  A 0.42 0.42 0.0 0 0 667.56 585.23
  Q 659.25 594.94 648.99 602.97
  Q 646.85 604.64 643.67 605.08
  C 638.31 605.83 636.48 600.59 636.64 596.26
  Q 636.73 593.69 637.48 585.67
  A 0.87 0.87 0.0 0 0 636.00 584.98
  C 630.28 590.77 626.00 596.86 619.59 605.28
  Q 618.83 606.28 616.86 606.97
  A 1.38 1.35 48.2 0 1 615.80 606.90
  C 610.61 604.36 614.02 600.03 616.07 596.85
  A 0.47 0.46 24.1 0 0 615.80 596.15
  L 615.53 596.07
  A 0.39 0.38 -63.3 0 0 615.12 596.21
  Q 608.22 604.70 599.98 608.19
  Q 595.57 610.06 591.74 606.80
  C 589.86 605.20 589.57 601.67 589.90 599.41
  A 0.71 0.71 0.0 0 0 588.61 598.90
  C 585.82 602.87 580.46 609.56 575.53 610.09
  A 1.39 1.37 59.9 0 1 574.55 609.82
  Q 571.76 607.72 573.50 604.74
  A 1.20 1.17 10.1 0 1 574.34 604.17
  C 579.82 603.35 587.95 593.35 590.67 589.12
  Q 593.38 584.91 595.83 580.90
  A 2.53 2.53 0.0 0 1 599.54 580.21
  L 599.67 580.31
  A 3.06 3.05 32.9 0 1 600.50 584.17
  C 597.59 589.60 594.53 595.69 595.13 601.75
  A 1.56 1.55 75.7 0 0 597.28 603.03
  Q 602.46 600.85 606.78 597.04
  Q 613.15 591.44 619.34 585.15
  A 3.03 2.98 -9.5 0 0 619.84 584.46
  L 622.51 579.30
  A 3.64 3.64 0.0 0 1 626.85 577.50
  L 627.02 577.56
  A 2.40 2.40 0.0 0 1 628.34 580.97
  Q 623.71 589.49 623.14 591.08
  Z
  M 699.08 595.90
  C 706.63 596.77 712.68 588.15 713.79 581.97
  Q 714.43 578.43 711.93 576.15
  A 1.75 1.72 -18.9 0 0 711.01 575.71
  Q 707.98 575.24 706.69 575.93
  C 701.82 578.49 700.35 581.55 697.83 587.82
  Q 696.71 590.60 697.15 594.00
  A 2.21 2.21 0.0 0 0 699.08 595.90
  Z"
/>
<rect fill="#145033" x="-2.98" y="-11.22" transform="translate(1155.26,557.01) rotate(31.1)" width="5.96" height="22.44" rx="2.78"/>
<rect fill="#145033" x="-3.11" y="-11.63" transform="translate(1182.96,565.65) rotate(28.5)" width="6.22" height="23.26" rx="2.99"/>
<ellipse fill="#145033" cx="0.00" cy="0.00" transform="translate(605.43,559.91) rotate(-115.0)" rx="3.56" ry="3.30"/>
<path fill="#145033" d="
  M 360.15 602.72
  A 0.48 0.48 0.0 0 0 360.94 603.23
  C 365.53 598.22 375.37 589.06 382.78 593.86
  Q 385.40 595.56 386.14 598.92
  C 387.98 607.30 383.38 612.57 377.69 617.79
  C 374.14 621.04 362.83 628.76 358.30 625.26
  C 355.67 623.24 356.11 618.60 360.36 618.78
  A 1.96 1.84 -30.2 0 1 360.97 618.92
  Q 363.64 620.06 364.83 619.56
  Q 372.54 616.31 377.71 609.45
  C 379.52 607.05 381.36 603.06 380.27 599.99
  A 2.40 2.13 -17.4 0 0 377.46 598.72
  C 365.44 602.04 359.54 613.61 353.76 623.23
  Q 352.98 624.54 351.47 625.43
  C 349.11 626.83 347.07 623.88 347.33 622.02
  Q 347.73 619.16 349.83 613.90
  C 354.13 603.11 357.83 592.05 362.75 577.90
  C 364.37 573.25 365.23 569.02 366.85 564.57
  A 2.80 2.80 0.0 0 1 370.29 562.84
  L 370.39 562.87
  A 2.72 2.71 15.8 0 1 372.23 566.16
  Q 372.17 566.36 367.52 582.53
  Q 364.68 592.41 360.15 602.72
  Z"
/>
<ellipse fill="#145033" cx="0.00" cy="0.00" transform="translate(448.53,572.88) rotate(-147.9)" rx="3.76" ry="3.46"/>
<path fill="#145033" d="
  M 1140.99 575.69
  A 2.72 2.71 19.2 0 1 1142.62 579.05
  C 1139.99 587.44 1140.55 597.68 1150.14 600.35
  C 1158.02 602.54 1165.70 599.24 1171.34 593.57
  Q 1172.16 592.75 1175.20 589.05
  A 2.66 2.66 0.0 0 1 1179.04 588.76
  L 1179.16 588.88
  A 3.16 3.16 0.0 0 1 1179.67 592.98
  Q 1174.38 600.89 1166.55 604.42
  C 1154.82 609.69 1141.91 607.13 1136.42 594.63
  Q 1132.92 586.66 1137.34 577.12
  A 2.83 2.83 0.0 0 1 1140.91 575.66
  L 1140.99 575.69
  Z"
/>
<ellipse fill="#145033" cx="0.00" cy="0.00" transform="translate(979.30,579.78) rotate(-50.4)" rx="4.14" ry="3.88"/>
<path fill="#145033" d="
  M 468.34 602.70
  C 471.19 599.73 480.66 584.69 486.76 589.47
  Q 489.86 591.91 489.45 595.27
  Q 488.23 605.19 488.05 607.36
  Q 487.91 609.12 488.54 610.11
  Q 489.35 611.38 491.49 610.46
  Q 497.00 608.09 502.43 604.68
  A 4.30 4.25 -7.2 0 0 504.21 602.41
  Q 506.95 594.14 514.38 588.32
  C 518.90 584.77 525.67 583.28 528.06 590.05
  A 1.25 1.24 -12.1 0 0 529.34 590.87
  Q 533.25 590.53 534.23 593.63
  C 534.77 595.31 533.80 597.37 533.25 598.98
  A 4.76 4.63 -35.7 0 0 533.01 600.33
  Q 532.85 605.80 530.18 620.19
  C 527.42 635.11 524.15 648.90 514.06 659.22
  Q 511.35 662.01 507.88 663.15
  C 502.87 664.80 497.26 662.06 494.78 657.55
  Q 493.48 655.18 492.54 649.99
  C 491.63 644.96 492.68 636.19 498.64 634.27
  A 0.90 0.90 0.0 0 1 499.64 635.65
  Q 498.61 637.07 497.62 640.52
  C 496.09 645.87 497.22 654.89 503.10 657.29
  C 507.21 658.96 512.26 653.08 514.14 649.88
  C 521.88 636.74 524.33 620.34 526.88 604.34
  A 0.59 0.58 -83.2 0 0 526.35 603.66
  Q 526.00 603.64 525.64 604.10
  C 521.54 609.45 508.52 621.11 503.86 610.49
  A 0.70 0.69 59.4 0 0 502.80 610.21
  C 499.31 612.88 491.55 618.33 486.71 615.99
  C 482.95 614.17 481.95 610.60 482.48 606.43
  Q 482.98 602.40 483.31 596.84
  A 0.96 0.96 0.0 0 0 481.82 595.99
  Q 479.90 597.29 478.44 598.95
  Q 471.08 607.28 465.25 614.49
  C 463.93 616.12 461.80 617.84 459.90 616.08
  C 456.95 613.38 459.26 611.07 460.24 608.18
  A 0.65 0.65 0.0 0 0 459.15 607.52
  Q 451.37 615.52 442.08 619.24
  C 435.82 621.75 428.73 616.94 429.90 610.15
  Q 431.03 603.60 436.82 594.73
  Q 438.26 592.52 439.49 592.19
  C 441.85 591.55 444.34 593.80 443.04 596.29
  C 440.45 601.25 436.96 606.77 436.59 611.96
  A 2.19 1.66 -81.6 0 0 437.77 614.11
  C 440.31 614.87 445.79 611.71 447.91 610.14
  Q 455.18 604.76 462.72 598.83
  A 7.87 7.85 -6.6 0 0 464.97 596.00
  C 466.55 592.62 467.20 590.50 469.53 589.18
  A 2.60 2.35 53.2 0 1 472.53 589.77
  Q 474.05 591.40 472.75 593.75
  Q 470.14 598.50 468.03 602.47
  A 0.20 0.19 81.2 0 0 468.34 602.70
  Z
  M 523.46 597.11
  Q 522.71 596.76 522.12 595.70
  A 1.46 1.43 -54.7 0 1 521.96 594.69
  L 522.46 592.37
  A 1.05 1.05 0.0 0 0 521.06 591.17
  C 514.52 593.65 510.25 600.59 509.03 607.26
  A 1.33 1.32 -3.1 0 0 510.72 608.77
  C 515.64 607.29 520.55 602.23 523.72 598.22
  A 0.73 0.73 0.0 0 0 523.46 597.11
  Z"
/>
<path fill="#145033" d="
  M 402.15 599.71
  A 0.55 0.54 -17.1 0 0 403.10 600.21
  C 407.97 594.09 414.53 588.75 422.79 590.03
  C 424.85 590.35 428.08 593.40 426.40 595.79
  Q 425.60 596.92 423.60 597.39
  Q 423.28 597.47 420.41 596.07
  Q 418.01 594.89 415.93 595.98
  C 406.17 601.09 401.06 610.54 397.54 621.12
  A 3.97 3.97 0.0 0 1 392.78 623.71
  L 392.55 623.65
  A 3.21 3.21 0.0 0 1 390.38 619.33
  Q 394.15 610.00 395.91 603.23
  Q 395.99 602.90 395.95 602.83
  A 0.82 0.78 -38.3 0 0 394.65 602.71
  Q 392.67 604.82 390.27 605.10
  A 1.32 1.32 0.0 0 1 388.86 603.39
  Q 389.49 601.39 390.80 600.53
  Q 395.05 597.76 398.26 594.10
  Q 400.13 591.96 402.32 593.72
  A 2.96 2.94 30.8 0 1 403.20 597.14
  Q 402.16 599.68 402.15 599.71
  Z"
/>
<path fill="#145033" d="
  M 818.73 655.23
  L 840.01 654.50
  A 0.33 0.33 0.0 0 1 840.35 654.77
  L 840.41 655.09
  A 0.44 0.44 0.0 0 1 840.03 655.62
  Q 822.91 657.57 820.00 657.71
  C 812.17 658.05 805.88 659.08 798.04 659.86
  Q 788.43 660.82 785.49 661.51
  Q 778.86 663.07 769.05 663.85
  Q 762.22 664.40 758.53 665.26
  C 755.00 666.08 749.13 667.50 744.57 667.70
  Q 742.33 667.80 726.05 670.79
  Q 697.48 676.05 690.83 677.67
  C 685.12 679.06 678.20 680.23 673.94 681.44
  Q 668.29 683.05 662.48 684.22
  Q 651.77 686.39 636.38 690.60
  Q 592.48 702.61 574.51 707.89
  Q 569.74 709.29 562.80 711.56
  C 555.82 713.84 549.76 715.93 544.46 715.24
  A 0.94 0.94 0.0 0 1 544.02 713.56
  Q 547.47 711.00 551.97 709.22
  Q 564.20 704.36 567.51 703.26
  C 603.25 691.37 637.15 682.41 672.33 674.28
  Q 713.88 664.67 758.95 658.19
  Q 783.31 654.68 793.04 653.62
  Q 803.03 652.54 805.72 652.21
  Q 811.65 651.51 818.42 651.10
  Q 846.68 649.43 853.04 649.63
  Q 865.59 650.03 868.61 649.66
  C 870.55 649.43 874.45 650.01 876.11 650.24
  A 0.64 0.63 5.0 0 1 876.66 650.89
  L 876.64 651.24
  A 0.51 0.50 -86.6 0 1 876.11 651.72
  L 862.94 651.04
  A 0.58 0.21 -25.1 0 0 862.83 651.05
  L 859.33 651.67
  A 0.76 0.70 -47.4 0 1 859.21 651.68
  L 818.44 654.19
  A 0.26 0.26 0.0 0 0 818.23 654.58
  L 818.53 655.13
  A 0.22 0.22 0.0 0 0 818.73 655.23
  Z
  M 677.47 677.18
  Q 677.06 677.08 676.68 677.29
  A 0.17 0.17 0.0 0 0 676.75 677.61
  Q 677.20 677.64 677.47 677.18
  Q 678.26 677.54 679.26 677.34
  Q 699.57 673.15 723.19 668.58
  C 728.94 667.47 735.15 666.85 739.56 665.62
  C 743.47 664.54 746.07 664.72 750.46 663.81
  Q 752.29 663.43 758.68 662.57
  Q 769.97 661.05 783.51 659.03
  C 785.77 658.69 788.95 658.79 790.98 658.43
  Q 797.53 657.28 806.50 656.58
  C 809.57 656.34 811.58 654.45 815.11 655.34
  A 1.09 1.03 -46.4 0 0 815.73 655.31
  Q 816.01 655.21 816.02 655.20
  A 0.47 0.47 0.0 0 0 815.52 654.42
  Q 813.41 655.47 811.25 654.97
  A 2.54 2.46 -41.1 0 0 810.48 654.93
  L 776.42 658.65
  A 1.28 1.20 28.5 0 0 776.15 658.72
  Q 774.45 659.36 772.51 659.56
  Q 764.47 660.40 759.42 661.48
  C 757.31 661.93 754.91 661.84 752.75 662.18
  Q 728.51 665.95 704.32 671.07
  C 700.45 671.89 696.94 672.25 693.03 673.43
  C 689.08 674.61 682.61 675.35 677.47 677.18
  Z
  M 817.48 654.86
  A 0.04 0.04 0.0 0 0 817.44 654.82
  A 0.04 0.04 0.0 0 0 817.40 654.86
  A 0.04 0.04 0.0 0 0 817.44 654.90
  A 0.04 0.04 0.0 0 0 817.48 654.86
  Z
  M 646.31 685.28
  Q 648.28 685.23 650.56 684.11
  Q 650.59 684.10 654.17 683.18
  Q 660.75 681.49 664.58 680.65
  A 0.23 0.22 -12.5 0 0 664.76 680.38
  L 664.76 680.37
  A 0.17 0.16 79.7 0 0 664.57 680.23
  Q 652.94 681.97 649.00 683.82
  Q 648.11 684.24 646.24 684.81
  A 0.24 0.24 0.0 0 0 646.31 685.28
  Z
  M 643.00 685.68
  Q 643.17 685.73 643.34 685.71
  A 0.12 0.10 -43.0 0 0 643.37 685.49
  Q 643.20 685.49 643.00 685.68
  Q 640.32 685.37 638.27 686.69
  A 0.17 0.17 0.0 0 0 638.36 687.01
  Q 640.77 687.09 643.00 685.68
  Z"
/>
<path fill="#145033" d="
  M 880.04 651.40
  A 0.10 0.10 0.0 0 1 879.94 651.29
  L 879.94 651.25
  A 2.64 1.08 1.3 0 1 882.60 650.23
  L 885.78 650.31
  A 2.64 1.08 1.3 0 1 888.40 651.45
  L 888.40 651.49
  A 0.10 0.10 0.0 0 1 888.30 651.58
  L 880.04 651.40
  Z"
/>
<ellipse fill="#145033" cx="0.00" cy="0.00" transform="translate(895.51,651.84) rotate(-177.7)" rx="1.99" ry="0.50"/>
<ellipse fill="#145033" cx="0.00" cy="0.00" transform="translate(862.21,654.22) rotate(-1.3)" rx="15.08" ry="0.89"/>
</svg>
