<?xml version="1.0" encoding="UTF-8" standalone="no"?>
<!DOCTYPE svg PUBLIC "-//W3C//DTD SVG 1.1//EN" "http://www.w3.org/Graphics/SVG/1.1/DTD/svg11.dtd">
<svg xmlns="http://www.w3.org/2000/svg" version="1.1" viewBox="0.00 0.00 1254.00 1254.00">
<path fill="#213a27" d="
  M 867.48 512.17
  Q 871.37 513.05 875.83 516.43
  Q 904.54 538.20 933.51 562.50
  Q 938.05 566.30 942.66 570.41
  A 3.54 3.30 -9.1 0 0 943.39 570.90
  C 948.22 573.26 950.94 576.10 950.07 581.89
  Q 950.02 582.27 949.39 587.98
  C 948.08 600.05 939.15 606.85 927.53 608.52
  Q 925.43 608.83 911.91 608.57
  Q 906.38 608.47 900.60 608.64
  Q 892.74 608.86 889.27 608.64
  C 883.85 608.30 877.12 609.16 872.19 608.25
  A 5.04 4.85 -44.5 0 0 870.32 608.27
  C 866.89 608.96 861.96 608.22 857.51 608.14
  Q 810.65 607.34 773.61 607.91
  Q 764.41 608.05 750.42 607.91
  C 740.79 607.80 729.13 608.01 719.53 607.90
  Q 679.15 607.43 654.56 607.94
  Q 631.56 608.43 614.44 608.14
  Q 596.01 607.82 574.30 607.79
  C 564.68 607.77 555.80 608.38 547.09 608.11
  C 545.36 608.06 542.49 608.53 540.75 608.41
  C 535.92 608.08 531.37 608.48 526.41 608.44
  Q 508.27 608.30 491.50 608.04
  Q 436.83 607.17 385.17 608.34
  Q 363.87 608.82 352.32 608.84
  Q 322.06 608.87 319.50 608.96
  C 306.47 609.41 296.19 604.30 291.55 591.73
  C 290.47 588.80 290.83 585.64 290.03 582.89
  C 288.94 579.17 290.21 574.94 293.11 572.83
  Q 299.62 568.11 304.25 564.00
  Q 316.41 553.19 335.96 536.70
  Q 358.86 517.39 361.42 515.71
  A 11.65 11.37 -73.7 0 1 363.14 514.74
  L 366.91 513.05
  A 0.59 0.58 64.5 0 0 367.19 512.25
  Q 364.83 507.74 364.89 501.74
  Q 364.98 491.44 364.75 485.07
  C 363.55 452.56 365.75 420.61 365.29 397.00
  Q 364.90 376.41 364.23 347.25
  Q 364.15 343.38 364.44 331.75
  Q 365.29 298.95 365.47 287.75
  C 365.70 273.10 364.97 255.45 364.90 240.42
  Q 364.74 205.42 364.65 202.90
  Q 364.32 193.00 365.98 188.73
  C 371.09 175.61 382.84 174.89 395.51 175.35
  Q 422.67 176.34 469.00 177.09
  C 518.75 177.90 555.34 175.96 618.24 175.54
  C 631.28 175.46 644.88 176.09 659.09 175.74
  C 680.91 175.19 703.12 175.59 724.26 176.00
  C 726.60 176.05 729.04 176.39 731.18 176.43
  Q 776.54 177.17 825.18 176.76
  C 832.29 176.70 840.67 175.68 848.46 175.63
  Q 854.06 175.60 858.96 178.04
  C 866.44 181.77 868.95 188.16 869.39 196.28
  C 869.83 204.51 869.80 214.66 869.35 224.91
  Q 867.66 264.07 867.39 278.32
  Q 867.17 289.62 867.88 323.00
  Q 868.40 347.87 868.64 371.65
  C 868.86 393.96 867.65 427.84 867.33 443.91
  C 866.95 463.28 867.27 480.75 868.23 499.25
  Q 868.42 502.87 868.00 508.04
  C 867.90 509.32 866.97 510.33 866.93 511.45
  A 0.70 0.70 0.0 0 0 867.48 512.17
  Z
  M 858.21 184.75
  Q 852.68 180.98 845.69 180.91
  Q 837.02 180.83 828.75 181.06
  C 784.36 182.27 765.53 183.08 734.00 182.78
  Q 687.35 182.33 657.50 181.81
  Q 635.73 181.43 597.00 181.93
  Q 554.00 182.49 491.02 181.65
  C 475.10 181.44 457.27 182.26 442.33 182.08
  Q 399.29 181.54 389.25 181.68
  C 384.18 181.75 378.18 182.78 374.58 186.34
  C 371.37 189.50 370.61 193.11 369.79 197.00
  Q 369.33 199.15 369.47 203.82
  C 369.95 219.04 370.47 229.70 370.25 244.06
  Q 369.71 280.89 369.93 295.25
  C 370.32 321.31 370.87 342.77 370.62 367.25
  C 370.38 391.38 369.98 403.57 370.42 422.59
  Q 371.11 451.80 370.93 499.00
  C 370.91 504.06 370.84 511.47 377.50 512.22
  Q 388.88 513.50 404.02 512.92
  C 413.50 512.56 421.69 512.29 428.25 512.28
  Q 472.23 512.15 518.00 511.60
  C 535.17 511.40 554.82 512.16 567.00 512.30
  Q 577.64 512.42 599.00 511.83
  Q 644.12 510.58 685.37 511.67
  Q 707.38 512.26 723.15 511.89
  Q 739.11 511.52 760.92 511.58
  C 764.86 511.59 768.26 511.92 772.25 511.91
  Q 802.18 511.83 840.99 512.57
  C 845.10 512.64 848.58 512.40 852.57 512.39
  C 857.37 512.38 861.43 510.98 861.96 506.00
  Q 862.49 501.15 862.34 492.00
  C 861.86 461.61 862.05 432.91 861.85 404.00
  Q 861.78 393.43 861.88 382.00
  Q 862.18 350.59 862.78 317.33
  C 863.49 278.66 863.44 239.75 863.04 199.00
  Q 862.97 191.76 859.07 185.63
  A 3.05 3.02 -89.7 0 0 858.21 184.75
  Z
  M 942.33 581.96
  C 945.11 580.41 944.41 577.15 942.31 575.42
  Q 937.68 571.57 934.28 568.98
  Q 925.84 562.54 916.27 555.00
  C 897.66 540.33 889.17 533.91 880.47 526.66
  Q 875.05 522.15 869.58 518.72
  Q 867.17 517.21 865.55 516.97
  C 859.13 516.05 852.14 515.58 844.79 515.86
  Q 809.76 517.21 801.53 517.20
  Q 772.73 517.17 744.50 517.15
  C 724.70 517.13 705.23 515.89 685.51 516.56
  C 646.53 517.90 618.83 517.48 586.18 516.41
  Q 574.17 516.02 560.33 516.62
  Q 536.12 517.69 520.50 517.44
  Q 514.94 517.36 446.75 516.92
  C 428.36 516.80 421.26 516.78 405.27 516.24
  Q 395.33 515.90 382.98 516.05
  Q 379.62 516.09 378.06 516.34
  C 373.47 517.09 368.02 516.46 364.19 519.68
  Q 327.33 550.70 299.14 574.64
  C 297.86 575.72 295.96 578.01 296.70 579.84
  C 298.44 584.05 304.92 584.39 308.76 584.09
  C 329.36 582.50 346.66 582.64 372.00 583.09
  Q 460.04 584.65 549.67 584.90
  Q 556.93 584.92 582.84 584.58
  Q 582.92 584.57 616.00 584.08
  Q 642.83 583.67 666.46 584.50
  C 669.87 584.62 672.71 584.14 675.59 584.51
  Q 679.04 584.95 682.44 584.90
  Q 690.55 584.80 723.78 584.22
  C 745.22 583.84 768.60 584.63 791.84 584.35
  Q 867.38 583.45 896.75 582.98
  Q 901.16 582.91 919.49 583.07
  Q 924.30 583.11 927.87 583.45
  C 933.38 583.98 937.99 584.39 942.33 581.96
  Z
  M 943.12 586.48
  A 0.43 0.43 0.0 0 0 942.56 585.98
  Q 936.96 587.84 930.50 588.17
  C 920.67 588.69 906.51 589.15 895.49 589.08
  Q 808.15 588.58 798.00 588.48
  Q 777.02 588.27 764.66 588.43
  C 734.29 588.84 706.48 588.40 677.52 587.96
  A 3.93 3.89 26.6 0 0 675.10 588.75
  C 670.69 592.03 666.06 592.06 660.61 592.63
  Q 658.58 592.84 655.15 592.90
  Q 620.02 593.56 586.27 592.61
  Q 578.03 592.38 574.75 592.39
  Q 568.12 592.42 563.08 591.06
  A 1.58 1.32 -14.7 0 1 562.63 590.85
  L 560.29 589.14
  A 5.46 5.45 -27.0 0 0 557.04 588.09
  Q 480.48 588.62 415.50 588.92
  Q 385.90 589.05 369.22 588.81
  C 364.30 588.74 360.40 589.27 356.34 588.99
  Q 352.58 588.74 346.67 588.81
  Q 326.55 589.06 306.53 587.88
  Q 302.03 587.62 298.53 586.38
  A 0.72 0.71 1.6 0 0 297.60 587.25
  C 299.52 593.85 301.81 599.32 309.29 600.96
  C 317.58 602.79 326.54 602.09 335.53 602.25
  Q 373.02 602.89 407.25 603.09
  C 409.28 603.10 411.89 603.54 413.95 603.36
  Q 418.59 602.95 435.48 602.86
  C 466.29 602.68 497.61 601.94 529.10 602.41
  C 553.09 602.77 570.84 602.93 594.00 602.36
  Q 615.39 601.83 642.89 602.31
  C 672.96 602.83 706.14 602.07 733.38 602.43
  C 750.06 602.64 769.18 603.28 785.55 603.08
  C 806.91 602.82 817.86 602.96 838.16 602.63
  Q 871.41 602.08 911.50 602.25
  Q 922.56 602.29 926.00 602.03
  C 936.21 601.26 940.92 596.19 943.12 586.48
  Z
  M 563.58 589.00
  Q 563.73 589.61 564.54 589.78
  Q 566.57 590.20 568.66 590.71
  A 7.57 7.45 51.2 0 0 570.38 590.91
  Q 585.00 590.86 611.25 591.68
  Q 627.82 592.20 641.18 591.34
  Q 649.60 590.80 655.46 590.89
  C 660.06 590.96 663.28 590.38 668.57 589.87
  A 0.99 0.98 -90.0 0 0 669.45 588.98
  L 669.45 588.95
  A 0.71 0.71 0.0 0 0 668.74 588.17
  Q 623.68 588.48 611.25 588.32
  Q 585.19 587.98 564.30 588.08
  A 0.75 0.74 -7.1 0 0 563.58 589.00
  Z"
/>
<ellipse fill="#213a27" cx="0.00" cy="0.00" transform="translate(617.91,191.67) rotate(-15.1)" rx="3.97" ry="3.74"/>
<path fill="#213a27" d="
  M 389.23 493.69
  Q 386.50 492.56 385.96 490.32
  Q 384.89 485.88 385.02 480.50
  Q 385.07 478.47 384.37 406.52
  Q 384.25 394.46 384.32 356.48
  C 384.36 334.58 383.80 309.82 383.73 289.76
  Q 383.58 241.96 383.93 213.50
  C 384.00 208.38 384.05 202.38 390.18 201.19
  Q 393.96 200.45 398.50 200.49
  C 442.09 200.91 477.99 200.85 514.75 201.41
  Q 537.34 201.76 543.25 201.58
  Q 561.74 201.02 575.66 201.31
  C 587.91 201.56 594.81 201.37 606.78 201.30
  C 618.60 201.23 629.66 201.68 641.11 201.46
  Q 654.85 201.20 662.39 201.16
  Q 737.77 200.76 747.50 200.83
  Q 779.20 201.04 830.38 201.27
  C 833.97 201.29 837.99 201.00 841.91 201.12
  C 848.34 201.32 849.76 205.47 849.94 211.00
  Q 850.65 233.67 850.51 255.65
  C 850.28 293.53 850.49 336.29 850.30 365.50
  Q 850.14 390.82 849.66 405.68
  C 849.28 417.27 849.44 430.54 849.78 442.00
  Q 850.44 463.51 850.11 483.60
  Q 850.04 487.40 849.17 489.67
  C 847.26 494.68 842.86 494.67 837.76 494.86
  Q 819.62 495.51 791.76 495.67
  Q 778.41 495.74 733.75 495.06
  Q 710.07 494.70 675.75 494.98
  Q 619.83 495.44 598.50 494.98
  Q 567.64 494.31 547.79 494.74
  Q 525.49 495.21 510.73 495.20
  Q 445.71 495.14 390.20 493.89
  A 2.78 2.68 55.6 0 1 389.23 493.69
  Z
  M 834.51 243.81
  Q 830.86 245.14 827.75 245.02
  Q 827.58 245.01 780.25 246.04
  Q 769.81 246.26 751.50 245.73
  Q 740.99 245.42 686.67 245.58
  C 666.44 245.63 638.26 245.29 619.99 244.84
  Q 601.23 244.38 570.01 245.02
  Q 492.91 246.59 402.75 245.18
  Q 398.60 245.12 389.60 245.08
  A 0.75 0.75 0.0 0 0 388.85 245.83
  Q 389.32 305.09 388.31 350.25
  C 388.04 362.38 388.71 375.05 388.36 389.25
  Q 388.01 403.01 388.42 425.00
  Q 388.73 442.12 388.56 446.59
  C 388.13 457.62 388.42 465.76 388.28 479.25
  Q 388.27 480.12 388.91 488.00
  A 1.85 1.80 -66.9 0 0 389.30 489.01
  Q 391.01 491.19 393.25 491.22
  C 411.75 491.41 439.77 490.29 456.25 490.14
  C 474.99 489.97 491.48 489.61 507.24 489.82
  Q 560.47 490.52 591.02 489.81
  Q 628.55 488.93 653.28 489.53
  Q 702.81 490.73 743.50 489.73
  C 753.12 489.49 766.90 490.00 776.83 489.81
  Q 808.63 489.19 827.33 489.37
  C 832.39 489.41 837.06 489.83 840.99 489.94
  C 842.91 489.99 844.63 489.33 844.82 487.12
  C 845.49 479.28 844.96 465.46 845.40 454.76
  Q 846.28 433.09 846.13 422.52
  Q 845.82 400.78 845.01 372.02
  C 844.65 358.93 844.28 337.05 844.83 318.67
  Q 845.10 309.38 845.27 287.17
  C 845.30 284.11 845.59 281.47 845.61 278.50
  C 845.70 261.79 844.98 248.39 845.73 233.87
  Q 846.06 227.53 846.09 213.77
  C 846.09 211.34 845.73 208.99 844.85 206.99
  A 2.66 2.64 -10.4 0 0 842.55 205.42
  Q 836.68 205.12 833.25 205.19
  C 796.19 205.84 761.40 206.45 723.09 205.99
  C 701.19 205.72 673.86 205.98 648.74 205.51
  Q 633.28 205.22 621.28 205.54
  C 580.52 206.65 527.51 204.90 477.66 205.28
  C 447.55 205.51 417.30 205.48 394.75 205.29
  C 391.88 205.26 387.90 204.77 388.10 209.27
  Q 388.88 227.29 388.79 241.67
  A 1.15 1.15 0.0 0 0 389.90 242.82
  C 396.66 243.01 403.85 242.18 410.69 242.16
  C 473.87 241.96 504.88 241.63 557.11 241.90
  Q 588.47 242.06 673.58 241.84
  Q 701.38 241.77 729.41 241.36
  C 757.34 240.95 787.88 240.66 818.00 241.46
  Q 827.18 241.70 834.40 242.74
  A 0.55 0.55 0.0 0 1 834.51 243.81
  Z"
/>
<ellipse fill="#213a27" cx="0.00" cy="0.00" transform="translate(413.11,224.64) rotate(-56.3)" rx="5.16" ry="4.88"/>
<circle fill="#213a27" cx="435.42" cy="224.53" r="4.92"/>
<ellipse fill="#213a27" cx="0.00" cy="0.00" transform="translate(458.39,224.55) rotate(-58.3)" rx="5.00" ry="4.81"/>
<path fill="#213a27" d="
  M 501.82 479.55
  A 0.29 0.29 0.0 0 1 501.25 479.52
  Q 500.48 474.44 500.45 468.50
  Q 500.35 446.33 499.61 407.25
  Q 499.45 399.12 499.71 384.01
  Q 500.37 345.75 500.33 334.25
  Q 500.14 279.49 500.30 267.50
  Q 500.39 260.89 501.25 255.80
  A 0.40 0.40 0.0 0 1 502.05 255.86
  C 502.35 270.66 503.22 285.95 503.26 300.09
  Q 503.44 371.76 503.21 443.75
  Q 503.16 460.96 502.23 476.50
  Q 502.11 478.36 501.82 479.55
  Z"
/>
<path fill="#213a27" d="
  M 466.64 276.90
  A 0.32 0.32 0.0 0 1 466.32 277.23
  L 438.18 277.37
  A 26.98 1.36 -0.3 0 1 411.19 276.16
  L 411.19 274.80
  A 26.98 1.36 -0.3 0 1 438.16 273.29
  L 466.30 273.15
  A 0.32 0.32 0.0 0 1 466.62 273.46
  L 466.64 276.90
  Z"
/>
<rect fill="#213a27" x="-1.75" y="-18.93" transform="translate(580.21,294.47) rotate(24.6)" width="3.50" height="37.86" rx="1.72"/>
<path fill="#213a27" d="
  M 545.84 296.56
  Q 545.85 296.98 546.25 297.25
  Q 552.37 301.33 558.45 306.23
  A 1.39 1.38 35.6 0 1 558.76 308.05
  L 558.73 308.09
  A 1.25 1.24 -58.0 0 1 557.02 308.49
  Q 548.92 303.44 541.64 298.11
  Q 540.83 297.51 540.81 296.65
  Q 540.80 295.78 541.59 295.15
  Q 548.67 289.57 556.59 284.23
  A 1.25 1.24 56.0 0 1 558.31 284.57
  L 558.34 284.61
  A 1.39 1.38 -37.7 0 1 558.10 286.44
  Q 552.19 291.55 546.22 295.85
  Q 545.83 296.13 545.84 296.56
  Z"
/>
<path fill="#213a27" d="
  M 612.13 297.19
  A 0.44 0.44 0.0 0 0 612.14 296.50
  L 600.63 287.24
  A 1.73 1.72 -51.2 0 1 600.37 284.81
  L 600.70 284.40
  A 1.12 1.12 0.0 0 1 602.27 284.23
  L 616.45 295.64
  A 1.73 1.72 -43.2 0 1 616.36 298.39
  L 602.16 308.43
  A 1.16 1.16 0.0 0 1 600.36 307.73
  L 600.36 307.68
  A 2.75 2.73 -18.5 0 1 601.41 305.59
  L 612.13 297.19
  Z"
/>
<path fill="#213a27" d="
  M 411.39 304.07
  A 0.49 0.49 0.0 0 1 411.87 303.58
  L 434.05 303.50
  A 40.57 1.57 -0.2 0 1 474.63 304.93
  L 474.63 305.15
  A 40.57 1.57 -0.2 0 1 434.07 306.86
  L 411.89 306.94
  A 0.49 0.49 0.0 0 1 411.39 306.45
  L 411.39 304.07
  Z"
/>
<path fill="#213a27" d="
  M 411.13 326.47
  A 0.26 0.26 0.0 0 1 411.39 326.22
  L 419.88 326.26
  A 54.33 1.71 0.3 0 1 474.20 328.26
  L 474.20 328.40
  A 54.33 1.71 0.3 0 1 419.86 329.82
  L 411.37 329.78
  A 0.26 0.26 0.0 0 1 411.11 329.51
  L 411.13 326.47
  Z"
/>
<path fill="#213a27" d="
  M 602.00 336.67
  Q 633.05 336.60 640.25 336.77
  Q 655.26 337.15 662.20 337.73
  A 1.05 1.04 -63.6 0 1 662.81 339.55
  Q 661.97 340.31 660.50 340.32
  Q 621.91 340.67 602.01 340.72
  Q 582.10 340.76 543.51 340.60
  Q 542.04 340.59 541.20 339.84
  A 1.05 1.04 63.4 0 1 541.80 338.01
  Q 548.74 337.40 563.74 336.95
  Q 570.94 336.74 602.00 336.67
  Z"
/>
<path fill="#213a27" d="
  M 411.21 349.83
  A 0.23 0.23 0.0 0 1 411.44 349.60
  L 425.68 349.50
  A 48.55 1.56 -0.4 0 1 474.24 350.72
  L 474.24 351.12
  A 48.55 1.56 -0.4 0 1 425.70 353.02
  L 411.46 353.12
  A 0.23 0.23 0.0 0 1 411.23 352.89
  L 411.21 349.83
  Z"
/>
<path fill="#213a27" d="
  M 579.84 365.23
  A 1.73 1.72 7.7 0 1 581.45 364.01
  Q 595.64 363.76 606.32 363.38
  C 627.65 362.60 657.19 362.84 669.76 363.17
  Q 691.35 363.74 719.00 363.58
  Q 727.76 363.53 735.96 364.04
  A 1.51 1.47 20.3 0 1 737.09 366.41
  Q 736.79 366.80 735.50 366.78
  Q 705.16 366.42 621.75 367.06
  Q 601.85 367.21 580.72 366.51
  A 0.96 0.95 9.3 0 1 579.83 365.28
  L 579.84 365.23
  Z"
/>
<rect fill="#213a27" x="541.30" y="363.91" width="24.46" height="2.62" rx="1.28"/>
<rect fill="#213a27" x="-19.59" y="-1.68" transform="translate(430.67,374.29) rotate(-0.3)" width="39.18" height="3.36" rx="1.65"/>
<path fill="#213a27" d="
  M 703.89 392.75
  Q 703.29 393.03 702.50 393.03
  C 692.40 393.08 680.73 392.99 671.50 393.24
  Q 642.29 394.01 623.03 393.41
  Q 618.68 393.28 617.25 392.72
  A 0.75 0.75 0.0 0 1 617.34 391.30
  Q 619.13 390.83 620.03 390.81
  Q 664.27 389.68 691.25 390.42
  Q 699.35 390.64 703.45 391.55
  Q 703.92 391.66 704.09 391.87
  A 0.58 0.57 58.4 0 1 703.89 392.75
  Z"
/>
<path fill="#213a27" d="
  M 541.19 391.27
  A 0.45 0.45 0.0 0 1 541.64 390.82
  L 559.69 390.66
  A 39.52 1.25 -0.5 0 1 599.22 391.57
  L 599.22 391.91
  A 39.52 1.25 -0.5 0 1 559.71 393.50
  L 541.66 393.66
  A 0.45 0.45 0.0 0 1 541.21 393.21
  L 541.19 391.27
  Z"
/>
<path fill="#213a27" d="
  M 541.17 418.43
  L 541.17 418.37
  A 1.26 1.26 0.0 0 1 542.39 416.96
  Q 580.57 416.07 596.25 416.21
  Q 659.03 416.76 718.00 416.88
  Q 732.43 416.91 751.21 417.86
  A 0.55 0.55 0.0 0 1 751.74 418.41
  L 751.74 418.43
  A 0.54 0.53 -89.5 0 1 751.20 418.97
  C 736.98 418.71 720.96 419.38 708.28 419.45
  Q 651.12 419.77 640.50 419.78
  Q 597.11 419.81 578.25 420.07
  Q 561.73 420.29 542.69 419.82
  A 1.57 1.56 87.3 0 1 541.17 418.43
  Z"
/>
<path fill="#213a27" d="
  M 588.63 443.01
  Q 615.83 442.94 631.76 443.78
  Q 633.51 443.87 635.38 444.34
  A 1.11 1.09 28.8 0 1 635.93 446.16
  Q 635.36 446.74 634.24 446.77
  Q 610.24 447.29 588.64 447.35
  Q 567.05 447.41 543.05 447.02
  Q 541.93 447.00 541.35 446.42
  A 1.11 1.09 -29.1 0 1 541.89 444.60
  Q 543.76 444.12 545.51 444.01
  Q 561.43 443.09 588.63 443.01
  Z"
/>
<path fill="#213a27" d="
  M 650.77 446.39
  A 0.11 0.11 0.0 0 1 650.66 446.28
  L 650.66 446.26
  A 5.08 2.37 0.2 0 1 655.74 443.91
  L 673.26 443.97
  A 5.08 2.37 0.2 0 1 678.34 446.36
  L 678.34 446.38
  A 0.11 0.11 0.0 0 1 678.23 446.49
  L 650.77 446.39
  Z"
/>
<path fill="#213a27" d="
  M 391.73 527.86
  A 0.27 0.26 18.6 0 1 391.52 527.44
  L 392.13 526.62
  A 0.08 0.07 14.9 0 1 392.19 526.59
  Q 397.09 526.00 399.25 525.94
  Q 431.46 525.05 437.75 525.18
  Q 480.45 526.03 506.75 525.60
  Q 527.43 525.27 534.25 525.37
  Q 561.44 525.77 569.75 525.70
  Q 626.00 525.19 637.25 525.13
  Q 682.95 524.89 759.79 525.46
  Q 759.85 525.46 785.73 525.32
  Q 802.87 525.22 811.67 525.13
  C 813.86 525.11 816.92 525.54 819.00 525.53
  Q 829.57 525.45 839.49 526.04
  Q 841.73 526.18 843.45 527.09
  A 0.30 0.30 0.0 0 1 843.32 527.66
  C 825.37 528.10 809.05 528.37 792.57 528.32
  Q 713.69 528.09 643.93 528.15
  Q 619.28 528.17 594.57 527.76
  Q 574.45 527.43 544.25 527.96
  C 522.68 528.34 481.07 528.15 445.72 528.38
  Q 418.73 528.56 391.73 527.86
  Z"
/>
<path fill="#213a27" d="
  M 846.19 528.45
  L 846.21 528.44
  A 0.86 0.86 0.0 0 1 847.22 528.32
  Q 851.55 530.74 855.05 534.49
  A 6.15 5.97 86.5 0 0 855.83 535.20
  C 861.04 539.19 863.19 541.16 868.22 544.76
  C 870.52 546.40 874.37 549.12 873.95 551.17
  A 2.25 2.14 5.2 0 1 871.79 552.88
  C 862.38 552.98 853.02 553.45 844.40 553.45
  Q 771.19 553.45 692.67 552.74
  C 679.28 552.62 664.12 553.16 654.00 552.84
  Q 629.72 552.07 582.58 552.59
  Q 561.19 552.82 547.43 552.55
  Q 531.56 552.24 512.26 552.45
  Q 420.73 553.43 389.52 553.56
  C 381.45 553.59 372.78 553.01 365.47 552.87
  A 2.15 2.15 0.0 0 1 363.45 550.11
  Q 363.47 550.08 364.14 549.39
  Q 369.56 543.89 382.34 532.86
  Q 386.53 529.24 389.06 527.70
  A 0.53 0.53 0.0 0 1 389.81 528.38
  Q 389.12 529.83 387.86 531.11
  Q 379.87 539.25 368.61 549.21
  A 0.69 0.69 0.0 0 0 369.09 550.41
  Q 406.91 549.12 448.25 550.32
  Q 456.75 550.57 496.25 550.27
  C 529.60 550.02 557.32 549.88 597.58 550.08
  Q 625.18 550.22 661.76 549.42
  Q 670.11 549.24 705.75 549.62
  Q 754.25 550.13 834.91 549.92
  C 847.26 549.89 857.72 550.30 869.28 550.27
  A 0.57 0.57 0.0 0 0 869.66 549.27
  L 846.22 529.28
  A 0.56 0.56 0.0 0 1 846.19 528.45
  Z"
/>
<path fill="#213a27" d="
  M 670.77 559.75
  A 0.40 0.40 0.0 0 1 671.45 559.35
  Q 676.59 564.79 680.91 572.05
  A 1.38 1.37 58.8 0 1 680.45 573.93
  Q 678.89 574.89 676.64 574.91
  Q 626.44 575.30 544.01 574.83
  Q 542.31 574.82 541.21 574.07
  A 2.07 2.06 -58.5 0 1 540.57 571.38
  Q 543.65 565.67 546.46 561.94
  Q 547.86 560.08 549.39 559.03
  A 0.52 0.52 0.0 0 1 550.15 559.69
  L 544.55 570.97
  A 0.60 0.59 -77.7 0 0 545.10 571.83
  Q 585.88 570.76 631.31 570.85
  C 648.08 570.89 660.95 571.55 676.03 571.74
  A 0.88 0.88 0.0 0 0 676.71 570.30
  Q 672.62 565.47 670.77 559.75
  Z"
/>
<path fill="#213a27" d="
  M 824.59 739.04
  A 0.46 0.45 -87.7 0 1 825.17 739.67
  Q 821.18 747.25 812.45 748.59
  Q 803.05 750.03 800.55 741.26
  A 0.71 0.71 0.0 0 0 799.39 740.93
  Q 794.27 745.69 792.85 746.84
  C 783.56 754.34 778.15 745.65 778.74 737.08
  A 0.53 0.53 0.0 0 0 777.76 736.75
  C 774.50 741.76 769.58 748.73 763.50 750.39
  C 757.84 751.93 755.26 746.47 755.96 741.73
  Q 757.74 729.63 767.73 721.74
  Q 773.10 717.49 778.80 721.10
  A 0.43 0.43 0.0 0 0 779.46 720.80
  Q 782.01 704.21 788.21 686.78
  A 2.12 2.11 -67.0 0 1 791.14 685.59
  L 791.23 685.63
  A 2.94 2.94 0.0 0 1 792.79 688.91
  C 789.69 702.68 784.98 717.27 783.70 730.99
  C 783.35 734.68 783.22 740.97 785.33 744.09
  A 2.41 2.40 68.0 0 0 787.72 745.11
  C 790.79 744.57 792.93 743.66 795.15 741.13
  C 797.74 738.18 800.52 736.35 799.63 732.23
  A 1.09 1.08 61.7 0 1 799.93 731.22
  Q 801.17 729.97 803.01 726.33
  C 805.03 722.32 808.18 718.34 811.98 716.49
  C 815.81 714.63 820.55 715.12 821.84 719.71
  Q 822.75 722.94 821.59 725.30
  Q 817.25 734.12 806.43 734.35
  A 0.92 0.92 0.0 0 0 805.55 735.11
  C 804.99 738.10 805.73 741.69 808.72 743.25
  C 813.11 745.56 820.79 740.66 824.59 739.04
  Z
  M 807.30 728.77
  A 0.67 0.66 -80.1 0 0 807.95 729.70
  Q 814.17 729.31 817.14 724.34
  Q 818.11 722.70 817.50 721.23
  A 1.72 1.70 -18.6 0 0 815.48 720.24
  C 811.48 721.29 808.88 725.17 807.30 728.77
  Z
  M 761.31 744.65
  A 1.25 1.25 0.0 0 0 763.05 745.44
  C 769.91 742.19 774.79 733.47 777.22 726.59
  A 1.17 1.16 -59.1 0 0 776.91 725.34
  Q 773.39 722.15 769.80 725.45
  C 765.63 729.27 759.53 738.39 761.31 744.65
  Z"
/>
<path fill="#213a27" d="
  M 618.24 741.53
  A 0.31 0.31 0.0 0 0 618.81 741.72
  Q 621.73 737.21 626.84 732.53
  C 631.77 728.02 637.54 729.33 637.41 736.75
  C 637.30 743.16 636.80 747.35 638.54 751.74
  A 2.14 2.12 67.2 0 0 641.39 752.91
  Q 647.33 750.25 651.44 745.58
  A 5.31 5.25 78.4 0 0 652.26 744.32
  C 655.50 737.27 660.60 727.26 668.29 724.79
  A 4.11 4.09 55.3 0 1 672.12 725.50
  L 677.23 729.61
  A 2.50 2.50 0.0 0 1 678.05 732.28
  C 676.45 737.61 675.11 742.96 677.88 748.11
  A 2.83 2.81 68.3 0 0 681.08 749.50
  C 685.39 748.34 690.05 742.23 691.97 738.57
  A 7.25 7.20 61.9 0 0 692.77 735.91
  Q 694.74 715.43 701.27 697.25
  C 701.97 695.29 703.70 690.52 706.15 690.77
  A 2.86 2.67 89.1 0 1 708.55 693.26
  Q 708.78 695.19 708.40 697.71
  Q 706.52 710.05 701.34 722.72
  Q 698.38 729.99 697.96 732.68
  C 697.18 737.68 696.81 743.97 699.38 748.17
  C 702.86 753.85 715.13 744.39 717.69 741.79
  A 0.63 0.62 45.9 0 1 718.60 741.81
  L 718.62 741.83
  A 0.72 0.72 0.0 0 1 718.63 742.78
  Q 713.09 749.24 712.18 750.17
  C 708.72 753.71 703.07 756.37 698.25 754.28
  C 694.23 752.54 692.55 747.60 692.71 743.52
  A 0.45 0.45 0.0 0 0 691.91 743.21
  Q 689.75 745.78 685.18 751.39
  C 681.38 756.04 674.95 755.08 672.71 749.53
  Q 672.14 748.13 671.36 746.15
  A 0.57 0.57 0.0 0 0 670.33 746.08
  Q 667.32 751.34 662.26 754.79
  C 657.45 758.08 651.59 755.69 651.79 749.54
  A 0.55 0.55 0.0 0 0 650.82 749.16
  Q 647.45 753.03 645.03 755.25
  C 641.82 758.20 636.76 759.00 634.16 754.78
  C 631.62 750.65 632.43 745.12 632.22 737.51
  Q 632.19 736.43 631.82 735.64
  A 0.88 0.88 0.0 0 0 630.58 735.26
  Q 628.04 736.78 626.25 739.26
  Q 620.08 747.83 615.36 757.59
  Q 614.11 760.17 611.26 759.15
  A 1.08 1.06 1.3 0 1 610.60 758.47
  Q 610.07 756.83 610.39 754.99
  Q 612.85 740.45 615.12 730.26
  A 1.77 1.77 0.0 0 1 617.49 728.99
  L 617.83 729.13
  A 2.12 2.10 -76.7 0 1 619.14 731.27
  L 618.24 741.53
  Z
  M 670.4017 729.4072
  A 12.31 3.95 -59.1 0 0 660.6906 737.9415
  A 12.31 3.95 -59.1 0 0 657.7583 750.5328
  A 12.31 3.95 -59.1 0 0 667.4694 741.9985
  A 12.31 3.95 -59.1 0 0 670.4017 729.4072
  Z"
/>
<ellipse fill="#213a27" cx="0.00" cy="0.00" transform="translate(872.87,695.88) rotate(-80.6)" rx="4.05" ry="3.29"/>
<path fill="#213a27" d="
  M 326.99 780.62
  A 0.83 0.83 0.0 0 0 328.04 781.49
  L 348.65 775.78
  A 2.40 2.39 -16.0 0 1 351.58 777.40
  L 351.59 777.44
  A 2.27 2.27 0.0 0 1 350.05 780.21
  L 308.59 792.48
  A 4.32 4.31 -33.8 0 1 304.66 791.70
  L 304.42 791.51
  A 1.44 1.44 0.0 0 1 304.71 789.09
  Q 310.79 786.23 320.50 783.71
  A 1.66 1.65 -3.3 0 0 321.71 782.36
  C 322.59 776.29 322.25 769.32 322.89 762.27
  Q 325.32 735.22 328.09 710.61
  A 0.78 0.78 0.0 0 0 327.12 709.77
  L 304.88 715.71
  A 1.32 1.32 0.0 0 1 303.22 714.32
  L 303.25 713.91
  A 2.10 2.10 0.0 0 1 304.49 712.18
  Q 309.60 709.94 320.68 706.91
  Q 334.06 703.26 347.62 700.85
  Q 351.44 700.18 354.55 700.36
  A 1.61 1.56 7.6 0 1 356.04 702.25
  Q 355.79 703.45 354.47 703.68
  Q 340.78 706.11 333.83 708.22
  A 0.86 0.85 -6.2 0 0 333.23 708.96
  L 326.99 780.62
  Z"
/>
<path fill="#213a27" d="
  M 553.85 752.18
  A 0.54 0.54 0.0 0 1 554.46 752.84
  Q 553.91 755.09 552.62 756.62
  C 548.63 761.34 542.83 766.51 536.85 765.85
  C 530.63 765.15 529.12 758.96 528.75 753.07
  A 0.51 0.50 65.0 0 0 527.88 752.75
  C 524.17 756.65 517.98 764.94 512.08 766.32
  C 500.33 769.07 502.48 750.72 502.15 744.71
  A 1.30 1.29 82.7 0 0 500.60 743.50
  Q 500.55 743.51 499.86 744.13
  C 493.43 749.85 489.04 758.41 485.24 766.64
  Q 484.10 769.13 481.61 768.30
  A 2.52 2.50 13.4 0 1 479.92 765.58
  Q 482.14 750.04 484.16 739.95
  Q 484.56 737.93 486.11 737.48
  A 2.01 1.89 81.1 0 1 488.53 739.36
  Q 488.79 745.09 487.25 750.49
  A 0.56 0.56 0.0 0 0 488.27 750.93
  Q 493.04 743.12 500.04 738.37
  Q 501.18 737.61 503.30 737.84
  A 2.25 2.21 63.1 0 1 504.25 738.16
  Q 507.12 739.91 507.35 744.19
  C 507.61 749.00 507.24 753.94 508.22 758.70
  C 510.23 768.39 525.35 751.35 527.63 748.70
  A 4.94 4.88 -20.9 0 0 528.78 746.17
  L 530.70 732.90
  A 0.87 0.87 0.0 0 0 529.64 731.93
  C 527.13 732.50 525.08 733.33 523.58 732.21
  A 1.67 1.58 33.7 0 1 523.10 730.11
  C 524.27 728.08 528.61 727.20 531.07 726.56
  A 1.88 1.87 -89.4 0 0 532.41 725.24
  L 538.01 704.58
  A 3.09 3.09 0.0 0 1 541.09 702.30
  L 541.21 702.30
  A 1.99 1.99 0.0 0 1 543.12 704.77
  L 538.35 723.63
  A 0.80 0.80 0.0 0 0 539.33 724.60
  Q 545.44 723.03 550.38 722.91
  A 1.90 1.82 10.6 0 1 552.21 725.46
  Q 551.65 726.75 550.23 727.05
  Q 545.24 728.11 538.11 730.06
  A 1.64 1.63 -0.3 0 0 536.96 731.22
  Q 533.84 743.40 534.35 754.45
  Q 534.48 757.13 535.68 758.95
  A 3.69 3.56 66.5 0 0 539.51 760.54
  C 544.47 759.37 548.13 756.49 552.88 752.61
  Q 553.31 752.26 553.85 752.18
  Z"
/>
<ellipse fill="#213a27" cx="0.00" cy="0.00" transform="translate(570.57,710.74) rotate(-76.6)" rx="4.46" ry="3.66"/>
<path fill="#213a27" d="
  M 928.28 727.61
  Q 928.33 727.57 930.53 724.78
  Q 936.20 717.61 941.16 714.75
  Q 945.14 712.46 947.83 716.08
  C 949.54 718.38 949.20 724.71 949.43 729.86
  Q 949.53 731.98 950.60 733.56
  A 2.96 2.95 64.1 0 0 953.94 734.72
  Q 957.92 733.45 962.18 730.23
  A 0.75 0.75 0.0 0 1 963.38 730.84
  Q 963.38 731.14 962.93 731.97
  Q 960.65 736.18 955.40 738.66
  C 949.90 741.25 944.96 737.36 944.37 731.66
  Q 943.95 727.66 943.78 720.36
  A 1.05 1.04 -14.5 0 0 942.25 719.46
  C 938.79 721.28 934.98 725.94 932.34 729.59
  Q 929.22 733.90 925.10 740.14
  C 923.42 742.68 919.06 741.92 919.72 738.18
  Q 921.29 729.26 923.27 723.01
  A 0.52 0.52 0.0 0 0 922.45 722.45
  L 915.28 728.23
  A 0.35 0.35 0.0 0 0 915.21 728.30
  L 905.19 740.26
  A 7.12 7.08 69.6 0 0 903.64 743.67
  Q 901.88 754.75 899.85 766.11
  C 898.79 772.07 896.11 779.88 890.12 782.10
  Q 886.81 783.33 883.73 780.87
  C 873.56 772.78 892.34 750.57 897.58 744.08
  C 900.03 741.05 899.19 736.95 899.83 733.08
  A 0.69 0.69 0.0 0 0 898.61 732.54
  C 895.90 735.92 890.57 740.98 886.16 740.69
  C 880.31 740.31 879.23 735.05 880.73 730.06
  Q 883.59 720.61 891.11 714.46
  C 893.89 712.17 898.61 709.95 901.86 712.64
  Q 905.42 715.61 906.10 715.97
  A 2.34 2.34 0.0 0 1 907.22 718.38
  L 904.43 735.09
  A 0.49 0.49 0.0 0 0 904.97 735.65
  Q 904.98 735.65 905.25 735.55
  Q 905.47 735.48 905.63 735.28
  Q 910.05 729.69 915.05 726.44
  A 5.98 5.94 5.0 0 0 916.14 725.53
  Q 918.91 722.60 922.96 718.97
  Q 924.07 717.98 925.05 713.41
  A 2.44 2.43 10.5 0 1 927.81 711.52
  L 927.85 711.52
  A 2.56 2.55 9.5 0 1 929.98 714.50
  L 927.65 727.26
  A 0.38 0.38 0.0 0 0 928.28 727.61
  Z
  M 899.9500 715.7506
  A 12.03 4.47 -54.3 0 0 889.3000 722.9116
  A 12.03 4.47 -54.3 0 0 885.9100 735.2894
  A 12.03 4.47 -54.3 0 0 896.5600 728.1284
  A 12.03 4.47 -54.3 0 0 899.9500 715.7506
  Z
  M 897.58 749.50
  A 0.38 0.38 0.0 0 0 896.98 749.54
  Q 892.32 756.53 889.17 761.91
  C 886.89 765.78 884.17 770.87 885.78 775.17
  Q 886.59 777.35 888.17 777.30
  C 892.29 777.17 895.01 765.49 895.65 761.87
  Q 896.72 755.77 897.87 750.78
  Q 898.05 750.01 897.58 749.50
  Z"
/>
<path fill="#213a27" d="
  M 851.08 716.91
  A 1.20 1.20 0.0 0 0 849.77 715.96
  Q 843.81 716.64 840.96 721.98
  C 838.95 725.76 841.81 728.16 844.52 730.23
  C 849.09 733.71 854.97 739.92 848.74 744.67
  Q 843.13 748.95 833.47 746.18
  A 3.70 3.70 0.0 0 1 830.80 743.02
  L 830.79 742.97
  A 1.83 1.83 0.0 0 1 832.94 740.97
  C 836.90 741.68 841.23 743.67 845.42 740.77
  A 1.50 1.50 0.0 0 0 845.79 738.65
  C 840.45 731.22 831.40 729.47 836.30 720.46
  Q 839.13 715.23 845.12 712.65
  C 849.56 710.73 855.41 710.89 855.69 716.97
  Q 855.84 720.00 853.12 720.83
  A 1.12 1.11 -14.2 0 1 851.70 719.99
  L 851.08 716.91
  Z"
/>
<path fill="#213a27" d="
  M 473.23 760.24
  A 0.35 0.35 0.0 0 1 473.75 760.68
  C 470.98 766.45 464.20 771.77 457.77 772.03
  C 450.51 772.33 445.43 767.38 445.37 759.98
  A 0.65 0.65 0.0 0 0 444.24 759.54
  Q 442.10 761.84 439.87 762.87
  A 3.07 3.04 3.5 0 0 438.57 764.01
  C 434.78 770.01 421.42 781.04 415.06 771.40
  Q 411.33 765.74 412.51 758.81
  A 0.44 0.44 0.0 0 0 411.70 758.52
  Q 409.95 761.41 407.55 762.79
  Q 405.98 763.69 405.12 765.31
  C 403.13 769.05 398.80 773.85 394.62 775.28
  C 386.27 778.13 383.76 770.21 383.69 763.76
  Q 383.62 757.61 383.14 753.56
  A 1.08 1.07 69.7 0 0 381.48 752.79
  Q 378.14 755.04 375.78 758.27
  Q 369.17 767.34 365.91 775.33
  C 363.89 780.27 359.07 778.89 359.98 773.76
  Q 361.93 762.71 363.73 748.67
  A 2.35 2.35 0.0 0 1 366.19 746.62
  L 366.24 746.63
  A 2.09 2.09 0.0 0 1 368.23 748.95
  L 366.80 761.82
  A 0.38 0.38 0.0 0 0 367.51 762.05
  Q 371.69 754.81 378.60 748.59
  C 382.66 744.92 387.20 746.23 388.44 751.63
  C 389.52 756.35 388.03 763.58 390.45 769.98
  A 1.29 1.28 -0.4 0 0 391.22 770.73
  C 393.64 771.60 396.45 769.86 398.23 768.46
  Q 398.40 768.32 405.56 762.81
  C 407.06 761.66 407.86 759.17 409.23 757.79
  Q 411.18 755.84 411.87 754.70
  A 6.33 5.95 -28.7 0 0 412.44 752.95
  L 414.25 742.39
  A 1.02 1.02 0.0 0 0 412.95 741.24
  Q 410.13 742.07 408.99 742.27
  A 2.02 1.87 -4.5 0 1 406.61 740.39
  C 406.70 738.00 411.99 736.73 414.64 735.93
  A 1.29 1.28 88.8 0 0 415.51 735.02
  L 420.86 714.07
  A 2.52 2.51 -78.3 0 1 423.69 712.21
  L 423.81 712.23
  A 2.13 2.13 0.0 0 1 425.64 714.83
  L 421.38 733.22
  A 0.56 0.56 0.0 0 0 422.07 733.89
  C 425.92 732.87 430.96 731.20 434.49 731.93
  A 1.84 1.74 12.7 0 1 435.93 734.06
  Q 435.59 735.46 434.01 735.82
  Q 427.87 737.21 421.07 739.33
  A 1.25 1.23 -3.0 0 0 420.23 740.25
  C 419.22 744.77 413.27 773.09 424.00 770.06
  C 428.05 768.92 431.80 766.29 435.39 763.64
  C 437.51 762.08 440.75 762.77 442.37 760.08
  Q 442.65 759.62 444.42 758.82
  C 446.29 757.97 445.40 755.68 445.16 753.68
  A 1.16 1.13 -26.0 0 1 445.50 752.72
  Q 446.52 751.71 449.81 745.82
  Q 452.98 740.15 457.80 738.12
  C 465.27 734.97 470.79 741.94 466.79 748.68
  Q 462.14 756.52 452.10 756.48
  A 0.98 0.97 -85.1 0 0 451.14 757.29
  Q 450.70 759.82 451.41 762.62
  C 452.96 768.80 460.88 767.13 465.03 764.85
  Q 472.68 760.63 473.23 760.24
  Z
  M 452.35 751.18
  A 0.71 0.71 0.0 0 0 453.07 752.16
  Q 459.72 751.60 462.79 746.20
  Q 463.79 744.42 463.10 742.86
  A 1.84 1.82 -19.9 0 0 460.91 741.85
  C 456.65 743.07 453.96 747.28 452.35 751.18
  Z"
/>
<path fill="#213a27" d="
  M 869.10 730.04
  Q 868.08 735.62 867.58 741.28
  C 867.39 743.43 866.43 745.43 864.14 744.80
  A 2.67 2.57 -81.9 0 1 862.25 742.17
  Q 862.36 738.14 864.02 729.11
  Q 865.68 720.07 867.00 716.27
  A 2.67 2.57 -77.4 0 1 869.70 714.48
  C 872.06 714.70 872.25 716.91 871.67 718.99
  Q 870.13 724.46 869.10 730.04
  Z"
/>
<path fill="#213a27" d="
  M 581.80 741.01
  C 583.25 738.27 588.73 729.22 592.26 729.62
  C 609.52 731.57 602.31 750.54 594.36 757.68
  C 590.08 761.51 584.10 763.59 580.53 758.10
  C 577.66 753.67 579.67 745.05 581.80 741.01
  Z
  M 596.85 736.48
  A 1.04 1.03 75.6 0 0 595.82 735.87
  C 592.18 736.18 590.45 735.47 588.66 738.39
  C 585.94 742.82 583.03 750.72 585.25 755.46
  A 2.04 2.03 -26.3 0 0 588.05 756.40
  C 594.26 753.15 599.87 743.26 596.85 736.48
  Z"
/>
<circle fill="#213a27" cx="977.02" cy="734.28" r="3.83"/>
<path fill="#213a27" d="
  M 567.82 731.28
  A 2.52 2.52 0.0 0 1 569.71 734.23
  Q 567.40 745.74 566.68 754.32
  C 566.51 756.34 566.87 759.01 566.87 760.57
  A 1.53 1.49 -26.2 0 1 566.53 761.52
  C 565.24 763.11 562.42 763.39 561.49 761.16
  Q 560.93 759.82 560.99 758.50
  Q 561.51 745.96 564.75 733.07
  A 2.48 2.47 -76.2 0 1 567.72 731.26
  L 567.82 731.28
  Z"
/>
<path fill="#213a27" d="
  M 780.71 857.18
  L 779.39 859.23
  A 1.84 1.78 -2.9 0 1 778.97 859.68
  L 771.78 865.17
  A 0.29 0.24 4.7 0 1 771.71 865.22
  C 765.35 868.54 762.30 862.50 761.72 857.27
  A 0.58 0.58 0.0 0 0 760.66 857.01
  C 758.21 860.64 750.64 869.98 745.43 867.19
  C 738.10 863.27 744.00 846.40 746.51 839.97
  A 2.51 2.50 -74.6 0 1 749.25 838.41
  L 749.34 838.43
  A 1.86 1.86 0.0 0 1 750.82 840.79
  C 748.73 847.90 745.97 856.13 747.65 861.66
  A 1.16 1.16 0.0 0 0 749.37 862.31
  C 754.67 859.09 759.47 851.85 761.47 846.95
  C 762.92 843.40 764.53 836.87 768.11 838.44
  A 2.31 2.24 19.6 0 1 769.43 841.11
  Q 767.46 848.41 766.79 854.00
  Q 766.35 857.66 767.76 860.36
  A 2.45 2.44 75.0 0 0 770.04 861.68
  Q 773.33 861.56 775.35 859.31
  Q 778.79 855.51 781.27 852.45
  A 6.13 6.13 0.0 0 0 782.45 850.09
  L 785.63 837.65
  A 2.60 2.59 -75.7 0 1 788.78 835.77
  L 789.17 835.87
  A 1.66 1.65 14.0 0 1 790.37 837.86
  C 789.11 843.06 785.24 854.98 788.33 859.29
  A 2.09 2.08 58.8 0 0 790.96 859.94
  Q 798.91 855.92 804.49 849.18
  Q 806.98 846.16 807.26 844.07
  Q 810.29 821.13 816.03 807.27
  Q 817.54 803.63 819.37 801.66
  C 821.48 799.39 824.09 801.01 824.61 803.62
  Q 825.23 806.69 823.72 812.53
  Q 819.62 828.40 812.77 841.07
  A 5.88 5.80 -28.1 0 0 812.09 843.26
  C 811.46 849.12 810.61 862.75 820.72 857.98
  Q 826.52 855.24 832.12 849.63
  Q 834.13 847.61 835.98 843.70
  C 838.96 837.39 846.17 827.39 854.45 831.78
  A 0.47 0.46 -72.0 0 0 855.13 831.43
  Q 856.82 818.98 860.39 807.40
  C 861.05 805.24 863.27 796.64 866.71 797.99
  Q 868.50 798.69 868.83 800.89
  A 2.23 2.02 49.3 0 1 868.81 801.71
  Q 865.18 818.31 863.82 822.33
  Q 861.14 830.22 860.00 837.74
  C 859.29 842.43 858.93 846.46 860.36 850.87
  C 861.18 853.40 863.11 855.48 865.80 854.64
  C 869.84 853.38 873.58 850.76 876.53 847.55
  Q 877.02 847.02 877.49 847.06
  A 0.60 0.59 -73.9 0 1 877.96 847.93
  C 875.51 852.74 869.64 859.22 863.85 859.13
  C 858.36 859.03 855.07 853.18 854.81 848.28
  A 0.52 0.52 0.0 0 0 853.82 848.07
  C 851.39 852.82 844.62 862.08 838.56 861.01
  Q 832.81 860.01 833.71 853.60
  A 0.56 0.56 0.0 0 0 832.77 853.12
  C 828.63 857.14 821.97 863.23 816.61 863.56
  C 809.48 864.00 807.44 856.99 807.63 851.12
  A 0.53 0.53 0.0 0 0 806.69 850.76
  Q 804.15 853.82 801.43 856.66
  C 797.77 860.49 795.14 863.60 790.88 864.64
  C 785.26 866.01 782.99 861.79 781.57 857.30
  A 0.48 0.48 0.0 0 0 780.71 857.18
  Z
  M 820.8110 807.3538
  A 12.23 1.04 -74.0 0 0 816.4403 818.8233
  A 12.23 1.04 -74.0 0 0 814.0690 830.8662
  A 12.23 1.04 -74.0 0 0 818.4397 819.3967
  A 12.23 1.04 -74.0 0 0 820.8110 807.3538
  Z
  M 851.6997 834.8541
  A 12.16 4.37 -58.3 0 0 841.5920 842.9037
  A 12.16 4.37 -58.3 0 0 838.9203 855.5459
  A 12.16 4.37 -58.3 0 0 849.0280 847.4963
  A 12.16 4.37 -58.3 0 0 851.6997 834.8541
  Z"
/>
<path fill="#213a27" d="
  M 710.13 848.73
  A 0.58 0.57 67.3 0 0 711.17 849.16
  C 714.41 844.31 720.93 837.91 727.09 840.16
  C 733.18 842.39 733.23 848.67 732.48 854.21
  Q 732.14 856.70 730.33 859.98
  C 727.36 865.37 717.96 875.01 710.99 871.36
  A 3.34 3.34 0.0 0 1 709.31 867.56
  L 709.37 867.34
  A 1.92 1.91 22.3 0 1 712.18 866.17
  Q 714.69 867.61 716.83 866.53
  Q 726.18 861.87 727.61 851.04
  C 728.01 848.05 726.91 842.46 722.41 844.52
  C 714.08 848.33 709.91 859.41 708.09 868.08
  A 2.26 2.26 0.0 0 1 705.21 869.77
  L 705.13 869.74
  A 2.91 2.91 0.0 0 1 703.08 866.69
  Q 705.78 837.97 712.40 808.53
  A 3.32 3.32 0.0 0 1 715.54 805.93
  L 715.67 805.93
  A 2.00 2.00 0.0 0 1 717.68 808.30
  L 710.13 848.73
  Z"
/>
<path fill="#213a27" d="
  M 588.80 860.97
  A 0.39 0.38 60.6 0 0 588.13 860.78
  C 586.21 863.01 581.22 867.75 578.21 867.90
  A 0.62 0.62 0.0 0 1 577.74 866.84
  L 587.86 856.72
  A 4.28 4.25 70.9 0 0 589.08 854.19
  Q 591.17 835.85 597.56 818.91
  Q 597.65 818.67 599.41 815.96
  Q 600.38 814.44 601.50 814.12
  C 608.21 812.17 605.71 823.63 605.02 826.77
  Q 602.00 840.53 595.15 852.20
  A 5.64 5.54 -26.5 0 0 594.45 854.23
  C 593.79 859.15 592.90 871.25 597.32 874.14
  C 599.26 875.40 602.34 873.99 604.24 872.98
  C 609.57 870.14 613.90 867.73 617.44 863.33
  A 1.64 1.64 0.0 0 0 617.81 862.32
  Q 617.82 861.36 617.23 860.24
  A 1.24 1.23 -36.5 0 1 617.45 858.81
  L 619.22 857.04
  A 3.62 3.60 -10.4 0 0 619.95 855.99
  Q 623.35 848.64 628.47 845.01
  C 633.95 841.12 640.80 844.19 640.00 851.33
  C 639.25 858.10 631.01 862.34 624.79 862.23
  A 1.23 1.23 0.0 0 0 623.54 863.43
  C 623.40 869.45 626.89 873.61 633.38 871.87
  C 641.27 869.77 645.93 866.23 652.30 860.33
  A 0.71 0.70 -26.9 0 1 653.47 860.71
  L 653.50 860.85
  A 2.71 2.69 57.2 0 1 653.05 862.95
  Q 648.94 868.74 641.63 873.62
  C 633.31 879.16 620.65 879.42 618.14 867.63
  A 0.90 0.90 0.0 0 0 616.59 867.22
  Q 614.16 869.97 612.02 871.91
  C 607.70 875.81 605.05 878.42 600.04 879.32
  C 593.07 880.57 588.99 874.16 588.96 867.97
  Q 588.93 861.69 588.80 860.97
  Z
  M 602.1623 821.0135
  A 11.21 1.12 -74.2 0 0 598.0323 831.4950
  A 11.21 1.12 -74.2 0 0 596.0577 842.5865
  A 11.21 1.12 -74.2 0 0 600.1877 832.1050
  A 11.21 1.12 -74.2 0 0 602.1623 821.0135
  Z
  M 625.09 857.00
  A 0.66 0.66 0.0 0 0 625.77 857.90
  Q 631.96 857.27 634.72 852.19
  Q 635.62 850.51 634.95 849.07
  A 1.71 1.69 -20.9 0 0 632.90 848.17
  C 628.95 849.38 626.52 853.34 625.09 857.00
  Z"
/>
<ellipse fill="#213a27" cx="0.00" cy="0.00" transform="translate(791.32,818.22) rotate(-72.6)" rx="3.94" ry="3.39"/>
<path fill="#213a27" d="
  M 552.92 859.43
  Q 553.29 859.02 555.29 856.55
  C 559.74 851.06 570.15 847.44 573.62 856.67
  Q 574.75 859.68 574.08 863.27
  Q 573.16 868.17 570.78 872.72
  Q 567.17 879.63 559.70 882.73
  C 556.07 884.23 550.96 884.78 550.29 879.41
  A 0.98 0.96 62.0 0 1 550.51 878.67
  Q 552.25 876.58 554.07 877.51
  Q 556.14 878.57 556.63 878.42
  C 561.28 876.97 563.19 874.99 565.91 871.14
  C 568.47 867.52 570.86 859.93 567.16 856.10
  C 565.47 854.35 562.46 856.19 561.19 857.20
  Q 555.81 861.45 552.57 869.82
  Q 549.99 876.52 550.04 879.00
  A 1.34 1.30 -26.1 0 1 549.71 879.92
  Q 548.29 881.54 547.89 881.71
  A 2.28 2.17 73.4 0 1 544.92 880.00
  Q 544.33 877.09 545.34 873.73
  A 0.59 0.59 0.0 0 0 544.35 873.15
  Q 541.82 875.72 537.62 880.02
  C 531.30 886.47 524.37 883.01 522.79 874.84
  A 0.60 0.60 0.0 0 0 521.70 874.63
  C 518.87 879.04 510.27 889.29 504.38 884.79
  Q 500.91 882.14 501.57 877.52
  A 0.54 0.53 69.0 0 0 500.63 877.10
  Q 495.52 883.21 488.86 887.08
  C 482.05 891.03 476.57 886.42 476.17 879.38
  A 0.59 0.59 0.0 0 0 475.10 879.06
  C 471.49 883.98 465.33 890.27 459.11 891.11
  C 450.37 892.29 448.03 882.25 448.79 875.69
  A 0.50 0.50 0.0 0 0 447.93 875.28
  C 446.67 876.58 445.49 878.35 443.91 879.45
  Q 442.00 880.79 439.93 883.24
  C 435.50 888.51 427.25 895.85 419.90 894.58
  C 411.94 893.20 409.56 888.16 409.61 880.47
  C 409.63 878.78 409.30 878.29 408.22 877.19
  A 1.10 1.09 -37.3 0 1 408.46 875.48
  L 410.27 874.44
  A 1.23 1.21 -5.4 0 0 410.79 873.82
  C 412.83 868.30 418.96 859.30 425.77 859.73
  C 430.72 860.05 433.10 864.80 431.53 869.31
  C 429.27 875.79 422.44 879.21 415.87 879.14
  A 0.71 0.71 0.0 0 0 415.17 879.75
  C 414.78 882.67 414.85 886.39 417.57 888.23
  C 421.43 890.84 426.52 888.56 430.49 886.79
  C 434.29 885.11 436.98 882.49 440.91 879.42
  A 8.69 8.64 89.8 0 0 442.42 877.89
  Q 443.61 876.34 447.14 871.64
  Q 448.34 870.04 448.60 868.29
  C 450.76 853.82 453.01 840.11 458.46 826.99
  Q 459.08 825.51 461.10 823.97
  A 2.13 2.01 -65.8 0 1 462.07 823.57
  Q 465.56 823.10 465.94 826.29
  Q 466.42 830.29 465.48 836.01
  C 464.02 844.98 460.11 854.18 456.32 861.92
  C 453.61 867.49 452.91 871.69 453.47 877.03
  C 453.77 879.87 454.67 887.75 459.40 886.38
  Q 465.14 884.73 472.49 877.97
  C 475.17 875.51 476.54 873.81 477.21 870.42
  Q 478.10 865.90 480.21 859.21
  A 2.74 2.73 12.9 0 1 483.22 857.33
  L 483.32 857.35
  A 2.15 2.14 -77.2 0 1 485.05 860.10
  Q 482.87 867.25 481.74 874.75
  Q 481.18 878.53 482.11 882.26
  A 2.19 2.19 0.0 0 0 484.38 883.92
  Q 486.56 883.76 488.54 882.50
  Q 496.00 877.73 501.67 872.42
  A 6.87 6.76 81.2 0 0 503.16 870.35
  C 506.36 863.51 510.14 857.55 516.57 853.65
  C 522.77 849.88 523.53 855.57 528.03 857.79
  A 2.29 2.29 0.0 0 1 529.23 860.44
  C 527.64 866.35 526.10 872.30 529.47 877.37
  A 3.21 3.21 0.0 0 0 533.16 878.64
  C 537.16 877.31 538.78 875.61 542.86 871.36
  Q 544.85 869.28 545.45 867.72
  A 2.97 2.70 62.8 0 0 545.63 867.05
  Q 549.18 843.33 554.89 819.00
  A 2.68 2.68 0.0 0 1 557.86 816.96
  L 557.96 816.97
  A 2.10 2.09 -80.5 0 1 559.71 819.43
  L 552.30 859.11
  A 0.36 0.36 0.0 0 0 552.92 859.43
  Z
  M 462.0996 830.4620
  A 13.56 1.20 -75.0 0 0 457.4309 843.2494
  A 13.56 1.20 -75.0 0 0 455.0804 856.6580
  A 13.56 1.20 -75.0 0 0 459.7491 843.8706
  A 13.56 1.20 -75.0 0 0 462.0996 830.4620
  Z
  M 521.2558 857.2868
  A 13.35 4.47 -59.0 0 0 510.5485 866.4278
  A 13.35 4.47 -59.0 0 0 507.5042 880.1732
  A 13.35 4.47 -59.0 0 0 518.2115 871.0322
  A 13.35 4.47 -59.0 0 0 521.2558 857.2868
  Z
  M 416.44 873.87
  A 0.72 0.72 0.0 0 0 417.19 874.83
  Q 423.86 874.09 426.80 868.57
  Q 427.76 866.75 427.02 865.20
  A 1.85 1.83 -21.4 0 0 424.79 864.25
  C 420.54 865.59 417.95 869.90 416.44 873.87
  Z"
/>
<path fill="#213a27" d="
  M 363.19 873.55
  L 357.66 906.87
  A 2.00 2.00 0.0 0 1 355.11 908.46
  L 354.95 908.42
  A 3.00 2.99 -78.7 0 1 352.83 905.22
  Q 354.43 890.51 355.23 886.49
  Q 356.78 878.63 357.83 871.77
  A 4.67 4.51 48.1 0 0 357.87 870.64
  L 357.65 867.89
  A 1.77 1.74 60.0 0 1 357.93 866.81
  Q 359.66 864.20 359.99 862.45
  Q 362.76 848.22 366.54 832.34
  A 0.80 0.78 84.5 0 1 366.97 831.81
  Q 367.89 831.40 368.69 831.88
  Q 369.27 832.23 369.44 833.42
  Q 369.77 835.73 369.26 839.25
  Q 367.85 849.01 364.83 864.58
  Q 364.54 866.08 364.67 867.42
  A 0.76 0.76 0.0 0 0 365.69 868.06
  C 376.61 864.08 389.36 855.39 394.63 844.70
  C 401.35 831.07 389.87 823.44 377.47 826.23
  Q 368.80 828.18 358.94 834.96
  Q 353.53 838.68 351.42 843.71
  A 1.66 1.65 31.7 0 1 348.82 844.32
  L 348.43 843.99
  A 2.95 2.95 0.0 0 1 347.91 840.08
  C 354.36 830.62 364.16 825.51 374.86 822.38
  C 382.35 820.19 391.10 821.39 396.67 826.98
  C 403.75 834.08 401.78 843.88 396.46 851.25
  C 391.07 858.73 381.11 867.00 371.22 870.70
  A 0.77 0.77 0.0 0 0 370.93 871.96
  C 377.93 879.32 385.28 886.89 393.97 892.78
  Q 399.02 896.20 403.41 895.51
  Q 405.85 895.14 406.30 895.81
  C 407.17 897.11 407.32 898.52 406.01 899.51
  C 399.14 904.71 383.86 891.71 379.55 887.45
  Q 366.72 874.76 364.69 873.01
  A 0.92 0.91 25.1 0 0 363.19 873.55
  Z"
/>
<ellipse fill="#213a27" cx="0.00" cy="0.00" transform="translate(485.76,838.41) rotate(-79.0)" rx="4.46" ry="3.62"/>
<circle fill="#213a27" cx="893.20" cy="853.24" r="3.97"/>
<path fill="#213a27" d="
  M 883.19 960.38
  A 0.57 0.57 0.0 0 1 884.15 960.90
  C 883.49 963.78 880.06 966.76 877.35 968.59
  C 871.14 972.78 864.35 972.45 858.74 967.24
  Q 858.20 966.74 851.86 960.11
  A 1.33 1.32 -46.9 0 0 849.89 960.18
  C 846.72 963.96 846.15 970.53 844.68 974.40
  C 843.63 977.20 840.23 976.90 838.87 974.29
  C 837.83 972.30 837.96 971.42 839.29 969.57
  Q 841.40 966.65 841.92 963.94
  Q 846.52 939.66 852.50 912.90
  A 1.97 1.97 0.0 0 1 855.15 911.51
  L 855.20 911.53
  A 2.86 2.86 0.0 0 1 856.94 914.74
  L 849.91 950.15
  A 0.63 0.63 0.0 0 0 850.98 950.70
  C 854.46 946.98 863.57 936.96 868.68 940.07
  C 872.25 942.24 869.85 947.54 867.56 949.88
  Q 863.39 954.13 857.68 956.98
  A 0.76 0.75 55.2 0 0 857.47 958.17
  C 861.85 962.92 865.41 968.46 872.61 966.54
  Q 878.85 964.87 883.19 960.38
  Z
  M 865.9583 944.2581
  A 7.44 1.53 -38.8 0 0 859.2013 947.7276
  A 7.44 1.53 -38.8 0 0 854.3617 953.5819
  A 7.44 1.53 -38.8 0 0 861.1187 950.1124
  A 7.44 1.53 -38.8 0 0 865.9583 944.2581
  Z"
/>
<path fill="#213a27" d="
  M 626.52 954.38
  A 0.62 0.62 0.0 0 0 627.24 955.14
  L 638.53 952.86
  A 1.87 1.87 0.0 0 1 640.77 954.66
  L 640.77 954.73
  A 2.43 2.42 -8.8 0 1 638.93 957.24
  L 626.39 960.33
  A 2.07 2.06 88.7 0 0 624.88 961.92
  C 623.23 970.09 621.59 976.96 621.62 984.64
  C 621.65 992.35 627.36 990.83 631.79 988.03
  Q 639.68 983.04 640.74 982.24
  C 642.63 980.81 643.78 979.75 644.36 977.35
  Q 646.17 969.84 652.12 963.93
  Q 654.14 961.93 655.44 961.87
  C 658.99 961.70 661.18 962.77 664.04 965.13
  A 2.71 2.63 73.9 0 0 664.86 965.60
  Q 665.71 965.89 668.27 965.55
  Q 674.33 964.75 680.40 962.23
  A 0.83 0.83 0.0 0 1 681.51 963.23
  C 680.37 967.17 670.10 968.89 666.38 969.51
  A 0.89 0.88 -6.4 0 0 665.63 970.44
  C 666.08 978.56 662.55 988.19 654.67 991.38
  C 648.39 993.92 644.77 989.41 643.62 983.85
  A 0.39 0.38 60.0 0 0 642.96 983.67
  C 639.42 987.54 633.62 993.30 628.18 994.94
  C 618.09 997.97 615.44 989.44 616.11 981.50
  Q 616.83 972.91 618.95 963.34
  A 0.90 0.90 0.0 0 0 617.75 962.31
  Q 614.66 963.52 612.39 963.31
  A 1.83 1.83 0.0 0 1 610.96 960.59
  C 611.91 958.88 615.96 958.21 619.29 957.27
  A 2.04 2.03 -0.8 0 0 620.71 955.82
  L 625.65 936.51
  A 2.55 2.54 -77.0 0 1 628.63 934.64
  L 629.03 934.72
  A 2.33 2.32 -77.0 0 1 630.81 937.57
  L 626.52 954.38
  Z
  M 651.59 986.78
  Q 653.88 987.56 656.43 984.62
  Q 661.21 979.10 661.13 971.09
  A 2.07 2.06 -79.9 0 0 659.81 969.19
  Q 659.78 969.18 657.79 968.50
  Q 655.81 967.83 655.77 967.82
  A 2.07 2.06 -62.6 0 0 653.57 968.52
  Q 648.63 974.83 649.07 982.13
  Q 649.30 986.00 651.59 986.78
  Z"
/>
<path fill="#213a27" d="
  M 566.79 984.26
  A 0.79 0.79 0.0 0 1 567.68 985.42
  Q 561.87 995.52 551.52 1000.75
  C 543.73 1004.68 534.87 1003.62 531.44 994.73
  A 0.51 0.51 0.0 0 0 530.57 994.58
  Q 526.97 998.72 522.45 1001.69
  C 512.90 1007.95 506.71 1001.85 505.51 992.40
  A 0.55 0.55 0.0 0 0 504.47 992.22
  C 501.82 997.42 496.95 1004.66 491.18 1006.58
  C 486.31 1008.20 482.87 1004.24 483.15 999.64
  A 0.42 0.42 0.0 0 0 482.44 999.32
  Q 478.10 1003.58 477.71 1004.01
  Q 475.16 1006.81 473.10 1007.61
  C 466.89 1010.04 463.51 1004.90 461.68 999.96
  A 0.60 0.59 -38.3 0 0 460.63 999.84
  C 458.12 1003.55 452.49 1010.99 447.38 1010.92
  Q 441.67 1010.84 441.25 1004.57
  C 440.67 995.93 448.41 983.00 455.95 978.70
  C 459.26 976.81 462.01 977.50 464.22 980.57
  Q 465.14 981.86 467.12 983.06
  A 1.85 1.84 22.5 0 1 467.95 985.06
  Q 467.01 989.01 466.39 992.88
  C 465.95 995.60 467.03 1001.78 469.97 1003.19
  C 473.80 1005.01 479.74 998.03 481.89 995.69
  A 7.53 7.39 76.8 0 0 483.40 993.20
  Q 484.83 989.29 485.44 987.96
  C 488.61 981.04 496.23 970.86 504.59 975.81
  A 0.42 0.42 0.0 0 0 505.23 975.49
  Q 506.46 962.30 509.91 949.40
  Q 511.31 944.16 513.40 939.67
  C 514.02 938.34 516.01 937.27 517.30 938.64
  Q 518.84 940.29 518.35 943.03
  Q 515.29 960.09 511.38 976.95
  C 510.37 981.31 508.36 998.71 515.60 999.77
  A 2.53 2.50 40.2 0 0 516.64 999.69
  C 522.01 998.13 526.68 993.81 530.19 989.69
  A 2.25 2.17 -19.3 0 0 530.67 988.74
  Q 530.95 987.48 530.71 985.86
  A 2.20 2.14 -37.7 0 1 530.88 984.66
  C 534.21 977.41 537.47 970.49 545.02 968.78
  C 551.25 967.37 554.67 974.76 551.86 979.44
  Q 547.04 987.45 537.39 988.01
  A 0.99 0.99 0.0 0 0 536.46 988.92
  Q 536.02 994.29 539.82 996.79
  C 546.79 1001.36 561.28 989.66 566.36 984.59
  Q 566.66 984.30 566.79 984.26
  Z
  M 547.6295 973.8365
  A 6.48 2.73 -45.9 0 0 541.1595 976.5902
  A 6.48 2.73 -45.9 0 0 538.6105 983.1435
  A 6.48 2.73 -45.9 0 0 545.0805 980.3898
  A 6.48 2.73 -45.9 0 0 547.6295 973.8365
  Z
  M 488.42 1000.75
  A 1.26 1.26 0.0 0 0 490.21 1001.46
  C 496.94 997.83 501.40 988.81 503.49 981.77
  A 1.17 1.17 0.0 0 0 503.11 980.53
  Q 499.41 977.50 495.97 981.00
  C 491.97 985.06 486.31 994.55 488.42 1000.75
  Z
  M 460.1015 982.3082
  A 13.04 4.29 -60.7 0 0 449.9788 991.5805
  A 13.04 4.29 -60.7 0 0 447.3385 1005.0518
  A 13.04 4.29 -60.7 0 0 457.4612 995.7795
  A 13.04 4.29 -60.7 0 0 460.1015 982.3082
  Z"
/>
<path fill="#213a27" d="
  M 397.94 987.90
  A 0.33 0.33 0.0 0 0 398.51 988.00
  Q 400.63 985.18 402.34 982.11
  Q 414.19 960.84 425.87 942.90
  C 427.04 941.11 429.80 940.86 430.53 943.28
  Q 431.10 945.21 431.03 946.01
  Q 428.69 972.62 428.81 997.75
  Q 428.85 1006.80 430.07 1015.49
  A 1.78 1.78 0.0 0 0 431.83 1017.02
  Q 433.23 1017.02 433.39 1017.53
  C 434.58 1021.31 430.90 1023.82 427.61 1021.79
  C 420.03 1017.12 424.71 962.46 425.53 952.83
  A 0.42 0.42 0.0 0 0 424.74 952.59
  Q 414.24 970.83 403.65 989.64
  C 401.79 992.96 398.82 997.87 394.77 993.22
  A 3.06 3.00 15.7 0 1 394.19 992.21
  C 390.56 981.58 388.70 972.61 386.55 961.65
  A 0.41 0.41 0.0 0 0 385.74 961.66
  L 374.84 1022.98
  A 2.05 2.04 9.2 0 1 372.53 1024.64
  L 372.48 1024.64
  A 2.35 2.35 0.0 0 1 370.48 1022.16
  Q 370.95 1015.12 371.81 1010.52
  C 375.66 989.81 379.45 971.32 383.34 948.64
  A 1.78 1.73 15.5 0 1 385.72 947.34
  Q 387.71 948.09 388.29 950.49
  C 392.81 969.01 394.58 977.30 397.94 987.90
  Z"
/>
<path fill="#213a27" d="
  M 777.86 958.16
  A 0.35 0.35 0.0 0 0 777.40 957.72
  Q 770.99 960.41 764.20 959.38
  A 0.90 0.90 0.0 0 0 763.16 960.24
  C 762.95 967.07 760.03 974.84 755.05 980.06
  C 751.17 984.12 745.62 983.88 742.83 978.62
  Q 741.10 975.35 740.72 972.03
  A 0.58 0.58 0.0 0 0 739.65 971.80
  Q 736.20 977.54 732.08 981.83
  C 725.97 988.19 720.43 984.33 720.99 976.55
  Q 721.72 966.27 726.04 955.21
  A 1.78 1.78 0.0 0 1 728.47 954.25
  L 728.54 954.29
  A 2.27 2.27 0.0 0 1 729.77 956.87
  Q 726.58 970.27 726.16 977.75
  Q 726.11 978.74 726.39 979.16
  A 1.03 1.03 0.0 0 0 727.96 979.34
  Q 735.43 972.17 739.86 962.45
  C 740.66 960.69 743.10 959.63 744.68 961.39
  Q 745.42 962.21 745.47 964.30
  C 745.55 968.47 745.64 972.98 747.45 976.43
  A 2.30 2.29 -27.0 0 0 750.52 977.42
  C 755.47 974.94 758.31 964.48 758.93 959.01
  A 2.97 2.80 43.3 0 0 758.88 958.15
  L 758.24 955.18
  A 1.79 1.71 -43.7 0 1 758.28 954.28
  Q 758.84 952.44 760.56 951.85
  A 1.96 1.94 68.2 0 1 762.96 952.90
  Q 764.61 956.54 769.27 956.13
  Q 778.39 955.35 785.71 950.11
  A 2.85 2.84 27.3 0 1 787.41 949.57
  C 791.15 949.57 793.39 950.82 795.76 953.25
  A 2.32 2.30 67.9 0 0 797.38 953.94
  C 802.82 953.95 806.17 952.58 811.67 950.26
  A 2.58 2.50 -81.8 0 0 812.72 949.45
  Q 813.37 948.59 814.16 947.13
  A 1.75 1.71 -60.9 0 1 816.52 946.43
  Q 817.39 946.93 817.53 948.27
  Q 817.91 951.76 817.32 955.72
  A 0.49 0.49 0.0 0 0 818.23 956.02
  C 821.01 950.79 828.92 942.91 835.33 946.94
  C 836.29 947.55 836.81 948.81 836.45 949.86
  A 1.99 1.97 -70.9 0 1 833.94 951.09
  Q 829.13 949.45 825.22 953.54
  C 819.28 959.77 817.11 966.45 814.98 974.94
  A 2.87 2.86 -79.7 0 1 811.87 977.10
  L 811.77 977.09
  A 2.27 2.27 0.0 0 1 809.65 974.50
  L 812.52 954.60
  A 0.66 0.66 0.0 0 0 811.60 953.90
  C 806.91 955.95 802.86 957.80 798.17 957.52
  A 1.00 1.00 0.0 0 0 797.11 958.56
  Q 797.84 972.57 785.95 979.44
  C 780.95 982.32 775.40 978.31 774.93 973.23
  C 774.40 967.66 775.96 963.26 777.86 958.16
  Z
  M 792.09 957.76
  L 787.11 955.29
  A 1.55 1.55 0.0 0 0 785.19 955.73
  Q 780.46 961.83 779.88 968.82
  C 779.69 971.05 779.92 975.69 783.20 975.19
  Q 785.02 974.92 786.61 973.44
  Q 792.90 967.57 792.84 958.96
  A 1.36 1.36 0.0 0 0 792.09 957.76
  Z"
/>
<circle fill="#213a27" cx="899.51" cy="965.95" r="3.91"/>
<path fill="#213a27" d="
  M 846.08 1049.00
  Q 845.76 1049.07 845.00 1049.08
  C 787.55 1049.72 732.17 1051.84 675.77 1057.19
  C 601.96 1064.20 529.14 1076.82 453.31 1094.09
  Q 448.28 1095.23 443.70 1095.02
  A 1.96 1.88 88.4 0 1 441.90 1093.25
  C 441.67 1090.77 447.77 1088.90 449.67 1088.39
  Q 462.98 1084.84 467.33 1083.87
  C 497.70 1077.07 526.03 1071.41 557.08 1066.70
  Q 612.12 1058.35 665.39 1053.54
  Q 679.05 1052.30 694.66 1051.33
  C 715.75 1050.01 724.98 1049.13 740.58 1048.63
  C 762.70 1047.92 784.62 1047.73 813.30 1047.59
  C 821.79 1047.55 833.78 1047.81 842.08 1048.21
  Q 846.12 1048.41 846.20 1048.47
  A 0.30 0.29 -32.6 0 1 846.08 1049.00
  Z"
/>
</svg>
