<?xml version="1.0" encoding="UTF-8" standalone="no"?>
<!DOCTYPE svg PUBLIC "-//W3C//DTD SVG 1.1//EN" "http://www.w3.org/Graphics/SVG/1.1/DTD/svg11.dtd">
<svg xmlns="http://www.w3.org/2000/svg" version="1.1" viewBox="0.00 0.00 1254.00 1254.00">
<g stroke-width="2.00" fill="none" stroke-linecap="butt">
<path stroke="#2a4a30" vector-effect="non-scaling-stroke" d="
  M 430.06 655.81
  Q 429.82 655.20 429.23 654.91"
/>
<path stroke="#2a4a30" vector-effect="non-scaling-stroke" d="
  M 422.02 659.38
  Q 421.07 658.55 419.02 658.74"
/>
<path stroke="#2a4a30" vector-effect="non-scaling-stroke" d="
  M 770.26 540.13
  Q 769.94 541.27 769.51 541.17"
/>
<path stroke="#2a4a30" vector-effect="non-scaling-stroke" d="
  M 409.21 668.15
  L 410.48 668.17"
/>
<path stroke="#2a4a30" vector-effect="non-scaling-stroke" d="
  M 414.79 668.68
  Q 416.04 668.86 418.08 667.99"
/>
<path stroke="#2a4a30" vector-effect="non-scaling-stroke" d="
  M 426.78 667.13
  L 428.47 667.11"
/>
<path stroke="#2a4a30" vector-effect="non-scaling-stroke" d="
  M 434.20 667.45
  Q 434.88 667.66 435.56 667.40"
/>
<path stroke="#2a4a30" vector-effect="non-scaling-stroke" d="
  M 464.64 669.01
  Q 463.92 668.78 463.69 669.74"
/>
<path stroke="#2a4a30" vector-effect="non-scaling-stroke" d="
  M 459.78 671.14
  Q 458.76 670.85 457.90 672.00"
/>
<path stroke="#2a4a30" vector-effect="non-scaling-stroke" d="
  M 457.54 672.38
  Q 456.84 672.11 456.54 672.46"
/>
<path stroke="#2a4a30" vector-effect="non-scaling-stroke" d="
  M 456.04 672.84
  Q 455.36 672.97 454.83 672.49"
/>
<path stroke="#2a4a30" vector-effect="non-scaling-stroke" d="
  M 433.52 670.09
  Q 432.58 669.97 431.76 670.21"
/>
<path stroke="#2a4a30" vector-effect="non-scaling-stroke" d="
  M 422.31 670.13
  Q 421.27 669.93 420.45 670.33"
/>
<path stroke="#2a4a30" vector-effect="non-scaling-stroke" d="
  M 411.72 669.92
  L 409.45 670.05"
/>
<path stroke="#2a4a30" vector-effect="non-scaling-stroke" d="
  M 406.83 670.04
  L 397.75 670.05"
/>
<path stroke="#2a4a30" vector-effect="non-scaling-stroke" d="
  M 395.46 670.11
  Q 394.96 670.06 394.52 670.23"
/>
<path stroke="#2a4a30" vector-effect="non-scaling-stroke" d="
  M 386.46 671.79
  Q 386.49 671.41 386.30 671.09"
/>
<path stroke="#2a4a30" vector-effect="non-scaling-stroke" d="
  M 417.05 666.62
  Q 416.68 666.42 416.52 664.60"
/>
<path stroke="#2a4a30" vector-effect="non-scaling-stroke" d="
  M 470.97 659.90
  Q 471.57 660.45 472.22 660.38"
/>
<path stroke="#2a4a30" vector-effect="non-scaling-stroke" d="
  M 471.46 660.90
  L 470.42 660.86
  A 0.52 0.52 0.0 0 0 469.88 661.36
  L 469.85 662.33"
/>
<path stroke="#2a4a30" vector-effect="non-scaling-stroke" d="
  M 396.46 664.02
  L 395.82 663.36
  A 0.41 0.40 -69.6 0 0 395.13 663.68
  L 395.20 664.52"
/>
<path stroke="#2a4a30" vector-effect="non-scaling-stroke" d="
  M 399.94 664.09
  Q 401.01 663.59 401.53 664.29
  A 0.34 0.33 68.5 0 1 401.30 664.83
  Q 401.04 664.85 401.74 665.03"
/>
<path stroke="#2a4a30" vector-effect="non-scaling-stroke" d="
  M 381.73 663.96
  Q 381.12 663.44 380.62 663.54
  Q 380.38 663.58 380.34 663.98
  Q 380.31 664.32 380.05 664.53"
/>
<path stroke="#2a4a30" vector-effect="non-scaling-stroke" d="
  M 381.73 663.96
  Q 381.96 664.18 382.01 664.42
  Q 382.06 664.71 381.80 664.87
  Q 381.56 665.01 381.18 665.04"
/>
<path stroke="#2a4a30" vector-effect="non-scaling-stroke" d="
  M 474.21 665.88
  Q 473.94 666.19 474.13 666.46
  A 0.13 0.11 76.7 0 0 474.21 666.52
  L 476.82 667.08
  A 0.20 0.18 10.2 0 0 477.05 666.93
  L 477.10 666.64
  A 0.14 0.14 0.0 0 0 476.99 666.47
  L 475.00 666.02"
/>
<path stroke="#2a4a30" vector-effect="non-scaling-stroke" d="
  M 499.71 669.73
  Q 499.12 669.17 498.31 669.38
  A 0.25 0.25 0.0 0 0 498.13 669.68
  L 498.20 669.93
  A 0.14 0.13 73.7 0 0 498.36 670.02
  L 499.54 669.68"
/>
<path stroke="#2a4a30" vector-effect="non-scaling-stroke" d="
  M 467.77 669.55
  Q 466.88 669.86 466.82 670.71"
/>
<path stroke="#2a4a30" vector-effect="non-scaling-stroke" d="
  M 494.23 668.96
  Q 493.32 668.33 492.79 668.31
  A 0.40 0.40 0.0 0 0 492.50 669.00
  L 493.21 669.64"
/>
<path stroke="#2a4a30" vector-effect="non-scaling-stroke" d="
  M 382.55 670.53
  Q 382.42 669.78 381.16 669.86"
/>
<path stroke="#2a4a30" vector-effect="non-scaling-stroke" d="
  M 476.25 671.04
  Q 475.23 672.71 477.57 671.90
  A 0.33 0.33 0.0 0 0 477.64 671.31
  Q 477.40 671.15 477.02 671.10"
/>
<path stroke="#2a4a30" vector-effect="non-scaling-stroke" d="
  M 474.95 672.68
  Q 474.60 672.14 473.73 672.43"
/>
<path stroke="#2a4a30" vector-effect="non-scaling-stroke" d="
  M 474.71 672.80
  L 473.28 672.83"
/>
<path stroke="#2a4a30" vector-effect="non-scaling-stroke" d="
  M 393.56 677.39
  Q 392.37 676.21 390.55 676.57"
/>
<path stroke="#2a4a30" vector-effect="non-scaling-stroke" d="
  M 383.75 675.90
  L 385.93 675.71"
/>
<path stroke="#2a4a30" vector-effect="non-scaling-stroke" d="
  M 388.24 677.13
  L 384.77 677.08"
/>
<path stroke="#2a4a30" vector-effect="non-scaling-stroke" d="
  M 384.46 677.30
  Q 384.09 677.32 383.78 677.48"
/>
<path stroke="#2a4a30" vector-effect="non-scaling-stroke" d="
  M 379.46 677.43
  L 378.55 677.21"
/>
<path stroke="#2a4a30" vector-effect="non-scaling-stroke" d="
  M 419.50 676.49
  Q 419.57 677.04 420.21 676.87"
/>
<path stroke="#2a4a30" vector-effect="non-scaling-stroke" d="
  M 419.45 678.33
  Q 418.97 678.30 418.48 678.51"
/>
<path stroke="#2a4a30" vector-effect="non-scaling-stroke" d="
  M 416.69 682.77
  L 415.49 682.69"
/>
<path stroke="#2a4a30" vector-effect="non-scaling-stroke" d="
  M 608.91 988.45
  L 607.88 985.87"
/>
<path stroke="#2a4a30" vector-effect="non-scaling-stroke" d="
  M 595.24 1001.31
  Q 595.60 1002.81 597.09 1003.45"
/>
<path stroke="#2a4a30" vector-effect="non-scaling-stroke" d="
  M 510.21 363.08
  L 508.79 363.13"
/>
<path stroke="#2a4a30" vector-effect="non-scaling-stroke" d="
  M 510.04 362.29
  L 511.79 362.28"
/>
<path stroke="#2a4a30" vector-effect="non-scaling-stroke" d="
  M 369.21 364.83
  L 365.71 364.88"
/>
<path stroke="#2a4a30" vector-effect="non-scaling-stroke" d="
  M 407.03 390.23
  L 408.21 390.25"
/>
<path stroke="#2a4a30" vector-effect="non-scaling-stroke" d="
  M 409.43 391.38
  L 404.32 391.44"
/>
<path stroke="#2a4a30" vector-effect="non-scaling-stroke" d="
  M 400.04 391.61
  L 398.04 391.62"
/>
<path stroke="#2a4a30" vector-effect="non-scaling-stroke" d="
  M 347.98 392.17
  L 345.71 392.14"
/>
<path stroke="#2a4a30" vector-effect="non-scaling-stroke" d="
  M 405.17 618.40
  Q 407.21 622.53 408.02 623.69
  A 0.39 0.39 0.0 0 0 408.71 623.35
  Q 407.56 619.60 406.61 617.68
  Q 405.66 615.77 403.37 612.58
  A 0.39 0.39 0.0 0 0 402.69 612.93
  Q 403.12 614.27 405.17 618.40"
/>
<path stroke="#2a4a30" vector-effect="non-scaling-stroke" d="
  M 409.57 627.30
  Q 409.40 627.32 409.29 627.34
  A 0.35 0.35 0.0 0 0 409.02 627.82
  L 415.09 642.00
  A 0.29 0.29 0.0 0 0 415.64 641.91
  Q 415.71 641.19 415.40 640.36
  Q 413.01 633.73 410.05 627.26"
/>
<path stroke="#2a4a30" vector-effect="non-scaling-stroke" d="
  M 468.6600 662.1294
  A 0.03 0.01 -1.1 0 0 468.6298 662.1200
  A 0.03 0.01 -1.1 0 0 468.6000 662.1306
  A 0.03 0.01 -1.1 0 0 468.6302 662.1400
  A 0.03 0.01 -1.1 0 0 468.6600 662.1294"
/>
</g>
<path fill="#15321f" d="
  M 430.06 655.81
  Q 429.82 655.20 429.23 654.91
  Q 432.61 654.46 435.88 652.05
  A 1.50 1.48 78.0 0 0 436.44 651.18
  C 436.64 650.25 436.27 649.13 436.28 647.89
  Q 436.83 555.20 436.86 548.50
  Q 437.11 501.92 437.05 456.28
  Q 437.03 440.25 437.10 436.73
  C 437.12 435.77 437.66 434.22 437.55 433.52
  A 0.79 0.78 84.9 0 0 436.77 432.86
  Q 401.29 433.57 356.51 434.03
  Q 349.15 434.10 341.76 434.60
  Q 340.33 434.70 338.51 433.55
  A 1.69 1.68 83.8 0 1 338.15 433.26
  Q 302.02 395.28 297.70 390.75
  C 294.51 387.41 291.68 385.57 295.51 381.51
  Q 319.50 356.11 337.77 338.26
  A 2.73 2.73 0.0 0 1 339.02 337.56
  Q 342.82 336.63 345.26 336.65
  Q 387.69 336.98 435.96 337.97
  A 1.27 1.26 89.2 0 0 437.25 336.64
  Q 436.62 324.05 437.51 311.86
  A 0.83 0.82 -0.3 0 0 436.61 310.98
  C 416.67 312.69 395.27 313.43 377.50 314.68
  Q 375.14 314.85 371.68 314.94
  C 368.38 315.02 366.89 313.73 364.75 311.47
  C 362.87 309.47 363.04 307.90 362.91 304.70
  Q 361.37 267.16 358.77 235.03
  Q 358.42 230.75 359.26 229.12
  Q 360.78 226.15 363.78 225.29
  C 368.56 223.92 374.09 224.18 378.77 223.72
  Q 407.60 220.89 435.00 219.20
  A 0.87 0.86 -3.7 0 0 435.81 218.29
  C 435.64 215.11 435.10 212.16 435.07 208.91
  Q 434.90 192.07 434.70 173.50
  Q 434.66 169.44 434.19 165.01
  C 434.06 163.73 435.54 161.63 436.79 160.67
  C 443.70 155.38 451.22 153.73 460.28 152.73
  Q 463.08 152.43 467.21 153.17
  Q 469.66 153.60 474.13 153.73
  C 478.44 153.86 482.77 155.20 486.31 156.44
  C 489.31 157.50 495.90 160.79 496.42 164.05
  A 1.14 0.99 75.1 0 1 496.43 164.21
  L 495.99 213.36
  A 0.59 0.59 0.0 0 0 496.63 213.95
  Q 563.73 208.10 594.33 205.61
  C 603.99 204.82 610.70 203.74 618.03 203.59
  Q 619.98 203.55 621.96 205.36
  Q 645.77 227.12 660.64 241.82
  Q 663.76 244.90 666.03 247.49
  C 668.70 250.56 665.71 253.52 663.44 256.20
  Q 639.70 284.31 627.47 298.47
  C 626.12 300.04 624.69 300.54 622.52 300.66
  Q 536.70 305.30 495.35 307.59
  A 1.23 1.23 0.0 0 0 494.21 309.06
  Q 494.95 312.72 494.99 315.50
  Q 495.17 329.94 495.10 334.50
  A 6.86 5.43 56.8 0 1 495.02 335.38
  L 494.57 338.00
  A 0.76 0.75 6.0 0 0 495.29 338.88
  Q 526.79 339.60 549.79 339.64
  Q 553.84 339.64 555.44 340.80
  C 557.95 342.62 559.00 343.89 558.96 347.44
  Q 558.44 388.23 559.08 421.42
  C 559.18 426.53 557.76 427.66 554.43 430.19
  Q 553.20 431.12 549.84 431.07
  Q 535.97 430.89 519.25 431.45
  C 514.35 431.61 511.40 431.31 506.93 431.72
  Q 502.38 432.14 493.85 431.99
  A 0.82 0.81 -5.3 0 0 493.03 432.97
  Q 494.07 437.94 494.06 443.50
  Q 493.97 585.94 494.07 602.75
  Q 494.28 634.34 494.40 641.00
  Q 494.41 641.36 494.76 642.33
  A 0.41 0.32 -56.1 0 1 494.77 642.48
  L 493.98 648.59
  A 1.99 1.90 -29.7 0 1 493.82 649.13
  Q 493.44 649.98 492.89 650.41
  A 1.31 1.30 48.0 0 0 492.79 652.37
  L 495.49 654.99
  A 0.29 0.29 0.0 0 1 495.33 655.48
  Q 492.47 655.93 491.46 655.52
  Q 488.29 654.25 484.54 652.70
  C 480.62 651.09 478.10 651.76 474.44 654.45
  Q 471.13 656.88 466.73 659.44
  A 1.24 1.24 0.0 0 1 465.80 659.56
  Q 460.94 658.18 457.99 656.05
  A 7.28 2.79 35.7 0 1 457.17 655.43
  Q 457.10 655.37 453.29 651.20
  A 2.50 2.50 0.0 0 0 450.67 650.51
  Q 446.32 651.94 442.29 654.40
  A 3.85 3.76 -69.7 0 1 441.51 654.77
  Q 438.38 655.89 435.86 656.55
  Q 434.75 656.84 434.20 657.48
  A 0.61 0.61 0.0 0 1 433.41 657.60
  Q 432.13 656.79 431.49 656.00
  Q 430.77 655.10 430.06 655.81
  Z
  M 455.71 168.96
  Q 454.57 169.82 454.27 170.37
  A 4.66 4.61 59.2 0 0 453.71 172.62
  L 454.03 217.00
  A 0.70 0.69 87.3 0 0 454.78 217.69
  L 489.85 214.75
  A 0.39 0.38 -7.0 0 0 490.20 214.31
  C 489.62 210.18 489.81 206.36 489.87 202.26
  Q 490.14 182.36 491.57 165.83
  A 1.48 1.47 -62.1 0 0 491.25 164.78
  C 489.34 162.37 483.23 160.38 480.53 159.71
  Q 468.85 156.79 457.61 157.74
  C 450.42 158.35 444.70 159.32 439.24 163.53
  A 2.63 2.61 66.8 0 0 438.25 166.03
  Q 440.10 177.34 440.59 188.31
  Q 441.41 206.91 441.61 217.76
  A 0.81 0.81 0.0 0 0 442.33 218.55
  Q 443.35 218.67 444.98 217.93
  A 0.56 0.55 -56.8 0 1 445.21 217.88
  L 451.30 217.88
  A 0.94 0.94 0.0 0 0 452.24 216.91
  L 450.41 171.62
  A 0.78 0.76 4.2 0 0 449.77 170.89
  Q 444.43 169.97 440.11 167.00
  A 1.68 1.68 0.0 0 1 439.49 165.04
  L 439.63 164.66
  A 1.50 1.50 0.0 0 1 441.73 163.83
  Q 448.74 167.44 455.49 168.17
  A 0.44 0.44 0.0 0 1 455.71 168.96
  Z
  M 371.10 308.21
  Q 372.65 307.73 380.70 307.41
  Q 382.64 307.34 390.31 306.57
  C 397.67 305.82 410.00 305.74 417.22 304.93
  C 425.42 304.02 434.40 304.29 443.59 303.61
  Q 448.22 303.27 473.00 301.89
  Q 518.21 299.38 563.09 296.86
  Q 587.70 295.48 621.59 293.89
  A 1.41 1.39 18.4 0 0 622.59 293.40
  L 659.21 250.61
  A 0.77 0.76 42.4 0 0 659.16 249.57
  L 618.73 210.41
  A 1.87 1.86 64.8 0 0 617.27 209.88
  L 366.43 230.94
  A 1.09 1.09 0.0 0 0 365.43 232.11
  L 370.80 308.01
  A 0.23 0.23 0.0 0 0 371.10 308.21
  Z
  M 474.88 309.97
  Q 475.34 310.46 475.42 311.06
  A 0.83 0.82 78.5 0 1 474.82 311.97
  Q 470.86 313.05 467.88 315.17
  A 1.35 1.34 -29.3 0 0 467.42 316.80
  L 467.43 316.83
  A 0.96 0.96 0.0 0 0 468.82 317.27
  Q 472.33 315.09 473.19 314.90
  A 0.36 0.36 0.0 0 1 473.47 315.55
  L 470.23 317.72
  A 1.11 1.09 -56.0 0 1 469.43 317.88
  Q 464.84 317.10 461.12 319.60
  A 0.35 0.22 13.3 0 1 461.00 319.64
  L 455.57 320.53
  A 0.75 0.75 0.0 0 0 454.94 321.26
  L 454.74 337.98
  A 0.49 0.49 0.0 0 0 455.23 338.48
  L 488.57 338.89
  A 0.71 0.71 0.0 0 0 489.28 338.04
  C 488.35 333.27 488.82 329.17 488.82 323.52
  Q 488.82 319.61 489.25 316.06
  Q 489.85 311.24 489.98 308.65
  A 0.73 0.73 0.0 0 0 489.16 307.88
  L 480.94 308.89
  A 1.30 1.30 0.0 0 0 479.90 310.70
  L 481.17 313.66
  A 0.70 0.68 87.6 0 0 481.57 314.04
  Q 483.01 314.54 485.22 312.77
  A 1.83 1.83 0.0 0 1 485.96 312.42
  Q 486.87 312.21 487.83 312.37
  A 0.44 0.44 0.0 0 1 488.20 312.84
  L 488.18 313.11
  A 0.59 0.58 3.8 0 1 487.54 313.66
  Q 485.13 313.46 483.81 315.28
  A 1.10 1.09 27.6 0 1 482.55 315.67
  L 481.54 315.31
  A 1.00 1.00 0.0 0 0 480.20 316.18
  L 479.12 333.35
  A 0.48 0.48 0.0 0 1 478.31 333.66
  Q 478.04 333.40 477.99 332.99
  Q 477.20 326.24 477.11 318.47
  A 1.21 1.08 41.7 0 0 477.08 318.21
  L 476.35 314.78
  A 1.39 1.34 54.2 0 1 476.48 313.86
  Q 477.17 312.57 476.62 311.62
  A 0.78 0.78 0.0 0 1 476.76 310.67
  Q 476.90 310.55 477.02 310.19
  A 1.08 1.02 -38.2 0 0 477.09 309.72
  Q 476.99 308.46 475.14 309.02
  A 0.58 0.58 0.0 0 0 474.88 309.97
  Z
  M 473.7235 309.7240
  A 0.87 0.29 -7.0 0 0 472.8247 309.5422
  A 0.87 0.29 -7.0 0 0 471.9965 309.9360
  A 0.87 0.29 -7.0 0 0 472.8953 310.1178
  A 0.87 0.29 -7.0 0 0 473.7235 309.7240
  Z
  M 470.0485 310.4335
  A 1.08 0.80 -3.0 0 0 468.9281 309.6911
  A 1.08 0.80 -3.0 0 0 467.8915 310.5465
  A 1.08 0.80 -3.0 0 0 469.0119 311.2889
  A 1.08 0.80 -3.0 0 0 470.0485 310.4335
  Z
  M 456.6273 310.5710
  A 0.90 0.55 -4.4 0 0 455.6878 310.0916
  A 0.90 0.55 -4.4 0 0 454.8327 310.7090
  A 0.90 0.55 -4.4 0 0 455.7722 311.1884
  A 0.90 0.55 -4.4 0 0 456.6273 310.5710
  Z
  M 444.05 312.51
  Q 443.55 314.05 443.60 314.98
  A 0.59 0.59 0.0 0 0 444.63 315.34
  Q 447.09 312.57 451.16 311.36
  A 0.37 0.36 -5.9 0 0 451.43 311.04
  Q 451.45 310.76 451.38 310.70
  Q 451.05 310.43 450.97 310.44
  Q 449.02 310.67 444.57 311.99
  A 0.78 0.78 0.0 0 0 444.05 312.51
  Z
  M 464.88 312.22
  A 0.48 0.47 68.9 0 0 465.67 312.58
  Q 466.17 312.10 465.68 311.29
  A 0.44 0.44 0.0 0 0 464.87 311.53
  Q 464.89 312.08 464.88 312.22
  Z
  M 459.0133 313.6135
  A 0.58 0.37 -65.2 0 0 458.4341 313.9848
  A 0.58 0.37 -65.2 0 0 458.5267 314.6665
  A 0.58 0.37 -65.2 0 0 459.1059 314.2952
  A 0.58 0.37 -65.2 0 0 459.0133 313.6135
  Z
  M 465.6262 315.1682
  A 1.45 0.73 -10.4 0 0 464.0682 314.7120
  A 1.45 0.73 -10.4 0 0 462.7738 315.6918
  A 1.45 0.73 -10.4 0 0 464.3318 316.1480
  A 1.45 0.73 -10.4 0 0 465.6262 315.1682
  Z
  M 459.84 317.11
  Q 457.87 317.32 456.17 316.59
  A 0.80 0.80 0.0 0 0 455.06 317.27
  L 454.99 318.39
  A 0.58 0.58 0.0 0 0 455.73 318.98
  Q 456.72 318.70 458.34 318.96
  A 1.59 1.59 0.0 0 0 459.79 318.41
  Q 460.44 317.63 462.54 316.91
  A 0.36 0.35 48.8 0 0 462.58 316.26
  Q 461.42 315.69 460.44 316.80
  A 0.94 0.94 0.0 0 1 459.84 317.11
  Z
  M 450.2045 317.6993
  A 0.96 0.73 -104.2 0 0 449.7323 318.8091
  A 0.96 0.73 -104.2 0 0 450.6755 319.5607
  A 0.96 0.73 -104.2 0 0 451.1477 318.4509
  A 0.96 0.73 -104.2 0 0 450.2045 317.6993
  Z
  M 444.66 320.56
  Q 444.53 320.78 444.56 320.93
  A 0.37 0.36 67.6 0 0 445.13 321.17
  Q 445.53 320.89 445.64 320.51
  A 0.59 0.37 -35.1 0 0 444.66 320.56
  Z
  M 446.35 329.43
  Q 446.97 328.22 447.04 326.74
  A 0.74 0.71 69.3 0 1 447.25 326.25
  L 450.91 322.47
  A 1.06 1.06 0.0 0 0 449.98 320.68
  Q 448.26 320.95 445.93 322.72
  A 0.64 0.61 -64.8 0 1 445.57 322.86
  L 444.59 322.95
  A 1.01 1.00 12.0 0 0 443.78 323.47
  Q 442.95 325.02 444.57 326.12
  A 0.56 0.56 0.0 0 1 444.68 326.95
  L 444.09 327.64
  A 1.74 1.74 0.0 0 0 443.67 328.66
  L 443.18 336.54
  A 1.33 1.33 0.0 0 0 444.49 337.96
  L 451.40 338.04
  A 1.37 1.36 -2.1 0 0 452.78 336.56
  L 451.97 326.97
  A 0.64 0.62 -80.7 0 0 451.60 326.44
  Q 450.21 325.82 448.64 326.99
  Q 447.96 327.50 447.09 329.91
  A 0.17 0.17 0.0 0 1 446.93 330.02
  L 446.67 330.00
  A 0.39 0.39 0.0 0 1 446.35 329.43
  Z
  M 301.28 385.27
  Q 305.88 389.34 313.62 397.38
  Q 323.99 408.14 340.08 424.79
  C 341.06 425.80 341.55 427.13 342.35 427.77
  A 1.66 1.63 61.1 0 0 343.52 428.12
  Q 351.84 427.30 353.75 427.27
  Q 461.20 425.54 510.48 424.83
  C 520.47 424.69 537.71 424.08 551.13 424.17
  A 0.94 0.93 -1.4 0 0 552.07 423.19
  Q 551.75 416.06 551.78 410.41
  Q 551.79 406.79 551.50 397.61
  Q 551.24 389.51 551.50 383.25
  C 551.80 375.63 551.36 368.12 551.80 361.60
  Q 551.88 360.48 552.46 346.13
  A 0.58 0.57 2.0 0 0 551.90 345.54
  Q 513.45 344.72 494.00 344.38
  Q 472.68 344.01 456.75 343.74
  Q 451.64 343.66 436.00 343.37
  Q 390.89 342.54 386.50 342.45
  Q 354.76 341.75 345.48 340.77
  Q 342.48 340.45 341.34 342.33
  Q 340.39 343.89 340.14 344.11
  Q 337.31 346.63 327.08 357.74
  C 318.68 366.87 312.73 372.60 301.24 384.34
  A 0.65 0.64 42.9 0 0 301.28 385.27
  Z
  M 476.69 544.03
  Q 476.68 543.99 476.66 543.74
  Q 475.82 530.28 475.89 507.25
  Q 475.97 478.41 476.37 452.50
  Q 476.39 451.12 475.85 448.73
  A 2.81 2.70 43.9 0 1 475.81 447.69
  Q 476.62 442.35 475.66 436.45
  A 0.42 0.42 0.0 0 0 474.94 436.23
  L 474.34 436.85
  A 0.50 0.50 0.0 0 1 473.49 436.62
  Q 473.37 436.14 472.67 435.39
  A 0.90 0.90 0.0 0 0 471.18 435.68
  Q 470.84 436.55 470.90 437.12
  A 0.65 0.64 -5.2 0 1 470.30 437.83
  L 468.52 437.96
  A 1.36 1.33 -69.5 0 0 467.62 438.38
  L 465.84 440.21
  A 0.45 0.45 0.0 0 1 465.07 439.93
  L 464.93 438.02
  A 0.48 0.48 0.0 0 0 464.26 437.61
  Q 462.91 438.18 462.13 439.16
  A 1.52 1.50 -73.5 0 1 461.13 439.71
  C 457.30 440.14 454.23 442.44 455.58 446.60
  A 5.21 5.04 37.5 0 1 455.82 448.21
  L 455.38 509.05
  A 0.17 0.16 -6.7 0 1 455.25 509.21
  L 455.16 509.23
  A 0.19 0.18 80.8 0 1 454.95 509.07
  Q 454.28 504.74 454.19 502.00
  Q 453.97 495.32 452.98 457.00
  Q 452.87 452.67 452.47 447.65
  A 0.22 0.14 -58.3 0 1 452.47 447.56
  L 452.93 444.36
  A 0.72 0.72 0.0 0 0 452.22 443.54
  Q 449.95 443.55 449.69 445.23
  A 1.37 1.28 43.1 0 0 449.73 445.83
  Q 449.96 446.57 449.93 447.03
  A 0.52 0.51 9.3 0 1 449.27 447.50
  Q 447.78 447.06 446.94 446.37
  A 2.08 2.08 0.0 0 0 443.54 447.96
  L 443.44 455.94
  A 0.85 0.85 0.0 0 0 444.86 456.58
  L 446.73 454.89
  A 0.51 0.50 -69.4 0 1 447.01 454.76
  Q 448.93 454.53 450.08 453.42
  A 0.46 0.46 0.0 0 1 450.82 453.93
  Q 450.10 455.58 448.29 455.65
  A 1.47 1.45 20.6 0 0 447.28 456.10
  Q 445.83 457.63 444.11 457.84
  A 0.81 0.81 0.0 0 0 443.40 458.60
  Q 443.14 463.37 443.14 464.26
  Q 443.04 520.55 443.28 601.58
  C 443.28 603.04 443.91 604.11 443.61 605.19
  Q 443.27 606.38 443.26 607.89
  Q 443.17 617.49 443.10 646.68
  A 0.81 0.81 0.0 0 0 444.23 647.43
  L 450.54 644.73
  A 0.99 0.97 -12.2 0 0 451.14 643.82
  Q 451.05 634.21 451.04 631.34
  C 451.02 627.91 450.22 623.79 450.82 620.99
  A 3.48 3.36 -46.0 0 0 450.82 619.62
  Q 450.39 617.60 450.45 616.51
  C 450.80 609.95 450.43 602.64 450.64 595.50
  Q 451.21 576.88 451.10 566.82
  Q 451.06 563.41 451.67 559.21
  Q 452.30 554.87 451.63 551.61
  A 0.31 0.30 79.9 0 1 451.88 551.25
  L 451.91 551.25
  A 0.27 0.26 -8.6 0 1 452.22 551.47
  Q 453.00 556.10 452.57 561.29
  Q 452.48 562.29 452.88 563.94
  A 3.03 3.00 -51.9 0 1 452.96 564.63
  L 452.89 644.12
  A 1.01 0.86 40.3 0 0 452.94 644.42
  Q 453.25 645.32 454.36 645.78
  C 459.51 647.94 462.73 656.55 469.04 652.77
  C 474.52 649.48 480.25 645.82 486.48 649.92
  A 0.76 0.76 0.0 0 0 487.65 649.22
  Q 487.25 644.22 487.21 634.25
  Q 486.94 558.11 487.52 485.09
  Q 487.58 477.37 488.01 460.91
  Q 488.61 438.13 488.71 436.75
  Q 488.85 434.99 489.57 433.13
  A 0.77 0.76 8.5 0 0 488.80 432.09
  L 478.59 432.81
  A 0.56 0.56 0.0 0 0 478.22 433.75
  Q 480.16 435.81 483.09 434.08
  A 0.73 0.72 -36.7 0 1 483.98 434.20
  Q 485.04 435.33 486.38 435.79
  A 0.52 0.51 26.1 0 1 486.65 436.56
  Q 486.51 436.78 485.87 437.09
  A 0.40 0.40 0.0 0 1 485.30 436.74
  Q 485.28 435.03 483.58 434.71
  A 1.08 1.06 30.9 0 0 482.72 434.92
  Q 482.02 435.47 481.75 435.97
  A 0.80 0.80 0.0 0 1 480.96 436.38
  Q 480.24 436.29 479.57 435.95
  A 0.92 0.92 0.0 0 0 478.24 436.76
  L 476.94 543.99
  A 0.13 0.13 0.0 0 1 476.69 544.03
  Z
  M 473.15 434.11
  L 474.54 435.04
  A 1.09 1.09 0.0 0 0 476.15 433.72
  Q 475.56 432.30 474.47 432.65
  C 472.28 433.37 471.09 432.65 469.16 432.88
  Q 467.66 433.06 462.54 433.20
  Q 461.87 433.21 461.54 433.58
  A 0.35 0.35 0.0 0 0 461.78 434.17
  Q 464.08 434.32 464.86 435.86
  A 0.43 0.42 -33.9 0 0 465.51 435.98
  C 466.87 434.80 467.32 434.07 469.29 434.10
  Q 471.00 434.12 472.62 433.97
  A 0.86 0.84 -29.8 0 1 473.15 434.11
  Z
  M 446.00 434.92
  Q 447.25 435.17 448.72 434.22
  A 1.09 1.08 41.6 0 1 449.80 434.16
  Q 451.02 434.77 452.28 434.60
  A 0.81 0.81 0.0 0 0 452.50 433.06
  Q 451.07 432.42 449.46 433.56
  A 0.44 0.41 30.3 0 1 449.14 433.63
  L 443.96 432.85
  A 0.82 0.81 -79.0 0 0 443.04 433.48
  Q 442.68 435.17 444.08 436.92
  A 0.86 0.83 18.7 0 0 445.58 436.21
  Q 445.44 435.68 445.49 435.30
  A 0.43 0.43 0.0 0 1 446.00 434.92
  Z
  M 457.8236 433.0786
  A 1.50 0.94 -37.9 0 0 456.0626 433.2583
  A 1.50 0.94 -37.9 0 0 455.4564 434.9214
  A 1.50 0.94 -37.9 0 0 457.2174 434.7417
  A 1.50 0.94 -37.9 0 0 457.8236 433.0786
  Z
  M 449.06 438.03
  Q 449.15 438.42 449.48 438.60
  Q 449.74 438.74 450.15 438.61
  Q 451.74 438.09 451.61 437.48
  Q 451.48 436.88 449.81 437.06
  Q 449.39 437.11 449.21 437.35
  Q 448.98 437.65 449.06 438.03
  Z
  M 447.0731 439.9213
  A 2.38 0.84 -42.2 0 0 444.7458 440.8977
  A 2.38 0.84 -42.2 0 0 443.5469 443.1187
  A 2.38 0.84 -42.2 0 0 445.8742 442.1423
  A 2.38 0.84 -42.2 0 0 447.0731 439.9213
  Z"
/>
<path fill="#15321f" d="
  M 478.89 201.61
  A 0.18 0.18 0.0 0 1 478.53 201.61
  Q 477.11 186.98 477.15 172.38
  A 1.06 1.05 79.2 0 0 475.70 171.39
  Q 467.78 174.60 459.99 171.52
  Q 458.27 170.84 457.42 169.46
  A 0.56 0.55 76.1 0 1 457.93 168.61
  C 464.03 169.10 471.30 169.41 476.93 167.79
  Q 478.46 167.36 480.16 167.62
  A 3.52 3.52 0.0 0 0 481.75 167.49
  Q 485.37 166.36 488.39 165.68
  Q 489.41 165.45 489.88 165.60
  A 0.67 0.66 37.0 0 1 490.05 166.79
  Q 485.38 169.87 480.96 170.58
  A 0.93 0.92 -6.1 0 0 480.17 171.55
  Q 481.01 187.19 478.89 201.61
  Z"
/>
<path fill="#15321f" d="
  M 446.13 180.40
  Q 446.05 179.58 446.06 179.55
  A 0.30 0.29 -38.7 0 1 446.63 179.61
  Q 446.68 180.00 446.53 180.45
  A 0.21 0.21 0.0 0 1 446.13 180.40
  Z"
/>
<path fill="#15321f" d="
  M 446.13 182.48
  Q 446.14 182.49 445.90 185.46
  A 2.36 2.26 37.4 0 0 446.07 186.55
  Q 446.98 188.78 446.59 191.09
  Q 446.12 193.84 446.48 194.95
  C 447.10 196.80 446.22 198.98 446.57 201.33
  Q 447.10 204.89 446.26 208.18
  A 1.16 1.07 46.4 0 0 446.27 208.75
  L 447.14 211.81
  A 0.16 0.15 59.0 0 1 447.11 211.95
  L 446.69 212.43
  A 0.17 0.16 63.6 0 1 446.40 212.33
  Q 446.37 211.26 445.69 209.83
  A 1.78 1.70 -53.8 0 1 445.55 208.77
  C 446.01 206.41 445.83 204.64 445.20 200.44
  A 1.74 1.69 44.1 0 1 445.19 200.12
  L 445.83 189.34
  A 0.83 0.70 40.0 0 0 445.77 189.00
  Q 445.23 187.80 445.53 182.66
  A 0.33 0.33 0.0 0 1 446.13 182.48
  Z"
/>
<ellipse fill="#15321f" cx="0.00" cy="0.00" transform="translate(466.71,200.65) rotate(-91.0)" rx="8.29" ry="1.08"/>
<ellipse fill="#15321f" cx="0.00" cy="0.00" transform="translate(445.54,215.39) rotate(-80.8)" rx="1.05" ry="0.37"/>
<rect fill="#3e6140" x="-34.81" y="-0.38" transform="translate(571.22,229.71) rotate(-4.4)" width="69.62" height="0.76" rx="0.36"/>
<path fill="#15321f" d="
  M 475.9805 237.2249
  A 5.49 5.11 -38.6 0 1 474.8780 244.6436
  A 5.49 5.11 -38.6 0 1 467.3995 244.0751
  A 5.49 5.11 -38.6 0 1 468.5020 236.6564
  A 5.49 5.11 -38.6 0 1 475.9805 237.2249
  Z
  M 471.9339 238.3322
  A 1.75 1.40 -79.0 0 0 470.2257 239.7829
  A 1.75 1.40 -79.0 0 0 471.2661 241.7678
  A 1.75 1.40 -79.0 0 0 472.9743 240.3171
  A 1.75 1.40 -79.0 0 0 471.9339 238.3322
  Z"
/>
<ellipse fill="#15321f" cx="0.00" cy="0.00" transform="translate(618.69,243.87) rotate(-5.6)" rx="7.32" ry="0.25"/>
<ellipse fill="#3e6140" cx="0.00" cy="0.00" transform="translate(414.32,254.45) rotate(-4.1)" rx="31.10" ry="0.69"/>
<rect fill="#3e6140" x="-33.51" y="-0.42" transform="translate(550.52,263.55) rotate(-3.8)" width="67.02" height="0.84" rx="0.40"/>
<ellipse fill="#15321f" cx="0.00" cy="0.00" transform="translate(512.24,265.94) rotate(-5.9)" rx="1.59" ry="0.19"/>
<path fill="#15321f" d="
  M 507.46 266.27
  Q 507.68 266.27 507.78 266.34
  A 0.02 0.01 -48.6 0 1 507.78 266.37
  Q 507.46 266.51 507.35 266.50
  A 0.15 0.10 -31.5 0 1 507.46 266.27
  Z"
/>
<ellipse fill="#3e6140" cx="0.00" cy="0.00" transform="translate(590.21,279.46) rotate(-4.1)" rx="20.07" ry="0.45"/>
<path fill="#15321f" d="
  M 477.0503 281.5837
  A 5.49 5.01 -36.9 0 1 475.6681 288.8864
  A 5.49 5.01 -36.9 0 1 468.2697 288.1763
  A 5.49 5.01 -36.9 0 1 469.6519 280.8736
  A 5.49 5.01 -36.9 0 1 477.0503 281.5837
  Z
  M 474.04 284.68
  A 1.39 1.39 0.0 0 0 472.65 283.29
  A 1.39 1.39 0.0 0 0 471.26 284.68
  A 1.39 1.39 0.0 0 0 472.65 286.07
  A 1.39 1.39 0.0 0 0 474.04 284.68
  Z"
/>
<ellipse fill="#15321f" cx="0.00" cy="0.00" transform="translate(420.74,286.69) rotate(-3.4)" rx="28.32" ry="0.76"/>
<path fill="#15321f" d="
  M 484.44 312.05
  Q 484.27 312.22 482.59 311.54
  A 0.67 0.65 87.9 0 1 482.25 311.22
  Q 481.97 310.61 482.53 310.06
  Q 483.10 309.52 483.70 309.83
  A 0.67 0.65 4.4 0 1 484.00 310.18
  Q 484.62 311.89 484.44 312.05
  Z"
/>
<path fill="#15321f" d="
  M 485.43 320.44
  L 486.28 319.45
  A 0.46 0.42 15.1 0 1 486.57 319.30
  Q 486.92 319.26 487.27 319.55
  A 0.28 0.28 0.0 0 1 487.24 320.00
  Q 486.07 320.71 485.68 320.83
  A 0.24 0.24 0.0 0 1 485.43 320.44
  Z"
/>
<path fill="#15321f" d="
  M 470.27 321.45
  A 0.24 0.24 0.0 0 1 470.40 321.89
  Q 468.75 322.95 468.08 321.62
  A 0.45 0.45 0.0 0 1 468.78 321.08
  Q 469.20 321.45 470.27 321.45
  Z"
/>
<path fill="#15321f" d="
  M 483.83 321.69
  Q 483.36 321.96 482.39 321.78
  A 0.30 0.29 -51.4 0 1 482.33 321.22
  Q 482.96 320.95 483.75 321.13
  A 0.30 0.30 0.0 0 1 483.83 321.69
  Z"
/>
<path fill="#15321f" d="
  M 461.71 322.32
  Q 463.99 321.40 464.12 321.40
  A 0.24 0.23 25.5 0 1 464.27 321.82
  Q 462.83 322.94 461.76 322.78
  A 0.24 0.24 0.0 0 1 461.71 322.32
  Z"
/>
<path fill="#15321f" d="
  M 458.50 323.88
  L 457.63 324.26
  A 0.31 0.31 0.0 0 1 457.29 323.76
  Q 457.80 323.26 458.43 323.34
  A 0.28 0.28 0.0 0 1 458.50 323.88
  Z"
/>
<path fill="#15321f" d="
  M 470.6418 359.2615
  A 5.35 5.00 -71.0 0 1 473.6276 365.9478
  A 5.35 5.00 -71.0 0 1 467.1582 369.3785
  A 5.35 5.00 -71.0 0 1 464.1724 362.6922
  A 5.35 5.00 -71.0 0 1 470.6418 359.2615
  Z
  M 469.96 364.11
  A 1.23 1.23 0.0 0 0 468.73 362.88
  A 1.23 1.23 0.0 0 0 467.50 364.11
  A 1.23 1.23 0.0 0 0 468.73 365.34
  A 1.23 1.23 0.0 0 0 469.96 364.11
  Z"
/>
<path fill="#3e6140" d="
  M 510.21 363.08
  L 508.79 363.13
  L 504.08 362.92
  A 0.21 0.21 0.0 0 1 504.08 362.50
  L 510.04 362.29
  L 511.79 362.28
  L 528.92 362.32
  A 0.04 0.04 0.0 0 1 528.96 362.36
  L 528.96 362.63
  A 0.26 0.26 0.0 0 1 528.70 362.89
  L 510.21 363.08
  Z"
/>
<path fill="#15321f" d="
  M 511.79 362.28
  L 510.04 362.29
  Q 510.92 362.46 511.79 362.28
  Z"
/>
<path fill="#15321f" d="
  M 510.21 363.08
  L 508.79 363.13
  L 510.21 363.08
  Z"
/>
<path fill="#3e6140" d="
  M 369.21 364.83
  L 365.71 364.88
  A 25.46 0.59 -0.1 0 1 330.65 364.42
  A 4.12 0.27 -13.8 0 1 330.61 364.39
  L 330.61 364.38
  A 25.47 0.58 -0.1 0 1 381.53 364.30
  A 9.75 0.37 -0.1 0 1 381.46 364.36
  A 25.48 0.58 -0.1 0 1 369.21 364.83
  Z"
/>
<path fill="#15321f" d="
  M 369.21 364.83
  A 25.34 0.88 0.2 0 1 365.71 364.88
  L 369.21 364.83
  Z"
/>
<path fill="#3e6140" d="
  M 407.03 390.23
  L 408.21 390.25
  L 418.40 390.40
  A 0.26 0.26 0.0 0 1 418.65 390.66
  L 418.65 390.92
  A 0.01 0.01 0.0 0 1 418.64 390.93
  L 409.43 391.38
  L 404.32 391.44
  L 400.04 391.61
  L 398.04 391.62
  L 347.98 392.17
  L 345.71 392.14
  Q 344.58 392.33 343.81 392.01
  A 0.16 0.16 0.0 0 1 343.85 391.70
  Q 347.94 391.24 352.00 391.12
  Q 379.51 390.25 407.03 390.23
  Z"
/>
<path fill="#15321f" d="
  M 408.21 390.25
  L 407.03 390.23
  Q 407.72 390.56 408.21 390.25
  Z"
/>
<path fill="#15321f" d="
  M 409.43 391.38
  L 404.32 391.44
  L 409.43 391.38
  Z"
/>
<path fill="#15321f" d="
  M 400.04 391.61
  L 398.04 391.62
  L 400.04 391.61
  Z"
/>
<path fill="#15321f" d="
  M 347.98 392.17
  Q 346.86 392.71 345.71 392.14
  L 347.98 392.17
  Z"
/>
<path fill="#15321f" d="
  M 472.9514 404.9904
  A 5.11 4.69 -34.3 0 1 471.3729 411.7444
  A 5.11 4.69 -34.3 0 1 464.5086 410.7496
  A 5.11 4.69 -34.3 0 1 466.0871 403.9956
  A 5.11 4.69 -34.3 0 1 472.9514 404.9904
  Z
  M 467.6695 407.8574
  A 1.00 0.95 -187.9 0 0 468.7906 408.6610
  A 1.00 0.95 -187.9 0 0 469.6505 407.5826
  A 1.00 0.95 -187.9 0 0 468.5294 406.7790
  A 1.00 0.95 -187.9 0 0 467.6695 407.8574
  Z"
/>
<ellipse fill="#3e6140" cx="0.00" cy="0.00" transform="translate(515.44,405.90) rotate(-0.7)" rx="26.12" ry="0.92"/>
<ellipse fill="#15321f" cx="0.00" cy="0.00" transform="translate(366.24,412.01) rotate(-178.0)" rx="2.46" ry="0.16"/>
<ellipse fill="#15321f" cx="0.00" cy="0.00" transform="translate(349.74,412.38) rotate(-180.0)" rx="0.65" ry="0.01"/>
<path fill="#3e6140" d="
  M 914.55 419.03
  A 0.10 0.10 0.0 0 1 914.64 419.13
  L 914.64 419.14
  A 0.16 0.15 -2.0 0 1 914.49 419.29
  Q 899.07 419.97 879.51 421.60
  Q 842.60 424.69 808.60 434.40
  Q 780.47 442.44 773.79 444.11
  C 766.72 445.88 758.32 447.15 752.90 448.40
  C 743.42 450.60 735.07 452.35 726.13 453.68
  A 0.22 0.22 0.0 0 1 725.89 453.40
  Q 725.96 453.17 726.24 453.12
  Q 734.94 451.60 746.83 447.80
  A 0.89 0.89 0.0 0 0 747.41 446.68
  Q 745.18 439.64 739.59 432.91
  Q 738.84 432.01 738.95 431.38
  A 1.02 1.01 -66.0 0 1 740.59 430.75
  Q 748.27 436.97 750.21 445.94
  A 1.11 1.11 0.0 0 0 751.60 446.77
  L 754.89 445.84
  A 0.76 0.75 68.5 0 0 755.35 444.77
  Q 755.33 444.73 754.55 441.05
  Q 754.12 439.01 754.10 437.41
  Q 754.06 433.41 753.63 426.11
  A 1.13 1.13 0.0 0 1 754.70 424.92
  L 755.02 424.97
  A 1.65 1.64 -86.5 0 1 756.39 426.52
  L 757.11 444.36
  A 1.00 1.00 0.0 0 0 758.38 445.28
  L 760.77 444.60
  A 0.84 0.83 89.5 0 0 761.35 444.00
  C 762.45 439.60 763.23 436.29 766.05 433.46
  A 0.49 0.49 0.0 0 1 766.87 433.66
  Q 767.00 434.12 766.83 434.55
  Q 763.57 442.79 763.53 442.90
  A 0.71 0.71 0.0 0 0 764.40 443.84
  C 768.57 442.58 772.74 441.86 777.16 440.59
  C 794.43 435.65 810.59 430.47 826.10 426.93
  Q 869.50 417.02 914.55 419.03
  Z"
/>
<ellipse fill="#3e6140" cx="0.00" cy="0.00" transform="translate(919.47,419.12) rotate(0.1)" rx="1.14" ry="0.03"/>
<path fill="#15321f" d="
  M 482.52 438.22
  Q 484.01 438.35 484.21 438.42
  A 0.37 0.37 0.0 0 1 484.12 439.14
  Q 482.62 439.27 482.22 438.83
  A 0.37 0.36 -18.9 0 1 482.52 438.22
  Z"
/>
<path fill="#15321f" d="
  M 473.10 441.86
  A 0.76 0.51 -33.0 0 1 473.60 440.69
  Q 473.90 440.64 474.18 440.98
  A 0.50 0.50 0.0 0 1 474.02 441.74
  Q 473.58 441.96 473.10 441.86
  Z"
/>
<path fill="#15321f" d="
  M 463.36 441.87
  Q 462.67 442.69 462.22 442.67
  A 0.77 0.75 31.4 0 1 461.85 441.25
  Q 462.29 441.02 463.15 441.24
  A 0.40 0.39 27.3 0 1 463.36 441.87
  Z"
/>
<path fill="#15321f" d="
  M 466.05 443.34
  Q 466.48 441.80 467.63 442.05
  Q 468.86 442.32 469.27 443.34
  A 0.44 0.44 0.0 0 1 468.76 443.94
  Q 466.51 443.44 465.85 444.89
  A 0.79 0.78 -74.0 0 1 465.03 445.35
  Q 464.59 445.28 464.30 444.94
  A 0.34 0.34 0.0 0 1 464.42 444.41
  L 465.52 443.94
  A 0.97 0.97 0.0 0 0 466.05 443.34
  Z"
/>
<ellipse fill="#15321f" cx="0.00" cy="0.00" transform="translate(458.52,444.94) rotate(-17.4)" rx="0.83" ry="0.69"/>
<path fill="#3e6140" d="
  M 770.26 540.13
  Q 769.94 541.27 769.51 541.17
  C 766.56 535.58 762.91 531.60 757.18 528.47
  C 752.74 526.05 750.67 524.50 746.50 522.76
  Q 730.98 516.31 726.02 514.97
  C 719.24 513.14 713.51 510.96 707.25 509.62
  C 700.75 508.23 695.84 506.28 689.45 505.14
  C 683.92 504.15 676.10 501.55 670.46 500.41
  Q 645.54 495.38 622.34 488.36
  Q 613.69 485.75 608.07 481.81
  Q 605.97 480.34 604.85 478.26
  A 3.32 3.29 41.5 0 1 604.67 475.55
  Q 606.66 470.27 611.75 467.23
  Q 617.69 463.70 624.08 461.63
  Q 635.45 457.95 646.03 455.85
  C 658.37 453.40 665.64 451.82 676.36 450.43
  Q 700.69 447.27 713.99 446.53
  Q 727.76 445.75 744.36 445.77
  A 0.59 0.56 63.5 0 1 744.72 445.90
  L 745.47 446.54
  A 0.38 0.38 0.0 0 1 745.13 447.19
  C 743.05 446.68 741.46 447.35 739.38 447.46
  Q 737.60 447.56 727.00 448.05
  C 715.04 448.60 702.29 450.20 691.20 451.28
  C 680.43 452.32 671.75 454.11 659.53 456.07
  Q 637.91 459.54 619.98 465.73
  C 616.44 466.95 607.28 471.00 606.66 474.90
  C 606.08 478.58 612.27 481.86 614.91 482.82
  Q 630.06 488.36 647.38 492.12
  Q 661.82 495.26 666.65 496.54
  C 674.56 498.64 683.85 500.22 692.38 502.38
  Q 708.59 506.49 729.65 513.04
  Q 736.98 515.32 740.95 517.10
  C 750.78 521.54 756.98 524.18 763.47 529.55
  Q 768.27 533.52 770.26 540.13
  Z"
/>
<path fill="#15321f" d="
  M 484.23 447.49
  Q 484.74 446.97 485.10 446.94
  A 0.37 0.37 0.0 0 1 485.32 447.64
  Q 485.15 447.73 484.45 447.89
  A 0.24 0.24 0.0 0 1 484.23 447.49
  Z"
/>
<ellipse fill="#15321f" cx="0.00" cy="0.00" transform="translate(481.17,447.75) rotate(-158.7)" rx="0.83" ry="0.36"/>
<ellipse fill="#15321f" cx="0.00" cy="0.00" transform="translate(468.65,448.60) rotate(-31.5)" rx="1.19" ry="0.43"/>
<ellipse fill="#15321f" cx="0.00" cy="0.00" transform="translate(473.47,448.56) rotate(-16.8)" rx="0.59" ry="0.31"/>
<circle fill="#15321f" cx="450.43" cy="449.38" r="0.09"/>
<path fill="#15321f" d="
  M 446.55 452.82
  A 0.16 0.16 0.0 0 1 446.26 452.76
  Q 446.23 452.57 446.37 452.37
  A 0.14 0.13 44.2 0 1 446.60 452.37
  Q 446.70 452.55 446.55 452.82
  Z"
/>
<ellipse fill="#15321f" cx="0.00" cy="0.00" transform="translate(721.87,454.10) rotate(-4.1)" rx="1.73" ry="0.29"/>
<ellipse fill="#15321f" cx="0.00" cy="0.00" transform="translate(468.17,454.70) rotate(-47.3)" rx="0.40" ry="0.13"/>
<rect fill="#3e6140" x="-9.03" y="-0.34" transform="translate(704.62,458.39) rotate(-16.7)" width="18.06" height="0.68" rx="0.28"/>
<path fill="#15321f" d="
  M 448.09 549.55
  Q 447.45 549.80 447.46 551.03
  Q 447.46 551.72 447.88 553.47
  A 0.50 0.39 52.0 0 1 447.88 553.66
  L 446.22 561.66
  A 0.19 0.19 0.0 0 1 446.00 561.81
  L 445.62 561.75
  A 0.25 0.25 0.0 0 1 445.43 561.43
  Q 446.06 559.55 445.86 558.50
  C 445.39 556.06 446.79 554.94 446.43 552.71
  Q 446.28 551.79 446.52 549.84
  Q 447.18 544.41 447.41 542.00
  Q 447.49 541.23 447.23 539.96
  A 3.49 3.35 -52.0 0 1 447.16 539.27
  Q 447.31 526.40 448.01 515.50
  Q 448.04 515.09 447.76 514.23
  A 2.16 2.08 41.3 0 1 447.68 513.28
  Q 448.04 510.98 447.83 505.00
  Q 447.39 493.14 447.25 475.75
  Q 447.24 473.67 447.56 471.50
  Q 447.75 470.19 447.21 466.53
  Q 446.86 464.10 448.29 460.44
  A 0.39 0.39 0.0 0 1 448.75 460.21
  L 448.78 460.22
  A 0.46 0.46 0.0 0 1 449.10 460.78
  Q 448.75 462.02 448.38 465.27
  C 448.05 468.19 449.22 471.06 448.30 474.01
  A 2.72 2.70 -37.7 0 0 448.18 474.93
  Q 448.42 479.26 448.29 491.90
  C 448.25 496.62 449.07 501.47 448.89 506.24
  C 448.82 508.22 449.18 509.67 449.17 511.35
  Q 449.08 520.51 448.57 532.81
  C 448.48 534.81 449.00 536.60 448.28 538.44
  A 2.09 2.06 48.4 0 0 448.21 539.77
  L 448.60 541.14
  A 1.70 1.56 -55.0 0 1 448.67 541.68
  L 448.31 549.25
  A 0.34 0.34 0.0 0 1 448.09 549.55
  Z"
/>
<path fill="#15321f" d="
  M 694.22 461.44
  Q 694.60 461.15 694.98 461.10
  A 0.10 0.10 0.0 0 1 695.02 461.29
  Q 694.62 461.42 694.22 461.44
  Z"
/>
<path fill="#3e6140" d="
  M 694.22 461.44
  C 691.97 462.98 689.10 463.03 687.63 465.55
  A 2.43 2.09 34.1 0 0 688.42 468.46
  C 692.54 471.56 697.82 472.22 704.21 473.59
  Q 710.05 474.84 713.26 475.39
  Q 742.25 480.40 784.24 487.08
  Q 828.66 494.14 870.57 505.37
  A 0.40 0.40 0.0 0 0 871.07 504.93
  Q 869.31 493.48 865.81 480.98
  A 1.49 1.47 -24.8 0 1 866.42 479.35
  L 866.45 479.33
  A 0.96 0.96 0.0 0 1 867.84 479.72
  Q 873.22 491.12 873.63 503.50
  A 1.43 1.29 -42.1 0 1 873.59 503.90
  L 873.22 505.42
  A 0.61 0.61 0.0 0 0 873.60 506.14
  L 877.94 507.71
  A 0.47 0.47 0.0 0 0 878.56 507.19
  Q 878.09 504.25 878.32 503.14
  Q 880.97 490.87 888.91 483.68
  Q 889.47 483.17 889.95 483.20
  A 0.96 0.95 18.2 0 1 890.70 484.68
  Q 885.14 493.07 881.54 501.82
  C 880.68 503.94 880.38 505.96 879.17 507.54
  A 0.34 0.34 0.0 0 0 879.35 508.07
  Q 900.77 514.04 921.47 523.34
  Q 932.70 528.39 938.54 532.65
  Q 946.25 538.29 953.04 545.53
  A 5.83 5.71 9.7 0 1 953.83 546.62
  C 957.50 553.26 960.20 558.63 959.19 565.66
  C 957.75 575.80 951.40 585.37 944.16 592.41
  Q 933.90 602.40 922.20 610.95
  C 900.26 627.00 873.39 643.22 854.96 655.99
  Q 842.33 664.74 819.74 681.89
  C 818.38 682.92 815.89 685.65 815.18 685.91
  A 0.11 0.11 0.0 0 1 815.04 685.83
  Q 815.02 685.74 815.13 685.63
  Q 833.56 668.24 849.68 656.45
  Q 872.08 640.06 902.15 620.66
  Q 904.79 618.96 923.34 605.78
  C 933.18 598.78 940.82 591.69 947.96 583.23
  C 952.88 577.43 957.69 567.68 956.24 559.76
  Q 954.74 551.55 948.97 545.27
  C 939.61 535.07 928.52 529.75 914.28 523.61
  Q 895.72 515.59 874.38 509.95
  Q 870.74 508.98 868.92 508.08
  A 3.47 3.31 63.1 0 0 868.13 507.80
  Q 859.73 505.82 842.45 501.63
  Q 827.30 497.95 798.49 492.55
  Q 776.48 488.43 720.10 478.67
  Q 709.19 476.78 695.46 473.28
  C 691.57 472.29 683.19 469.43 687.45 464.23
  A 1.34 1.22 -78.7 0 1 687.98 463.84
  L 694.22 461.44
  Z"
/>
<path fill="#15321f" d="
  M 623.93 473.06
  Q 623.92 473.01 624.09 472.86
  A 0.12 0.11 -88.1 0 1 624.24 473.03
  Q 624.23 473.05 624.08 473.13
  A 0.10 0.10 0.0 0 1 623.93 473.06
  Z"
/>
<path fill="#15321f" d="
  M 454.83 512.97
  Q 454.74 512.70 454.75 512.28
  A 0.40 0.40 0.0 0 1 455.46 512.03
  Q 455.59 512.18 455.35 512.96
  A 0.27 0.27 0.0 0 1 454.83 512.97
  Z"
/>
<path fill="#15321f" d="
  M 718.48 516.68
  Q 718.85 516.93 718.86 516.97
  A 0.18 0.18 0.0 0 1 718.70 517.21
  Q 718.50 517.24 718.23 517.01
  A 0.21 0.21 0.0 0 1 718.48 516.68
  Z"
/>
<ellipse fill="#15321f" cx="0.00" cy="0.00" transform="translate(735.24,520.91) rotate(-29.0)" rx="0.67" ry="0.48"/>
<circle fill="#15321f" cx="742.64" cy="527.25" r="0.25"/>
<rect fill="#15321f" x="464.09" y="528.83" width="1.02" height="48.12" rx="0.49"/>
<path fill="#15321f" d="
  M 769.51 541.17
  Q 769.94 541.27 770.26 540.13
  Q 771.35 550.26 762.49 557.24
  C 757.09 561.50 752.71 564.60 746.66 567.50
  Q 728.99 575.97 720.58 578.81
  Q 716.32 580.24 710.45 582.42
  Q 694.28 588.40 674.95 594.38
  Q 648.02 602.72 577.12 623.61
  C 572.91 624.85 567.22 626.02 562.25 627.51
  Q 555.47 629.54 543.58 632.32
  A 2.30 2.25 -76.0 0 0 542.36 633.07
  L 523.05 655.63
  A 1.28 1.28 0.0 0 1 520.82 654.57
  Q 521.13 652.91 522.27 651.01
  Q 526.72 643.59 533.47 638.38
  A 0.31 0.31 0.0 0 0 533.48 637.90
  L 533.18 637.64
  A 0.09 0.09 0.0 0 0 533.07 637.63
  Q 522.33 643.74 516.34 649.43
  C 514.19 651.46 511.48 652.71 509.75 655.46
  A 1.01 1.01 0.0 0 1 508.03 655.45
  C 506.18 652.39 508.40 644.73 509.55 641.52
  C 512.94 631.98 516.73 622.00 522.12 613.80
  A 0.27 0.27 0.0 0 0 521.86 613.38
  Q 520.88 613.49 520.39 614.17
  C 514.99 621.72 509.98 628.09 506.15 636.39
  Q 503.39 642.38 499.59 651.39
  A 1.06 1.06 0.0 0 1 497.55 651.04
  C 497.38 648.11 498.73 645.91 499.13 643.24
  A 3.80 3.75 -28.7 0 1 499.43 642.24
  Q 501.63 637.50 503.54 633.38
  C 507.07 625.76 512.32 618.46 517.75 612.01
  Q 520.83 608.36 524.94 604.95
  C 526.74 603.47 528.55 604.01 528.49 606.48
  Q 528.45 607.79 527.87 609.08
  Q 519.99 626.39 514.05 642.39
  Q 514.04 642.43 514.03 642.47
  L 512.69 649.04
  A 0.50 0.50 0.0 0 0 513.54 649.48
  Q 523.57 638.86 536.41 632.91
  Q 539.34 631.56 542.40 632.02
  A 2.27 2.21 -51.1 0 0 543.57 631.88
  Q 557.92 626.01 571.15 621.65
  Q 582.26 617.98 612.41 608.96
  Q 656.87 595.65 687.55 586.13
  Q 719.49 576.21 742.70 565.70
  C 749.37 562.68 757.22 558.32 763.19 552.92
  Q 767.72 548.83 769.51 541.17
  Z"
/>
<ellipse fill="#15321f" cx="0.00" cy="0.00" transform="translate(647.63,578.72) rotate(-86.3)" rx="17.01" ry="1.71"/>
<ellipse fill="#15321f" cx="0.00" cy="0.00" transform="translate(446.63,566.05) rotate(-77.9)" rx="0.83" ry="0.17"/>
<path fill="#15321f" d="
  M 660.53 582.73
  Q 657.94 587.06 655.58 591.78
  Q 655.32 592.30 654.93 592.57
  A 0.48 0.47 -17.1 0 1 654.19 592.19
  C 654.21 587.84 655.54 584.68 657.72 581.05
  C 659.89 577.42 662.05 574.74 665.87 572.68
  A 0.48 0.47 78.9 0 1 666.56 573.15
  Q 666.51 573.62 666.17 574.09
  Q 663.12 578.40 660.53 582.73
  Z"
/>
<path fill="#15321f" d="
  M 446.23 592.75
  L 445.37 590.15
  A 1.03 1.03 0.0 0 1 445.52 589.21
  Q 447.30 586.86 446.43 582.45
  Q 445.99 580.21 446.22 579.43
  Q 446.89 577.19 446.33 575.05
  A 0.32 0.32 0.0 0 1 446.85 574.72
  L 447.34 575.14
  A 0.10 0.10 0.0 0 1 447.38 575.22
  L 446.83 583.87
  A 1.42 1.33 -60.4 0 0 447.03 584.69
  C 448.75 587.51 444.66 588.57 446.76 592.23
  A 0.34 0.33 -26.5 0 1 446.60 592.70
  L 446.35 592.81
  A 0.09 0.09 0.0 0 1 446.23 592.75
  Z"
/>
<path fill="#15321f" d="
  M 630.70 578.90
  A 0.15 0.15 0.0 0 1 630.78 578.70
  L 630.86 578.67
  A 9.70 2.25 67.6 0 1 636.63 586.78
  L 636.78 587.13
  A 9.70 2.25 67.6 0 1 638.39 596.96
  L 638.32 596.99
  A 0.15 0.15 0.0 0 1 638.13 596.91
  L 630.70 578.90
  Z"
/>
<ellipse fill="#3e6140" cx="0.00" cy="0.00" transform="translate(814.01,580.37) rotate(-7.7)" rx="0.60" ry="0.28"/>
<ellipse fill="#3e6140" cx="0.00" cy="0.00" transform="translate(795.25,580.59) rotate(-179.4)" rx="1.03" ry="0.27"/>
<path fill="#15321f" d="
  M 708.37 586.77
  Q 708.56 586.82 708.63 587.05
  A 0.17 0.17 0.0 0 1 708.31 587.18
  Q 708.20 586.97 708.20 586.96
  A 0.15 0.14 87.6 0 1 708.37 586.77
  Z"
/>
<path fill="#15321f" d="
  M 714.71 588.72
  Q 715.49 589.76 715.85 590.63
  Q 715.97 590.91 715.95 590.99
  A 0.15 0.14 -51.1 0 1 715.68 591.02
  Q 715.12 589.90 714.41 588.94
  Q 713.70 587.98 712.78 587.13
  A 0.15 0.14 -22.2 0 1 712.89 586.88
  Q 712.97 586.88 713.21 587.08
  Q 713.93 587.67 714.71 588.72
  Z"
/>
<path fill="#15321f" d="
  M 701.80 589.00
  Q 702.02 588.96 702.07 589.02
  A 0.21 0.21 0.0 0 1 701.77 589.31
  Q 701.71 589.27 701.76 589.05
  A 0.05 0.05 0.0 0 1 701.80 589.00
  Z"
/>
<path fill="#15321f" d="
  M 696.48 590.70
  A 0.13 0.13 0.0 0 1 696.33 590.91
  Q 696.17 590.82 696.15 590.71
  A 0.10 0.10 0.0 0 1 696.26 590.60
  Q 696.40 590.62 696.48 590.70
  Z"
/>
<path fill="#15321f" d="
  M 421.04 652.47
  L 420.88 655.02
  A 1.09 1.07 80.3 0 1 420.23 655.95
  Q 418.47 656.71 417.08 655.98
  A 1.53 1.53 0.0 0 1 416.41 655.25
  Q 411.80 644.18 410.93 641.63
  Q 401.93 615.22 392.88 597.43
  A 6.14 6.10 25.5 0 1 392.34 595.92
  L 391.80 593.46
  A 1.10 1.10 0.0 0 1 393.18 592.17
  C 395.93 592.98 400.54 601.17 402.35 604.39
  Q 411.16 620.14 415.88 633.57
  Q 419.25 643.17 419.50 643.68
  C 420.41 645.58 420.09 647.80 421.62 649.70
  Q 422.35 650.63 421.36 651.71
  A 1.31 1.27 -23.1 0 0 421.04 652.47
  Z
  M 405.17 618.40
  Q 407.21 622.53 408.02 623.69
  A 0.39 0.39 0.0 0 0 408.71 623.35
  Q 407.56 619.60 406.61 617.68
  Q 405.66 615.77 403.37 612.58
  A 0.39 0.39 0.0 0 0 402.69 612.93
  Q 403.12 614.27 405.17 618.40
  Z
  M 409.57 627.30
  Q 409.40 627.32 409.29 627.34
  A 0.35 0.35 0.0 0 0 409.02 627.82
  L 415.09 642.00
  A 0.29 0.29 0.0 0 0 415.64 641.91
  Q 415.71 641.19 415.40 640.36
  Q 413.01 633.73 410.05 627.26
  Q 409.79 626.14 409.28 625.33
  A 0.20 0.20 0.0 0 0 408.91 625.42
  Q 408.86 626.31 409.57 627.30
  Z"
/>
<path fill="#15321f" d="
  M 447.25 596.75
  Q 447.37 597.42 447.12 598.01
  A 0.23 0.23 0.0 0 1 446.70 598.00
  Q 446.51 597.48 446.40 596.91
  Q 446.30 596.33 446.30 595.77
  A 0.23 0.23 0.0 0 1 446.69 595.62
  Q 447.13 596.09 447.25 596.75
  Z"
/>
<ellipse fill="#15321f" cx="0.00" cy="0.00" transform="translate(446.63,601.72) rotate(-87.0)" rx="0.99" ry="0.30"/>
<path fill="#3e6140" d="
  M 406.61 617.68
  Q 407.56 619.60 408.71 623.35
  A 0.39 0.39 0.0 0 1 408.02 623.69
  Q 407.21 622.53 405.17 618.40
  Q 403.12 614.27 402.69 612.93
  A 0.39 0.39 0.0 0 1 403.37 612.58
  Q 405.66 615.77 406.61 617.68
  Z"
/>
<ellipse fill="#15321f" cx="0.00" cy="0.00" transform="translate(643.55,613.37) rotate(-178.7)" rx="0.94" ry="0.17"/>
<path fill="#15321f" d="
  M 422.90 648.87
  L 422.85 648.86
  A 1.34 1.34 0.0 0 1 421.89 647.60
  Q 421.79 640.86 421.47 637.36
  C 420.90 631.22 421.65 623.54 420.86 616.76
  Q 420.78 616.10 421.03 614.73
  A 0.76 0.76 0.0 0 1 422.51 614.66
  Q 426.38 628.25 429.27 642.48
  Q 430.13 646.71 430.33 651.33
  A 1.24 1.24 0.0 0 1 428.66 652.55
  L 428.57 652.51
  A 2.79 2.78 -81.1 0 1 426.99 650.33
  L 424.66 631.43
  A 1.11 1.11 0.0 0 0 423.93 630.51
  L 423.81 630.47
  A 0.72 0.72 0.0 0 0 423.08 631.22
  L 423.76 648.18
  A 0.69 0.68 -83.5 0 1 422.90 648.87
  Z"
/>
<path fill="#15321f" d="
  M 938.38 614.40
  L 938.44 614.39
  A 0.61 0.61 0.0 0 1 939.21 615.11
  Q 934.54 635.64 930.81 654.06
  A 0.71 0.69 -67.4 0 1 929.73 654.52
  Q 929.36 654.27 929.19 653.57
  Q 928.30 649.93 928.95 645.72
  Q 931.18 631.32 937.05 615.64
  A 2.04 2.02 1.7 0 1 938.38 614.40
  Z"
/>
<path fill="#15321f" d="
  M 911.54 622.44
  Q 911.55 622.20 911.64 622.13
  A 0.12 0.11 -83.6 0 1 911.77 622.31
  Q 911.72 622.36 911.56 622.45
  A 0.01 0.01 0.0 0 1 911.54 622.44
  Z"
/>
<path fill="#15321f" d="
  M 958.75 625.74
  A 0.92 0.92 0.0 0 1 959.34 627.32
  Q 957.99 628.62 954.24 632.74
  Q 946.15 641.58 940.61 653.09
  A 0.86 0.86 0.0 0 1 938.97 652.75
  C 938.73 646.79 941.64 642.58 945.29 637.73
  Q 951.00 630.16 957.84 626.10
  Q 958.47 625.73 958.75 625.74
  Z"
/>
<path fill="#15321f" d="
  M 405.31 657.37
  Q 402.91 655.78 402.26 654.68
  Q 396.35 644.63 388.50 635.75
  Q 382.28 628.71 381.04 626.95
  Q 380.83 626.65 380.87 626.34
  A 0.41 0.41 0.0 0 1 381.50 626.04
  Q 393.68 633.74 402.65 645.59
  Q 405.03 648.73 406.94 653.82
  A 1.29 1.29 0.0 0 1 406.94 654.70
  L 406.07 657.12
  A 0.51 0.51 0.0 0 1 405.31 657.37
  Z"
/>
<path fill="#3e6140" d="
  M 409.57 627.30
  C 409.86 627.78 410.08 628.31 410.12 628.88
  C 410.15 628.37 410.09 627.81 410.05 627.26
  Q 413.01 633.73 415.40 640.36
  Q 415.71 641.19 415.64 641.91
  A 0.29 0.29 0.0 0 1 415.09 642.00
  L 409.02 627.82
  A 0.35 0.35 0.0 0 1 409.29 627.34
  Q 409.40 627.32 409.57 627.30
  Z"
/>
<ellipse fill="#15321f" cx="0.00" cy="0.00" transform="translate(914.03,630.03) rotate(-31.1)" rx="0.49" ry="0.23"/>
<path fill="#15321f" d="
  M 918.94 644.86
  C 919.93 648.01 920.97 651.62 920.87 655.01
  A 0.91 0.91 0.0 0 1 919.24 655.53
  Q 918.86 655.03 918.62 654.19
  Q 917.40 649.85 916.12 645.74
  Q 914.84 641.63 913.37 637.37
  Q 913.09 636.55 913.12 635.92
  A 0.91 0.91 0.0 0 1 914.76 635.42
  C 916.77 638.15 917.96 641.72 918.94 644.86
  Z"
/>
<path fill="#15321f" d="
  M 356.98 642.78
  A 0.41 0.40 55.9 0 1 357.13 641.99
  C 369.48 643.13 382.86 646.67 393.27 653.74
  A 1.77 1.76 -62.0 0 1 393.92 655.87
  L 393.89 655.96
  A 1.21 1.21 0.0 0 1 392.13 656.53
  C 381.33 649.83 370.54 646.92 356.98 642.78
  Z"
/>
<path fill="#15321f" d="
  M 496.69 642.30
  Q 497.11 642.20 497.18 642.24
  A 0.38 0.37 -38.5 0 1 497.10 642.91
  Q 496.78 643.03 496.63 642.96
  A 0.35 0.35 0.0 0 1 496.69 642.30
  Z"
/>
<path fill="#15321f" d="
  M 565.68 652.11
  A 0.71 0.67 -4.2 0 1 565.00 652.86
  Q 551.00 653.39 537.06 656.78
  A 1.76 1.75 75.0 0 1 534.96 655.56
  L 534.94 655.50
  A 1.76 1.76 0.0 0 1 536.05 653.34
  Q 550.53 648.26 564.85 651.35
  Q 565.61 651.51 565.68 652.11
  Z"
/>
<path fill="#15321f" d="
  M 450.69 653.58
  L 450.92 653.42
  A 0.23 0.14 -29.2 0 1 451.22 653.43
  Q 451.23 653.46 451.35 653.53
  A 0.11 0.05 -17.5 0 1 451.24 653.63
  Q 450.96 653.67 450.71 653.63
  A 0.03 0.03 0.0 0 1 450.69 653.58
  Z"
/>
<path fill="#15321f" d="
  M 426.34 655.72
  Q 425.88 655.06 425.99 654.58
  A 0.43 0.42 -48.6 0 1 426.80 654.52
  Q 426.88 654.79 426.85 655.57
  A 0.28 0.28 0.0 0 1 426.34 655.72
  Z"
/>
<path fill="#15321f" d="
  M 588.55 654.66
  Q 587.93 654.85 587.62 654.72
  A 0.28 0.27 -39.7 0 1 587.67 654.20
  Q 588.04 654.12 588.53 654.22
  A 0.23 0.23 0.0 0 1 588.55 654.66
  Z"
/>
<path fill="#3e6140" d="
  M 429.23 654.91
  Q 429.82 655.20 430.06 655.81
  Q 430.14 657.27 431.46 658.06
  A 1.36 1.33 8.5 0 1 432.06 658.85
  L 432.41 660.06
  A 0.63 0.62 17.0 0 1 431.33 660.63
  Q 430.09 659.17 429.02 658.84
  A 0.50 0.50 0.0 0 0 428.58 658.92
  Q 428.35 659.08 428.34 659.45
  A 0.27 0.26 7.8 0 0 428.55 659.72
  Q 428.80 659.77 428.84 659.86
  A 0.86 0.80 78.9 0 1 428.09 661.08
  Q 424.71 660.81 422.02 659.38
  Q 421.07 658.55 419.02 658.74
  L 418.72 658.65
  A 0.18 0.17 -38.8 0 1 418.76 658.31
  L 424.55 657.90
  A 0.68 0.67 6.0 0 1 425.25 658.76
  Q 425.14 659.17 425.34 659.40
  Q 425.50 659.58 426.01 659.61
  A 0.29 0.29 0.0 0 0 426.21 659.09
  Q 425.91 658.85 425.71 658.19
  Q 425.55 657.62 426.11 657.74
  Q 426.14 657.74 427.15 657.72
  A 0.77 0.76 -79.3 0 0 427.86 657.23
  Q 428.39 655.90 429.23 654.91
  Z"
/>
<ellipse fill="#15321f" cx="0.00" cy="0.00" transform="translate(445.62,655.44) rotate(-18.4)" rx="0.55" ry="0.44"/>
<ellipse fill="#15321f" cx="0.00" cy="0.00" transform="translate(423.03,655.60) rotate(-177.2)" rx="0.74" ry="0.48"/>
<ellipse fill="#15321f" cx="0.00" cy="0.00" transform="translate(500.17,655.63) rotate(-161.7)" rx="1.19" ry="0.24"/>
<path fill="#15321f" d="
  M 407.77 658.68
  Q 407.18 658.93 406.49 658.93
  A 0.28 0.28 0.0 0 1 406.43 658.37
  Q 406.92 658.27 407.50 658.02
  Q 408.07 657.78 408.49 657.50
  A 0.28 0.28 0.0 0 1 408.85 657.92
  Q 408.37 658.42 407.77 658.68
  Z"
/>
<path fill="#3e6140" d="
  M 440.90 661.36
  Q 441.67 661.31 441.85 662.20
  A 0.49 0.49 0.0 0 1 441.18 662.76
  L 439.67 662.15
  A 0.49 0.49 0.0 0 0 439.12 662.28
  Q 437.89 663.67 438.02 664.17
  A 0.62 0.62 0.0 0 1 437.47 664.95
  L 434.26 665.21
  A 0.90 0.83 -62.7 0 0 433.85 665.36
  L 432.33 666.44
  A 0.81 0.81 0.0 0 1 431.17 665.37
  Q 431.61 664.63 432.86 663.77
  A 0.77 0.76 47.1 0 1 433.76 663.81
  Q 434.44 664.35 436.62 663.90
  A 0.96 0.94 -85.9 0 0 437.31 663.29
  Q 437.93 661.57 438.95 660.40
  A 0.94 0.94 0.0 0 0 438.54 658.89
  Q 438.22 658.79 437.32 658.89
  A 0.33 0.33 0.0 0 1 436.95 658.60
  L 436.91 658.32
  A 0.23 0.23 0.0 0 1 437.11 658.07
  L 439.43 657.78
  A 0.88 0.87 11.7 0 1 440.29 659.09
  Q 439.79 659.96 440.45 661.11
  A 0.49 0.47 73.2 0 0 440.90 661.36
  Z"
/>
<path fill="#15321f" d="
  M 411.59 658.86
  A 0.36 0.32 58.3 0 1 410.97 658.67
  Q 410.95 658.51 411.09 658.41
  Q 411.22 658.33 411.39 658.43
  Q 411.71 658.62 411.59 658.86
  Z"
/>
<ellipse fill="#15321f" cx="0.00" cy="0.00" transform="translate(379.28,659.34) rotate(-26.7)" rx="0.66" ry="0.37"/>
<path fill="#15321f" d="
  M 422.02 659.38
  Q 420.42 659.34 419.02 658.74
  Q 421.07 658.55 422.02 659.38
  Z"
/>
<path fill="#3e6140" d="
  M 409.21 668.15
  L 410.48 668.17
  Q 411.18 669.27 411.75 668.73
  Q 413.40 667.17 414.79 668.68
  Q 416.04 668.86 418.08 667.99
  Q 420.95 668.10 423.23 666.07
  A 0.39 0.39 0.0 0 1 423.87 666.35
  L 423.90 667.12
  A 0.66 0.66 0.0 0 0 424.63 667.75
  Q 425.76 667.64 426.78 667.13
  L 428.47 667.11
  L 431.58 667.73
  A 2.14 2.01 -42.4 0 0 432.31 667.74
  L 434.20 667.45
  Q 434.88 667.66 435.56 667.40
  Q 437.37 668.09 439.16 667.92
  A 1.14 1.12 -70.3 0 0 439.86 667.58
  L 443.09 664.25
  A 0.61 0.61 0.0 0 1 444.12 664.83
  Q 443.89 665.68 444.44 666.49
  A 0.95 0.95 0.0 0 0 444.92 666.85
  L 449.19 668.12
  A 0.93 0.92 -58.9 0 0 450.13 667.88
  L 450.42 667.57
  A 0.73 0.72 44.2 0 1 451.44 667.56
  L 452.25 668.34
  A 0.61 0.60 -46.6 0 0 453.13 668.31
  Q 454.65 666.61 457.16 667.35
  A 1.16 1.09 76.0 0 1 457.69 667.69
  Q 458.04 668.10 458.08 669.25
  A 0.86 0.86 0.0 0 0 459.61 669.76
  Q 460.99 668.00 464.07 667.12
  A 0.65 0.64 -11.7 0 1 464.89 667.65
  Q 464.98 668.26 464.64 669.01
  Q 463.92 668.78 463.69 669.74
  L 459.78 671.14
  Q 458.76 670.85 457.90 672.00
  L 457.54 672.38
  Q 456.84 672.11 456.54 672.46
  Q 456.30 672.71 456.04 672.84
  Q 455.36 672.97 454.83 672.49
  Q 455.68 672.17 455.99 671.69
  A 0.62 0.62 0.0 0 0 455.68 670.77
  L 452.88 669.76
  A 2.79 2.76 46.3 0 0 451.09 669.71
  Q 447.59 670.76 443.41 669.77
  A 1.03 1.00 2.1 0 0 442.15 670.91
  Q 442.26 671.51 441.67 671.80
  A 0.38 0.38 0.0 0 1 441.14 671.32
  Q 441.74 669.81 440.76 668.98
  A 0.87 0.86 52.0 0 0 439.83 668.86
  Q 436.98 670.21 433.52 670.09
  Q 432.58 669.97 431.76 670.21
  L 422.31 670.13
  Q 421.27 669.93 420.45 670.33
  Q 418.23 669.84 416.14 670.42
  A 1.14 1.12 39.7 0 1 415.67 670.46
  L 411.72 669.92
  L 409.45 670.05
  Q 408.10 669.76 406.83 670.04
  L 397.75 670.05
  L 395.46 670.11
  Q 394.96 670.06 394.52 670.23
  Q 392.68 670.29 390.69 669.89
  A 2.34 2.33 -72.4 0 0 388.08 671.25
  Q 387.64 672.27 386.46 671.79
  Q 386.49 671.41 386.30 671.09
  Q 385.89 670.87 385.65 670.60
  A 0.31 0.31 0.0 0 1 385.91 670.09
  Q 388.53 670.30 390.58 669.23
  A 1.36 1.27 -54.4 0 1 391.33 669.08
  L 394.55 669.36
  A 2.12 1.00 2.4 0 0 394.85 669.37
  L 405.58 668.87
  A 0.75 0.74 -28.6 0 0 405.98 667.52
  L 403.09 665.47
  A 0.57 0.21 20.3 0 1 403.02 665.41
  Q 402.33 664.77 403.76 664.43
  A 0.05 0.04 77.6 0 0 403.79 664.37
  Q 403.03 661.26 402.04 660.67
  Q 401.41 660.30 401.36 659.53
  A 0.35 0.35 0.0 0 1 401.94 659.25
  Q 405.20 662.06 404.70 665.16
  A 0.92 0.90 -75.2 0 0 405.27 666.16
  Q 406.50 666.64 408.31 665.36
  A 0.24 0.24 0.0 0 1 408.65 665.68
  Q 407.84 666.99 407.67 667.44
  Q 407.33 668.29 408.02 668.43
  Q 408.46 668.51 409.21 668.15
  Z
  M 442.88 667.50
  Q 442.72 667.26 442.71 667.25
  A 0.21 0.21 0.0 0 0 442.37 667.50
  Q 442.47 667.66 442.80 667.66
  A 0.10 0.10 0.0 0 0 442.88 667.50
  Z"
/>
<path fill="#3e6140" d="
  M 470.97 659.90
  Q 471.57 660.45 472.22 660.38
  Q 472.45 660.46 472.42 660.69
  A 0.16 0.16 0.0 0 1 472.34 660.81
  Q 472.09 660.95 471.46 660.90
  L 470.42 660.86
  A 0.52 0.52 0.0 0 0 469.88 661.36
  L 469.85 662.33
  L 470.76 663.76
  A 0.20 0.20 0.0 0 1 470.49 664.04
  C 468.76 663.00 467.70 662.06 466.40 662.46
  A 0.21 0.21 0.0 0 1 466.25 662.07
  L 470.97 659.90
  Z
  M 468.6600 662.1294
  A 0.03 0.01 -1.1 0 0 468.6298 662.1200
  A 0.03 0.01 -1.1 0 0 468.6000 662.1306
  A 0.03 0.01 -1.1 0 0 468.6302 662.1400
  A 0.03 0.01 -1.1 0 0 468.6600 662.1294
  Z"
/>
<path fill="#15321f" d="
  M 472.22 660.38
  Q 471.57 660.45 470.97 659.90
  Q 472.29 659.90 472.22 660.38
  Z"
/>
<ellipse fill="#15321f" cx="0.00" cy="0.00" transform="translate(390.77,661.14) rotate(-123.9)" rx="1.01" ry="0.71"/>
<path fill="#15321f" d="
  M 471.46 660.90
  Q 469.82 660.72 469.85 662.33
  L 469.88 661.36
  A 0.52 0.52 0.0 0 1 470.42 660.86
  L 471.46 660.90
  Z"
/>
<ellipse fill="#15321f" cx="0.00" cy="0.00" transform="translate(474.23,661.97) rotate(-30.8)" rx="1.20" ry="0.83"/>
<ellipse fill="#15321f" cx="0.00" cy="0.00" transform="translate(367.16,661.60) rotate(-157.9)" rx="0.75" ry="0.25"/>
<path fill="#15321f" d="
  M 369.66 662.37
  L 371.65 661.81
  A 0.18 0.18 0.0 0 1 371.84 662.10
  Q 371.24 662.84 370.79 663.04
  A 0.85 0.84 -36.0 0 1 369.90 662.90
  L 369.61 662.68
  A 0.18 0.17 54.7 0 1 369.66 662.37
  Z"
/>
<path fill="#3e6140" d="
  M 417.05 666.62
  Q 416.68 666.42 416.52 664.60
  Q 419.14 662.74 421.05 662.09
  Q 424.04 661.07 425.20 663.66
  A 0.43 0.43 0.0 0 0 425.94 663.73
  Q 426.58 662.81 427.72 663.28
  Q 428.86 663.76 429.32 664.77
  Q 429.35 664.83 428.66 665.44
  A 0.72 0.71 -50.1 0 1 427.83 665.52
  Q 425.78 664.32 424.40 665.12
  A 0.50 0.50 0.0 0 1 423.67 664.79
  Q 423.52 664.08 422.81 663.53
  A 0.67 0.66 -44.6 0 0 421.98 663.53
  L 420.61 664.60
  A 1.50 1.49 -71.8 0 1 420.10 664.86
  Q 418.30 665.33 417.05 666.62
  Z"
/>
<ellipse fill="#15321f" cx="0.00" cy="0.00" transform="translate(468.63,662.13) rotate(-1.1)" rx="0.03" ry="0.01"/>
<ellipse fill="#15321f" cx="0.00" cy="0.00" transform="translate(465.55,663.51) rotate(-82.9)" rx="1.38" ry="0.37"/>
<path fill="#15321f" d="
  M 362.65 663.17
  Q 362.52 663.22 362.18 662.97
  A 0.11 0.11 0.0 0 1 362.23 662.77
  Q 362.46 662.74 362.60 662.76
  A 0.21 0.21 0.0 0 1 362.65 663.17
  Z"
/>
<path fill="#15321f" d="
  M 396.46 664.02
  L 395.82 663.36
  A 0.41 0.40 -69.6 0 0 395.13 663.68
  L 395.20 664.52
  Q 394.70 664.03 394.87 663.21
  Q 394.97 662.70 395.48 662.81
  Q 396.23 662.98 396.46 664.02
  Z"
/>
<path fill="#15321f" d="
  M 381.73 663.96
  Q 381.12 663.44 380.62 663.54
  Q 380.38 663.58 380.34 663.98
  Q 380.31 664.32 380.05 664.53
  Q 379.58 664.42 379.33 664.25
  A 0.51 0.51 0.0 0 1 379.41 663.36
  Q 381.48 662.46 381.73 663.96
  Z"
/>
<ellipse fill="#15321f" cx="0.00" cy="0.00" transform="translate(358.52,664.05) rotate(-45.9)" rx="0.98" ry="0.28"/>
<path fill="#3e6140" d="
  M 396.46 664.02
  Q 397.72 666.13 399.94 664.09
  Q 401.01 663.59 401.53 664.29
  A 0.34 0.33 68.5 0 1 401.30 664.83
  Q 401.04 664.85 401.74 665.03
  Q 400.11 665.35 398.87 666.25
  A 0.77 0.77 0.0 0 1 398.03 666.28
  L 395.20 664.52
  L 395.13 663.68
  A 0.41 0.40 -69.6 0 1 395.82 663.36
  L 396.46 664.02
  Z"
/>
<path fill="#15321f" d="
  M 401.74 665.03
  Q 401.04 664.85 401.30 664.83
  A 0.34 0.33 68.5 0 0 401.53 664.29
  Q 401.01 663.59 399.94 664.09
  Q 400.44 662.32 402.27 664.50
  A 0.34 0.33 69.6 0 1 402.02 665.05
  Q 401.89 665.05 401.74 665.03
  Z"
/>
<path fill="#3e6140" d="
  M 450.02 666.30
  C 448.66 665.97 447.94 665.78 447.48 664.82
  A 0.63 0.63 0.0 0 1 447.92 663.93
  L 451.87 663.16
  A 0.14 0.14 0.0 0 1 451.99 663.40
  Q 450.69 664.63 450.65 665.82
  A 0.52 0.51 -82.1 0 1 450.02 666.30
  Z"
/>
<path fill="#3e6140" d="
  M 381.73 663.96
  Q 381.96 664.18 382.01 664.42
  Q 382.06 664.71 381.80 664.87
  Q 381.56 665.01 381.18 665.04
  Q 380.41 664.98 380.05 664.53
  Q 380.31 664.32 380.34 663.98
  Q 380.38 663.58 380.62 663.54
  Q 381.12 663.44 381.73 663.96
  Z"
/>
<path fill="#15321f" d="
  M 381.18 665.04
  Q 381.56 665.01 381.80 664.87
  Q 382.06 664.71 382.01 664.42
  Q 381.96 664.18 381.73 663.96
  L 383.43 664.71
  A 0.30 0.30 0.0 0 1 383.43 665.25
  Q 382.42 665.70 381.18 665.04
  Z"
/>
<path fill="#15321f" d="
  M 389.35 664.43
  A 0.40 0.40 0.0 0 1 389.23 665.18
  Q 388.66 665.27 388.05 664.73
  A 0.25 0.25 0.0 0 1 388.24 664.29
  Q 389.29 664.40 389.35 664.43
  Z"
/>
<circle fill="#15321f" cx="489.49" cy="664.50" r="0.35"/>
<ellipse fill="#3e6140" cx="0.00" cy="0.00" transform="translate(366.79,665.04) rotate(-53.5)" rx="0.48" ry="0.29"/>
<path fill="#15321f" d="
  M 411.40 664.41
  Q 411.74 664.21 412.42 664.50
  A 0.26 0.26 0.0 0 1 412.46 664.95
  Q 412.08 665.20 411.55 665.09
  A 0.38 0.36 34.3 0 1 411.40 664.41
  Z"
/>
<path fill="#15321f" d="
  M 499.47 664.76
  Q 499.46 664.93 498.61 665.65
  A 0.30 0.30 0.0 0 1 498.12 665.38
  Q 498.16 665.02 498.95 664.47
  A 0.33 0.33 0.0 0 1 499.47 664.76
  Z"
/>
<path fill="#15321f" d="
  M 416.52 664.60
  Q 416.68 666.42 417.05 666.62
  Q 416.92 668.11 418.08 667.99
  Q 416.04 668.86 414.79 668.68
  Q 416.67 668.59 416.52 664.60
  Z"
/>
<path fill="#15321f" d="
  M 473.47 665.99
  Q 472.37 666.61 471.89 665.54
  A 0.38 0.38 0.0 0 1 472.26 665.00
  Q 473.16 665.06 473.47 665.99
  Z"
/>
<path fill="#15321f" d="
  M 474.21 665.88
  Q 473.94 666.19 474.13 666.46
  A 0.13 0.11 76.7 0 0 474.21 666.52
  L 476.82 667.08
  A 0.20 0.18 10.2 0 0 477.05 666.93
  L 477.10 666.64
  A 0.14 0.14 0.0 0 0 476.99 666.47
  L 475.00 666.02
  Q 478.11 665.70 479.03 668.00
  A 0.45 0.45 0.0 0 1 478.38 668.56
  Q 476.96 667.73 475.90 667.89
  A 0.86 0.85 -11.3 0 1 474.95 667.26
  Q 474.88 666.98 474.03 666.79
  A 1.11 1.02 -16.2 0 1 473.59 666.57
  Q 473.24 666.28 473.47 665.99
  Q 473.82 665.76 474.21 665.88
  Z"
/>
<path fill="#3e6140" d="
  M 474.21 665.88
  Q 474.69 665.86 475.00 666.02
  L 476.99 666.47
  A 0.14 0.14 0.0 0 1 477.10 666.64
  L 477.05 666.93
  A 0.20 0.18 10.2 0 1 476.82 667.08
  L 474.21 666.52
  A 0.13 0.11 76.7 0 1 474.13 666.46
  Q 473.94 666.19 474.21 665.88
  Z"
/>
<ellipse fill="#15321f" cx="0.00" cy="0.00" transform="translate(484.10,666.59) rotate(-37.3)" rx="0.98" ry="0.45"/>
<path fill="#15321f" d="
  M 428.47 667.11
  L 426.78 667.13
  L 428.47 667.11
  Z"
/>
<path fill="#15321f" d="
  M 435.56 667.40
  Q 434.88 667.66 434.20 667.45
  Q 434.78 667.13 435.56 667.40
  Z"
/>
<path fill="#15321f" d="
  M 499.71 669.73
  Q 499.12 669.17 498.31 669.38
  A 0.25 0.25 0.0 0 0 498.13 669.68
  L 498.20 669.93
  A 0.14 0.13 73.7 0 0 498.36 670.02
  L 499.54 669.68
  Q 499.23 670.29 498.92 670.49
  A 0.77 0.77 0.0 0 1 497.92 669.34
  Q 498.73 668.42 500.53 667.41
  A 0.83 0.81 -36.1 0 1 501.52 667.55
  Q 502.03 668.07 502.03 668.99
  A 0.48 0.47 3.3 0 1 501.50 669.46
  Q 500.53 669.34 499.71 669.73
  Z"
/>
<path fill="#3e6140" d="
  M 467.77 669.55
  Q 466.88 669.86 466.82 670.71
  Q 466.49 671.02 466.32 670.70
  Q 465.81 669.70 466.60 669.27
  A 0.70 0.68 79.6 0 0 466.96 668.73
  Q 467.01 668.27 467.12 668.06
  A 0.30 0.30 0.0 0 1 467.67 668.12
  Q 467.89 668.84 467.77 669.55
  Z"
/>
<path fill="#15321f" d="
  M 494.23 668.96
  Q 493.32 668.33 492.79 668.31
  A 0.40 0.40 0.0 0 0 492.50 669.00
  L 493.21 669.64
  Q 492.43 669.80 491.97 669.72
  A 0.73 0.73 0.0 0 1 491.57 668.50
  L 492.03 668.02
  A 0.80 0.78 35.3 0 1 492.95 667.87
  Q 493.67 668.24 494.23 668.96
  Z"
/>
<path fill="#15321f" d="
  M 513.14 669.54
  L 512.18 668.71
  A 0.50 0.49 63.7 0 1 512.47 667.84
  Q 513.13 667.81 513.94 668.73
  A 0.57 0.57 0.0 0 1 513.14 669.54
  Z"
/>
<path fill="#15321f" d="
  M 410.48 668.17
  L 409.21 668.15
  Q 409.81 667.65 410.48 668.17
  Z"
/>
<ellipse fill="#15321f" cx="0.00" cy="0.00" transform="translate(472.08,669.20) rotate(-19.3)" rx="1.99" ry="0.72"/>
<path fill="#3e6140" d="
  M 494.23 668.96
  Q 494.86 668.99 495.00 669.28
  Q 495.21 669.72 494.55 669.83
  Q 493.94 669.94 493.21 669.64
  L 492.50 669.00
  A 0.40 0.40 0.0 0 1 492.79 668.31
  Q 493.32 668.33 494.23 668.96
  Z"
/>
<circle fill="#15321f" cx="517.42" cy="668.67" r="0.40"/>
<path fill="#15321f" d="
  M 350.03 668.91
  Q 350.45 668.72 350.47 668.72
  A 0.18 0.18 0.0 0 1 350.61 669.02
  Q 350.30 669.37 350.20 669.40
  A 0.26 0.26 0.0 0 1 350.03 668.91
  Z"
/>
<ellipse fill="#3e6140" cx="0.00" cy="0.00" transform="translate(343.23,669.73) rotate(-152.9)" rx="1.13" ry="0.51"/>
<path fill="#3e6140" d="
  M 360.03 670.28
  C 358.61 671.46 356.91 670.32 355.62 669.66
  A 0.23 0.23 0.0 0 1 355.54 669.30
  L 355.75 669.06
  A 0.22 0.22 0.0 0 1 356.03 669.01
  Q 358.64 670.50 359.91 670.05
  A 0.13 0.13 0.0 0 1 360.03 670.28
  Z"
/>
<path fill="#15321f" d="
  M 464.64 669.01
  Q 464.47 669.54 463.69 669.74
  Q 463.92 668.78 464.64 669.01
  Z"
/>
<ellipse fill="#15321f" cx="0.00" cy="0.00" transform="translate(528.33,669.54) rotate(-152.5)" rx="0.78" ry="0.33"/>
<ellipse fill="#3e6140" cx="0.00" cy="0.00" transform="translate(346.56,669.68) rotate(-1.4)" rx="0.98" ry="0.30"/>
<path fill="#3e6140" d="
  M 499.71 669.73
  Q 499.63 669.71 499.54 669.68
  L 498.36 670.02
  A 0.14 0.13 73.7 0 1 498.20 669.93
  L 498.13 669.68
  A 0.25 0.25 0.0 0 1 498.31 669.38
  Q 499.12 669.17 499.71 669.73
  Z"
/>
<path fill="#15321f" d="
  M 382.55 670.53
  Q 382.42 669.78 381.16 669.86
  Q 383.74 669.17 382.55 670.53
  Z"
/>
<path fill="#15321f" d="
  M 467.77 669.55
  Q 467.57 670.71 466.82 670.71
  Q 466.88 669.86 467.77 669.55
  Z"
/>
<path fill="#15321f" d="
  M 533.63 669.96
  Q 533.44 669.91 533.41 669.76
  A 0.10 0.10 0.0 0 1 533.55 669.65
  Q 533.56 669.66 533.69 669.88
  A 0.05 0.05 0.0 0 1 533.63 669.96
  Z"
/>
<ellipse fill="#15321f" cx="0.00" cy="0.00" transform="translate(362.51,670.02) rotate(-167.5)" rx="0.74" ry="0.26"/>
<ellipse fill="#3e6140" cx="0.00" cy="0.00" transform="translate(370.64,670.27) rotate(-148.0)" rx="0.81" ry="0.35"/>
<path fill="#15321f" d="
  M 406.83 670.04
  Q 402.60 670.84 397.75 670.05
  L 406.83 670.04
  Z"
/>
<path fill="#15321f" d="
  M 411.72 669.92
  Q 410.59 670.35 409.45 670.05
  L 411.72 669.92
  Z"
/>
<path fill="#3e6140" d="
  M 381.16 669.86
  Q 382.42 669.78 382.55 670.53
  Q 380.27 670.90 379.36 672.35
  A 0.45 0.45 0.0 0 1 378.66 672.44
  L 378.06 671.87
  A 0.44 0.44 0.0 0 1 378.19 671.16
  L 381.16 669.86
  Z"
/>
<path fill="#15321f" d="
  M 395.46 670.11
  L 394.52 670.23
  Q 394.96 670.06 395.46 670.11
  Z"
/>
<path fill="#15321f" d="
  M 422.31 670.13
  L 420.45 670.33
  Q 421.27 669.93 422.31 670.13
  Z"
/>
<path fill="#15321f" d="
  M 433.52 670.09
  L 431.76 670.21
  Q 432.58 669.97 433.52 670.09
  Z"
/>
<path fill="#15321f" d="
  M 524.55 670.12
  A 0.26 0.16 -46.7 0 1 524.47 670.51
  Q 524.30 670.61 524.12 670.49
  A 0.16 0.16 0.0 0 1 524.12 670.23
  Q 524.34 670.08 524.55 670.12
  Z"
/>
<path fill="#15321f" d="
  M 484.81 670.33
  Q 484.87 670.57 484.82 670.62
  A 0.28 0.26 -14.0 0 1 484.35 670.36
  Q 484.38 670.31 484.67 670.24
  A 0.12 0.11 75.4 0 1 484.81 670.33
  Z"
/>
<ellipse fill="#15321f" cx="0.00" cy="0.00" transform="translate(514.56,670.61) rotate(-113.4)" rx="0.44" ry="0.30"/>
<path fill="#15321f" d="
  M 386.46 671.79
  Q 386.22 671.48 386.30 671.09
  Q 386.49 671.41 386.46 671.79
  Z"
/>
<path fill="#15321f" d="
  M 459.78 671.14
  Q 458.87 671.86 457.90 672.00
  Q 458.76 670.85 459.78 671.14
  Z"
/>
<path fill="#15321f" d="
  M 476.25 671.04
  Q 475.23 672.71 477.57 671.90
  A 0.33 0.33 0.0 0 0 477.64 671.31
  Q 477.40 671.15 477.02 671.10
  Q 478.14 670.95 478.37 671.61
  A 0.42 0.42 0.0 0 1 478.15 672.14
  Q 476.76 672.78 474.95 672.68
  Q 474.60 672.14 473.73 672.43
  Q 475.12 671.23 476.25 671.04
  Z"
/>
<path fill="#3e6140" d="
  M 477.02 671.10
  Q 477.40 671.15 477.64 671.31
  A 0.33 0.33 0.0 0 1 477.57 671.90
  Q 475.23 672.71 476.25 671.04
  L 477.02 671.10
  Z"
/>
<path fill="#3e6140" d="
  M 366.35 672.76
  Q 366.27 672.65 366.12 671.81
  A 0.38 0.38 0.0 0 1 366.70 671.43
  Q 367.03 671.66 366.90 672.61
  A 0.31 0.31 0.0 0 1 366.35 672.76
  Z"
/>
<ellipse fill="#15321f" cx="0.00" cy="0.00" transform="translate(374.81,672.07) rotate(-27.3)" rx="1.27" ry="0.31"/>
<path fill="#15321f" d="
  M 437.71 672.42
  Q 438.27 672.16 438.38 672.16
  A 0.29 0.29 0.0 0 1 438.56 672.67
  Q 438.06 673.08 437.70 672.86
  A 0.25 0.25 0.0 0 1 437.71 672.42
  Z"
/>
<ellipse fill="#15321f" cx="0.00" cy="0.00" transform="translate(445.05,673.03) rotate(-36.8)" rx="1.33" ry="0.77"/>
<path fill="#15321f" d="
  M 457.54 672.38
  Q 457.06 672.60 456.54 672.46
  Q 456.84 672.11 457.54 672.38
  Z"
/>
<path fill="#3e6140" d="
  M 474.95 672.68
  Q 474.83 672.74 474.71 672.80
  L 473.28 672.83
  Q 473.67 672.62 473.73 672.43
  Q 474.60 672.14 474.95 672.68
  Z"
/>
<path fill="#15321f" d="
  M 454.83 672.49
  Q 455.36 672.97 456.04 672.84
  Q 455.10 673.69 454.10 673.83
  A 0.37 0.36 7.7 0 1 453.71 673.33
  Q 453.96 672.74 454.83 672.49
  Z"
/>
<ellipse fill="#15321f" cx="0.00" cy="0.00" transform="translate(461.97,672.71) rotate(-176.2)" rx="0.50" ry="0.19"/>
<path fill="#15321f" d="
  M 473.28 672.83
  L 474.71 672.80
  Q 474.28 673.02 473.28 672.83
  Z"
/>
<ellipse fill="#15321f" cx="0.00" cy="0.00" transform="translate(413.99,674.04) rotate(-135.4)" rx="1.38" ry="0.36"/>
<ellipse fill="#15321f" cx="0.00" cy="0.00" transform="translate(434.14,673.69) rotate(-3.5)" rx="2.97" ry="0.40"/>
<circle fill="#15321f" cx="404.49" cy="673.67" r="0.33"/>
<path fill="#3e6140" d="
  M 404.79 677.52
  A 0.31 0.31 0.0 0 1 404.94 678.02
  L 404.66 678.34
  A 0.19 0.17 24.9 0 1 404.47 678.40
  L 402.02 677.74
  A 1.42 1.40 72.0 0 1 401.48 677.46
  L 397.55 674.28
  A 0.29 0.28 26.2 0 1 397.45 674.01
  L 397.51 673.68
  A 0.24 0.24 0.0 0 1 397.90 673.54
  Q 401.10 676.29 404.79 677.52
  Z"
/>
<path fill="#15321f" d="
  M 361.12 674.62
  Q 360.76 674.70 359.11 674.33
  A 0.06 0.06 0.0 0 1 359.08 674.23
  Q 359.15 674.14 359.33 674.09
  Q 360.98 673.66 361.06 673.67
  A 0.48 0.48 0.0 0 1 361.12 674.62
  Z"
/>
<path fill="#15321f" d="
  M 368.15 674.86
  Q 367.55 674.89 367.19 674.51
  A 0.38 0.38 0.0 0 1 367.49 673.87
  Q 367.55 673.87 368.29 674.33
  A 0.29 0.29 0.0 0 1 368.15 674.86
  Z"
/>
<path fill="#15321f" d="
  M 370.98 674.23
  Q 371.30 673.91 371.87 674.24
  A 0.29 0.29 0.0 0 1 371.72 674.78
  L 371.21 674.77
  A 0.32 0.32 0.0 0 1 370.98 674.23
  Z"
/>
<path fill="#3e6140" d="
  M 393.56 677.39
  Q 392.37 676.21 390.55 676.57
  Q 390.30 675.91 390.64 675.43
  Q 391.19 674.65 392.11 675.10
  Q 394.24 676.15 395.64 677.15
  Q 396.24 677.58 396.82 677.25
  Q 397.33 676.96 397.60 677.08
  A 0.33 0.33 0.0 0 1 397.63 677.68
  Q 395.43 678.85 393.56 677.39
  Z"
/>
<path fill="#3e6140" d="
  M 383.75 675.90
  L 385.93 675.71
  Q 389.70 675.84 388.24 677.13
  L 384.77 677.08
  Q 384.61 677.19 384.46 677.30
  Q 384.09 677.32 383.78 677.48
  Q 381.79 678.21 379.46 677.43
  L 378.55 677.21
  Q 377.72 677.06 377.38 676.80
  A 0.50 0.49 -47.4 0 1 377.35 676.04
  Q 378.50 675.02 379.01 675.58
  C 380.12 676.81 382.35 676.46 383.75 675.90
  Z"
/>
<path fill="#15321f" d="
  M 385.93 675.71
  L 383.75 675.90
  Q 384.81 675.20 385.93 675.71
  Z"
/>
<path fill="#15321f" d="
  M 393.56 677.39
  Q 392.13 677.17 390.70 677.56
  A 0.34 0.34 0.0 0 1 390.28 677.14
  Q 390.36 676.86 390.55 676.57
  Q 392.37 676.21 393.56 677.39
  Z"
/>
<path fill="#3e6140" d="
  M 419.50 676.49
  Q 419.57 677.04 420.21 676.87
  Q 420.56 676.92 420.57 677.26
  Q 420.58 678.06 419.45 678.33
  Q 418.97 678.30 418.48 678.51
  L 415.94 677.88
  A 1.40 1.37 36.9 0 0 414.94 678.01
  Q 413.37 678.86 411.51 678.58
  Q 408.09 678.05 406.44 677.77
  A 0.25 0.25 0.0 0 1 406.39 677.28
  Q 408.56 676.47 411.32 677.68
  A 1.46 1.43 -37.1 0 0 412.18 677.79
  L 419.50 676.49
  Z"
/>
<path fill="#15321f" d="
  M 420.21 676.87
  Q 419.57 677.04 419.50 676.49
  L 420.21 676.87
  Z"
/>
<path fill="#15321f" d="
  M 388.24 677.13
  Q 388.04 678.04 384.77 677.08
  L 388.24 677.13
  Z"
/>
<path fill="#15321f" d="
  M 379.46 677.43
  Q 378.92 677.45 378.55 677.21
  L 379.46 677.43
  Z"
/>
<path fill="#15321f" d="
  M 384.46 677.30
  L 383.78 677.48
  Q 384.09 677.32 384.46 677.30
  Z"
/>
<path fill="#3e6140" d="
  M 375.44 680.94
  L 373.27 679.08
  A 0.68 0.65 22.2 0 1 373.04 678.56
  Q 373.06 678.25 373.31 678.05
  A 0.21 0.21 0.0 0 1 373.61 678.08
  L 375.72 680.66
  A 0.20 0.20 0.0 0 1 375.44 680.94
  Z"
/>
<path fill="#15321f" d="
  M 389.80 679.56
  A 0.32 0.32 0.0 0 1 389.20 679.38
  Q 389.24 678.47 389.45 678.24
  A 0.29 0.28 66.6 0 1 389.94 678.44
  Q 389.94 679.34 389.80 679.56
  Z"
/>
<path fill="#15321f" d="
  M 419.45 678.33
  L 418.48 678.51
  Q 418.97 678.30 419.45 678.33
  Z"
/>
<ellipse fill="#15321f" cx="0.00" cy="0.00" transform="translate(369.02,678.85) rotate(-5.3)" rx="0.52" ry="0.27"/>
<path fill="#3e6140" d="
  M 385.63 680.22
  Q 385.83 680.35 385.84 680.65
  A 0.33 0.32 28.5 0 1 385.24 680.82
  Q 385.15 680.68 385.13 680.50
  A 0.32 0.32 0.0 0 1 385.63 680.22
  Z"
/>
<path fill="#3e6140" d="
  M 416.69 682.77
  L 415.49 682.69
  A 1.41 0.53 -25.3 0 1 418.01 681.49
  A 1.41 0.53 -25.1 0 1 416.69 682.77
  Z"
/>
<ellipse fill="#15321f" cx="0.00" cy="0.00" transform="translate(421.93,681.60) rotate(-6.4)" rx="0.64" ry="0.28"/>
<path fill="#3e6140" d="
  M 411.38 684.79
  Q 410.14 685.33 408.89 684.81
  A 0.29 0.29 0.0 0 1 408.94 684.26
  Q 410.24 683.99 410.90 683.70
  Q 411.57 683.41 412.66 682.65
  A 0.29 0.29 0.0 0 1 413.09 682.99
  Q 412.61 684.26 411.38 684.79
  Z"
/>
<path fill="#15321f" d="
  M 416.69 682.77
  A 1.41 0.52 -25.1 0 1 415.49 682.69
  L 416.69 682.77
  Z"
/>
<rect fill="#3e6140" x="-9.76" y="-0.30" transform="translate(396.86,688.30) rotate(-19.6)" width="19.52" height="0.60" rx="0.26"/>
<path fill="#15321f" d="
  M 422.11 690.00
  Q 421.59 690.19 421.38 689.88
  A 0.31 0.31 0.0 0 1 421.69 689.41
  L 422.06 689.48
  A 0.27 0.27 0.0 0 1 422.11 690.00
  Z"
/>
<path fill="#15321f" d="
  M 431.46 689.92
  A 0.11 0.11 0.0 0 1 431.65 690.01
  Q 431.59 690.38 431.44 690.38
  A 0.13 0.12 2.0 0 1 431.31 690.25
  Q 431.33 690.08 431.46 689.92
  Z"
/>
<path fill="#15321f" d="
  M 808.90 774.84
  A 0.25 0.24 66.4 0 0 809.35 775.02
  C 810.90 772.49 820.46 758.28 824.44 763.31
  Q 825.78 765.01 825.77 767.41
  Q 825.75 775.21 826.16 779.33
  C 826.56 783.40 831.62 782.29 834.16 781.15
  Q 839.00 778.98 845.66 773.83
  A 1.68 1.67 -43.5 0 1 847.77 773.88
  L 848.00 774.08
  A 1.01 1.01 0.0 0 1 848.09 775.53
  Q 842.47 781.69 836.45 784.94
  C 829.49 788.70 822.14 787.28 821.29 778.16
  Q 820.81 773.02 821.14 768.86
  A 0.76 0.75 -19.8 0 0 819.86 768.26
  C 814.61 773.32 810.71 780.56 807.50 787.29
  C 806.50 789.40 805.11 790.96 802.90 789.59
  A 1.45 1.42 7.4 0 1 802.29 788.81
  C 801.38 785.91 802.63 783.42 803.13 780.93
  A 0.50 0.50 0.0 0 0 802.23 780.54
  C 799.29 784.73 794.25 790.33 789.15 792.00
  A 2.58 2.43 -49.5 0 1 788.14 792.11
  Q 782.65 791.57 781.04 785.43
  A 0.33 0.33 0.0 0 0 780.49 785.29
  Q 780.19 785.62 778.05 788.56
  Q 774.51 793.42 771.20 794.48
  C 766.60 795.93 764.58 792.42 764.88 788.40
  A 0.53 0.53 0.0 0 0 763.92 788.05
  C 760.97 792.11 754.09 798.92 748.96 798.61
  C 741.73 798.17 741.43 786.98 742.80 782.00
  A 0.46 0.45 73.1 0 0 742.02 781.58
  C 741.12 782.61 740.25 784.70 739.04 786.20
  Q 732.10 794.90 721.14 801.15
  Q 715.90 804.13 711.19 802.58
  A 1.00 0.90 70.0 0 1 710.91 802.43
  L 709.10 801.08
  A 0.44 0.44 0.0 0 0 708.40 801.36
  L 702.22 842.05
  A 2.01 2.01 0.0 0 1 699.93 843.74
  L 698.91 843.58
  A 1.97 1.97 0.0 0 1 697.25 841.33
  L 707.26 775.45
  A 1.80 1.79 -57.2 0 1 710.54 774.74
  Q 710.99 775.44 710.84 777.77
  Q 710.70 780.02 710.16 781.39
  A 0.53 0.53 0.0 0 0 710.57 782.10
  L 710.86 782.14
  A 0.33 0.32 16.2 0 0 711.21 781.95
  C 713.31 777.38 719.50 771.23 725.06 772.44
  C 734.30 774.44 731.47 787.35 727.72 792.73
  A 0.44 0.44 0.0 0 0 728.36 793.33
  C 734.57 788.36 740.56 781.90 743.67 774.38
  A 8.19 8.01 -29.6 0 0 744.16 772.67
  Q 746.84 757.13 753.21 742.71
  Q 753.96 741.01 755.06 739.72
  A 2.04 1.77 -49.2 0 1 757.75 739.33
  Q 759.08 740.49 758.86 742.52
  C 757.94 750.97 754.86 760.55 750.87 768.87
  Q 748.84 773.11 748.21 776.38
  C 747.27 781.35 745.47 788.98 747.90 792.77
  C 750.36 796.60 758.27 789.47 761.63 786.89
  C 764.82 784.45 766.21 782.76 767.99 779.07
  Q 771.54 771.73 776.60 767.35
  C 779.95 764.45 782.12 764.23 784.81 768.03
  C 785.69 769.27 787.64 769.82 787.33 771.65
  Q 786.81 774.62 785.86 778.11
  C 785.39 779.80 784.97 789.08 789.45 787.49
  Q 792.25 786.50 794.59 784.33
  C 798.45 780.74 803.19 777.01 804.31 773.10
  Q 805.43 769.19 806.12 764.98
  A 2.62 2.62 0.0 0 1 808.49 762.79
  L 808.54 762.79
  A 2.09 2.08 4.9 0 1 810.61 765.24
  L 808.90 774.84
  Z
  M 781.1065 769.9960
  A 11.31 3.01 -60.4 0 0 772.9028 778.3432
  A 11.31 3.01 -60.4 0 0 769.9335 789.6640
  A 11.31 3.01 -60.4 0 0 778.1372 781.3168
  A 11.31 3.01 -60.4 0 0 781.1065 769.9960
  Z
  M 709.68 796.71
  C 712.47 798.47 714.72 799.62 717.59 797.72
  Q 726.20 792.02 726.64 781.49
  Q 726.72 779.51 725.72 777.93
  A 2.90 2.62 66.5 0 0 722.83 776.62
  C 715.53 778.29 711.51 789.27 709.34 795.79
  A 0.80 0.79 24.9 0 0 709.68 796.71
  Z"
/>
<path fill="#15321f" d="
  M 630.09 794.27
  A 0.31 0.31 0.0 0 0 630.65 794.45
  C 634.49 788.79 641.28 783.62 648.41 785.52
  A 1.91 1.90 -77.2 0 1 649.87 787.85
  L 649.85 787.92
  A 2.04 2.04 0.0 0 1 647.58 789.45
  C 635.53 787.74 629.59 804.14 628.52 813.68
  A 2.88 2.87 -0.0 0 1 625.97 816.22
  L 625.88 816.23
  A 2.23 2.22 86.2 0 1 623.43 814.08
  Q 623.31 809.44 624.79 804.00
  Q 624.88 803.67 624.61 803.38
  A 0.34 0.34 0.0 0 0 624.09 803.41
  Q 618.95 810.36 611.96 816.17
  C 607.47 819.90 602.54 815.46 601.57 810.86
  A 0.60 0.60 0.0 0 0 600.48 810.66
  Q 597.84 814.90 593.91 818.16
  C 590.43 821.04 585.38 821.07 584.78 815.45
  Q 584.63 814.05 584.91 811.85
  A 0.48 0.48 0.0 0 0 584.07 811.48
  Q 577.55 818.85 569.61 823.35
  C 564.23 826.39 556.88 826.30 553.51 820.25
  A 0.56 0.55 -34.9 0 0 552.66 820.10
  C 548.05 824.10 543.40 827.91 537.95 829.95
  C 534.06 831.41 529.67 830.06 527.94 826.53
  C 525.83 822.22 526.04 817.53 525.70 813.09
  A 0.31 0.31 0.0 0 0 525.12 812.95
  Q 520.16 821.05 512.46 827.97
  Q 507.49 832.43 504.31 833.73
  C 490.13 839.51 485.14 827.54 489.45 815.99
  C 491.23 811.22 498.22 797.71 504.89 800.40
  Q 508.67 801.93 509.04 807.36
  A 3.60 3.58 73.1 0 1 507.25 810.73
  L 507.15 810.79
  A 1.59 1.59 0.0 0 1 504.77 809.49
  Q 504.56 804.81 503.47 804.44
  A 2.16 2.14 -52.9 0 0 501.49 804.72
  Q 498.79 806.66 497.24 809.20
  C 494.54 813.64 489.44 826.62 495.14 830.15
  C 502.72 834.85 519.53 816.67 523.49 811.50
  C 525.72 808.58 526.65 806.72 527.26 803.02
  C 528.08 798.00 534.73 766.42 540.45 766.53
  A 2.17 2.10 0.0 0 1 542.58 768.59
  C 542.85 780.68 537.44 792.10 532.49 802.40
  A 7.98 7.95 64.2 0 0 531.89 804.13
  C 530.56 810.27 529.58 817.87 531.92 824.19
  A 2.51 2.51 0.0 0 0 534.60 825.80
  C 540.48 825.04 546.16 820.72 550.67 817.13
  Q 552.57 815.62 552.79 814.07
  Q 554.28 803.52 560.67 797.22
  C 563.11 794.83 567.67 792.77 570.21 796.26
  C 573.03 800.14 569.38 806.13 566.46 809.02
  Q 563.40 812.05 558.67 815.75
  A 1.73 1.72 -32.5 0 0 558.19 817.90
  C 560.95 823.29 567.72 820.10 571.37 817.87
  C 576.42 814.77 582.16 811.09 586.09 806.46
  A 5.37 5.33 -13.8 0 0 586.91 805.12
  C 588.88 800.52 594.48 791.16 599.80 790.04
  A 3.77 3.57 -24.7 0 1 603.44 791.27
  Q 604.85 793.02 606.86 794.22
  A 1.90 1.90 0.0 0 1 607.73 796.30
  C 606.56 801.11 605.10 806.42 606.68 811.21
  A 2.29 2.29 0.0 0 0 609.10 812.77
  Q 610.43 812.62 612.26 811.51
  Q 619.64 807.02 624.21 799.80
  A 4.81 4.68 65.3 0 0 624.91 797.83
  Q 625.52 792.45 626.05 790.11
  Q 626.59 787.76 628.38 788.05
  A 2.37 2.08 -85.6 0 1 630.12 790.37
  Q 630.09 793.37 630.09 794.27
  Z
  M 601.2793 794.4717
  A 11.81 3.19 -60.2 0 0 592.6418 803.1347
  A 11.81 3.19 -60.2 0 0 589.5407 814.9683
  A 11.81 3.19 -60.2 0 0 598.1782 806.3053
  A 11.81 3.19 -60.2 0 0 601.2793 794.4717
  Z
  M 567.63 800.29
  L 565.20 798.50
  A 0.21 0.21 0.0 0 0 564.90 798.54
  L 563.78 800.06
  A 11.02 1.61 -53.5 0 0 558.52 809.88
  L 558.70 810.01
  A 11.02 1.61 -53.5 0 0 566.55 802.11
  L 567.67 800.59
  A 0.21 0.21 0.0 0 0 567.63 800.29
  Z"
/>
<path fill="#15321f" d="
  M 420.44 815.85
  L 428.75 814.83
  A 0.93 0.93 0.0 0 1 429.23 816.61
  L 421.21 820.05
  A 1.09 1.08 -13.3 0 0 420.55 821.10
  Q 421.14 834.40 424.64 846.45
  A 2.34 2.33 -13.6 0 1 422.84 849.39
  L 422.65 849.43
  A 2.61 2.61 0.0 0 1 419.64 847.56
  Q 416.28 835.26 415.82 822.85
  A 1.05 1.04 80.1 0 0 414.46 821.89
  Q 403.27 825.47 397.40 827.10
  Q 395.55 827.62 394.37 828.68
  A 1.42 1.36 79.9 0 0 393.98 829.27
  L 386.19 850.76
  A 1.79 1.78 -70.1 0 1 383.91 851.83
  L 383.49 851.68
  A 1.90 1.89 20.0 0 1 382.36 849.26
  L 389.21 830.37
  A 1.02 1.01 8.6 0 0 388.20 829.01
  Q 386.53 829.10 385.54 828.71
  A 1.00 1.00 0.0 0 1 385.51 826.85
  L 390.16 824.85
  A 2.80 2.80 0.0 0 0 391.68 823.26
  C 396.19 811.19 403.34 792.64 410.60 777.38
  C 411.45 775.61 413.00 773.74 415.04 774.53
  C 417.15 775.35 417.48 778.28 417.55 780.50
  Q 418.09 797.75 419.82 815.36
  A 0.55 0.55 0.0 0 0 420.44 815.85
  Z
  M 412.58 784.24
  A 0.34 0.34 0.0 0 0 411.93 784.14
  L 396.59 822.00
  A 0.34 0.34 0.0 0 0 397.00 822.46
  L 414.66 817.44
  A 0.34 0.34 0.0 0 0 414.91 817.08
  L 412.58 784.24
  Z"
/>
<path fill="#15321f" d="
  M 744.26 883.45
  Q 743.94 883.79 741.40 887.40
  Q 739.74 889.77 736.66 891.96
  C 733.15 894.46 728.78 892.92 727.72 888.84
  C 726.38 883.70 728.90 875.40 730.86 870.50
  A 1.93 1.93 0.0 0 1 733.37 869.42
  L 733.46 869.45
  A 2.05 2.04 -69.8 0 1 734.63 872.00
  C 732.99 876.88 730.92 883.95 732.18 887.25
  A 1.57 1.57 0.0 0 0 734.56 887.97
  C 739.82 884.25 743.15 877.26 745.59 870.87
  Q 746.10 869.56 747.11 867.96
  A 2.38 2.25 -50.6 0 1 750.74 867.50
  Q 751.14 867.94 751.28 868.82
  Q 751.42 869.77 751.34 870.23
  Q 749.73 879.09 748.52 887.84
  A 0.33 0.33 0.0 0 0 749.08 888.11
  C 756.15 880.71 765.20 871.57 766.82 862.14
  A 0.91 0.91 0.0 0 0 765.68 861.11
  L 760.91 862.47
  A 1.73 1.72 -15.9 0 1 758.78 861.29
  L 758.68 860.92
  A 1.36 1.36 0.0 0 1 759.62 859.23
  L 767.24 857.06
  A 2.40 2.37 -89.0 0 0 768.85 855.49
  C 770.96 848.87 772.61 841.78 774.76 840.54
  A 1.55 1.55 0.0 0 1 777.08 841.78
  C 777.34 845.81 775.05 851.47 774.20 854.71
  A 0.72 0.72 0.0 0 0 775.15 855.57
  Q 780.31 853.63 785.64 854.25
  A 1.09 1.00 17.7 0 1 786.51 855.78
  Q 786.09 856.48 785.01 856.77
  Q 782.07 857.58 773.00 860.14
  A 1.17 1.16 -89.0 0 0 772.20 860.92
  C 769.96 868.17 766.86 877.32 768.37 884.29
  A 2.09 2.09 0.0 0 0 770.85 885.89
  Q 771.23 885.81 772.75 885.00
  C 778.30 882.02 785.19 876.81 788.19 870.80
  A 5.78 5.78 0.0 0 0 788.63 869.57
  Q 792.05 854.09 795.58 839.59
  Q 796.33 836.50 797.66 834.28
  A 1.70 1.70 0.0 0 1 800.26 833.90
  Q 801.28 834.82 801.03 836.31
  Q 799.75 843.95 795.83 857.77
  C 794.36 862.98 793.56 867.86 792.81 872.31
  A 0.34 0.34 0.0 0 0 793.43 872.55
  Q 796.89 866.98 801.34 862.51
  C 807.55 856.29 810.47 863.33 809.75 868.88
  Q 809.11 873.75 809.49 877.42
  A 1.63 1.62 -6.8 0 0 811.33 878.86
  Q 813.39 878.58 815.58 877.49
  A 5.21 4.88 11.3 0 0 816.37 877.00
  Q 818.53 875.34 822.08 871.19
  Q 824.32 868.57 825.14 865.81
  C 826.21 862.24 826.86 858.69 828.99 856.78
  A 1.56 1.56 0.0 0 1 830.96 856.69
  C 831.74 857.28 831.89 858.60 831.64 859.54
  C 829.95 865.95 828.56 870.28 829.09 875.68
  A 0.95 0.95 0.0 0 0 830.24 876.51
  Q 832.18 876.09 834.10 874.84
  Q 839.52 871.32 844.22 867.69
  A 2.01 1.99 85.7 0 0 844.79 867.02
  Q 846.84 863.24 847.06 861.79
  C 847.33 859.98 847.87 853.11 850.32 851.86
  A 1.65 1.59 78.5 0 1 852.63 853.45
  Q 852.43 857.97 850.94 862.58
  A 0.39 0.38 -14.6 0 0 851.59 862.96
  Q 852.59 861.88 853.29 860.54
  C 854.29 858.65 861.05 849.80 864.44 852.63
  Q 866.74 854.56 866.60 857.16
  Q 866.13 865.52 866.60 868.47
  A 1.80 1.80 0.0 0 0 868.95 869.90
  C 874.30 868.09 878.97 862.41 881.43 857.53
  C 884.34 851.76 887.96 846.13 893.91 844.81
  A 3.68 3.68 0.0 0 1 897.57 846.10
  L 900.44 849.67
  A 2.07 2.06 -60.4 0 1 900.88 851.29
  L 897.84 871.28
  A 0.59 0.59 0.0 0 0 898.80 871.82
  Q 906.88 865.00 917.19 861.18
  A 1.29 1.29 0.0 0 1 918.89 862.09
  L 918.90 862.14
  A 1.72 1.72 0.0 0 1 917.96 864.11
  Q 906.23 869.58 897.93 877.85
  A 4.57 4.52 -18.9 0 0 896.62 880.49
  Q 895.25 890.82 891.27 902.30
  C 889.46 907.51 887.19 912.58 882.92 915.63
  C 879.50 918.08 875.30 917.78 873.70 913.58
  C 870.00 903.92 884.86 885.50 891.22 878.81
  A 5.35 5.32 -19.1 0 0 892.63 875.93
  L 894.52 863.50
  A 0.33 0.33 0.0 0 0 894.02 863.17
  L 893.70 863.37
  A 1.49 1.47 -3.5 0 0 893.18 863.95
  C 891.91 866.47 887.04 872.22 883.63 871.87
  Q 879.38 871.44 878.78 867.58
  A 0.62 0.61 60.9 0 0 877.71 867.27
  C 875.64 869.68 872.44 873.32 869.25 874.13
  C 863.93 875.47 862.09 870.48 862.13 866.44
  Q 862.16 862.78 861.98 857.91
  A 0.70 0.69 -25.3 0 0 860.76 857.48
  Q 856.44 862.36 853.22 868.47
  Q 849.15 876.20 848.69 876.94
  Q 847.47 878.90 845.48 878.02
  A 2.11 2.11 0.0 0 1 844.24 875.80
  Q 844.76 872.04 845.42 868.66
  A 0.58 0.58 0.0 0 0 844.40 868.19
  Q 841.29 872.13 838.04 875.77
  C 835.50 878.61 830.67 882.57 826.94 880.09
  C 824.11 878.21 823.98 873.93 824.78 870.79
  A 0.55 0.55 0.0 0 0 823.82 870.30
  L 814.20 881.94
  A 1.07 0.80 -10.2 0 1 814.06 882.09
  C 808.24 886.52 804.76 880.62 805.08 875.47
  Q 805.53 868.48 805.45 865.98
  A 0.63 0.63 0.0 0 0 804.42 865.51
  Q 802.30 867.25 800.87 869.13
  Q 794.89 876.96 791.22 885.45
  C 790.00 888.28 786.12 887.45 786.31 884.02
  Q 786.55 879.57 787.76 876.03
  A 0.52 0.52 0.0 0 0 786.84 875.58
  Q 782.54 882.09 776.33 887.15
  C 765.19 896.21 761.84 883.33 764.42 875.22
  A 0.44 0.44 0.0 0 0 763.68 874.78
  C 762.47 876.03 762.00 877.62 760.95 878.93
  Q 749.99 892.50 749.57 893.07
  C 747.84 895.38 747.06 896.70 746.58 899.42
  C 745.50 905.50 741.47 927.47 733.99 928.58
  C 729.20 929.29 727.98 924.50 729.03 920.76
  Q 731.43 912.22 737.09 904.07
  C 740.78 898.76 743.22 896.37 743.54 891.26
  Q 743.81 887.00 744.81 883.77
  A 0.33 0.33 0.0 0 0 744.26 883.45
  Z
  M 894.7063 849.0706
  A 10.35 3.09 -57.4 0 0 886.5268 856.1252
  A 10.35 3.09 -57.4 0 0 883.5537 866.5094
  A 10.35 3.09 -57.4 0 0 891.7332 859.4548
  A 10.35 3.09 -57.4 0 0 894.7063 849.0706
  Z
  M 891.19 884.58
  Q 890.92 884.56 890.77 884.75
  Q 883.50 893.31 879.36 902.35
  Q 877.28 906.91 877.71 911.54
  A 1.47 1.46 64.6 0 0 880.21 912.43
  Q 885.24 907.32 887.39 899.86
  Q 890.93 887.60 891.49 884.97
  A 0.32 0.32 0.0 0 0 891.19 884.58
  Z
  M 732.01 923.18
  L 734.46 924.17
  A 0.34 0.34 0.0 0 0 734.90 923.98
  L 737.08 918.57
  A 15.09 1.66 -68.1 0 0 741.16 903.95
  A 15.09 1.66 -68.1 0 0 734.00 917.33
  L 731.82 922.74
  A 0.34 0.34 0.0 0 0 732.01 923.18
  Z"
/>
<ellipse fill="#15321f" cx="0.00" cy="0.00" transform="translate(833.73,842.05) rotate(-68.4)" rx="3.64" ry="2.80"/>
<path fill="#15321f" d="
  M 700.35 889.66
  A 0.42 0.41 71.7 0 0 699.64 889.30
  Q 694.72 894.52 693.99 895.23
  C 688.43 900.60 676.21 909.90 670.45 899.07
  C 669.75 897.76 670.15 896.30 669.62 895.12
  A 0.72 0.71 74.0 0 0 668.86 894.69
  Q 662.09 895.68 658.50 890.66
  A 0.72 0.72 0.0 0 0 657.24 890.85
  Q 654.64 898.40 650.69 904.95
  C 649.18 907.45 647.89 910.07 645.41 909.84
  C 643.30 909.64 642.47 908.33 642.08 906.30
  Q 640.97 900.47 639.55 896.26
  A 0.41 0.40 54.2 0 0 638.84 896.14
  C 634.42 902.07 627.44 909.95 620.16 913.13
  C 610.89 917.18 604.12 910.00 606.29 900.81
  Q 608.46 891.60 613.60 886.15
  Q 614.96 884.71 618.04 883.52
  A 2.30 2.20 -50.8 0 1 619.08 883.39
  Q 623.20 883.87 624.10 887.39
  C 625.42 892.53 620.01 898.70 615.96 901.25
  Q 614.45 902.20 611.53 903.47
  A 0.96 0.95 80.3 0 0 610.96 904.28
  C 610.35 912.41 618.57 909.73 622.47 907.18
  Q 631.63 901.22 638.33 892.45
  A 2.56 2.55 -27.5 0 0 638.86 890.78
  C 638.79 888.81 637.97 885.40 639.46 883.44
  A 2.01 2.00 -48.7 0 1 642.50 883.23
  Q 643.34 884.09 643.38 885.45
  Q 643.65 894.96 646.00 902.84
  A 0.47 0.47 0.0 0 0 646.85 902.96
  Q 651.13 896.32 654.64 887.35
  C 655.51 885.12 655.65 882.68 656.78 880.84
  C 658.56 877.92 661.35 879.84 661.02 882.49
  C 660.71 884.96 660.63 887.28 662.45 889.03
  Q 664.89 891.39 668.97 890.86
  A 1.46 1.46 0.0 0 0 670.19 889.82
  C 671.90 883.94 675.38 877.29 680.89 875.16
  C 683.06 874.32 685.26 875.87 685.87 878.00
  Q 686.30 879.53 685.73 881.57
  Q 683.48 889.61 675.21 893.19
  A 1.10 1.09 79.8 0 0 674.55 894.15
  C 674.26 899.88 678.57 900.57 682.84 898.59
  Q 691.78 894.44 699.82 886.16
  A 4.16 4.13 -17.0 0 0 700.91 884.13
  Q 701.72 880.32 702.95 874.97
  A 1.64 1.57 -70.3 0 1 705.21 873.84
  Q 706.10 874.29 706.15 875.80
  Q 706.24 878.32 706.29 878.88
  A 0.50 0.50 0.0 0 0 707.21 879.10
  Q 710.74 873.28 717.49 870.98
  C 719.21 870.40 723.39 870.31 724.24 872.54
  A 1.57 1.45 75.4 0 1 723.12 874.63
  C 720.11 875.03 718.28 874.29 715.33 876.37
  C 708.37 881.25 705.68 890.01 704.07 898.19
  A 2.66 2.65 6.2 0 1 701.40 900.33
  L 701.32 900.32
  A 2.57 2.56 -82.6 0 1 699.02 897.32
  L 700.35 889.66
  Z
  M 681.9566 879.4981
  A 5.22 1.50 -55.5 0 0 677.7638 882.9504
  A 5.22 1.50 -55.5 0 0 676.0434 888.1019
  A 5.22 1.50 -55.5 0 0 680.2362 884.6496
  A 5.22 1.50 -55.5 0 0 681.9566 879.4981
  Z
  M 619.7659 887.8005
  A 6.32 2.12 -54.1 0 0 614.3427 891.6769
  A 6.32 2.12 -54.1 0 0 612.3541 898.0395
  A 6.32 2.12 -54.1 0 0 617.7773 894.1631
  A 6.32 2.12 -54.1 0 0 619.7659 887.8005
  Z"
/>
<path fill="#15321f" d="
  M 446.70 928.24
  Q 444.92 931.67 441.74 934.96
  C 439.36 937.42 434.06 939.56 432.34 934.92
  Q 432.03 934.09 431.67 931.47
  A 0.53 0.52 -29.3 0 0 430.74 931.21
  Q 427.70 934.98 423.35 938.56
  C 417.32 943.52 412.21 939.20 412.16 932.54
  Q 412.11 927.26 412.15 922.49
  A 0.85 0.84 -26.8 0 0 410.62 921.99
  Q 404.53 930.34 400.30 939.39
  Q 399.52 941.06 396.90 940.85
  A 1.25 1.23 -15.4 0 1 396.01 940.35
  Q 394.79 938.72 395.08 936.76
  Q 395.96 930.73 395.46 923.53
  Q 395.40 922.66 395.18 922.38
  A 1.03 0.93 -45.7 0 0 393.62 922.48
  C 388.65 929.00 385.62 936.69 382.90 944.76
  C 382.15 946.99 378.80 948.65 377.95 945.44
  Q 377.58 944.04 377.82 942.49
  Q 379.58 931.00 380.92 918.68
  A 1.90 1.90 0.0 0 1 383.21 917.03
  L 383.30 917.05
  A 2.73 2.71 -78.0 0 1 385.26 920.08
  L 383.97 928.66
  A 0.41 0.40 9.5 0 0 384.30 929.12
  L 384.59 929.17
  A 0.31 0.31 0.0 0 0 384.94 928.97
  Q 386.85 923.67 390.91 919.42
  C 392.80 917.43 396.14 915.53 398.29 918.13
  C 400.36 920.64 399.96 925.08 400.02 929.46
  A 0.44 0.44 0.0 0 0 400.85 929.65
  Q 404.62 922.30 410.00 917.16
  Q 411.56 915.66 413.99 916.09
  C 416.18 916.46 416.81 919.77 416.76 921.50
  C 416.64 925.88 416.15 930.88 417.32 935.01
  A 1.56 1.56 0.0 0 0 419.27 936.07
  C 424.06 934.62 428.76 929.46 432.20 925.55
  A 8.28 8.26 -11.7 0 0 433.51 923.56
  C 436.06 918.09 438.53 913.35 443.34 909.66
  C 447.87 906.18 449.30 911.15 452.26 912.97
  A 1.79 1.79 0.0 0 1 453.10 914.77
  Q 452.72 917.34 452.14 919.80
  C 451.48 922.62 451.85 926.03 452.59 928.60
  A 2.56 2.18 82.6 0 0 454.62 930.44
  C 458.40 930.71 465.48 923.38 467.80 920.78
  C 469.99 918.33 471.09 914.88 471.67 911.12
  Q 474.02 895.78 478.06 877.63
  A 1.66 1.66 0.0 0 1 480.30 876.45
  L 480.38 876.48
  A 2.44 2.44 0.0 0 1 481.91 879.17
  L 476.58 909.83
  A 0.39 0.39 0.0 0 0 477.26 910.15
  Q 481.88 904.53 487.71 901.12
  A 2.20 2.19 28.2 0 1 488.68 900.83
  C 493.14 900.59 493.07 905.13 491.06 907.85
  Q 487.14 913.17 480.71 917.10
  A 0.94 0.93 -34.1 0 0 480.44 918.46
  C 483.59 922.73 487.22 925.63 492.84 924.73
  C 497.30 924.03 503.12 922.52 503.52 917.46
  Q 504.24 908.27 510.57 901.59
  C 512.91 899.13 518.25 897.09 519.53 901.75
  C 521.12 907.49 513.92 915.06 509.91 918.25
  A 2.33 2.33 0.0 0 0 510.53 922.26
  L 510.77 922.35
  A 8.09 8.07 -49.3 0 0 517.65 921.82
  C 525.18 917.53 535.15 911.79 536.63 902.32
  Q 537.33 897.83 541.78 894.46
  A 3.03 3.00 -51.5 0 1 544.84 894.10
  L 544.92 894.14
  A 1.47 1.46 -56.2 0 1 545.38 896.49
  Q 539.39 902.80 542.28 905.58
  Q 547.00 910.10 548.96 912.26
  C 551.96 915.57 551.35 920.71 547.23 923.16
  Q 541.36 926.67 535.91 924.20
  Q 534.27 923.45 534.17 922.24
  A 2.01 1.98 -89.4 0 1 536.35 920.07
  C 539.92 920.46 544.00 920.94 545.98 917.51
  A 1.48 1.47 -43.5 0 0 546.02 916.09
  C 544.31 912.82 540.18 910.33 538.00 907.60
  A 0.81 0.80 -46.9 0 0 536.71 907.65
  C 531.72 914.96 513.91 937.35 504.21 923.20
  A 1.08 1.08 0.0 0 0 502.61 922.99
  Q 500.09 925.19 495.71 927.59
  C 488.20 931.70 481.55 927.43 476.78 921.69
  A 0.89 0.89 0.0 0 0 475.23 922.05
  Q 474.80 923.84 473.19 931.92
  C 472.54 935.19 468.42 934.60 468.65 930.86
  Q 468.96 925.96 469.94 922.07
  A 0.41 0.41 0.0 0 0 469.23 921.71
  Q 465.71 926.04 462.70 930.09
  Q 461.76 931.37 458.69 933.47
  C 452.62 937.62 449.69 933.44 447.33 928.26
  A 0.35 0.35 0.0 0 0 446.70 928.24
  Z
  M 515.2187 903.7690
  A 5.77 1.39 -57.4 0 0 510.9390 907.8811
  A 5.77 1.39 -57.4 0 0 509.0013 913.4910
  A 5.77 1.39 -57.4 0 0 513.2810 909.3789
  A 5.77 1.39 -57.4 0 0 515.2187 903.7690
  Z
  M 487.24 905.18
  L 478.50 912.91
  A 0.18 0.18 0.0 0 0 478.49 913.16
  L 478.57 913.25
  A 2.27 1.24 -41.5 0 0 481.09 912.67
  L 486.69 907.72
  A 2.27 1.24 -41.5 0 0 487.57 905.29
  L 487.49 905.20
  A 0.18 0.18 0.0 0 0 487.24 905.18
  Z
  M 446.7636 913.4353
  A 10.80 3.04 -62.1 0 0 439.0234 921.5575
  A 10.80 3.04 -62.1 0 0 436.6564 932.5247
  A 10.80 3.04 -62.1 0 0 444.3966 924.4025
  A 10.80 3.04 -62.1 0 0 446.7636 913.4353
  Z"
/>
<ellipse fill="#15321f" cx="0.00" cy="0.00" transform="translate(641.91,959.72) rotate(-63.7)" rx="3.59" ry="2.95"/>
<path fill="#15321f" d="
  M 608.91 988.45
  L 607.88 985.87
  C 608.29 981.29 610.84 975.22 616.08 974.58
  A 1.57 1.57 0.0 0 1 617.40 977.22
  C 614.38 980.41 610.26 984.17 615.35 988.18
  Q 618.67 990.80 622.01 994.31
  A 0.69 0.69 0.0 0 0 622.92 994.39
  Q 629.28 989.72 633.15 983.82
  A 6.04 5.57 -20.1 0 0 633.71 982.73
  L 636.23 976.08
  A 2.06 2.05 -69.2 0 1 638.89 974.88
  L 638.97 974.91
  A 1.98 1.98 0.0 0 1 640.24 977.31
  C 638.84 982.35 636.36 991.74 637.77 994.62
  A 2.15 2.15 0.0 0 0 640.41 995.71
  C 645.67 993.88 653.58 989.21 655.05 983.30
  C 656.36 978.00 659.88 970.90 665.08 968.45
  C 669.37 966.44 672.22 970.79 671.02 974.81
  Q 668.56 983.01 660.83 986.52
  A 2.78 2.78 0.0 0 0 660.17 991.16
  L 661.03 991.89
  A 4.77 4.75 54.9 0 0 665.80 992.73
  Q 679.04 987.75 686.03 979.93
  A 7.48 7.44 69.1 0 0 687.88 975.77
  Q 688.43 970.77 689.08 967.62
  Q 689.59 965.15 691.64 965.36
  A 1.05 1.04 -10.6 0 1 692.49 965.94
  Q 693.86 968.72 693.06 971.79
  A 0.44 0.44 0.0 0 0 693.87 972.12
  C 696.96 966.60 704.06 960.69 710.77 963.17
  A 2.11 1.93 26.3 0 1 711.91 966.12
  C 711.44 966.83 710.08 967.22 709.23 967.08
  C 698.11 965.15 692.40 983.39 691.19 991.36
  A 2.58 2.57 -84.6 0 1 688.56 993.54
  L 688.49 993.54
  A 2.71 2.71 0.0 0 1 686.08 990.51
  L 687.11 982.16
  A 0.48 0.48 0.0 0 0 686.29 981.76
  Q 684.47 983.63 682.41 985.21
  C 678.90 987.92 675.75 991.83 672.32 994.06
  C 665.58 998.42 656.86 1000.22 654.46 990.00
  A 0.66 0.66 0.0 0 0 653.39 989.65
  Q 647.12 995.09 643.24 998.45
  Q 641.10 1000.30 637.64 999.83
  C 632.32 999.11 632.49 992.35 633.38 988.23
  A 0.47 0.46 72.0 0 0 632.58 987.82
  L 623.05 998.40
  A 0.82 0.69 -18.1 0 0 622.90 998.64
  Q 619.62 1006.64 610.34 1005.63
  Q 607.69 1005.34 606.49 1003.52
  A 1.72 1.72 0.0 0 1 607.87 1000.85
  C 611.61 1000.71 613.74 1001.43 616.78 998.61
  A 1.87 1.87 0.0 0 0 616.79 995.86
  L 608.91 988.45
  Z
  M 667.0987 972.6935
  A 5.56 1.65 -54.5 0 0 662.5267 976.2618
  A 5.56 1.65 -54.5 0 0 660.6413 981.7465
  A 5.56 1.65 -54.5 0 0 665.2133 978.1782
  A 5.56 1.65 -54.5 0 0 667.0987 972.6935
  Z"
/>
<path fill="#15321f" d="
  M 595.24 1001.31
  Q 595.60 1002.81 597.09 1003.45
  C 593.15 1009.77 586.17 1007.41 584.78 1000.66
  A 0.46 0.46 0.0 0 0 583.95 1000.50
  C 581.58 1004.02 578.82 1007.90 574.82 1009.69
  C 570.74 1011.51 568.17 1007.82 568.12 1004.20
  A 0.59 0.59 0.0 0 0 567.10 1003.80
  Q 561.06 1010.21 553.58 1014.08
  C 548.31 1016.80 541.02 1017.49 538.06 1011.22
  C 534.81 1004.34 538.60 995.44 542.70 989.25
  C 544.86 985.97 549.60 981.76 553.54 984.22
  C 556.72 986.20 556.42 990.91 554.85 993.86
  Q 550.80 1001.46 544.43 1003.55
  A 3.77 3.77 0.0 0 0 542.33 1009.00
  L 542.43 1009.17
  A 5.28 5.27 65.4 0 0 548.78 1011.53
  C 556.80 1008.67 563.48 1003.12 569.40 996.94
  A 4.92 4.89 78.5 0 0 570.37 995.46
  Q 571.90 991.90 573.85 988.87
  C 575.92 985.65 582.79 976.77 586.63 981.71
  C 587.77 983.16 588.31 983.55 589.60 984.30
  A 1.89 1.87 20.5 0 1 590.50 986.25
  C 589.34 992.58 587.74 997.09 590.10 1001.52
  A 1.82 1.81 66.0 0 0 592.32 1002.38
  L 595.24 1001.31
  Z
  M 584.2430 984.8400
  A 11.47 3.09 -61.5 0 0 576.0545 993.4456
  A 11.47 3.09 -61.5 0 0 573.2970 1005.0000
  A 11.47 3.09 -61.5 0 0 581.4855 996.3944
  A 11.47 3.09 -61.5 0 0 584.2430 984.8400
  Z
  M 551.4217 988.2545
  A 6.69 2.17 -53.9 0 0 545.7267 992.3814
  A 6.69 2.17 -53.9 0 0 543.5383 999.0655
  A 6.69 2.17 -53.9 0 0 549.2333 994.9386
  A 6.69 2.17 -53.9 0 0 551.4217 988.2545
  Z"
/>
<ellipse fill="#15321f" cx="0.00" cy="0.00" transform="translate(728.71,984.64) rotate(-65.2)" rx="3.53" ry="3.15"/>
<path fill="#3e6140" d="
  M 608.91 988.45
  Q 603.83 996.48 597.09 1003.45
  Q 595.60 1002.81 595.24 1001.31
  C 600.66 996.38 605.25 992.38 607.88 985.87
  L 608.91 988.45
  Z"
/>
<path fill="#15321f" d="
  M 773.12 1032.73
  Q 772.53 1033.12 771.82 1033.17
  Q 732.38 1036.00 668.56 1048.08
  Q 620.48 1057.17 575.17 1069.72
  Q 551.99 1076.13 515.86 1087.79
  A 3.85 3.84 58.6 0 1 511.94 1086.83
  L 511.78 1086.67
  A 1.51 1.50 57.0 0 1 512.30 1084.21
  Q 541.10 1072.92 583.49 1061.78
  C 634.61 1048.35 685.60 1039.08 737.17 1034.45
  Q 756.02 1032.76 773.02 1032.41
  A 0.17 0.17 0.0 0 1 773.12 1032.73
  Z"
/>
</svg>
