<?xml version="1.0" encoding="UTF-8" standalone="no"?>
<!DOCTYPE svg PUBLIC "-//W3C//DTD SVG 1.1//EN" "http://www.w3.org/Graphics/SVG/1.1/DTD/svg11.dtd">
<svg xmlns="http://www.w3.org/2000/svg" version="1.1" viewBox="0.00 0.00 1254.00 1254.00">
<path fill="#1e3926" d="
  M 585.33 184.45
  Q 585.14 185.58 583.22 185.42
  Q 570.33 184.35 550.00 183.43
  C 513.47 181.77 478.17 183.63 442.73 191.74
  Q 407.39 199.82 376.26 216.04
  Q 359.11 224.98 342.82 238.56
  Q 321.09 256.68 306.61 281.10
  Q 303.53 286.31 297.51 302.94
  Q 294.28 311.85 292.80 325.49
  Q 291.62 336.43 293.19 348.51
  Q 296.16 371.23 307.28 391.22
  Q 323.94 421.17 351.65 440.58
  Q 351.98 440.81 365.38 449.35
  Q 368.51 451.35 367.72 455.76
  C 364.66 472.68 357.06 489.54 347.90 504.67
  Q 343.57 511.82 337.93 518.07
  A 0.54 0.54 0.0 0 0 338.45 518.96
  Q 347.10 516.99 355.00 513.99
  Q 390.19 500.60 417.53 474.55
  C 419.66 472.52 422.98 472.32 425.95 473.06
  Q 444.87 477.73 467.18 480.73
  Q 477.27 482.09 484.55 482.48
  Q 492.95 482.92 502.00 483.52
  Q 503.96 483.66 518.66 483.74
  C 530.68 483.81 545.52 482.60 555.00 481.53
  Q 566.25 480.26 582.36 477.07
  Q 613.61 470.90 642.71 457.05
  C 651.09 453.06 659.93 447.64 668.28 442.54
  Q 674.52 438.73 683.98 431.00
  C 715.40 405.30 735.40 368.58 735.28 328.49
  Q 735.21 306.35 725.16 281.94
  Q 723.91 278.90 719.14 270.51
  C 709.13 252.90 695.35 238.31 678.10 226.16
  Q 659.66 213.16 644.91 206.80
  C 640.11 204.74 635.64 201.78 630.92 200.42
  C 624.73 198.65 619.81 195.54 612.99 194.25
  C 607.10 193.14 600.80 190.97 594.73 189.99
  Q 588.18 188.93 585.72 188.59
  A 0.73 0.73 0.0 0 1 585.10 188.01
  L 585.03 187.63
  A 0.42 0.42 0.0 0 1 585.49 187.13
  L 606.26 189.10
  A 1.06 0.40 24.4 0 0 606.41 189.11
  Q 608.31 188.95 609.25 189.07
  Q 617.85 190.20 625.92 193.14
  Q 634.09 196.11 636.86 196.83
  C 642.86 198.38 647.58 201.13 653.20 203.00
  Q 658.97 204.92 670.26 211.24
  Q 686.19 220.14 698.71 232.30
  Q 706.29 239.66 709.14 243.08
  A 3.44 1.39 55.0 0 1 709.43 243.47
  C 711.73 246.98 712.51 248.45 715.27 251.27
  Q 717.72 253.77 718.46 254.93
  C 725.54 266.08 729.78 272.66 732.80 280.42
  A 1.31 1.30 70.4 0 0 734.41 281.19
  Q 737.37 280.27 740.24 279.94
  Q 748.18 279.02 764.00 278.18
  C 768.46 277.94 773.19 278.61 777.30 278.71
  Q 796.91 279.24 817.81 282.64
  Q 820.66 283.10 822.76 284.19
  Q 825.85 285.77 826.99 285.87
  C 832.84 286.37 836.80 286.37 842.84 288.73
  A 9.39 9.26 57.9 0 0 845.38 289.33
  C 852.72 290.01 860.09 292.98 866.71 295.14
  C 878.19 298.89 889.34 304.65 899.89 310.92
  C 934.62 331.56 960.56 368.57 963.50 409.52
  Q 966.08 445.43 947.47 476.72
  Q 937.08 494.18 919.66 509.45
  Q 915.86 512.77 912.13 515.31
  C 907.99 518.13 905.68 520.26 901.75 522.67
  Q 895.91 526.26 890.50 529.24
  A 2.14 2.14 0.0 0 0 889.45 531.59
  Q 894.95 555.65 909.20 576.31
  Q 914.72 584.32 922.46 590.54
  Q 923.92 591.71 922.38 593.56
  Q 920.62 595.66 916.26 595.65
  Q 912.72 595.64 905.22 594.19
  Q 900.09 593.20 894.42 591.38
  C 871.76 584.09 852.07 571.00 835.10 553.69
  A 2.73 2.72 59.8 0 0 832.43 552.98
  Q 802.47 561.48 770.74 563.28
  C 763.31 563.70 753.14 564.12 744.76 563.80
  Q 724.57 563.02 718.89 562.56
  Q 712.59 562.04 698.70 559.54
  C 683.46 556.79 669.97 552.81 656.41 547.05
  Q 649.34 544.06 637.69 537.32
  C 617.49 525.64 598.19 506.60 589.21 484.58
  A 1.45 1.44 -18.6 0 0 587.51 483.74
  Q 582.92 484.96 579.57 485.57
  Q 539.37 492.81 499.52 491.16
  Q 493.46 490.91 491.00 490.58
  C 487.24 490.07 484.04 490.24 479.65 489.82
  Q 450.92 487.10 423.99 480.41
  A 2.05 2.04 30.1 0 0 422.09 480.91
  C 401.65 500.11 376.27 515.56 349.57 523.32
  C 342.66 525.33 333.78 527.79 326.83 525.83
  A 2.22 2.17 7.6 0 1 325.22 523.77
  Q 325.19 522.30 326.65 521.12
  Q 328.25 519.82 332.53 516.01
  A 6.57 6.51 -8.1 0 0 334.04 514.02
  Q 334.48 513.13 342.47 499.49
  Q 354.68 478.64 359.91 455.58
  A 1.18 1.17 24.3 0 0 359.44 454.35
  C 356.97 452.63 354.14 451.43 351.61 449.77
  C 325.77 432.81 304.83 408.81 293.01 380.29
  Q 289.66 372.21 286.93 360.67
  Q 285.24 353.50 284.33 341.82
  Q 283.64 332.99 284.83 322.77
  Q 288.72 289.30 309.89 261.62
  Q 318.53 250.33 325.66 243.41
  C 339.54 229.95 354.51 219.00 371.62 209.93
  Q 401.54 194.06 434.57 186.10
  Q 466.12 178.49 496.97 176.98
  Q 515.42 176.08 528.27 176.52
  C 538.05 176.85 544.08 176.58 552.64 177.40
  Q 569.34 178.98 578.00 179.81
  Q 583.10 180.30 588.48 182.07
  A 0.71 0.71 0.0 0 1 588.39 183.44
  L 585.83 183.94
  A 0.65 0.64 -0.7 0 0 585.33 184.45
  Z
  M 584.6797 183.6994
  A 1.46 0.17 -1.2 0 0 583.2164 183.5600
  A 1.46 0.17 -1.2 0 0 581.7603 183.7606
  A 1.46 0.17 -1.2 0 0 583.2236 183.9000
  A 1.46 0.17 -1.2 0 0 584.6797 183.6994
  Z
  M 909.06 586.81
  Q 907.45 585.35 906.31 583.95
  Q 890.86 564.93 883.94 541.32
  C 882.63 536.85 880.58 530.24 882.86 526.35
  Q 883.68 524.95 886.04 523.55
  Q 898.93 515.88 903.48 512.46
  Q 913.10 505.21 920.61 497.85
  C 945.12 473.85 958.86 440.66 954.92 405.93
  C 951.07 372.05 931.06 342.23 903.21 322.74
  Q 887.15 311.50 871.49 305.04
  Q 859.24 299.99 845.61 295.66
  Q 833.58 291.84 818.82 289.45
  Q 809.63 287.96 807.93 287.61
  C 803.69 286.76 800.24 287.16 795.62 286.54
  Q 791.22 285.94 786.36 285.82
  Q 761.76 285.20 737.17 288.00
  A 0.87 0.87 0.0 0 0 736.45 289.15
  Q 742.94 307.60 743.48 328.16
  Q 743.61 332.80 743.18 336.39
  Q 742.41 342.79 742.55 344.61
  A 2.56 2.48 -36.0 0 1 742.35 345.77
  C 740.98 348.89 740.97 354.48 740.13 357.59
  C 739.37 360.40 739.04 363.21 737.84 366.54
  C 735.20 373.86 733.97 378.04 731.11 384.10
  C 722.75 401.79 710.62 418.53 695.59 431.69
  Q 686.19 439.91 684.40 441.16
  Q 670.19 451.11 669.36 451.78
  C 666.07 454.47 662.31 455.70 657.96 458.25
  C 650.75 462.47 640.71 466.85 635.24 469.62
  A 1.88 1.83 25.3 0 1 634.71 469.80
  C 631.28 470.52 627.86 472.53 624.26 473.64
  Q 619.52 475.10 612.36 478.07
  C 611.53 478.42 610.44 478.29 609.72 478.52
  Q 603.20 480.61 597.62 481.94
  A 0.95 0.94 70.1 0 0 597.00 483.28
  Q 601.74 492.73 608.56 501.95
  Q 614.70 510.24 623.83 517.71
  Q 636.57 528.12 648.97 534.53
  Q 668.92 544.83 692.03 549.94
  Q 712.21 554.41 731.51 555.48
  Q 737.19 555.80 747.00 556.14
  Q 751.41 556.30 755.00 556.04
  C 761.66 555.57 767.41 555.87 774.96 555.18
  Q 804.68 552.46 825.96 546.89
  Q 830.50 545.70 832.47 545.00
  A 2.82 2.80 -49.5 0 1 833.94 544.88
  Q 837.74 545.61 840.04 547.96
  Q 863.35 571.81 894.31 583.42
  Q 901.87 586.26 908.65 587.62
  A 0.47 0.47 0.0 0 0 909.06 586.81
  Z"
/>
<ellipse fill="#1e3926" cx="0.00" cy="0.00" transform="translate(743.58,301.11) rotate(-40.5)" rx="1.40" ry="0.25"/>
<ellipse fill="#1e3926" cx="0.00" cy="0.00" transform="translate(744.55,307.65) rotate(-45.7)" rx="1.17" ry="0.20"/>
<ellipse fill="#1e3926" cx="0.00" cy="0.00" transform="translate(746.92,318.02) rotate(-38.5)" rx="1.81" ry="0.18"/>
<path fill="#1e3926" d="
  M 748.40 326.84
  L 745.79 329.66
  A 0.12 0.12 0.0 0 1 745.59 329.53
  Q 746.43 327.50 748.17 326.54
  A 0.19 0.19 0.0 0 1 748.40 326.84
  Z"
/>
<ellipse fill="#1e3926" cx="0.00" cy="0.00" transform="translate(746.19,341.08) rotate(-50.9)" rx="2.39" ry="0.29"/>
<ellipse fill="#1e3926" cx="0.00" cy="0.00" transform="translate(743.02,361.03) rotate(-47.3)" rx="1.16" ry="0.12"/>
<ellipse fill="#1e3926" cx="0.00" cy="0.00" transform="translate(738.61,375.17) rotate(-48.7)" rx="1.13" ry="0.10"/>
<rect fill="#1e3926" x="-0.21" y="-16.80" transform="translate(692.11,392.17) rotate(40.4)" width="0.42" height="33.60" rx="0.21"/>
<path fill="#1e3926" d="
  M 710.63 389.44
  Q 710.71 389.15 710.84 389.07
  A 0.21 0.18 -74.2 0 1 711.00 389.42
  Q 710.88 389.51 710.73 389.54
  A 0.08 0.08 0.0 0 1 710.63 389.44
  Z"
/>
<ellipse fill="#1e3926" cx="0.00" cy="0.00" transform="translate(677.82,408.20) rotate(-46.4)" rx="4.13" ry="0.12"/>
<path fill="#1e3926" d="
  M 690.66 409.44
  Q 690.95 408.89 691.99 408.01
  A 0.08 0.08 0.0 0 1 692.10 408.13
  L 690.73 409.50
  A 0.05 0.05 0.0 0 1 690.66 409.44
  Z"
/>
<ellipse fill="#1e3926" cx="0.00" cy="0.00" transform="translate(688.98,411.13) rotate(-44.3)" rx="0.88" ry="0.11"/>
<rect fill="#1e3926" x="-0.17" y="-8.00" transform="translate(668.05,419.00) rotate(43.0)" width="0.34" height="16.00" rx="0.17"/>
<ellipse fill="#1e3926" cx="0.00" cy="0.00" transform="translate(684.63,415.38) rotate(-44.1)" rx="1.07" ry="0.04"/>
<path fill="#1e3926" d="
  M 647.56 492.53
  Q 665.69 472.57 670.76 467.01
  Q 676.28 460.94 680.88 456.87
  C 684.32 453.83 686.75 450.98 690.45 447.47
  C 695.54 442.65 699.30 439.54 703.53 434.85
  Q 708.93 428.86 719.70 417.53
  A 0.22 0.21 -46.0 0 1 720.00 417.52
  L 720.00 417.53
  A 0.13 0.12 43.4 0 1 720.01 417.71
  Q 713.64 424.42 706.44 432.44
  Q 699.71 439.94 693.93 445.42
  Q 681.79 456.92 680.84 457.84
  Q 670.02 468.37 647.75 492.78
  A 0.13 0.13 0.0 0 1 647.58 492.79
  L 647.58 492.78
  A 0.18 0.18 0.0 0 1 647.56 492.53
  Z"
/>
<ellipse fill="#1e3926" cx="0.00" cy="0.00" transform="translate(657.35,430.58) rotate(-47.0)" rx="6.95" ry="0.17"/>
<path fill="#1e3926" d="
  M 669.95 430.63
  Q 669.71 430.89 669.65 430.90
  A 0.15 0.15 0.0 0 1 669.48 430.74
  Q 669.50 430.59 669.70 430.39
  A 0.17 0.17 0.0 0 1 669.95 430.63
  Z"
/>
<ellipse fill="#1e3926" cx="0.00" cy="0.00" transform="translate(667.22,433.47) rotate(-46.6)" rx="3.00" ry="0.17"/>
<ellipse fill="#1e3926" cx="0.00" cy="0.00" transform="translate(648.54,439.85) rotate(-45.3)" rx="5.62" ry="0.16"/>
<ellipse fill="#1e3926" cx="0.00" cy="0.00" transform="translate(711.95,443.00) rotate(-42.1)" rx="0.89" ry="0.07"/>
<ellipse fill="#1e3926" cx="0.00" cy="0.00" transform="translate(686.50,444.48) rotate(-57.4)" rx="1.42" ry="0.14"/>
<ellipse fill="#1e3926" cx="0.00" cy="0.00" transform="translate(710.22,444.51) rotate(-38.0)" rx="0.63" ry="0.09"/>
<path fill="#1e3926" d="
  M 708.81 445.56
  Q 709.01 445.18 709.37 445.17
  Q 709.25 445.40 708.81 445.56
  Z"
/>
<path fill="#1e3926" d="
  M 708.81 445.56
  Q 706.97 447.11 705.15 448.67
  Q 697.61 455.14 691.20 462.68
  Q 684.10 471.01 684.04 471.08
  Q 674.88 481.24 668.89 487.64
  A 0.18 0.18 0.0 0 1 668.64 487.65
  L 668.63 487.65
  A 0.20 0.19 -46.1 0 1 668.63 487.38
  Q 680.90 474.52 690.54 462.34
  C 694.09 457.86 698.33 454.28 702.51 450.01
  Q 704.77 447.70 708.81 445.56
  Z"
/>
<ellipse fill="#1e3926" cx="0.00" cy="0.00" transform="translate(639.88,449.26) rotate(-48.7)" rx="3.14" ry="0.15"/>
<ellipse fill="#1e3926" cx="0.00" cy="0.00" transform="translate(677.88,449.39) rotate(-34.3)" rx="0.42" ry="0.06"/>
<rect fill="#1e3926" x="-0.25" y="-20.22" transform="translate(662.71,464.50) rotate(43.1)" width="0.50" height="40.44" rx="0.25"/>
<ellipse fill="#1e3926" cx="0.00" cy="0.00" transform="translate(635.42,454.05) rotate(-45.0)" rx="2.86" ry="0.17"/>
<ellipse fill="#1e3926" cx="0.00" cy="0.00" transform="translate(719.41,454.64) rotate(-42.3)" rx="0.39" ry="0.08"/>
<path fill="#1e3926" d="
  M 640.39 485.04
  Q 642.68 479.51 646.05 475.94
  Q 652.27 469.35 654.81 466.33
  A 8.01 7.51 -88.5 0 1 655.77 465.36
  Q 660.87 461.01 663.45 457.46
  Q 663.80 456.98 664.94 456.35
  A 0.40 0.40 0.0 0 1 665.40 457.00
  Q 653.88 467.28 643.72 479.59
  A 6.18 6.12 -14.5 0 0 642.78 481.17
  Q 641.57 484.25 640.80 485.28
  A 0.24 0.24 0.0 0 1 640.39 485.04
  Z"
/>
<rect fill="#1e3926" x="-0.25" y="-15.46" transform="translate(706.78,466.90) rotate(44.2)" width="0.50" height="30.92" rx="0.24"/>
<ellipse fill="#1e3926" cx="0.00" cy="0.00" transform="translate(622.95,483.99) rotate(-47.3)" rx="15.90" ry="0.46"/>
<path fill="#1e3926" d="
  M 642.66 473.31
  L 624.45 493.00
  A 1.63 1.41 -16.9 0 0 624.16 493.46
  L 622.91 496.65
  A 1.16 1.15 78.3 0 1 622.69 496.99
  L 615.21 504.82
  A 0.22 0.21 -62.1 0 1 615.02 504.88
  L 615.01 504.87
  A 0.23 0.23 0.0 0 1 614.99 504.54
  Q 618.56 500.53 621.99 496.74
  Q 623.07 495.55 623.35 493.88
  A 1.94 1.93 -21.6 0 1 623.72 493.03
  Q 626.21 489.67 626.91 488.92
  Q 637.58 477.58 639.29 475.80
  Q 641.00 474.02 642.50 473.11
  A 0.13 0.13 0.0 0 1 642.66 473.31
  Z"
/>
<ellipse fill="#1e3926" cx="0.00" cy="0.00" transform="translate(693.50,481.25) rotate(-47.0)" rx="2.03" ry="0.14"/>
<path fill="#1e3926" d="
  M 691.03 484.18
  Q 690.61 484.81 689.91 485.19
  A 0.05 0.01 -31.7 0 1 689.88 485.20
  L 689.87 485.19
  A 0.02 0.01 9.2 0 1 689.85 485.17
  Q 690.22 484.46 690.79 483.97
  A 0.16 0.16 0.0 0 1 691.03 484.18
  Z"
/>
<path fill="#1e3926" d="
  M 689.00 486.11
  Q 688.93 486.53 688.50 486.63
  Q 688.56 486.21 689.00 486.11
  Z"
/>
<ellipse fill="#1e3926" cx="0.00" cy="0.00" transform="translate(638.62,487.60) rotate(-48.8)" rx="0.39" ry="0.03"/>
<ellipse fill="#1e3926" cx="0.00" cy="0.00" transform="translate(667.91,488.33) rotate(-43.4)" rx="0.39" ry="0.09"/>
<path fill="#1e3926" d="
  M 636.74 490.98
  Q 637.21 489.57 638.02 488.28
  A 0.05 0.05 0.0 0 1 638.11 488.32
  Q 637.64 489.72 636.74 490.98
  Z"
/>
<path fill="#1e3926" d="
  M 636.74 490.98
  Q 636.62 491.71 636.26 492.33
  A 0.14 0.13 -24.4 0 1 636.01 492.24
  Q 636.14 491.60 636.74 490.98
  Z"
/>
<ellipse fill="#1e3926" cx="0.00" cy="0.00" transform="translate(665.10,491.57) rotate(-43.6)" rx="0.35" ry="0.14"/>
<path fill="#1e3926" d="
  M 662.45 494.56
  L 661.54 495.64
  A 0.14 0.09 -48.7 0 1 661.37 495.69
  Q 661.35 495.67 661.35 495.65
  A 0.11 0.09 -39.3 0 1 661.37 495.55
  L 662.43 494.54
  A 0.01 0.01 0.0 0 1 662.45 494.56
  Z"
/>
<path fill="#1e3926" d="
  M 644.47 495.93
  Q 644.60 495.51 644.90 495.46
  Q 644.85 495.74 644.47 495.93
  Z"
/>
<path fill="#1e3926" d="
  M 644.47 495.93
  Q 644.26 496.46 643.92 496.81
  A 0.12 0.12 0.0 0 1 643.73 496.66
  Q 644.00 496.23 644.47 495.93
  Z"
/>
<path fill="#1e3926" d="
  M 660.45 496.69
  Q 660.61 496.22 660.85 496.33
  Q 660.78 496.55 660.45 496.69
  Z"
/>
<path fill="#1e3926" d="
  M 660.45 496.69
  Q 660.25 497.13 659.89 497.39
  Q 659.79 497.05 660.45 496.69
  Z"
/>
<ellipse fill="#1e3926" cx="0.00" cy="0.00" transform="translate(641.49,499.64) rotate(-50.3)" rx="2.33" ry="0.15"/>
<path fill="#1e3926" d="
  M 808.88 649.59
  A 0.64 0.64 0.0 0 0 809.58 650.39
  L 824.01 648.53
  A 2.51 2.50 -11.2 0 1 826.74 650.35
  L 826.74 650.38
  A 1.91 1.90 -15.3 0 1 825.31 652.88
  L 808.61 656.19
  A 2.20 2.20 0.0 0 0 806.92 657.74
  C 805.60 662.38 797.11 693.41 808.64 688.39
  C 814.45 685.86 818.03 681.97 823.16 677.01
  A 0.58 0.58 0.0 0 1 824.14 677.45
  C 824.05 679.37 823.21 680.58 822.29 682.14
  Q 817.99 689.38 811.70 692.83
  C 802.63 697.80 796.80 691.24 796.75 682.49
  C 796.70 674.92 798.68 666.81 799.95 659.25
  A 0.94 0.94 0.0 0 0 798.75 658.20
  Q 798.07 658.41 794.51 659.21
  C 789.95 660.23 788.69 655.41 793.00 653.97
  Q 793.63 653.76 800.49 652.21
  A 2.13 2.12 -87.8 0 0 802.06 650.75
  L 807.14 633.91
  A 2.80 2.80 0.0 0 1 810.55 632.02
  L 810.69 632.06
  A 2.87 2.87 0.0 0 1 812.67 635.57
  L 808.88 649.59
  Z"
/>
<path fill="#1e3926" d="
  M 672.16 687.45
  L 666.95 689.13
  A 2.40 2.40 0.0 0 1 663.86 687.31
  L 663.80 687.00
  A 3.03 3.02 -14.6 0 1 665.84 683.53
  L 673.37 681.10
  A 1.99 1.98 86.5 0 0 674.71 679.58
  C 676.13 672.34 683.00 628.78 697.49 635.90
  Q 700.57 637.41 701.51 640.96
  C 702.32 644.01 703.07 649.00 699.40 650.13
  A 2.30 2.29 81.1 0 1 696.44 647.96
  Q 696.39 644.69 695.75 642.13
  A 1.20 1.20 0.0 0 0 693.95 641.40
  Q 691.66 642.85 690.40 645.44
  C 685.66 655.21 683.06 666.45 681.10 677.87
  A 0.95 0.95 0.0 0 0 682.22 678.97
  L 692.94 676.84
  A 3.00 3.00 0.0 0 1 696.44 679.11
  L 696.50 679.36
  A 2.45 2.45 0.0 0 1 694.59 682.13
  Q 687.49 683.62 682.06 685.05
  C 680.23 685.53 679.34 685.99 679.03 688.14
  C 676.68 704.15 674.64 718.79 675.09 733.12
  C 675.18 735.92 674.68 739.15 671.60 739.12
  A 1.46 1.42 67.6 0 1 670.56 738.67
  C 668.50 736.55 669.01 734.25 669.10 731.46
  Q 669.74 712.71 672.73 693.24
  Q 673.10 690.78 672.90 687.95
  A 0.57 0.57 0.0 0 0 672.16 687.45
  Z"
/>
<ellipse fill="#1e3926" cx="0.00" cy="0.00" transform="translate(714.06,654.75) rotate(-67.3)" rx="4.83" ry="4.06"/>
<path fill="#1e3926" d="
  M 616.88 712.06
  A 0.64 0.64 0.0 0 1 617.65 713.07
  L 608.50 722.22
  A 2.48 2.39 -19.0 0 0 607.81 723.57
  C 606.47 732.40 604.50 741.31 600.54 748.98
  C 597.84 754.21 592.45 760.57 586.07 758.83
  C 581.38 757.56 580.08 751.92 581.65 747.81
  C 585.78 736.95 593.31 728.65 601.96 720.79
  A 2.48 2.47 73.0 0 0 602.76 719.27
  L 604.92 702.74
  A 0.36 0.36 0.0 0 0 604.37 702.39
  Q 604.01 702.61 603.86 702.87
  C 600.98 708.08 596.67 714.28 591.83 716.81
  C 585.56 720.08 580.61 713.39 581.66 707.79
  Q 581.77 707.22 581.14 707.08
  Q 581.02 707.06 580.85 707.11
  Q 580.72 707.15 580.62 707.28
  Q 575.80 713.65 569.60 719.35
  C 561.35 726.94 551.20 723.40 551.40 711.74
  Q 551.61 700.04 554.48 687.54
  A 0.71 0.71 0.0 0 0 553.63 686.69
  C 550.64 687.37 545.61 689.05 544.21 686.95
  A 2.41 2.03 51.5 0 1 544.29 684.14
  C 546.46 681.94 550.67 681.54 554.56 680.74
  A 2.72 2.71 2.3 0 0 556.62 678.85
  L 561.78 661.21
  A 3.12 3.11 -74.6 0 1 565.53 659.07
  L 565.62 659.10
  A 2.91 2.90 16.7 0 1 567.55 662.66
  L 563.37 677.39
  A 0.81 0.81 0.0 0 0 564.26 678.41
  L 578.29 676.61
  A 1.96 1.96 0.0 0 1 580.49 678.81
  L 580.42 679.35
  A 2.57 2.55 -2.1 0 1 578.37 681.54
  L 563.30 684.52
  A 2.86 2.84 -88.5 0 0 561.09 686.63
  C 560.06 690.75 554.31 715.00 560.09 717.49
  C 563.23 718.85 571.32 711.73 573.40 710.21
  C 577.01 707.57 580.70 703.41 582.14 699.64
  Q 582.48 698.77 584.92 688.31
  A 3.06 3.06 0.0 0 1 588.48 685.99
  L 588.60 686.01
  A 2.78 2.77 -77.9 0 1 590.78 689.39
  C 588.77 697.74 586.47 705.39 587.80 710.16
  A 1.74 1.74 0.0 0 0 590.30 711.23
  Q 593.24 709.66 595.61 706.58
  C 600.56 700.13 602.85 694.13 606.32 685.49
  A 3.04 2.88 -74.6 0 1 609.45 683.60
  Q 611.81 683.94 611.67 686.78
  Q 610.93 701.98 609.08 714.56
  Q 608.99 715.18 609.09 715.86
  A 0.45 0.44 -19.5 0 0 609.75 716.17
  L 616.88 712.06
  Z
  M 587.70 753.63
  C 590.83 755.25 595.10 747.98 596.14 745.63
  Q 599.74 737.58 601.36 728.31
  Q 601.47 727.73 601.19 727.59
  Q 600.82 727.39 600.40 727.81
  Q 593.77 734.49 589.28 742.08
  C 587.97 744.29 584.51 751.98 587.70 753.63
  Z"
/>
<path fill="#1e3926" d="
  M 781.91 669.75
  A 1.47 1.47 0.0 0 1 780.11 668.79
  L 779.25 666.13
  A 1.21 1.21 0.0 0 0 777.72 665.35
  C 773.07 666.91 768.84 672.28 773.50 676.49
  Q 778.43 680.94 780.70 683.40
  C 786.64 689.85 780.97 696.84 774.00 698.08
  Q 769.51 698.88 765.01 697.04
  C 762.24 695.91 760.24 693.17 762.56 690.53
  A 1.84 1.84 0.0 0 1 764.89 690.16
  C 765.98 690.82 767.05 691.95 768.78 692.47
  Q 772.65 693.63 776.01 690.64
  A 2.18 2.18 0.0 0 0 776.60 688.23
  C 775.23 684.69 769.56 680.60 768.21 679.14
  C 761.73 672.11 767.57 663.79 774.53 660.54
  C 778.81 658.53 784.32 659.87 784.78 665.19
  Q 785.09 668.83 781.91 669.75
  Z"
/>
<path fill="#1e3926" d="
  M 402.75 730.84
  A 0.56 0.56 0.0 0 1 403.58 731.45
  Q 402.65 735.15 400.18 738.92
  C 393.75 748.72 383.71 759.64 371.72 761.55
  C 361.74 763.14 354.51 754.91 352.79 745.74
  C 351.11 736.79 351.45 729.25 353.22 720.21
  Q 358.00 695.88 372.24 676.02
  Q 374.89 672.33 378.94 668.74
  C 387.49 661.14 397.94 661.88 400.16 674.51
  C 401.21 680.52 399.44 688.33 397.48 693.99
  A 3.01 3.01 0.0 0 1 394.04 695.96
  L 393.91 695.93
  A 2.56 2.56 0.0 0 1 391.93 692.84
  C 393.78 684.90 395.50 680.04 394.05 673.50
  C 391.85 663.66 380.09 675.07 377.85 678.16
  Q 363.80 697.63 359.04 721.52
  Q 356.76 732.95 358.46 743.49
  C 359.62 750.65 364.64 758.19 372.81 755.92
  C 376.87 754.79 380.73 752.34 384.16 749.61
  Q 391.62 743.68 401.32 732.06
  Q 401.91 731.35 402.75 730.84
  Z"
/>
<path fill="#1e3926" d="
  M 493.24 706.19
  Q 493.26 706.17 495.93 702.96
  C 500.06 698.00 508.01 693.44 512.46 700.61
  A 1.63 1.63 0.0 0 1 512.67 701.77
  Q 512.15 704.44 508.88 704.43
  A 0.86 0.69 51.2 0 1 508.56 704.36
  L 506.21 703.27
  A 1.00 0.66 56.3 0 0 506.09 703.22
  C 503.20 702.24 499.06 706.86 497.73 709.00
  Q 491.85 718.44 490.13 729.58
  Q 489.90 731.09 488.27 732.13
  A 2.42 2.39 23.6 0 1 487.33 732.49
  C 481.97 733.33 483.94 724.62 484.56 722.12
  A 0.45 0.45 0.0 0 0 483.74 721.77
  Q 481.87 724.67 479.31 726.55
  A 3.54 3.50 88.2 0 0 478.37 727.56
  C 476.33 730.88 475.18 732.42 471.92 733.96
  C 466.10 736.71 460.93 730.73 460.45 725.26
  A 0.46 0.46 0.0 0 0 459.59 725.08
  C 456.97 729.87 448.47 742.33 441.91 737.10
  Q 438.85 734.66 438.67 730.59
  A 0.53 0.53 0.0 0 0 437.80 730.20
  C 436.87 730.97 435.87 731.91 435.16 733.30
  Q 431.61 740.28 424.29 744.03
  C 416.23 748.15 412.01 738.32 412.24 732.23
  Q 412.57 723.57 414.51 713.01
  Q 418.58 690.84 424.82 669.29
  A 3.23 3.23 0.0 0 1 428.59 667.03
  L 428.82 667.07
  A 2.75 2.75 0.0 0 1 430.89 670.52
  C 425.69 688.49 420.90 707.46 418.40 726.43
  Q 417.57 732.75 419.20 737.75
  A 2.54 2.53 72.7 0 0 422.32 739.39
  Q 424.85 738.66 427.30 736.53
  Q 431.68 732.74 434.77 730.27
  C 438.56 727.25 439.83 722.47 442.69 715.95
  Q 445.14 710.39 450.29 705.05
  C 453.38 701.86 459.04 698.65 462.78 702.73
  C 464.08 704.15 465.26 704.57 466.79 705.67
  A 2.66 2.66 0.0 0 1 467.84 708.41
  Q 466.84 712.86 466.16 716.69
  C 465.55 720.11 465.10 731.86 472.17 728.05
  Q 474.81 726.62 478.03 725.21
  A 4.11 3.90 10.1 0 0 479.17 724.46
  Q 484.43 719.52 485.50 713.24
  Q 486.32 708.39 487.22 701.02
  Q 487.57 698.17 490.01 697.42
  A 2.33 1.95 72.6 0 1 492.54 699.04
  Q 493.49 701.97 492.47 705.74
  A 0.46 0.46 0.0 0 0 493.24 706.19
  Z
  M 446.46 732.14
  C 451.47 729.67 461.82 713.69 459.97 708.14
  A 1.93 1.93 0.0 0 0 457.45 706.94
  C 451.72 709.13 447.22 718.81 445.46 724.73
  Q 444.47 728.04 445.25 731.56
  A 0.86 0.85 -19.1 0 0 446.46 732.14
  Z"
/>
<path fill="#1e3926" d="
  M 727.96 688.52
  Q 725.62 691.64 721.21 696.48
  Q 716.84 701.28 714.17 702.65
  C 705.02 707.37 701.93 699.03 702.88 691.84
  Q 703.99 683.47 707.05 673.56
  A 2.85 2.84 -71.5 0 1 710.73 671.72
  L 710.86 671.76
  A 3.02 3.02 0.0 0 1 712.70 675.56
  Q 708.89 686.92 708.84 696.06
  A 2.41 2.22 -89.4 0 0 711.02 698.48
  C 712.49 698.51 714.19 697.24 715.54 696.34
  C 720.42 693.10 726.08 688.53 728.89 683.36
  A 4.68 4.61 -25.3 0 0 729.37 682.05
  Q 730.09 678.65 731.13 671.20
  C 731.54 668.26 732.69 666.20 735.83 667.45
  A 1.12 1.11 3.8 0 1 736.50 668.21
  Q 737.42 671.72 736.56 675.13
  A 0.49 0.49 0.0 0 0 737.46 675.50
  C 740.57 670.29 748.25 663.65 754.42 668.76
  C 756.61 670.57 755.87 673.86 752.80 674.27
  A 1.66 1.64 52.5 0 1 751.93 674.15
  L 749.19 672.94
  A 1.43 1.40 43.4 0 0 748.03 672.96
  C 739.60 677.04 735.51 688.74 733.49 697.99
  Q 732.69 701.67 729.26 701.09
  A 2.46 2.37 -84.2 0 1 727.29 698.59
  Q 727.44 694.38 728.59 689.25
  Q 728.68 688.87 728.38 688.51
  A 0.27 0.27 0.0 0 0 727.96 688.52
  Z"
/>
<ellipse fill="#1e3926" cx="0.00" cy="0.00" transform="translate(531.06,676.28) rotate(-66.2)" rx="4.69" ry="4.00"/>
<ellipse fill="#1e3926" cx="0.00" cy="0.00" transform="translate(841.77,684.45) rotate(-64.5)" rx="4.71" ry="4.13"/>
<path fill="#1e3926" d="
  M 544.30 710.35
  A 0.79 0.79 0.0 0 1 545.13 711.44
  C 542.69 717.06 535.12 726.42 528.77 726.75
  C 522.27 727.08 519.80 720.24 520.48 714.51
  Q 521.58 705.19 524.10 696.20
  A 3.42 3.41 -76.2 0 1 528.10 693.77
  L 528.26 693.80
  A 2.98 2.97 -75.8 0 1 530.50 697.56
  Q 527.41 707.89 526.73 715.49
  Q 526.49 718.21 527.34 720.12
  A 1.72 1.71 -21.7 0 0 529.47 721.03
  Q 532.35 720.02 535.10 717.81
  Q 538.86 714.78 543.71 710.70
  Q 544.10 710.38 544.30 710.35
  Z"
/>
<path fill="#1e3926" d="
  M 849.40 792.93
  A 0.23 0.23 0.0 0 1 849.76 793.19
  C 847.04 799.29 843.26 805.01 837.22 807.68
  Q 832.96 809.56 829.71 806.32
  C 826.90 803.52 826.74 796.70 827.17 792.99
  Q 829.97 768.84 838.01 743.08
  A 2.28 2.27 23.2 0 1 841.29 741.77
  L 841.39 741.82
  A 3.59 3.58 21.7 0 1 843.12 745.81
  Q 837.18 769.66 834.86 779.81
  Q 832.58 789.79 833.01 799.00
  C 833.34 805.76 839.31 803.61 842.20 800.51
  Q 848.52 793.75 849.40 792.93
  Z"
/>
<path fill="#1e3926" d="
  M 915.57 785.85
  A 0.63 0.62 1.4 0 1 916.30 786.61
  C 914.62 793.44 905.45 799.96 899.75 802.22
  C 891.34 805.55 882.23 801.37 881.59 791.77
  A 0.76 0.76 0.0 0 0 880.46 791.15
  L 873.36 795.09
  A 4.90 4.77 -82.6 0 0 872.15 796.05
  C 870.60 797.72 870.56 800.80 868.60 802.48
  C 864.06 806.35 856.90 807.52 851.98 803.29
  C 849.70 801.33 850.52 799.11 852.75 797.71
  A 1.08 1.07 39.3 0 1 853.70 797.62
  C 854.89 798.10 855.90 799.24 857.12 799.84
  Q 860.26 801.39 864.23 797.80
  A 2.09 2.09 0.0 0 0 864.66 795.22
  C 863.18 792.57 860.07 790.14 856.49 786.61
  C 849.00 779.23 861.09 765.39 869.49 769.50
  C 872.52 770.98 873.69 774.47 871.93 777.23
  A 2.06 2.05 -43.8 0 1 868.42 777.16
  L 867.25 775.12
  A 1.45 1.45 0.0 0 0 865.50 774.49
  C 862.36 775.66 858.68 778.77 860.51 782.25
  Q 861.34 783.82 864.26 786.25
  Q 868.21 789.52 869.71 792.40
  A 0.76 0.76 0.0 0 0 870.78 792.70
  Q 873.96 790.80 877.82 788.82
  C 880.10 787.66 881.23 786.36 882.09 783.88
  C 884.09 778.11 888.38 769.19 894.86 767.70
  C 901.81 766.10 906.03 772.68 902.85 778.62
  Q 898.33 787.05 888.81 788.47
  A 1.60 1.60 0.0 0 0 887.45 790.21
  Q 888.31 798.93 896.62 797.68
  Q 898.59 797.38 904.15 794.85
  A 3.85 3.77 11.9 0 0 905.03 794.29
  C 908.96 791.01 914.28 786.09 915.57 785.85
  Z
  M 897.9595 773.1563
  A 6.25 2.32 -48.4 0 0 892.0751 776.2897
  A 6.25 2.32 -48.4 0 0 889.6605 782.5037
  A 6.25 2.32 -48.4 0 0 895.5449 779.3703
  A 6.25 2.32 -48.4 0 0 897.9595 773.1563
  Z"
/>
<path fill="#1e3926" d="
  M 663.17 815.54
  Q 663.03 818.26 661.37 819.84
  C 658.71 822.38 657.66 825.60 654.16 826.96
  C 648.75 829.05 645.39 825.44 644.11 820.65
  A 0.72 0.72 0.0 0 0 642.82 820.42
  C 640.24 824.06 634.76 830.42 629.80 829.99
  C 621.47 829.28 622.35 820.26 622.52 812.73
  Q 622.56 810.64 622.05 809.25
  A 1.01 1.01 0.0 0 0 620.37 808.90
  C 614.28 815.35 610.97 823.40 607.14 832.34
  A 2.74 2.72 -75.6 0 1 604.37 833.99
  Q 601.09 833.68 601.38 829.76
  Q 601.80 824.03 602.96 816.95
  Q 606.25 796.79 610.86 772.71
  A 2.61 2.61 0.0 0 1 614.13 770.69
  L 614.25 770.72
  A 3.03 3.03 0.0 0 1 616.44 774.19
  L 609.04 814.52
  A 0.37 0.36 -72.3 0 0 609.24 814.92
  Q 609.54 815.07 609.86 814.86
  Q 609.97 814.78 610.07 814.56
  Q 612.94 808.04 618.16 803.64
  C 623.40 799.21 628.84 802.35 628.34 808.88
  C 628.09 812.11 627.28 820.30 629.43 823.96
  A 1.69 1.69 0.0 0 0 631.71 824.57
  Q 638.17 820.92 642.69 814.13
  C 645.20 810.35 645.80 804.34 647.39 799.49
  A 3.21 3.21 0.0 0 1 650.87 797.32
  L 651.11 797.35
  A 2.39 2.39 0.0 0 1 653.11 800.30
  C 651.51 806.66 649.42 814.00 650.45 820.00
  C 650.97 823.05 654.21 821.03 655.67 820.45
  Q 659.82 818.79 662.85 815.41
  A 0.18 0.18 0.0 0 1 663.17 815.54
  Z"
/>
<path fill="#1e3926" d="
  M 821.53 798.63
  Q 815.59 805.44 813.82 807.31
  C 812.39 808.83 807.89 811.09 805.35 811.49
  Q 794.70 813.13 791.48 802.55
  Q 790.89 800.62 790.66 795.49
  A 2.18 2.17 54.3 0 1 790.80 794.62
  C 793.42 787.62 798.01 776.07 806.69 775.50
  Q 810.06 775.28 812.15 777.49
  C 815.03 780.52 814.45 784.39 812.28 787.86
  Q 807.57 795.40 798.39 797.23
  A 1.37 1.35 2.9 0 0 797.36 798.15
  Q 796.70 800.23 797.82 802.58
  Q 800.25 807.68 805.85 806.03
  Q 812.29 804.14 816.04 801.53
  Q 820.22 798.63 821.17 798.16
  A 0.30 0.30 0.0 0 1 821.53 798.63
  Z
  M 808.0350 781.3063
  A 6.64 2.33 -48.9 0 0 801.9142 784.7783
  A 6.64 2.33 -48.9 0 0 799.3050 791.3137
  A 6.64 2.33 -48.9 0 0 805.4258 787.8417
  A 6.64 2.33 -48.9 0 0 808.0350 781.3063
  Z"
/>
<ellipse fill="#1e3926" cx="0.00" cy="0.00" transform="translate(653.81,781.19) rotate(-71.8)" rx="4.69" ry="3.95"/>
<path fill="#1e3926" d="
  M 549.83 827.15
  A 0.47 0.47 0.0 0 0 548.93 826.93
  Q 545.75 834.46 539.65 839.75
  C 536.37 842.60 532.17 843.59 529.29 839.77
  C 525.05 834.15 528.95 820.67 530.70 814.15
  A 2.73 2.73 0.0 0 1 534.12 812.25
  L 534.23 812.28
  A 2.98 2.96 15.1 0 1 536.27 815.81
  Q 533.80 826.26 533.20 831.23
  Q 532.94 833.41 533.75 835.31
  A 1.35 1.34 65.7 0 0 535.57 836.00
  C 542.54 832.68 547.84 819.85 550.09 812.86
  C 550.59 811.32 551.52 809.92 553.44 810.07
  C 556.40 810.31 556.48 813.02 556.23 815.52
  Q 555.34 824.27 554.70 835.84
  A 0.37 0.37 0.0 0 0 555.32 836.14
  Q 563.30 828.85 571.87 821.88
  Q 573.44 820.60 573.75 818.73
  Q 574.83 812.24 575.95 805.89
  A 1.12 1.12 0.0 0 0 574.50 804.63
  L 570.05 806.06
  A 2.52 2.51 72.7 0 1 566.86 804.38
  L 566.78 804.11
  A 2.76 2.76 0.0 0 1 568.75 800.87
  L 575.94 798.90
  A 2.41 2.40 -89.3 0 0 577.62 797.25
  L 582.37 781.02
  A 2.87 2.86 -75.0 0 1 585.79 779.04
  L 586.04 779.10
  A 2.73 2.73 0.0 0 1 588.02 782.52
  L 584.12 795.84
  A 0.85 0.85 0.0 0 0 585.16 796.90
  C 587.40 796.31 595.32 794.25 597.84 795.35
  A 2.04 1.89 -66.7 0 1 598.77 797.97
  Q 598.15 799.43 596.14 799.92
  Q 590.29 801.32 584.16 802.63
  A 2.86 2.85 89.9 0 0 581.97 804.84
  Q 580.95 809.64 579.25 821.25
  Q 578.39 827.17 580.38 832.50
  A 2.49 2.48 70.3 0 0 583.50 833.98
  C 588.72 832.23 593.27 827.98 597.30 824.43
  A 0.41 0.41 0.0 0 1 597.96 824.86
  Q 595.89 831.44 590.77 835.56
  C 585.03 840.18 577.50 841.87 574.23 833.52
  Q 572.90 830.12 573.15 826.77
  A 0.47 0.47 0.0 0 0 572.35 826.40
  C 567.32 831.27 560.49 837.01 554.68 843.28
  A 3.13 3.13 0.0 0 0 553.86 845.05
  C 552.75 854.39 548.33 883.69 535.16 883.55
  C 530.89 883.51 528.60 879.93 528.72 876.20
  C 528.82 872.71 530.48 867.75 532.25 864.69
  Q 537.90 854.87 546.14 845.64
  Q 548.41 843.09 548.76 840.27
  Q 549.24 836.50 549.83 827.15
  Z
  M 535.05 878.22
  C 538.25 879.68 542.16 872.21 543.09 869.82
  Q 546.29 861.60 547.45 852.25
  Q 547.52 851.67 547.24 851.54
  Q 546.86 851.36 546.46 851.80
  Q 540.17 858.80 536.05 866.61
  C 534.86 868.88 531.77 876.73 535.05 878.22
  Z"
/>
<path fill="#1e3926" d="
  M 730.02 805.72
  A 0.50 0.49 -28.7 0 0 729.09 805.45
  Q 726.36 810.47 722.18 814.22
  C 717.62 818.31 711.88 820.16 709.18 813.02
  A 0.61 0.61 0.0 0 0 708.15 812.84
  C 705.38 816.07 702.10 819.57 697.57 820.25
  C 692.84 820.96 689.72 815.91 689.57 811.90
  Q 689.29 803.87 689.04 801.62
  A 0.88 0.88 0.0 0 0 687.65 801.01
  Q 685.76 802.39 684.27 804.52
  Q 678.50 812.84 674.02 822.77
  A 2.07 2.01 -9.6 0 1 673.50 823.48
  Q 671.63 825.15 669.24 823.92
  A 1.32 1.29 -87.3 0 1 668.60 823.20
  C 667.20 819.32 668.89 814.97 668.73 810.94
  C 668.66 809.28 669.67 807.61 669.88 805.84
  Q 670.55 800.25 671.48 795.14
  A 2.91 2.90 8.4 0 1 674.66 792.78
  L 674.87 792.81
  A 2.79 2.79 0.0 0 1 677.28 795.97
  L 675.61 807.63
  A 0.33 0.32 63.0 0 0 676.22 807.83
  Q 679.49 801.54 684.52 796.39
  C 689.23 791.57 694.48 793.51 695.02 800.25
  Q 695.04 800.44 695.15 810.39
  Q 695.18 812.44 696.33 814.07
  A 1.96 1.95 -30.4 0 0 698.77 814.70
  C 702.40 812.98 708.56 806.58 709.41 804.64
  Q 711.63 799.59 713.33 796.63
  C 716.15 791.73 724.55 782.09 730.96 785.79
  Q 731.57 786.14 735.57 787.86
  A 3.04 3.03 -71.9 0 1 737.32 791.31
  Q 736.58 794.56 736.54 795.75
  C 736.34 801.15 735.18 806.74 735.58 812.10
  A 0.47 0.47 0.0 0 0 736.36 812.41
  Q 743.52 805.93 751.51 800.78
  A 1.24 1.24 0.0 0 1 753.42 801.91
  L 753.32 803.24
  A 1.90 1.89 73.8 0 1 752.58 804.59
  Q 746.08 809.54 737.41 817.66
  C 734.95 819.96 734.31 821.15 733.73 824.58
  C 732.13 834.13 730.12 843.40 725.66 851.38
  C 723.52 855.20 719.10 859.95 714.47 859.82
  C 710.45 859.71 707.84 855.83 707.87 852.22
  C 707.94 845.70 711.44 840.65 716.02 834.26
  Q 721.47 826.65 727.57 820.31
  Q 728.01 819.86 728.94 817.81
  A 2.69 2.58 60.1 0 0 729.17 816.88
  L 730.02 805.72
  Z
  M 728.8050 790.5846
  A 12.38 3.81 -56.6 0 0 718.8092 798.8227
  A 12.38 3.81 -56.6 0 0 715.1750 811.2554
  A 12.38 3.81 -56.6 0 0 725.1708 803.0173
  A 12.38 3.81 -56.6 0 0 728.8050 790.5846
  Z
  M 714.29 854.43
  C 717.49 856.00 721.67 848.55 722.68 846.16
  Q 726.17 837.93 727.63 828.51
  Q 727.72 827.91 727.44 827.77
  Q 727.06 827.59 726.64 828.02
  Q 720.06 834.92 715.66 842.70
  C 714.38 844.96 711.02 852.82 714.29 854.43
  Z"
/>
<path fill="#1e3926" d="
  M 384.15 831.97
  Q 394.53 828.35 406.65 825.69
  A 2.43 2.43 0.0 0 1 409.52 827.46
  L 409.55 827.57
  A 2.37 2.36 -16.3 0 1 407.99 830.41
  L 382.59 838.60
  A 2.30 2.28 87.4 0 0 381.04 840.31
  Q 378.58 851.75 377.09 862.30
  Q 376.58 865.89 376.91 869.26
  A 1.08 1.08 0.0 0 0 378.06 870.23
  Q 383.12 869.85 388.10 867.83
  Q 399.42 863.25 415.08 855.84
  A 1.65 1.64 84.2 0 1 417.38 857.72
  L 417.10 858.88
  A 4.56 4.55 82.7 0 1 414.85 861.80
  Q 399.21 870.26 382.46 875.70
  Q 379.62 876.63 376.79 876.27
  C 370.53 875.49 370.28 870.43 370.71 865.26
  Q 371.45 856.41 374.55 843.51
  Q 375.04 841.48 373.53 840.37
  A 2.66 2.50 -54.0 0 1 373.08 836.78
  Q 373.96 835.52 375.72 834.65
  A 1.99 1.99 0.0 0 0 376.78 833.33
  L 382.93 808.04
  A 0.72 0.72 0.0 0 0 381.93 807.21
  C 379.16 808.47 374.97 811.64 373.32 808.21
  C 372.14 805.76 376.11 803.25 377.98 802.48
  C 381.30 801.12 383.16 800.48 385.51 798.96
  C 387.72 797.53 390.03 797.86 392.50 797.03
  Q 402.20 793.76 416.77 790.68
  A 3.51 3.50 71.0 0 1 420.65 792.58
  L 420.78 792.86
  A 2.19 2.19 0.0 0 1 419.22 795.96
  Q 404.50 798.75 390.63 803.81
  A 1.65 1.65 0.0 0 0 389.59 804.97
  L 383.23 831.13
  A 0.71 0.71 0.0 0 0 384.15 831.97
  Z"
/>
<path fill="#1e3926" d="
  M 502.58 825.00
  L 502.93 825.04
  A 0.34 0.34 0.0 0 0 503.30 824.80
  Q 504.06 822.09 508.77 818.36
  Q 513.67 814.49 518.69 817.26
  Q 521.24 818.67 520.52 821.16
  A 2.84 2.50 13.0 0 1 517.36 822.87
  Q 516.85 822.77 515.60 822.32
  A 4.26 4.25 -54.8 0 0 511.40 823.05
  C 504.77 828.58 501.02 838.99 499.87 847.32
  C 499.35 851.11 493.75 850.90 493.83 846.90
  Q 493.93 842.58 494.81 838.92
  A 0.50 0.50 0.0 0 0 494.24 838.31
  C 493.44 838.43 488.67 843.95 484.71 848.17
  Q 481.97 851.08 477.31 853.28
  C 467.91 857.71 459.45 851.35 460.09 841.36
  A 0.93 0.92 5.7 0 0 459.29 840.39
  Q 453.72 839.64 450.51 835.25
  A 0.58 0.58 0.0 0 0 449.49 835.40
  C 446.76 843.22 443.59 850.58 439.30 857.35
  C 437.31 860.49 435.24 861.82 432.01 860.45
  C 426.95 858.31 425.30 836.26 424.88 830.89
  A 3.29 3.29 0.0 0 1 427.47 827.42
  L 427.74 827.37
  A 2.50 2.49 81.0 0 1 430.75 829.57
  Q 431.39 836.01 433.03 848.74
  Q 433.34 851.12 434.02 853.19
  A 0.61 0.60 -38.1 0 0 435.11 853.32
  Q 442.85 840.76 445.79 827.18
  C 446.29 824.89 447.00 823.63 449.33 823.63
  A 2.63 2.59 -4.8 0 1 451.93 825.80
  C 452.30 828.02 452.19 829.38 453.27 831.17
  Q 455.17 834.32 459.31 835.42
  A 1.42 1.41 -72.6 0 0 461.01 834.53
  C 462.94 829.10 467.00 820.91 472.55 819.11
  C 478.13 817.31 482.80 821.08 481.90 826.88
  C 480.87 833.56 473.49 838.98 467.01 840.25
  A 1.10 1.09 86.3 0 0 466.13 841.26
  Q 466.02 843.00 466.74 845.30
  C 469.60 854.39 482.29 844.87 486.61 841.86
  Q 491.55 838.42 494.78 832.67
  A 5.94 5.89 -27.1 0 0 495.50 830.47
  Q 496.05 826.05 496.85 819.39
  Q 497.05 817.79 498.57 816.47
  A 1.97 1.89 -68.6 0 1 499.55 816.02
  Q 501.94 815.70 502.50 818.05
  Q 503.21 821.04 502.26 824.52
  A 0.38 0.38 0.0 0 0 502.58 825.00
  Z
  M 475.7855 824.7095
  A 6.19 2.18 -51.0 0 0 470.1958 828.1481
  A 6.19 2.18 -51.0 0 0 467.9945 834.3305
  A 6.19 2.18 -51.0 0 0 473.5842 830.8919
  A 6.19 2.18 -51.0 0 0 475.7855 824.7095
  Z"
/>
<path fill="#1e3926" d="
  M 808.26 905.25
  Q 809.22 904.07 812.64 899.17
  C 814.99 895.81 819.62 891.24 823.81 893.71
  C 827.22 895.73 827.13 902.46 826.59 906.28
  C 826.11 909.65 825.99 912.06 826.66 915.16
  A 2.78 2.30 83.7 0 0 828.90 917.33
  Q 829.90 917.37 831.33 916.32
  C 834.25 914.16 838.31 911.05 838.73 908.00
  Q 838.95 906.37 839.49 905.09
  C 842.25 898.41 843.46 894.55 847.95 890.26
  C 851.73 886.66 858.25 886.23 860.34 891.87
  C 862.07 896.57 858.20 902.25 854.44 904.98
  Q 851.01 907.47 847.00 908.52
  A 2.56 2.56 0.0 0 0 845.43 912.27
  L 846.64 914.36
  A 5.12 5.11 -22.3 0 0 852.37 916.75
  Q 861.02 914.49 867.84 907.10
  Q 870.12 904.62 870.31 903.02
  Q 871.30 894.79 872.51 889.05
  Q 872.85 887.45 874.69 886.99
  A 2.35 2.35 0.0 0 1 877.51 888.63
  Q 878.34 891.57 877.35 894.57
  A 0.53 0.53 0.0 0 0 878.31 895.00
  Q 880.92 890.59 885.59 888.53
  C 888.88 887.08 892.81 887.62 894.69 890.81
  A 1.55 1.54 -55.6 0 1 894.88 891.84
  Q 894.59 893.53 892.96 894.16
  C 891.18 894.84 889.27 893.38 887.66 893.91
  Q 885.68 894.57 884.97 895.26
  C 878.61 901.49 876.06 909.30 874.20 917.75
  A 2.91 2.89 -82.9 0 1 871.29 920.03
  C 867.02 919.91 868.92 913.60 869.24 911.44
  A 0.43 0.43 0.0 0 0 868.49 911.09
  C 864.21 915.94 857.71 921.95 851.24 922.36
  Q 843.74 922.84 839.96 915.26
  A 0.77 0.77 0.0 0 0 838.63 915.18
  C 836.35 918.59 832.18 922.95 827.96 922.84
  C 823.50 922.71 821.23 918.05 820.64 914.05
  C 819.97 909.57 821.37 905.52 820.75 901.11
  A 1.29 1.29 0.0 0 0 818.57 900.37
  Q 815.31 903.54 812.85 907.84
  Q 808.77 914.97 805.55 923.58
  Q 804.31 926.90 800.90 925.34
  A 1.27 1.25 2.6 0 1 800.24 924.63
  Q 799.50 922.58 799.77 920.75
  Q 803.98 892.44 808.92 867.44
  Q 809.57 864.18 810.38 861.65
  A 2.24 2.23 6.3 0 1 812.32 860.10
  C 815.50 859.84 815.69 862.40 815.28 865.01
  Q 814.76 868.34 814.19 870.98
  Q 811.64 882.71 807.80 905.04
  A 0.26 0.26 0.0 0 0 808.26 905.25
  Z
  M 854.8419 893.5743
  A 5.93 1.97 -50.5 0 0 849.5499 896.8969
  A 5.93 1.97 -50.5 0 0 847.2981 902.7257
  A 5.93 1.97 -50.5 0 0 852.5901 899.4031
  A 5.93 1.97 -50.5 0 0 854.8419 893.5743
  Z"
/>
<path fill="#1e3926" d="
  M 636.92 921.71
  A 0.65 0.64 -2.3 0 0 637.69 922.42
  L 649.03 920.17
  A 3.21 3.21 0.0 0 1 652.72 922.37
  L 652.73 922.40
  A 2.61 2.61 0.0 0 1 650.72 925.38
  L 637.28 928.41
  A 2.79 2.79 0.0 0 0 635.14 930.74
  Q 633.47 942.97 632.54 955.91
  C 631.97 963.81 632.29 969.24 632.17 976.21
  A 2.36 2.36 0.0 0 1 629.14 978.43
  L 628.84 978.32
  A 4.60 4.59 -77.6 0 1 625.88 973.67
  L 629.02 932.07
  A 0.86 0.86 0.0 0 0 627.86 931.20
  Q 626.09 931.87 624.00 932.20
  A 2.62 2.19 -10.8 0 1 621.11 930.59
  Q 620.53 928.05 623.05 926.89
  Q 625.95 925.55 628.99 924.76
  A 2.24 2.22 -3.0 0 0 630.64 922.94
  C 632.31 912.32 634.20 900.82 637.79 889.80
  C 639.29 885.16 642.41 877.81 647.11 875.84
  C 650.56 874.38 654.51 877.05 655.65 880.09
  Q 657.18 884.18 656.00 887.97
  A 2.68 2.66 -72.2 0 1 652.62 889.73
  Q 651.42 889.34 651.30 887.85
  Q 651.13 885.78 650.58 882.84
  A 1.47 1.47 0.0 0 0 648.02 882.14
  Q 644.84 885.79 642.95 892.21
  Q 638.64 906.88 636.92 921.71
  Z"
/>
<path fill="#1e3926" d="
  M 931.20 903.90
  Q 928.59 908.54 925.24 912.02
  C 918.96 918.52 905.04 922.76 900.23 911.98
  C 898.95 909.11 899.56 905.73 898.55 902.54
  A 1.33 1.29 -41.1 0 1 898.63 901.58
  Q 900.19 898.41 902.51 893.28
  C 904.83 888.14 911.53 880.37 918.08 883.85
  Q 921.21 885.51 921.48 888.93
  C 922.12 897.17 913.11 902.71 906.19 903.98
  A 1.10 1.10 0.0 0 0 905.28 905.00
  C 904.94 910.91 908.47 914.63 914.51 912.97
  Q 917.87 912.05 925.47 908.33
  A 1.15 0.96 5.0 0 0 925.67 908.19
  L 930.77 903.56
  A 0.28 0.28 0.0 0 1 931.20 903.90
  Z
  M 915.6231 888.7610
  A 6.15 2.28 -48.4 0 0 909.8350 891.8462
  A 6.15 2.28 -48.4 0 0 907.4569 897.9590
  A 6.15 2.28 -48.4 0 0 913.2450 894.8738
  A 6.15 2.28 -48.4 0 0 915.6231 888.7610
  Z"
/>
<path fill="#1e3926" d="
  M 507.51 949.47
  A 0.34 0.34 0.0 0 1 507.05 948.99
  Q 510.46 943.73 511.92 940.16
  C 514.82 933.05 522.07 918.99 531.96 924.86
  A 0.34 0.34 0.0 0 0 532.47 924.63
  C 534.45 913.77 536.19 903.58 539.15 893.69
  Q 539.71 891.79 540.98 890.72
  A 2.42 2.23 49.0 0 1 544.21 891.08
  C 545.76 892.82 544.94 896.59 544.48 898.75
  Q 542.10 909.96 537.65 931.98
  Q 536.86 935.89 537.64 944.40
  C 537.83 946.44 539.48 950.31 542.32 948.81
  C 549.16 945.22 553.25 939.24 557.92 933.00
  A 2.33 2.31 -34.6 0 0 558.30 930.98
  Q 557.30 927.40 559.14 923.91
  C 561.82 918.84 570.25 911.44 575.51 917.85
  Q 578.09 920.99 575.99 924.57
  C 575.15 925.99 572.63 926.06 572.13 923.96
  Q 571.99 923.41 571.54 922.12
  A 1.37 1.37 0.0 0 0 569.67 921.33
  C 565.68 923.16 561.17 927.81 565.93 931.78
  Q 568.92 934.27 572.43 937.74
  C 576.51 941.77 576.53 947.28 571.84 950.75
  C 567.30 954.11 561.76 954.45 556.97 951.57
  A 3.72 3.71 -68.4 0 1 555.25 947.59
  L 555.28 947.48
  A 1.97 1.97 0.0 0 1 558.13 946.16
  Q 564.67 949.64 568.55 945.94
  A 2.60 2.36 55.2 0 0 568.94 942.97
  C 567.13 939.51 563.78 937.29 560.58 934.58
  A 0.58 0.57 -52.9 0 0 559.73 934.70
  Q 555.14 941.40 548.81 948.57
  C 546.93 950.70 543.54 953.62 540.96 954.10
  C 535.71 955.07 532.52 948.93 532.12 944.46
  A 0.74 0.74 0.0 0 0 530.70 944.24
  C 528.48 949.59 518.59 963.71 512.07 954.42
  Q 510.09 951.60 510.61 948.84
  A 0.61 0.61 0.0 0 0 509.71 948.20
  L 507.51 949.47
  Z
  M 518.64 951.18
  C 523.77 948.50 527.92 939.74 529.88 934.53
  Q 531.11 931.27 528.20 929.40
  C 525.55 927.71 521.15 933.92 520.20 935.72
  C 517.77 940.27 515.49 945.11 516.81 950.35
  A 1.28 1.28 0.0 0 0 518.64 951.18
  Z"
/>
<path fill="#1e3926" d="
  M 502.87 952.36
  A 0.53 0.53 0.0 0 1 503.65 952.93
  C 502.80 956.67 499.10 960.16 495.65 961.38
  C 490.66 963.16 486.81 959.95 485.40 955.06
  Q 485.14 954.17 484.61 951.01
  A 0.52 0.52 0.0 0 0 483.70 950.75
  Q 480.73 954.22 479.26 956.61
  Q 477.19 959.97 475.25 961.46
  C 472.45 963.61 468.26 966.15 464.80 963.75
  Q 461.41 961.40 460.74 957.05
  A 0.69 0.69 0.0 0 0 459.47 956.80
  C 457.03 960.81 453.03 967.69 447.50 967.65
  Q 442.30 967.61 440.44 961.55
  Q 439.38 958.12 439.36 958.09
  A 0.38 0.38 0.0 0 0 438.73 958.26
  Q 438.14 960.41 434.24 965.72
  C 431.85 968.98 427.53 972.26 423.65 969.84
  C 416.50 965.37 421.58 947.89 423.57 940.97
  A 2.87 2.87 0.0 0 1 426.91 938.95
  L 427.10 939.00
  A 2.53 2.53 0.0 0 1 429.05 942.05
  C 426.92 951.29 425.21 956.60 425.99 963.48
  A 1.20 1.20 0.0 0 0 427.68 964.44
  C 431.38 962.75 434.57 956.82 436.48 952.96
  Q 439.55 946.74 442.13 939.67
  A 2.95 2.95 0.0 0 1 445.59 937.81
  L 445.71 937.84
  A 2.70 2.70 0.0 0 1 447.73 941.01
  Q 444.86 954.77 446.18 959.97
  Q 446.56 961.47 447.12 961.80
  A 3.35 2.78 -48.3 0 0 450.67 961.26
  Q 453.60 958.75 456.90 957.82
  A 2.74 2.74 0.0 0 0 458.68 956.24
  C 459.46 954.37 460.56 951.72 461.05 949.07
  Q 462.20 942.87 464.14 936.59
  A 3.28 3.28 0.0 0 1 467.50 934.29
  L 467.67 934.30
  A 2.32 2.31 6.2 0 1 469.80 936.94
  C 469.31 940.29 467.16 946.26 467.05 950.70
  Q 466.94 954.80 467.32 957.36
  A 1.78 1.77 -4.8 0 0 469.11 958.87
  C 471.47 958.82 474.28 956.32 475.97 954.94
  Q 477.18 953.95 479.93 952.62
  C 482.80 951.23 484.29 948.66 484.49 945.20
  Q 485.63 925.35 492.21 903.16
  C 492.92 900.78 493.81 898.51 495.35 896.97
  C 497.38 894.92 500.01 896.91 500.33 899.20
  Q 500.62 901.27 500.03 906.00
  Q 498.15 921.08 493.27 933.44
  Q 490.92 939.41 490.60 941.66
  C 490.03 945.72 489.68 952.03 492.28 955.73
  A 2.60 2.60 0.0 0 0 495.71 956.49
  L 502.87 952.36
  Z
  M 496.3742 908.6535
  A 0.26 0.26 0.0 0 0 496.1789 908.3420
  L 495.5940 908.2080
  A 0.26 0.26 0.0 0 0 495.2825 908.4034
  L 492.1258 922.1865
  A 0.26 0.26 0.0 0 0 492.3211 922.4980
  L 492.9060 922.6320
  A 0.26 0.26 0.0 0 0 493.2175 922.4366
  L 496.3742 908.6535
  Z"
/>
<path fill="#1e3926" d="
  M 727.50 912.70
  A 0.35 0.35 0.0 0 0 728.16 912.91
  Q 730.32 908.52 733.52 905.28
  C 736.56 902.20 740.94 902.45 742.26 907.04
  Q 743.21 910.38 742.89 913.04
  A 0.56 0.55 62.5 0 0 743.93 913.37
  C 746.01 909.46 749.54 903.81 753.80 902.12
  A 1.92 1.89 -51.4 0 1 754.81 902.00
  C 759.44 902.66 760.01 908.54 759.65 912.27
  Q 759.08 918.04 759.78 922.14
  A 2.12 1.95 83.8 0 0 761.81 923.91
  Q 763.18 923.86 764.54 922.78
  Q 769.16 919.14 770.76 918.08
  A 0.45 0.45 0.0 0 1 771.45 918.47
  Q 771.39 920.04 770.67 921.44
  C 768.37 925.89 762.77 932.21 757.60 928.86
  Q 754.19 926.65 753.91 921.84
  Q 753.68 917.87 753.90 910.48
  A 0.76 0.75 -55.9 0 0 753.85 910.21
  L 753.54 909.40
  A 0.64 0.64 0.0 0 0 752.43 909.25
  Q 747.36 916.13 742.82 926.17
  Q 741.74 928.56 738.58 928.07
  A 1.36 1.36 0.0 0 1 737.73 927.58
  Q 736.46 925.99 736.88 923.80
  Q 738.18 916.89 737.35 910.49
  A 0.83 0.82 61.4 0 0 735.90 910.06
  C 730.78 916.17 728.59 922.61 724.78 931.30
  C 723.79 933.55 720.63 933.96 719.34 931.59
  C 718.15 929.41 720.13 922.01 720.63 919.87
  C 721.58 915.77 721.76 912.38 722.42 908.26
  A 0.59 0.59 0.0 0 0 721.62 907.62
  L 710.37 911.94
  A 0.58 0.57 -12.1 0 0 710.00 912.50
  C 710.09 914.35 710.61 916.34 710.40 918.00
  Q 709.01 929.27 700.97 935.17
  C 697.65 937.60 692.34 937.18 689.93 933.51
  C 685.68 927.06 688.05 918.61 691.78 912.07
  C 693.80 908.53 697.60 902.75 701.97 903.20
  C 704.29 903.43 706.29 905.88 708.09 906.78
  A 2.68 2.62 -37.1 0 0 709.82 907.00
  Q 715.33 905.85 723.18 901.69
  C 726.96 899.68 728.95 905.19 728.17 908.01
  Q 728.11 908.23 727.50 912.70
  Z
  M 700.08 911.29
  A 2.26 2.25 -70.9 0 0 697.93 912.34
  Q 693.08 920.13 693.58 928.23
  Q 693.69 930.01 694.67 930.73
  A 3.10 3.00 41.8 0 0 698.52 930.58
  Q 705.32 924.43 705.12 915.16
  C 705.07 912.69 702.01 911.49 700.08 911.29
  Z"
/>
<ellipse fill="#1e3926" cx="0.00" cy="0.00" transform="translate(945.03,910.62) rotate(-67.6)" rx="4.50" ry="4.08"/>
<path fill="#1e3926" d="
  M 389.92 951.87
  A 0.43 0.43 0.0 0 0 390.71 952.16
  C 393.66 947.08 402.30 936.73 409.01 942.39
  C 412.41 945.26 412.92 950.55 412.00 954.76
  C 409.94 964.25 400.20 978.62 388.83 977.73
  C 387.24 977.61 386.58 977.97 385.31 978.13
  C 382.89 978.44 381.38 975.65 381.59 973.75
  Q 384.84 943.96 391.45 910.97
  A 3.63 3.63 0.0 0 1 394.87 908.05
  L 395.10 908.05
  A 2.15 2.15 0.0 0 1 397.27 910.57
  L 389.92 951.87
  Z
  M 403.63 946.56
  Q 401.50 947.04 399.59 949.15
  Q 391.42 958.15 388.81 970.83
  A 0.86 0.85 12.2 0 0 389.47 971.84
  C 391.24 972.20 393.03 971.89 394.67 970.82
  C 401.21 966.54 408.35 956.44 405.93 947.92
  A 1.94 1.94 0.0 0 0 403.63 946.56
  Z"
/>
<path fill="#1e3926" d="
  M 668.25 916.07
  C 671.19 911.93 677.41 905.28 683.17 909.11
  C 685.24 910.49 685.47 913.05 683.09 914.22
  A 1.54 1.53 36.8 0 1 682.10 914.36
  L 679.01 913.81
  A 1.68 1.65 -45.5 0 0 678.41 913.82
  Q 676.41 914.21 674.23 916.75
  C 668.71 923.20 666.77 930.58 664.81 938.88
  A 2.63 2.62 16.3 0 1 661.39 940.75
  L 661.24 940.70
  A 3.24 3.23 12.8 0 1 659.08 937.28
  Q 659.79 930.87 662.46 910.76
  Q 662.79 908.29 665.46 908.14
  C 668.81 907.95 668.01 913.89 667.58 915.77
  A 0.38 0.37 69.0 0 0 668.25 916.07
  Z"
/>
<ellipse fill="#1e3926" cx="0.00" cy="0.00" transform="translate(469.90,918.50) rotate(-72.7)" rx="4.60" ry="3.81"/>
<path fill="#1e3926" d="
  M 921.02 994.71
  A 0.19 0.19 0.0 0 1 920.96 995.08
  Q 918.50 994.96 912.99 995.46
  Q 906.92 996.01 896.78 996.58
  Q 890.93 996.91 888.73 997.20
  C 882.39 998.04 876.09 997.73 870.35 998.43
  C 865.90 998.97 861.68 998.77 856.56 999.23
  Q 846.83 1000.10 831.17 1001.42
  Q 791.94 1004.71 758.26 1008.88
  Q 736.86 1011.52 700.34 1017.45
  Q 655.50 1024.74 608.00 1035.79
  Q 568.66 1044.94 521.46 1059.26
  A 2.91 2.91 0.0 0 1 517.73 1056.82
  L 517.72 1056.67
  A 4.17 4.16 -12.2 0 1 520.60 1052.22
  Q 566.32 1037.79 610.23 1028.20
  Q 651.16 1019.27 689.58 1013.19
  C 706.61 1010.50 718.51 1008.41 731.77 1006.75
  Q 781.24 1000.55 812.82 998.44
  Q 852.32 995.80 867.39 995.19
  Q 880.85 994.64 911.03 994.41
  C 914.34 994.39 918.26 993.96 921.02 994.71
  Z"
/>
</svg>
