<?xml version="1.0" encoding="UTF-8" standalone="no"?>
<!DOCTYPE svg PUBLIC "-//W3C//DTD SVG 1.1//EN" "http://www.w3.org/Graphics/SVG/1.1/DTD/svg11.dtd">
<svg xmlns="http://www.w3.org/2000/svg" version="1.1" viewBox="0.00 0.00 1254.00 1254.00">
<path fill="#1d3725" d="
  M 685.87 350.24
  Q 687.28 347.56 687.30 347.52
  Q 697.80 329.96 701.09 324.11
  C 731.82 269.37 757.02 210.48 774.62 149.64
  Q 778.65 135.70 783.97 115.95
  A 0.29 0.28 1.2 0 0 783.63 115.60
  Q 782.42 115.87 781.39 116.90
  Q 770.68 127.63 757.03 139.34
  A 3.14 3.14 0.0 0 1 753.92 139.91
  L 753.85 139.88
  A 1.28 1.28 0.0 0 1 753.32 137.83
  Q 770.64 118.18 784.79 104.54
  C 786.64 102.75 790.48 101.50 792.43 103.84
  Q 793.16 104.72 793.57 107.73
  Q 796.52 129.01 798.60 142.11
  Q 799.10 145.24 799.15 149.04
  A 1.77 1.77 0.0 0 1 796.13 150.31
  Q 795.21 149.38 794.83 147.91
  Q 791.93 136.70 789.27 120.26
  A 0.46 0.46 0.0 0 0 788.37 120.23
  Q 775.37 176.45 752.87 229.42
  Q 734.67 272.28 711.15 312.17
  Q 698.35 333.88 686.11 350.40
  A 0.15 0.14 78.0 0 1 685.87 350.24
  Z"
/>
<path fill="#1d3725" d="
  M 581.85 456.96
  C 578.77 459.15 573.77 462.11 570.38 465.09
  C 563.89 470.79 556.94 478.87 552.70 485.70
  Q 551.61 487.46 550.52 488.00
  C 548.30 489.10 546.20 486.77 546.59 484.71
  Q 551.07 460.85 558.19 435.94
  Q 559.53 431.26 561.38 429.39
  Q 574.66 415.96 584.46 406.96
  A 4.43 4.43 0.0 0 0 585.86 404.27
  Q 587.93 388.63 590.86 373.34
  Q 593.97 357.14 601.77 335.89
  Q 606.49 323.04 608.11 320.82
  A 2.19 2.03 69.4 0 0 608.49 319.89
  Q 608.74 318.11 609.04 317.54
  Q 618.02 300.58 631.51 284.76
  C 634.47 281.30 643.52 271.24 647.77 271.59
  Q 650.37 271.80 651.97 274.60
  Q 664.42 296.40 668.05 320.95
  Q 671.40 343.60 668.70 367.52
  Q 665.98 391.52 659.70 415.84
  A 4.74 4.72 39.2 0 0 660.04 419.12
  Q 667.67 434.55 673.14 447.64
  C 674.59 451.10 675.12 453.90 674.67 457.89
  Q 672.19 480.25 667.67 504.19
  C 667.31 506.14 664.65 507.88 662.93 506.11
  Q 661.84 505.00 661.52 503.44
  Q 657.33 483.26 644.61 467.30
  A 0.56 0.55 -51.4 0 0 643.67 467.41
  L 642.71 469.43
  A 3.19 3.18 -77.1 0 1 639.84 471.24
  L 634.16 471.24
  A 1.25 1.24 2.5 0 0 632.92 472.37
  L 632.72 474.60
  A 1.15 1.03 -53.3 0 0 632.75 474.93
  L 636.78 493.25
  A 3.74 3.66 -46.0 0 1 636.79 494.84
  Q 636.16 497.91 632.57 497.38
  Q 623.66 496.09 612.26 494.40
  C 605.07 493.34 597.37 491.57 589.26 490.18
  Q 583.33 489.17 581.30 488.50
  C 579.54 487.92 578.29 486.34 579.31 484.61
  Q 584.23 476.27 589.39 469.56
  A 1.49 1.41 -24.9 0 0 589.68 468.83
  L 590.11 464.70
  A 1.09 1.09 0.0 0 0 589.42 463.57
  C 587.95 462.99 585.21 463.05 583.30 461.15
  A 1.60 1.57 -67.9 0 1 582.84 460.03
  L 582.84 457.46
  A 0.63 0.62 -17.8 0 0 581.85 456.96
  Z
  M 613.49 319.34
  Q 637.18 328.48 663.16 327.18
  A 1.04 1.03 84.4 0 0 664.12 326.00
  C 661.85 310.53 657.57 294.81 650.03 280.47
  Q 648.52 277.60 647.60 276.85
  A 1.13 1.12 57.5 0 0 646.61 276.63
  Q 644.84 277.10 642.17 279.68
  Q 624.58 296.67 613.12 318.36
  A 0.71 0.70 24.6 0 0 613.49 319.34
  Z
  M 622.69 413.56
  Q 624.11 414.10 623.94 416.28
  Q 621.99 441.15 616.37 464.36
  A 0.58 0.57 10.6 0 0 616.86 465.07
  Q 631.93 466.89 633.25 467.00
  Q 636.22 467.26 638.32 466.70
  A 1.19 1.18 2.4 0 0 639.12 465.97
  Q 648.78 439.27 653.65 420.67
  Q 659.84 397.05 663.55 370.19
  Q 666.33 350.02 664.48 330.82
  A 0.80 0.79 -6.3 0 0 663.59 330.11
  C 651.89 331.61 639.91 329.81 628.16 327.06
  Q 619.09 324.94 611.42 320.80
  A 0.66 0.65 -67.1 0 0 610.49 321.18
  C 608.33 328.13 604.24 336.62 602.05 343.99
  Q 597.58 359.03 595.94 367.44
  Q 587.17 412.20 586.78 457.91
  A 1.11 1.10 7.3 0 0 587.62 458.99
  L 608.01 463.83
  A 1.27 1.26 -79.6 0 0 609.56 462.76
  Q 612.59 439.39 619.99 414.87
  A 2.05 2.04 19.1 0 1 622.69 413.56
  Z
  M 552.11 479.07
  A 0.32 0.32 0.0 0 0 552.69 479.31
  Q 564.46 461.99 582.21 451.71
  A 0.85 0.85 0.0 0 0 582.64 450.99
  Q 582.77 443.51 583.37 435.96
  C 584.11 426.81 583.85 420.08 585.38 412.42
  A 0.49 0.48 -17.1 0 0 584.56 411.99
  L 563.63 432.92
  A 4.90 4.82 -15.2 0 0 562.38 435.06
  Q 556.57 456.04 552.11 479.07
  Z
  M 664.75 495.82
  C 665.01 494.37 664.92 492.91 665.19 491.40
  Q 668.36 473.97 670.14 455.75
  Q 670.39 453.17 669.37 450.67
  Q 664.42 438.50 663.39 436.37
  Q 660.39 430.23 658.29 424.93
  A 0.38 0.38 0.0 0 0 657.57 424.98
  Q 653.35 441.34 647.37 457.38
  Q 646.96 458.48 646.17 461.16
  A 2.54 2.53 33.0 0 0 646.68 463.53
  Q 659.01 477.91 663.88 495.86
  A 0.45 0.45 0.0 0 0 664.75 495.82
  Z
  M 615.5969 448.5463
  A 10.12 0.54 -79.6 0 0 613.2389 458.4025
  A 10.12 0.54 -79.6 0 0 611.9431 468.4537
  A 10.12 0.54 -79.6 0 0 614.3011 458.5975
  A 10.12 0.54 -79.6 0 0 615.5969 448.5463
  Z
  M 608.4517 469.5905
  A 1.59 1.59 0.0 0 0 607.2008 467.7220
  L 595.2724 465.3601
  A 1.59 1.59 0.0 0 0 593.4038 466.6110
  L 593.3883 466.6895
  A 1.59 1.59 0.0 0 0 594.6392 468.5580
  L 606.5676 470.9199
  A 1.59 1.59 0.0 0 0 608.4362 469.6690
  L 608.4517 469.5905
  Z
  M 615.11 469.68
  L 614.85 471.63
  A 0.51 0.51 0.0 0 0 615.29 472.20
  L 616.78 472.39
  A 12.33 0.58 7.4 0 0 629.08 473.41
  L 629.32 471.60
  A 12.33 0.58 7.4 0 0 617.16 469.44
  L 615.68 469.24
  A 0.51 0.51 0.0 0 0 615.11 469.68
  Z
  M 608.49 488.34
  C 606.00 486.44 606.96 478.31 607.52 475.43
  A 1.09 1.09 0.0 0 0 606.65 474.15
  L 592.88 471.55
  A 1.30 1.29 20.4 0 0 591.52 472.17
  L 584.46 484.39
  A 0.56 0.56 0.0 0 0 584.86 485.22
  L 630.96 492.29
  A 0.70 0.70 0.0 0 0 631.74 491.44
  L 628.87 478.41
  A 0.68 0.67 88.0 0 0 628.32 477.89
  L 614.47 475.77
  A 1.06 1.05 -77.5 0 0 613.30 476.52
  L 610.08 487.81
  A 1.02 1.02 0.0 0 1 608.49 488.34
  Z"
/>
<path fill="#1d3725" d="
  M 656.58 308.78
  Q 657.98 315.36 658.39 322.95
  A 0.99 0.99 0.0 0 1 657.88 323.86
  L 657.86 323.87
  A 0.47 0.46 -19.8 0 1 657.19 323.56
  C 656.17 318.75 655.92 313.89 654.96 309.10
  C 653.99 304.32 652.34 299.74 651.41 294.92
  A 0.47 0.46 -3.0 0 1 651.91 294.37
  L 651.93 294.37
  A 0.99 0.99 0.0 0 1 652.76 295.01
  Q 655.32 302.16 656.58 308.78
  Z"
/>
<path fill="#1d3725" d="
  M 620.27 317.01
  A 0.19 0.19 0.0 0 1 620.01 317.08
  L 619.65 316.87
  A 11.35 0.87 -59.5 0 1 624.66 306.65
  L 624.80 306.40
  A 11.35 0.87 -59.5 0 1 631.31 297.07
  L 631.68 297.28
  A 0.19 0.19 0.0 0 1 631.74 297.54
  L 620.27 317.01
  Z"
/>
<path fill="#1d3725" d="
  M 651.29 323.13
  A 0.22 0.22 0.0 0 1 651.05 322.93
  L 650.85 321.15
  A 9.01 0.69 83.8 0 1 650.57 312.12
  L 650.72 312.10
  A 9.01 0.69 83.8 0 1 652.38 320.99
  L 652.58 322.77
  A 0.22 0.22 0.0 0 1 652.38 323.01
  L 651.29 323.13
  Z"
/>
<rect fill="#1d3725" x="-0.59" y="-11.60" transform="translate(659.28,346.72) rotate(-1.9)" width="1.18" height="23.20" rx="0.26"/>
<path fill="#1d3725" d="
  M 639.3071 351.0543
  A 19.39 18.71 -64.6 0 1 647.8914 376.5954
  A 19.39 18.71 -64.6 0 1 622.6729 386.0857
  A 19.39 18.71 -64.6 0 1 614.0886 360.5446
  A 19.39 18.71 -64.6 0 1 639.3071 351.0543
  Z
  M 636.7803 353.3024
  A 16.12 15.65 -68.3 0 0 616.2791 362.4935
  A 16.12 15.65 -68.3 0 0 624.8597 383.2576
  A 16.12 15.65 -68.3 0 0 645.3609 374.0665
  A 16.12 15.65 -68.3 0 0 636.7803 353.3024
  Z"
/>
<path fill="#1d3725" d="
  M 645.07 368.45
  A 14.36 14.36 0.0 0 1 630.71 382.81
  A 14.36 14.36 0.0 0 1 616.35 368.45
  A 14.36 14.36 0.0 0 1 630.71 354.09
  A 14.36 14.36 0.0 0 1 645.07 368.45
  Z
  M 637.9082 358.6748
  A 11.85 11.39 -54.4 0 0 621.7488 361.6796
  A 11.85 11.39 -54.4 0 0 624.1118 377.9452
  A 11.85 11.39 -54.4 0 0 640.2712 374.9404
  A 11.85 11.39 -54.4 0 0 637.9082 358.6748
  Z"
/>
<path fill="#1d3725" d="
  M 647.68 423.47
  C 644.67 434.62 641.24 445.46 636.94 456.17
  A 0.51 0.51 0.0 0 1 636.29 456.46
  L 636.27 456.45
  A 0.55 0.54 -71.2 0 1 635.95 455.79
  Q 637.97 449.10 640.18 442.48
  Q 643.41 432.82 646.06 423.03
  Q 648.70 413.24 650.78 403.27
  Q 652.20 396.44 653.83 389.64
  A 0.55 0.54 -78.5 0 1 654.44 389.23
  L 654.46 389.23
  A 0.51 0.51 0.0 0 1 654.88 389.81
  C 653.20 401.23 650.69 412.32 647.68 423.47
  Z"
/>
<path fill="#1d3725" d="
  M 577.58 451.05
  A 0.30 0.30 0.0 0 1 577.29 450.74
  L 577.40 448.33
  A 27.19 1.18 -87.3 0 1 579.86 421.23
  A 27.19 1.18 -87.3 0 1 579.76 448.44
  L 579.65 450.85
  A 0.30 0.30 0.0 0 1 579.33 451.13
  L 577.58 451.05
  Z"
/>
<rect fill="#1d3725" x="-0.97" y="-14.71" transform="translate(654.14,448.65) rotate(16.3)" width="1.94" height="29.42" rx="0.26"/>
<ellipse fill="#1d3725" cx="0.00" cy="0.00" transform="translate(573.66,451.95) rotate(-68.1)" rx="2.19" ry="1.05"/>
<ellipse fill="#1d3725" cx="0.00" cy="0.00" transform="translate(592.92,479.64) rotate(-55.4)" rx="3.58" ry="0.82"/>
<path fill="#1d3725" d="
  M 619.43 479.44
  A 0.36 0.36 0.0 0 1 619.89 479.06
  L 620.21 479.15
  A 0.29 0.27 89.6 0 1 620.41 479.36
  L 622.19 487.03
  A 2.24 2.24 0.0 0 0 624.62 488.75
  L 624.89 488.72
  A 1.17 1.17 0.0 0 0 625.86 487.18
  Q 624.70 483.80 624.66 480.34
  A 0.77 0.76 7.9 0 1 625.64 479.60
  L 626.01 479.70
  A 1.08 1.08 0.0 0 1 626.76 480.50
  L 628.75 489.56
  A 0.61 0.60 -89.4 0 1 628.02 490.28
  Q 626.88 490.01 626.10 489.45
  A 1.15 1.14 54.6 0 0 625.17 489.29
  Q 623.30 489.77 621.00 488.40
  A 1.40 1.38 -78.2 0 1 620.33 487.36
  L 619.43 479.44
  Z"
/>
<path fill="#1d3725" d="
  M 573.62 541.82
  C 567.87 556.11 561.60 569.02 555.13 582.52
  A 0.09 0.09 0.0 0 1 555.02 582.57
  L 555.00 582.57
  A 0.39 0.38 16.3 0 1 554.74 582.10
  Q 555.56 579.09 556.16 577.46
  Q 558.28 571.75 570.79 540.68
  Q 583.30 509.61 585.72 504.03
  Q 586.42 502.43 587.91 499.69
  A 0.39 0.38 27.6 0 1 588.43 499.54
  L 588.44 499.55
  A 0.09 0.09 0.0 0 1 588.49 499.66
  C 583.80 513.88 579.37 527.54 573.62 541.82
  Z"
/>
<path fill="#1d3725" d="
  M 623.79 595.37
  A 0.26 0.26 0.0 0 1 623.31 595.29
  Q 621.75 587.79 621.85 581.01
  Q 621.87 580.02 621.34 578.09
  A 4.88 4.76 -54.3 0 1 621.15 576.82
  Q 621.02 570.84 620.63 565.78
  C 620.49 564.01 620.62 561.46 620.07 559.19
  A 4.96 4.82 37.9 0 1 619.94 558.26
  Q 619.14 530.65 621.08 503.35
  A 0.34 0.34 0.0 0 1 621.47 503.04
  L 621.74 503.08
  A 0.18 0.17 -86.4 0 1 621.89 503.26
  Q 621.83 512.58 622.32 519.26
  C 624.07 543.19 624.41 567.71 624.14 593.94
  Q 624.13 594.79 623.79 595.37
  Z"
/>
<path fill="#1d3725" d="
  M 588.72 525.85
  Q 588.43 527.04 584.42 540.29
  Q 582.29 547.31 580.30 554.77
  Q 575.81 571.57 570.49 586.76
  Q 564.41 604.15 551.03 640.46
  A 0.59 0.58 -70.3 0 1 550.29 640.82
  L 550.26 640.81
  A 0.63 0.63 0.0 0 1 549.87 640.02
  Q 552.10 633.24 556.76 619.28
  C 557.35 617.52 557.52 615.46 558.03 613.77
  C 566.59 585.54 576.86 555.92 586.08 530.06
  Q 586.95 527.61 588.18 525.62
  A 0.30 0.30 0.0 0 1 588.72 525.85
  Z"
/>
<path fill="#1d3725" d="
  M 603.64 560.33
  L 603.66 560.33
  A 0.38 0.37 -86.1 0 1 604.00 560.73
  Q 603.67 568.65 602.26 584.76
  Q 601.52 593.10 600.65 608.71
  C 600.42 612.69 600.02 616.15 600.04 620.93
  Q 600.06 624.89 598.16 642.91
  Q 597.84 645.99 597.85 647.59
  C 597.87 649.69 597.28 651.42 597.13 653.81
  Q 596.69 661.06 595.95 666.74
  Q 595.75 668.26 595.37 668.96
  A 0.20 0.20 0.0 0 1 594.99 668.87
  Q 594.60 647.35 595.41 629.63
  C 595.88 619.19 598.17 604.98 598.85 596.24
  Q 599.10 593.07 599.67 589.23
  Q 600.06 586.57 603.22 560.67
  A 0.39 0.39 0.0 0 1 603.64 560.33
  Z"
/>
<path fill="#1d3725" d="
  M 424.98 697.42
  A 0.57 0.57 0.0 0 1 424.47 698.06
  L 424.21 698.09
  A 0.29 0.28 -10.4 0 1 423.90 697.88
  Q 422.36 691.05 422.47 689.53
  C 423.42 675.60 433.34 663.77 446.09 659.43
  Q 448.94 658.47 453.70 657.76
  C 457.26 657.23 460.48 656.24 463.96 656.28
  Q 472.83 656.40 480.57 660.48
  A 0.51 0.50 -76.8 0 0 481.31 660.02
  C 481.09 651.16 486.09 644.47 494.64 642.64
  Q 498.75 641.75 502.00 642.85
  A 0.76 0.75 1.3 0 0 502.97 641.93
  C 501.01 635.12 500.28 629.77 502.60 623.00
  Q 506.20 612.51 516.03 606.87
  Q 528.64 599.64 541.88 604.65
  Q 543.89 605.41 544.52 606.48
  A 0.41 0.41 0.0 0 1 544.02 607.07
  L 540.05 605.50
  A 6.31 6.21 58.0 0 0 538.25 605.07
  Q 524.24 603.88 514.93 612.01
  Q 507.78 618.24 505.77 627.26
  C 504.63 632.35 505.01 638.89 507.65 643.82
  Q 508.53 645.46 508.79 646.55
  A 1.38 1.38 0.0 0 1 506.80 648.08
  C 494.47 641.59 480.39 652.29 486.80 665.90
  A 1.39 1.39 0.0 0 1 484.63 667.54
  Q 475.66 659.74 462.31 659.23
  C 454.02 658.91 446.82 661.94 440.10 666.56
  Q 427.53 675.20 424.60 691.38
  A 7.32 7.32 0.0 0 0 424.53 693.43
  L 424.98 697.42
  Z"
/>
<path fill="#1d3725" d="
  M 625.56 624.22
  L 625.61 623.86
  A 0.73 0.73 0.0 0 1 626.13 623.27
  Q 633.97 620.99 639.80 622.21
  Q 642.24 622.71 647.19 624.50
  C 663.98 630.57 668.57 650.95 659.56 665.35
  A 0.60 0.60 0.0 0 0 660.11 666.26
  Q 665.09 665.87 669.91 666.26
  C 681.06 667.16 689.78 673.40 693.99 683.99
  Q 696.36 689.97 695.03 695.90
  A 0.80 0.80 0.0 0 0 695.88 696.87
  C 703.22 696.28 710.44 700.95 710.18 709.04
  A 0.47 0.47 0.0 0 1 709.26 709.17
  C 707.16 702.73 700.29 697.96 693.37 700.97
  A 1.71 1.71 0.0 0 1 691.01 699.10
  C 693.25 686.85 687.32 676.50 675.96 671.70
  Q 665.26 667.17 654.23 672.26
  A 2.19 2.16 37.1 0 1 652.93 672.43
  Q 651.48 672.17 651.18 670.60
  A 1.35 1.35 0.0 0 1 651.50 669.42
  C 669.98 649.01 653.21 618.93 626.14 624.77
  A 0.49 0.48 88.4 0 1 625.56 624.22
  Z"
/>
<path fill="#1d3725" d="
  M 524.04 682.82
  A 0.33 0.33 0.0 0 1 523.63 682.36
  Q 525.33 679.24 528.41 677.73
  C 541.66 671.24 558.10 675.70 560.67 691.64
  A 0.67 0.66 82.6 0 0 561.39 692.20
  C 568.31 691.53 574.76 694.96 573.97 702.39
  A 0.76 0.76 0.0 0 1 572.47 702.44
  Q 571.14 694.38 562.66 695.35
  C 561.18 695.52 559.96 696.67 558.68 697.01
  A 1.05 1.05 0.0 0 1 557.37 695.93
  C 558.00 685.79 550.96 678.92 541.20 677.84
  Q 533.93 677.03 527.27 680.63
  C 526.51 681.04 525.18 682.38 524.04 682.82
  Z"
/>
<path fill="#1d3725" d="
  M 593.97 680.56
  C 595.23 679.09 597.44 678.15 599.19 677.42
  C 607.99 673.76 618.48 677.26 621.15 686.99
  A 1.33 1.32 76.6 0 0 622.68 687.94
  Q 631.21 686.31 635.44 693.55
  Q 636.48 695.34 635.94 697.54
  A 0.65 0.65 0.0 0 1 634.71 697.64
  Q 630.43 687.80 620.19 692.68
  A 0.81 0.81 0.0 0 1 619.04 692.08
  C 617.89 685.29 614.47 680.49 607.44 679.19
  Q 601.11 678.02 594.47 681.21
  A 0.42 0.42 0.0 0 1 593.97 680.56
  Z"
/>
<path fill="#1d3725" d="
  M 637.06 824.30
  A 0.43 0.42 -26.7 0 0 637.85 824.56
  Q 641.36 818.53 646.11 813.58
  Q 648.12 811.48 648.99 811.00
  C 651.87 809.38 655.31 809.73 656.72 812.97
  Q 657.35 814.40 657.10 818.13
  C 656.70 824.10 655.96 828.11 657.68 831.79
  A 2.49 2.48 69.8 0 0 660.57 833.13
  C 664.78 831.99 667.08 829.32 671.08 825.46
  A 1.00 1.00 0.0 0 1 672.73 825.87
  Q 673.52 828.26 671.83 830.37
  C 669.24 833.60 664.31 837.95 660.03 838.01
  C 653.51 838.09 651.24 832.13 651.57 826.73
  Q 651.85 822.02 651.92 816.88
  A 0.89 0.88 -17.4 0 0 650.52 816.15
  Q 648.65 817.49 647.26 819.26
  Q 639.37 829.37 634.42 841.12
  A 2.44 2.43 -71.9 0 1 631.61 842.56
  Q 628.39 841.80 629.13 838.30
  Q 631.73 825.95 631.76 825.76
  Q 632.36 822.25 638.93 782.99
  Q 639.53 779.43 641.51 776.67
  A 1.88 1.87 39.5 0 1 644.31 776.41
  Q 645.43 777.45 645.14 778.98
  Q 639.09 811.47 638.64 813.82
  Q 637.71 818.66 637.06 824.30
  Z"
/>
<ellipse fill="#1d3725" cx="0.00" cy="0.00" transform="translate(732.06,783.24) rotate(-54.3)" rx="3.65" ry="3.11"/>
<path fill="#1d3725" d="
  M 759.81 800.26
  L 759.57 798.06
  A 1.47 1.46 -9.0 0 0 757.82 796.79
  C 752.62 797.88 746.65 804.02 753.44 808.47
  C 757.16 810.91 763.73 814.60 761.58 819.90
  C 758.92 826.49 749.21 826.56 743.68 824.42
  A 2.45 2.44 -75.8 0 1 742.14 821.82
  L 742.15 821.75
  A 1.80 1.79 10.6 0 1 744.36 820.24
  C 747.71 821.06 754.78 822.08 756.74 818.66
  A 2.23 1.94 33.2 0 0 755.98 815.95
  Q 750.09 811.73 747.90 809.94
  Q 743.62 806.45 745.77 801.82
  Q 749.62 793.56 758.24 792.22
  C 760.15 791.92 763.52 793.06 764.11 795.30
  Q 764.93 798.38 762.06 801.08
  A 1.34 1.34 0.0 0 1 759.81 800.26
  Z"
/>
<path fill="#1d3725" d="
  M 743.32 813.42
  L 743.35 813.49
  A 3.36 3.35 -37.2 0 1 742.90 816.76
  C 739.39 821.37 735.37 825.78 730.59 827.56
  C 727.35 828.76 723.56 827.61 722.42 824.39
  Q 721.22 821.03 722.09 817.12
  Q 723.71 809.84 726.31 801.52
  A 2.51 2.50 14.4 0 1 729.21 799.81
  L 729.29 799.83
  A 2.07 2.07 0.0 0 1 730.86 802.45
  Q 728.00 812.11 726.89 818.11
  Q 726.44 820.59 727.47 822.41
  A 2.00 1.45 -26.3 0 0 729.80 822.81
  C 734.57 820.65 738.15 816.21 741.17 813.02
  A 1.30 1.30 0.0 0 1 743.32 813.42
  Z"
/>
<path fill="#1d3725" d="
  M 440.38 875.30
  L 472.08 864.15
  A 2.97 2.96 71.9 0 1 475.90 866.09
  L 475.96 866.29
  A 2.80 2.79 74.6 0 1 473.94 869.85
  C 471.84 870.34 470.18 869.86 467.99 870.47
  C 458.02 873.22 450.79 876.30 438.54 881.27
  A 2.44 2.40 33.4 0 1 437.73 881.43
  Q 434.51 881.51 433.50 878.74
  A 2.23 2.22 42.1 0 1 433.43 877.42
  Q 434.71 872.26 447.90 812.72
  Q 448.82 808.61 450.34 805.24
  A 2.24 2.14 -72.4 0 1 452.71 803.94
  C 455.28 804.40 455.02 806.60 454.44 808.76
  Q 445.73 840.89 439.35 874.42
  A 0.78 0.78 0.0 0 0 440.38 875.30
  Z"
/>
<path fill="#1d3725" d="
  M 608.87 821.49
  A 0.81 0.81 0.0 0 0 607.81 820.82
  C 602.27 822.75 598.97 831.50 598.71 836.45
  C 598.51 840.10 600.52 842.54 604.35 842.30
  C 611.24 841.86 617.79 834.95 622.60 829.96
  A 1.34 1.33 51.9 0 1 624.72 830.22
  L 624.75 830.28
  A 2.60 2.59 48.5 0 1 624.58 833.14
  C 619.63 839.74 612.00 846.74 603.75 847.20
  C 596.13 847.63 592.29 840.67 593.85 833.80
  Q 595.54 826.37 600.75 820.53
  C 603.06 817.96 607.67 814.28 611.22 816.88
  Q 613.46 818.53 613.68 821.44
  C 613.87 823.82 613.83 826.66 610.80 826.77
  A 1.44 1.43 85.7 0 1 609.32 825.49
  L 608.87 821.49
  Z"
/>
<path fill="#1d3725" d="
  M 559.51 838.20
  C 560.59 837.29 561.33 835.58 562.53 834.26
  Q 567.75 828.49 570.77 826.63
  C 575.26 823.86 578.00 827.23 578.02 831.76
  C 578.05 836.00 577.53 842.06 579.40 843.67
  A 1.32 1.32 0.0 0 0 580.44 843.98
  C 583.41 843.55 585.75 840.44 587.75 838.64
  A 1.43 1.43 0.0 0 1 590.14 839.66
  C 590.22 842.30 585.75 846.50 583.08 847.78
  Q 578.89 849.78 575.53 847.10
  C 572.76 844.89 573.04 836.39 573.26 832.68
  A 0.93 0.93 0.0 0 0 571.92 831.79
  C 569.29 833.08 567.09 836.10 564.66 839.40
  Q 560.37 845.23 556.76 851.69
  A 3.31 2.95 16.1 0 1 553.66 853.18
  C 551.03 852.92 550.79 850.87 551.41 848.55
  Q 554.18 838.11 556.26 827.49
  A 2.40 2.40 0.0 0 1 558.72 825.56
  L 558.81 825.57
  A 2.32 2.32 0.0 0 1 560.77 828.32
  L 558.91 837.85
  A 0.37 0.37 0.0 0 0 559.51 838.20
  Z"
/>
<path fill="#1d3725" d="
  M 514.28 853.08
  C 510.83 857.43 503.66 865.78 498.63 858.10
  Q 497.71 856.71 496.77 854.70
  A 0.56 0.56 0.0 0 0 495.82 854.61
  C 492.80 858.69 487.22 866.92 481.24 864.54
  C 478.34 863.38 477.83 858.64 478.42 856.14
  C 480.20 848.57 485.31 839.01 492.45 835.11
  C 494.82 833.82 496.93 835.49 498.49 837.33
  A 1.88 1.81 -12.8 0 0 499.48 837.93
  L 500.81 838.25
  A 2.00 2.00 0.0 0 1 502.28 840.73
  C 501.12 844.97 498.95 853.94 503.95 856.56
  A 1.19 1.17 46.7 0 0 504.98 856.60
  Q 507.45 855.51 508.18 854.66
  Q 512.20 850.02 514.61 847.72
  A 2.85 2.78 75.9 0 0 515.40 846.36
  L 518.56 833.83
  A 2.86 2.86 0.0 0 1 521.75 831.70
  L 521.82 831.71
  A 1.99 1.98 -78.2 0 1 523.47 834.24
  Q 520.96 842.72 519.99 848.50
  Q 519.59 850.90 520.02 852.78
  A 1.21 1.20 68.2 0 0 521.81 853.55
  C 526.19 850.96 530.22 844.00 531.70 839.95
  Q 534.01 833.63 534.89 831.96
  C 535.90 830.04 539.42 829.56 539.55 832.25
  Q 539.62 833.70 539.30 834.77
  C 537.98 839.09 535.52 845.98 537.32 849.98
  A 2.05 2.05 0.0 0 0 540.06 851.00
  C 543.59 849.34 546.25 845.61 548.75 842.51
  A 1.71 1.70 -52.2 0 1 551.09 842.21
  L 551.15 842.25
  A 1.79 1.78 -57.3 0 1 551.65 844.56
  Q 548.70 849.80 544.38 853.35
  C 539.51 857.35 533.83 856.97 532.56 849.75
  A 0.66 0.66 0.0 0 0 531.32 849.57
  C 529.23 853.77 520.95 863.25 516.44 856.52
  Q 515.50 855.12 515.05 853.25
  A 0.44 0.44 0.0 0 0 514.28 853.08
  Z
  M 495.0050 839.1888
  A 11.63 3.47 -61.3 0 0 486.3763 847.7236
  A 11.63 3.47 -61.3 0 0 483.8350 859.5912
  A 11.63 3.47 -61.3 0 0 492.4637 851.0564
  A 11.63 3.47 -61.3 0 0 495.0050 839.1888
  Z"
/>
<ellipse fill="#1d3725" cx="0.00" cy="0.00" transform="translate(762.04,879.36) rotate(-53.1)" rx="3.75" ry="3.15"/>
<path fill="#1d3725" d="
  M 825.52 905.86
  A 0.41 0.41 0.0 0 0 824.80 905.84
  C 821.76 911.09 814.24 916.56 809.67 909.09
  A 0.67 0.66 -43.4 0 0 808.56 909.06
  C 804.81 914.38 794.90 919.20 793.12 908.89
  Q 792.33 904.36 792.93 898.81
  A 1.05 1.05 0.0 0 0 791.47 897.73
  Q 790.36 898.21 789.21 899.48
  Q 782.18 907.19 777.18 917.07
  C 776.27 918.86 775.40 919.60 773.41 919.22
  A 2.72 2.71 -85.6 0 1 771.22 916.65
  Q 771.20 916.06 771.42 914.44
  A 0.68 0.68 0.0 0 0 770.19 913.96
  C 766.34 919.34 754.67 929.76 752.01 916.27
  A 3.54 3.27 45.7 0 1 751.98 915.14
  Q 753.34 906.22 756.37 897.12
  A 2.42 2.42 0.0 0 1 759.11 895.51
  L 759.13 895.51
  A 1.93 1.92 13.2 0 1 760.63 897.92
  Q 758.12 906.84 757.32 913.07
  Q 757.03 915.31 757.65 917.02
  A 1.40 1.40 0.0 0 0 759.52 917.84
  C 763.48 916.18 766.17 912.95 769.13 909.83
  A 1.48 1.46 -61.5 0 1 770.55 909.40
  L 771.74 909.68
  A 0.95 0.94 12.8 0 0 772.89 908.96
  L 776.24 893.69
  A 1.98 1.98 0.0 0 1 778.47 892.16
  L 778.54 892.17
  A 2.09 2.08 -80.7 0 1 780.24 894.54
  L 778.84 903.79
  A 0.45 0.45 0.0 0 0 779.65 904.11
  Q 784.29 897.23 790.39 892.57
  Q 791.23 891.92 793.59 891.84
  A 2.10 2.06 -31.5 0 1 794.64 892.08
  Q 797.60 893.63 797.51 897.54
  Q 797.47 899.39 797.42 906.48
  Q 797.40 909.59 799.88 910.40
  A 1.32 1.29 -47.2 0 0 800.85 910.35
  C 804.28 908.78 806.56 905.46 809.42 903.45
  A 2.30 2.30 0.0 0 0 810.31 902.22
  Q 813.06 893.00 820.14 887.43
  Q 824.32 884.13 828.42 887.37
  A 1.31 1.30 -44.8 0 0 830.03 887.37
  L 831.23 886.42
  A 1.20 1.19 -59.3 0 1 832.15 886.18
  C 835.10 886.63 834.97 888.40 834.12 890.88
  Q 830.91 900.31 829.96 910.71
  A 0.69 0.68 -16.5 0 0 831.07 911.31
  L 833.15 909.67
  A 1.70 1.70 0.0 0 1 835.61 910.06
  L 835.84 910.41
  A 1.70 1.69 54.3 0 1 835.47 912.67
  L 830.14 916.86
  A 4.31 4.28 74.3 0 0 828.52 919.77
  Q 827.55 928.39 825.87 936.09
  C 824.76 941.21 822.66 948.03 817.72 951.07
  Q 814.11 953.29 810.70 951.67
  C 804.35 948.67 805.96 941.02 809.04 935.82
  Q 814.58 926.43 822.73 918.74
  C 825.94 915.71 825.18 911.08 825.79 907.00
  Q 825.86 906.49 825.52 905.86
  Z
  M 825.9786 890.0141
  A 10.35 3.53 -58.3 0 0 817.5366 896.9651
  A 10.35 3.53 -58.3 0 0 815.1014 907.6259
  A 10.35 3.53 -58.3 0 0 823.5434 900.6749
  A 10.35 3.53 -58.3 0 0 825.9786 890.0141
  Z
  M 812.60 947.34
  C 816.12 948.90 819.64 941.85 820.44 939.05
  Q 822.43 932.04 823.49 924.21
  Q 823.57 923.67 823.19 923.50
  Q 822.82 923.34 822.46 923.76
  Q 817.37 929.79 813.50 935.96
  C 811.95 938.43 809.07 945.77 812.60 947.34
  Z"
/>
<ellipse fill="#1d3725" cx="0.00" cy="0.00" transform="translate(663.35,894.23) rotate(-53.2)" rx="3.56" ry="3.07"/>
<path fill="#1d3725" d="
  M 559.45 928.18
  A 0.60 0.55 44.3 0 0 560.33 928.21
  C 564.34 923.13 573.54 919.86 576.01 928.85
  C 578.34 937.34 574.16 945.88 567.81 951.29
  Q 564.55 954.07 562.17 954.37
  C 559.93 954.65 555.49 953.57 554.41 950.99
  Q 554.01 950.04 554.96 948.91
  Q 555.96 947.71 556.38 946.64
  A 0.72 0.71 14.8 0 0 555.81 945.67
  L 553.82 945.36
  A 1.69 1.68 -88.3 0 1 552.40 943.84
  C 552.01 939.39 553.64 934.26 554.22 930.07
  Q 556.78 911.62 559.33 899.08
  Q 559.86 896.43 561.34 894.04
  A 1.77 1.63 -59.5 0 1 563.60 893.36
  C 564.77 894.01 565.18 895.00 564.89 896.41
  Q 562.37 908.98 559.36 927.90
  Q 559.34 928.05 559.45 928.18
  Z
  M 560.64 949.85
  C 567.98 948.99 574.68 934.96 570.94 928.78
  A 2.13 2.13 0.0 0 0 568.10 928.01
  Q 562.19 931.20 558.95 937.67
  Q 557.04 941.49 559.95 943.72
  A 1.98 1.98 0.0 0 1 560.68 945.76
  L 559.91 949.02
  A 0.68 0.67 -86.6 0 0 560.64 949.85
  Z"
/>
<path fill="#1d3725" d="
  M 673.80 925.92
  A 0.47 0.47 0.0 0 0 674.60 925.70
  L 678.38 908.63
  A 2.10 2.09 9.5 0 1 680.66 907.01
  L 680.68 907.01
  A 2.23 2.23 0.0 0 1 682.58 909.46
  Q 682.09 914.03 681.26 917.24
  Q 681.09 917.88 681.55 918.28
  Q 681.98 918.65 682.32 918.17
  C 685.55 913.57 689.61 908.69 694.72 906.73
  A 1.89 1.88 -48.4 0 1 695.84 906.66
  Q 699.58 907.62 699.50 911.76
  C 699.42 915.98 698.94 922.55 700.55 924.48
  A 2.43 2.15 -34.9 0 0 703.51 924.82
  Q 706.99 922.73 710.36 918.90
  A 1.05 1.02 -82.8 0 1 710.61 918.70
  L 713.12 917.36
  A 1.05 1.04 81.9 0 0 713.65 916.65
  L 716.79 901.98
  A 2.01 2.00 12.7 0 1 719.21 900.46
  L 719.58 900.55
  A 1.74 1.73 -81.0 0 1 720.91 902.39
  Q 720.42 908.25 719.28 912.26
  Q 719.13 912.81 719.44 913.21
  A 0.60 0.59 -48.2 0 0 720.41 913.15
  C 722.56 909.65 731.22 898.29 735.99 901.67
  Q 738.54 903.47 738.32 906.52
  Q 737.85 912.88 738.61 917.50
  A 2.40 2.14 83.7 0 0 740.86 919.53
  C 742.91 919.44 746.09 916.15 748.77 913.65
  A 1.31 1.30 82.0 0 1 750.82 915.20
  C 748.52 919.71 743.43 924.92 737.91 923.68
  C 732.83 922.53 733.34 912.17 733.38 907.95
  A 0.81 0.81 0.0 0 0 732.14 907.26
  L 730.54 908.25
  A 2.78 2.53 2.7 0 0 730.07 908.64
  Q 724.23 915.03 717.45 926.70
  Q 716.02 929.16 713.19 928.04
  A 1.25 1.20 89.0 0 1 712.51 927.36
  Q 711.61 925.07 712.40 922.99
  A 0.45 0.45 0.0 0 0 712.09 922.39
  L 711.80 922.32
  A 0.36 0.35 21.2 0 0 711.41 922.49
  C 709.11 926.66 703.10 931.92 698.14 928.93
  C 694.22 926.57 694.36 918.28 694.84 914.13
  A 1.16 1.16 0.0 0 0 693.21 912.94
  Q 692.68 913.18 692.18 913.70
  Q 684.61 921.38 678.79 932.81
  C 677.39 935.57 673.92 934.29 673.13 931.71
  A 1.26 1.22 44.1 0 1 673.11 931.09
  L 673.63 928.92
  A 0.58 0.57 -19.5 0 0 672.61 928.44
  C 669.29 932.66 665.48 936.76 660.28 937.98
  A 2.83 2.66 41.0 0 1 659.24 938.02
  C 654.42 937.33 653.72 932.02 654.37 928.05
  Q 655.56 920.70 658.30 912.21
  A 2.40 2.40 0.0 0 1 660.84 910.56
  L 660.92 910.57
  A 1.81 1.80 -80.3 0 1 662.48 912.78
  C 660.72 920.11 658.30 928.44 659.24 931.94
  A 1.59 1.59 0.0 0 0 661.31 933.03
  C 665.38 931.59 668.37 927.83 670.85 924.78
  A 0.95 0.94 31.8 0 1 671.98 924.52
  Q 672.85 924.92 673.80 925.92
  Z"
/>
<path fill="#1d3725" d="
  M 847.93 919.98
  C 847.66 919.31 847.79 918.62 848.37 918.12
  C 850.75 916.05 853.06 914.01 852.15 910.85
  C 851.39 908.20 851.59 907.24 853.28 905.76
  Q 854.22 904.92 855.43 905.44
  Q 857.05 906.14 857.17 908.97
  Q 857.54 917.48 850.43 921.02
  A 1.89 1.79 66.1 0 1 847.93 919.98
  Z"
/>
<path fill="#1d3725" d="
  M 438.17 955.24
  A 0.56 0.56 0.0 0 0 439.20 955.63
  Q 443.43 948.62 448.29 944.17
  Q 449.59 942.98 452.45 942.27
  A 1.75 1.74 -38.8 0 1 453.66 942.40
  Q 457.03 944.11 457.07 947.31
  Q 457.14 952.01 456.89 958.36
  Q 456.78 961.15 458.00 962.92
  A 2.10 2.10 0.0 0 0 460.54 963.66
  Q 463.17 962.53 464.98 960.48
  Q 469.95 954.86 471.52 953.57
  A 0.82 0.81 -39.1 0 0 471.64 952.44
  L 470.34 950.79
  A 0.97 0.96 52.0 0 1 470.50 949.44
  L 473.20 947.31
  A 0.76 0.67 86.7 0 0 473.43 947.02
  C 475.50 942.35 478.40 937.18 483.40 935.33
  C 490.46 932.72 493.30 939.84 489.99 945.06
  Q 486.17 951.07 478.53 952.20
  A 1.49 1.48 85.7 0 0 477.27 953.67
  C 477.26 963.44 485.16 961.64 490.36 957.85
  Q 494.56 954.79 499.78 949.56
  A 0.82 0.82 0.0 0 1 501.18 950.09
  L 501.21 950.55
  A 4.68 4.62 -28.9 0 1 500.31 953.58
  C 495.75 959.76 487.39 967.81 478.76 965.18
  Q 473.96 963.72 472.53 958.76
  A 0.57 0.57 0.0 0 0 471.52 958.58
  C 468.76 962.24 467.35 964.26 464.70 966.40
  C 461.76 968.78 457.56 969.40 454.74 966.67
  C 451.36 963.38 451.74 954.91 452.43 950.10
  A 1.44 1.36 -51.0 0 0 452.38 949.46
  L 452.28 949.14
  A 1.55 1.55 0.0 0 0 449.73 948.92
  Q 441.52 958.93 436.41 971.24
  A 2.28 2.24 5.9 0 1 434.72 972.59
  C 431.82 973.11 430.57 971.22 431.23 968.31
  C 435.18 950.81 437.41 931.39 441.58 912.66
  A 2.48 2.47 10.4 0 1 444.35 910.76
  L 444.43 910.77
  A 2.10 2.09 10.5 0 1 446.12 913.22
  L 438.17 955.24
  Z
  M 478.94 946.78
  A 0.49 0.49 0.0 0 0 479.47 947.47
  Q 485.15 946.52 487.05 941.55
  A 1.44 1.44 0.0 0 0 485.49 939.61
  C 481.86 940.16 480.36 943.65 478.94 946.78
  Z"
/>
<path fill="#1d3725" d="
  M 634.11 933.75
  Q 633.49 934.05 631.78 936.27
  C 628.72 940.24 621.57 944.77 618.76 937.32
  A 2.49 2.48 35.4 0 1 618.60 936.39
  L 618.64 934.22
  A 0.44 0.43 -24.7 0 0 617.87 933.94
  Q 612.59 940.29 606.96 944.38
  C 600.73 948.90 590.82 949.60 588.32 940.74
  Q 588.05 939.77 587.98 935.42
  A 1.70 1.66 -65.7 0 0 587.60 934.38
  Q 587.09 933.77 586.21 933.39
  A 1.06 1.06 0.0 0 1 586.03 931.53
  L 588.49 929.85
  A 1.89 1.83 86.2 0 0 589.14 929.08
  C 591.16 924.63 594.25 919.20 599.46 917.27
  C 602.95 915.97 606.81 917.75 607.12 921.80
  C 607.61 928.27 600.61 933.13 595.14 933.74
  A 2.60 2.59 80.7 0 0 592.90 936.87
  L 593.44 939.29
  A 4.42 4.41 84.3 0 0 597.66 942.76
  C 602.50 942.86 606.81 939.50 610.36 936.35
  Q 614.52 932.67 618.78 929.07
  A 3.83 3.83 0.0 0 0 619.72 927.88
  Q 621.68 923.92 622.16 923.17
  C 625.26 918.35 631.55 911.08 637.19 916.26
  A 0.80 0.78 49.2 0 0 638.16 916.34
  Q 638.81 915.90 639.09 915.43
  A 2.13 1.86 29.0 0 1 641.78 914.85
  C 643.23 915.61 643.22 917.05 642.68 918.52
  Q 639.47 927.19 638.73 937.90
  A 0.61 0.61 0.0 0 0 639.71 938.42
  L 643.69 935.29
  A 1.48 1.48 0.0 0 1 646.05 936.13
  L 646.19 936.79
  A 2.22 2.20 -26.3 0 1 645.44 938.98
  Q 643.61 940.51 640.23 943.02
  Q 637.65 944.93 637.48 948.51
  Q 637.07 957.38 635.27 965.71
  C 634.10 971.13 632.83 976.17 628.90 979.08
  C 623.39 983.15 618.06 979.82 616.31 974.04
  C 614.68 968.67 619.96 960.01 623.06 956.05
  Q 626.86 951.18 632.37 944.97
  A 4.34 4.33 70.5 0 0 633.42 942.76
  L 634.73 934.20
  A 0.43 0.43 0.0 0 0 634.11 933.75
  Z
  M 634.0076 918.8736
  A 9.73 3.41 -59.3 0 0 626.1079 925.4990
  A 9.73 3.41 -59.3 0 0 624.0724 935.6064
  A 9.73 3.41 -59.3 0 0 631.9721 928.9810
  A 9.73 3.41 -59.3 0 0 634.0076 918.8736
  Z
  M 603.17 923.80
  L 600.76 921.29
  A 0.19 0.19 0.0 0 0 600.49 921.28
  L 598.91 922.81
  A 7.33 1.86 -43.8 0 0 594.90 929.22
  L 595.00 929.32
  A 7.33 1.86 -43.8 0 0 601.58 925.59
  L 603.17 924.07
  A 0.19 0.19 0.0 0 0 603.17 923.80
  Z
  M 632.27 950.78
  Q 631.92 950.88 631.18 951.66
  Q 623.49 959.69 620.98 968.41
  Q 619.94 972.03 622.40 975.68
  A 1.30 1.29 75.7 0 0 623.34 976.24
  C 630.66 976.96 632.25 955.88 633.04 951.46
  A 0.61 0.60 -3.4 0 0 632.27 950.78
  Z"
/>
<path fill="#1d3725" d="
  M 410.20 939.94
  A 0.52 0.52 0.0 0 0 410.82 940.41
  L 419.40 938.57
  A 1.93 1.93 0.0 0 1 421.73 940.22
  L 421.74 940.35
  A 2.34 2.34 0.0 0 1 419.97 943.00
  L 409.97 945.33
  A 2.51 2.51 0.0 0 0 408.14 947.05
  Q 405.15 957.03 405.16 967.11
  Q 405.16 970.04 405.99 971.99
  A 2.35 2.35 0.0 0 0 408.68 973.36
  C 414.44 972.04 418.32 967.46 422.81 962.29
  A 1.28 1.28 0.0 0 1 425.03 962.85
  L 425.19 963.56
  A 3.54 3.52 58.1 0 1 424.51 966.51
  C 421.04 970.93 416.63 975.88 411.64 977.54
  C 399.58 981.57 398.99 968.79 400.36 960.77
  Q 401.92 951.66 402.26 949.29
  A 0.81 0.81 0.0 0 0 401.18 948.41
  Q 397.92 949.57 395.21 950.13
  C 393.66 950.45 391.69 949.10 392.53 947.29
  C 393.57 945.08 398.88 944.05 402.30 943.11
  A 2.73 2.73 0.0 0 0 404.19 941.23
  L 408.69 925.49
  A 2.62 2.62 0.0 0 1 411.93 923.69
  L 412.40 923.82
  A 1.77 1.76 -75.6 0 1 413.63 925.91
  Q 412.16 932.45 410.23 938.28
  Q 410.11 938.64 410.20 939.94
  Z"
/>
<path fill="#1d3725" d="
  M 821.30 1008.02
  A 0.37 0.37 0.0 0 0 820.65 1008.09
  Q 818.46 1013.36 813.95 1017.18
  C 809.59 1020.88 803.75 1021.74 802.42 1014.65
  A 0.72 0.72 0.0 0 0 801.20 1014.28
  Q 798.79 1016.76 798.78 1016.78
  C 796.30 1019.88 790.34 1022.61 786.94 1019.00
  C 784.60 1016.51 784.64 1007.97 784.97 1004.59
  A 0.87 0.87 0.0 0 0 783.95 1003.65
  C 779.65 1004.45 771.36 1018.83 769.41 1022.66
  Q 768.86 1023.74 767.71 1024.70
  C 765.86 1026.25 762.72 1024.75 763.05 1022.25
  Q 763.41 1019.44 765.19 1013.14
  A 0.55 0.54 -76.9 0 0 764.77 1012.45
  L 764.48 1012.40
  A 0.28 0.28 0.0 0 0 764.15 1012.63
  Q 763.54 1016.02 760.38 1019.37
  C 755.08 1024.98 749.60 1030.01 741.80 1029.96
  C 735.23 1029.92 732.36 1025.10 732.52 1019.03
  C 732.56 1017.44 731.70 1017.01 731.29 1015.81
  A 1.08 1.07 -35.0 0 1 731.48 1014.77
  C 735.00 1010.47 736.26 1005.63 740.65 1001.96
  C 743.40 999.66 747.86 998.13 750.61 1001.13
  C 752.66 1003.37 752.17 1006.77 750.66 1009.24
  Q 746.55 1015.95 738.54 1016.75
  A 1.03 1.02 88.1 0 0 737.62 1017.74
  C 737.56 1020.28 737.87 1023.22 739.96 1024.78
  C 744.08 1027.87 750.94 1022.62 753.97 1019.97
  Q 760.02 1014.66 762.29 1011.96
  A 0.87 0.87 0.0 0 1 762.66 1011.70
  L 764.40 1011.09
  A 2.28 2.28 0.0 0 0 765.87 1009.40
  L 767.88 999.41
  A 2.37 2.36 -81.3 0 1 770.44 997.53
  L 770.54 997.54
  A 1.91 1.91 0.0 0 1 772.28 999.75
  L 770.67 1009.69
  A 0.43 0.43 0.0 0 0 771.45 1010.00
  C 773.85 1006.45 781.75 995.95 786.69 998.18
  Q 789.71 999.53 789.75 1002.42
  Q 789.83 1007.55 789.80 1011.44
  Q 789.79 1014.06 790.63 1015.34
  A 2.22 2.22 0.0 0 0 794.06 1015.86
  L 802.07 1008.48
  A 3.55 3.52 79.7 0 0 802.97 1007.17
  C 805.43 1001.02 811.65 987.42 820.94 992.25
  A 0.74 0.74 0.0 0 0 822.01 991.72
  Q 824.74 975.68 829.24 961.52
  Q 829.90 959.41 830.98 958.40
  A 2.15 1.94 53.8 0 1 834.12 959.05
  Q 834.98 960.52 834.67 963.23
  Q 833.17 976.54 828.51 989.20
  C 825.77 996.64 824.74 1002.57 826.67 1009.25
  C 829.56 1019.22 840.74 1007.01 843.91 1003.88
  A 1.09 1.09 0.0 0 1 845.69 1004.27
  C 846.25 1005.74 845.30 1007.19 844.37 1008.49
  C 839.48 1015.34 828.23 1023.26 822.77 1012.27
  C 822.05 1010.81 821.98 1009.05 821.30 1008.02
  Z
  M 819.73 998.26
  C 818.69 996.62 816.98 994.60 815.03 996.37
  Q 808.17 1002.59 807.15 1010.81
  Q 806.89 1012.94 807.34 1014.16
  A 1.44 1.43 -25.7 0 0 809.43 1014.89
  C 814.89 1011.61 817.08 1006.46 819.85 999.54
  A 1.40 1.40 0.0 0 0 819.73 998.26
  Z
  M 747.1892 1004.5708
  A 5.09 2.10 -45.0 0 0 742.1051 1006.6851
  A 5.09 2.10 -45.0 0 0 739.9908 1011.7692
  A 5.09 2.10 -45.0 0 0 745.0749 1009.6549
  A 5.09 2.10 -45.0 0 0 747.1892 1004.5708
  Z"
/>
<path fill="#1d3725" d="
  M 622.57 1033.47
  Q 626.18 1026.99 630.80 1022.11
  C 635.37 1017.28 641.09 1018.37 640.66 1025.94
  C 640.36 1031.05 639.74 1035.87 641.40 1039.37
  A 1.67 1.67 0.0 0 0 643.56 1040.19
  Q 646.33 1039.01 648.50 1036.21
  Q 651.24 1032.68 654.53 1030.33
  A 1.09 1.08 -24.3 0 0 654.96 1029.21
  Q 654.79 1028.44 653.75 1027.51
  A 1.12 1.12 0.0 0 1 653.79 1025.81
  L 655.64 1024.29
  A 3.80 3.62 -7.5 0 0 656.60 1023.10
  C 659.17 1018.04 662.60 1011.48 669.08 1011.53
  C 675.24 1011.59 675.61 1018.44 672.74 1022.24
  Q 668.57 1027.78 662.08 1028.19
  A 1.84 1.84 0.0 0 0 660.35 1029.98
  C 660.14 1037.70 666.28 1039.30 671.89 1035.36
  Q 676.70 1031.99 681.48 1027.15
  A 1.04 1.04 0.0 0 1 683.20 1027.53
  L 683.38 1028.04
  A 2.58 2.57 -35.2 0 1 682.95 1030.52
  Q 677.79 1036.92 672.80 1040.07
  Q 670.26 1041.67 667.53 1042.07
  Q 657.82 1043.50 655.49 1034.21
  A 0.48 0.48 0.0 0 0 654.61 1034.09
  C 652.31 1038.15 649.86 1041.98 645.87 1044.12
  C 642.22 1046.07 638.80 1045.10 636.82 1041.38
  C 634.14 1036.35 636.12 1030.17 635.89 1025.65
  A 1.00 0.99 65.8 0 0 634.19 1025.00
  C 633.16 1026.04 631.48 1027.63 630.57 1029.00
  Q 624.45 1038.32 620.10 1048.27
  A 2.43 2.30 -73.3 0 1 617.59 1049.71
  Q 614.28 1049.18 614.96 1045.25
  C 617.02 1033.26 618.72 1025.75 620.53 1013.31
  Q 622.09 1002.55 624.65 991.44
  Q 625.04 989.73 626.78 988.98
  C 628.87 988.09 629.86 990.48 629.54 992.01
  Q 625.46 1011.66 621.88 1033.23
  A 0.37 0.37 0.0 0 0 622.57 1033.47
  Z
  M 669.8220 1016.3073
  A 5.13 2.03 -45.4 0 0 664.7746 1018.5346
  A 5.13 2.03 -45.4 0 0 662.6180 1023.6127
  A 5.13 2.03 -45.4 0 0 667.6654 1021.3854
  A 5.13 2.03 -45.4 0 0 669.8220 1016.3073
  Z"
/>
<path fill="#1d3725" d="
  M 588.46 1025.25
  C 586.38 1026.08 582.64 1027.80 581.02 1026.44
  A 1.80 1.79 -49.7 0 1 580.82 1023.90
  C 582.67 1021.74 585.88 1021.31 589.68 1020.30
  A 2.74 2.74 0.0 0 0 591.60 1018.42
  L 596.14 1002.52
  A 2.59 2.59 0.0 0 1 599.31 1000.73
  L 599.38 1000.75
  A 2.39 2.38 16.2 0 1 600.98 1003.65
  L 597.43 1016.69
  A 0.74 0.73 -88.8 0 0 598.30 1017.60
  L 606.29 1015.78
  A 1.98 1.98 0.0 0 1 608.70 1017.52
  L 608.73 1017.80
  A 2.25 2.25 0.0 0 1 606.98 1020.27
  L 597.66 1022.33
  A 2.93 2.92 -88.8 0 0 595.44 1024.47
  C 593.59 1031.68 591.51 1040.90 593.26 1047.94
  A 2.31 2.31 0.0 0 0 596.07 1049.62
  C 601.66 1048.18 605.37 1043.96 609.14 1039.60
  A 1.60 1.59 -44.4 0 1 611.58 1039.62
  L 611.63 1039.68
  A 2.42 2.42 0.0 0 1 611.77 1042.56
  Q 607.99 1048.19 601.92 1052.43
  C 597.94 1055.21 591.93 1055.99 589.06 1051.19
  C 587.78 1049.05 587.44 1045.78 587.66 1043.18
  Q 588.38 1034.75 589.76 1026.30
  A 0.96 0.96 0.0 0 0 588.46 1025.25
  Z"
/>
<ellipse fill="#1d3725" cx="0.00" cy="0.00" transform="translate(858.49,1011.60) rotate(-46.0)" rx="3.29" ry="2.86"/>
<path fill="#1d3725" d="
  M 512.85 1035.89
  A 0.46 0.45 20.1 0 0 512.50 1035.14
  Q 511.21 1035.14 510.03 1035.30
  A 1.71 1.70 -80.4 0 1 508.30 1032.84
  C 509.40 1030.65 512.30 1030.67 515.19 1030.21
  A 2.20 2.19 -87.6 0 0 516.97 1028.57
  Q 518.95 1020.45 521.91 1011.93
  Q 522.42 1010.46 524.10 1009.36
  A 1.71 1.69 -60.6 0 1 525.11 1009.07
  C 527.26 1009.12 527.61 1011.52 527.24 1013.42
  Q 525.84 1020.59 523.90 1026.91
  A 0.85 0.85 0.0 0 0 524.90 1027.99
  L 533.72 1026.04
  A 2.00 1.99 -13.5 0 1 536.09 1027.49
  L 536.11 1027.56
  A 1.97 1.97 0.0 0 1 534.71 1029.94
  L 523.33 1032.98
  A 1.92 1.91 0.5 0 0 521.98 1034.30
  Q 519.48 1042.95 519.20 1052.25
  C 519.12 1054.90 519.09 1062.12 524.01 1060.24
  Q 529.72 1058.05 535.45 1051.05
  A 2.19 2.19 0.0 0 1 537.98 1050.41
  L 538.05 1050.44
  A 1.49 1.49 0.0 0 1 538.75 1052.60
  Q 533.49 1061.04 526.52 1064.32
  C 517.27 1068.67 513.96 1060.50 514.27 1053.02
  Q 514.61 1045.12 515.18 1041.09
  A 0.69 0.69 0.0 0 0 513.98 1040.54
  Q 507.86 1047.50 499.48 1049.35
  A 1.26 1.26 0.0 0 0 498.49 1050.59
  Q 498.55 1060.26 492.34 1066.98
  C 489.36 1070.22 483.29 1072.19 480.91 1067.08
  Q 480.50 1066.20 479.58 1064.04
  A 0.50 0.49 48.0 0 0 478.69 1063.99
  C 476.68 1067.69 472.22 1072.11 467.88 1071.61
  C 460.91 1070.79 462.27 1060.40 462.19 1055.81
  Q 462.18 1055.35 461.90 1054.86
  A 1.03 1.02 53.4 0 0 460.29 1054.62
  C 454.28 1060.40 450.05 1067.51 445.32 1075.27
  A 1.96 1.95 14.6 0 1 443.70 1076.21
  C 440.40 1076.33 440.30 1073.59 440.87 1070.95
  Q 444.43 1054.62 445.34 1050.40
  A 2.35 2.34 7.1 0 1 447.73 1048.55
  L 447.82 1048.55
  A 1.94 1.93 -84.5 0 1 449.67 1050.80
  L 448.03 1060.69
  A 0.37 0.37 0.0 0 0 448.68 1060.99
  C 452.59 1056.31 455.79 1050.72 461.77 1048.75
  C 464.65 1047.81 466.98 1051.40 466.98 1053.77
  Q 466.98 1061.41 467.20 1064.27
  Q 467.32 1065.87 467.74 1066.28
  A 3.03 2.70 -38.0 0 0 471.28 1066.51
  Q 474.05 1064.78 476.23 1062.21
  A 3.45 3.43 7.5 0 1 477.41 1061.31
  L 479.13 1060.51
  A 0.94 0.93 -9.2 0 0 479.67 1059.77
  C 480.52 1052.19 482.72 1048.04 486.81 1042.28
  C 489.86 1037.99 496.09 1040.24 497.78 1044.68
  A 1.27 1.27 0.0 0 0 499.39 1045.43
  Q 506.93 1042.79 512.85 1035.89
  Z
  M 493.56 1050.31
  L 488.84 1048.80
  A 1.57 1.57 0.0 0 0 486.86 1049.82
  L 485.86 1052.98
  A 11.49 3.93 -72.3 0 0 486.11 1065.13
  L 486.33 1065.20
  A 11.49 3.93 -72.3 0 0 493.57 1055.45
  L 494.58 1052.28
  A 1.57 1.57 0.0 0 0 493.56 1050.31
  Z"
/>
<path fill="#1d3725" d="
  M 823.15 1064.57
  Q 822.56 1064.81 822.03 1064.83
  C 793.12 1066.09 765.99 1069.26 738.03 1073.62
  Q 697.95 1079.88 660.69 1087.68
  Q 655.29 1088.81 632.56 1094.33
  Q 616.33 1098.27 604.56 1101.54
  Q 565.70 1112.35 553.82 1116.08
  Q 538.35 1120.95 523.36 1125.84
  Q 508.80 1130.59 499.63 1132.88
  Q 496.97 1133.54 494.93 1133.24
  A 1.44 1.44 0.0 0 1 493.87 1131.14
  C 495.27 1128.51 501.56 1126.46 505.21 1125.21
  Q 515.39 1121.71 536.83 1114.63
  Q 605.05 1092.10 677.03 1079.06
  C 700.25 1074.85 718.87 1071.12 741.02 1068.68
  Q 768.02 1065.70 774.69 1065.42
  Q 784.85 1064.99 809.50 1063.99
  Q 814.37 1063.79 823.11 1064.31
  A 0.14 0.13 -54.1 0 1 823.15 1064.57
  Z"
/>
</svg>
