<?xml version="1.0" encoding="UTF-8" standalone="no"?>
<!DOCTYPE svg PUBLIC "-//W3C//DTD SVG 1.1//EN" "http://www.w3.org/Graphics/SVG/1.1/DTD/svg11.dtd">
<svg xmlns="http://www.w3.org/2000/svg" version="1.1" viewBox="0.00 0.00 438.00 447.00">
<g stroke-width="2.00" fill="none" stroke-linecap="butt">
<path stroke="#86be68" vector-effect="non-scaling-stroke" d="
  M 205.11 150.48
  L 205.11 176.41"
/>
<path stroke="#3b8846" vector-effect="non-scaling-stroke" d="
  M 204.89 321.54
  L 204.85 322.72"
/>
</g>
<path fill="#a0cc75" d="
  M 205.11 150.48
  L 205.11 176.41
  L 205.11 213.14
  A 0.46 0.46 0.0 0 1 204.65 213.60
  Q 185.96 213.59 142.01 213.66
  C 122.76 213.70 106.07 212.51 89.76 206.80
  C 70.84 200.18 55.89 186.46 50.65 166.92
  C 46.98 153.24 48.85 140.11 56.18 128.19
  C 66.56 111.33 84.52 103.53 104.03 108.43
  A 0.77 0.76 0.3 0 0 104.97 107.51
  Q 102.76 98.24 104.45 88.68
  C 108.98 63.11 135.01 47.99 159.80 53.92
  C 176.92 58.02 189.95 69.24 196.83 85.23
  C 205.78 106.00 205.32 126.89 205.11 150.48
  Z"
/>
<path fill="#6baf5a" d="
  M 224.97 213.64
  A 0.71 0.71 0.0 0 1 224.26 212.93
  Q 224.36 172.73 224.16 134.75
  Q 224.10 123.51 225.61 111.77
  C 227.66 95.80 232.29 80.82 242.45 69.64
  C 255.11 55.72 274.77 49.30 293.38 54.37
  Q 309.55 58.78 318.69 71.77
  C 326.48 82.85 327.26 95.32 324.94 107.87
  A 0.53 0.52 88.3 0 0 325.58 108.48
  C 345.21 103.64 362.36 110.58 373.26 127.21
  C 381.40 139.63 383.04 154.99 378.31 169.64
  C 372.55 187.43 358.45 200.38 340.76 206.91
  C 325.61 212.50 308.91 213.87 291.46 213.68
  Q 291.40 213.68 224.97 213.64
  Z"
/>
<path fill="#6baf5a" d="
  M 205.11 150.48
  L 205.11 176.41
  L 205.11 150.48
  Z"
/>
<path fill="#45a34a" d="
  M 204.89 321.54
  L 204.85 322.72
  Q 204.64 329.69 202.46 341.48
  C 197.58 367.77 179.23 395.62 149.55 396.12
  C 118.87 396.64 97.10 371.00 104.41 340.44
  A 0.66 0.65 89.5 0 0 103.61 339.65
  C 70.82 348.41 44.76 318.99 49.23 287.56
  C 52.30 265.92 66.99 248.39 87.49 240.50
  C 100.90 235.34 114.84 233.96 129.50 233.84
  Q 154.50 233.63 204.47 233.80
  A 0.70 0.69 0.8 0 1 205.16 234.50
  L 204.89 321.54
  Z"
/>
<path fill="#306d42" d="
  M 224.92 233.82
  C 258.19 233.68 282.35 233.29 310.00 234.18
  Q 326.35 234.71 341.61 240.35
  C 363.01 248.26 378.22 265.95 380.77 289.10
  C 382.10 301.10 378.99 313.28 372.19 322.83
  C 361.43 337.94 344.29 343.73 326.26 339.51
  A 0.80 0.80 0.0 0 0 325.30 340.49
  C 332.35 367.81 314.78 392.99 286.96 395.49
  C 262.36 397.69 243.03 382.98 233.28 361.21
  C 225.92 344.79 224.16 327.59 224.21 309.75
  Q 224.32 274.59 224.28 234.47
  A 0.65 0.65 0.0 0 1 224.92 233.82
  Z"
/>
<path fill="#306d42" d="
  M 204.89 321.54
  L 204.85 322.72
  L 204.89 321.54
  Z"
/>
</svg>
