<svg width="259" height="119" viewBox="0 0 259 119" fill="none" xmlns="http://www.w3.org/2000/svg">
<path d="M81.8658 30.7682C82.0729 30.3488 82.3399 29.8663 82.6429 29.35C82.6574 29.3253 82.672 29.3004 82.6866 29.2755C83.8677 27.2873 85.4601 24.7338 86.292 23.1576C86.3117 23.1208 86.3312 23.0842 86.3506 23.0477C86.6038 22.5736 86.824 22.1216 87.066 21.5901C87.524 20.5327 88.1804 19.191 88.7942 16.7609C88.7978 16.7474 88.8012 16.734 88.8046 16.7205C88.8739 16.4452 88.9064 16.1631 88.8846 15.8402C88.7938 15.3283 88.5539 14.7713 88.1461 14.1285C88.1507 14.1374 88.1555 14.1464 88.1605 14.1553C88.1772 14.1851 88.1964 14.2151 88.2163 14.2428C88.4055 14.4846 88.4368 14.4108 88.0798 14.3258C87.7428 14.2386 87.1766 14.1634 86.5363 14.121C86.5232 14.1202 86.5097 14.1194 86.4957 14.1187C84.8013 14.0035 80.8889 15.8284 77.6253 17.3328C77.5933 17.3475 77.5611 17.3624 77.5287 17.3774C73.2986 19.394 69.0059 22.5923 64.8347 25.7433C64.8065 25.7648 64.7782 25.7864 64.7499 25.808C62.5039 27.5237 60.2886 29.3053 58.1058 31.1272C57.9791 31.2403 57.8486 31.3571 57.7188 31.4735C55.199 33.7255 52.1543 36.6079 50.1764 38.3552C47.6581 40.5735 45.9566 42.0992 44.5623 43.3535C43.6245 44.2679 42.694 45.1905 41.7716 46.1214C41.7521 46.141 41.7326 46.1607 41.7132 46.1804C35.1073 52.8672 28.8488 59.9669 23.0459 67.3922C21.6913 69.1301 20.3598 70.8947 19.0723 72.6742C19.0617 72.6889 19.0511 72.7035 19.0406 72.7181C18.37 73.6457 17.7083 74.5828 17.0601 75.5251C15.3059 78.0757 13.6408 80.67 12.0937 83.3304C11.243 84.9084 10.4937 86.4274 9.83241 87.8548C9.36747 88.8583 8.94481 89.8189 8.56345 90.7086C8.5586 90.7199 8.55377 90.7312 8.54895 90.7425C8.18236 91.5999 7.86239 92.3946 7.5796 93.1128C6.14599 96.6341 5.10308 100.638 4.85139 103.815C4.83839 103.949 4.82605 104.083 4.81456 104.213C4.81377 104.222 4.81299 104.23 4.81223 104.238C4.78525 104.533 4.77572 104.816 4.77988 105.081C4.90974 107.122 5.89843 109.067 7.42662 110.76C7.46733 110.828 7.50882 110.896 7.55068 110.964C7.55554 110.973 7.56043 110.982 7.56536 110.991C7.58858 111.033 7.61264 111.076 7.63767 111.118C8.39518 112.457 10.6333 113.547 14.8366 113.994C15.0441 114.018 15.2566 114.041 15.4743 114.064C15.4932 114.066 15.5124 114.068 15.5316 114.07C16.9121 114.207 18.7719 114.013 20.9443 113.632C21.6827 113.503 22.2675 113.416 22.7523 113.36C22.7751 113.357 22.7977 113.355 22.8201 113.352C23.3396 113.295 23.7326 113.269 24.0852 113.242C24.2851 113.226 24.4727 113.21 24.6613 113.186C25.3061 113.102 25.938 112.817 26.6652 112.456C27.6144 111.984 28.7244 111.386 30.3408 110.861C31.9708 110.33 33.29 109.785 34.3813 109.28C34.3989 109.272 34.4165 109.264 34.4341 109.255C36.7484 108.172 37.9971 107.281 39.023 106.554C39.4633 106.24 39.8636 105.953 40.2887 105.685C41.6588 104.824 43.7509 103.822 45.3539 103.118C46.6342 102.558 48.9822 101.084 50.7243 99.8854C51.3821 99.4335 52.3112 98.8923 53.4048 98.2483C54.5358 97.5822 55.8412 96.8068 57.1981 95.9109C57.763 95.5381 58.2794 95.1956 58.764 94.8738C58.7737 94.8673 58.7834 94.8609 58.7931 94.8544C61.2208 93.2391 62.6796 92.2541 63.8919 91.4364C64.3065 91.1564 64.6945 90.8943 65.0792 90.633C66.298 89.8051 67.8207 88.7939 69.3602 87.7643C71.2042 86.5314 73.0673 85.2753 74.4681 84.2866C78.2531 81.9675 82.0406 79.6455 85.8263 77.3161C87.7718 76.1197 89.7731 75.1803 91.3986 74.7177C93.0241 74.2556 94.1378 74.3058 94.5042 74.8694C94.87 75.4334 94.4627 76.4712 93.3787 77.768C92.2941 79.0646 90.6201 80.5111 88.7302 81.7991C84.9242 84.3916 81.1104 86.9805 77.2689 89.5338C72.5896 92.6432 67.8705 95.7022 63.057 98.6385C62.5786 98.9303 62.0934 99.2248 61.6141 99.5142C61.604 99.5203 61.594 99.5264 61.5839 99.5324C58.6965 101.275 55.7925 102.977 52.8542 104.641C52.5005 104.842 52.1465 105.041 51.7914 105.24C48.9958 107.032 46.1623 108.769 44.1202 109.925C42.4379 110.878 41.1421 111.453 40.0265 111.941C39.2622 112.274 38.5786 112.568 37.9106 112.908C37.5712 113.081 37.1004 113.324 36.5409 113.608C36.523 113.617 36.505 113.626 36.487 113.635C36.4815 113.638 36.4759 113.641 36.4704 113.644C34.0535 114.849 29.8477 116.987 25.3913 117.939C24.897 118.045 24.3791 118.142 23.8545 118.226C23.8294 118.23 23.8043 118.234 23.7792 118.238C22.3203 118.467 20.7179 118.675 19.0879 118.766C17.7513 118.839 16.3917 118.832 15.0783 118.642C15.048 118.638 15.0177 118.634 14.9876 118.629C13.5149 118.395 12.2347 118.146 11.3921 118.003C9.04922 117.62 6.00142 116.591 3.97883 114.224C3.96539 114.209 3.95201 114.193 3.93868 114.177C3.80777 114.022 3.67932 113.865 3.55403 113.707C1.89188 111.649 0.970668 109.369 0.517991 108.051C0.0590441 106.762 -0.0867355 105.509 0.0481949 103.963C0.0494118 103.95 0.0506535 103.937 0.0519199 103.923C0.0811396 103.637 0.115478 103.332 0.155569 103.01C0.316459 101.743 0.549798 100.166 1.03847 98.0729C1.61606 95.6543 2.29149 94.0454 2.88072 92.7051C3.5047 91.3108 4.05933 90.2155 4.65934 88.8799C4.66478 88.8679 4.67022 88.8558 4.67567 88.8437C4.87959 88.391 5.08856 87.9087 5.31029 87.3779C6.27778 85.0545 7.4614 82.7112 8.56213 80.9645C9.06172 80.1697 9.61226 79.2524 10.1991 78.3053C10.9776 77.0479 11.8139 75.7496 12.6554 74.6085C13.3477 73.6699 13.9997 72.9553 14.5802 72.3259C14.7612 72.1297 14.9374 71.9387 15.1021 71.7576C15.3933 71.3432 15.683 70.9343 15.9789 70.5196C15.9896 70.5046 16.0004 70.4896 16.0111 70.4746C16.2404 70.1534 16.4777 69.8229 16.7093 69.5019C16.7798 69.3693 16.8535 69.2288 16.9312 69.0818C17.3186 68.3482 17.8034 67.4426 18.4964 66.3994C19.5963 64.7454 20.7174 63.4137 21.9121 62.0204C22.8423 60.9364 23.8168 59.8168 24.8723 58.4838C25.5932 57.5734 26.3899 56.5219 27.1892 55.4829C28.3755 53.9397 29.5661 52.429 30.4776 51.4523C30.8187 51.0866 31.1634 50.8157 31.5046 50.5494C31.5062 50.5483 31.5078 50.5473 31.5094 50.5462C31.5326 50.5281 31.5557 50.5098 31.5789 50.4917C33.6715 48.0053 35.8029 45.5478 37.9839 43.1283C38.0563 43.039 38.1291 42.9494 38.2021 42.8599C38.22 42.838 38.2379 42.816 38.2558 42.7941C38.3449 42.685 38.4341 42.576 38.523 42.4678C39.4011 41.3971 40.2646 40.3663 40.7794 39.6427C41.3355 38.8586 42.9488 37.0967 44.6887 35.2727C45.8254 34.0787 47.0178 32.8542 47.9766 31.8402C48.5368 31.2475 49.1593 30.7842 49.8049 30.3082C50.4042 29.8671 51.0252 29.4133 51.6264 28.8425C51.9317 28.553 52.238 28.2306 52.575 27.8796C52.8683 27.5736 53.1809 27.2493 53.5174 26.9239C53.831 26.6211 54.59 26.0142 55.5717 25.2471C56.1787 24.7728 56.8692 24.2386 57.5954 23.6739C58.6606 22.7405 59.7443 21.8128 60.8371 20.9037C60.8656 20.8799 60.8941 20.8563 60.9225 20.8326C61.6681 20.2132 62.4182 19.5991 63.1772 18.9895C63.5362 18.6185 63.8287 18.274 64.0303 17.9657C64.1788 17.7416 64.2857 17.528 64.3953 17.31C64.5501 17.0091 64.7046 16.703 64.9804 16.348C65.1939 16.072 65.4918 15.8073 65.7348 15.68C65.8471 15.6214 65.9448 15.5936 66.0331 15.5687C66.1331 15.5409 66.2269 15.5128 66.3146 15.4489C66.3781 15.4025 66.4297 15.3343 66.4929 15.2514C66.5932 15.1196 66.7313 14.9434 66.9884 14.7602C67.9576 14.0696 69.0981 13.323 70.2646 12.6198C71.5602 11.8364 72.8995 11.1102 74.0162 10.5453C74.074 10.5159 74.1329 10.4865 74.1927 10.4572C74.2345 10.4366 74.2769 10.4161 74.3196 10.3956C75.4155 9.87166 76.9334 9.24605 78.5477 8.64647C79.7664 8.19507 81.0514 7.75932 82.2656 7.42123C83.452 7.09727 84.8028 6.70737 86.4546 6.66785C86.595 6.66519 86.7372 6.66547 86.8814 6.66912C86.9419 6.67065 87.0024 6.67277 87.0629 6.6755C88.3546 6.72793 89.8145 6.86887 91.3185 7.62067C91.6517 7.79236 92.0495 8.10132 92.5146 8.59325C92.8412 8.94184 93.2062 9.39338 93.537 9.96C93.6707 10.1288 93.796 10.3061 93.9101 10.4882C93.9444 10.5428 93.9778 10.5981 94.0103 10.654C94.7596 11.952 95.3582 13.5464 95.4799 15.2711C95.4981 15.3367 95.516 15.4056 95.5334 15.4741C95.5338 15.4752 95.5342 15.4762 95.5345 15.4773C95.7133 16.18 95.8445 17.0605 95.7552 18.0694C95.7514 18.1129 95.7471 18.1568 95.7423 18.2009C95.6753 19.1 95.447 20.1681 94.926 21.2802C94.673 21.8197 94.4338 22.1193 94.2178 22.3888C94.0056 22.6508 93.8139 22.8828 93.6355 23.2545C93.4313 23.6799 93.2643 24.2077 93.0693 24.7756C92.7949 25.5757 92.4635 26.4556 91.9324 27.2211C91.8963 27.2731 91.8572 27.3291 91.8163 27.3879C91.4322 27.9415 90.8507 28.7472 90.1682 29.4689C89.4449 30.6077 88.701 31.7009 87.9263 32.7845C87.9084 32.8096 87.8904 32.8347 87.8724 32.8598C87.0204 34.046 86.1554 35.2154 85.2798 36.3795C82.4819 40.0842 79.6379 43.7262 76.6594 47.3449C76.4283 47.6233 76.1895 47.901 75.9493 48.1693C75.9256 48.1958 75.902 48.222 75.8784 48.248C74.6497 49.6068 73.3965 50.7675 72.2716 51.5627C71.592 52.0415 70.991 52.3628 70.5038 52.5044C70.2563 52.5789 70.0437 52.603 69.8581 52.5815C69.7699 52.5674 69.6801 52.5452 69.6297 52.4877C69.5946 52.4543 69.6531 52.4228 69.6905 52.4406C69.728 52.4486 69.7605 52.4581 69.7944 52.4583C69.8262 52.4561 69.8688 52.4563 69.8824 52.3782C69.8911 52.3487 69.868 52.2417 69.7661 52.1717C69.6763 52.1082 69.5917 52.1019 69.549 52.0935C69.3988 52.0683 69.3984 52.0161 69.3693 51.9494C69.3317 51.8133 69.3408 51.6309 69.3863 51.407C69.4727 50.9648 69.6993 50.3678 70.0491 49.6501C70.6309 48.4619 71.5039 47.0377 72.5546 45.5687C72.5737 45.5418 72.5929 45.5148 72.6123 45.4876C72.8093 45.212 73.0134 44.93 73.2184 44.6512C75.3301 41.7685 77.3214 38.7188 79.2748 35.667C79.3717 35.5025 79.4684 35.3385 79.5659 35.1745C80.2896 33.956 80.8792 32.7738 81.4638 31.5858C81.596 31.316 81.7323 31.0394 81.8658 30.7682Z" fill="#2F5B3F"/>
<path d="M143.86 93.5685C144.049 92.6689 144.954 91.2067 145.442 90.4013C145.451 90.3863 145.46 90.3712 145.469 90.3562C145.587 90.161 145.69 89.9721 145.806 89.7581C146.086 89.2385 146.475 88.5206 147.384 87.1085C147.602 86.6634 147.811 86.2417 148.037 85.7919C148.259 85.3496 148.481 84.9104 148.713 84.4529C148.716 84.4476 148.719 84.4423 148.721 84.4371C150.874 80.188 153.135 75.9107 155.405 71.6697C155.433 71.6079 155.461 71.5445 155.489 71.4812C156.029 70.2703 156.702 68.7517 157.233 67.8504C157.907 66.7108 158.395 65.9439 158.799 65.32C160.788 61.5805 162.752 57.8296 164.611 54.0274C165.194 52.8352 165.766 51.6374 166.324 50.4358C166.839 49.3263 167.345 48.2158 167.844 47.1001C168.085 46.4327 168.305 45.7802 168.505 45.1845C168.786 44.349 169.042 43.5908 169.287 42.9962C169.885 41.5452 170.727 39.9909 171.358 38.8297C171.461 38.6397 171.558 38.4611 171.647 38.2961C172.051 37.3361 172.453 36.3735 172.86 35.4005C172.912 35.3475 172.965 35.2946 173.019 35.241C173.69 34.5776 174.15 33.5868 174.885 32.0132C174.961 31.8496 175.04 31.6806 175.122 31.5063C175.123 31.5043 175.124 31.5024 175.125 31.5005C175.394 30.9291 175.678 30.333 176.031 29.6265C176.33 29.0296 176.584 28.7965 176.803 28.5818C176.866 28.5203 176.926 28.4629 176.98 28.4024C177.167 28.195 177.208 27.905 177.254 27.5666C177.314 27.1258 177.396 26.5771 177.811 26.0384C179.154 24.2817 179.286 23.2696 179.375 22.5267C179.401 22.3091 179.43 22.1006 179.482 21.9086C179.65 21.289 180.141 20.5155 180.576 19.9592C180.92 19.5185 181.272 18.4959 181.492 17.6727C181.57 17.3737 181.757 16.9779 181.965 16.5367C182.187 16.0671 182.441 15.5319 182.656 14.9286C183.2 13.407 183.498 12.602 183.741 11.9473C183.807 11.7684 183.875 11.5877 183.938 11.4169C184.139 10.8749 184.411 10.2079 184.688 9.53226C185.02 8.72575 185.359 7.90738 185.594 7.26617C185.929 6.66004 186.27 6.0538 186.616 5.45224C186.616 5.45219 186.616 5.45214 186.616 5.45209C187.153 4.51903 187.702 3.59106 188.293 2.65068C188.792 1.85637 189.532 1.18468 190.305 0.875792C191.078 0.568098 191.774 0.655149 192.288 1.01805C192.805 1.38292 193.079 2.03573 193.139 2.78167C193.198 3.52629 193.042 4.32833 192.672 5.09641C192.235 5.99984 191.813 6.93727 191.392 7.88319C191.392 7.88323 191.392 7.88328 191.392 7.88333C191.098 8.54653 190.798 9.22832 190.504 9.89803C189.634 11.8797 188.749 13.8716 187.806 15.8363C187.143 17.2197 186.478 18.5796 185.795 19.9492C185.725 20.0898 185.653 20.2349 185.582 20.3755C185.17 21.6031 184.753 22.8075 184.408 23.6524C184.129 24.3365 183.817 24.7992 183.555 25.1855C183.373 25.4548 183.21 25.6987 183.096 25.9545C183.034 26.0938 182.953 26.287 182.853 26.5232C182.455 27.4722 181.764 29.1138 180.944 30.4888C180.58 31.0986 180.099 31.8049 179.653 32.4518C179.442 32.7584 179.234 33.0628 179.042 33.3529C179.041 33.3547 179.039 33.3565 179.038 33.3583C178.657 33.9289 178.343 34.4404 178.22 34.7824C177.907 35.6523 177.375 36.598 176.91 37.4204C176.461 38.2192 176.08 38.892 175.978 39.3498C175.859 39.8918 175.622 40.2734 175.261 40.8609C175.009 41.2726 174.709 41.7568 174.347 42.4616C173.929 43.2762 173.581 43.8103 173.278 44.2777C172.854 44.9317 172.541 45.4145 172.298 46.2601C172.034 47.1875 171.692 48.1437 171.311 48.8298C171.137 49.1442 170.966 49.5181 170.788 49.9082C170.552 50.4224 170.305 50.9619 170.021 51.4303C169.786 51.8169 169.521 52.0994 169.286 52.351C169.213 52.4294 169.143 52.5048 169.078 52.579C168.926 52.9019 168.775 53.2259 168.626 53.5501C168.618 53.6102 168.611 53.6739 168.604 53.7403C168.566 54.0736 168.519 54.4832 168.371 54.9489C168.136 55.6864 167.789 56.2648 167.421 56.8762C167.136 57.3519 166.838 57.8475 166.573 58.4509C166.393 58.8622 166.216 59.3443 166.041 59.8225C165.78 60.5326 165.523 61.2315 165.26 61.6808C165.162 61.8488 165.025 61.9682 164.889 62.0861C164.889 62.0866 164.888 62.087 164.887 62.0875C164.878 62.0955 164.869 62.1036 164.86 62.1116C164.369 63.2704 163.883 64.4295 163.396 65.5965C163.366 65.7028 163.334 65.8099 163.304 65.9159C163.153 66.4327 163.005 66.9384 162.968 67.2955C162.926 67.6834 162.598 68.5414 162.248 69.455C162.02 70.049 161.783 70.6648 161.614 71.181C161.516 71.482 161.321 71.7181 161.121 71.9597C160.935 72.1856 160.74 72.4239 160.617 72.7205C160.555 72.8693 160.507 73.0385 160.456 73.2186C160.411 73.3772 160.364 73.5445 160.303 73.7135C160.246 73.8709 160.045 74.1959 159.792 74.6051C159.635 74.859 159.459 75.1424 159.28 75.4481C158.91 76.3175 158.547 77.1662 158.174 78.0287C158.146 78.2307 158.147 78.417 158.184 78.5816C158.21 78.6998 158.257 78.8109 158.302 78.9283C158.365 79.0869 158.429 79.2508 158.45 79.4433C158.467 79.5937 158.43 79.7432 158.356 79.8194C158.321 79.8548 158.279 79.8744 158.24 79.8923C158.196 79.9127 158.157 79.9309 158.14 79.9679C158.128 79.9945 158.134 80.0314 158.141 80.0765C158.152 80.1485 158.167 80.2419 158.117 80.3488C157.932 80.7444 157.688 81.2058 157.458 81.6368C157.206 82.1097 156.943 82.6055 156.772 82.9911C156.583 83.4175 156.199 84.0198 155.831 84.5877C155.572 84.988 155.303 85.4083 155.104 85.7589C154.913 86.0954 154.754 86.517 154.615 86.8928C154.564 87.0303 154.514 87.1652 154.463 87.2947C154.461 87.3003 154.459 87.3059 154.457 87.3115C154.333 87.6202 154.202 87.9007 154.037 88.1227C153.989 88.1882 153.867 88.2383 153.715 88.3005C153.606 88.3456 153.485 88.3914 153.358 88.4644C153.123 88.9322 152.9 89.3653 152.66 89.8248C152.662 89.8463 152.664 89.8684 152.667 89.8907C152.667 89.8911 152.667 89.8915 152.667 89.8919C152.72 90.3951 152.801 91.0667 152.23 91.6866C152.086 91.8414 151.935 91.9029 151.798 91.9627C151.661 92.0237 151.539 92.0777 151.454 92.2032C151.358 92.3458 151.317 92.5494 151.273 92.7682C151.214 93.0713 151.132 93.4379 150.895 93.6932C150.879 93.7109 150.861 93.7298 150.843 93.7495C150.676 93.9281 150.409 94.2299 150.07 94.4565C149.511 95.3971 148.94 96.3245 148.351 97.2491C147.365 98.7903 146.35 100.308 145.207 101.828C144.652 102.562 143.902 103.162 143.117 103.433C142.335 103.713 141.585 103.567 141.313 103.071C141.027 102.587 140.81 102.102 140.809 101.455C140.808 100.812 141.029 100.058 141.424 99.343C142.068 98.18 142.694 96.9217 143.294 95.6819C143.32 95.6133 143.346 95.5439 143.373 95.4745C143.572 94.9639 143.682 94.4437 143.784 93.9305C143.809 93.8113 143.835 93.6884 143.86 93.5685Z" fill="#2F5B3F"/>
<path d="M166.545 61.2939C167.094 60.5506 168.507 59.5696 169.279 59.033C169.293 59.0229 169.308 59.0128 169.322 59.0027C169.511 58.8714 169.679 58.743 169.871 58.5952C170.347 58.231 170.975 57.7462 172.393 56.8408C172.755 56.5459 173.158 56.2235 173.529 55.9305C175.028 54.748 176.552 53.5942 178.113 52.4708C178.116 52.4684 178.119 52.466 178.123 52.4635C180.811 50.5299 183.6 48.5922 186.343 46.7096C186.394 46.6684 186.447 46.6265 186.5 46.5841C187.534 45.7554 188.801 44.7382 189.689 44.1831C190.788 43.501 191.592 43.0334 192.219 42.6813C195.663 40.3133 199.118 37.904 202.47 35.4243C203.518 34.6498 204.574 33.8533 205.608 33.0567C206.574 32.3119 207.509 31.58 208.464 30.8232C208.99 30.3414 209.465 29.8851 209.917 29.4523C210.552 28.8456 211.119 28.304 211.605 27.8945C212.789 26.8993 214.233 25.9148 215.313 25.177C215.49 25.0568 215.659 24.941 215.81 24.8374C216.598 24.1812 217.395 23.5157 218.189 22.8504C218.257 22.8267 218.327 22.8034 218.397 22.7799C219.276 22.4887 220.142 21.8152 221.482 20.7736C222.065 20.3198 222.751 19.787 223.564 19.187C224.088 18.8007 224.428 18.6918 224.705 18.6027C224.787 18.5765 224.863 18.5519 224.937 18.5225C225.191 18.4217 225.361 18.1878 225.562 17.9112C225.824 17.5507 226.13 17.125 226.744 16.8218C228.704 15.8538 229.268 15.0478 229.698 14.436C229.823 14.2566 229.938 14.094 230.072 13.9492C230.508 13.4786 231.279 13.0154 231.903 12.715C232.397 12.4779 233.184 11.7266 233.739 11.1164C233.949 10.8853 234.278 10.6296 234.666 10.3283C235.067 10.0166 235.534 9.65451 235.994 9.22162C237.155 8.12983 237.78 7.55246 238.282 7.08883C238.425 6.95713 238.557 6.83486 238.69 6.71204C239.108 6.32399 239.642 5.85875 240.182 5.38708C240.831 4.82155 241.484 4.25161 241.965 3.7924C243.368 2.8009 244.776 1.82692 246.19 0.848752C246.914 0.348285 247.743 0.0405152 248.502 0.00369704C249.26 -0.0327812 249.884 0.202018 250.244 0.667112C250.603 1.13222 250.673 1.79502 250.446 2.51988C250.219 3.24452 249.712 3.96987 249.045 4.54443C247.697 5.70415 246.354 6.86038 244.994 8.00465C243.342 9.39598 241.672 10.7652 239.959 12.0884C238.767 13.0097 237.556 13.9272 236.349 14.8281C236.224 14.9209 236.1 15.013 235.975 15.1066C235.054 16.0005 234.137 16.8758 233.458 17.4592C232.896 17.942 232.424 18.2094 232.02 18.4381C231.741 18.5955 231.496 18.7346 231.276 18.9124C231.158 19.0078 231 19.1415 230.806 19.3042C230.017 19.9694 228.696 21.0837 227.347 21.947C226.749 22.3294 226.035 22.7246 225.339 23.1131C224.348 23.665 223.433 24.1731 223.047 24.5322C222.363 25.1669 221.481 25.7571 220.707 26.2748C219.96 26.7747 219.309 27.2103 219.018 27.5582C218.67 27.9746 218.288 28.209 217.708 28.5677C217.307 28.815 216.816 29.1181 216.189 29.5721C215.468 30.0932 214.903 30.4251 214.435 30.6981C213.772 31.0857 213.284 31.3687 212.685 32.0027C212.021 32.705 211.311 33.3742 210.657 33.8184C210.36 34.0193 210.041 34.2721 209.711 34.534C209.271 34.8818 208.82 35.2397 208.354 35.5302C207.974 35.7668 207.614 35.9 207.297 36.0174C207.198 36.054 207.103 36.0891 207.012 36.1253C206.734 36.3416 206.463 36.5537 206.182 36.7738C206.148 36.8235 206.112 36.8765 206.075 36.9317C205.889 37.2085 205.66 37.548 205.32 37.8907C204.784 38.4324 204.223 38.784 203.621 39.1624C203.155 39.4549 202.672 39.757 202.174 40.1653C201.828 40.4492 201.452 40.7973 201.084 41.1391C200.538 41.6463 200.001 42.1442 199.565 42.426C199.403 42.5305 199.228 42.5742 199.056 42.617C199.055 42.6171 199.054 42.6172 199.053 42.6173C199.042 42.6202 199.03 42.6232 199.018 42.6261C198.079 43.4181 197.107 44.2417 196.177 45.0367C196.101 45.1178 196.025 45.1996 195.949 45.2802C195.58 45.6746 195.225 46.054 195.036 46.3518C194.835 46.6708 194.15 47.2932 193.44 47.9395C192.98 48.3589 192.493 48.8011 192.114 49.1832C191.893 49.4061 191.616 49.5258 191.332 49.6475C191.069 49.7597 190.793 49.8796 190.549 50.0896C190.427 50.1944 190.309 50.3236 190.184 50.4611C190.073 50.5822 189.957 50.7098 189.828 50.8323C189.704 50.9487 189.404 51.1283 188.986 51.3846C188.731 51.5399 188.444 51.7149 188.151 51.9026C187.466 52.4849 186.728 53.1055 186.042 53.6823C185.93 53.8497 185.842 54.0221 185.802 54.1885C185.773 54.3083 185.765 54.4313 185.756 54.5572C185.744 54.7284 185.732 54.9052 185.668 55.0869C185.619 55.229 185.522 55.3445 185.423 55.3769C185.377 55.392 185.331 55.3893 185.289 55.3869C185.241 55.3842 185.198 55.3818 185.167 55.4065C185.145 55.4244 185.135 55.4601 185.122 55.5036C185.101 55.5736 185.078 55.661 184.981 55.7371C184.63 56.015 184.221 56.3048 183.829 56.5819C183.399 56.8861 182.942 57.2107 182.624 57.4739C182.499 57.5771 182.349 57.6844 182.183 57.7935C182.18 57.7958 182.176 57.7981 182.173 57.8004C181.844 58.0184 181.46 58.2422 181.084 58.4585C180.69 58.6828 180.25 58.9402 179.918 59.1577C179.591 59.3716 179.285 59.6547 178.984 59.9302C178.627 60.2581 178.297 60.5616 177.926 60.7438C177.852 60.7794 177.719 60.7678 177.554 60.7528C177.436 60.7421 177.302 60.7301 177.161 60.7313C176.768 61.0178 176.338 61.3266 175.945 61.6019C175.939 61.6214 175.932 61.6409 175.924 61.6615C175.924 61.6619 175.924 61.6623 175.924 61.6627C175.738 62.1387 175.538 62.7397 174.74 63.037C174.542 63.1085 174.379 63.0972 174.233 63.087C174.092 63.0747 173.955 63.0726 173.824 63.1453C173.675 63.2286 173.548 63.3883 173.414 63.5588C173.235 63.7917 172.994 64.0805 172.677 64.1979C172.655 64.2062 172.631 64.2149 172.607 64.2242C172.378 64.3105 172.009 64.4602 171.619 64.5118C170.717 65.0966 169.823 65.6663 168.908 66.2455C167.604 67.0747 166.058 68.0144 164.991 68.7035C164.99 68.7042 164.989 68.7049 164.988 68.7056L165.177 68.523C165.052 68.6424 164.93 68.762 164.812 68.8821C164.274 69.4266 163.693 69.8375 163.147 70.0715C162.6 70.2954 162.112 70.3825 161.593 70.4383C161.063 70.4918 160.593 69.7342 160.623 68.8325C160.635 67.9238 161.026 66.9557 161.62 66.1708C161.751 65.9971 161.884 65.8269 162.02 65.659C162.062 65.6121 162.197 65.4823 162.246 65.4416C162.248 65.4399 162.249 65.4382 162.251 65.4365C163.435 64.4094 164.199 63.8068 165.154 62.9859C165.206 62.9334 165.264 62.8762 165.314 62.8262C165.702 62.4424 166.02 62.0148 166.33 61.5886C166.406 61.487 166.475 61.3905 166.545 61.2939Z" fill="#2F5B3F"/>
<path d="M170.057 60.0066C170.957 60.155 171.97 60.9239 172.505 61.3382C172.515 61.3459 172.525 61.3535 172.536 61.3612C172.664 61.4603 172.783 61.5415 172.934 61.6438C173.276 61.8769 173.74 62.1939 174.613 62.9761C174.889 63.1503 175.179 63.3374 175.453 63.5189C178.459 65.5066 181.331 67.6499 184.213 69.8142C184.252 69.8377 184.292 69.8617 184.333 69.886C184.689 70.0984 185.077 70.3284 185.462 70.5711C185.474 70.5787 185.486 70.5863 185.498 70.594C185.908 70.8526 186.308 71.1198 186.584 71.3515C187.265 71.9197 187.718 72.3272 188.087 72.6655C190.401 74.2963 192.791 75.8581 195.255 77.2939C196.029 77.7444 196.808 78.1806 197.597 78.6036C198.323 78.9923 199.055 79.3721 199.791 79.743C200.244 79.9148 200.68 80.0644 201.086 80.2034C201.656 80.3983 202.163 80.571 202.563 80.7498C203.527 81.1804 204.541 81.8214 205.296 82.2966C205.42 82.3744 205.536 82.4477 205.644 82.5147C206.288 82.8049 206.933 83.0915 207.582 83.3783C207.613 83.4201 207.645 83.4629 207.676 83.5066C208.072 84.0521 208.737 84.3887 209.776 84.9126C210.233 85.1433 210.757 85.4075 211.365 85.7416C211.754 85.9559 211.909 86.1706 212.03 86.3427C212.066 86.3935 212.099 86.441 212.135 86.4841C212.257 86.6305 212.469 86.647 212.711 86.6628C213.026 86.6833 213.403 86.7075 213.754 87.0373C214.137 87.4025 214.495 87.6542 214.788 87.8108C214.792 87.8133 214.797 87.8157 214.801 87.8181C215.355 88.1103 215.759 88.1232 216.105 88.1392C216.262 88.1457 216.4 88.1499 216.533 88.1803C216.969 88.2819 217.468 88.6485 217.812 88.9792C218.096 89.2477 218.796 89.4685 219.359 89.584C219.572 89.6281 219.824 89.7497 220.126 89.895C220.433 90.0423 220.792 90.2144 221.208 90.3457C222.243 90.6696 222.791 90.8414 223.233 90.9806C223.356 91.0183 223.476 91.0569 223.593 91.0925C223.961 91.2053 224.409 91.3626 224.864 91.5188C225.405 91.7042 225.962 91.8896 226.392 91.9979C227.015 92.3121 227.634 92.6196 228.3 92.9569C228.301 92.9574 228.302 92.9579 228.303 92.9585C228.734 93.1778 229.167 93.405 229.608 93.649C230.183 93.9666 230.667 94.5148 230.857 95.1244C231.047 95.7337 230.946 96.3367 230.648 96.8394C230.349 97.3434 229.842 97.6944 229.285 97.8735C228.728 98.0525 228.169 98.0573 227.644 97.8651C227.244 97.7179 226.832 97.5759 226.413 97.436C226.412 97.4357 226.411 97.4353 226.41 97.435C225.72 97.2057 224.979 96.9607 224.253 96.6994C222.819 96.1847 221.423 95.6167 220.063 94.9753C219.108 94.525 218.177 94.0603 217.245 93.5754C217.146 93.5237 217.056 93.4766 216.961 93.4264C216.109 93.1685 215.262 92.8924 214.695 92.6598C214.213 92.4612 213.931 92.2325 213.669 92.026C213.495 91.8874 213.345 91.766 213.166 91.6822C213.095 91.6492 213.004 91.609 212.895 91.5616C212.891 91.5596 212.886 91.5575 212.881 91.5554C212.848 91.5412 212.814 91.5264 212.778 91.5109C212.135 91.2321 211.041 90.7588 210.133 90.1387C209.731 89.8638 209.289 89.5005 208.862 89.1509C208.258 88.6545 207.69 88.1884 207.348 88.0674C206.743 87.8527 206.128 87.4568 205.589 87.1086C205.069 86.7736 204.621 86.483 204.304 86.429C203.923 86.3638 203.674 86.1815 203.294 85.9057C203.03 85.7138 202.712 85.4823 202.247 85.2135C201.713 84.9045 201.363 84.63 201.066 84.3966C200.65 84.0689 200.334 83.8207 199.754 83.6682C199.108 83.498 198.462 83.2645 198.01 82.9715C197.805 82.838 197.556 82.7117 197.297 82.58C196.954 82.4058 196.593 82.2213 196.293 81.9996C196.045 81.817 195.877 81.5978 195.728 81.4039C195.682 81.3435 195.637 81.2856 195.593 81.2319C195.378 81.1181 195.165 81.0056 194.949 80.8926C194.906 80.8899 194.86 80.888 194.812 80.8858C194.572 80.8746 194.277 80.8605 193.958 80.7597C193.45 80.5979 193.082 80.3244 192.689 80.0317C192.383 79.8038 192.071 79.5695 191.667 79.3672C191.391 79.2295 191.069 79.1031 190.742 78.9725C190.259 78.7802 189.787 78.5906 189.5 78.3785C189.392 78.2993 189.329 78.1816 189.267 78.0649C189.266 78.0643 189.266 78.0637 189.266 78.0631C189.262 78.0551 189.258 78.0473 189.253 78.0394C188.479 77.6607 187.705 77.2831 186.931 76.9016C186.857 76.8793 186.783 76.8564 186.709 76.8337C186.351 76.7232 186.004 76.6145 185.741 76.5966C185.46 76.5794 184.873 76.3153 184.265 76.0355C183.856 75.8458 183.453 75.6585 183.092 75.5157C182.891 75.4369 182.758 75.2736 182.626 75.1038C182.621 75.0978 182.617 75.0917 182.612 75.0857C182.607 75.079 182.602 75.0723 182.596 75.0655C182.472 74.9062 182.344 74.7463 182.158 74.6479C182.062 74.5966 181.947 74.5587 181.824 74.5188C181.716 74.4829 181.607 74.4491 181.49 74.3956C181.383 74.3473 181.188 74.1745 180.943 73.957C180.793 73.8228 180.623 73.6713 180.433 73.514C179.877 73.2089 179.315 72.8959 178.77 72.5891C178.623 72.5689 178.48 72.575 178.346 72.6141C178.249 72.6422 178.153 72.6883 178.055 72.7352C177.921 72.7992 177.782 72.8652 177.634 72.8929C177.517 72.9143 177.418 72.8878 177.376 72.8201C177.358 72.7889 177.353 72.7503 177.349 72.7153C177.344 72.6753 177.34 72.6396 177.316 72.6248C177.298 72.6142 177.269 72.621 177.233 72.6289C177.175 72.6416 177.1 72.6578 177.032 72.6148C176.777 72.4561 176.501 72.2534 176.228 72.0525C175.931 71.8339 175.63 71.6126 175.381 71.4669C175.109 71.3082 174.754 70.9754 174.417 70.6541C174.171 70.4228 173.947 70.2056 173.719 70.0262C173.503 69.8547 173.249 69.7386 172.992 69.6189C172.693 69.4817 172.395 69.3433 172.215 69.1369C172.177 69.0946 172.174 68.987 172.162 68.8472C172.154 68.7485 172.144 68.6357 172.124 68.5237C171.844 68.336 171.554 68.1379 171.281 67.9473C171.265 67.9503 171.247 67.9533 171.23 67.9565C171.23 67.9566 171.229 67.9568 171.229 67.9569C170.839 68.03 170.314 68.1354 169.996 67.6518C169.914 67.5282 169.903 67.3935 169.893 67.2724C169.884 67.1538 169.87 67.0435 169.798 66.9749C169.714 66.8956 169.581 66.8769 169.422 66.8477C169.206 66.8116 168.966 66.7725 168.834 66.5781C168.825 66.5649 168.815 66.5506 168.805 66.5361C168.702 66.3923 168.562 66.1886 168.467 65.9018C167.944 65.5099 167.311 65.0862 167.135 64.9629C167.132 64.9597 167.13 64.9568 167.129 64.9543C167.128 64.9528 167.128 64.9515 167.128 64.9502C166.944 64.8647 166.777 64.7895 166.775 64.7496C166.78 64.7255 166.828 64.7249 167.052 64.6597C167.249 64.6114 167.802 64.3464 168.073 63.8578C168.082 63.8418 168.091 63.8257 168.1 63.8097C168.165 63.6158 168.069 63.7182 168.029 63.8498C167.98 63.9889 167.943 64.1856 167.922 64.3915C167.881 64.7966 167.705 65.2352 167.407 65.652C167.104 66.0635 166.728 66.4764 166.244 66.7291C165.766 66.983 165.14 66.9516 164.578 66.5348C164.019 66.1232 163.611 65.4118 163.514 64.5982C163.462 63.7296 163.254 62.9701 163.97 61.4141C163.986 61.3856 164.002 61.3572 164.019 61.329C164.652 60.2525 165.828 59.8892 166.353 59.8212C166.941 59.7336 167.307 59.763 167.632 59.7844C167.725 59.7851 167.815 59.7877 167.899 59.7916C168.183 59.8053 168.425 59.8109 168.651 59.8126C168.678 59.8155 168.704 59.8185 168.731 59.8216C169.123 59.8718 169.413 59.9104 169.698 59.9524C169.818 59.9678 169.949 59.9914 170.057 60.0066Z" fill="#2F5B3F"/>
<path d="M110.675 95.3694C110.928 95.482 110.807 95.5347 110.741 95.5719C110.74 95.5725 110.739 95.5732 110.738 95.5739C110.722 95.5822 110.718 95.5913 110.713 95.6016C110.701 95.6273 110.684 95.6533 110.511 95.7187C110.518 95.7373 110.522 95.7544 110.524 95.7704C110.527 95.8126 110.519 95.8472 110.502 95.8825C110.502 95.883 110.501 95.8835 110.501 95.884C110.384 95.425 110.083 94.9864 109.829 94.769C109.57 94.5418 109.377 94.4725 109.262 94.4465C109.031 94.406 109.043 94.5092 109.089 94.595C109.088 94.5955 109.087 94.596 109.087 94.5965C109.063 94.6152 109.038 94.6352 109.011 94.6569C109.008 94.6552 109.004 94.6535 108.999 94.6518C108.925 94.6157 108.743 94.6041 108.669 94.7384C108.58 94.9049 108.571 95.0552 108.587 95.169C108.57 95.2168 108.562 95.2627 108.561 95.303C108.561 95.3032 108.561 95.3033 108.561 95.3035C108.579 95.5825 108.9 95.3829 108.953 95.2969C108.959 95.2906 108.963 95.2851 108.968 95.2807C108.968 95.2806 108.968 95.2805 108.968 95.2804C108.984 95.2684 108.99 95.2632 108.99 95.2679C108.99 95.2733 108.985 95.2918 108.981 95.319C108.935 95.3624 108.888 95.4221 108.852 95.4838C108.806 95.5626 108.78 95.6439 108.78 95.6869C108.78 95.6881 108.78 95.6893 108.78 95.6905C108.78 95.6934 108.78 95.6961 108.781 95.6986C108.805 95.8001 108.905 95.7276 108.937 95.6574C108.943 95.6463 108.949 95.6355 108.953 95.6262C108.958 95.6685 108.973 95.7147 109.006 95.7579C109.007 95.7344 109.007 95.71 109.008 95.685C109.007 95.4227 108.988 95.3861 108.999 95.3834C108.999 95.3834 108.999 95.3833 109 95.3833C109.002 95.3827 109.005 95.3832 109.007 95.384C109.012 95.3864 109.012 95.3916 108.999 95.3756C108.992 95.3645 108.918 95.2645 108.85 95.1884C108.83 95.1659 108.811 95.1452 108.796 95.1288C108.742 95.073 108.793 95.1415 108.867 95.2095C108.96 95.3006 109.102 95.3796 109.021 95.2536C108.753 94.9212 109.023 94.8246 109.219 94.5227C109.222 94.5181 109.226 94.5134 109.229 94.5087C109.239 94.4924 109.25 94.4761 109.259 94.4599C109.314 94.3694 109.355 94.2802 109.365 94.2001C109.396 93.921 109.144 93.7611 108.983 93.8127C108.848 93.8394 108.889 93.7227 108.945 93.5788C108.966 93.5243 108.955 93.5159 108.95 93.5114C108.944 93.5063 108.946 93.5051 108.966 93.4438C109.015 93.2892 109.006 93.2057 108.991 93.1417C108.991 93.1414 108.991 93.1411 108.991 93.1407C108.991 93.1405 108.991 93.1403 108.991 93.14C108.985 93.1215 108.978 93.1045 108.968 93.0869C108.938 93.0317 108.877 92.9837 108.758 92.9541C108.619 92.917 108.379 92.9215 108.13 92.9703C107.873 93.1414 107.592 93.4408 107.448 93.744C107.3 94.0466 107.279 94.3055 107.299 94.4559C107.321 94.6176 107.607 94.6892 108.06 94.6547C108.515 94.6238 109.101 94.5103 109.713 94.441C110.325 94.3727 110.925 94.3581 111.389 94.5036C111.85 94.6435 112.133 94.951 112.114 95.3369C112.134 96.0714 111.501 97.3533 110.531 97.844C109.703 98.3029 109.003 98.3462 108.439 98.3176C108.437 98.3176 108.436 98.3175 108.435 98.3174C108.234 98.3042 108.039 98.2749 107.849 98.2302C107.345 98.1088 106.874 97.9118 106.382 97.5642C106.332 97.5279 106.281 97.4898 106.23 97.4495C105.722 97.2771 105.086 96.8412 104.728 96.1793C104.534 95.8295 104.458 95.4389 104.458 95.0974C104.458 95.0861 104.459 95.075 104.459 95.0639C104.461 94.9079 104.479 94.7674 104.502 94.6398C104.553 94.3597 104.628 94.1428 104.668 93.9348C104.689 93.8228 104.719 93.6744 104.766 93.5118C104.95 92.8224 105.451 92.0759 106.03 91.8063C106.287 91.6792 106.61 91.6166 106.907 91.5941C107.252 91.5662 107.564 91.5885 107.755 91.5488C107.764 91.5469 107.773 91.545 107.781 91.5428C107.815 91.534 107.845 91.5227 107.869 91.5078C108.145 91.3371 108.523 91.3538 108.824 91.4104C109.115 91.4622 109.345 91.5402 109.496 91.4595C109.679 91.3639 109.822 91.4394 110.007 91.5632C110.137 91.6502 110.287 91.7597 110.497 91.8759C110.741 92.012 110.871 92.1863 110.97 92.3339C111.012 92.3971 111.049 92.4564 111.087 92.5097C111.09 92.5142 111.093 92.5186 111.097 92.523C111.182 92.6394 111.277 92.7212 111.467 92.7746C111.781 92.8617 112.069 93.0703 112.162 93.3139C112.205 93.4238 112.274 93.5355 112.339 93.6565C112.424 93.8157 112.502 93.9935 112.499 94.1721C112.498 94.3194 112.411 94.4569 112.33 94.5685C112.305 94.6035 112.28 94.6362 112.259 94.6668C112.278 94.7634 112.293 94.8598 112.305 94.9559C112.325 94.9698 112.347 94.9845 112.369 95.0003C112.476 95.0741 112.603 95.1737 112.67 95.3049C112.671 95.3067 112.672 95.3085 112.672 95.3103C112.676 95.3164 112.678 95.3225 112.681 95.3287C112.78 95.5522 112.697 95.742 112.599 95.9173C112.523 96.0552 112.439 96.1864 112.414 96.3534C112.397 96.4674 112.403 96.6057 112.401 96.7459C112.399 96.9533 112.376 97.1674 112.272 97.2736C112.234 97.3134 112.149 97.3195 112.064 97.3231C112.064 97.323 112.063 97.323 112.063 97.3229C112.057 97.3232 112.052 97.3235 112.046 97.3237C111.931 97.6412 111.776 97.9696 111.528 98.3054C111.528 98.307 111.527 98.3086 111.526 98.3101C111.526 98.3109 111.526 98.3117 111.526 98.3125C111.514 98.3482 111.501 98.384 111.488 98.4194C111.419 98.6043 111.329 98.7835 111.298 98.954C111.266 99.1389 111.008 99.4034 110.682 99.6265C110.47 99.7742 110.235 99.9039 110.043 100.023C109.93 100.093 109.797 100.042 109.67 99.9837C109.552 99.9293 109.438 99.8684 109.325 99.8945C109.269 99.9076 109.209 99.9414 109.143 99.9761C109.086 100.007 109.024 100.038 108.959 100.056C108.899 100.072 108.765 100.029 108.606 99.9631C108.544 99.9373 108.479 99.9082 108.411 99.8782C108.407 99.8765 108.403 99.8747 108.399 99.873C108.372 99.8584 108.344 99.8438 108.315 99.8296C108.068 99.8373 107.808 99.8269 107.519 99.7802C107.443 99.8241 107.366 99.8865 107.289 99.9734C107.234 100.036 107.177 100.113 107.117 100.191C107.035 100.297 106.947 100.406 106.847 100.479C106.769 100.537 106.695 100.542 106.668 100.492C106.655 100.469 106.652 100.435 106.649 100.404C106.646 100.369 106.644 100.338 106.627 100.331C106.615 100.326 106.594 100.34 106.567 100.358C106.525 100.385 106.469 100.419 106.417 100.396C106.223 100.308 105.998 100.164 105.764 99.9784C105.503 99.7741 105.232 99.5123 104.998 99.274C104.736 99.0154 104.44 98.4668 104.308 97.8666C104.268 97.6917 104.24 97.5168 104.223 97.3481C104.224 97.3424 104.224 97.3368 104.225 97.3311C104.235 97.2553 104.242 97.184 104.242 97.1203C104.241 97.0041 104.177 96.8966 104.117 96.7893C104.044 96.6611 103.978 96.533 104.038 96.4149C104.05 96.391 104.135 96.3549 104.242 96.3117C104.318 96.2811 104.405 96.2468 104.485 96.2105C104.475 96.0787 104.473 95.9474 104.477 95.8176C104.465 95.8132 104.453 95.8087 104.441 95.8041C104.44 95.804 104.44 95.804 104.44 95.8039C104.158 95.7042 103.775 95.5349 104.013 95.3287C104.074 95.2773 104.183 95.25 104.281 95.2267C104.378 95.2037 104.464 95.1844 104.485 95.1491C104.508 95.109 104.454 95.0555 104.396 94.9956C104.315 94.9119 104.226 94.8137 104.328 94.7404C104.335 94.7354 104.343 94.7301 104.351 94.7245C104.424 94.6721 104.533 94.5956 104.74 94.5421C104.832 94.2997 104.943 94.0707 105.068 93.8554C105.275 93.4963 105.52 93.1755 105.776 92.8848C105.902 92.743 106.216 92.6963 106.65 92.7767C107.086 92.8562 107.602 93.0534 108.11 93.308C108.619 93.5626 109.087 93.8526 109.443 94.0998C109.798 94.348 110.009 94.5306 110.035 94.6313C110.076 94.796 110.13 94.9497 110.187 95.0857C110.197 95.0948 110.206 95.1037 110.215 95.1123C110.28 95.1765 110.425 95.2542 110.573 95.3231C110.607 95.339 110.641 95.3545 110.675 95.3694Z" fill="#2F5B3F"/>
<path d="M254.465 97.7769C254.377 98.0099 254.218 97.917 254.119 97.8702C254.118 97.8694 254.116 97.8687 254.114 97.8679C254.091 97.8567 254.07 97.8548 254.045 97.853C253.985 97.8491 253.908 97.8421 253.716 97.7152C253.672 97.7257 253.628 97.7348 253.583 97.7422C253.582 97.7424 253.581 97.7426 253.58 97.7428C253.589 97.7415 253.598 97.7401 253.607 97.7386C253.927 97.6856 254.126 97.5393 254.154 97.4929C254.187 97.4413 254.106 97.4649 253.962 97.5598C253.962 97.5599 253.962 97.5601 253.962 97.5602C253.896 97.5512 253.913 97.4048 253.869 97.2337C253.871 97.2287 253.874 97.2236 253.876 97.2185C253.93 97.1154 253.956 96.9889 253.865 96.9856C253.863 96.9855 253.862 96.9853 253.86 96.9852C253.859 96.9851 253.858 96.9851 253.858 96.985C253.744 96.9765 253.656 97.0569 253.584 97.1194C253.496 97.3316 253.556 97.7189 253.576 97.8671C253.576 97.8677 253.576 97.8682 253.576 97.8688C253.533 97.8667 253.482 97.8607 253.455 97.8684C253.422 97.8764 253.433 97.9001 253.494 97.9092C253.549 97.9178 253.641 97.9159 253.752 97.8974C253.816 97.8418 253.879 97.7735 253.939 97.7084C254.024 97.617 254.103 97.5322 254.178 97.497C254.215 97.48 254.254 97.4683 254.296 97.4607C254.292 97.4612 254.288 97.4618 254.285 97.4623C254.064 97.4991 253.979 97.6433 253.99 97.7012C253.99 97.7143 253.993 97.7253 253.997 97.7339C253.965 97.717 253.958 97.6759 253.953 97.6212C253.971 97.6317 253.99 97.6424 254.009 97.653C254.044 97.6725 254.076 97.6873 254.103 97.6982C254.107 97.7016 254.111 97.7049 254.115 97.7081C254.234 97.8063 254.211 97.8302 254.185 97.9039C254.172 97.9385 254.168 97.9766 254.187 97.9681C254.199 97.9626 254.305 97.9365 254.391 97.9102C254.416 97.9024 254.439 97.8946 254.458 97.8868C254.488 97.8743 254.487 97.8655 254.469 97.8591L254.512 98.0347C254.509 98.0332 254.506 98.0318 254.502 98.0304C254.476 98.0202 254.435 98.0142 254.39 98.0081C254.266 97.9909 254.119 97.9764 254.205 97.8573C254.473 97.4691 254.174 97.4486 253.959 97.4578C253.895 97.4597 253.838 97.4618 253.802 97.4544C253.685 97.4302 253.725 97.3031 253.803 97.175C253.864 97.0732 253.714 97.0159 253.56 97.0183C253.502 97.0188 253.479 96.9864 253.452 96.9503C253.424 96.9133 253.392 96.8717 253.318 96.8682C253.132 96.8624 253.063 96.8972 253.013 96.9258C253 96.9346 252.988 96.9437 252.977 96.9543C252.963 96.9689 252.951 96.9845 252.944 97.0024L253.2 97.1739C253.2 97.1746 253.2 97.1752 253.2 97.1759C253.198 97.2016 253.217 97.2368 253.237 97.2704C253.288 97.346 253.299 97.3989 253.266 97.4605C253.234 97.394 253.022 97.2925 252.808 97.2006C252.696 97.1523 252.599 96.9038 252.541 96.4948C252.484 96.0856 252.471 95.5528 252.513 95.0044C252.557 94.4561 252.652 93.9311 252.787 93.5373C252.921 93.1436 253.085 92.9163 253.243 92.8943C253.565 92.8534 253.888 92.8082 254.374 92.8606C254.671 92.8895 255.131 93.0162 255.483 93.1994C255.485 93.2008 255.488 93.2022 255.491 93.2036C255.543 93.2351 255.695 93.3338 255.742 93.372C256.022 93.5621 256.242 93.7655 256.424 93.9715C256.69 94.2747 256.885 94.5783 257.044 94.88C257.06 94.9109 257.076 94.942 257.091 94.9732C257.347 95.1481 257.579 95.3412 257.699 95.497C257.799 95.626 257.782 95.7601 257.766 95.8722C257.755 95.9493 257.744 96.017 257.771 96.0686C257.786 96.0965 257.809 96.1332 257.837 96.1774C257.936 96.3342 258.088 96.5928 258.105 96.8837C258.105 96.8874 258.105 96.891 258.105 96.8947C258.124 96.9557 258.17 97.1387 258.181 97.2017C258.181 97.2613 258.178 97.3221 258.171 97.3837C258.145 97.6145 258.055 97.9101 257.929 98.1952C257.754 98.6085 257.497 98.9563 257.462 99.1527C257.418 99.4132 257.259 99.6553 257.092 99.8255C257.086 99.8316 257.08 99.8376 257.074 99.8435C257.027 99.8864 256.979 99.9269 256.93 99.9657C256.744 100.116 256.562 100.236 256.528 100.389C256.485 100.572 256.346 100.639 256.127 100.718C255.973 100.772 255.782 100.835 255.504 100.931C255.271 101.01 255.056 101.021 254.877 101.005C254.868 101.004 254.859 101.003 254.85 101.002C254.823 100.99 254.796 100.978 254.77 100.966C254.624 100.9 254.516 100.849 254.369 100.987C254.205 101.14 254.002 101.24 253.829 101.202C253.751 101.184 253.661 101.19 253.562 101.192C253.433 101.195 253.288 101.193 253.158 101.129C253.051 101.077 252.973 100.961 252.91 100.857C252.89 100.825 252.871 100.794 252.853 100.766C252.767 100.749 252.678 100.728 252.587 100.704C252.568 100.715 252.547 100.727 252.526 100.74C252.416 100.803 252.27 100.874 252.109 100.865C251.854 100.85 251.679 100.682 251.532 100.497C251.416 100.351 251.314 100.195 251.164 100.056C251.152 100.045 251.139 100.034 251.126 100.022C251.123 100.02 251.12 100.017 251.118 100.015C251.037 99.949 250.943 99.8883 250.854 99.8269C250.698 99.7203 250.555 99.6097 250.528 99.4915C250.518 99.4473 250.553 99.3829 250.59 99.3206C250.591 99.3202 250.591 99.3199 250.591 99.3196C250.594 99.3153 250.596 99.3111 250.598 99.3069C250.422 99.0985 250.257 98.8846 250.101 98.6483C250.077 98.6321 250.053 98.6152 250.029 98.5982C249.913 98.515 249.803 98.425 249.676 98.3785C249.538 98.3281 249.404 98.1263 249.28 97.8542C249.254 97.7963 249.228 97.7346 249.202 97.6715C249.201 97.6687 249.2 97.6659 249.199 97.663C249.148 97.5361 249.1 97.4035 249.052 97.282C249.009 97.1743 249.073 97.0632 249.144 96.9561C249.209 96.8556 249.28 96.7571 249.277 96.6421C249.276 96.584 249.257 96.5187 249.239 96.4471C249.224 96.384 249.209 96.3161 249.207 96.2462C249.205 96.1819 249.271 96.05 249.368 95.8967C249.427 95.8018 249.498 95.6992 249.569 95.5967C249.658 95.2834 249.781 94.9992 249.911 94.7539C249.898 94.6745 249.867 94.5916 249.815 94.5037C249.778 94.4407 249.728 94.3725 249.678 94.3022C249.629 94.2342 249.58 94.164 249.541 94.0941C249.54 94.0927 249.539 94.0913 249.538 94.0899C249.521 94.0659 249.505 94.0421 249.492 94.0187C249.453 93.9517 249.453 93.9067 249.492 93.9075C249.51 93.9078 249.536 93.918 249.56 93.9271C249.587 93.9376 249.611 93.947 249.617 93.9393C249.621 93.9336 249.611 93.9158 249.599 93.894C249.579 93.8592 249.554 93.8139 249.573 93.7905C249.642 93.7034 249.745 93.6149 249.856 93.5256C249.979 93.4263 250.111 93.3262 250.206 93.225C250.313 93.1116 250.543 93.0159 250.795 92.9292C250.971 92.8684 251.157 92.8125 251.315 92.751C251.468 92.6906 251.611 92.5797 251.767 92.4768C251.953 92.3535 252.16 92.2432 252.364 92.2578C252.405 92.2607 252.47 92.3237 252.547 92.4048C252.602 92.4623 252.662 92.5291 252.726 92.5903C252.748 92.5866 252.77 92.5831 252.792 92.5797C252.794 92.5794 252.796 92.5791 252.798 92.5788C252.886 92.5662 252.973 92.557 253.061 92.5509C253.063 92.5403 253.066 92.5294 253.068 92.5183C253.068 92.5181 253.068 92.5178 253.068 92.5176C253.119 92.2677 253.201 91.9248 253.386 92.1055C253.433 92.1515 253.467 92.2415 253.497 92.3225C253.527 92.4021 253.553 92.4734 253.584 92.4864C253.618 92.5012 253.655 92.4482 253.694 92.3908C253.75 92.3102 253.815 92.2205 253.889 92.2968C253.894 92.3021 253.899 92.3078 253.905 92.3135C253.958 92.3679 254.036 92.4488 254.112 92.6157C254.328 92.6549 254.542 92.7086 254.753 92.7742C255.106 92.8837 255.45 93.0261 255.784 93.1902C255.947 93.2706 256.07 93.5297 256.102 93.9142C256.136 94.2995 256.074 94.7736 255.954 95.2489C255.835 95.7245 255.673 96.1721 255.526 96.5173C255.378 96.8618 255.256 97.0723 255.16 97.1116C255.003 97.1747 254.848 97.2458 254.698 97.3169C254.689 97.3266 254.681 97.336 254.673 97.3448C254.612 97.4102 254.555 97.5461 254.501 97.6831C254.489 97.7146 254.477 97.7462 254.465 97.7769Z" fill="#2F5B3F"/>
</svg>
