<?xml version="1.0" encoding="UTF-8" standalone="no"?>
<!DOCTYPE svg PUBLIC "-//W3C//DTD SVG 1.1//EN" "http://www.w3.org/Graphics/SVG/1.1/DTD/svg11.dtd">
<svg xmlns="http://www.w3.org/2000/svg" version="1.1" viewBox="0.00 0.00 512.00 145.00">
<path fill="#f8f5ea" d="
  M 383.53 39.84
  Q 383.95 39.51 384.21 39.45
  Q 392.69 37.40 397.47 35.00
  A 0.63 0.63 0.0 0 1 398.38 35.57
  Q 398.33 41.83 398.34 82.69
  Q 398.34 83.23 398.61 83.44
  Q 399.18 83.89 399.73 83.37
  Q 408.94 74.73 414.29 69.82
  Q 416.06 68.20 416.37 65.81
  A 1.77 1.77 0.0 0 0 414.61 63.81
  L 413.12 63.81
  A 1.00 1.00 0.0 0 1 412.12 62.81
  L 412.12 62.29
  A 0.63 0.63 0.0 0 1 412.75 61.66
  L 430.02 61.66
  A 0.96 0.96 0.0 0 1 430.25 63.55
  Q 425.18 64.84 421.57 67.84
  Q 413.59 74.48 408.53 79.06
  A 1.08 1.08 0.0 0 0 408.41 80.54
  Q 415.82 89.71 426.44 103.09
  Q 429.44 106.88 433.24 107.51
  A 1.06 1.06 0.0 0 1 434.14 108.56
  L 434.14 108.90
  A 0.52 0.51 -1.2 0 1 433.64 109.41
  Q 427.66 109.56 421.39 109.34
  Q 418.87 109.26 416.66 106.38
  Q 406.94 93.72 400.33 85.99
  Q 399.83 85.39 399.50 85.25
  A 0.81 0.81 0.0 0 0 398.37 85.99
  Q 398.35 93.52 398.32 98.19
  C 398.29 102.81 397.72 107.35 403.44 107.48
  A 1.13 1.12 0.8 0 1 404.54 108.60
  L 404.54 108.92
  A 0.49 0.49 0.0 0 1 404.05 109.41
  L 383.32 109.41
  A 0.51 0.50 0.0 0 1 382.81 108.91
  L 382.81 108.21
  A 0.74 0.74 0.0 0 1 383.54 107.47
  Q 388.94 107.42 388.94 101.25
  Q 388.94 101.05 388.99 51.19
  C 388.99 46.32 389.54 41.98 383.97 41.41
  A 0.88 0.87 -60.9 0 1 383.53 39.84
  Z"
/>
<path fill="#f8f5ea" d="
  M 96.26 91.12
  A 0.93 0.92 -20.2 0 1 97.91 91.88
  Q 97.28 94.36 94.13 103.63
  C 93.41 105.74 92.09 105.92 89.77 106.83
  Q 81.74 109.97 74.26 110.36
  C 69.33 110.62 62.81 110.83 58.31 110.01
  C 44.09 107.45 32.22 98.73 28.20 84.56
  Q 24.96 73.14 29.51 61.65
  C 34.71 48.53 47.41 39.95 61.32 38.45
  C 72.34 37.26 82.74 38.79 93.04 43.75
  A 1.13 1.13 0.0 0 1 93.67 44.73
  Q 93.83 51.39 94.33 58.00
  Q 94.43 59.21 94.33 59.38
  A 1.11 1.11 0.0 0 1 92.32 59.24
  Q 88.05 47.82 78.96 43.68
  C 65.31 37.45 49.43 42.69 42.75 56.71
  C 37.33 68.07 37.47 82.66 44.50 94.23
  C 50.14 103.50 59.94 108.19 70.66 107.41
  C 81.29 106.63 90.25 99.55 96.26 91.12
  Z"
/>
<path fill="#f8f5ea" d="
  M 144.55 41.12
  A 0.83 0.83 0.0 0 1 144.86 39.52
  L 165.56 39.52
  A 0.80 0.80 0.0 0 1 165.78 41.09
  Q 157.38 43.41 150.96 49.45
  Q 145.35 54.72 130.96 68.04
  A 0.80 0.79 48.4 0 0 130.90 69.15
  Q 153.07 94.64 160.44 102.56
  Q 164.23 106.65 169.79 107.75
  A 0.79 0.79 0.0 0 1 169.68 109.31
  Q 161.89 109.70 153.80 109.28
  Q 151.64 109.17 149.77 106.96
  Q 133.47 87.73 122.02 75.23
  A 1.09 1.09 0.0 0 0 120.12 75.96
  Q 120.09 90.06 120.05 100.31
  Q 120.02 107.64 126.47 107.44
  A 1.09 1.09 0.0 0 1 127.59 108.53
  L 127.59 108.83
  A 0.60 0.60 0.0 0 1 126.99 109.43
  L 102.56 109.43
  A 0.61 0.60 11.0 0 1 101.99 108.60
  L 102.17 108.16
  A 0.92 0.92 0.0 0 1 102.86 107.60
  Q 106.81 106.87 107.40 106.36
  Q 109.68 104.40 109.68 101.37
  Q 109.82 52.31 109.60 47.76
  Q 109.33 42.05 103.27 41.66
  A 1.11 1.11 0.0 0 1 102.23 40.55
  L 102.23 40.20
  A 0.65 0.65 0.0 0 1 102.88 39.55
  L 126.69 39.49
  A 0.90 0.89 -87.4 0 1 127.58 40.47
  L 127.58 40.51
  A 1.11 1.11 0.0 0 1 126.52 41.52
  Q 120.17 41.77 120.12 48.61
  Q 120.04 59.43 120.14 72.92
  Q 120.14 73.37 120.58 73.38
  Q 120.88 73.38 121.27 73.02
  Q 136.55 58.79 146.75 48.50
  Q 148.41 46.83 148.95 44.88
  A 2.07 2.06 19.0 0 0 147.74 42.41
  L 144.55 41.12
  Z"
/>
<path fill="#f8f5ea" d="
  M 266.82 95.12
  A 0.16 0.16 0.0 0 0 267.12 95.13
  Q 275.98 72.89 283.93 52.45
  C 285.31 48.91 286.74 42.74 281.42 41.84
  Q 280.16 41.63 279.03 41.19
  A 0.81 0.81 0.0 0 1 279.29 39.63
  Q 285.65 39.32 298.00 39.52
  Q 298.39 39.52 298.40 39.53
  A 1.02 1.02 0.0 0 1 298.12 41.38
  C 292.83 42.76 291.01 45.92 288.83 51.08
  Q 277.69 77.40 266.04 107.29
  Q 265.83 107.84 264.86 109.72
  A 1.86 1.86 0.0 0 1 261.46 109.52
  L 244.57 64.18
  A 0.23 0.23 0.0 0 0 244.14 64.18
  L 225.75 109.64
  A 1.85 1.85 0.0 0 1 222.30 109.59
  Q 212.80 84.14 200.76 54.48
  C 199.35 50.99 197.67 43.97 193.83 42.38
  Q 192.81 41.96 190.48 41.37
  A 0.94 0.93 52.2 0 1 190.71 39.53
  Q 209.38 39.51 214.75 39.45
  Q 215.39 39.44 215.67 39.58
  A 0.99 0.99 0.0 0 1 215.46 41.42
  C 213.95 41.81 211.85 41.91 210.98 42.96
  Q 209.04 45.29 210.05 48.03
  Q 222.00 80.25 223.60 84.65
  Q 225.53 89.94 227.57 94.75
  A 0.30 0.30 0.0 0 0 228.12 94.75
  L 242.24 59.85
  A 2.73 2.73 0.0 0 0 242.29 57.97
  Q 239.50 49.79 237.75 46.03
  C 235.87 42.00 233.52 42.70 230.66 41.31
  A 0.95 0.95 0.0 0 1 231.07 39.51
  Q 249.85 39.55 254.75 39.47
  Q 255.65 39.45 255.97 39.63
  A 0.97 0.96 53.4 0 1 255.71 41.41
  L 252.47 42.14
  A 3.17 3.15 -2.2 0 0 250.04 44.75
  Q 249.59 47.85 250.87 51.38
  Q 259.66 75.61 266.82 95.12
  Z"
/>
<path fill="#f8f5ea" d="
  M 360.12 71.22
  A 0.28 0.28 0.0 0 0 360.64 71.35
  C 363.23 66.50 366.34 62.55 371.52 60.84
  C 378.63 58.50 384.22 66.87 378.13 71.68
  A 2.52 2.51 42.6 0 1 375.18 71.80
  C 373.11 70.42 370.56 67.97 367.27 68.44
  A 2.71 2.65 -64.2 0 0 366.33 68.78
  Q 361.87 71.53 360.28 76.69
  A 3.65 3.56 -37.1 0 0 360.12 77.75
  Q 360.09 94.10 360.14 101.26
  Q 360.19 107.46 365.47 107.36
  A 1.15 1.14 89.5 0 1 366.63 108.51
  L 366.63 108.84
  A 0.64 0.64 0.0 0 1 365.99 109.48
  L 345.48 109.42
  A 0.87 0.86 3.8 0 1 344.63 108.45
  L 344.64 108.43
  A 1.15 1.14 3.0 0 1 345.74 107.44
  Q 350.65 107.29 350.82 102.18
  Q 351.22 90.21 350.94 72.99
  Q 350.86 67.87 346.26 67.20
  A 1.04 1.04 0.0 0 1 346.05 65.20
  L 358.96 60.39
  A 0.86 0.86 0.0 0 1 360.12 61.20
  L 360.12 71.22
  Z"
/>
<path fill="#f8f5ea" d="
  M 340.8128 82.6936
  A 25.94 25.16 -6.7 0 1 317.9854 110.7082
  A 25.94 25.16 -6.7 0 1 289.2872 88.7464
  A 25.94 25.16 -6.7 0 1 312.1146 60.7318
  A 25.94 25.16 -6.7 0 1 340.8128 82.6936
  Z
  M 299.94 86.95
  C 300.73 96.28 305.18 108.81 316.87 107.82
  C 328.56 106.83 330.84 93.73 330.05 84.40
  C 329.26 75.06 324.81 62.53 313.12 63.52
  C 301.43 64.51 299.15 77.61 299.94 86.95
  Z"
/>
<path fill="#f8f5ea" d="
  M 467.51 75.09
  L 466.91 74.61
  A 1.05 1.01 -83.7 0 1 466.57 74.17
  C 464.01 68.07 461.12 63.53 453.80 63.46
  C 447.15 63.39 442.29 69.42 446.67 75.36
  Q 447.70 76.76 451.56 78.42
  Q 454.35 79.63 463.29 83.67
  C 475.31 89.11 473.79 104.21 462.29 108.86
  C 454.68 111.93 445.55 110.58 437.94 107.14
  A 1.22 1.22 0.0 0 1 437.22 106.04
  L 436.98 95.05
  A 1.08 1.00 59.6 0 1 437.08 94.60
  L 437.38 94.03
  A 0.86 0.85 -39.8 0 1 438.96 94.17
  Q 440.64 99.72 444.45 103.73
  C 449.10 108.63 459.57 110.19 462.72 102.76
  C 465.19 96.95 460.88 93.24 455.84 91.24
  Q 448.15 88.20 444.07 85.78
  C 436.28 81.16 434.92 71.82 441.37 65.39
  C 448.18 58.60 459.97 59.88 468.29 63.60
  A 0.84 0.84 0.0 0 1 468.79 64.37
  L 468.79 74.47
  A 0.79 0.79 0.0 0 1 467.51 75.09
  Z"
/>
</svg>
