<?xml version="1.0" encoding="UTF-8" standalone="no"?>
<!DOCTYPE svg PUBLIC "-//W3C//DTD SVG 1.1//EN" "http://www.w3.org/Graphics/SVG/1.1/DTD/svg11.dtd">
<svg xmlns="http://www.w3.org/2000/svg" version="1.1" viewBox="0.00 0.00 898.00 278.00">
<path fill="#132622" d="
  M 706.66 71.96
  A 0.89 0.89 0.0 0 1 707.69 72.84
  L 707.69 154.03
  A 1.29 1.28 -2.3 0 0 709.08 155.31
  Q 710.48 155.20 711.64 154.14
  Q 736.33 131.42 738.33 129.36
  C 739.63 128.03 741.02 125.87 740.93 123.66
  C 740.78 119.84 737.17 119.09 733.99 118.84
  A 1.30 1.30 0.0 0 1 732.79 117.43
  L 732.80 117.36
  A 1.41 1.40 -87.6 0 1 734.20 116.07
  L 765.46 116.05
  A 1.20 1.20 0.0 0 1 766.64 117.02
  Q 766.94 118.66 765.44 118.94
  Q 757.08 120.52 750.62 125.88
  Q 742.86 132.33 732.09 142.34
  Q 728.93 145.28 725.45 148.00
  A 0.74 0.74 0.0 0 0 725.40 149.12
  Q 727.14 150.73 728.66 152.59
  Q 741.96 168.88 753.54 183.21
  Q 756.09 186.36 760.82 191.69
  Q 765.31 196.75 772.08 197.74
  A 1.56 1.55 -86.0 0 1 773.41 199.28
  L 773.41 199.65
  A 1.04 1.03 89.1 0 1 772.41 200.69
  Q 764.86 200.95 751.49 200.80
  Q 746.81 200.75 744.12 197.39
  Q 729.37 178.90 713.45 159.78
  C 711.98 158.01 710.75 157.44 708.64 158.00
  A 1.28 1.28 0.0 0 0 707.69 159.22
  C 707.59 170.51 707.18 180.56 708.22 190.25
  C 708.92 196.72 712.70 196.65 717.70 197.86
  A 1.43 1.40 20.5 0 1 718.64 199.88
  Q 718.16 200.82 716.75 200.82
  Q 698.97 200.84 682.29 200.76
  A 1.44 1.43 -89.8 0 1 680.87 199.32
  L 680.87 198.97
  A 1.23 1.22 87.4 0 1 681.98 197.75
  C 693.37 196.69 692.05 188.35 692.04 180.01
  Q 691.98 103.74 691.86 89.28
  Q 691.84 85.77 688.62 83.29
  C 687.05 82.07 684.38 81.66 682.74 81.24
  A 1.34 1.34 0.0 0 1 681.75 79.69
  Q 681.98 78.50 683.38 78.14
  C 689.10 76.69 694.79 75.65 700.31 73.69
  Q 703.91 72.41 706.66 71.96
  Z"
/>
<path fill="#132622" d="
  M 164.34 110.57
  Q 163.94 109.39 162.10 105.38
  Q 148.30 75.38 114.49 79.08
  C 79.12 82.95 66.84 118.80 71.08 149.50
  C 72.38 158.94 75.84 168.92 81.57 176.78
  Q 99.24 201.04 130.70 197.21
  C 147.47 195.17 161.38 183.61 170.64 169.91
  Q 171.50 168.63 172.77 168.86
  A 1.56 1.53 -76.3 0 1 173.95 170.84
  Q 170.54 182.11 167.16 192.36
  A 2.05 2.04 86.9 0 1 166.08 193.57
  C 138.58 206.20 104.23 207.84 77.74 191.46
  C 45.71 171.66 40.26 128.23 63.39 98.98
  C 77.70 80.88 99.87 72.44 122.75 72.88
  Q 145.01 73.30 165.42 83.13
  A 1.48 1.47 -79.3 0 1 166.25 84.36
  L 167.91 110.16
  A 0.69 0.66 -43.6 0 1 167.90 110.36
  Q 167.65 111.62 164.97 111.12
  A 0.84 0.83 85.5 0 1 164.34 110.57
  Z"
/>
<path fill="#132622" d="
  M 216.73 136.08
  A 0.73 0.73 0.0 0 0 217.95 136.62
  Q 220.98 133.94 224.70 130.20
  Q 241.64 113.17 257.84 96.60
  C 261.41 92.96 266.68 87.75 266.22 82.63
  C 265.94 79.47 261.41 79.16 258.96 78.76
  A 1.61 1.61 0.0 0 1 258.35 75.81
  Q 258.64 75.63 259.50 75.63
  Q 270.57 75.62 293.98 75.62
  Q 294.86 75.62 295.32 75.74
  A 1.45 1.45 0.0 0 1 295.33 78.54
  C 291.57 79.56 288.19 80.34 285.33 81.79
  Q 277.56 85.74 269.75 93.25
  Q 252.79 109.56 234.51 127.79
  A 0.57 0.57 0.0 0 0 234.48 128.57
  Q 259.39 158.04 273.19 173.85
  Q 282.46 184.48 288.74 190.76
  Q 294.42 196.43 302.25 197.65
  A 1.63 1.62 5.2 0 1 303.63 199.30
  L 303.63 199.36
  A 1.47 1.47 0.0 0 1 302.17 200.79
  Q 287.72 200.88 278.74 200.79
  Q 272.30 200.72 267.68 195.28
  Q 244.39 167.83 223.37 143.40
  Q 220.77 140.38 220.19 139.88
  A 1.33 1.30 -25.5 0 0 219.25 139.56
  Q 216.80 139.71 216.74 142.27
  Q 216.61 147.93 216.75 181.75
  C 216.77 188.11 216.84 195.63 224.64 197.07
  Q 227.31 197.56 228.48 197.79
  A 1.48 1.47 -43.5 0 1 228.40 200.70
  Q 227.47 200.82 226.75 200.83
  Q 220.45 200.92 186.81 200.79
  A 1.46 1.45 -90.0 0 1 185.36 199.33
  L 185.36 198.98
  A 1.19 1.18 87.0 0 1 186.42 197.80
  C 197.38 196.62 198.60 191.54 198.60 181.62
  Q 198.60 135.05 198.54 90.03
  Q 198.54 84.21 194.31 80.80
  Q 192.88 79.65 186.95 78.91
  A 1.68 1.68 0.0 0 1 185.48 77.23
  L 185.48 77.17
  A 1.52 1.52 0.0 0 1 187.00 75.65
  L 228.07 75.61
  A 1.51 1.51 0.0 0 1 229.58 77.12
  L 229.58 77.57
  A 1.34 1.34 0.0 0 1 228.45 78.89
  Q 223.72 79.65 221.29 80.77
  C 217.72 82.40 216.86 87.44 216.82 91.05
  Q 216.58 116.27 216.73 136.08
  Z"
/>
<path fill="#132622" d="
  M 472.84 174.80
  A 0.62 0.62 0.0 0 0 473.91 174.63
  Q 484.55 145.74 498.47 105.49
  Q 500.91 98.43 502.37 93.37
  Q 503.25 90.30 502.77 87.01
  C 501.91 81.12 497.45 79.38 492.24 78.83
  A 1.57 1.56 -84.9 0 1 490.85 77.16
  L 490.85 77.10
  A 1.61 1.61 0.0 0 1 492.46 75.61
  Q 508.01 75.63 523.45 75.59
  Q 524.26 75.59 524.56 76.16
  Q 525.20 77.38 524.25 78.52
  A 1.47 1.44 14.9 0 1 523.31 79.05
  C 514.10 80.36 511.33 89.45 508.58 97.05
  Q 492.41 141.73 471.01 199.74
  Q 470.04 202.36 468.78 202.59
  Q 466.86 202.92 465.32 202.11
  A 1.42 1.41 -86.6 0 1 464.65 201.35
  L 433.63 119.18
  A 0.34 0.34 0.0 0 0 433.00 119.18
  L 401.15 201.21
  A 2.07 2.04 -85.5 0 1 399.70 202.46
  Q 397.33 203.00 395.90 202.17
  A 1.54 1.50 5.1 0 1 395.25 201.41
  C 380.85 163.41 368.20 131.52 353.38 92.65
  C 350.57 85.30 348.16 80.16 339.97 78.92
  A 1.64 1.63 -84.1 0 1 338.58 77.20
  L 338.59 77.14
  A 1.61 1.60 1.3 0 1 340.19 75.62
  L 381.98 75.61
  A 1.53 1.52 89.8 0 1 383.50 77.13
  L 383.50 77.24
  A 1.72 1.72 0.0 0 1 381.88 79.02
  Q 372.08 79.60 372.41 86.84
  Q 372.59 90.98 374.11 95.15
  Q 392.46 145.56 403.42 174.08
  Q 403.66 174.70 403.95 175.11
  A 0.62 0.61 -52.4 0 0 405.02 174.97
  L 429.75 111.27
  A 3.19 3.18 -44.9 0 0 429.76 108.97
  Q 423.76 93.03 421.58 87.45
  Q 418.68 80.00 409.59 79.00
  A 1.73 1.73 0.0 0 1 408.05 77.26
  L 408.06 77.19
  A 1.59 1.59 0.0 0 1 409.65 75.60
  L 452.31 75.60
  A 1.31 1.30 -90.0 0 1 453.61 76.91
  L 453.61 77.55
  A 1.41 1.40 87.3 0 1 452.34 78.95
  C 440.94 80.02 441.02 86.78 444.15 95.59
  Q 450.46 113.36 472.47 173.84
  Q 472.80 174.75 472.84 174.80
  Z"
/>
<path fill="#132622" d="
  M 559.75 203.07
  C 538.54 202.90 520.34 190.57 515.69 169.58
  C 509.18 140.15 529.88 113.78 560.41 114.03
  C 581.62 114.21 599.82 126.54 604.47 147.53
  C 610.98 176.96 590.28 203.33 559.75 203.07
  Z
  M 532.55 161.24
  C 533.92 175.15 540.69 194.62 556.50 197.67
  C 570.44 200.36 580.45 192.87 584.84 180.11
  C 587.53 172.29 588.08 163.73 587.30 155.85
  C 586.52 147.97 584.31 139.68 580.15 132.54
  C 573.36 120.87 562.08 115.48 548.93 120.84
  C 534.03 126.92 531.18 147.33 532.55 161.24
  Z"
/>
<path fill="#132622" d="
  M 833.89 120.22
  Q 833.76 121.92 834.05 139.36
  Q 834.06 139.67 833.67 140.01
  A 1.40 1.36 58.0 0 1 831.49 139.47
  C 828.56 132.49 825.44 125.01 818.15 121.39
  C 809.19 116.93 796.29 117.83 792.77 128.62
  C 789.04 140.05 799.24 145.13 807.91 148.57
  C 822.64 154.40 840.70 160.04 839.11 180.16
  C 838.18 191.83 828.71 199.18 817.80 201.79
  C 805.45 204.75 791.45 202.23 779.67 196.48
  A 1.03 1.03 0.0 0 1 779.09 195.62
  Q 778.39 185.81 778.19 175.26
  Q 778.18 174.38 778.70 174.09
  A 1.91 1.89 63.9 0 1 781.37 175.02
  C 786.44 186.94 793.22 197.98 807.95 198.07
  Q 814.71 198.11 819.53 194.89
  C 826.18 190.43 827.12 180.35 821.70 174.53
  Q 819.37 172.03 813.71 169.27
  C 807.70 166.34 799.04 163.11 791.71 158.96
  Q 786.25 155.86 783.54 152.23
  C 777.63 144.29 777.25 133.00 783.42 125.06
  C 795.25 109.82 817.93 112.91 833.41 119.42
  A 0.80 0.79 14.3 0 1 833.89 120.22
  Z"
/>
<path fill="#132622" d="
  M 640.99 133.07
  A 0.50 0.50 0.0 0 0 641.93 133.30
  Q 647.26 123.03 655.86 117.55
  Q 662.28 113.47 668.95 114.57
  C 674.32 115.45 678.60 120.36 677.65 126.02
  C 677.05 129.64 674.57 133.94 670.50 134.52
  C 667.83 134.91 665.47 132.01 662.86 130.20
  C 654.84 124.63 646.70 130.53 642.82 137.86
  Q 640.99 141.33 640.97 143.74
  Q 640.94 146.96 640.99 183.25
  Q 640.99 187.31 641.32 190.15
  C 642.00 196.10 645.97 197.16 651.00 197.83
  A 1.48 1.48 0.0 0 1 652.28 199.39
  L 652.28 199.46
  A 1.46 1.46 0.0 0 1 650.82 200.82
  Q 621.33 200.88 616.09 200.77
  Q 615.41 200.75 615.14 200.59
  A 1.53 1.52 57.0 0 1 615.72 197.78
  C 623.58 196.71 625.60 193.10 625.61 185.51
  Q 625.64 141.36 625.51 136.00
  Q 625.27 126.20 615.48 124.80
  Q 614.84 124.71 614.60 124.25
  A 1.50 1.48 -21.7 0 1 615.53 122.12
  Q 627.36 118.87 639.06 114.40
  A 1.42 1.42 0.0 0 1 640.99 115.73
  L 640.99 133.07
  Z"
/>
</svg>
