<?xml version="1.0" encoding="UTF-8" standalone="no"?>
<!DOCTYPE svg PUBLIC "-//W3C//DTD SVG 1.1//EN" "http://www.w3.org/Graphics/SVG/1.1/DTD/svg11.dtd">
<svg xmlns="http://www.w3.org/2000/svg" version="1.1" viewBox="0.00 0.00 386.00 493.00">
<path fill="#0f2219" d="
  M 277.91 330.83
  C 279.44 331.05 280.46 329.92 281.69 329.71
  Q 286.23 328.95 287.21 328.49
  A 1.33 1.30 -49.6 0 1 288.07 328.41
  Q 290.01 328.89 298.23 328.28
  C 301.63 328.03 300.47 326.02 301.84 324.42
  C 306.98 318.39 314.63 315.76 322.07 314.64
  Q 324.62 314.26 326.67 315.09
  A 2.22 2.08 22.9 0 1 327.92 317.91
  Q 327.07 319.84 324.78 320.77
  Q 320.95 322.33 318.55 324.12
  A 0.35 0.34 55.3 0 0 318.47 324.58
  L 318.64 324.86
  A 0.08 0.06 57.4 0 0 318.73 324.89
  Q 324.80 321.87 331.49 320.79
  Q 335.71 320.10 339.42 321.52
  A 2.06 2.06 0.0 0 1 340.70 322.96
  L 340.87 323.61
  A 0.54 0.53 -86.1 0 1 340.15 324.24
  Q 334.53 321.91 329.14 323.64
  Q 319.97 326.58 319.57 326.73
  A 0.37 0.37 0.0 0 0 319.71 327.45
  L 334.81 326.68
  A 1.16 1.16 0.0 0 1 335.87 327.24
  L 336.13 327.66
  A 0.53 0.53 0.0 0 1 335.70 328.45
  Q 324.62 329.17 313.79 329.34
  A 0.64 0.62 83.8 0 0 313.20 330.10
  Q 313.27 330.39 313.50 330.50
  C 319.81 333.30 325.17 334.39 332.19 332.77
  Q 336.72 331.71 340.28 330.06
  Q 341.04 329.71 341.61 330.09
  A 1.31 1.23 -46.9 0 1 341.61 332.16
  C 335.54 336.91 316.79 338.00 311.83 330.93
  A 2.99 2.97 71.7 0 0 309.31 329.65
  Q 304.57 329.76 300.28 330.08
  Q 299.20 330.17 298.76 330.52
  A 0.35 0.35 0.0 0 0 298.81 331.10
  Q 304.94 334.60 312.86 335.40
  Q 313.19 335.43 313.46 335.69
  A 1.26 1.26 0.0 0 1 312.80 337.83
  C 309.56 338.41 303.18 335.82 300.20 334.56
  C 293.23 331.58 288.95 330.31 282.41 332.02
  C 277.91 333.19 273.99 333.97 273.09 338.92
  C 272.66 341.31 271.58 344.92 269.92 351.60
  C 267.74 360.38 264.54 369.85 262.76 377.26
  C 261.29 383.39 258.99 389.40 257.27 394.44
  A 0.59 0.59 0.0 0 0 257.81 395.22
  Q 287.78 396.57 313.83 396.48
  C 316.48 396.48 319.61 396.95 322.50 396.93
  Q 332.34 396.86 341.74 396.97
  A 0.62 0.62 0.0 0 1 342.33 397.75
  L 342.32 397.80
  A 0.94 0.94 0.0 0 1 341.34 398.50
  C 329.03 397.53 316.86 398.09 301.00 397.96
  Q 289.27 397.87 247.35 397.60
  Q 245.93 397.59 229.99 397.22
  Q 193.19 396.39 167.42 396.00
  Q 153.62 395.80 145.10 395.96
  Q 127.75 396.28 122.75 396.05
  C 116.32 395.75 110.38 396.38 103.60 396.28
  Q 101.68 396.25 95.92 396.53
  Q 86.37 396.98 77.21 396.98
  A 0.51 0.51 0.0 0 1 76.70 396.40
  L 76.74 396.12
  A 0.43 0.42 -86.1 0 1 77.16 395.75
  C 83.53 395.81 89.48 394.78 95.90 394.76
  Q 130.24 394.67 131.08 394.73
  Q 135.05 395.05 149.40 394.11
  Q 155.34 393.72 167.75 393.87
  Q 209.95 394.39 248.93 395.06
  A 0.38 0.37 -13.5 0 0 249.27 394.51
  L 234.44 365.99
  A 1.97 1.93 -3.5 0 0 233.37 365.06
  Q 232.10 364.59 230.52 364.72
  A 1.36 1.29 -62.5 0 0 229.94 364.92
  L 225.72 367.74
  A 0.83 0.78 1.9 0 0 225.56 367.88
  Q 220.58 373.37 212.25 374.80
  Q 209.54 375.26 208.08 372.70
  A 1.43 1.43 0.0 0 1 208.47 370.84
  L 215.14 365.87
  A 0.10 0.10 0.0 0 1 215.27 365.88
  L 215.63 366.28
  A 0.47 0.46 48.0 0 1 215.60 366.94
  L 211.46 370.70
  A 0.59 0.59 0.0 0 0 211.55 371.64
  Q 212.12 371.99 212.81 371.80
  C 216.03 370.90 220.36 369.24 223.26 366.61
  Q 224.88 365.15 226.74 364.41
  A 0.42 0.42 0.0 0 0 226.71 363.62
  Q 224.86 363.01 222.49 363.22
  Q 219.48 363.47 208.90 364.83
  A 1.16 1.14 -82.7 0 0 207.96 365.57
  Q 207.40 367.08 205.95 368.01
  C 200.26 371.67 194.29 375.02 187.14 373.14
  C 182.05 371.80 177.45 371.41 175.85 367.96
  C 174.65 365.40 179.72 362.52 181.57 361.80
  C 186.31 359.95 191.13 358.37 196.42 359.37
  Q 203.14 360.64 207.53 362.33
  A 3.55 3.53 52.6 0 0 209.14 362.55
  L 217.26 361.76
  A 0.67 0.67 0.0 0 0 217.51 360.50
  Q 216.11 359.77 210.51 357.51
  Q 209.13 356.96 208.16 355.76
  A 0.91 0.90 -49.7 0 1 208.08 354.74
  Q 209.22 352.75 211.54 352.68
  Q 223.29 352.32 230.44 361.26
  A 1.12 1.11 -24.1 0 0 231.50 361.66
  L 231.83 361.60
  A 0.40 0.40 0.0 0 0 232.06 360.95
  Q 231.15 359.85 230.60 359.29
  A 4.79 4.54 -85.4 0 1 229.90 358.42
  L 217.63 338.80
  A 1.91 1.91 0.0 0 0 214.62 338.50
  Q 210.30 343.08 204.51 344.34
  A 2.27 2.25 61.7 0 1 202.40 343.70
  L 202.24 343.52
  A 0.86 0.86 0.0 0 1 202.78 342.10
  L 205.34 341.81
  A 0.95 0.86 24.7 0 0 205.69 341.70
  L 212.03 338.16
  A 0.47 0.46 32.7 0 0 211.84 337.29
  L 205.63 336.82
  A 1.76 1.75 24.0 0 0 204.24 337.35
  Q 200.56 341.19 199.36 342.10
  C 196.62 344.18 185.89 350.04 183.91 345.32
  A 0.87 0.85 54.5 0 1 184.05 344.42
  Q 186.34 341.75 189.05 341.72
  A 1.32 1.28 28.4 0 0 189.73 341.53
  L 194.02 338.84
  A 0.62 0.62 0.0 0 1 194.85 339.74
  Q 193.04 342.10 189.66 342.66
  A 0.81 0.80 -77.8 0 0 189.14 343.00
  L 188.47 343.98
  A 0.27 0.27 0.0 0 0 188.76 344.39
  C 191.86 343.56 200.22 340.37 201.67 337.29
  A 0.37 0.37 0.0 0 0 201.34 336.76
  L 190.68 336.59
  A 2.24 2.19 26.4 0 0 189.32 337.03
  Q 183.21 341.65 174.80 342.18
  C 171.59 342.38 167.43 340.88 164.62 339.43
  C 162.57 338.37 160.11 335.69 161.78 333.33
  C 163.36 331.08 165.75 330.36 168.20 329.48
  C 172.77 327.83 178.48 329.29 183.14 330.94
  A 5.84 5.75 -18.8 0 1 184.26 331.48
  C 189.46 334.74 193.86 335.01 199.57 334.52
  A 0.52 0.52 0.0 0 0 199.74 333.53
  C 197.89 332.70 196.26 332.15 195.27 331.01
  Q 194.78 330.44 193.99 330.60
  Q 193.22 330.74 192.56 330.45
  C 189.77 329.22 186.63 327.75 183.96 328.64
  C 181.73 329.38 180.67 327.97 180.79 326.06
  A 1.60 1.59 -88.5 0 1 182.37 324.56
  C 186.45 324.51 189.99 326.98 193.75 329.67
  A 0.73 0.73 0.0 0 0 194.85 328.81
  L 194.12 326.90
  A 1.85 1.85 0.0 0 1 195.71 324.39
  Q 198.29 324.18 201.09 325.90
  Q 207.20 329.64 213.81 335.09
  A 0.66 0.66 0.0 0 0 214.82 334.27
  L 203.37 312.27
  A 0.86 0.86 0.0 0 0 201.90 312.18
  Q 200.02 314.88 196.78 316.26
  C 193.93 317.47 185.16 319.99 183.74 315.73
  A 1.86 1.69 -19.0 0 1 184.94 313.55
  C 188.97 312.13 192.40 310.59 194.64 311.13
  A 0.49 0.49 0.0 0 1 194.87 311.96
  Q 192.37 314.40 189.42 314.65
  A 0.44 0.43 85.9 0 0 189.03 315.11
  L 189.03 315.13
  A 0.39 0.39 0.0 0 0 189.43 315.50
  Q 195.94 315.45 201.19 311.12
  A 0.35 0.34 -60.9 0 0 201.02 310.51
  L 186.22 308.51
  A 0.39 0.24 -13.3 0 1 186.13 308.48
  Q 183.57 307.52 181.22 307.74
  A 4.03 3.95 -63.2 0 0 179.49 308.33
  Q 176.67 310.13 173.48 311.68
  Q 173.13 311.85 173.13 312.10
  A 0.60 0.60 0.0 0 0 173.82 312.69
  Q 179.20 311.88 184.27 310.01
  Q 184.79 309.82 185.06 309.91
  A 0.83 0.82 -52.0 0 1 185.24 311.38
  C 180.93 314.22 176.94 314.59 171.69 314.80
  Q 169.90 314.87 168.69 313.51
  A 1.55 1.40 -29.1 0 1 169.48 311.19
  Q 172.72 310.07 175.37 308.46
  A 0.38 0.37 19.8 0 0 175.05 307.79
  Q 163.46 311.67 153.11 305.12
  C 151.31 303.99 149.20 301.98 148.66 299.91
  C 147.77 296.49 153.88 295.60 155.80 295.62
  C 164.30 295.70 171.61 299.51 178.17 304.06
  Q 179.45 304.94 183.29 305.48
  C 184.16 305.60 185.26 305.98 186.24 305.47
  A 0.42 0.42 0.0 0 0 186.28 304.75
  L 174.90 297.03
  A 0.54 0.54 0.0 0 0 174.09 297.67
  L 174.62 299.04
  A 0.60 0.60 0.0 0 1 173.67 299.71
  L 170.88 297.33
  A 1.59 1.58 62.3 0 1 171.74 294.55
  Q 175.77 294.14 178.99 296.89
  Q 182.82 300.16 186.10 302.08
  A 0.22 0.22 0.0 0 0 186.39 301.75
  Q 184.13 298.93 182.88 296.52
  A 2.23 2.21 -22.9 0 1 184.16 293.41
  C 187.36 292.33 194.74 300.31 196.77 303.00
  Q 197.24 303.62 198.20 304.02
  A 0.25 0.25 0.0 0 0 198.52 303.69
  L 189.70 283.93
  A 1.01 1.00 -30.4 0 0 188.18 283.54
  L 186.41 284.86
  A 0.47 0.45 -68.0 0 1 186.21 284.95
  C 181.67 286.01 174.32 286.30 170.12 283.41
  A 1.46 1.46 0.0 0 1 170.69 280.77
  L 178.92 279.29
  A 0.36 0.36 0.0 0 1 179.33 279.56
  L 179.43 279.96
  A 0.34 0.34 0.0 0 1 179.13 280.38
  Q 175.96 280.60 174.41 281.72
  A 0.67 0.66 31.8 0 0 174.69 282.91
  Q 180.93 284.03 186.06 282.96
  Q 186.64 282.84 186.92 282.52
  A 0.68 0.68 0.0 0 0 186.65 281.44
  C 184.28 280.52 182.70 280.13 180.81 278.69
  C 177.02 275.82 173.43 277.16 169.12 276.56
  Q 157.75 275.00 152.22 263.58
  A 2.00 1.92 37.1 0 1 152.04 262.46
  C 152.73 257.38 159.69 260.71 162.64 262.45
  Q 168.46 265.86 174.43 270.63
  A 0.54 0.54 0.0 0 0 175.26 269.99
  L 173.01 264.95
  A 4.51 4.50 88.2 0 0 170.47 262.56
  Q 167.07 261.29 166.71 260.57
  A 1.89 1.89 0.0 0 1 168.46 257.85
  Q 172.83 258.00 173.31 263.60
  A 1.64 1.63 3.9 0 0 174.59 265.06
  C 178.78 265.98 181.45 269.37 184.83 272.66
  A 0.24 0.24 0.0 0 0 185.22 272.38
  Q 181.51 264.79 179.11 256.53
  A 1.84 1.84 0.0 0 0 177.41 255.20
  Q 174.50 255.08 170.96 253.45
  Q 169.29 252.67 166.19 249.20
  Q 165.86 248.84 161.33 244.69
  Q 158.50 242.11 155.80 237.39
  C 154.20 234.58 154.14 232.09 156.90 230.20
  C 159.43 228.45 164.83 233.46 166.35 235.53
  Q 168.53 238.49 171.17 240.85
  A 4.66 4.55 8.4 0 1 172.26 242.28
  Q 173.55 244.98 174.74 246.43
  A 0.44 0.44 0.0 0 0 175.49 245.98
  C 174.16 242.90 173.09 239.74 172.08 235.83
  Q 171.15 232.23 170.47 231.52
  C 163.18 223.96 160.28 214.63 159.27 204.25
  Q 158.83 199.77 159.77 195.13
  C 160.47 191.70 163.58 189.78 166.13 192.95
  Q 168.04 195.33 169.26 198.87
  C 173.07 209.93 175.44 219.55 173.14 230.05
  A 2.52 2.46 40.7 0 0 173.27 231.54
  L 176.94 240.45
  A 1.17 0.97 -66.3 0 1 177.00 240.66
  C 177.58 243.72 177.82 246.61 179.75 248.27
  A 0.76 0.76 0.0 0 0 180.70 248.31
  L 180.97 248.10
  A 0.38 0.38 0.0 0 0 180.97 247.49
  Q 179.79 246.61 180.05 244.77
  C 180.50 241.45 180.52 237.45 180.89 232.52
  C 181.15 229.23 183.98 220.43 188.89 223.41
  C 191.75 225.14 189.98 233.41 189.12 235.72
  C 188.15 238.33 188.04 240.91 187.13 243.04
  A 1.04 1.01 -51.0 0 0 187.22 244.00
  Q 187.37 244.22 188.08 244.86
  C 189.78 246.41 187.43 251.52 186.42 253.16
  Q 185.38 254.84 183.15 255.41
  A 0.75 0.74 -17.7 0 0 182.64 256.39
  L 188.69 272.18
  A 0.35 0.35 0.0 0 0 189.31 272.25
  L 189.72 271.66
  A 0.33 0.32 50.0 0 0 189.74 271.34
  C 188.54 268.65 187.34 262.11 189.98 260.10
  Q 191.67 258.82 192.24 264.93
  A 0.43 0.42 66.2 0 0 192.95 265.21
  L 193.21 264.98
  A 1.24 1.24 0.0 0 0 193.61 264.09
  C 193.78 256.17 192.77 245.91 199.79 240.71
  A 1.65 1.64 -30.0 0 1 202.28 241.37
  Q 203.12 243.29 203.23 245.51
  Q 203.69 254.30 199.53 263.03
  A 0.84 0.81 82.4 0 1 199.34 263.29
  L 196.05 266.36
  A 2.66 2.52 -8.8 0 0 195.50 267.07
  Q 193.52 270.76 193.65 275.31
  Q 193.68 276.25 192.03 278.91
  A 0.80 0.80 0.0 0 0 192.19 279.95
  L 192.53 280.24
  A 0.58 0.58 0.0 0 0 193.41 280.08
  Q 196.64 274.27 198.36 267.41
  A 1.64 1.64 0.0 0 1 200.00 266.17
  L 200.03 266.17
  A 1.01 1.00 -80.3 0 1 200.96 267.49
  Q 198.71 274.37 195.52 280.53
  Q 194.93 281.67 193.95 282.60
  A 0.71 0.69 -34.5 0 0 193.79 283.40
  L 201.47 300.62
  A 0.58 0.58 0.0 0 0 202.39 300.81
  L 202.65 300.57
  A 0.63 0.63 0.0 0 0 202.83 299.89
  Q 200.57 293.28 201.00 286.01
  A 2.50 2.48 74.3 0 1 202.06 284.11
  L 202.12 284.07
  A 0.74 0.74 0.0 0 1 203.28 284.65
  C 203.34 286.29 202.96 290.49 204.14 292.05
  A 0.25 0.25 0.0 0 0 204.58 291.93
  Q 205.59 284.36 205.73 281.14
  Q 205.86 278.00 206.60 274.94
  C 207.70 270.39 208.16 267.65 212.97 265.51
  A 1.09 1.08 -36.5 0 1 214.12 265.68
  C 218.13 269.12 215.47 277.80 213.52 281.80
  A 0.63 0.63 0.0 0 0 214.07 282.70
  C 219.04 282.83 217.58 290.36 215.79 292.86
  Q 213.36 296.22 213.32 296.29
  A 3.90 3.82 68.1 0 0 212.77 297.62
  Q 211.17 305.29 207.37 311.29
  A 1.56 1.53 47.7 0 0 207.31 312.84
  L 216.79 331.07
  A 0.49 0.49 0.0 0 0 217.67 331.03
  L 217.89 330.48
  A 0.86 0.84 46.6 0 0 217.90 329.85
  Q 214.69 321.56 214.95 312.00
  C 215.03 309.22 215.97 306.99 217.30 304.72
  A 1.28 1.28 0.0 0 1 218.20 304.12
  Q 220.42 303.77 220.86 305.90
  Q 221.69 309.93 222.14 314.52
  A 0.54 0.54 0.0 0 0 223.18 314.65
  L 224.99 309.73
  A 3.54 3.51 48.3 0 0 225.10 307.67
  Q 224.98 307.14 223.82 299.57
  C 222.79 292.77 223.20 288.10 225.69 282.21
  C 227.26 278.51 231.63 276.41 234.91 280.13
  C 237.50 283.09 237.69 286.48 238.09 290.48
  A 3.07 3.02 -67.6 0 0 238.74 292.08
  C 240.53 294.30 241.18 294.89 242.32 298.13
  A 0.35 0.35 0.0 0 1 241.88 298.58
  C 239.73 297.85 238.53 294.19 237.79 291.97
  A 0.57 0.57 0.0 0 0 236.75 291.88
  C 233.42 297.81 241.43 301.98 246.08 303.30
  A 1.88 1.88 0.0 0 1 246.73 303.65
  L 253.73 309.63
  A 0.51 0.50 -77.5 0 0 254.54 309.11
  Q 252.26 300.77 252.45 292.78
  C 252.50 290.77 254.75 288.36 256.93 289.74
  C 261.55 292.64 260.97 299.94 262.08 304.75
  A 3.19 2.98 -49.8 0 1 262.13 305.77
  L 261.26 313.25
  A 3.36 3.22 66.7 0 1 260.73 314.67
  L 259.37 316.68
  A 0.89 0.88 48.9 0 0 259.31 317.60
  L 261.01 320.87
  A 0.98 0.98 0.0 0 0 262.78 320.80
  Q 264.46 316.90 264.86 312.06
  Q 265.26 307.22 262.52 303.12
  A 1.32 1.32 0.0 0 1 263.08 301.18
  L 263.43 301.02
  A 1.58 1.57 63.1 0 1 265.44 301.68
  C 267.95 306.05 267.61 313.27 266.09 318.03
  Q 265.07 321.25 263.24 322.43
  A 0.61 0.61 0.0 0 0 263.04 323.23
  C 264.74 326.33 266.23 330.25 268.77 332.74
  A 0.79 0.78 -61.7 0 0 270.09 332.34
  Q 274.24 313.05 276.63 302.82
  Q 276.99 301.28 278.64 289.52
  A 0.73 0.72 -71.8 0 0 278.27 288.78
  Q 272.91 285.95 268.64 285.20
  C 262.60 284.14 258.03 281.09 254.58 276.45
  A 1.96 1.79 49.7 0 1 254.67 274.00
  Q 255.90 272.77 258.15 273.07
  Q 264.91 273.96 267.70 275.00
  A 0.71 0.71 0.0 0 0 268.48 273.85
  L 265.10 270.12
  A 5.30 5.26 -19.1 0 0 261.54 268.41
  Q 254.13 267.95 244.49 264.52
  Q 238.98 262.55 236.00 258.26
  A 1.93 1.83 55.9 0 1 236.44 255.61
  Q 237.71 254.78 239.53 254.87
  Q 244.43 255.12 250.32 257.05
  A 0.65 0.65 0.0 0 0 251.01 256.00
  C 249.58 254.39 247.83 253.43 245.50 252.72
  C 233.54 249.10 224.87 241.21 221.27 228.93
  A 1.83 1.78 -46.4 0 1 221.26 227.96
  C 222.41 223.75 227.20 226.13 229.61 227.38
  Q 242.88 234.27 248.17 248.44
  A 2.22 1.97 35.9 0 1 248.31 249.07
  L 248.41 251.02
  A 1.35 1.34 16.0 0 0 249.00 252.07
  L 256.51 257.17
  A 0.45 0.45 0.0 0 0 257.19 256.64
  C 254.94 250.40 251.77 244.81 254.19 241.16
  A 2.50 2.43 -55.7 0 1 257.65 240.45
  C 261.23 242.95 262.83 246.92 264.14 251.21
  Q 265.45 255.51 265.37 256.81
  C 265.20 259.57 266.31 262.40 265.72 265.13
  A 1.54 1.50 -49.2 0 0 265.77 265.95
  Q 266.43 267.83 267.52 268.62
  A 0.65 0.65 0.0 0 0 268.53 267.91
  Q 266.71 261.55 266.68 256.06
  Q 266.67 253.50 268.47 252.61
  A 2.46 1.94 54.2 0 1 271.06 253.35
  C 275.48 258.31 277.02 264.55 278.11 271.84
  Q 278.76 276.18 277.26 278.66
  A 1.19 1.16 49.5 0 0 277.19 279.73
  L 279.12 284.04
  A 0.52 0.52 0.0 0 0 280.10 283.92
  Q 281.51 275.85 282.49 269.43
  Q 283.01 266.01 283.06 264.49
  C 283.13 262.16 283.82 260.24 284.02 257.91
  Q 284.75 249.27 285.17 242.73
  A 3.16 3.15 -78.3 0 0 283.09 239.56
  Q 273.16 236.01 266.97 233.18
  C 263.97 231.81 258.53 229.04 257.10 226.22
  A 1.67 1.67 0.0 0 1 257.59 224.13
  L 258.51 223.44
  A 1.19 1.19 0.0 0 1 260.33 223.97
  L 260.97 225.63
  A 2.20 2.19 -79.8 0 0 261.55 226.47
  Q 264.81 229.36 268.13 230.86
  Q 276.68 234.73 281.65 236.80
  A 0.48 0.48 0.0 0 0 282.19 236.04
  L 273.71 226.33
  A 4.69 4.67 -6.1 0 0 272.48 225.34
  Q 269.91 223.93 264.19 221.91
  Q 262.70 221.39 256.75 220.40
  Q 248.12 218.96 241.85 212.14
  Q 240.75 210.94 240.37 209.84
  A 1.87 1.87 0.0 0 1 242.39 207.38
  L 251.77 208.65
  A 0.55 0.55 0.0 0 0 252.23 207.72
  Q 251.25 206.72 250.32 206.41
  C 240.34 203.14 232.67 198.65 228.57 188.47
  Q 228.19 187.53 228.01 186.16
  C 227.75 184.19 229.88 182.73 231.47 182.92
  C 240.29 184.00 247.29 192.11 250.57 199.96
  C 251.80 202.88 253.28 204.99 255.59 206.41
  A 0.58 0.58 0.0 0 0 256.43 205.71
  C 255.19 202.57 252.78 198.54 252.40 194.07
  A 1.85 1.83 54.7 0 1 252.55 193.17
  C 253.71 190.53 257.17 191.69 258.57 193.55
  C 263.29 199.80 267.13 206.24 265.96 213.45
  A 2.41 2.39 -61.7 0 0 266.55 215.44
  L 270.53 219.83
  A 0.40 0.40 0.0 0 0 271.21 219.46
  C 269.62 213.47 265.72 201.10 269.09 198.99
  A 2.11 2.08 52.0 0 1 271.72 199.33
  Q 273.74 201.45 274.92 204.37
  C 277.33 210.34 279.52 217.70 279.15 224.17
  A 1.98 1.96 64.5 0 1 278.82 225.12
  L 278.22 226.01
  A 0.71 0.71 0.0 0 0 278.24 226.84
  L 285.81 237.00
  A 0.20 0.19 28.5 0 0 286.16 236.90
  Q 286.97 225.15 287.04 223.50
  C 287.39 214.75 288.49 205.31 288.39 195.78
  A 1.69 1.68 11.7 0 0 287.40 194.28
  Q 282.40 192.05 277.59 190.40
  Q 267.29 186.86 260.36 176.94
  C 258.47 174.23 261.37 172.02 263.74 173.02
  Q 267.89 174.77 269.89 177.68
  A 1.44 1.41 -4.8 0 0 270.46 178.15
  L 277.52 181.23
  A 0.31 0.31 0.0 0 0 277.86 180.73
  Q 273.37 176.29 267.93 171.88
  C 264.93 169.44 260.11 167.36 257.66 165.33
  C 255.49 163.52 235.22 145.80 245.26 143.66
  Q 247.53 143.17 251.95 145.12
  C 257.08 147.38 261.52 152.99 264.92 157.89
  Q 267.61 161.78 268.37 166.17
  A 0.67 0.67 0.0 0 1 267.28 166.80
  Q 266.56 166.20 266.42 165.80
  C 265.13 162.03 262.14 158.21 259.84 155.30
  Q 255.18 149.38 247.51 147.03
  A 1.06 1.06 0.0 0 0 246.29 148.59
  C 249.81 154.44 254.15 158.30 259.50 163.24
  Q 263.18 166.65 267.20 168.25
  A 3.71 3.46 -13.4 0 1 268.08 168.75
  L 274.63 173.70
  A 0.58 0.58 0.0 0 0 275.53 173.05
  Q 274.72 170.82 272.25 164.26
  C 271.59 162.53 270.52 156.91 274.47 157.63
  C 279.21 158.49 282.28 166.35 282.82 170.20
  C 283.90 177.77 284.51 182.73 288.08 188.15
  A 0.49 0.48 -60.5 0 0 288.97 187.90
  L 290.44 154.90
  A 0.72 0.70 31.0 0 0 290.33 154.49
  L 285.63 146.98
  A 3.06 3.05 -14.7 0 0 283.17 145.55
  L 276.29 145.24
  A 0.68 0.68 0.0 0 0 275.76 146.38
  L 279.54 150.54
  A 3.05 2.99 77.7 0 0 280.84 151.39
  L 287.85 153.77
  A 0.40 0.40 0.0 0 1 288.03 154.41
  L 287.74 154.76
  A 1.31 1.31 0.0 0 1 286.70 155.22
  Q 280.08 155.06 274.67 148.84
  Q 272.98 146.89 274.34 145.90
  Q 274.71 145.63 275.00 145.56
  Q 275.28 145.48 275.33 145.44
  A 0.38 0.37 34.3 0 0 275.21 144.82
  C 270.66 142.94 268.17 142.36 265.29 138.09
  A 1.48 1.47 -46.6 0 1 265.25 136.50
  Q 265.95 135.36 267.66 134.82
  A 1.77 1.74 -44.0 0 1 268.77 134.83
  L 276.81 137.52
  A 0.59 0.59 0.0 0 0 277.41 136.54
  Q 275.05 134.18 271.05 131.73
  C 264.68 127.83 257.01 119.38 256.66 111.32
  Q 256.54 108.44 258.90 107.46
  C 262.31 106.05 266.63 109.51 268.56 112.21
  Q 272.76 118.05 275.13 124.36
  Q 277.49 130.66 278.76 132.74
  A 0.28 0.28 0.0 0 0 279.27 132.68
  Q 279.49 131.95 279.15 131.09
  Q 277.78 127.68 277.76 123.20
  A 1.43 1.40 -26.4 0 1 278.07 122.32
  C 280.53 119.29 283.31 123.24 284.31 125.44
  Q 284.72 126.34 287.00 135.74
  Q 287.58 138.13 286.78 141.32
  A 4.18 4.18 0.0 0 0 287.12 144.27
  L 290.09 149.98
  A 0.54 0.54 0.0 0 0 291.11 149.74
  L 291.57 120.89
  A 0.64 0.63 -70.4 0 0 291.34 120.40
  C 290.50 119.74 289.19 120.09 288.28 119.42
  Q 283.17 115.65 279.74 111.86
  A 1.30 1.29 -30.4 0 1 280.29 109.76
  Q 282.24 109.11 283.72 110.23
  A 0.47 0.46 -54.2 0 1 283.82 110.88
  Q 283.38 111.51 283.33 111.82
  A 0.96 0.94 -65.3 0 0 283.65 112.72
  Q 285.38 114.21 288.42 117.39
  A 1.29 1.18 39.5 0 0 290.38 117.29
  Q 290.71 116.73 290.08 115.62
  Q 288.49 112.78 286.29 110.70
  A 2.35 2.32 11.0 0 1 285.73 109.88
  Q 285.31 108.77 285.10 108.63
  Q 278.56 104.29 273.23 95.52
  C 270.82 91.54 268.55 85.19 273.71 82.54
  A 1.43 1.41 42.2 0 1 274.90 82.49
  C 281.99 85.43 286.47 96.33 288.56 103.37
  Q 289.01 104.89 291.29 110.11
  A 0.59 0.59 0.0 0 0 292.42 109.81
  Q 292.12 106.96 290.43 104.66
  A 2.24 2.21 25.7 0 1 289.99 103.43
  L 289.50 93.93
  A 1.06 1.06 0.0 0 1 290.51 92.81
  L 291.00 92.78
  A 0.65 0.64 -2.7 0 1 291.68 93.39
  L 292.04 100.39
  A 0.16 0.15 44.9 0 0 292.35 100.39
  L 292.70 92.53
  A 3.38 3.30 -60.2 0 0 292.20 90.60
  L 290.49 87.87
  A 1.21 0.84 -79.7 0 1 290.39 87.65
  Q 288.09 79.47 287.82 72.01
  Q 287.66 67.34 287.33 58.99
  Q 287.08 52.58 289.04 44.78
  C 289.76 41.94 292.11 37.83 295.28 39.70
  C 298.81 41.78 299.56 52.81 300.05 56.05
  C 301.11 63.08 300.06 70.67 298.18 77.54
  C 297.46 80.20 295.63 82.48 295.66 85.47
  Q 295.74 92.94 295.53 102.60
  A 0.26 0.26 0.0 0 0 295.77 102.87
  L 295.80 102.87
  A 0.29 0.29 0.0 0 0 296.02 102.65
  L 297.16 96.57
  A 0.44 0.40 42.4 0 0 297.14 96.35
  L 296.79 95.38
  A 1.09 1.09 0.0 0 1 298.66 94.33
  Q 298.95 94.68 298.94 95.21
  Q 298.80 104.06 295.66 113.88
  Q 295.43 114.60 295.63 115.13
  A 0.57 0.57 0.0 0 0 296.65 115.22
  Q 301.97 106.32 306.35 97.46
  Q 309.13 91.86 313.91 87.98
  Q 318.11 84.58 322.26 87.38
  A 2.29 2.28 -63.5 0 1 323.14 90.03
  Q 320.42 97.83 314.02 104.27
  Q 303.96 114.40 295.62 120.80
  A 0.90 0.87 -19.0 0 0 295.28 121.47
  L 294.86 147.87
  A 0.31 0.31 0.0 0 0 295.37 148.12
  Q 298.14 145.85 296.46 144.07
  A 1.09 1.09 0.0 0 1 296.24 142.93
  Q 296.61 141.95 296.68 139.32
  C 296.77 135.41 300.28 127.46 303.97 125.07
  A 1.79 1.79 0.0 0 1 306.64 126.01
  Q 307.96 129.97 304.98 134.75
  A 0.51 0.51 0.0 0 0 305.30 135.52
  L 305.58 135.58
  A 0.48 0.47 -61.2 0 0 306.03 135.44
  Q 308.05 133.25 309.65 129.65
  C 312.12 124.10 318.46 114.69 325.30 114.98
  C 328.87 115.13 329.05 118.11 327.63 120.79
  C 324.62 126.48 320.13 131.96 314.57 135.04
  C 310.70 137.18 306.52 138.97 304.00 142.03
  A 0.58 0.58 0.0 0 0 304.64 142.94
  L 313.01 139.89
  A 1.09 1.08 -48.5 0 1 313.62 139.85
  Q 315.51 140.29 315.56 142.27
  C 315.60 144.14 314.21 144.92 313.00 146.09
  C 309.63 149.31 304.81 152.47 300.25 154.12
  Q 298.05 154.91 295.84 153.72
  A 0.85 0.85 0.0 0 0 294.59 154.44
  Q 294.31 164.61 293.99 166.39
  C 292.79 173.10 293.78 181.12 293.08 188.02
  Q 292.97 189.12 292.68 189.67
  A 0.49 0.48 85.9 0 0 293.39 190.29
  Q 294.99 189.13 296.19 186.94
  A 3.09 3.09 0.0 0 0 296.53 185.92
  C 296.94 183.19 296.97 182.00 297.79 179.83
  C 300.95 171.46 303.57 163.71 311.40 159.16
  Q 312.54 158.50 313.69 158.92
  A 0.94 0.92 -81.5 0 1 314.29 159.75
  L 314.31 160.03
  A 0.41 0.40 8.3 0 1 313.77 160.43
  Q 311.70 159.69 309.71 161.98
  C 306.68 165.46 303.76 169.98 302.02 174.95
  Q 299.65 181.70 298.77 184.69
  A 0.58 0.58 0.0 0 0 299.72 185.29
  L 306.88 178.78
  A 6.79 6.78 80.1 0 0 308.58 176.36
  L 313.78 163.61
  A 0.43 0.43 0.0 0 1 314.61 163.71
  Q 314.88 165.50 314.09 167.15
  Q 312.64 170.17 310.99 173.75
  A 0.52 0.52 0.0 0 0 311.59 174.47
  L 311.86 174.41
  A 1.55 1.54 6.6 0 0 312.85 173.63
  Q 318.48 163.09 327.56 158.09
  C 329.70 156.91 335.24 155.18 337.34 157.47
  C 340.12 160.51 334.99 165.86 332.74 167.70
  Q 327.29 172.17 321.06 174.79
  C 317.99 176.08 314.34 177.11 311.54 179.06
  Q 310.96 179.46 308.41 181.58
  A 0.78 0.77 17.9 0 0 309.10 182.92
  L 317.69 180.75
  A 1.23 1.22 -33.9 0 1 318.73 180.95
  L 318.96 181.12
  A 0.47 0.47 0.0 0 1 318.78 181.91
  C 314.37 183.29 311.77 185.07 306.83 183.91
  A 3.04 3.01 -59.4 0 0 304.11 184.62
  L 299.58 188.73
  A 0.41 0.41 0.0 0 0 299.89 189.44
  C 303.83 189.10 306.39 188.10 310.42 187.41
  Q 314.84 186.65 319.21 183.35
  C 320.53 182.36 320.86 180.17 323.04 180.01
  A 1.19 1.19 0.0 0 1 324.10 181.88
  C 320.97 186.33 316.60 188.44 311.46 189.66
  A 4.64 4.35 20.3 0 0 310.04 190.26
  Q 302.57 195.02 293.68 196.09
  A 0.99 0.98 -1.4 0 0 292.82 196.99
  L 289.87 235.81
  A 0.47 0.47 0.0 0 0 290.65 236.19
  L 294.08 233.07
  A 0.86 0.81 -69.3 0 1 294.49 232.87
  Q 297.53 232.37 298.89 230.25
  A 2.12 2.04 62.4 0 0 299.22 229.12
  Q 299.24 223.38 302.49 218.49
  A 1.21 1.20 26.1 0 1 303.88 218.02
  L 303.90 218.03
  A 0.77 0.76 -67.6 0 1 304.34 219.09
  Q 302.83 222.16 302.92 222.77
  A 0.30 0.29 -30.9 0 0 303.45 222.90
  Q 305.13 220.61 305.42 218.74
  C 305.89 215.68 307.31 212.67 307.63 210.87
  A 2.07 2.07 0.0 0 0 307.63 209.97
  L 307.57 209.69
  A 0.80 0.79 65.5 0 0 306.33 209.22
  Q 304.28 210.69 303.23 212.97
  Q 298.95 222.27 296.52 228.77
  Q 295.89 230.43 294.37 231.13
  A 0.32 0.32 0.0 0 1 293.93 230.76
  C 295.75 223.96 300.30 209.28 306.42 206.09
  A 1.74 1.73 68.3 0 1 308.89 207.16
  Q 309.77 210.23 309.21 213.17
  Q 307.63 221.50 302.03 228.46
  A 0.62 0.62 0.0 0 0 302.76 229.42
  L 308.74 226.75
  A 0.79 0.78 77.8 0 0 309.21 226.01
  C 309.19 223.35 310.60 221.71 311.80 219.42
  C 314.42 214.42 320.33 206.84 326.15 205.83
  A 1.46 1.43 -7.6 0 1 327.85 207.10
  C 328.13 210.28 319.78 219.37 317.90 221.41
  Q 317.33 222.03 316.55 223.59
  A 0.49 0.49 0.0 0 0 317.16 224.26
  L 322.87 222.07
  A 0.67 0.57 -71.2 0 0 323.09 221.94
  Q 324.23 220.89 327.99 216.55
  Q 329.98 214.25 334.81 211.67
  C 339.14 209.36 342.99 211.24 345.73 214.35
  A 2.15 2.14 38.3 0 1 346.02 216.76
  Q 340.23 227.82 327.96 228.64
  Q 326.20 228.76 324.77 228.40
  C 321.68 227.64 320.55 227.68 316.37 227.36
  A 3.38 3.27 36.2 0 0 315.00 227.55
  Q 304.76 231.23 298.22 234.18
  Q 296.21 235.08 295.03 236.53
  A 0.35 0.34 17.9 0 0 295.32 237.09
  L 301.59 236.77
  A 2.01 1.90 46.7 0 1 302.11 236.80
  Q 307.18 237.64 311.87 237.14
  A 0.44 0.44 0.0 0 0 312.27 236.70
  L 312.27 236.68
  A 0.30 0.29 -88.9 0 0 312.02 236.41
  L 303.60 235.18
  A 0.65 0.65 0.0 0 1 303.63 233.89
  C 307.38 233.57 310.59 234.23 314.43 234.69
  Q 316.09 234.89 316.58 235.29
  A 1.54 1.54 0.0 0 1 316.54 237.70
  Q 313.33 240.15 309.01 240.21
  Q 301.76 240.32 294.35 239.71
  Q 293.30 239.63 290.37 240.82
  A 1.45 1.45 0.0 0 0 289.46 242.15
  Q 289.43 244.56 287.15 266.01
  C 286.83 268.94 286.01 272.15 285.76 275.01
  Q 285.24 280.84 284.25 284.99
  Q 284.08 285.67 284.38 286.00
  A 0.54 0.53 -51.3 0 0 285.25 285.90
  Q 289.55 278.04 296.71 266.72
  Q 299.81 261.82 304.27 258.51
  C 306.65 256.75 310.93 255.99 310.39 260.70
  C 309.76 266.11 305.92 270.63 301.97 274.31
  A 2.11 2.08 -71.3 0 1 300.92 274.84
  L 300.08 274.99
  A 1.17 1.15 11.1 0 0 299.32 275.49
  L 296.45 279.70
  A 0.32 0.32 0.0 0 0 296.79 280.19
  L 310.00 276.85
  A 1.16 1.15 -5.5 0 0 310.87 275.80
  C 311.15 270.90 319.38 264.02 324.04 261.04
  C 325.85 259.88 330.36 257.76 332.44 258.88
  A 2.20 1.88 -69.3 0 1 333.30 261.28
  Q 332.42 264.49 329.96 266.73
  Q 325.61 270.71 322.30 273.61
  A 0.58 0.58 0.0 0 0 322.20 274.38
  L 322.21 274.40
  A 0.72 0.71 56.9 0 0 323.18 274.61
  Q 326.25 272.72 329.48 270.78
  Q 335.07 267.43 342.80 266.16
  A 0.25 0.24 78.9 0 1 343.08 266.35
  L 343.12 266.62
  A 0.11 0.10 79.2 0 1 343.04 266.75
  Q 336.09 268.16 329.10 272.08
  Q 327.29 273.09 328.80 273.64
  A 0.77 0.73 46.5 0 0 329.18 273.66
  L 337.52 271.65
  A 0.40 0.39 87.5 0 1 338.00 272.09
  L 337.91 272.75
  A 0.24 0.24 0.0 0 1 337.73 272.95
  L 322.95 276.68
  A 0.31 0.31 0.0 0 0 322.99 277.29
  Q 328.03 277.87 329.53 278.04
  C 337.29 278.90 343.43 276.68 349.25 270.98
  Q 350.71 269.55 350.77 268.59
  A 1.00 0.99 11.6 0 1 351.95 267.82
  L 352.40 267.91
  A 1.53 1.53 0.0 0 1 353.60 269.60
  Q 353.42 271.01 352.55 272.01
  Q 344.15 281.73 331.52 280.52
  C 327.23 280.11 324.85 280.52 320.51 278.24
  Q 319.88 277.91 318.48 278.49
  A 1.54 1.54 0.0 0 1 317.53 278.58
  Q 316.60 278.37 316.25 278.45
  Q 304.42 281.07 298.34 282.29
  A 0.56 0.56 0.0 0 0 298.13 283.30
  Q 300.64 285.05 304.78 287.01
  Q 306.26 287.72 307.35 289.09
  A 2.13 2.01 -36.4 0 1 306.81 292.06
  Q 305.21 293.17 302.48 293.11
  C 299.47 293.05 290.39 291.22 289.54 287.52
  A 0.38 0.37 89.9 0 1 289.98 287.07
  Q 290.22 287.13 293.52 288.87
  C 296.89 290.65 301.27 291.16 304.87 290.48
  A 0.93 0.92 -24.4 0 0 305.43 289.00
  Q 304.45 287.74 302.54 286.95
  Q 298.46 285.28 296.45 284.03
  A 2.24 2.24 0.0 0 0 294.48 283.84
  Q 289.25 285.79 286.75 289.73
  C 285.78 291.25 284.50 291.67 283.55 292.75
  A 2.22 2.20 72.9 0 0 283.01 293.78
  L 274.64 331.57
  A 0.38 0.37 88.3 0 0 275.11 332.02
  Q 277.30 331.36 276.77 329.99
  A 1.35 1.35 0.0 0 1 276.77 328.99
  C 279.22 322.69 283.32 317.27 288.49 312.52
  C 291.89 309.39 295.35 307.89 299.80 306.60
  C 304.24 305.31 307.16 309.26 305.36 313.16
  C 303.99 316.16 300.54 318.76 296.91 320.93
  Q 291.52 324.14 287.89 327.53
  A 0.51 0.51 0.0 0 1 287.12 327.45
  C 285.33 324.91 290.39 320.07 292.39 318.24
  A 0.44 0.44 0.0 0 1 293.12 318.49
  L 293.20 318.90
  A 1.18 1.16 -24.3 0 1 292.76 320.04
  Q 291.68 320.89 291.62 321.34
  A 0.37 0.37 0.0 0 0 292.20 321.69
  Q 298.02 317.50 302.56 312.07
  A 1.40 1.39 37.7 0 0 302.29 310.03
  Q 300.96 309.08 299.45 309.66
  C 289.98 313.29 285.87 318.18 280.90 326.39
  Q 279.53 328.65 277.74 330.29
  A 0.31 0.31 0.0 0 0 277.91 330.83
  Z
  M 294.37 58.66
  A 0.14 0.14 0.0 0 1 294.51 58.80
  L 295.15 77.03
  A 0.37 0.36 -40.0 0 0 295.87 77.09
  Q 299.70 60.08 294.64 44.43
  Q 294.52 44.05 294.42 43.95
  A 0.97 0.97 0.0 0 0 292.81 44.28
  Q 291.05 48.95 290.64 55.32
  Q 289.77 68.77 291.68 81.90
  A 2.62 2.61 -72.7 0 0 292.49 83.45
  L 292.67 83.61
  A 0.25 0.25 0.0 0 0 293.09 83.43
  L 293.48 59.15
  A 0.51 0.50 -88.9 0 1 293.99 58.65
  L 294.37 58.66
  Z
  M 286.91 106.79
  C 284.58 98.84 281.68 92.07 275.23 86.50
  A 0.83 0.83 0.0 0 0 273.91 86.84
  Q 273.58 87.70 273.72 88.23
  Q 276.79 99.76 286.36 107.17
  A 0.35 0.35 0.0 0 0 286.91 106.79
  Z
  M 299.93 114.52
  C 307.99 106.65 316.89 99.16 319.33 90.35
  A 0.99 0.98 85.4 0 0 317.97 89.19
  Q 311.48 92.20 307.71 98.96
  Q 303.00 107.40 299.44 113.41
  Q 299.21 113.80 299.38 114.38
  A 0.33 0.33 0.0 0 0 299.93 114.52
  Z
  M 268.68 121.86
  Q 268.89 121.97 272.71 126.21
  A 0.50 0.50 0.0 0 0 273.52 125.65
  Q 272.42 123.53 270.32 119.84
  C 268.33 116.32 265.09 113.16 262.12 111.07
  A 1.27 1.12 27.9 0 0 260.25 111.52
  Q 260.10 111.96 260.41 112.87
  Q 264.25 124.38 274.09 131.19
  A 0.03 0.02 -31.7 0 0 274.12 131.19
  L 274.32 131.08
  A 0.16 0.15 -34.1 0 0 274.37 130.86
  L 268.26 122.32
  A 0.32 0.32 0.0 0 1 268.68 121.86
  Z
  M 310.07 134.96
  L 315.60 131.22
  A 0.49 0.43 3.6 0 0 315.69 131.15
  Q 321.68 125.27 325.01 119.68
  A 1.06 1.05 -71.1 0 0 324.24 118.09
  C 320.64 117.64 314.16 125.51 311.89 128.91
  Q 311.05 130.16 311.41 131.66
  A 1.04 1.04 0.0 0 1 311.19 132.57
  L 309.61 134.43
  A 0.36 0.35 -86.4 0 0 310.07 134.96
  Z
  M 282.0894 125.5791
  A 1.29 1.29 0.0 0 0 280.5355 124.6232
  L 280.4577 124.6417
  A 1.29 1.29 0.0 0 0 279.5018 126.1955
  L 282.6906 139.5809
  A 1.29 1.29 0.0 0 0 284.2445 140.5368
  L 284.3223 140.5183
  A 1.29 1.29 0.0 0 0 285.2782 138.9645
  L 282.0894 125.5791
  Z
  M 304.7052 128.5446
  A 8.57 1.90 -68.9 0 0 299.8474 135.8560
  A 8.57 1.90 -68.9 0 0 298.5348 144.5354
  A 8.57 1.90 -68.9 0 0 303.3926 137.2240
  A 8.57 1.90 -68.9 0 0 304.7052 128.5446
  Z
  M 283.09 143.55
  Q 281.95 140.98 278.82 139.83
  Q 273.90 138.02 269.08 136.83
  A 0.53 0.53 0.0 0 0 268.55 137.70
  Q 272.44 142.14 277.70 143.19
  Q 281.62 143.98 282.77 144.02
  A 0.34 0.34 0.0 0 0 283.09 143.55
  Z
  M 312.06 142.07
  A 1.26 1.26 0.0 0 0 310.59 142.17
  Q 307.87 144.43 303.90 144.23
  A 1.66 1.65 32.2 0 0 303.00 144.43
  C 300.33 145.88 297.83 149.51 296.16 151.68
  A 0.45 0.45 0.0 0 0 296.69 152.38
  C 302.67 149.93 308.31 145.96 312.22 143.12
  A 0.59 0.59 0.0 0 0 312.18 142.14
  L 312.06 142.07
  Z
  M 318.97 172.66
  A 0.30 0.30 0.0 0 0 319.23 173.19
  C 321.31 172.61 324.45 171.31 326.52 169.68
  C 330.22 166.76 334.31 164.06 335.64 160.21
  A 1.32 1.32 0.0 0 0 334.32 158.46
  C 328.76 158.77 322.14 164.73 318.05 168.79
  Q 316.53 170.30 316.82 171.30
  A 0.40 0.40 0.0 0 0 317.47 171.49
  Q 320.33 168.89 326.53 164.77
  Q 327.25 164.29 328.24 164.11
  A 0.47 0.47 0.0 0 1 328.64 164.91
  L 324.93 168.32
  A 1.62 0.69 -52.5 0 1 324.77 168.45
  L 318.97 172.66
  Z
  M 282.57 181.18
  C 281.06 173.10 280.23 162.92 274.56 160.12
  A 0.47 0.46 -76.2 0 0 273.89 160.53
  C 273.84 162.86 274.34 165.21 275.73 167.49
  Q 278.33 171.72 277.92 176.09
  A 2.07 2.03 -63.9 0 0 278.44 177.65
  L 281.93 181.49
  A 0.37 0.37 0.0 0 0 282.57 181.18
  Z
  M 286.92 191.46
  A 0.20 0.19 -9.2 0 0 287.14 191.16
  L 283.53 186.32
  A 4.68 4.64 -8.1 0 0 281.35 184.70
  L 273.33 181.82
  A 6.75 6.59 73.0 0 1 271.45 180.79
  C 268.94 178.88 266.91 175.12 263.10 175.03
  A 0.49 0.48 73.6 0 0 262.69 175.79
  C 268.81 184.63 276.87 188.20 286.92 191.46
  Z
  M 241.25 195.60
  A 0.41 0.40 40.2 0 1 241.80 195.56
  L 248.79 201.19
  A 0.48 0.48 0.0 0 0 249.50 200.56
  C 245.30 193.87 240.04 188.53 232.40 186.25
  A 0.69 0.68 -77.0 0 0 231.53 186.80
  Q 231.47 187.23 231.74 187.84
  Q 236.54 198.45 247.86 203.79
  A 0.48 0.48 0.0 0 0 248.53 203.23
  Q 248.40 202.73 247.82 202.41
  Q 246.99 201.95 246.72 201.65
  Q 244.29 198.87 241.30 196.38
  A 0.54 0.53 40.1 0 1 241.23 195.62
  L 241.25 195.60
  Z
  M 296.23 193.59
  L 303.07 191.84
  A 0.11 0.11 0.0 0 0 303.15 191.70
  L 303.14 191.66
  A 3.47 1.38 -14.4 0 0 299.43 191.18
  L 299.10 191.27
  A 3.47 1.38 -14.4 0 0 296.09 193.47
  L 296.10 193.51
  A 0.11 0.11 0.0 0 0 296.23 193.59
  Z
  M 263.90 212.42
  C 264.83 208.77 259.56 196.20 255.79 195.07
  A 1.05 1.05 0.0 0 0 254.51 196.45
  L 258.38 206.54
  A 0.64 0.54 -58.7 0 1 258.41 206.73
  Q 258.36 208.33 258.85 208.89
  Q 261.05 211.37 263.49 212.61
  A 0.29 0.28 -69.2 0 0 263.90 212.42
  Z
  M 166.71 208.48
  L 171.19 223.96
  A 0.14 0.14 0.0 0 0 171.43 224.00
  Q 172.00 223.21 171.81 221.75
  Q 170.04 207.97 164.58 196.15
  Q 164.35 195.67 164.12 195.61
  A 1.14 1.14 0.0 0 0 162.71 196.64
  Q 161.75 212.03 168.35 224.90
  A 0.88 0.83 51.2 0 0 169.78 225.10
  Q 170.42 224.28 169.52 223.43
  A 1.73 1.71 15.2 0 1 169.05 222.62
  Q 165.91 210.32 165.84 208.62
  A 0.44 0.44 0.0 0 1 166.71 208.48
  Z
  M 270.4618 202.0484
  A 12.17 1.42 -104.7 0 0 272.1765 214.1803
  A 12.17 1.42 -104.7 0 0 276.6382 225.5916
  A 12.17 1.42 -104.7 0 0 274.9235 213.4597
  A 12.17 1.42 -104.7 0 0 270.4618 202.0484
  Z
  M 268.02 221.20
  L 261.99 215.22
  A 8.05 8.02 -7.4 0 0 260.32 213.94
  L 258.21 212.71
  A 0.67 0.64 -1.5 0 1 258.01 212.53
  Q 255.80 209.64 252.91 210.50
  A 2.17 2.12 40.9 0 1 251.91 210.56
  L 245.09 209.33
  A 0.90 0.90 0.0 0 0 244.11 210.57
  Q 244.47 211.38 245.03 211.75
  Q 248.44 214.03 251.13 216.06
  Q 253.82 218.10 260.61 219.36
  A 6.97 6.67 -27.8 0 1 261.87 219.72
  L 267.58 221.89
  A 0.42 0.42 0.0 0 0 268.02 221.20
  Z
  M 311.24 226.02
  Q 312.65 226.09 314.85 224.74
  A 0.97 0.93 77.9 0 0 315.29 224.03
  Q 315.74 219.73 318.30 217.91
  Q 322.63 214.84 324.60 211.39
  A 0.85 0.84 -1.9 0 0 323.40 210.27
  C 317.86 213.90 314.78 219.30 310.79 225.14
  A 0.57 0.56 18.1 0 0 311.24 226.02
  Z
  M 338.08 217.17
  A 0.38 0.38 0.0 0 1 337.92 217.69
  L 324.10 224.88
  A 0.47 0.47 0.0 0 0 324.31 225.76
  Q 338.00 226.01 343.22 214.63
  A 1.26 1.26 0.0 0 0 342.57 212.94
  C 338.07 211.00 329.78 217.75 326.86 220.83
  A 0.21 0.20 -80.1 0 0 327.09 221.16
  L 337.39 216.56
  A 0.37 0.35 64.2 0 1 337.85 216.73
  L 338.08 217.17
  Z
  M 187.78 226.82
  L 185.07 226.30
  A 0.19 0.19 0.0 0 0 184.85 226.45
  L 184.23 229.64
  A 17.36 1.50 -79.0 0 0 182.39 246.97
  L 182.52 246.99
  A 17.36 1.50 -79.0 0 0 187.31 230.24
  L 187.93 227.05
  A 0.19 0.19 0.0 0 0 187.78 226.82
  Z
  M 233.67 237.93
  Q 235.57 239.02 237.00 240.46
  Q 240.15 243.65 245.20 249.23
  A 0.59 0.58 26.4 0 0 246.22 248.89
  Q 246.29 248.09 245.68 247.10
  Q 238.77 235.86 227.23 230.00
  Q 226.37 229.56 225.72 229.60
  A 0.64 0.64 0.0 0 0 225.16 230.47
  Q 229.72 242.51 241.88 249.04
  A 0.30 0.30 0.0 0 0 242.25 248.57
  L 233.17 238.57
  A 0.41 0.41 0.0 0 1 233.67 237.93
  Z
  M 173.11 247.81
  Q 172.94 247.55 170.50 245.33
  C 169.39 244.31 169.39 242.82 168.48 241.54
  C 166.94 239.36 162.42 234.13 159.18 233.28
  A 0.79 0.79 0.0 0 0 158.25 234.35
  Q 161.74 242.80 168.88 247.10
  Q 171.18 248.48 172.80 248.41
  A 0.39 0.39 0.0 0 0 173.11 247.81
  Z
  M 263.64 264.27
  Q 263.94 263.61 263.78 262.54
  Q 262.84 255.98 259.37 246.79
  Q 258.63 244.85 257.06 243.76
  A 1.09 1.09 0.0 0 0 255.36 244.79
  Q 255.71 247.74 257.83 251.38
  Q 258.82 253.09 259.48 257.08
  C 260.03 260.45 260.91 261.89 263.14 264.34
  A 0.30 0.30 0.0 0 0 263.64 264.27
  Z
  M 185.87 244.66
  L 181.73 252.76
  A 0.10 0.10 0.0 0 0 181.77 252.90
  A 4.17 2.08 -62.9 0 0 185.52 250.13
  L 185.96 249.28
  A 4.17 2.08 -62.9 0 0 186.01 244.62
  A 0.10 0.10 0.0 0 0 185.87 244.66
  Z
  M 199.5772 245.0627
  A 8.95 1.49 -80.5 0 0 196.6304 253.6441
  A 8.95 1.49 -80.5 0 0 196.6228 262.7173
  A 8.95 1.49 -80.5 0 0 199.5696 254.1359
  A 8.95 1.49 -80.5 0 0 199.5772 245.0627
  Z
  M 169.2187 249.8284
  A 4.24 1.34 -155.6 0 0 172.5264 252.8003
  A 4.24 1.34 -155.6 0 0 176.9413 253.3316
  A 4.24 1.34 -155.6 0 0 173.6336 250.3597
  A 4.24 1.34 -155.6 0 0 169.2187 249.8284
  Z
  M 274.77 277.01
  A 0.65 0.65 0.0 0 0 275.94 276.62
  Q 275.89 266.77 271.38 258.13
  Q 270.69 256.82 269.78 255.76
  A 0.97 0.96 -70.4 0 0 268.10 256.56
  L 270.76 271.28
  A 1.94 1.93 21.6 0 0 271.13 272.13
  L 274.77 277.01
  Z
  M 239.49 257.95
  C 243.55 261.99 248.40 262.97 252.65 264.93
  A 3.65 3.44 60.8 0 0 253.54 265.21
  L 260.64 266.52
  A 0.68 0.68 0.0 0 0 261.20 265.32
  L 255.31 260.51
  A 5.32 5.24 66.5 0 0 252.40 259.34
  Q 251.11 259.18 245.25 258.09
  C 243.50 257.76 241.34 256.56 239.63 257.28
  A 0.42 0.41 -33.7 0 0 239.49 257.95
  Z
  M 300.52 273.16
  C 304.08 270.38 306.58 265.05 309.14 260.62
  A 1.98 1.91 31.2 0 0 308.45 258.01
  C 306.65 256.87 303.19 259.71 301.89 261.15
  Q 296.06 267.57 293.41 274.50
  A 8.83 8.79 -18.3 0 1 292.61 276.08
  Q 290.78 278.95 289.14 282.61
  Q 288.97 282.99 289.12 283.26
  Q 289.43 283.87 290.02 283.57
  C 291.83 282.63 292.99 281.56 293.85 279.46
  Q 296.22 273.69 301.52 267.12
  A 0.37 0.37 0.0 0 1 302.14 267.18
  L 302.30 267.50
  A 0.47 0.46 -48.1 0 1 302.32 267.89
  L 300.25 272.95
  A 0.18 0.18 0.0 0 0 300.52 273.16
  Z
  M 312.12 275.96
  A 0.68 0.67 -83.5 0 0 312.92 276.97
  L 316.03 275.78
  A 0.79 0.78 11.8 0 0 316.31 275.60
  C 320.17 271.77 321.42 270.36 325.32 267.30
  C 326.96 266.01 330.01 263.54 330.33 262.21
  A 0.63 0.63 0.0 0 0 329.60 261.45
  C 327.13 261.93 325.78 262.98 323.21 264.73
  Q 316.73 269.13 312.12 275.96
  Z
  M 168.10 269.07
  Q 165.05 267.06 161.99 265.07
  Q 159.03 263.14 156.45 263.07
  A 0.52 0.51 75.3 0 0 156.00 263.85
  Q 160.63 271.71 168.64 274.12
  Q 171.72 275.04 173.88 274.72
  A 0.46 0.46 0.0 0 0 174.05 273.86
  L 167.19 269.85
  A 0.21 0.20 -54.9 0 1 167.14 269.54
  L 167.15 269.54
  A 0.29 0.29 0.0 0 1 167.59 269.47
  Q 167.86 269.70 167.96 269.69
  A 0.34 0.34 0.0 0 0 168.10 269.07
  Z
  M 191.1200 265.9281
  A 1.47 0.46 -99.0 0 0 190.8957 267.4520
  A 1.47 0.46 -99.0 0 0 191.5800 268.8319
  A 1.47 0.46 -99.0 0 0 191.8043 267.3080
  A 1.47 0.46 -99.0 0 0 191.1200 265.9281
  Z
  M 187.39 278.60
  Q 186.97 277.26 185.63 276.09
  Q 182.60 273.41 179.11 269.66
  Q 178.34 268.83 177.39 268.45
  A 0.58 0.57 83.8 0 0 176.70 269.31
  L 180.98 275.57
  A 1.21 1.19 -3.1 0 0 181.42 275.96
  L 186.97 278.94
  A 0.29 0.29 0.0 0 0 187.39 278.60
  Z
  M 207.90 288.43
  C 211.79 283.89 212.96 275.60 213.36 270.01
  Q 213.40 269.45 213.16 269.03
  A 0.97 0.83 -46.5 0 0 211.61 269.19
  Q 210.03 271.79 209.31 275.51
  Q 209.11 276.56 207.32 288.17
  A 0.33 0.33 0.0 0 0 207.90 288.43
  Z
  M 276.57 285.44
  A 0.28 0.28 0.0 0 0 276.96 285.08
  Q 274.84 280.68 270.58 277.84
  A 1.26 1.19 -20.0 0 0 270.21 277.68
  L 258.70 275.02
  A 0.83 0.83 0.0 0 0 257.76 276.16
  C 258.61 278.08 261.59 279.60 264.01 281.19
  Q 265.66 282.27 268.86 282.83
  Q 273.30 283.59 276.57 285.44
  Z
  M 231.00 288.13
  Q 231.39 295.71 229.03 302.24
  A 0.54 0.54 0.0 0 0 229.99 302.71
  Q 234.01 296.44 234.75 289.73
  C 235.10 286.50 234.18 283.40 231.70 281.57
  A 1.79 1.79 0.0 0 0 229.00 282.29
  C 226.53 287.98 224.25 297.08 226.66 302.84
  A 0.42 0.42 0.0 0 0 227.35 302.97
  Q 227.69 302.62 227.50 301.76
  Q 227.30 300.85 227.67 300.19
  Q 229.02 297.72 229.27 292.07
  Q 229.32 291.12 230.66 288.07
  A 0.18 0.18 0.0 0 1 231.00 288.13
  Z
  M 207.35 298.68
  Q 208.34 297.10 209.42 296.44
  Q 215.45 292.76 214.93 285.72
  A 1.35 1.34 61.0 0 0 212.50 285.02
  C 209.34 289.35 205.34 295.96 204.92 301.56
  Q 204.55 306.37 205.05 308.95
  A 0.78 0.78 0.0 0 0 206.37 309.35
  C 207.14 308.57 207.11 307.18 207.64 306.23
  Q 210.60 300.89 211.56 298.83
  Q 212.10 297.69 212.04 297.21
  A 0.95 0.95 0.0 0 0 210.37 296.69
  L 208.06 299.41
  A 0.21 0.21 0.0 0 1 207.76 299.44
  L 207.42 299.15
  A 0.37 0.36 37.3 0 1 207.35 298.68
  Z
  M 258.32 313.84
  Q 258.84 313.19 258.84 312.76
  Q 258.86 308.85 259.21 305.25
  C 259.54 301.89 259.09 295.69 256.46 293.19
  A 1.09 1.09 0.0 0 0 254.62 293.95
  Q 254.44 301.06 256.43 307.94
  A 7.07 6.93 35.0 0 1 256.67 309.22
  Q 256.93 312.17 257.47 313.70
  A 0.49 0.49 0.0 0 0 258.32 313.84
  Z
  M 198.09 306.92
  Q 197.08 306.35 194.54 303.25
  C 192.35 300.56 189.12 297.97 186.30 296.57
  A 0.61 0.61 0.0 0 0 185.42 297.14
  Q 185.44 297.70 185.98 298.28
  Q 189.29 301.87 192.19 305.48
  C 193.68 307.34 195.99 308.33 198.05 307.51
  A 0.33 0.33 0.0 0 0 198.09 306.92
  Z
  M 234.52 358.84
  C 233.66 353.88 228.52 338.89 234.24 334.86
  C 236.32 333.39 237.91 334.50 238.52 336.72
  Q 240.20 342.85 240.22 349.64
  A 0.80 0.80 0.0 0 0 241.77 349.94
  L 243.56 345.55
  A 0.96 0.95 -50.9 0 0 243.47 344.66
  C 242.29 342.89 242.81 340.77 242.93 338.54
  Q 243.23 333.00 245.75 329.28
  C 247.60 326.56 252.43 324.83 252.55 329.98
  Q 252.67 334.83 249.42 340.62
  Q 249.02 341.35 249.06 342.10
  A 0.39 0.39 0.0 0 0 249.73 342.35
  C 251.88 340.19 255.62 337.63 258.73 338.64
  A 1.77 1.76 -9.6 0 1 259.61 339.26
  C 263.24 344.06 257.60 350.76 253.81 353.86
  Q 248.55 358.18 244.16 362.62
  C 242.85 363.94 241.49 364.95 239.60 365.92
  A 0.97 0.96 -27.8 0 0 239.19 367.22
  Q 244.33 376.79 247.34 383.93
  Q 249.63 389.36 252.38 393.39
  A 0.36 0.36 0.0 0 0 253.02 393.28
  Q 255.73 383.82 260.02 370.34
  C 262.96 361.12 265.43 350.30 268.60 338.96
  A 1.52 1.51 22.3 0 0 267.87 337.23
  C 265.34 335.85 260.06 332.19 259.94 328.80
  A 0.97 0.97 0.0 0 1 261.82 328.44
  Q 263.42 332.89 266.87 334.26
  A 0.22 0.22 0.0 0 0 267.11 333.90
  Q 265.00 331.62 262.99 327.25
  Q 262.89 327.04 259.81 323.63
  A 2.06 2.03 -19.6 0 0 258.35 322.95
  Q 257.38 322.91 248.66 320.87
  C 244.22 319.83 241.01 317.52 239.17 313.81
  A 1.96 1.95 -26.7 0 1 240.04 311.21
  C 243.20 309.60 248.04 310.87 251.36 311.83
  A 0.40 0.39 78.2 0 0 251.77 311.20
  C 250.27 309.36 249.00 307.93 246.64 306.86
  Q 241.95 304.74 236.49 300.27
  Q 235.42 299.39 235.04 298.67
  A 0.43 0.43 0.0 0 0 234.28 298.67
  L 232.76 301.59
  A 7.96 7.10 81.5 0 1 231.92 302.87
  Q 228.92 306.62 228.68 307.54
  Q 228.12 309.76 227.18 311.31
  C 225.23 314.52 224.89 315.81 223.20 319.82
  A 0.78 0.78 0.0 0 0 224.19 320.86
  C 228.93 319.14 232.54 314.12 234.41 309.63
  A 0.81 0.81 0.0 0 0 233.67 308.51
  L 231.64 308.47
  A 0.43 0.43 0.0 0 1 231.31 307.76
  C 232.33 306.55 235.13 304.48 236.51 306.46
  C 238.48 309.28 232.70 318.17 231.12 320.03
  A 4.76 4.64 -12.7 0 0 230.47 321.03
  Q 226.39 329.47 221.13 335.98
  A 1.03 1.02 -39.1 0 0 221.01 337.09
  Q 226.91 348.75 234.23 358.96
  A 0.16 0.16 0.0 0 0 234.52 358.84
  Z
  M 171.28 305.83
  L 167.14 304.14
  A 0.14 0.13 56.5 0 1 167.19 303.88
  Q 170.68 303.99 173.27 305.74
  A 1.37 1.35 49.3 0 0 174.60 305.85
  L 174.97 305.69
  A 0.43 0.43 0.0 0 0 175.04 304.94
  Q 165.01 298.02 152.96 299.21
  A 0.64 0.64 0.0 0 0 152.57 300.30
  C 156.56 304.29 160.26 305.36 166.45 306.57
  Q 168.83 307.03 171.25 306.34
  A 0.27 0.27 0.0 0 0 171.28 305.83
  Z
  M 199.64 307.85
  A 0.31 0.31 0.0 0 0 200.16 307.56
  Q 200.08 307.16 199.89 307.09
  A 0.37 0.35 -6.5 0 0 199.45 307.62
  Q 199.57 307.78 199.64 307.85
  Z
  M 218.4126 307.8890
  A 8.76 1.49 -92.6 0 0 217.3215 316.7076
  A 8.76 1.49 -92.6 0 0 219.2074 325.3910
  A 8.76 1.49 -92.6 0 0 220.2985 316.5724
  A 8.76 1.49 -92.6 0 0 218.4126 307.8890
  Z
  M 257.39 319.72
  Q 256.64 317.99 254.91 316.07
  C 252.69 313.62 246.39 312.77 243.38 312.83
  A 0.91 0.91 0.0 0 0 242.86 314.47
  L 247.32 317.79
  A 6.15 6.08 62.7 0 0 251.11 319.02
  Q 253.27 318.95 256.78 320.35
  A 0.47 0.47 0.0 0 0 257.39 319.72
  Z
  M 302.28 327.78
  L 308.80 327.44
  A 2.93 2.87 -63.6 0 0 310.35 326.90
  Q 315.12 323.51 324.71 318.46
  Q 325.13 318.25 325.24 317.97
  A 0.50 0.50 0.0 0 0 324.79 317.28
  C 317.73 317.09 310.05 319.50 304.93 324.60
  Q 303.54 325.99 302.03 327.03
  A 0.41 0.41 0.0 0 0 302.28 327.78
  Z
  M 219.94 332.53
  A 0.35 0.35 0.0 0 0 220.57 332.80
  L 227.83 322.10
  A 0.70 0.70 0.0 0 0 226.93 321.09
  L 223.13 323.07
  A 2.98 2.97 -7.5 0 0 221.60 325.06
  L 219.94 332.53
  Z
  M 197.17 326.39
  L 195.85 328.63
  A 0.28 0.28 0.0 0 0 195.95 329.01
  L 201.75 332.43
  A 8.09 1.56 30.5 0 0 209.52 335.19
  L 209.54 335.15
  A 8.09 1.56 30.5 0 0 203.36 329.70
  L 197.56 326.29
  A 0.28 0.28 0.0 0 0 197.17 326.39
  Z
  M 248.92 329.79
  Q 246.48 331.25 245.70 334.53
  Q 244.48 339.70 243.88 344.68
  A 0.54 0.54 0.0 0 0 244.81 345.11
  Q 248.80 340.66 249.22 335.25
  Q 249.53 331.22 249.43 330.06
  A 0.34 0.34 0.0 0 0 248.92 329.79
  Z
  M 184.22 333.59
  Q 184.08 333.42 183.39 333.15
  C 177.42 330.82 170.35 330.48 164.81 334.40
  A 0.86 0.86 0.0 0 0 164.70 335.71
  C 170.04 340.98 176.94 339.61 184.50 337.97
  A 2.63 2.63 0.0 0 0 186.10 336.90
  L 186.18 336.79
  A 0.48 0.48 0.0 0 0 185.73 336.04
  Q 180.88 336.63 175.02 335.77
  A 0.37 0.36 -45.9 0 1 175.01 335.05
  Q 178.77 334.35 183.57 334.77
  A 0.74 0.74 0.0 0 0 184.22 333.59
  Z
  M 237.46 359.34
  L 239.09 354.15
  A 2.59 2.51 -44.2 0 0 239.13 352.75
  Q 238.07 348.63 236.76 338.15
  A 0.82 0.76 75.1 0 0 235.69 337.47
  Q 235.13 337.71 234.89 338.71
  C 233.13 346.05 234.99 351.64 236.75 359.32
  A 0.37 0.37 0.0 0 0 237.46 359.34
  Z
  M 249.34 346.32
  Q 249.18 346.14 249.16 345.85
  A 0.59 0.58 -4.5 0 0 248.53 345.32
  Q 245.76 345.51 244.76 347.40
  Q 240.84 354.82 238.61 363.57
  A 0.42 0.42 0.0 0 0 239.30 363.99
  L 247.13 356.88
  A 1.46 1.46 0.0 0 0 247.61 355.71
  L 247.53 354.14
  A 1.12 1.12 0.0 0 1 248.59 352.96
  L 250.59 352.86
  A 0.71 0.62 -58.0 0 0 250.86 352.78
  C 254.37 350.80 259.12 345.69 256.84 341.40
  A 0.94 0.94 0.0 0 0 255.31 341.21
  Q 254.46 342.15 253.89 342.23
  C 252.23 342.46 250.97 343.78 249.38 344.19
  A 0.38 0.38 0.0 0 0 249.15 344.76
  L 249.43 345.21
  A 0.46 0.45 -32.1 0 0 250.05 345.35
  L 253.51 343.18
  A 0.36 0.36 0.0 0 1 254.01 343.67
  Q 253.06 345.26 250.67 345.60
  Q 249.96 345.71 249.83 346.20
  A 0.29 0.29 0.0 0 1 249.34 346.32
  Z
  M 227.76 361.52
  A 0.46 0.46 0.0 0 0 228.09 360.70
  Q 221.05 354.83 211.37 354.50
  A 0.65 0.65 0.0 0 0 210.82 355.54
  Q 211.53 356.52 212.23 356.73
  Q 216.22 357.89 220.72 360.62
  A 3.30 3.27 -26.8 0 0 222.20 361.10
  L 227.76 361.52
  Z
  M 191.53 366.23
  Q 198.80 364.15 203.88 363.97
  A 0.57 0.56 51.4 0 0 204.00 362.86
  Q 202.25 362.39 197.71 361.55
  C 191.09 360.32 185.87 361.93 179.94 365.71
  Q 179.28 366.13 178.98 366.69
  A 0.93 0.92 29.0 0 0 179.34 367.92
  Q 188.20 373.12 198.13 369.87
  Q 198.68 369.69 205.46 366.76
  A 0.54 0.54 0.0 0 0 205.78 366.24
  L 205.76 365.76
  A 0.30 0.30 0.0 0 0 205.43 365.48
  L 191.62 366.62
  A 0.20 0.19 -9.1 0 1 191.42 366.48
  L 191.41 366.44
  A 0.18 0.17 -15.7 0 1 191.53 366.23
  Z"
/>
<ellipse fill="#0f2219" cx="0.00" cy="0.00" transform="translate(313.69,130.20) rotate(-47.7)" rx="2.52" ry="0.78"/>
<ellipse fill="#0f2219" cx="0.00" cy="0.00" transform="translate(258.03,157.58) rotate(-133.3)" rx="4.20" ry="0.60"/>
<rect fill="#0f2219" x="-0.92" y="-5.35" transform="translate(306.21,174.46) rotate(24.1)" width="1.84" height="10.70" rx="0.89"/>
<path fill="#0f2219" d="
  M 255.49 212.86
  Q 256.15 213.09 256.85 213.23
  A 0.26 0.26 0.0 0 1 256.94 213.71
  Q 256.81 213.79 256.48 213.82
  Q 256.28 213.83 255.28 213.49
  Q 254.28 213.15 254.13 213.02
  Q 253.89 212.80 253.83 212.65
  A 0.26 0.26 0.0 0 1 254.19 212.33
  Q 254.83 212.64 255.49 212.86
  Z"
/>
<path fill="#0f2219" d="
  M 318.52 236.72
  A 0.68 0.49 -24.2 0 1 319.02 235.86
  C 322.00 235.02 324.86 235.17 327.67 232.27
  A 1.43 1.43 0.0 0 1 329.87 232.47
  L 330.09 232.79
  A 2.05 2.04 -39.4 0 1 329.83 235.40
  C 327.50 237.69 322.83 237.67 319.76 237.28
  Q 318.90 237.17 318.52 236.72
  Z"
/>
<path fill="#0f2219" d="
  M 318.18 279.83
  A 0.19 0.19 0.0 0 1 318.43 279.73
  L 319.70 280.23
  A 5.88 0.69 21.7 0 1 324.91 283.05
  L 324.89 283.10
  A 5.88 0.69 21.7 0 1 319.17 281.57
  L 317.89 281.06
  A 0.19 0.19 0.0 0 1 317.79 280.82
  L 318.18 279.83
  Z"
/>
<path fill="#0f2219" d="
  M 328.42 282.09
  Q 330.70 282.79 331.82 284.12
  A 2.10 1.71 -36.9 0 1 331.14 286.86
  C 328.56 288.66 325.03 288.16 321.25 287.98
  Q 314.72 287.67 309.03 283.17
  A 1.52 1.50 -69.9 0 1 308.45 281.90
  L 308.46 281.64
  A 0.31 0.31 0.0 0 1 308.93 281.39
  C 314.36 284.65 318.32 286.85 323.04 286.24
  Q 326.46 285.79 329.00 285.93
  A 1.12 1.11 -23.5 0 0 329.78 283.96
  Q 328.09 282.55 328.07 282.51
  A 0.30 0.30 0.0 0 1 328.42 282.09
  Z"
/>
<ellipse fill="#0f2219" cx="0.00" cy="0.00" transform="translate(245.25,299.02) rotate(-116.1)" rx="4.35" ry="1.13"/>
<path fill="#0f2219" d="
  M 276.55 336.00
  L 276.97 336.02
  A 2.08 2.08 0.0 0 1 278.78 337.26
  L 281.84 344.11
  A 1.32 1.32 0.0 0 0 282.08 344.47
  Q 285.22 347.86 290.11 346.56
  A 0.64 0.63 71.7 0 0 290.54 345.70
  Q 289.41 342.88 286.59 340.39
  A 1.82 1.61 53.9 0 1 286.86 337.46
  Q 289.02 336.66 290.82 338.60
  A 0.87 0.86 40.5 0 1 290.91 339.66
  Q 290.90 339.68 290.70 339.85
  A 0.89 0.89 0.0 0 0 290.52 340.94
  C 291.76 343.21 295.34 348.42 291.31 350.03
  A 1.82 1.73 -53.2 0 1 290.55 350.16
  C 285.80 349.86 282.70 349.57 279.60 345.66
  Q 278.39 344.14 277.81 341.33
  Q 277.38 339.25 276.04 336.80
  A 0.55 0.54 -12.9 0 1 276.55 336.00
  Z"
/>
<path fill="#0f2219" d="
  M 293.77 340.23
  Q 295.47 340.32 296.53 341.17
  C 298.75 342.96 301.96 346.73 304.95 348.29
  C 307.66 349.70 314.01 352.57 317.10 351.50
  A 1.20 1.20 0.0 0 0 317.60 349.57
  C 313.50 344.93 306.83 342.93 300.60 341.46
  A 0.60 0.60 0.0 0 1 300.25 340.54
  L 300.53 340.13
  A 1.23 1.21 -66.0 0 1 301.83 339.62
  C 308.77 341.31 319.82 344.24 321.18 350.87
  A 2.96 2.92 -14.0 0 1 319.11 354.26
  Q 316.74 354.96 314.05 354.42
  Q 300.82 351.76 293.40 340.88
  A 0.42 0.42 0.0 0 1 293.77 340.23
  Z"
/>
<ellipse fill="#0f2219" cx="0.00" cy="0.00" transform="translate(244.42,356.83) rotate(-39.7)" rx="1.16" ry="0.82"/>
<rect fill="#0f2219" x="-10.46" y="-0.73" transform="translate(155.08,383.17) rotate(-1.3)" width="20.92" height="1.46" rx="0.71"/>
<rect fill="#0f2219" x="-13.66" y="-0.59" transform="translate(277.72,382.83) rotate(1.2)" width="27.32" height="1.18" rx="0.57"/>
<path fill="#0f2219" d="
  M 172.55 392.64
  A 0.38 0.38 0.0 0 1 172.14 392.28
  L 172.14 392.27
  A 0.20 0.20 0.0 0 1 172.32 392.06
  Q 180.66 391.29 184.74 390.96
  Q 186.85 390.79 191.22 390.11
  Q 194.11 389.66 197.75 389.67
  Q 215.32 389.72 232.52 390.10
  A 2.22 2.20 71.2 0 1 234.21 390.94
  L 234.28 391.03
  A 0.49 0.49 0.0 0 1 233.89 391.82
  Q 218.75 391.63 199.55 391.54
  C 191.14 391.50 181.09 392.07 172.55 392.64
  Z"
/>
<path fill="#0f2219" d="
  M 158.09 405.80
  Q 159.20 406.13 160.83 406.28
  Q 167.91 406.94 182.51 407.23
  Q 195.45 407.48 211.18 407.06
  A 0.91 0.91 0.0 0 1 212.11 407.88
  L 212.11 407.93
  A 0.71 0.71 0.0 0 1 211.43 408.71
  Q 183.05 409.66 157.76 407.85
  Q 155.14 407.67 153.41 406.11
  A 0.85 0.85 0.0 0 1 153.47 404.80
  Q 154.70 403.88 156.71 403.63
  Q 163.37 402.81 168.75 402.43
  Q 190.08 400.92 210.00 400.02
  Q 215.04 399.80 220.45 399.07
  Q 226.45 398.26 230.84 397.75
  A 0.73 0.73 0.0 0 1 231.63 398.65
  L 231.51 399.01
  A 1.38 1.38 0.0 0 1 230.28 399.94
  L 225.58 400.18
  A 1.20 1.08 -57.6 0 0 225.08 400.32
  Q 222.79 401.59 218.26 401.73
  Q 190.97 402.58 185.00 403.04
  C 175.61 403.77 165.34 404.06 158.15 405.09
  A 0.37 0.36 -40.5 0 0 158.09 405.80
  Z"
/>
<rect fill="#0f2219" x="-21.50" y="-0.68" transform="translate(267.71,406.48) rotate(0.6)" width="43.00" height="1.36" rx="0.66"/>
<path fill="#0f2219" d="
  M 232.70 418.40
  L 232.67 417.91
  A 0.33 0.33 0.0 0 0 232.35 417.59
  L 174.06 416.67
  A 1.79 0.08 3.8 0 1 173.85 416.65
  C 167.67 415.51 160.57 416.60 155.56 416.04
  Q 149.81 415.41 147.40 415.61
  Q 146.24 415.71 139.26 415.00
  Q 135.08 414.58 122.75 415.01
  Q 118.72 415.15 117.26 415.05
  C 110.94 414.61 105.74 415.49 99.27 415.32
  C 96.55 415.25 93.39 416.13 91.25 416.04
  Q 75.89 415.39 69.42 415.62
  Q 65.67 415.76 51.09 415.01
  Q 41.87 414.54 32.63 415.04
  A 0.69 0.68 -69.4 0 1 32.11 413.88
  L 32.28 413.71
  A 0.83 0.70 -73.6 0 1 32.60 413.50
  Q 34.11 412.95 36.75 412.93
  Q 42.59 412.89 62.86 413.03
  Q 69.17 413.08 79.63 413.39
  C 88.56 413.66 97.90 413.09 105.48 413.02
  Q 133.19 412.77 138.75 413.01
  C 141.99 413.15 145.14 413.73 148.17 413.62
  Q 149.09 413.59 160.25 414.03
  Q 184.76 414.98 225.53 415.52
  C 233.36 415.62 243.50 416.22 252.42 416.64
  A 1.43 1.42 -2.1 0 1 253.77 417.88
  L 253.78 417.92
  A 0.94 0.93 85.1 0 1 252.90 418.97
  L 210.31 421.16
  A 0.39 0.38 -3.0 0 1 209.90 420.80
  L 209.89 420.45
  A 0.49 0.49 0.0 0 1 210.36 419.93
  L 232.34 418.80
  A 0.38 0.38 0.0 0 0 232.70 418.40
  Z"
/>
<path fill="#0f2219" d="
  M 70.43 432.49
  L 70.43 432.47
  A 0.56 0.56 0.0 0 1 71.02 431.93
  C 76.87 432.26 83.38 431.28 88.52 431.23
  Q 93.25 431.19 112.34 430.11
  Q 122.28 429.55 136.17 429.40
  Q 193.22 428.77 205.07 428.68
  C 209.54 428.65 213.91 429.32 217.74 429.55
  A 0.44 0.43 -73.6 0 1 218.08 430.20
  Q 217.93 430.49 217.50 430.48
  Q 215.04 430.43 194.00 430.41
  Q 186.23 430.41 170.48 430.70
  Q 149.05 431.09 142.25 430.75
  Q 138.54 430.57 138.00 430.55
  Q 131.25 430.40 99.35 432.15
  C 89.45 432.70 81.51 432.81 70.94 433.00
  A 0.50 0.50 0.0 0 1 70.43 432.49
  Z"
/>
<path fill="#0f2219" d="
  M 146.10 447.77
  L 146.09 448.14
  A 0.19 0.19 0.0 0 0 146.27 448.34
  L 171.43 449.29
  A 1.48 1.27 -30.9 0 1 171.72 449.34
  L 173.22 449.79
  A 5.65 5.54 53.3 0 0 174.77 450.03
  Q 176.38 450.05 187.75 450.19
  Q 187.89 450.20 192.50 450.65
  Q 196.80 451.07 217.08 450.92
  A 0.53 0.52 1.0 0 1 217.61 451.46
  L 217.59 451.78
  A 0.30 0.30 0.0 0 1 217.29 452.07
  Q 207.64 451.94 175.50 451.87
  Q 174.28 451.87 171.08 451.20
  A 2.89 2.57 -34.3 0 0 170.61 451.14
  L 147.27 449.90
  A 8.54 7.98 51.3 0 1 145.82 449.69
  L 141.66 448.69
  A 0.89 0.89 0.0 0 1 141.69 446.96
  Q 145.48 446.19 154.20 445.29
  Q 157.20 444.97 161.70 444.21
  Q 165.16 443.63 169.26 443.68
  C 170.83 443.70 172.16 443.16 173.60 443.09
  Q 186.56 442.46 198.37 441.62
  Q 210.71 440.74 223.15 440.71
  Q 258.60 440.64 286.86 441.62
  A 0.66 0.66 0.0 0 1 286.97 442.92
  Q 285.13 443.32 282.76 443.12
  Q 274.13 442.41 268.00 442.48
  C 252.03 442.66 233.02 442.04 216.44 442.11
  C 211.32 442.14 206.87 442.80 200.75 443.01
  Q 173.88 443.97 146.41 447.43
  A 0.37 0.36 88.1 0 0 146.10 447.77
  Z"
/>
<rect fill="#0f2219" x="-5.02" y="-0.32" transform="translate(132.85,448.68) rotate(-0.3)" width="10.04" height="0.64" rx="0.31"/>
</svg>
