<?xml version="1.0" encoding="UTF-8" standalone="no"?>
<!DOCTYPE svg PUBLIC "-//W3C//DTD SVG 1.1//EN" "http://www.w3.org/Graphics/SVG/1.1/DTD/svg11.dtd">
<svg xmlns="http://www.w3.org/2000/svg" version="1.1" viewBox="0.00 0.00 546.00 457.00">
<g stroke-width="2.00" fill="none" stroke-linecap="butt">
<path stroke="#22392d" vector-effect="non-scaling-stroke" d="
  M 502.96 298.36
  L 504.79 298.37"
/>
<path stroke="#22392d" vector-effect="non-scaling-stroke" d="
  M 471.04 300.11
  L 469.52 300.15"
/>
<path stroke="#22392d" vector-effect="non-scaling-stroke" d="
  M 206.22 300.52
  Q 203.85 300.65 204.18 301.49"
/>
<path stroke="#22392d" vector-effect="non-scaling-stroke" d="
  M 207.04 300.59
  L 208.03 300.66"
/>
<path stroke="#22392d" vector-effect="non-scaling-stroke" d="
  M 219.48 303.63
  Q 219.90 303.70 219.89 303.25
  Q 219.89 302.66 219.28 302.58"
/>
<path stroke="#22392d" vector-effect="non-scaling-stroke" d="
  M 219.77 319.36
  L 216.12 317.83"
/>
<path stroke="#22392d" vector-effect="non-scaling-stroke" d="
  M 153.26 316.67
  Q 151.03 316.82 151.82 317.74"
/>
<path stroke="#22392d" vector-effect="non-scaling-stroke" d="
  M 209.45 318.98
  Q 210.79 319.38 211.96 318.98"
/>
<path stroke="#22392d" vector-effect="non-scaling-stroke" d="
  M 204.47 321.35
  L 200.55 321.41"
/>
<path stroke="#22392d" vector-effect="non-scaling-stroke" d="
  M 201.97 323.16
  L 200.71 323.12"
/>
<path stroke="#22392d" vector-effect="non-scaling-stroke" d="
  M 198.97 323.13
  L 197.53 323.14"
/>
<path stroke="#22392d" vector-effect="non-scaling-stroke" d="
  M 156.98 316.76
  L 155.71 316.74"
/>
<path stroke="#22392d" vector-effect="non-scaling-stroke" d="
  M 333.79 334.90
  L 332.45 335.00"
/>
<path stroke="#22392d" vector-effect="non-scaling-stroke" d="
  M 183.18 336.92
  L 180.56 336.59"
/>
<path stroke="#22392d" vector-effect="non-scaling-stroke" d="
  M 186.04 337.25
  Q 187.22 337.51 188.54 337.36"
/>
<path stroke="#22392d" vector-effect="non-scaling-stroke" d="
  M 328.70 345.72
  Q 329.53 345.96 330.29 345.71"
/>
<path stroke="#22392d" vector-effect="non-scaling-stroke" d="
  M 329.96 347.40
  L 328.54 347.36"
/>
<path stroke="#22392d" vector-effect="non-scaling-stroke" d="
  M 225.79 348.89
  L 226.71 348.87"
/>
<path stroke="#3b4b4a" vector-effect="non-scaling-stroke" d="
  M 266.27 360.59
  L 266.57 363.71"
/>
<path stroke="#495958" vector-effect="non-scaling-stroke" d="
  M 248.80 362.11
  L 252.54 362.12"
/>
<path stroke="#495958" vector-effect="non-scaling-stroke" d="
  M 255.76 361.83
  L 257.32 361.75
  A 0.13 0.12 -43.0 0 0 257.33 361.50
  L 254.45 361.18"
/>
<path stroke="#22392d" vector-effect="non-scaling-stroke" d="
  M 231.00 369.11
  L 231.96 369.16"
/>
<path stroke="#22392d" vector-effect="non-scaling-stroke" d="
  M 231.95 370.27
  L 229.78 370.07"
/>
<path stroke="#22392d" vector-effect="non-scaling-stroke" d="
  M 232.21 331.72
  A 26.52 1.27 2.2 0 0 231.46 331.42"
/>
</g>
<path fill="#142b1f" d="
  M 57.83 152.80
  A 0.63 0.63 0.0 0 1 57.89 151.94
  C 62.31 147.72 68.09 143.06 71.60 139.58
  C 78.17 133.07 84.81 128.75 90.47 122.42
  C 97.70 114.33 102.39 108.14 107.55 100.42
  C 110.90 95.41 114.07 92.68 118.87 89.11
  C 122.51 86.40 127.70 83.47 131.87 79.71
  Q 139.74 72.63 145.37 67.41
  Q 152.44 60.85 158.18 68.33
  Q 163.27 74.95 167.84 80.70
  C 173.51 87.84 182.88 97.23 187.29 102.04
  C 191.55 106.68 196.89 113.45 202.01 118.78
  Q 204.32 121.17 207.80 125.51
  Q 213.93 133.14 220.99 140.82
  Q 221.15 141.00 221.20 141.42
  A 0.44 0.44 0.0 0 1 220.56 141.87
  Q 219.39 141.28 218.14 139.85
  C 213.26 134.29 206.32 125.94 200.44 119.95
  Q 196.31 115.74 174.33 92.11
  Q 168.58 85.93 164.80 80.92
  Q 158.98 73.19 155.68 69.66
  Q 154.47 68.37 152.52 67.32
  A 1.38 1.36 46.4 0 0 151.29 67.28
  Q 147.97 68.86 146.89 69.89
  Q 135.97 80.34 129.50 85.25
  Q 126.70 87.37 116.69 93.93
  A 15.42 15.10 2.2 0 0 113.12 97.17
  Q 106.11 105.90 100.59 113.30
  C 97.05 118.05 94.28 120.92 90.03 125.46
  C 85.02 130.80 77.42 135.97 74.01 139.26
  Q 66.19 146.83 58.68 152.91
  A 0.59 0.59 0.0 0 1 57.85 152.82
  L 57.83 152.80
  Z"
/>
<path fill="#626b74" d="
  M 139.93 85.81
  Q 135.22 96.45 126.82 105.08
  Q 103.91 128.62 103.36 129.11
  Q 102.03 130.31 100.78 130.76
  A 0.46 0.46 0.0 0 1 100.29 130.00
  Q 108.85 121.29 124.27 105.77
  C 127.35 102.67 131.22 98.52 133.54 94.78
  Q 137.06 89.13 139.62 85.56
  A 0.15 0.15 0.0 0 1 139.82 85.51
  L 139.83 85.51
  A 0.24 0.23 -64.7 0 1 139.93 85.81
  Z"
/>
<rect fill="#626b74" x="-0.70" y="-7.29" transform="translate(157.56,92.78) rotate(-41.0)" width="1.40" height="14.58" rx="0.69"/>
<rect fill="#626b74" x="-0.63" y="-8.40" transform="translate(171.79,108.41) rotate(-37.6)" width="1.26" height="16.80" rx="0.61"/>
<path fill="#626b74" d="
  M 154.84 114.63
  Q 155.28 113.01 156.32 111.99
  A 0.71 0.71 0.0 0 1 157.32 112.00
  Q 159.34 114.07 160.46 116.43
  A 0.42 0.42 0.0 0 1 159.77 116.89
  L 157.25 114.05
  A 0.69 0.68 -41.7 0 0 156.29 114.00
  L 155.28 114.90
  A 0.27 0.27 0.0 0 1 154.84 114.63
  Z"
/>
<path fill="#30463b" d="
  M 280.70 171.78
  A 0.20 0.20 0.0 0 1 280.65 172.05
  L 280.44 172.19
  A 0.04 0.03 -38.0 0 1 280.39 172.19
  Q 276.99 168.71 273.35 164.17
  Q 269.42 159.28 267.03 156.73
  C 261.50 150.82 258.56 147.30 253.20 142.46
  C 245.60 135.59 239.36 127.79 232.85 119.90
  Q 230.75 117.36 228.05 115.38
  A 2.17 2.15 -45.7 0 0 225.45 115.42
  Q 218.41 120.84 210.52 125.04
  A 0.74 0.73 61.7 0 1 209.53 124.74
  L 209.52 124.72
  A 0.79 0.79 0.0 0 1 209.78 123.74
  L 224.40 113.61
  A 3.37 3.37 0.0 0 1 228.20 113.58
  Q 231.44 115.74 235.03 119.62
  C 240.60 125.65 245.24 132.76 252.07 138.88
  Q 268.85 153.91 280.70 171.78
  Z"
/>
<path fill="#30463b" d="
  M 195.35 140.64
  Q 201.54 148.18 209.00 155.76
  Q 213.17 160.00 214.20 161.51
  A 0.27 0.27 0.0 0 1 213.91 161.92
  Q 213.44 161.79 213.07 161.46
  Q 201.77 151.36 193.93 141.81
  Q 186.08 132.26 178.36 119.22
  Q 178.10 118.79 178.07 118.31
  A 0.27 0.27 0.0 0 1 178.52 118.10
  Q 179.81 119.40 183.16 124.32
  Q 189.15 133.10 195.35 140.64
  Z"
/>
<ellipse fill="#626b74" cx="0.00" cy="0.00" transform="translate(163.47,121.94) rotate(-129.3)" rx="2.62" ry="0.65"/>
<rect fill="#30463b" x="-0.73" y="-20.64" transform="translate(184.97,141.66) rotate(-40.0)" width="1.46" height="41.28" rx="0.72"/>
<path fill="#142b1f" d="
  M 122.18 196.77
  Q 123.71 197.09 124.99 197.87
  A 2.14 2.07 61.9 0 0 125.89 198.16
  Q 127.97 198.31 129.76 199.77
  A 0.05 0.05 0.0 0 0 129.83 199.76
  L 130.49 199.17
  A 0.18 0.18 0.0 0 0 130.46 198.88
  Q 125.57 196.12 122.38 191.90
  A 0.46 0.46 0.0 0 0 121.56 192.13
  Q 121.31 194.49 122.18 196.77
  Q 122.11 196.66 121.82 196.87
  A 0.53 0.52 -19.0 0 0 121.61 197.29
  L 121.57 203.99
  A 3.52 3.52 0.0 0 0 122.46 206.33
  L 130.41 215.24
  A 1.16 1.16 0.0 0 0 130.84 215.54
  L 136.60 217.90
  A 3.79 3.66 55.9 0 0 137.88 218.17
  Q 139.36 218.22 141.66 217.76
  A 2.08 1.91 -13.6 0 1 144.03 219.07
  C 144.41 220.37 143.53 220.95 142.42 221.89
  C 138.26 225.40 135.03 223.11 130.96 221.19
  A 0.93 0.92 -52.2 0 0 129.96 221.32
  Q 129.53 221.69 129.31 222.21
  A 0.62 0.61 39.5 0 1 128.24 222.31
  L 122.61 214.20
  A 0.90 0.89 -44.7 0 1 122.62 213.18
  L 123.53 211.90
  A 0.80 0.77 60.8 0 0 123.68 211.33
  Q 123.59 210.40 122.58 209.78
  A 0.98 0.76 -83.8 0 0 121.47 210.93
  Q 121.76 212.61 121.59 213.50
  C 121.13 216.00 121.47 218.05 121.41 222.24
  A 4.38 4.34 -62.3 0 0 122.18 224.75
  Q 124.90 228.71 129.60 230.63
  A 1.34 1.26 40.6 0 1 129.85 232.96
  Q 129.44 233.19 129.06 233.55
  A 0.71 0.71 0.0 0 0 128.90 234.37
  C 129.91 236.54 135.90 239.37 138.29 240.40
  A 1.03 1.01 -82.0 0 1 138.90 241.22
  L 139.03 242.40
  A 2.25 2.24 -88.5 0 0 140.89 244.37
  Q 143.49 244.81 147.33 244.87
  Q 148.43 244.89 148.48 245.79
  C 148.60 248.33 144.96 250.86 142.98 251.12
  Q 139.13 251.63 135.80 250.78
  A 0.36 0.36 0.0 0 0 135.45 251.37
  Q 137.18 253.26 137.30 253.56
  A 1.05 1.05 0.0 0 1 135.75 254.83
  L 132.53 252.68
  A 1.47 1.45 53.4 0 0 131.31 252.49
  Q 128.83 253.23 127.72 252.34
  Q 124.68 249.94 123.00 245.53
  A 0.28 0.28 0.0 0 0 122.64 245.37
  L 122.25 245.51
  A 0.41 0.41 0.0 0 0 122.00 246.03
  C 123.77 251.11 130.93 259.62 136.96 261.80
  Q 143.71 264.24 145.90 264.88
  A 1.66 1.65 39.6 0 1 146.19 267.94
  Q 143.26 269.44 140.00 268.98
  Q 138.88 268.83 138.53 269.14
  Q 137.98 269.64 137.62 270.49
  A 0.84 0.84 0.0 0 1 136.56 270.95
  L 126.80 267.33
  A 0.46 0.46 0.0 0 0 126.27 268.04
  Q 128.54 271.03 131.75 273.50
  Q 137.09 277.61 141.93 280.66
  A 1.78 1.78 0.0 0 0 142.58 280.91
  L 147.49 281.77
  A 1.18 1.12 65.0 0 1 147.92 281.94
  Q 148.66 282.39 148.96 283.48
  A 0.69 0.69 0.0 0 0 149.87 283.94
  C 151.89 283.15 153.69 281.31 155.96 280.81
  Q 157.46 280.49 158.25 278.78
  A 0.81 0.80 -9.3 0 0 156.96 277.86
  Q 154.55 280.15 151.23 280.97
  A 0.87 0.86 -74.1 0 1 150.42 279.51
  L 154.27 275.71
  A 0.17 0.09 -61.8 0 1 154.33 275.67
  L 161.66 271.86
  A 1.50 1.49 6.5 0 0 162.14 271.48
  L 167.67 265.03
  A 2.87 2.85 -24.8 0 0 168.35 263.21
  L 168.38 256.74
  A 0.31 0.30 62.8 0 0 167.83 256.56
  L 159.63 268.04
  A 0.52 0.51 -51.9 0 1 158.88 268.14
  Q 158.65 267.95 158.09 267.47
  A 1.88 1.83 45.2 0 0 155.69 267.43
  Q 153.16 269.54 150.70 268.10
  A 1.75 1.71 -53.5 0 1 150.33 265.44
  C 152.21 263.37 156.18 263.41 156.98 261.03
  A 1.88 1.86 85.6 0 1 157.90 259.95
  Q 160.84 258.39 163.08 255.62
  A 0.80 0.80 0.0 0 0 162.80 254.40
  C 161.91 253.98 161.24 253.79 161.05 252.95
  Q 160.95 252.48 160.72 252.24
  A 1.11 1.10 62.0 0 0 159.65 251.91
  C 157.69 252.38 154.99 253.02 153.35 251.47
  A 1.43 1.43 0.0 0 1 153.74 249.13
  C 162.23 245.24 167.76 239.98 168.79 230.29
  A 0.38 0.36 -59.4 0 0 168.74 230.07
  L 168.67 229.95
  A 0.74 0.74 0.0 0 0 167.33 230.09
  Q 166.30 233.27 163.29 234.38
  A 0.35 0.34 66.3 0 1 162.86 234.21
  L 162.73 233.92
  A 0.18 0.17 67.6 0 1 162.83 233.67
  Q 164.16 233.23 164.66 232.50
  A 1.41 1.39 -42.7 0 0 164.73 231.03
  L 164.71 231.01
  A 0.59 0.59 0.0 0 0 163.74 230.91
  Q 161.09 233.97 157.72 231.23
  A 1.00 1.00 0.0 0 1 157.82 229.61
  Q 159.74 228.41 161.24 228.09
  A 2.15 2.09 12.8 0 0 162.42 227.37
  Q 165.52 223.61 168.46 220.11
  Q 169.02 219.43 168.98 217.54
  A 0.46 0.45 79.7 0 0 168.38 217.12
  Q 168.35 217.13 166.61 218.81
  Q 164.29 221.07 161.24 219.25
  C 159.94 218.48 160.28 217.18 161.20 216.27
  A 1.01 1.01 0.0 0 1 162.73 216.42
  L 163.61 217.69
  A 0.86 0.84 55.1 0 0 164.79 217.91
  L 167.95 215.72
  A 0.95 0.94 33.8 0 0 167.61 214.02
  Q 164.49 213.33 163.52 209.63
  A 1.23 1.22 82.8 0 1 164.71 208.09
  L 165.76 208.09
  A 1.01 1.01 0.0 0 1 166.76 209.13
  Q 166.69 212.07 167.98 211.62
  A 0.95 0.83 53.2 0 0 168.10 210.08
  C 166.27 208.56 167.99 206.98 169.02 204.72
  A 0.86 0.78 -35.0 0 0 169.10 204.37
  L 169.16 190.55
  A 0.88 0.87 -89.3 0 1 170.04 189.68
  L 170.47 189.68
  A 0.82 0.82 0.0 0 1 171.29 190.47
  Q 171.61 197.87 171.37 203.53
  Q 171.31 204.95 172.12 206.22
  Q 174.25 209.51 171.99 210.57
  A 0.67 0.67 0.0 0 0 171.65 211.43
  Q 172.00 212.31 172.75 212.44
  A 0.92 0.91 22.0 0 0 173.66 212.06
  Q 174.07 211.49 174.25 211.33
  A 1.48 1.39 52.8 0 1 176.40 211.69
  Q 177.31 213.09 176.36 214.59
  A 2.02 2.02 0.0 0 1 173.85 215.36
  L 171.76 214.44
  A 0.58 0.57 -80.5 0 0 170.96 215.02
  C 171.18 217.79 172.41 220.32 174.68 222.14
  C 176.27 223.40 177.95 225.43 180.95 226.11
  A 1.89 1.85 -77.7 0 1 182.35 228.34
  C 181.87 230.63 177.86 230.51 175.97 230.64
  A 1.26 1.25 -19.4 0 1 174.83 230.10
  L 172.40 226.60
  A 0.27 0.27 0.0 0 1 172.63 226.18
  C 175.09 226.25 176.18 228.34 178.54 228.10
  A 0.34 0.33 -41.6 0 0 178.58 227.44
  Q 175.67 226.81 172.96 223.05
  A 0.76 0.75 -68.9 0 0 171.61 223.65
  L 172.01 225.57
  A 1.10 1.09 -35.7 0 1 171.88 226.36
  C 169.67 230.14 173.15 235.42 176.06 237.75
  Q 177.16 238.63 180.78 241.87
  C 182.37 243.29 186.79 241.94 186.72 245.23
  Q 186.70 246.02 185.90 246.59
  C 183.48 248.33 181.60 247.10 179.37 247.20
  A 0.33 0.33 0.0 0 1 179.06 246.71
  Q 179.14 246.56 179.15 246.55
  A 0.73 0.73 0.0 0 0 178.85 245.66
  Q 177.22 244.66 176.66 241.46
  A 0.77 0.76 -49.0 0 0 175.14 241.57
  Q 174.99 245.72 178.37 247.34
  A 0.41 0.41 0.0 0 1 178.50 247.98
  L 178.09 248.46
  A 0.64 0.63 34.4 0 1 177.31 248.60
  C 174.50 247.10 173.46 238.48 171.97 238.12
  A 0.55 0.55 0.0 0 0 171.29 238.65
  L 171.26 244.32
  A 1.88 1.80 33.8 0 0 171.43 245.09
  C 173.44 249.65 176.35 254.61 180.99 256.77
  C 184.17 258.26 185.51 261.39 189.59 259.91
  A 1.80 1.56 -5.6 0 1 192.01 261.62
  Q 191.75 262.73 190.40 263.40
  Q 186.50 265.35 183.41 263.54
  Q 182.34 262.92 181.84 263.19
  Q 181.00 263.65 180.67 264.36
  A 0.99 0.93 51.2 0 1 178.89 264.11
  C 178.01 260.90 175.69 261.94 174.54 259.98
  Q 172.25 256.07 172.32 255.46
  A 0.51 0.51 0.0 0 0 171.36 255.15
  Q 170.80 256.20 171.33 262.48
  A 1.43 1.43 0.0 0 0 171.97 263.55
  Q 174.02 264.86 175.98 267.68
  C 176.57 268.53 177.75 269.17 178.47 269.86
  Q 181.05 272.32 184.71 271.26
  A 1.09 1.08 2.2 0 1 186.03 272.68
  L 185.33 274.58
  A 0.65 0.65 0.0 0 0 185.67 275.40
  Q 189.81 277.37 194.48 277.24
  A 1.81 1.81 0.0 0 1 196.33 278.89
  L 196.35 279.02
  A 1.42 1.42 0.0 0 1 194.96 280.60
  L 191.47 280.65
  A 0.94 0.92 -73.9 0 0 190.71 281.08
  C 188.78 284.19 185.57 281.65 182.84 280.20
  A 0.63 0.63 0.0 0 0 182.03 280.39
  C 180.82 282.05 179.36 280.64 178.13 279.87
  Q 174.52 277.62 172.13 273.89
  A 0.42 0.41 -62.3 0 0 171.37 274.13
  L 171.66 292.17
  A 1.05 1.05 0.0 0 0 172.74 293.20
  Q 195.81 292.36 217.02 293.03
  A 0.66 0.66 0.0 0 0 217.70 292.38
  L 218.05 278.85
  A 0.70 0.70 0.0 0 0 216.88 278.31
  L 209.81 284.61
  A 0.99 0.99 0.0 0 1 208.76 284.78
  L 207.05 284.03
  A 1.03 1.02 -46.6 0 0 206.16 284.06
  Q 204.06 285.17 201.76 285.76
  Q 199.88 286.25 199.15 285.78
  A 1.58 1.41 -44.7 0 1 199.30 283.29
  Q 200.40 282.53 201.76 282.16
  A 0.64 0.64 0.0 0 0 201.52 280.90
  L 198.98 281.18
  A 0.62 0.61 -82.9 0 1 198.34 280.35
  L 198.46 280.01
  A 0.97 0.94 -84.7 0 1 199.17 279.40
  Q 203.63 278.51 204.29 278.05
  C 209.76 274.21 211.78 272.06 217.29 266.59
  Q 218.69 265.20 218.64 263.91
  A 0.82 0.81 57.4 0 0 217.10 263.57
  Q 215.31 267.09 212.53 268.72
  A 2.23 2.11 -33.4 0 1 209.67 268.22
  Q 209.31 267.73 208.74 267.43
  A 0.95 0.93 45.7 0 0 207.90 267.41
  L 205.04 268.80
  A 3.45 3.45 0.0 0 1 200.97 267.99
  L 200.46 267.43
  A 1.28 1.28 0.0 0 1 201.10 265.34
  Q 205.01 264.34 208.03 261.13
  C 208.87 260.24 208.59 259.58 209.10 258.73
  A 1.67 1.66 4.5 0 1 209.92 258.03
  C 215.93 255.56 219.65 251.49 218.57 244.61
  A 0.56 0.56 0.0 0 0 217.83 244.17
  C 216.55 244.65 215.36 246.21 216.51 247.60
  Q 217.16 248.39 216.95 249.35
  A 1.31 1.30 75.3 0 1 216.55 250.04
  L 213.29 252.95
  A 2.08 2.08 0.0 0 1 210.35 252.78
  L 210.17 252.59
  A 1.14 1.14 0.0 0 1 210.30 250.95
  Q 212.06 249.51 214.02 248.90
  A 0.59 0.58 60.1 0 0 214.27 247.95
  Q 213.01 246.57 212.47 245.28
  A 0.93 0.92 67.9 0 0 211.27 244.77
  Q 206.77 246.59 204.93 243.96
  A 1.80 1.80 0.0 0 1 206.04 241.17
  C 208.59 240.64 211.55 240.56 213.55 238.34
  A 0.59 0.59 0.0 0 0 213.40 237.43
  Q 210.99 236.06 211.76 235.08
  Q 212.20 234.53 214.27 233.71
  A 0.80 0.79 -25.6 0 1 215.24 234.05
  Q 215.64 234.76 215.56 235.83
  A 0.49 0.49 0.0 0 0 216.38 236.23
  Q 218.03 234.72 218.91 231.03
  A 0.70 0.70 0.0 0 0 217.83 230.29
  L 216.38 231.30
  A 0.78 0.78 0.0 0 1 215.16 230.59
  Q 215.35 228.41 217.32 226.95
  A 0.23 0.23 0.0 0 0 217.36 226.61
  L 217.19 226.41
  A 0.06 0.05 -40.3 0 0 217.12 226.41
  C 214.81 228.25 211.98 230.10 209.37 227.64
  A 1.26 1.24 23.6 0 1 208.99 226.70
  Q 209.03 225.52 209.82 224.98
  Q 210.25 224.69 211.80 224.90
  Q 214.25 225.24 216.99 223.05
  A 0.89 0.89 0.0 0 0 216.89 221.59
  L 214.97 220.43
  A 0.94 0.92 -87.0 0 1 214.60 220.01
  Q 214.09 218.82 215.19 217.45
  A 0.82 0.82 0.0 0 1 216.12 217.19
  L 218.07 217.91
  A 0.61 0.61 0.0 0 0 218.87 217.18
  Q 217.44 211.86 218.31 206.53
  C 218.50 205.36 218.35 204.12 219.32 203.03
  A 1.00 0.99 60.2 0 1 221.04 203.50
  Q 221.98 208.20 221.29 214.02
  A 1.21 1.20 11.4 0 0 222.17 215.33
  L 223.44 215.69
  A 0.92 0.92 0.0 0 1 224.10 216.47
  Q 224.36 218.75 222.48 220.48
  A 0.98 0.98 0.0 0 0 222.51 221.95
  L 224.43 223.60
  A 0.71 0.70 -57.8 0 1 224.61 224.42
  L 223.83 226.21
  A 1.74 1.74 0.0 0 0 225.46 228.65
  Q 226.58 228.63 228.13 228.16
  Q 228.59 228.02 228.89 228.08
  Q 229.51 228.21 229.65 228.33
  A 2.14 2.00 -41.9 0 1 229.36 231.64
  Q 225.29 234.43 222.24 231.23
  A 0.53 0.52 31.8 0 0 221.36 231.43
  Q 220.74 233.39 222.10 236.38
  A 1.30 1.29 -28.1 0 0 223.96 236.94
  Q 224.76 236.44 225.52 236.48
  A 2.06 1.75 15.5 0 1 227.36 239.19
  Q 227.27 239.34 226.63 239.46
  A 1.21 1.21 0.0 0 0 225.86 241.34
  Q 228.94 245.81 231.68 243.79
  Q 232.41 243.26 233.46 244.03
  A 1.72 1.69 -48.7 0 1 233.60 246.64
  C 231.64 248.53 228.22 247.74 225.41 247.25
  A 0.77 0.77 0.0 0 0 224.63 248.43
  Q 225.88 250.36 226.04 252.11
  A 0.85 0.85 0.0 0 1 224.50 252.67
  L 221.92 248.95
  A 0.26 0.26 0.0 0 0 221.45 249.08
  C 221.21 252.32 221.81 257.15 226.72 255.44
  C 228.38 254.86 230.86 256.25 230.17 258.06
  Q 229.67 259.34 228.84 259.41
  A 1.12 1.12 0.0 0 0 228.40 261.51
  Q 231.58 263.22 235.72 262.67
  Q 236.57 262.56 237.34 262.93
  A 1.83 1.75 -55.8 0 1 237.81 265.74
  C 235.96 267.83 232.56 266.29 231.23 268.31
  Q 230.55 269.35 230.02 269.09
  C 229.42 268.80 228.62 268.00 228.31 267.92
  Q 224.73 267.02 222.39 263.97
  A 0.58 0.58 0.0 0 0 221.49 263.95
  L 221.31 264.16
  A 0.22 0.21 -41.1 0 0 221.29 264.41
  L 226.20 272.56
  A 1.92 1.92 0.0 0 0 228.50 273.38
  L 231.18 272.41
  A 1.32 1.32 0.0 0 1 232.71 274.42
  L 232.07 275.32
  A 0.64 0.64 0.0 0 0 232.11 276.12
  Q 233.43 277.63 234.24 277.95
  A 2.30 2.28 56.0 0 0 235.20 278.14
  L 239.04 278.00
  A 1.47 1.47 0.0 0 1 240.40 280.14
  Q 239.18 282.54 236.76 283.16
  A 1.13 1.12 45.4 0 1 236.12 283.15
  L 232.42 282.11
  A 0.81 0.80 11.7 0 0 231.41 282.77
  L 231.37 283.07
  A 0.46 0.46 0.0 0 0 231.70 283.58
  L 241.30 286.29
  A 1.01 1.00 13.5 0 1 242.02 287.46
  Q 241.61 289.56 239.91 289.80
  A 0.80 0.80 0.0 0 1 239.14 289.46
  L 238.37 288.36
  A 1.56 1.52 -5.1 0 0 237.67 287.79
  L 231.59 285.29
  A 2.52 2.50 50.8 0 0 230.19 285.14
  C 226.29 285.85 223.72 282.45 221.70 279.50
  A 0.52 0.52 0.0 0 0 220.75 279.85
  L 222.22 293.01
  A 0.26 0.26 0.0 0 0 222.50 293.24
  Q 226.66 292.86 234.92 292.87
  Q 238.25 292.87 240.57 292.49
  C 242.89 292.11 245.16 292.61 248.15 292.60
  C 252.77 292.60 259.14 292.28 265.28 292.42
  Q 273.78 292.63 283.14 292.50
  A 0.29 0.28 -88.9 0 0 283.42 292.22
  L 283.43 291.96
  A 0.08 0.08 0.0 0 0 283.36 291.88
  Q 279.73 291.33 277.96 289.44
  A 0.86 0.86 0.0 0 1 278.89 288.05
  L 283.02 289.58
  A 0.74 0.73 -63.6 0 0 283.90 289.28
  Q 284.55 288.21 284.87 286.75
  A 0.77 0.77 0.0 0 1 286.35 286.66
  Q 287.10 288.93 286.04 291.49
  A 0.80 0.80 0.0 0 0 286.77 292.60
  L 315.58 292.73
  A 0.83 0.83 0.0 0 0 316.33 291.53
  L 316.18 291.21
  A 1.56 1.54 -6.1 0 0 315.14 290.38
  L 310.23 289.16
  A 1.18 1.16 -45.5 0 0 309.61 289.17
  L 307.37 289.82
  A 1.03 1.03 0.0 0 1 306.14 289.24
  C 305.54 287.84 305.28 286.48 304.07 286.16
  C 302.03 285.62 300.77 286.87 299.74 288.52
  A 0.89 0.89 0.0 0 1 298.18 288.41
  C 297.10 286.01 294.74 283.74 292.04 285.25
  A 1.65 1.65 0.0 0 1 290.00 284.91
  L 287.23 281.81
  A 1.87 1.86 49.5 0 0 284.66 281.60
  Q 281.31 284.33 277.64 286.58
  A 2.27 2.27 0.0 0 1 274.91 286.31
  Q 273.18 284.69 270.63 285.65
  A 0.96 0.96 0.0 0 1 269.66 284.03
  Q 272.97 281.13 275.36 283.43
  A 0.94 0.94 0.0 0 0 276.95 282.75
  Q 276.94 280.79 278.52 279.00
  A 0.88 0.88 0.0 0 0 277.39 277.67
  C 275.80 278.66 272.87 279.91 271.92 277.34
  A 0.88 0.87 60.3 0 1 272.18 276.37
  L 274.64 274.33
  A 1.81 1.77 15.8 0 1 275.30 273.97
  Q 281.60 272.06 285.62 266.33
  A 0.62 0.61 -49.9 0 0 285.56 265.55
  L 285.47 265.46
  A 0.49 0.49 0.0 0 0 284.73 265.49
  C 283.05 267.57 280.20 269.58 277.59 268.31
  C 275.45 267.27 276.56 264.96 278.32 264.55
  A 1.60 1.52 -46.5 0 1 278.90 264.52
  L 281.45 264.80
  A 2.05 2.03 23.3 0 0 283.23 264.10
  L 284.07 263.12
  A 0.36 0.36 0.0 0 0 283.71 262.54
  C 282.15 262.93 280.23 262.46 280.85 260.42
  Q 281.73 257.53 284.87 257.33
  A 0.85 0.85 0.0 0 0 285.65 256.33
  Q 284.89 252.03 285.74 248.32
  A 1.67 1.50 -60.7 0 1 288.42 247.40
  C 289.83 249.05 289.08 251.75 288.59 254.60
  A 2.17 2.16 -66.8 0 0 289.42 256.69
  C 291.12 257.96 292.72 258.66 292.05 260.53
  A 1.00 1.00 0.0 0 1 290.77 261.13
  L 288.50 260.29
  A 0.46 0.46 0.0 0 0 287.92 260.92
  Q 289.95 265.30 293.52 265.39
  A 1.96 1.95 -69.6 0 1 294.97 268.58
  Q 293.91 269.89 291.63 269.56
  A 1.12 1.11 -16.1 0 1 290.95 269.19
  L 288.79 266.78
  A 0.52 0.51 -66.2 0 0 287.89 267.13
  L 287.96 271.50
  A 1.47 1.46 13.9 0 0 288.73 272.77
  L 291.20 274.11
  A 4.88 4.80 -5.5 0 1 292.57 275.22
  Q 295.39 278.57 297.59 280.49
  C 298.43 281.23 298.52 281.81 298.78 282.73
  A 1.47 1.46 -11.1 0 0 300.34 283.77
  L 303.83 283.38
  A 2.47 2.46 56.0 0 1 305.30 283.67
  Q 306.75 284.45 307.67 285.89
  A 1.02 1.02 0.0 0 0 308.47 286.36
  Q 310.94 286.48 316.26 288.42
  C 317.86 289.01 318.09 290.28 317.85 291.68
  A 0.58 0.57 -84.9 0 0 318.41 292.36
  L 427.38 292.87
  A 0.23 0.23 0.0 0 0 427.60 292.56
  L 427.38 291.95
  A 0.20 0.20 0.0 0 0 427.19 291.82
  Q 422.78 291.86 419.08 290.56
  A 0.69 0.65 43.2 0 0 418.63 290.56
  L 416.52 291.32
  A 0.94 0.94 0.0 0 1 415.30 290.71
  Q 414.97 289.64 414.40 289.04
  A 0.78 0.78 0.0 0 0 413.50 288.87
  L 410.16 290.50
  A 1.22 1.22 0.0 0 1 408.47 289.01
  Q 409.26 286.69 407.44 285.74
  A 2.22 2.09 -60.5 0 0 404.62 286.61
  Q 403.65 288.19 403.04 289.35
  A 2.01 2.01 0.0 0 1 399.77 289.74
  L 398.56 288.37
  A 1.00 1.00 0.0 0 0 397.25 288.22
  L 394.68 290.00
  A 2.15 2.15 0.0 0 1 391.52 289.17
  L 390.44 286.93
  A 2.08 2.07 -29.6 0 0 387.43 286.11
  Q 386.65 286.63 385.90 286.84
  A 0.50 0.50 0.0 0 1 385.35 286.07
  Q 387.15 283.53 390.29 284.53
  A 1.82 1.81 -8.2 0 1 391.23 285.23
  L 392.44 286.97
  A 1.75 1.74 -37.9 0 0 395.02 287.29
  Q 397.88 284.82 400.67 287.54
  A 0.76 0.76 0.0 0 0 401.90 287.29
  Q 402.60 285.61 404.22 284.63
  C 406.41 283.31 409.36 283.50 410.12 286.22
  Q 410.37 287.13 410.56 287.31
  Q 411.17 287.91 411.96 287.55
  Q 414.75 286.30 416.40 287.80
  C 418.62 289.79 418.98 288.39 421.25 289.06
  Q 423.86 289.83 426.23 290.07
  A 4.29 4.17 -28.1 0 1 427.65 290.48
  Q 429.74 291.52 432.49 291.77
  C 434.10 291.91 435.89 293.26 437.27 293.15
  Q 446.88 292.39 457.54 293.80
  A 0.86 0.85 -3.0 0 0 458.49 292.75
  L 458.16 291.39
  A 3.51 3.25 -52.3 0 1 458.08 290.49
  L 458.69 279.92
  A 0.58 0.57 -25.7 0 0 457.65 279.56
  Q 454.65 283.72 450.23 284.61
  C 447.92 285.07 445.99 286.45 443.50 286.12
  A 2.25 1.86 12.0 0 1 441.53 283.64
  Q 441.81 282.79 443.07 282.31
  Q 446.83 280.86 448.55 279.55
  C 449.90 278.51 451.17 278.28 452.50 277.56
  A 1.28 1.10 -79.1 0 0 452.84 277.29
  L 458.35 271.25
  A 2.68 2.66 65.8 0 0 459.03 269.44
  L 458.99 267.50
  A 0.65 0.65 0.0 0 0 457.84 267.08
  L 453.61 272.01
  A 1.66 1.53 -77.8 0 1 452.97 272.46
  C 450.84 273.23 443.60 275.21 442.29 272.63
  A 1.45 1.36 68.5 0 1 443.09 270.61
  C 446.87 269.57 450.45 268.21 453.08 265.76
  A 0.78 0.78 0.0 0 0 452.54 264.41
  Q 448.44 264.47 445.43 262.44
  A 1.28 1.28 0.0 0 1 445.22 260.49
  Q 446.03 259.65 447.28 259.02
  C 448.84 258.24 451.13 258.87 452.59 257.82
  C 454.88 256.18 458.74 252.99 459.02 250.65
  A 1.07 1.04 79.5 0 0 457.49 249.57
  Q 456.56 250.08 457.08 252.35
  Q 457.28 253.22 456.48 253.59
  Q 455.94 253.84 454.87 250.81
  A 0.38 0.38 0.0 0 0 454.43 250.56
  Q 452.36 251.03 450.62 250.58
  A 2.01 1.70 20.3 0 1 449.17 248.03
  Q 450.59 245.43 453.82 246.47
  A 0.60 0.60 0.0 0 0 454.53 246.17
  Q 455.65 243.93 458.74 241.51
  A 0.31 0.31 0.0 0 0 458.58 240.96
  Q 457.88 240.89 456.76 241.29
  A 1.74 1.58 -17.9 0 1 454.55 240.29
  Q 453.90 237.96 455.58 235.75
  A 0.88 0.88 0.0 0 1 456.54 235.44
  Q 457.42 235.71 458.28 236.63
  A 0.38 0.38 0.0 0 0 458.94 236.32
  Q 458.13 230.15 459.19 223.88
  A 1.26 1.26 0.0 0 1 461.45 223.35
  C 463.08 225.60 461.92 234.77 461.39 237.37
  A 0.59 0.59 0.0 0 0 462.48 237.78
  Q 463.19 236.54 464.39 236.04
  A 1.00 0.99 -15.7 0 1 465.75 236.80
  Q 466.55 241.70 462.36 242.31
  A 0.76 0.76 0.0 0 0 462.11 243.73
  C 463.49 244.46 466.24 244.87 465.97 247.30
  A 1.27 1.26 -82.7 0 1 464.54 248.41
  L 462.73 248.14
  A 0.58 0.57 6.8 0 0 462.08 248.65
  C 461.93 249.97 462.99 250.43 464.17 250.36
  Q 465.93 250.26 467.06 250.75
  A 1.24 1.20 -45.9 0 0 468.06 250.72
  L 469.59 249.98
  A 1.30 1.28 -51.2 0 1 470.44 249.88
  Q 472.23 250.30 472.20 252.33
  A 1.37 1.36 70.4 0 1 471.72 253.35
  C 468.96 255.70 465.33 254.64 462.59 252.66
  A 0.47 0.47 0.0 0 0 461.92 253.31
  L 464.76 257.41
  A 0.72 0.69 -8.5 0 0 465.14 257.68
  L 467.13 258.24
  A 1.61 1.61 0.0 0 1 468.17 260.42
  Q 467.44 262.10 466.79 262.10
  A 0.89 0.89 0.0 0 1 466.11 261.76
  Q 464.60 259.82 462.48 258.62
  A 0.59 0.59 0.0 0 0 461.60 259.14
  Q 461.62 261.04 462.04 262.14
  A 2.07 1.78 -21.3 0 0 464.64 263.05
  Q 466.12 262.47 467.13 263.63
  C 468.62 265.34 470.22 265.52 472.52 265.77
  Q 474.84 266.03 474.74 267.74
  A 2.79 2.41 -5.9 0 1 472.58 270.03
  Q 469.89 270.65 467.77 269.98
  C 466.72 269.64 466.15 270.23 465.31 270.14
  A 1.60 1.55 71.1 0 1 464.37 269.66
  L 462.27 267.40
  A 0.40 0.40 0.0 0 0 461.58 267.60
  C 461.04 270.65 464.42 273.92 466.85 276.42
  A 2.57 2.55 -13.8 0 0 468.00 277.11
  Q 469.68 277.58 470.86 278.72
  A 2.16 2.16 0.0 0 0 471.83 279.28
  Q 474.20 279.91 477.17 279.93
  A 2.34 2.05 7.5 0 1 479.49 282.57
  Q 478.93 284.45 476.78 285.62
  A 2.15 2.14 -54.2 0 1 475.45 285.84
  C 473.02 285.45 471.86 284.66 469.22 285.00
  C 466.16 285.39 463.83 281.38 462.46 279.09
  A 0.46 0.46 0.0 0 0 461.61 279.27
  Q 461.28 281.87 461.59 283.75
  Q 462.39 288.75 462.46 292.89
  A 0.90 0.90 0.0 0 0 463.42 293.78
  Q 472.83 293.24 483.92 293.50
  C 486.22 293.55 487.30 294.20 489.17 294.39
  Q 489.18 294.39 489.19 294.39
  L 519.55 295.43
  A 0.81 0.80 -11.8 0 1 520.24 295.88
  L 520.40 296.21
  A 0.45 0.44 -17.8 0 1 520.07 296.84
  Q 517.83 297.19 515.31 297.09
  C 497.07 296.36 478.62 296.62 460.93 296.42
  C 416.85 295.94 368.35 296.13 332.66 295.94
  Q 323.82 295.90 318.84 296.10
  C 312.49 296.35 306.67 295.80 300.38 295.94
  Q 291.32 296.13 284.09 296.16
  C 278.48 296.18 272.18 295.28 265.96 295.96
  Q 262.74 296.31 258.02 296.31
  C 238.17 296.32 228.56 296.17 212.32 296.26
  Q 166.66 296.51 121.00 296.39
  Q 100.13 296.34 63.06 296.04
  C 53.33 295.96 44.92 296.58 35.75 295.87
  A 2.04 2.03 85.5 0 1 33.92 294.30
  L 33.89 294.16
  A 1.07 1.07 0.0 0 1 35.08 292.85
  Q 40.50 293.60 44.75 293.53
  Q 52.58 293.40 66.59 293.62
  A 0.71 0.71 0.0 0 0 67.31 292.91
  L 67.37 281.29
  A 0.41 0.41 0.0 0 0 66.63 281.05
  L 64.50 284.03
  A 1.67 1.64 10.3 0 1 63.56 284.67
  Q 58.44 286.03 54.37 288.67
  Q 53.82 289.03 53.04 288.69
  A 1.17 1.15 35.8 0 1 52.71 286.77
  Q 55.03 284.70 57.72 281.38
  A 0.90 0.90 0.0 0 0 56.70 279.98
  Q 52.83 281.47 48.72 280.83
  Q 46.89 280.55 46.67 279.45
  A 2.04 1.98 -7.1 0 1 48.58 277.07
  Q 49.51 277.03 50.79 277.14
  A 2.30 2.17 33.7 0 0 51.85 276.96
  Q 56.18 275.01 60.80 271.52
  C 64.11 269.03 66.03 265.46 67.62 261.77
  Q 67.78 261.41 67.57 261.19
  Q 67.13 260.75 66.76 261.15
  C 64.95 263.10 64.10 264.26 62.28 265.48
  Q 60.40 266.73 58.53 268.81
  Q 58.44 268.91 57.98 269.15
  Q 57.60 269.35 57.34 269.39
  A 0.54 0.54 0.0 0 1 56.77 268.62
  L 57.96 266.18
  A 0.97 0.97 0.0 0 0 56.31 265.18
  Q 56.23 265.29 56.20 265.32
  A 1.48 1.47 -68.8 0 1 55.30 265.72
  Q 52.47 265.92 51.15 263.77
  A 1.52 1.52 0.0 0 1 52.08 261.49
  Q 61.14 259.28 66.64 251.37
  Q 68.54 248.63 68.33 245.37
  Q 68.30 244.91 67.90 244.82
  Q 67.32 244.68 66.94 245.19
  C 64.11 248.98 62.32 252.34 60.06 253.28
  A 1.86 1.71 -18.5 0 1 57.60 252.18
  Q 57.36 251.22 58.30 250.52
  Q 60.78 248.69 62.92 246.12
  A 0.81 0.81 0.0 0 0 62.23 244.79
  Q 59.98 244.98 58.59 244.92
  C 55.73 244.80 55.34 242.07 57.01 240.31
  C 58.57 238.67 60.70 239.02 62.59 238.94
  A 1.23 1.19 18.8 0 0 63.46 238.53
  Q 65.97 235.70 68.41 233.17
  Q 69.22 232.32 69.14 230.77
  A 0.66 0.66 0.0 0 0 67.88 230.51
  Q 67.31 231.69 65.73 232.25
  A 0.50 0.49 80.1 0 1 65.07 231.78
  Q 65.07 230.35 66.64 228.88
  A 0.39 0.39 0.0 0 0 66.36 228.21
  C 64.21 228.25 62.61 229.66 61.23 227.34
  A 1.66 1.62 59.7 0 1 61.80 225.06
  Q 63.64 224.02 64.93 224.94
  A 1.12 1.11 41.8 0 0 66.32 224.87
  L 67.29 224.00
  A 0.78 0.78 0.0 0 0 67.24 222.79
  C 65.55 221.51 63.61 220.36 64.83 218.00
  A 1.21 1.21 0.0 0 1 67.11 218.52
  Q 67.15 219.74 68.49 220.85
  A 0.51 0.51 0.0 0 0 69.33 220.42
  Q 68.71 212.19 69.45 204.75
  Q 69.52 204.02 70.06 203.49
  A 1.10 1.06 -27.1 0 1 71.90 204.05
  Q 72.95 211.04 71.26 218.20
  A 0.80 0.79 -14.3 0 0 72.57 218.97
  L 74.07 217.63
  A 0.85 0.85 0.0 0 1 75.49 218.22
  C 75.59 220.20 75.18 222.05 73.59 223.09
  Q 72.61 223.73 72.45 223.98
  A 1.20 1.20 0.0 0 0 73.87 225.77
  L 77.11 224.54
  A 1.65 1.65 0.0 0 1 79.28 226.50
  Q 78.16 230.70 74.61 230.93
  A 1.35 1.33 -28.1 0 1 73.73 230.67
  L 72.34 229.68
  A 0.73 0.72 -69.1 0 0 71.20 230.19
  Q 71.00 232.12 71.75 234.88
  A 1.91 1.91 0.0 0 0 73.91 236.26
  C 75.73 235.96 78.00 236.15 77.58 238.67
  A 1.17 1.14 -13.3 0 1 77.10 239.42
  L 75.58 240.47
  A 0.62 0.61 -36.2 0 0 75.44 241.35
  Q 77.05 243.51 78.72 243.61
  C 79.76 243.68 81.67 243.26 82.61 244.27
  A 1.73 1.60 -32.0 0 1 81.89 246.91
  Q 81.18 247.21 78.77 247.77
  A 1.33 1.33 0.0 0 0 77.86 248.49
  Q 77.49 249.21 77.51 250.10
  A 1.41 1.28 21.6 0 1 75.22 250.96
  Q 74.42 250.29 72.90 248.35
  Q 72.21 247.47 72.63 246.76
  A 0.64 0.64 0.0 0 0 72.49 245.96
  L 71.57 245.17
  A 0.39 0.39 0.0 0 0 70.93 245.41
  Q 70.10 250.77 72.75 255.33
  A 0.84 0.83 -28.0 0 0 73.85 255.66
  L 75.64 254.80
  A 1.77 1.77 0.0 0 1 78.17 256.64
  L 77.97 258.05
  A 2.33 2.33 0.0 0 0 79.64 260.62
  L 84.94 262.11
  A 1.51 1.51 0.0 0 1 85.00 264.99
  C 83.16 265.59 81.59 266.32 79.74 265.68
  Q 78.54 265.27 77.58 265.59
  A 0.91 0.90 -29.9 0 1 76.60 265.33
  Q 74.21 262.61 74.18 261.59
  Q 74.08 258.58 71.98 256.63
  A 0.91 0.90 14.2 0 0 70.49 257.51
  Q 71.02 259.54 72.65 261.40
  C 74.04 262.99 73.47 265.73 76.63 266.04
  A 1.26 1.26 0.0 0 1 77.47 266.48
  Q 78.36 267.55 78.53 268.23
  A 0.84 0.83 4.0 0 1 77.41 269.20
  Q 73.22 267.56 71.58 263.17
  A 0.77 0.77 0.0 0 0 70.09 263.53
  L 70.66 268.66
  A 1.44 1.39 -67.0 0 0 70.93 269.36
  L 76.95 277.49
  A 0.98 0.96 75.5 0 0 77.58 277.87
  L 80.81 278.33
  A 1.75 1.73 66.5 0 1 81.56 278.63
  L 84.72 280.89
  A 3.42 3.40 -35.6 0 0 87.71 281.37
  Q 98.50 278.03 107.09 271.10
  Q 109.24 269.36 110.28 267.40
  A 0.66 0.66 0.0 0 0 109.29 266.58
  Q 105.39 269.67 100.38 270.77
  A 0.93 0.93 0.0 0 1 99.31 269.54
  L 100.11 267.37
  A 0.54 0.54 0.0 0 0 99.35 266.71
  C 96.85 268.04 91.84 269.17 89.94 266.39
  A 1.27 1.27 0.0 0 1 90.60 264.46
  Q 95.17 263.00 100.90 260.19
  C 106.13 257.61 109.61 254.43 112.65 250.24
  A 0.24 0.24 0.0 0 0 112.35 249.89
  L 105.04 253.57
  A 1.83 1.82 63.4 0 1 102.57 252.74
  L 102.53 252.68
  A 1.20 1.19 72.1 0 1 103.36 251.05
  C 109.22 249.66 115.07 246.21 117.90 240.79
  A 1.48 1.31 -33.5 0 0 118.06 240.19
  L 118.31 230.30
  A 0.53 0.53 0.0 0 0 117.32 230.02
  Q 115.14 233.91 112.34 240.81
  Q 111.39 243.16 107.96 246.13
  A 2.01 1.97 25.2 0 1 106.58 246.61
  C 101.49 246.42 95.81 249.05 91.33 245.16
  A 1.24 1.23 -58.2 0 1 91.00 243.73
  C 91.98 241.45 94.25 242.01 96.79 241.91
  A 4.32 3.89 -51.9 0 0 97.88 241.72
  Q 101.90 240.47 106.97 236.98
  Q 108.84 235.69 108.76 234.32
  A 0.45 0.44 -12.3 0 0 108.15 233.93
  Q 105.07 235.15 103.62 235.08
  A 1.22 1.22 0.0 0 1 103.14 232.77
  L 111.22 228.86
  A 3.32 3.17 8.2 0 0 112.09 228.24
  L 118.10 222.26
  A 1.51 1.45 -22.9 0 0 118.54 221.24
  L 118.83 210.10
  A 0.54 0.54 0.0 0 0 117.76 210.00
  Q 116.24 218.62 109.31 224.18
  A 1.13 1.09 -62.0 0 1 108.57 224.42
  Q 106.36 224.34 106.88 221.11
  A 0.47 0.47 0.0 0 0 106.22 220.61
  C 103.66 221.75 96.76 222.65 96.96 218.33
  A 2.67 2.40 -86.3 0 1 99.58 215.77
  C 102.57 216.04 106.13 216.50 107.70 213.45
  A 1.60 1.56 -88.5 0 1 108.45 212.72
  C 109.37 212.29 110.79 212.22 111.73 211.51
  Q 115.16 208.91 118.22 204.73
  A 3.92 3.90 63.3 0 0 118.96 202.47
  L 118.99 196.60
  A 0.55 0.54 59.8 0 0 117.97 196.33
  Q 117.27 197.59 115.83 199.82
  Q 114.65 201.65 112.55 201.81
  A 0.46 0.46 0.0 0 0 112.46 202.71
  L 113.58 203.03
  A 0.47 0.47 0.0 0 1 113.87 203.70
  Q 113.36 204.72 112.37 205.23
  A 0.56 0.55 42.5 0 1 111.90 205.25
  L 108.24 203.65
  A 0.61 0.60 -66.6 0 1 107.93 202.85
  L 108.87 200.71
  A 0.80 0.80 0.0 0 0 107.89 199.63
  Q 103.62 201.04 100.72 199.59
  A 2.04 1.90 33.7 0 1 99.99 196.53
  C 101.50 194.87 104.43 195.00 106.17 194.73
  A 2.21 2.08 -62.7 0 0 106.91 194.47
  L 113.76 190.45
  A 1.74 1.52 3.8 0 0 114.10 190.19
  L 118.26 186.28
  A 2.40 2.39 68.7 0 0 119.03 184.52
  L 119.04 182.92
  A 0.82 0.81 66.1 0 0 117.62 182.37
  C 114.63 185.69 111.07 185.24 111.03 180.66
  A 1.11 1.10 8.4 0 0 110.25 179.62
  Q 106.17 178.31 105.25 176.11
  A 2.46 2.41 -26.7 0 1 106.29 173.07
  C 109.20 171.37 111.47 175.48 113.52 176.55
  Q 114.73 177.18 115.65 179.00
  A 0.45 0.45 0.0 0 0 116.50 178.86
  L 117.21 173.93
  A 0.94 0.94 0.0 0 0 116.66 172.94
  L 115.94 172.63
  A 1.18 1.18 0.0 0 1 116.31 170.38
  Q 117.35 170.29 118.05 170.56
  A 0.99 0.99 0.0 0 0 119.35 169.35
  C 118.53 166.70 116.79 166.96 115.18 165.55
  Q 113.18 163.80 112.03 161.51
  A 1.27 1.27 0.0 0 1 112.61 159.80
  L 114.27 158.99
  A 0.85 0.85 0.0 0 0 114.66 157.85
  L 113.41 155.30
  A 1.70 1.70 0.0 0 1 114.46 152.91
  L 114.75 152.80
  A 1.52 1.52 0.0 0 1 116.66 153.55
  L 118.78 157.92
  A 0.18 0.17 -42.6 0 0 119.09 157.93
  C 120.35 155.80 119.41 151.55 119.14 148.92
  C 118.71 144.70 119.95 138.23 119.58 134.38
  Q 119.54 133.93 120.20 133.01
  A 0.93 0.93 0.0 0 1 121.86 133.29
  Q 122.45 135.31 122.38 137.75
  Q 122.20 143.74 122.47 147.74
  C 122.66 150.68 124.99 152.07 122.97 155.33
  Q 122.25 156.50 121.78 157.99
  A 1.13 1.13 0.0 0 0 123.36 159.34
  Q 125.73 158.15 127.30 156.75
  A 2.17 2.02 -36.9 0 1 130.51 157.09
  Q 130.98 157.86 130.54 159.06
  C 129.45 162.06 128.16 165.36 125.27 166.95
  C 124.52 167.36 123.43 167.31 122.66 167.68
  A 0.94 0.94 0.0 0 0 122.07 168.49
  L 121.89 171.56
  A 0.98 0.97 5.0 0 0 122.75 172.58
  Q 125.28 172.90 125.13 174.25
  Q 124.74 177.71 127.51 178.87
  C 129.29 179.61 130.82 178.42 132.13 177.31
  A 1.85 1.85 0.0 0 1 135.16 178.97
  Q 134.79 181.74 131.52 183.94
  C 129.67 185.18 127.28 183.46 125.30 183.93
  A 0.99 0.97 64.5 0 1 124.29 183.56
  Q 123.38 182.34 122.22 181.62
  A 0.40 0.39 -74.3 0 0 121.62 181.96
  L 121.59 187.26
  A 1.72 1.72 0.0 0 0 122.03 188.41
  L 125.71 192.54
  A 1.23 1.23 0.0 0 0 126.24 192.88
  C 128.98 193.71 129.23 197.09 133.07 197.36
  C 135.45 197.52 138.10 195.66 139.88 198.43
  Q 140.32 199.11 139.97 200.07
  C 138.76 203.41 135.43 203.44 132.37 202.57
  A 0.58 0.58 0.0 0 0 131.63 203.19
  L 131.79 204.69
  A 1.06 1.06 0.0 0 1 131.31 205.71
  C 129.87 206.64 128.47 205.90 127.49 204.47
  Q 124.86 200.63 122.18 196.77
  Z
  M 116.68 159.12
  Q 117.28 160.01 117.40 160.16
  A 0.51 0.51 0.0 0 0 118.19 160.14
  Q 118.88 159.25 118.13 158.14
  Q 117.39 157.03 116.30 157.34
  A 0.51 0.51 0.0 0 0 115.99 158.07
  Q 116.08 158.23 116.68 159.12
  Z
  M 127.5867 160.0528
  A 3.16 0.91 -47.7 0 0 124.7869 161.7776
  A 3.16 0.91 -47.7 0 0 123.3333 164.7272
  A 3.16 0.91 -47.7 0 0 126.1331 163.0024
  A 3.16 0.91 -47.7 0 0 127.5867 160.0528
  Z
  M 115.3935 161.9697
  A 2.00 0.90 -133.1 0 0 116.1029 164.0449
  A 2.00 0.90 -133.1 0 0 118.1265 164.8903
  A 2.00 0.90 -133.1 0 0 117.4171 162.8151
  A 2.00 0.90 -133.1 0 0 115.3935 161.9697
  Z
  M 112.14 176.74
  L 107.44 174.24
  A 0.11 0.11 0.0 0 0 107.29 174.29
  L 107.29 174.29
  A 2.35 1.81 28.0 0 0 108.52 176.99
  L 109.26 177.38
  A 2.35 1.81 28.0 0 0 112.18 176.89
  L 112.19 176.89
  A 0.11 0.11 0.0 0 0 112.14 176.74
  Z
  M 125.88 180.34
  L 122.57 175.88
  A 0.13 0.13 0.0 0 0 122.39 175.85
  L 122.34 175.89
  A 2.76 1.89 53.4 0 0 122.47 179.23
  L 122.64 179.47
  A 2.76 1.89 53.4 0 0 125.81 180.56
  L 125.86 180.52
  A 0.13 0.13 0.0 0 0 125.88 180.34
  Z
  M 131.1995 180.9358
  A 1.25 0.78 -17.9 0 0 129.7703 180.5778
  A 1.25 0.78 -17.9 0 0 128.8205 181.7042
  A 1.25 0.78 -17.9 0 0 130.2497 182.0622
  A 1.25 0.78 -17.9 0 0 131.1995 180.9358
  Z
  M 113.5643 181.0281
  A 0.54 0.45 -123.2 0 0 113.4835 181.7264
  A 0.54 0.45 -123.2 0 0 114.1557 181.9319
  A 0.54 0.45 -123.2 0 0 114.2365 181.2336
  A 0.54 0.45 -123.2 0 0 113.5643 181.0281
  Z
  M 117.16 189.99
  Q 112.69 194.54 106.37 196.60
  C 105.12 197.02 103.95 196.67 102.74 197.08
  A 0.64 0.64 0.0 0 0 102.49 198.15
  Q 102.95 198.60 103.48 198.57
  Q 107.56 198.33 110.42 195.98
  A 1.02 1.02 0.0 0 1 112.00 197.18
  L 111.13 199.19
  A 0.69 0.68 -62.4 0 0 111.39 200.05
  Q 111.99 200.42 112.39 200.08
  Q 116.67 196.44 117.76 190.30
  A 0.35 0.35 0.0 0 0 117.16 189.99
  Z
  M 137.22 199.44
  L 131.54 198.97
  A 0.12 0.12 0.0 0 0 131.41 199.08
  L 131.41 199.11
  A 2.76 1.39 4.7 0 0 134.05 200.72
  L 134.47 200.75
  A 2.76 1.39 4.7 0 0 137.33 199.60
  L 137.33 199.57
  A 0.12 0.12 0.0 0 0 137.22 199.44
  Z
  M 128.7456 201.5278
  A 0.08 0.03 -115.5 0 0 128.7529 201.6129
  A 0.08 0.03 -115.5 0 0 128.8144 201.6722
  A 0.08 0.03 -115.5 0 0 128.8071 201.5871
  A 0.08 0.03 -115.5 0 0 128.7456 201.5278
  Z
  M 115.22 212.09
  A 0.37 0.37 0.0 0 0 114.67 211.64
  Q 113.91 212.16 110.42 214.90
  Q 105.73 218.60 99.76 218.25
  A 0.35 0.35 0.0 0 0 99.48 218.83
  L 100.00 219.41
  A 1.39 1.37 67.4 0 0 101.09 219.87
  Q 105.23 219.68 108.71 217.49
  A 0.93 0.93 0.0 0 1 110.10 218.52
  Q 109.82 219.48 108.80 220.43
  A 0.84 0.84 0.0 0 0 108.68 221.53
  L 108.72 221.58
  A 0.73 0.73 0.0 0 0 109.76 221.74
  C 112.56 219.59 113.57 216.01 115.22 212.09
  Z
  M 130.84 218.41
  Q 130.98 218.58 131.04 218.72
  Q 131.15 218.97 131.23 219.01
  Q 134.33 220.84 137.50 221.62
  A 0.87 0.84 39.7 0 0 138.04 221.58
  Q 138.82 221.27 139.10 220.89
  A 0.44 0.44 0.0 0 0 138.87 220.21
  C 137.37 219.76 136.05 220.12 134.43 219.46
  Q 132.74 218.77 130.84 218.41
  L 126.33 213.53
  A 0.40 0.40 0.0 0 0 125.64 213.82
  Q 125.87 219.12 130.84 218.41
  Z
  M 168.6855 223.5577
  A 1.62 0.93 -61.4 0 0 167.0935 224.5348
  A 1.62 0.93 -61.4 0 0 167.1345 226.4023
  A 1.62 0.93 -61.4 0 0 168.7265 225.4252
  A 1.62 0.93 -61.4 0 0 168.6855 223.5577
  Z
  M 65.1300 225.7400
  A 0.26 0.01 -90.0 0 0 65.1200 226.0000
  A 0.26 0.01 -90.0 0 0 65.1300 226.2600
  A 0.26 0.01 -90.0 0 0 65.1400 226.0000
  A 0.26 0.01 -90.0 0 0 65.1300 225.7400
  Z
  M 75.74 227.67
  A 0.95 0.95 0.0 0 0 74.79 226.72
  A 0.95 0.95 0.0 0 0 73.84 227.67
  A 0.95 0.95 0.0 0 0 74.79 228.62
  A 0.95 0.95 0.0 0 0 75.74 227.67
  Z
  M 222.52 227.12
  Q 222.46 227.02 222.06 226.95
  A 0.19 0.13 49.3 0 0 222.09 227.27
  Q 222.43 227.38 222.50 227.30
  A 0.15 0.14 52.2 0 0 222.52 227.12
  Z
  M 115.5197 228.4282
  A 1.73 0.77 -41.3 0 0 113.7118 228.9915
  A 1.73 0.77 -41.3 0 0 112.9203 230.7118
  A 1.73 0.77 -41.3 0 0 114.7282 230.1485
  A 1.73 0.77 -41.3 0 0 115.5197 228.4282
  Z
  M 130.61 250.52
  Q 129.51 248.84 127.97 247.97
  A 0.78 0.77 -71.1 0 1 127.59 247.18
  L 127.64 246.82
  A 0.70 0.69 16.9 0 1 128.63 246.30
  L 132.29 248.08
  A 5.35 5.30 -27.6 0 0 133.78 248.54
  L 142.03 249.72
  A 5.06 5.05 31.7 0 0 145.65 248.87
  L 145.91 248.69
  A 0.77 0.77 0.0 0 0 145.63 247.30
  Q 136.81 245.54 131.95 243.21
  C 128.65 241.62 121.62 235.65 123.15 230.81
  Q 123.62 229.34 122.50 228.44
  A 0.85 0.85 0.0 0 0 121.22 229.50
  Q 121.73 230.42 121.63 231.50
  Q 121.28 235.35 121.24 239.23
  A 3.09 3.04 -65.5 0 0 121.98 241.26
  C 124.13 243.76 125.91 245.23 127.38 248.86
  Q 128.14 250.72 130.23 251.09
  A 0.37 0.37 0.0 0 0 130.61 250.52
  Z
  M 162.11 228.86
  Q 161.99 229.11 162.89 229.34
  Q 163.44 229.48 163.35 229.05
  A 0.67 0.65 52.5 0 0 162.11 228.86
  Z
  M 125.8552 233.0797
  A 2.50 0.63 -114.2 0 0 126.3054 235.6183
  A 2.50 0.63 -114.2 0 0 127.9048 237.6403
  A 2.50 0.63 -114.2 0 0 127.4546 235.1017
  A 2.50 0.63 -114.2 0 0 125.8552 233.0797
  Z
  M 95.38 243.64
  A 0.52 0.51 -35.6 0 0 95.21 244.64
  Q 96.64 245.11 98.61 244.87
  C 101.60 244.51 103.31 241.44 106.02 243.60
  A 1.16 1.16 0.0 0 0 107.68 243.36
  L 113.01 235.90
  A 1.08 1.07 46.8 0 0 113.04 234.71
  L 112.91 234.49
  A 0.61 0.61 0.0 0 0 111.92 234.48
  Q 108.22 239.42 105.14 240.73
  C 101.19 242.41 98.51 243.67 95.38 243.64
  Z
  M 67.71 237.19
  L 64.36 240.35
  A 0.20 0.20 0.0 0 0 64.35 240.63
  L 64.41 240.69
  A 2.19 1.92 -43.3 0 0 67.32 240.58
  L 67.77 240.16
  A 2.19 1.92 -43.3 0 0 68.05 237.26
  L 67.99 237.20
  A 0.20 0.20 0.0 0 0 67.71 237.19
  Z
  M 71.0760 238.0814
  A 2.68 0.96 -120.1 0 0 71.5895 240.8815
  A 2.68 0.96 -120.1 0 0 73.7640 242.7186
  A 2.68 0.96 -120.1 0 0 73.2505 239.9185
  A 2.68 0.96 -120.1 0 0 71.0760 238.0814
  Z
  M 217.4743 238.1982
  A 2.24 0.98 -64.5 0 0 215.6255 239.7981
  A 2.24 0.98 -64.5 0 0 215.5457 242.2418
  A 2.24 0.98 -64.5 0 0 217.3945 240.6419
  A 2.24 0.98 -64.5 0 0 217.4743 238.1982
  Z
  M 222.9520 240.0733
  A 0.74 0.74 0.0 0 0 221.9240 239.8772
  L 221.8744 239.9109
  A 0.74 0.74 0.0 0 0 221.6783 240.9389
  L 223.6680 243.8667
  A 0.74 0.74 0.0 0 0 224.6960 244.0628
  L 224.7456 244.0291
  A 0.74 0.74 0.0 0 0 224.9417 243.0011
  L 222.9520 240.0733
  Z
  M 132.0976 240.2346
  A 2.14 0.90 -148.9 0 0 133.4651 242.1106
  A 2.14 0.90 -148.9 0 0 135.7624 242.4454
  A 2.14 0.90 -148.9 0 0 134.3949 240.5694
  A 2.14 0.90 -148.9 0 0 132.0976 240.2346
  Z
  M 157.47 250.60
  A 1.15 1.13 -42.4 0 0 158.33 250.63
  L 162.98 248.94
  A 5.32 5.30 -86.0 0 0 165.88 246.41
  L 168.58 241.25
  A 0.82 0.81 -52.9 0 0 168.46 240.34
  L 168.43 240.31
  A 0.62 0.62 0.0 0 0 167.52 240.46
  C 165.58 243.52 163.37 246.94 160.57 248.10
  Q 157.58 249.34 156.83 249.77
  A 0.32 0.32 0.0 0 0 156.86 250.34
  L 157.47 250.60
  Z
  M 62.1950 241.8628
  A 1.58 0.82 -7.9 0 0 60.5173 241.2678
  A 1.58 0.82 -7.9 0 0 59.0650 242.2972
  A 1.58 0.82 -7.9 0 0 60.7427 242.8922
  A 1.58 0.82 -7.9 0 0 62.1950 241.8628
  Z
  M 180.8977 243.4103
  A 0.85 0.72 -91.5 0 0 180.2002 244.2788
  A 0.85 0.72 -91.5 0 0 180.9423 245.1097
  A 0.85 0.72 -91.5 0 0 181.6398 244.2412
  A 0.85 0.72 -91.5 0 0 180.8977 243.4103
  Z
  M 77.1262 244.1972
  A 0.94 0.73 -82.9 0 0 76.2856 245.0398
  A 0.94 0.73 -82.9 0 0 76.8938 246.0628
  A 0.94 0.73 -82.9 0 0 77.7344 245.2202
  A 0.94 0.73 -82.9 0 0 77.1262 244.1972
  Z
  M 459.2565 244.9921
  A 1.56 0.67 -42.7 0 0 457.6556 245.5576
  A 1.56 0.67 -42.7 0 0 456.9635 247.1079
  A 1.56 0.67 -42.7 0 0 458.5644 246.5424
  A 1.56 0.67 -42.7 0 0 459.2565 244.9921
  Z
  M 221.8109 244.9822
  A 1.25 0.95 -117.6 0 0 221.5481 246.5301
  A 1.25 0.95 -117.6 0 0 222.9691 247.1978
  A 1.25 0.95 -117.6 0 0 223.2319 245.6499
  A 1.25 0.95 -117.6 0 0 221.8109 244.9822
  Z
  M 168.0073 246.0948
  A 3.96 1.36 -67.0 0 0 165.2081 249.2086
  A 3.96 1.36 -67.0 0 0 164.9127 253.3852
  A 3.96 1.36 -67.0 0 0 167.7119 250.2714
  A 3.96 1.36 -67.0 0 0 168.0073 246.0948
  Z
  M 73.4223 246.8415
  A 1.26 0.74 -150.6 0 0 74.1567 248.1047
  A 1.26 0.74 -150.6 0 0 75.6177 248.0785
  A 1.26 0.74 -150.6 0 0 74.8833 246.8153
  A 1.26 0.74 -150.6 0 0 73.4223 246.8415
  Z
  M 116.82 248.18
  Q 114.17 253.47 109.80 258.28
  Q 108.84 259.34 108.60 260.11
  A 0.42 0.41 -1.6 0 1 108.34 260.38
  L 96.58 264.66
  A 0.33 0.33 0.0 0 0 96.47 265.22
  L 96.89 265.60
  A 0.05 0.01 31.7 0 0 96.92 265.61
  Q 99.05 264.93 100.10 265.66
  A 1.40 1.35 -28.9 0 0 101.00 265.90
  Q 102.75 265.76 104.16 266.24
  A 1.31 1.31 0.0 0 0 105.02 266.24
  Q 107.12 265.51 108.28 264.03
  A 0.82 0.81 25.5 0 1 109.11 263.74
  Q 110.21 264.00 111.00 264.62
  A 1.24 1.23 43.4 0 0 112.58 264.58
  L 117.20 260.45
  A 1.81 1.80 -20.9 0 0 117.81 259.10
  L 117.86 248.43
  A 0.55 0.55 0.0 0 0 116.82 248.18
  Z
  M 132.33 261.72
  Q 132.23 261.49 128.56 258.42
  C 125.53 255.89 123.95 253.54 122.07 250.50
  A 0.45 0.45 0.0 0 0 121.24 250.73
  L 121.20 258.13
  A 3.41 3.40 18.7 0 0 122.56 260.87
  C 125.18 262.84 127.17 266.02 130.94 266.34
  A 0.44 0.44 0.0 0 0 131.39 265.75
  Q 130.59 263.51 132.12 262.44
  A 0.59 0.59 0.0 0 0 132.33 261.72
  Z
  M 173.2799 253.8010
  A 1.98 0.77 -129.9 0 0 173.9593 255.8139
  A 1.98 0.77 -129.9 0 0 175.8201 256.8390
  A 1.98 0.77 -129.9 0 0 175.1407 254.8261
  A 1.98 0.77 -129.9 0 0 173.2799 253.8010
  Z
  M 61.70 260.81
  L 62.92 261.76
  A 0.46 0.46 0.0 0 0 63.56 261.68
  L 64.69 260.23
  A 6.41 1.01 -52.1 0 0 67.83 254.55
  L 67.48 254.28
  A 6.41 1.01 -52.1 0 0 62.74 258.72
  L 61.62 260.16
  A 0.46 0.46 0.0 0 0 61.70 260.81
  Z
  M 222.0287 255.2665
  A 4.61 1.14 -113.0 0 0 222.7806 259.9554
  A 4.61 1.14 -113.0 0 0 225.6313 263.7535
  A 4.61 1.14 -113.0 0 0 224.8794 259.0646
  A 4.61 1.14 -113.0 0 0 222.0287 255.2665
  Z
  M 218.11 256.69
  L 217.81 256.52
  A 1.05 1.04 35.2 0 0 216.50 256.74
  L 211.77 262.26
  A 2.09 2.09 0.0 0 0 211.64 264.82
  L 212.04 265.40
  A 1.00 0.99 -47.3 0 0 213.72 265.33
  L 218.30 257.40
  A 0.52 0.52 0.0 0 0 218.11 256.69
  Z
  M 456.56 263.30
  A 0.54 0.54 0.0 0 0 457.51 263.76
  Q 459.33 261.23 458.86 257.43
  A 0.51 0.51 0.0 0 0 458.06 257.08
  Q 454.75 259.46 450.87 260.65
  A 0.78 0.78 0.0 0 0 450.89 262.14
  Q 452.83 262.66 455.16 261.33
  A 0.79 0.79 0.0 0 1 456.13 261.47
  Q 456.86 262.26 456.56 263.30
  Z
  M 179.4072 258.8739
  A 1.95 0.96 -145.8 0 0 180.4804 260.7640
  A 1.95 0.96 -145.8 0 0 182.6328 261.0661
  A 1.95 0.96 -145.8 0 0 181.5596 259.1760
  A 1.95 0.96 -145.8 0 0 179.4072 258.8739
  Z
  M 163.2328 259.0204
  A 2.63 0.82 -51.9 0 0 160.9647 260.5840
  A 2.63 0.82 -51.9 0 0 159.9872 263.1596
  A 2.63 0.82 -51.9 0 0 162.2553 261.5960
  A 2.63 0.82 -51.9 0 0 163.2328 259.0204
  Z
  M 82.01 263.69
  L 76.17 260.22
  A 0.10 0.10 0.0 0 0 76.03 260.25
  L 76.01 260.28
  A 2.74 1.63 30.7 0 0 77.54 263.08
  L 78.84 263.85
  A 2.74 1.63 30.7 0 0 82.03 263.85
  L 82.05 263.83
  A 0.10 0.10 0.0 0 0 82.01 263.69
  Z
  M 56.39 263.42
  Q 56.73 263.94 57.23 263.66
  Q 59.95 262.10 59.49 261.39
  Q 59.03 260.69 56.50 262.55
  Q 56.04 262.89 56.39 263.42
  Z
  M 132.82 262.83
  Q 133.14 264.80 134.77 266.29
  A 1.82 1.82 0.0 0 0 136.18 266.76
  Q 139.23 266.43 142.60 267.48
  A 0.35 0.35 0.0 0 0 143.02 267.29
  L 143.14 267.00
  A 0.57 0.56 23.7 0 0 142.84 266.25
  L 133.61 262.21
  A 0.57 0.57 0.0 0 0 132.82 262.83
  Z
  M 157.8681 263.5163
  A 2.40 0.98 -42.9 0 0 155.4429 264.4321
  A 2.40 0.98 -42.9 0 0 154.3519 266.7837
  A 2.40 0.98 -42.9 0 0 156.7771 265.8679
  A 2.40 0.98 -42.9 0 0 157.8681 263.5163
  Z
  M 208.70 263.76
  Q 208.12 263.85 207.69 264.34
  A 0.65 0.61 -72.7 0 0 208.21 265.41
  Q 208.66 265.34 209.12 264.32
  A 0.40 0.40 0.0 0 0 208.70 263.76
  Z
  M 139.65 281.58
  Q 135.95 278.58 133.96 277.62
  Q 130.75 276.06 129.05 274.24
  Q 124.72 269.59 122.54 264.88
  A 0.67 0.67 0.0 0 0 121.38 264.78
  L 121.32 264.88
  A 1.66 1.66 0.0 0 0 121.25 266.62
  C 122.70 269.21 123.93 270.83 125.19 273.73
  C 126.06 275.73 128.22 280.19 130.87 277.30
  A 0.73 0.73 0.0 0 1 132.08 277.50
  C 132.91 279.41 137.31 284.99 139.69 282.75
  A 0.78 0.78 0.0 0 0 139.65 281.58
  Z
  M 117.4222 265.3018
  A 2.43 0.81 -65.9 0 0 115.6906 267.1893
  A 2.43 0.81 -65.9 0 0 115.4378 269.7382
  A 2.43 0.81 -65.9 0 0 117.1694 267.8507
  A 2.43 0.81 -65.9 0 0 117.4222 265.3018
  Z
  M 68.15 267.39
  A 0.18 0.18 0.0 0 0 67.81 267.30
  Q 63.14 275.45 62.80 276.17
  C 61.68 278.59 59.28 281.06 57.84 283.78
  A 0.48 0.48 0.0 0 0 58.54 284.40
  Q 59.96 283.41 60.90 281.67
  A 1.12 1.12 0.0 0 1 61.69 281.11
  L 63.12 280.88
  A 1.33 1.32 17.6 0 0 63.84 280.51
  Q 68.69 275.60 67.58 269.78
  A 1.57 1.53 -36.5 0 1 67.75 268.75
  Q 68.14 268.04 68.15 267.39
  Z
  M 171.6692 267.5092
  A 3.85 1.01 -120.1 0 0 172.7262 271.3465
  A 3.85 1.01 -120.1 0 0 175.5308 274.1708
  A 3.85 1.01 -120.1 0 0 174.4738 270.3335
  A 3.85 1.01 -120.1 0 0 171.6692 267.5092
  Z
  M 220.75 270.56
  L 221.22 274.83
  A 1.06 1.05 24.9 0 0 221.39 275.29
  L 225.24 280.84
  A 1.07 1.06 -44.6 0 0 226.98 280.85
  L 227.97 279.47
  A 1.13 1.12 -58.0 0 1 229.42 279.13
  Q 231.20 280.10 232.64 280.16
  A 0.43 0.43 0.0 0 0 232.84 279.34
  L 228.10 277.15
  A 0.43 0.32 -8.0 0 1 228.01 277.10
  Q 224.36 274.79 221.94 270.19
  A 0.63 0.63 0.0 0 0 220.75 270.56
  Z
  M 112.3186 270.0970
  A 3.30 1.08 -77.6 0 0 110.5552 273.0881
  A 3.30 1.08 -77.6 0 0 110.9014 276.5430
  A 3.30 1.08 -77.6 0 0 112.6648 273.5519
  A 3.30 1.08 -77.6 0 0 112.3186 270.0970
  Z
  M 217.75 269.92
  Q 216.70 270.40 216.17 271.42
  Q 214.03 275.55 210.89 277.65
  A 2.02 2.00 74.6 0 0 210.01 279.22
  L 209.99 279.86
  A 0.76 0.76 0.0 0 0 211.33 280.39
  L 215.58 275.44
  A 0.70 0.62 -78.0 0 1 215.84 275.25
  L 217.81 274.54
  A 0.74 0.72 -9.2 0 0 218.29 273.89
  L 218.44 270.38
  A 0.49 0.48 -10.9 0 0 217.75 269.92
  Z
  M 449.3046 270.7498
  A 0.78 0.48 -38.0 0 0 448.3945 270.8518
  A 0.78 0.48 -38.0 0 0 448.0754 271.7102
  A 0.78 0.48 -38.0 0 0 448.9855 271.6082
  A 0.78 0.48 -38.0 0 0 449.3046 270.7498
  Z
  M 284.53 271.01
  L 280.52 274.59
  A 0.50 0.49 -53.7 0 0 280.64 275.41
  Q 280.81 275.49 280.91 275.56
  A 1.43 1.41 -63.4 0 1 281.41 277.10
  L 279.98 281.80
  A 0.28 0.28 0.0 0 0 280.46 282.07
  C 282.28 279.91 286.28 273.98 285.32 271.21
  A 0.50 0.49 -30.4 0 0 284.53 271.01
  Z
  M 165.81 272.47
  A 0.60 0.60 0.0 0 0 165.07 271.52
  L 161.38 274.08
  A 0.60 0.60 0.0 0 0 161.27 274.98
  L 161.49 275.23
  A 0.81 0.81 0.0 0 0 162.64 275.30
  L 165.81 272.47
  Z
  M 109.14 272.86
  A 2.20 2.20 0.0 0 0 107.68 273.39
  Q 101.67 278.51 96.10 281.33
  Q 90.80 284.01 89.22 285.26
  A 4.07 4.05 -67.1 0 1 87.19 286.09
  L 82.78 286.61
  A 2.22 2.18 -39.2 0 1 81.90 286.53
  Q 74.63 284.36 71.30 278.23
  A 0.51 0.51 0.0 0 0 70.38 278.27
  Q 70.09 278.93 70.21 280.05
  Q 70.82 285.55 71.25 292.88
  A 0.73 0.72 87.9 0 0 71.98 293.57
  C 85.96 293.33 97.51 292.91 109.06 293.38
  Q 113.05 293.54 117.10 293.54
  A 0.42 0.42 0.0 0 0 117.52 293.13
  L 118.01 273.90
  A 0.72 0.72 0.0 0 0 116.71 273.47
  Q 114.86 276.10 111.83 279.62
  Q 110.93 280.66 108.76 280.57
  A 3.05 3.04 27.2 0 0 106.79 281.20
  Q 103.24 283.93 97.20 285.53
  A 1.01 1.01 0.0 0 1 95.93 284.57
  L 95.93 284.51
  A 1.60 1.59 -7.3 0 1 97.15 282.94
  C 101.11 281.97 103.91 280.87 105.81 277.36
  A 2.03 2.00 83.2 0 1 106.12 276.96
  L 109.56 273.69
  A 0.48 0.48 0.0 0 0 109.24 272.86
  L 109.14 272.86
  Z
  M 143.07 283.56
  Q 142.94 285.05 142.93 285.08
  C 141.37 288.68 135.07 284.32 133.83 282.93
  A 2.82 2.80 -21.9 0 0 131.66 282.01
  Q 128.05 282.11 125.55 278.32
  Q 123.40 275.07 122.04 272.83
  A 0.47 0.46 -61.0 0 0 121.18 273.08
  L 121.51 292.93
  A 0.98 0.98 0.0 0 0 122.51 293.89
  L 166.70 293.17
  A 0.76 0.76 0.0 0 0 167.45 292.43
  L 167.90 274.66
  A 0.52 0.52 0.0 0 0 166.96 274.35
  Q 163.24 279.61 157.22 282.45
  A 6.53 6.31 9.5 0 0 155.52 283.62
  Q 153.86 285.22 151.70 285.90
  A 5.36 5.32 15.5 0 0 149.74 287.00
  L 148.92 287.73
  A 1.48 1.48 0.0 0 1 146.58 286.03
  L 146.89 285.33
  A 0.68 0.68 0.0 0 0 146.54 284.44
  L 143.69 283.19
  A 0.45 0.44 -75.4 0 0 143.07 283.56
  Z
  M 182.29 279.21
  Q 183.27 278.19 184.09 278.56
  Q 186.43 279.63 188.23 279.82
  A 0.79 0.78 23.3 0 0 188.92 279.55
  L 189.10 279.34
  A 0.46 0.45 -60.0 0 0 188.91 278.62
  L 183.66 276.65
  A 0.52 0.40 -7.6 0 1 183.52 276.57
  L 178.92 272.92
  A 0.47 0.46 -81.2 0 0 178.20 273.45
  Q 179.71 277.42 181.44 279.21
  A 0.59 0.59 0.0 0 0 182.29 279.21
  Z
  M 71.51 273.25
  A 0.54 0.54 0.0 0 0 70.68 273.88
  Q 71.60 276.09 73.33 277.66
  A 3.62 3.49 5.3 0 1 73.95 278.38
  Q 75.98 281.44 78.36 282.88
  A 0.82 0.82 0.0 0 0 79.58 282.00
  Q 78.73 278.35 75.76 278.28
  Q 74.46 278.25 74.02 277.14
  Q 72.93 274.37 71.51 273.25
  Z
  M 52.63 279.24
  A 0.83 0.83 0.0 0 0 53.62 279.55
  C 57.46 278.06 60.70 277.23 61.91 274.33
  A 0.47 0.47 0.0 0 0 61.17 273.80
  Q 57.56 276.98 52.87 278.40
  A 0.52 0.52 0.0 0 0 52.59 279.19
  L 52.63 279.24
  Z
  M 287.49 275.08
  C 286.40 277.25 289.03 280.76 290.53 281.99
  A 1.80 1.79 37.6 0 0 293.11 281.66
  L 293.24 281.48
  A 1.76 1.76 0.0 0 0 292.68 278.91
  Q 289.98 277.40 288.34 275.02
  A 0.50 0.49 -48.8 0 0 287.49 275.08
  Z
  M 458.24 275.48
  A 0.19 0.19 0.0 0 0 457.87 275.46
  Q 457.77 275.77 457.88 275.83
  A 0.17 0.15 -48.2 0 0 458.06 275.81
  Q 458.28 275.62 458.24 275.48
  Z
  M 455.7007 277.9612
  A 1.38 0.57 -42.3 0 0 454.2964 278.4684
  A 1.38 0.57 -42.3 0 0 453.6593 279.8188
  A 1.38 0.57 -42.3 0 0 455.0636 279.3116
  A 1.38 0.57 -42.3 0 0 455.7007 277.9612
  Z
  M 464.9680 278.0659
  A 2.22 0.98 -137.7 0 0 465.9504 280.2848
  A 2.22 0.98 -137.7 0 0 468.2520 281.0541
  A 2.22 0.98 -137.7 0 0 467.2696 278.8352
  A 2.22 0.98 -137.7 0 0 464.9680 278.0659
  Z
  M 206.61 279.23
  L 203.43 281.93
  A 0.16 0.16 0.0 0 0 203.41 282.16
  L 203.45 282.21
  A 2.05 1.13 -40.3 0 0 205.75 281.75
  L 206.05 281.49
  A 2.05 1.13 -40.3 0 0 206.88 279.30
  L 206.84 279.25
  A 0.16 0.16 0.0 0 0 206.61 279.23
  Z
  M 295.1906 281.6075
  A 1.02 0.73 -125.3 0 0 295.1842 282.8618
  A 1.02 0.73 -125.3 0 0 296.3694 283.2725
  A 1.02 0.73 -125.3 0 0 296.3758 282.0182
  A 1.02 0.73 -125.3 0 0 295.1906 281.6075
  Z
  M 471.6112 281.8159
  A 1.49 0.72 -153.1 0 0 472.6142 283.1321
  A 1.49 0.72 -153.1 0 0 474.2688 283.1641
  A 1.49 0.72 -153.1 0 0 473.2658 281.8479
  A 1.49 0.72 -153.1 0 0 471.6112 281.8159
  Z
  M 81.5309 282.3658
  A 2.19 0.95 -155.9 0 0 83.1421 284.1272
  A 2.19 0.95 -155.9 0 0 85.5291 284.1542
  A 2.19 0.95 -155.9 0 0 83.9179 282.3928
  A 2.19 0.95 -155.9 0 0 81.5309 282.3658
  Z
  M 447.2919 282.9005
  A 0.10 0.04 -44.0 0 0 447.1922 282.9412
  A 0.10 0.04 -44.0 0 0 447.1481 283.0395
  A 0.10 0.04 -44.0 0 0 447.2478 282.9988
  A 0.10 0.04 -44.0 0 0 447.2919 282.9005
  Z"
/>
<path fill="#142b1f" d="
  M 224.19 134.86
  Q 224.42 134.41 224.57 134.34
  A 0.34 0.28 -73.9 0 1 224.81 134.90
  Q 224.61 135.09 224.42 135.14
  A 0.20 0.20 0.0 0 1 224.19 134.86
  Z"
/>
<rect fill="#626b74" x="-0.68" y="-4.48" transform="translate(170.41,146.61) rotate(-34.3)" width="1.36" height="8.96" rx="0.65"/>
<rect fill="#626b74" x="-0.52" y="-6.59" transform="translate(87.63,152.94) rotate(41.8)" width="1.04" height="13.18" rx="0.50"/>
<rect fill="#30463b" x="-0.90" y="-24.07" transform="translate(239.44,170.66) rotate(-44.6)" width="1.80" height="48.14" rx="0.88"/>
<ellipse fill="#626b74" cx="0.00" cy="0.00" transform="translate(154.86,158.08) rotate(-52.9)" rx="5.63" ry="0.46"/>
<path fill="#142b1f" d="
  M 374.74 256.55
  L 374.73 256.57
  A 0.69 0.68 -60.4 0 1 373.81 256.83
  Q 371.57 255.58 370.62 254.88
  Q 359.82 246.88 351.60 240.90
  Q 341.39 233.48 336.55 228.68
  C 332.40 224.56 325.69 217.69 318.42 211.07
  Q 315.19 208.14 309.84 202.36
  Q 299.06 190.72 294.94 186.30
  C 291.95 183.09 288.38 179.05 284.25 180.01
  Q 275.38 182.06 272.44 182.66
  Q 267.24 183.72 260.15 182.53
  A 2.59 2.58 -19.9 0 1 258.91 181.95
  C 251.73 175.90 245.60 168.00 239.38 161.87
  Q 239.04 161.54 238.96 160.90
  A 0.58 0.58 0.0 0 1 239.84 160.33
  Q 242.17 161.83 244.23 164.02
  Q 251.59 171.89 258.92 180.58
  A 2.06 2.05 -17.7 0 0 260.32 181.30
  C 268.27 181.97 275.26 179.82 282.62 177.65
  C 288.30 175.97 291.99 179.63 296.12 184.22
  C 306.79 196.08 313.18 203.55 323.04 213.20
  Q 327.35 217.42 334.34 224.89
  Q 338.17 228.97 350.48 238.02
  Q 362.40 246.77 374.57 255.75
  A 0.61 0.60 -57.2 0 1 374.74 256.55
  Z"
/>
<ellipse fill="#30463b" cx="0.00" cy="0.00" transform="translate(195.48,174.31) rotate(-131.2)" rx="8.78" ry="0.95"/>
<path fill="#30463b" d="
  M 265.20 203.98
  C 271.72 209.88 278.24 215.82 285.22 221.60
  A 1.29 1.28 -67.6 0 1 285.68 222.73
  L 285.68 222.75
  A 0.46 0.45 18.0 0 1 284.99 223.10
  Q 283.03 221.88 281.32 220.51
  Q 275.25 215.61 263.93 205.39
  Q 252.61 195.16 247.12 189.61
  Q 245.58 188.06 244.17 186.23
  A 0.46 0.45 66.2 0 1 244.45 185.51
  L 244.47 185.51
  A 1.29 1.28 -28.2 0 1 245.64 185.85
  C 252.10 192.21 258.67 198.09 265.20 203.98
  Z"
/>
<path fill="#30463b" d="
  M 293.42 201.77
  A 0.38 0.38 0.0 0 1 294.04 201.39
  Q 299.69 206.68 304.01 211.99
  Q 313.43 223.59 314.22 224.65
  Q 320.13 232.59 324.75 237.08
  Q 332.75 244.86 337.60 249.30
  A 0.45 0.45 0.0 0 1 337.63 249.93
  L 337.61 249.95
  A 0.66 0.65 -47.7 0 1 336.67 250.00
  Q 322.24 236.88 318.55 232.22
  Q 307.92 218.80 302.28 212.02
  Q 299.31 208.45 295.83 205.17
  Q 293.83 203.30 293.42 201.77
  Z"
/>
<path fill="#142b1f" d="
  M 403.72 249.23
  Q 403.32 249.17 401.00 247.49
  Q 393.15 241.79 384.60 234.28
  C 378.76 229.14 373.58 225.60 367.54 220.66
  Q 364.88 218.49 361.89 219.63
  C 353.00 223.01 346.43 225.94 338.17 225.76
  A 0.53 0.53 0.0 0 1 337.66 225.22
  L 337.67 224.95
  A 0.21 0.21 0.0 0 1 337.84 224.74
  C 346.46 223.30 350.96 221.55 358.96 218.20
  C 363.84 216.15 367.36 217.69 371.64 221.02
  Q 385.44 231.75 390.72 236.80
  Q 396.41 242.25 399.62 244.48
  Q 403.08 246.87 404.06 248.75
  A 0.33 0.33 0.0 0 1 403.72 249.23
  Z"
/>
<path fill="#30463b" d="
  M 368.11 232.09
  A 0.29 0.29 0.0 0 1 368.51 232.01
  L 391.40 247.74
  A 20.30 0.81 34.5 0 1 407.67 259.91
  A 20.30 0.81 34.5 0 1 390.48 249.08
  L 367.59 233.35
  A 0.29 0.29 0.0 0 1 367.52 232.94
  L 368.11 232.09
  Z"
/>
<path fill="#30463b" d="
  M 421.32 252.68
  C 426.00 254.61 431.53 256.47 437.60 258.61
  Q 439.05 259.11 440.03 259.94
  A 0.40 0.40 0.0 0 1 439.66 260.62
  Q 429.84 257.71 420.78 253.98
  Q 411.73 250.24 402.72 245.38
  A 0.40 0.40 0.0 0 1 402.93 244.64
  Q 404.21 244.74 405.59 245.40
  C 411.41 248.17 416.64 250.75 421.32 252.68
  Z"
/>
<path fill="#30463b" d="
  M 405.75 264.23
  A 0.04 0.04 0.0 0 1 405.72 264.18
  L 405.74 264.13
  A 7.75 1.38 18.7 0 1 413.52 265.30
  L 413.79 265.39
  A 7.75 1.38 18.7 0 1 420.69 269.19
  L 420.67 269.24
  A 0.04 0.04 0.0 0 1 420.62 269.27
  L 405.75 264.23
  Z"
/>
<path fill="#142b1f" d="
  M 261.35 277.80
  Q 258.78 277.08 255.97 277.82
  A 0.36 0.36 0.0 0 1 255.67 277.17
  L 259.84 274.27
  A 1.25 1.24 -41.8 0 1 261.35 274.35
  L 264.45 277.00
  A 1.01 1.01 0.0 0 1 264.78 277.92
  C 264.40 280.11 263.36 282.27 265.99 283.64
  A 2.40 2.23 39.3 0 1 266.52 287.53
  Q 265.05 288.63 263.39 290.21
  A 1.26 1.25 -60.0 0 1 262.25 290.52
  Q 260.67 290.17 259.44 290.97
  A 1.80 1.77 40.5 0 1 257.74 291.09
  L 252.56 288.69
  A 0.51 0.50 -27.6 0 0 252.39 288.64
  Q 250.91 288.43 249.13 289.04
  A 0.95 0.94 71.4 0 1 247.93 288.44
  Q 247.09 285.91 245.19 284.43
  A 0.79 0.78 -51.4 0 1 245.07 283.32
  L 247.38 280.46
  A 1.07 1.07 0.0 0 1 247.69 280.20
  Q 248.67 279.62 249.87 280.21
  A 0.80 0.80 0.0 0 0 250.79 280.05
  Q 251.20 279.64 251.40 279.01
  A 0.87 0.87 0.0 0 0 250.57 277.87
  Q 248.23 277.86 245.43 279.12
  A 0.99 0.99 0.0 0 1 244.03 278.26
  L 244.03 278.23
  A 1.92 1.91 82.7 0 1 245.54 276.27
  L 249.44 275.40
  A 0.71 0.71 0.0 0 0 249.93 274.39
  L 249.06 272.59
  A 2.03 2.03 0.0 0 1 250.43 269.72
  Q 253.46 269.02 255.43 267.24
  A 2.30 2.29 -38.5 0 1 258.86 267.63
  L 260.77 270.39
  A 0.91 0.91 0.0 0 0 262.16 270.52
  C 265.80 266.96 270.99 269.55 270.51 274.53
  A 0.66 0.66 0.0 0 1 269.26 274.75
  L 268.03 272.20
  A 2.35 2.35 0.0 0 0 265.04 271.05
  Q 263.43 271.69 261.82 273.31
  A 1.26 1.25 49.8 0 1 259.89 273.14
  L 257.62 269.87
  A 1.06 1.05 -46.5 0 0 255.85 269.92
  Q 254.66 271.87 252.42 271.69
  A 1.19 1.18 77.0 0 0 251.31 273.47
  L 253.93 277.97
  A 0.72 0.72 0.0 0 1 254.00 278.52
  L 253.29 281.03
  A 1.07 1.06 -70.4 0 1 251.84 281.72
  L 250.33 281.06
  A 0.78 0.77 35.7 0 0 249.50 281.19
  Q 247.67 282.81 249.05 285.82
  A 1.27 1.27 0.0 0 0 250.56 286.51
  C 253.53 285.65 255.05 288.22 257.59 288.29
  Q 261.29 288.39 263.96 287.17
  A 0.97 0.97 0.0 0 0 263.82 285.36
  L 262.54 285.00
  A 0.97 0.97 0.0 0 1 261.93 283.66
  Q 263.08 281.21 262.60 280.61
  A 0.67 0.67 0.0 0 0 261.55 280.61
  Q 260.80 281.53 260.04 281.63
  A 0.80 0.80 0.0 0 1 259.16 280.60
  Q 259.81 278.45 261.33 278.16
  A 0.19 0.18 -42.3 0 0 261.35 277.80
  Z"
/>
<path fill="#142b1f" d="
  M 370.09 281.77
  C 368.18 280.17 365.50 282.02 363.94 283.42
  A 0.70 0.70 0.0 0 1 362.95 283.37
  Q 362.46 282.83 362.69 281.91
  A 1.37 1.28 76.3 0 0 360.55 280.51
  Q 358.80 282.25 356.54 283.49
  Q 355.26 284.19 354.34 283.13
  A 1.22 1.00 67.5 0 1 354.93 281.16
  Q 357.43 281.35 359.42 278.77
  A 1.10 1.09 54.9 0 0 359.59 277.78
  Q 359.17 276.52 357.67 276.31
  A 0.39 0.34 34.6 0 0 357.50 276.33
  L 350.49 278.88
  A 0.66 0.65 76.6 0 1 349.62 278.34
  Q 349.49 277.24 349.04 276.94
  A 0.90 0.90 0.0 0 0 348.09 276.89
  Q 345.37 278.39 342.88 281.85
  Q 342.29 282.66 340.82 282.94
  A 0.44 0.44 0.0 0 1 340.30 282.43
  C 340.82 279.28 342.99 278.23 342.18 274.56
  A 2.02 1.92 84.1 0 0 340.32 272.97
  C 338.24 272.93 336.72 274.69 334.68 276.62
  A 1.39 1.37 -17.9 0 0 334.26 277.42
  L 333.93 279.72
  A 1.02 1.02 0.0 0 1 331.97 279.94
  Q 331.36 278.35 330.87 276.86
  A 1.34 1.22 62.0 0 0 328.88 276.15
  C 327.45 277.32 328.02 280.72 327.83 282.36
  A 1.12 1.11 -7.9 0 1 327.15 283.25
  Q 324.19 284.44 322.40 281.77
  A 1.16 1.16 0.0 0 0 320.67 281.56
  L 317.98 283.96
  A 1.09 1.08 -24.0 0 1 316.18 283.27
  L 315.94 281.09
  A 1.44 1.44 0.0 0 0 313.69 280.07
  L 312.07 281.19
  A 0.61 0.60 86.0 0 1 311.19 280.42
  C 312.10 278.63 313.02 275.36 311.42 274.12
  C 309.79 272.87 307.38 275.26 306.75 276.74
  A 2.12 2.07 -34.9 0 0 306.59 277.59
  Q 306.65 279.67 306.19 280.97
  A 0.88 0.87 42.5 0 1 304.57 281.04
  Q 304.08 279.98 303.96 278.41
  A 0.84 0.84 0.0 0 0 302.64 277.78
  L 300.98 278.94
  A 1.10 1.09 -0.1 0 1 299.45 277.42
  Q 301.75 274.08 304.74 276.08
  A 0.82 0.81 -65.6 0 0 305.97 275.61
  Q 306.41 273.99 307.24 273.01
  C 308.86 271.10 312.18 271.12 313.46 273.53
  Q 313.72 274.03 313.87 276.25
  Q 313.99 278.03 316.01 277.92
  A 0.78 0.77 78.0 0 1 316.79 278.43
  L 317.49 280.36
  A 1.03 1.03 0.0 0 0 319.04 280.85
  L 320.88 279.58
  A 1.31 1.30 -54.3 0 1 321.96 279.40
  Q 323.11 279.73 324.42 281.14
  A 0.93 0.93 0.0 0 0 326.03 280.40
  C 325.52 276.06 329.28 271.37 333.08 276.18
  A 0.55 0.55 0.0 0 0 334.04 276.00
  C 335.15 272.34 340.96 268.48 343.62 272.88
  C 344.33 274.04 344.04 275.45 344.30 276.72
  A 0.51 0.51 0.0 0 0 345.09 277.04
  C 347.85 275.11 349.24 273.33 352.65 275.94
  A 0.77 0.77 0.0 0 0 353.54 275.99
  C 358.38 272.94 360.35 275.55 363.67 279.27
  A 1.74 1.73 59.4 0 0 365.52 279.75
  C 367.96 278.91 369.25 279.32 371.48 281.03
  C 372.68 281.96 374.37 282.16 375.86 283.02
  Q 378.98 284.80 382.02 286.21
  Q 383.58 286.93 383.63 287.92
  Q 383.70 289.26 382.23 289.46
  Q 381.07 289.62 380.37 288.16
  A 1.62 1.41 47.8 0 0 377.66 287.84
  C 375.65 291.92 371.11 290.48 368.12 288.88
  C 366.64 288.09 365.57 289.02 364.14 289.19
  A 1.09 1.03 -30.3 0 1 363.45 289.03
  L 361.70 287.90
  A 1.18 1.15 -38.2 0 0 360.65 287.79
  C 358.07 288.77 356.22 289.88 353.58 287.96
  A 0.85 0.84 -36.8 0 0 352.80 287.85
  L 350.04 288.85
  A 0.99 0.99 0.0 0 1 348.88 288.49
  L 347.76 286.88
  A 1.47 1.46 63.3 0 0 346.09 286.32
  C 343.04 287.35 339.88 289.42 337.54 285.57
  A 0.62 0.62 0.0 0 0 336.45 285.64
  L 335.13 288.67
  A 1.91 1.91 0.0 0 1 332.62 289.66
  L 332.20 289.47
  A 1.29 1.28 -59.3 0 1 331.70 287.50
  Q 333.70 284.93 335.69 283.41
  C 337.27 282.18 339.53 282.66 340.53 284.44
  Q 340.96 285.20 341.76 285.52
  A 1.10 1.09 40.6 0 0 342.74 285.45
  Q 345.29 283.91 346.50 283.59
  Q 347.02 283.45 348.86 282.15
  C 351.12 280.55 353.23 283.46 354.30 285.34
  A 2.25 2.17 -27.6 0 0 357.20 286.19
  C 358.86 285.38 360.81 285.01 362.70 285.93
  Q 363.84 286.48 365.19 286.19
  C 369.23 285.31 371.72 290.07 375.83 287.56
  A 1.38 1.25 49.4 0 0 375.89 285.44
  Q 373.40 283.21 370.91 285.23
  A 0.85 0.85 0.0 0 1 369.52 284.53
  Q 369.57 283.36 370.17 282.57
  A 0.58 0.58 0.0 0 0 370.09 281.77
  Z
  M 351.4446 284.6050
  A 1.49 1.21 -22.7 0 0 349.6031 284.0637
  A 1.49 1.21 -22.7 0 0 348.6954 285.7550
  A 1.49 1.21 -22.7 0 0 350.5369 286.2963
  A 1.49 1.21 -22.7 0 0 351.4446 284.6050
  Z"
/>
<path fill="#142b1f" d="
  M 472.79 275.94
  Q 472.16 277.01 470.95 277.11
  A 1.20 1.19 63.4 0 1 470.04 276.80
  Q 467.47 274.50 468.19 273.26
  Q 468.91 272.02 472.18 273.13
  A 1.20 1.19 -2.9 0 1 472.89 273.77
  Q 473.41 274.88 472.79 275.94
  Z"
/>
<path fill="#142b1f" d="
  M 483.35 280.95
  A 0.95 0.94 -62.0 0 1 482.83 279.23
  Q 486.33 276.72 490.61 278.99
  A 1.10 1.08 4.8 0 1 491.12 279.58
  L 492.71 283.97
  A 0.47 0.47 0.0 0 1 492.08 284.56
  Q 489.60 283.49 488.48 281.83
  A 1.82 1.82 0.0 0 0 487.04 281.04
  L 483.35 280.95
  Z"
/>
<path fill="#30463b" d="
  M 502.96 298.36
  L 504.79 298.37
  L 510.88 298.52
  A 0.81 0.80 -89.6 0 1 511.66 299.32
  L 511.67 299.73
  A 0.66 0.66 0.0 0 1 511.01 300.40
  L 471.04 300.11
  L 469.52 300.15
  L 465.70 300.20
  A 0.90 0.89 14.1 0 0 464.94 300.65
  L 464.28 301.79
  A 0.95 0.94 19.9 0 1 463.29 302.25
  L 460.57 301.77
  A 8.67 8.62 49.3 0 0 459.02 301.65
  L 408.16 302.15
  A 1.08 1.07 82.4 0 1 407.11 301.34
  L 407.10 301.29
  A 0.63 0.63 0.0 0 1 407.70 300.76
  Q 423.66 300.21 435.75 300.08
  Q 442.59 300.00 463.74 299.02
  Q 483.33 298.11 502.96 298.36
  Z"
/>
<path fill="#142b1f" d="
  M 504.79 298.37
  L 502.96 298.36
  L 504.79 298.37
  Z"
/>
<path fill="#142b1f" d="
  M 206.22 300.52
  Q 203.85 300.65 204.18 301.49
  Q 177.00 301.40 149.75 301.25
  Q 144.03 301.22 126.21 302.13
  A 0.93 0.92 76.3 0 0 125.42 303.44
  L 125.62 303.83
  A 1.91 1.89 76.4 0 0 127.31 304.87
  L 148.37 304.97
  A 0.67 0.67 0.0 0 1 149.03 305.64
  L 149.02 306.47
  A 0.39 0.39 0.0 0 1 148.62 306.86
  L 116.45 306.04
  A 0.52 0.52 0.0 0 1 115.98 305.70
  Q 115.68 304.86 115.87 303.93
  A 0.56 0.56 0.0 0 0 115.32 303.25
  L 43.94 304.42
  A 1.96 1.93 64.6 0 1 42.65 303.95
  L 42.06 303.45
  A 0.55 0.55 0.0 0 1 42.39 302.49
  Q 61.83 301.66 82.86 301.81
  C 92.62 301.88 102.05 301.16 110.41 301.15
  C 119.89 301.13 132.88 299.88 142.75 300.01
  Q 174.47 300.46 206.22 300.52
  Z"
/>
<path fill="#142b1f" d="
  M 471.04 300.11
  L 469.52 300.15
  L 471.04 300.11
  Z"
/>
<path fill="#30463b" d="
  M 207.04 300.59
  L 208.03 300.66
  L 224.23 301.30
  A 0.61 0.61 0.0 0 1 224.81 302.04
  Q 224.68 302.62 224.69 303.00
  A 0.85 0.84 89.3 0 0 225.53 303.83
  L 260.96 304.00
  A 0.83 0.83 0.0 0 1 261.79 304.83
  L 261.79 305.18
  A 0.75 0.75 0.0 0 1 261.04 305.92
  Q 251.37 306.00 226.59 305.96
  C 212.65 305.94 202.82 306.49 188.26 307.02
  C 183.06 307.21 178.33 306.90 173.19 306.88
  A 0.21 0.20 88.5 0 1 172.99 306.68
  L 172.98 306.67
  A 0.24 0.24 0.0 0 1 173.20 306.42
  Q 183.72 305.40 185.00 305.40
  Q 194.28 305.40 204.82 304.87
  Q 206.72 304.77 208.55 303.70
  A 1.34 1.33 -54.6 0 1 209.49 303.54
  Q 214.37 304.48 219.48 303.63
  Q 219.90 303.70 219.89 303.25
  Q 219.89 302.66 219.28 302.58
  Q 218.36 302.09 217.68 302.11
  Q 210.87 302.34 204.18 301.49
  Q 203.85 300.65 206.22 300.52
  L 207.04 300.59
  Z"
/>
<path fill="#142b1f" d="
  M 208.03 300.66
  L 207.04 300.59
  L 208.03 300.66
  Z"
/>
<path fill="#142b1f" d="
  M 219.48 303.63
  Q 219.92 303.05 219.28 302.58
  Q 219.89 302.66 219.89 303.25
  Q 219.90 303.70 219.48 303.63
  Z"
/>
<path fill="#142b1f" d="
  M 434.15 308.24
  L 461.96 308.38
  A 0.49 0.49 0.0 0 1 462.45 308.84
  L 462.47 309.19
  A 0.53 0.53 0.0 0 1 461.99 309.76
  C 451.84 310.64 443.50 310.36 431.92 310.08
  C 419.23 309.78 407.20 310.52 396.25 310.90
  C 393.07 311.01 389.36 309.97 386.27 310.08
  C 377.38 310.40 370.76 310.49 365.44 309.78
  A 0.42 0.42 0.0 0 1 365.36 308.97
  Q 366.86 308.46 368.50 308.41
  C 380.09 308.05 397.91 308.39 413.01 307.55
  Q 419.84 307.18 430.07 306.91
  Q 430.80 306.89 432.99 305.83
  A 6.39 6.37 -59.7 0 1 435.35 305.21
  L 464.35 303.38
  A 1.01 1.01 0.0 0 1 464.93 305.26
  Q 463.73 305.97 461.75 305.97
  Q 449.35 305.95 434.08 307.52
  A 0.20 0.20 0.0 0 0 433.90 307.72
  L 433.89 307.99
  A 0.26 0.25 0.0 0 0 434.15 308.24
  Z"
/>
<path fill="#142b1f" d="
  M 219.77 319.36
  L 216.12 317.83
  Q 209.59 316.63 204.98 316.18
  Q 187.48 314.46 173.50 314.80
  C 164.62 315.01 155.70 314.57 146.75 314.67
  A 0.67 0.67 0.0 0 0 146.09 315.32
  L 146.09 315.34
  A 0.68 0.67 3.6 0 0 146.71 316.03
  L 153.26 316.67
  Q 151.03 316.82 151.82 317.74
  L 142.88 316.59
  A 2.97 2.92 45.4 0 0 142.24 316.58
  Q 136.91 317.01 132.67 314.88
  A 2.60 2.54 -31.1 0 0 131.52 314.61
  L 111.26 314.51
  A 3.81 3.64 52.7 0 1 110.12 314.33
  L 106.40 313.10
  A 1.74 1.52 -32.9 0 0 105.92 313.03
  L 81.01 313.44
  A 0.80 0.79 -0.0 0 1 80.20 312.64
  L 80.20 312.35
  A 0.46 0.46 0.0 0 1 80.63 311.89
  Q 84.74 311.54 88.75 311.59
  C 107.69 311.82 133.55 311.85 157.74 310.69
  Q 181.56 309.54 208.99 308.51
  Q 212.48 308.38 215.89 308.44
  C 218.92 308.51 221.72 308.05 225.05 308.07
  Q 232.59 308.11 262.17 307.80
  C 275.81 307.67 285.94 308.12 299.95 308.29
  Q 308.99 308.40 315.05 308.22
  Q 328.60 307.83 341.80 309.22
  A 0.32 0.31 -48.0 0 1 341.83 309.84
  Q 331.25 312.13 319.87 311.80
  A 3.96 3.94 35.3 0 0 318.38 312.05
  Q 316.02 312.96 315.00 312.98
  Q 298.02 313.23 295.02 313.21
  Q 293.85 313.20 291.85 312.72
  C 290.78 312.47 290.76 311.56 290.00 311.08
  A 1.55 1.55 0.0 0 0 288.96 310.86
  C 282.77 311.69 275.48 310.00 269.93 309.78
  C 255.81 309.24 240.03 310.25 227.03 310.09
  Q 218.83 309.99 198.44 310.47
  A 5.51 5.39 36.2 0 0 197.05 310.67
  Q 191.80 312.05 185.02 311.95
  Q 183.93 311.94 182.70 312.42
  A 0.17 0.17 0.0 0 0 182.75 312.75
  Q 192.18 313.50 199.35 313.82
  C 203.85 314.03 207.67 314.76 212.96 314.83
  C 215.46 314.87 218.08 315.48 220.92 316.41
  A 1.43 1.34 18.5 0 1 221.86 318.15
  Q 221.49 319.18 219.77 319.36
  Z"
/>
<path fill="#142b1f" d="
  M 367.26 313.80
  A 0.34 0.33 59.5 0 1 367.41 313.20
  Q 374.55 312.26 384.99 311.72
  C 388.91 311.52 393.72 312.46 397.00 312.50
  Q 421.24 312.75 425.00 312.82
  Q 426.00 312.83 427.55 313.17
  A 3.16 2.78 48.7 0 0 428.09 313.24
  L 483.29 314.65
  A 1.73 1.72 -9.6 0 1 484.86 315.76
  L 484.92 315.93
  A 0.95 0.94 -1.8 0 1 483.99 316.91
  Q 474.30 317.10 468.19 318.80
  C 463.64 320.07 458.36 320.73 452.59 321.16
  A 0.48 0.48 0.0 0 0 452.15 321.70
  L 452.18 321.97
  A 0.24 0.24 0.0 0 0 452.42 322.19
  L 462.21 322.44
  A 1.26 1.24 71.4 0 1 463.14 322.91
  L 463.37 323.21
  A 0.59 0.59 0.0 0 1 462.92 324.16
  L 440.24 324.53
  A 1.05 1.04 -3.3 0 1 439.19 323.60
  L 439.14 323.16
  A 0.77 0.76 83.7 0 1 439.82 322.31
  L 449.75 321.20
  A 2.10 1.96 24.6 0 0 450.56 320.93
  Q 451.94 320.13 453.43 319.89
  Q 459.25 318.94 469.22 317.12
  A 0.23 0.23 0.0 0 0 469.25 316.68
  Q 467.81 316.21 466.75 316.19
  Q 447.81 315.90 435.77 315.39
  Q 423.73 314.87 411.72 315.24
  Q 393.79 315.81 370.29 314.88
  C 369.05 314.83 368.15 314.47 367.26 313.80
  Z"
/>
<path fill="#142b1f" d="
  M 156.98 316.76
  L 155.71 316.74
  L 156.98 316.76
  Z"
/>
<path fill="#30463b" d="
  M 153.26 316.67
  L 155.71 316.74
  L 156.98 316.76
  Q 168.00 317.52 179.00 318.66
  Q 186.25 319.42 204.85 319.32
  C 206.31 319.32 207.89 318.97 209.45 318.98
  Q 210.79 319.38 211.96 318.98
  Q 215.33 319.53 216.12 317.83
  L 219.77 319.36
  Q 212.33 321.69 204.47 321.35
  L 200.55 321.41
  Q 200.19 321.72 200.50 321.99
  A 0.25 0.24 64.5 0 0 200.66 322.05
  L 218.75 322.13
  A 0.71 0.71 0.0 0 1 219.43 323.04
  L 219.13 324.12
  A 0.67 0.67 0.0 0 0 219.63 324.95
  Q 221.63 325.40 223.31 325.39
  C 231.35 325.38 243.81 325.69 252.56 325.46
  Q 277.44 324.81 306.32 324.64
  C 308.13 324.63 309.89 324.03 311.78 324.15
  Q 322.42 324.82 332.58 324.82
  C 340.43 324.82 348.10 325.65 356.24 325.74
  Q 357.36 325.76 358.15 326.22
  A 0.74 0.73 61.4 0 1 357.75 327.59
  Q 328.20 326.35 300.69 326.76
  C 275.45 327.13 250.26 327.09 232.75 327.29
  Q 221.73 327.41 212.50 324.54
  A 6.66 6.61 -32.7 0 0 211.42 324.31
  L 201.97 323.16
  L 200.71 323.12
  L 198.97 323.13
  L 197.53 323.14
  C 194.40 322.97 191.33 321.78 188.46 321.83
  Q 185.60 321.88 183.05 321.03
  A 7.04 7.00 -35.7 0 0 180.83 320.67
  Q 171.32 320.67 169.74 320.25
  Q 160.89 317.95 151.82 317.74
  Q 151.03 316.82 153.26 316.67
  Z"
/>
<path fill="#142b1f" d="
  M 211.96 318.98
  Q 210.79 319.38 209.45 318.98
  L 211.96 318.98
  Z"
/>
<path fill="#142b1f" d="
  M 154.61 321.13
  Q 139.85 322.07 120.00 321.88
  Q 99.91 321.69 81.83 324.41
  Q 81.51 324.46 81.39 324.50
  A 0.26 0.26 0.0 0 0 81.46 325.01
  L 116.08 326.15
  A 0.08 0.07 -90.0 0 1 116.15 326.23
  L 116.15 326.50
  A 0.22 0.21 -88.6 0 1 115.94 326.71
  C 96.17 327.33 81.75 326.83 64.95 326.31
  A 0.97 0.97 0.0 0 1 64.02 325.22
  L 64.03 325.18
  A 1.25 1.24 2.4 0 1 65.22 324.09
  Q 70.80 323.85 73.02 323.53
  Q 113.45 317.68 154.61 321.13
  Z"
/>
<path fill="#142b1f" d="
  M 204.47 321.35
  L 200.55 321.41
  L 204.47 321.35
  Z"
/>
<path fill="#30463b" d="
  M 386.71 322.08
  A 0.15 0.15 0.0 0 1 386.86 321.92
  L 389.15 321.88
  A 28.40 0.66 -1.1 0 1 417.56 321.99
  L 417.56 322.15
  A 28.40 0.66 -1.1 0 1 389.18 323.36
  L 386.89 323.40
  A 0.15 0.15 0.0 0 1 386.73 323.26
  L 386.71 322.08
  Z"
/>
<path fill="#142b1f" d="
  M 198.97 323.13
  L 197.53 323.14
  L 198.97 323.13
  Z"
/>
<path fill="#142b1f" d="
  M 201.97 323.16
  L 200.71 323.12
  L 201.97 323.16
  Z"
/>
<path fill="#30463b" d="
  M 183.00 335.20
  C 184.98 334.29 188.54 334.81 189.60 334.02
  A 0.29 0.29 0.0 0 0 189.46 333.50
  C 185.31 333.06 182.73 333.49 178.89 333.16
  Q 165.40 332.00 145.25 331.53
  Q 143.21 331.48 141.40 330.82
  A 0.76 0.76 0.0 0 1 141.65 329.35
  Q 160.79 328.88 196.90 327.83
  Q 202.85 327.66 207.09 327.88
  C 212.37 328.15 216.10 327.96 220.64 328.33
  Q 236.85 329.66 257.14 330.50
  A 0.91 0.91 0.0 0 1 258.01 331.41
  L 258.01 331.90
  A 0.95 0.95 0.0 0 1 257.11 332.84
  Q 237.57 333.82 221.75 334.92
  Q 218.36 335.15 208.31 335.22
  C 200.15 335.27 191.22 336.26 183.06 335.56
  A 0.19 0.19 0.0 0 1 183.00 335.20
  Z
  M 232.21 331.72
  A 26.52 1.27 2.2 0 0 231.46 331.42
  A 26.40 1.30 1.3 0 0 218.25 330.28
  A 26.43 1.31 1.3 0 0 179.78 330.34
  A 26.59 1.31 1.1 0 0 179.38 330.57
  A 3.19 0.35 19.4 0 0 179.43 330.64
  A 26.42 1.30 1.3 0 0 189.72 331.83
  A 26.43 1.31 1.3 0 0 231.95 331.93
  A 25.87 1.26 1.3 0 0 232.21 331.72
  Z"
/>
<path fill="#30463b" d="
  M 491.15 331.67
  A 0.26 0.26 0.0 0 1 490.90 331.93
  L 467.69 332.10
  A 27.35 0.55 -0.4 0 1 440.33 331.74
  L 440.33 331.10
  A 27.35 0.55 -0.4 0 1 467.67 330.36
  L 490.88 330.19
  A 0.26 0.26 0.0 0 1 491.15 330.45
  L 491.15 331.67
  Z"
/>
<path fill="#142b1f" d="
  M 232.21 331.72
  Q 232.25 331.25 231.46 331.42
  A 26.52 1.27 2.2 0 1 232.21 331.72
  Z"
/>
<path fill="#30463b" d="
  M 333.79 334.90
  L 332.45 335.00
  A 9.70 0.73 -2.9 0 1 321.28 334.94
  A 9.73 0.75 -4.7 0 1 321.33 334.73
  A 9.69 0.73 -3.0 0 1 335.01 333.48
  A 9.70 0.74 -3.0 0 1 340.57 333.84
  Q 340.57 333.85 340.57 333.86
  A 9.69 0.72 -3.0 0 1 333.79 334.90
  Z"
/>
<ellipse fill="#30463b" cx="0.00" cy="0.00" transform="translate(312.21,334.33) rotate(-175.7)" rx="4.70" ry="0.79"/>
<path fill="#142b1f" d="
  M 333.79 334.90
  A 9.71 0.15 -4.1 0 1 332.45 335.00
  L 333.79 334.90
  Z"
/>
<path fill="#142b1f" d="
  M 183.18 336.92
  L 180.56 336.59
  Q 181.86 335.31 183.18 336.92
  Z"
/>
<path fill="#30463b" d="
  M 180.56 336.59
  L 183.18 336.92
  L 186.04 337.25
  Q 187.22 337.51 188.54 337.36
  L 206.19 337.55
  A 0.34 0.34 0.0 0 1 206.52 337.86
  L 206.56 338.16
  A 0.52 0.51 -4.7 0 1 206.07 338.73
  Q 197.66 339.20 194.25 339.08
  Q 159.59 337.95 125.74 339.73
  Q 122.09 339.92 121.76 339.94
  Q 103.64 341.07 99.25 341.47
  Q 97.86 341.60 96.82 342.01
  A 0.27 0.27 0.0 0 0 96.84 342.52
  C 101.60 343.94 106.40 343.65 110.74 344.02
  Q 114.64 344.35 116.38 344.24
  C 121.72 343.92 126.45 344.72 132.53 344.86
  Q 156.41 345.41 179.81 346.58
  A 1.35 1.35 0.0 0 1 181.08 348.08
  L 181.08 348.14
  A 1.76 1.76 0.0 0 1 179.50 349.72
  L 148.22 352.70
  A 0.90 0.90 0.0 0 0 147.40 353.55
  L 147.33 355.16
  A 0.69 0.69 0.0 0 1 146.65 355.83
  Q 138.82 355.99 137.02 355.72
  Q 131.16 354.85 128.20 355.21
  C 121.26 356.07 118.10 356.79 111.94 357.07
  Q 105.75 357.35 97.13 358.25
  Q 90.59 358.93 88.36 358.99
  C 81.42 359.18 77.63 359.91 69.92 360.22
  Q 66.09 360.38 60.32 361.27
  A 0.32 0.32 0.0 0 0 60.35 361.91
  Q 62.61 362.06 66.25 361.95
  Q 84.42 361.41 99.10 360.92
  A 0.72 0.71 86.1 0 1 99.83 361.56
  L 99.86 361.81
  A 0.41 0.41 0.0 0 1 99.50 362.27
  Q 83.97 363.97 78.25 364.00
  Q 70.29 364.03 39.97 363.59
  A 0.76 0.75 -84.5 0 1 39.24 362.70
  L 39.24 362.67
  A 1.24 1.24 0.0 0 1 40.28 361.67
  Q 62.25 358.52 82.42 357.12
  Q 92.82 356.39 98.19 355.85
  Q 107.63 354.90 114.08 354.61
  A 7.36 7.25 -54.0 0 0 115.77 354.33
  Q 121.09 352.81 127.68 353.11
  A 0.69 0.66 -46.4 0 0 127.88 353.10
  L 166.74 348.77
  A 0.18 0.17 -6.5 0 0 166.90 348.58
  L 166.86 348.28
  A 0.10 0.10 0.0 0 0 166.76 348.19
  L 118.35 346.09
  A 3.78 3.66 57.2 0 1 117.02 345.78
  L 115.38 345.06
  A 1.63 1.59 -36.3 0 0 114.52 344.94
  Q 110.18 345.49 108.02 344.84
  C 104.35 343.74 100.44 344.16 96.55 342.95
  A 3.44 3.35 50.6 0 0 95.29 342.81
  Q 89.50 343.25 86.20 342.87
  Q 85.63 342.80 85.35 342.55
  A 1.04 1.04 0.0 0 1 85.91 340.74
  Q 95.92 339.49 104.05 339.18
  C 106.41 339.09 108.62 338.17 110.94 338.32
  Q 116.76 338.69 120.63 336.85
  A 3.21 3.15 -57.1 0 1 122.06 336.53
  L 180.56 336.59
  Z"
/>
<path fill="#142b1f" d="
  M 188.54 337.36
  Q 187.22 337.51 186.04 337.25
  L 188.54 337.36
  Z"
/>
<rect fill="#30463b" x="-28.42" y="-0.58" transform="translate(431.54,344.86) rotate(-2.3)" width="56.84" height="1.16" rx="0.35"/>
<path fill="#30463b" d="
  M 328.70 345.72
  Q 329.53 345.96 330.29 345.71
  Q 331.78 345.54 332.90 345.98
  A 0.80 0.80 0.0 0 1 332.74 347.51
  Q 331.50 347.72 329.96 347.40
  L 328.54 347.36
  Q 310.89 346.98 293.25 346.07
  Q 289.26 345.87 265.38 347.65
  Q 261.29 347.96 249.04 348.26
  C 243.86 348.39 238.19 349.16 233.16 349.02
  C 228.76 348.89 224.32 349.97 219.55 349.78
  A 0.34 0.33 2.7 0 1 219.23 349.44
  L 219.23 349.18
  A 0.09 0.09 0.0 0 1 219.31 349.09
  L 225.79 348.89
  L 226.71 348.87
  C 231.62 347.88 238.03 347.84 241.40 347.53
  Q 259.94 345.81 282.99 344.20
  Q 290.62 343.67 297.11 344.21
  Q 304.90 344.85 309.93 344.98
  Q 319.33 345.20 328.70 345.72
  Z"
/>
<path fill="#142b1f" d="
  M 330.29 345.71
  Q 329.53 345.96 328.70 345.72
  Q 329.42 345.46 330.29 345.71
  Z"
/>
<path fill="#142b1f" d="
  M 329.96 347.40
  L 328.54 347.36
  L 329.96 347.40
  Z"
/>
<path fill="#142b1f" d="
  M 226.71 348.87
  L 225.79 348.89
  L 226.71 348.87
  Z"
/>
<rect fill="#30463b" x="-12.65" y="-1.08" transform="translate(74.55,354.91) rotate(-3.3)" width="25.30" height="2.16" rx="1.06"/>
<path fill="#626b74" d="
  M 266.27 360.59
  L 266.57 363.71
  L 246.73 364.00
  A 0.83 0.83 0.0 0 1 246.20 362.53
  Q 247.05 361.83 248.80 362.11
  L 252.54 362.12
  L 255.76 361.83
  L 257.32 361.75
  A 0.13 0.12 -43.0 0 0 257.33 361.50
  L 254.45 361.18
  C 250.71 361.18 246.72 360.33 243.45 360.20
  Q 230.56 359.67 217.80 357.64
  Q 213.48 356.96 211.17 357.03
  C 208.79 357.11 204.26 357.55 201.87 356.34
  A 0.24 0.24 0.0 0 1 201.91 355.89
  Q 203.54 355.42 204.25 355.48
  Q 235.26 358.27 266.27 360.59
  Z"
/>
<rect fill="#626b74" x="-20.70" y="-0.92" transform="translate(408.19,360.50) rotate(-2.3)" width="41.40" height="1.84" rx="0.27"/>
<path fill="#142b1f" d="
  M 266.57 363.71
  L 266.27 360.59
  C 273.16 361.43 280.91 361.39 286.90 361.89
  Q 303.65 363.30 319.99 361.94
  Q 321.28 361.83 324.46 362.26
  A 1.11 1.11 0.0 0 1 325.40 363.60
  L 325.39 363.65
  A 1.54 1.54 0.0 0 1 323.92 364.87
  C 314.80 365.08 305.33 365.65 296.44 364.92
  C 291.69 364.54 286.98 364.65 281.67 364.17
  Q 275.31 363.59 266.57 363.71
  Z"
/>
<path fill="#30463b" d="
  M 255.76 361.83
  Q 256.95 362.05 254.45 361.18
  L 257.33 361.50
  A 0.13 0.12 -43.0 0 1 257.32 361.75
  L 255.76 361.83
  Z"
/>
<path fill="#30463b" d="
  M 252.54 362.12
  L 248.80 362.11
  L 252.54 362.12
  Z"
/>
<path fill="#30463b" d="
  M 231.00 369.11
  L 231.96 369.16
  L 236.23 369.75
  A 2.04 1.90 47.0 0 0 236.51 369.77
  L 246.29 369.70
  A 1.86 1.84 -29.7 0 1 247.22 369.95
  Q 247.42 370.06 247.48 370.15
  A 0.62 0.61 -23.1 0 1 247.08 371.10
  C 241.73 372.20 236.32 372.12 230.96 373.03
  Q 226.95 373.71 219.96 374.31
  A 1.51 1.49 -64.8 0 0 219.28 374.56
  L 217.57 375.75
  A 1.84 1.79 -63.5 0 1 216.72 376.05
  Q 179.74 378.80 160.89 381.68
  Q 136.34 385.43 128.80 386.59
  A 0.19 0.18 -5.8 0 0 128.65 386.77
  L 128.65 386.79
  A 0.34 0.34 0.0 0 0 128.99 387.11
  Q 134.22 387.21 142.75 386.82
  Q 150.05 386.48 178.48 385.91
  C 179.35 385.89 180.67 386.23 181.30 386.93
  A 0.38 0.37 -20.8 0 1 181.02 387.55
  Q 161.90 387.82 133.93 388.70
  C 132.05 388.76 130.09 389.30 128.26 389.29
  Q 120.35 389.25 109.14 389.91
  A 2.43 2.42 -18.6 0 1 106.99 388.85
  L 106.92 388.76
  A 0.86 0.86 0.0 0 1 107.53 387.42
  Q 128.19 384.92 150.08 381.40
  Q 178.57 376.82 193.39 375.72
  Q 209.92 374.49 230.50 372.28
  Q 233.24 371.98 235.45 371.20
  A 0.20 0.20 0.0 0 0 235.46 370.83
  Q 233.88 370.22 231.95 370.27
  L 229.78 370.07
  C 224.15 370.14 217.81 369.35 213.06 369.21
  Q 185.23 368.39 179.00 368.22
  Q 157.64 367.66 122.73 369.27
  C 120.83 369.36 118.61 370.10 116.89 370.12
  C 110.43 370.20 97.15 370.40 86.34 370.96
  Q 75.92 371.50 64.61 370.50
  A 1.54 1.52 81.5 0 1 63.32 369.53
  L 63.30 369.47
  A 0.64 0.64 0.0 0 1 63.92 368.59
  Q 75.46 368.93 76.00 368.74
  Q 76.05 368.72 103.00 368.16
  Q 108.48 368.05 110.72 367.97
  Q 131.25 367.21 139.00 366.80
  C 152.76 366.07 168.95 366.01 179.48 366.02
  A 5.01 4.55 -36.4 0 1 180.46 366.12
  Q 183.34 366.72 183.99 366.74
  C 190.12 366.90 199.00 366.90 206.93 367.59
  C 210.54 367.90 216.00 367.35 220.40 368.70
  A 4.41 4.13 -33.9 0 0 221.45 368.87
  L 231.00 369.11
  Z"
/>
<rect fill="#626b74" x="-4.62" y="-0.78" transform="translate(372.45,368.53) rotate(-16.1)" width="9.24" height="1.56" rx="0.75"/>
<path fill="#142b1f" d="
  M 231.96 369.16
  L 231.00 369.11
  L 231.96 369.16
  Z"
/>
<path fill="#142b1f" d="
  M 231.95 370.27
  L 229.78 370.07
  L 231.95 370.27
  Z"
/>
<path fill="#30463b" d="
  M 308.73 381.70
  Q 308.74 382.72 307.49 382.75
  Q 287.40 383.23 259.50 382.79
  A 0.23 0.17 54.9 0 1 259.38 382.75
  Q 259.22 382.63 259.22 382.41
  Q 259.22 382.19 259.37 382.07
  A 0.23 0.17 -56.5 0 1 259.49 382.02
  Q 287.36 380.78 307.46 380.68
  Q 308.71 380.67 308.73 381.70
  Z"
/>
<path fill="#626b74" d="
  M 348.52 384.79
  A 0.20 0.20 0.0 0 1 348.36 385.03
  L 347.84 385.13
  A 7.91 0.76 -11.4 0 1 339.94 385.95
  L 339.87 385.64
  A 7.91 0.76 -11.4 0 1 347.48 383.33
  L 348.00 383.22
  A 0.20 0.20 0.0 0 1 348.23 383.38
  L 348.52 384.79
  Z"
/>
<path fill="#30463b" d="
  M 217.47 387.91
  A 0.12 0.12 0.0 0 1 217.35 388.03
  L 193.50 387.94
  A 9.41 0.24 0.2 0 1 184.09 387.67
  L 184.09 387.63
  A 9.41 0.24 0.2 0 1 193.50 387.42
  L 217.35 387.51
  A 0.12 0.12 0.0 0 1 217.47 387.63
  L 217.47 387.91
  Z"
/>
<path fill="#30463b" d="
  M 282.60 399.58
  L 284.11 398.53
  A 0.77 0.77 0.0 0 0 283.88 397.15
  C 274.99 394.61 266.13 393.94 254.45 393.05
  Q 245.02 392.33 239.04 392.21
  Q 210.30 391.62 184.26 393.39
  Q 180.10 393.67 178.39 393.12
  A 0.63 0.63 0.0 0 1 178.40 391.92
  Q 179.63 391.56 180.54 391.55
  Q 190.28 391.43 212.18 390.28
  Q 218.79 389.93 224.33 390.13
  Q 229.49 390.31 236.49 390.40
  Q 258.80 390.69 276.76 393.99
  Q 281.12 394.79 286.25 396.48
  Q 286.83 396.67 287.22 397.04
  A 1.35 1.34 -36.7 0 1 286.89 399.21
  Q 284.87 400.25 282.79 400.21
  A 0.35 0.35 0.0 0 1 282.60 399.58
  Z"
/>
<path fill="#30463b" d="
  M 185.60 414.19
  Q 185.70 414.68 186.30 414.73
  Q 204.26 416.38 212.50 417.22
  C 216.64 417.65 223.84 417.77 229.49 417.27
  Q 234.62 416.82 241.07 416.86
  A 1.11 1.11 0.0 0 1 242.16 417.86
  L 242.17 417.91
  A 0.93 0.93 0.0 0 1 241.26 418.93
  C 229.42 419.13 217.26 419.82 206.00 418.71
  C 197.71 417.90 187.40 417.32 180.31 415.82
  A 1.42 1.41 25.2 0 1 179.49 413.55
  Q 179.88 413.06 181.48 412.67
  Q 186.37 411.48 193.15 410.47
  Q 202.53 409.07 224.38 405.66
  C 234.90 404.02 246.32 403.29 256.26 401.95
  Q 262.98 401.05 269.31 401.05
  A 0.28 0.28 0.0 0 1 269.59 401.31
  L 269.60 401.34
  A 0.33 0.33 0.0 0 1 269.30 401.66
  L 250.60 403.38
  A 1.99 1.96 -68.3 0 0 249.46 403.88
  L 248.95 404.33
  A 2.32 2.28 20.2 0 1 247.71 404.89
  Q 218.92 408.27 185.79 413.91
  A 0.24 0.23 79.4 0 0 185.60 414.19
  Z"
/>
</svg>
