<?xml version="1.0" encoding="UTF-8" standalone="no"?>
<!DOCTYPE svg PUBLIC "-//W3C//DTD SVG 1.1//EN" "http://www.w3.org/Graphics/SVG/1.1/DTD/svg11.dtd">
<svg xmlns="http://www.w3.org/2000/svg" version="1.1" viewBox="0.00 0.00 1503.00 1046.00">
<g stroke-width="2.00" fill="none" stroke-linecap="butt">
<path stroke="#41654d" vector-effect="non-scaling-stroke" d="
  M 1194.46 102.63
  C 1196.63 107.02 1199.70 111.57 1200.80 116.10
  C 1201.91 120.72 1202.11 123.88 1200.42 128.49
  A 4.33 4.31 -54.5 0 0 1201.11 132.67
  C 1202.20 134.02 1203.86 135.49 1204.33 137.16
  C 1205.75 142.21 1201.14 144.69 1196.67 145.44
  A 1.00 1.00 0.0 0 1 1195.83 145.19
  Q 1187.51 137.69 1185.63 127.50
  C 1184.83 123.14 1183.73 118.30 1182.52 116.36
  C 1179.19 111.02 1175.71 109.90 1169.19 106.97
  C 1163.56 104.44 1159.95 103.72 1153.52 103.82
  A 1.54 1.51 21.9 0 0 1152.48 104.25
  Q 1151.73 105.00 1151.87 106.70
  A 0.91 0.89 13.9 0 0 1152.29 107.38
  L 1160.33 112.43
  A 1.34 1.29 86.6 0 1 1160.69 112.76
  Q 1162.49 115.25 1162.92 117.44
  A 1.83 1.47 79.1 0 1 1161.83 119.51
  C 1158.43 120.18 1155.21 113.69 1150.15 113.01
  A 0.45 0.45 0.0 0 0 1149.68 113.63
  Q 1150.38 115.32 1151.52 116.19
  Q 1160.75 123.18 1172.39 134.12
  Q 1173.48 135.14 1176.34 139.09
  A 0.56 0.55 -29.9 0 1 1176.11 139.92
  L 1167.78 143.51
  A 2.10 1.97 -56.4 0 1 1167.10 143.67
  C 1157.85 144.43 1154.60 146.17 1153.18 155.26
  A 1.28 1.28 0.0 0 1 1151.59 156.30
  L 1147.74 155.28
  A 2.03 2.01 28.6 0 0 1145.74 155.86
  Q 1142.94 158.91 1142.52 163.39
  A 1.85 1.84 -15.0 0 1 1141.75 164.72
  Q 1137.44 167.74 1133.84 171.34
  Q 1126.56 178.61 1121.41 183.41
  Q 1114.10 190.24 1095.11 208.92
  C 1087.84 216.08 1081.33 224.78 1074.43 231.94
  Q 1067.93 238.68 1051.74 254.16
  C 1046.05 259.60 1042.43 265.11 1036.54 270.91
  Q 1031.76 275.62 1028.59 279.72
  C 1023.05 286.89 1016.92 292.73 1011.16 299.38
  Q 1009.77 300.99 1007.86 302.62
  C 1004.39 305.59 1002.77 306.78 999.28 310.46
  C 988.07 322.26 982.20 329.10 973.38 338.17
  Q 967.53 344.19 961.31 352.45
  A 2.10 2.10 0.0 0 1 959.26 353.25
  C 952.49 352.00 950.02 356.49 949.12 362.35
  A 1.88 1.88 0.0 0 0 949.46 363.75
  Q 954.49 370.60 959.24 375.17
  Q 961.32 377.17 962.30 379.71
  C 963.28 382.23 965.02 385.87 964.56 387.47
  A 0.63 0.63 0.0 0 1 963.43 387.65
  Q 957.70 379.23 949.43 372.21
  C 943.52 367.20 939.74 364.47 935.55 359.72
  C 931.29 354.87 929.26 352.25 924.83 349.29
  Q 917.92 344.67 915.38 342.38
  Q 914.32 341.42 910.64 337.18"
/>
<path stroke="#41654d" vector-effect="non-scaling-stroke" d="
  M 904.40 328.29
  Q 901.57 326.31 898.27 326.16
  C 896.08 326.06 894.15 327.21 892.20 328.02
  A 10.09 9.86 -59.3 0 1 889.55 328.73
  Q 886.36 329.14 883.14 329.64
  Q 877.64 330.49 876.31 331.80
  Q 872.40 335.65 868.51 339.57"
/>
<path stroke="#41654d" vector-effect="non-scaling-stroke" d="
  M 1205.35 160.98
  Q 1207.58 174.57 1207.47 183.04
  Q 1207.37 190.40 1207.89 196.66
  Q 1208.47 203.80 1206.10 210.69
  A 2.38 2.30 -14.0 0 1 1205.57 211.54
  C 1198.68 218.55 1193.73 225.81 1187.23 233.27
  C 1183.43 237.62 1178.27 244.34 1173.06 249.63
  Q 1170.90 251.82 1168.66 254.57
  C 1162.54 262.08 1159.86 265.51 1154.50 271.22
  Q 1146.80 279.44 1140.28 287.78
  Q 1134.12 295.66 1132.81 296.81
  Q 1129.18 299.96 1125.05 305.01
  C 1119.80 311.44 1117.50 313.47 1112.74 319.43
  Q 1109.96 322.92 1107.10 325.95
  Q 1098.86 334.68 1093.14 341.39
  Q 1083.49 352.73 1081.22 355.12
  Q 1074.25 362.48 1069.29 368.83
  C 1063.65 376.04 1055.00 384.85 1047.37 393.83
  Q 1037.96 404.89 1032.48 410.23
  Q 1028.77 413.84 1022.03 414.32"
/>
<path stroke="#85927a" vector-effect="non-scaling-stroke" d="
  M 962.07 437.44
  L 960.49 434.52
  A 2.88 2.79 -60.8 0 1 960.15 433.25
  Q 960.00 428.48 961.80 423.81"
/>
<path stroke="#778971" stroke-opacity="0.804" vector-effect="non-scaling-stroke" d="
  M 961.80 423.81
  Q 963.03 423.44 961.46 420.19"
/>
<path stroke="#69836d" stroke-opacity="0.678" vector-effect="non-scaling-stroke" d="
  M 961.46 420.19
  Q 960.32 415.01 959.38 412.81
  Q 956.79 406.74 951.37 398.02"
/>
<path stroke="#496c51" stroke-opacity="0.675" vector-effect="non-scaling-stroke" d="
  M 951.37 398.02
  L 949.25 394.90"
/>
<path stroke="#496c51" stroke-opacity="0.675" vector-effect="non-scaling-stroke" d="
  M 904.01 349.21
  Q 893.22 342.13 881.20 340.45"
/>
<path stroke="#85927a" vector-effect="non-scaling-stroke" d="
  M 881.20 340.45
  Q 875.29 339.38 868.56 340.71"
/>
<path stroke="#b7b89d" stroke-opacity="0.675" vector-effect="non-scaling-stroke" d="
  M 904.59 357.05
  L 899.50 355.50"
/>
<path stroke="#8b9880" vector-effect="non-scaling-stroke" d="
  M 1132.79 317.79
  Q 1132.63 317.04 1131.84 317.06
  A 0.95 0.94 23.7 0 0 1131.26 317.28
  Q 1128.46 319.69 1131.17 319.77"
/>
<path stroke="#8b9880" vector-effect="non-scaling-stroke" d="
  M 1117.99 333.98
  Q 1117.80 333.16 1117.00 333.13
  A 0.67 0.66 25.7 0 0 1116.59 333.27
  Q 1113.94 335.33 1113.01 336.51
  Q 1111.94 337.87 1112.88 337.81"
/>
<path stroke="#41654d" vector-effect="non-scaling-stroke" d="
  M 1112.88 337.81
  Q 1110.90 341.24 1108.40 343.35"
/>
<path stroke="#8b9880" vector-effect="non-scaling-stroke" d="
  M 1108.40 343.35
  L 1110.82 339.91
  A 0.22 0.22 0.0 0 0 1110.75 339.59
  L 1110.39 339.38
  A 0.39 0.38 -50.8 0 0 1109.94 339.43
  Q 1107.14 342.04 1105.40 345.30
  A 2.49 2.48 -6.7 0 1 1104.82 346.03
  Q 1099.64 350.65 1097.87 352.31
  C 1095.36 354.66 1094.09 356.67 1092.93 359.35
  A 0.31 0.31 0.0 0 0 1093.46 359.65
  C 1095.52 356.72 1100.30 351.04 1103.99 350.50"
/>
<path stroke="#8b9880" vector-effect="non-scaling-stroke" d="
  M 1090.80 365.57
  Q 1091.09 364.13 1090.24 363.99
  Q 1089.09 363.80 1088.15 364.84
  Q 1084.82 368.55 1080.68 373.23
  Q 1080.27 373.69 1080.65 374.00
  A 0.35 0.34 37.4 0 0 1081.15 373.94
  Q 1084.47 369.40 1089.28 367.32"
/>
<path stroke="#b7b89d" stroke-opacity="0.675" vector-effect="non-scaling-stroke" d="
  M 881.20 340.45
  L 878.82 344.26
  A 0.57 0.56 22.4 0 0 879.18 345.11
  L 884.51 346.36"
/>
<path stroke="#d9cdb6" stroke-opacity="0.741" vector-effect="non-scaling-stroke" d="
  M 884.51 346.36
  Q 890.49 349.36 880.74 349.75"
/>
<path stroke="#8b9880" vector-effect="non-scaling-stroke" d="
  M 880.74 349.75
  Q 881.13 348.81 879.52 349.34"
/>
<path stroke="#d9cdb6" stroke-opacity="0.741" vector-effect="non-scaling-stroke" d="
  M 879.52 349.34
  Q 875.87 347.46 873.74 349.74
  Q 866.37 357.65 858.99 365.58"
/>
<path stroke="#dad1bd" stroke-opacity="0.761" vector-effect="non-scaling-stroke" d="
  M 858.99 365.58
  L 834.71 390.70"
/>
<path stroke="#d9cdb6" stroke-opacity="0.741" vector-effect="non-scaling-stroke" d="
  M 834.71 390.70
  Q 825.01 400.49 815.61 410.54
  C 805.29 421.59 797.35 429.70 788.11 439.36
  C 782.03 445.72 777.65 451.12 772.49 455.77
  C 767.29 460.47 762.02 467.22 756.88 471.99
  C 753.13 475.47 751.47 477.53 747.36 482.04
  C 741.46 488.51 733.89 495.29 728.74 501.00
  C 724.97 505.18 721.12 508.42 717.76 512.01
  Q 707.06 523.44 701.19 529.43
  Q 695.94 534.78 690.58 540.02
  C 685.21 545.27 680.36 550.64 675.26 555.97
  Q 675.22 556.01 670.84 560.10
  Q 668.36 562.41 666.13 565.56"
/>
<path stroke="#dad1bd" stroke-opacity="0.761" vector-effect="non-scaling-stroke" d="
  M 666.13 565.56
  Q 652.41 578.43 647.52 584.02
  Q 642.62 589.61 639.21 592.93
  Q 634.42 597.61 634.37 597.66
  Q 607.07 625.80 587.29 646.39
  C 584.81 648.97 581.93 651.39 579.56 654.22
  C 574.98 659.68 569.48 664.73 564.53 670.02"
/>
<path stroke="#8b9880" vector-effect="non-scaling-stroke" d="
  M 564.53 670.02
  Q 563.68 670.64 563.09 671.50"
/>
<path stroke="#dad1bd" stroke-opacity="0.761" vector-effect="non-scaling-stroke" d="
  M 563.09 671.50
  L 552.56 682.26"
/>
<path stroke="#8b9880" vector-effect="non-scaling-stroke" d="
  M 552.56 682.26
  Q 551.87 682.50 551.65 683.30"
/>
<path stroke="#dad1bd" stroke-opacity="0.761" vector-effect="non-scaling-stroke" d="
  M 551.65 683.30
  L 521.48 714.18"
/>
<path stroke="#8b9880" vector-effect="non-scaling-stroke" d="
  M 521.48 714.18
  Q 520.91 714.69 520.70 715.22"
/>
<path stroke="#dad1bd" stroke-opacity="0.761" vector-effect="non-scaling-stroke" d="
  M 520.70 715.22
  L 520.46 715.45"
/>
<path stroke="#8b9880" vector-effect="non-scaling-stroke" d="
  M 520.46 715.45
  Q 519.35 716.28 518.73 717.49"
/>
<path stroke="#dad1bd" stroke-opacity="0.761" vector-effect="non-scaling-stroke" d="
  M 518.73 717.49
  L 510.32 726.18
  A 0.62 0.62 0.0 0 0 510.59 727.21
  C 514.27 728.28 518.46 729.55 522.76 732.28
  C 526.49 734.66 532.00 737.19 536.11 740.40
  Q 538.13 741.97 541.37 744.07
  C 544.77 746.28 548.58 750.30 552.07 752.89
  C 554.47 754.67 556.38 756.69 558.42 758.83"
/>
<path stroke="#8b9880" vector-effect="non-scaling-stroke" d="
  M 558.42 758.83
  L 560.72 760.82"
/>
<path stroke="#dad1bd" stroke-opacity="0.761" vector-effect="non-scaling-stroke" d="
  M 560.72 760.82
  L 561.45 761.54"
/>
<path stroke="#8b9880" vector-effect="non-scaling-stroke" d="
  M 561.45 761.54
  Q 562.18 762.51 563.17 763.09"
/>
<path stroke="#8b9880" vector-effect="non-scaling-stroke" d="
  M 563.17 763.09
  Q 564.30 764.84 566.05 766.07"
/>
<path stroke="#dad1bd" stroke-opacity="0.761" vector-effect="non-scaling-stroke" d="
  M 566.05 766.07
  L 568.96 769.38"
/>
<path stroke="#d3c9b1" stroke-opacity="0.804" vector-effect="non-scaling-stroke" d="
  M 568.96 769.38
  Q 574.37 774.45 577.21 778.30
  Q 580.04 782.16 582.05 784.23
  A 3.59 3.15 10.3 0 1 582.44 784.72
  L 589.62 795.30"
/>
<path stroke="#d9cdb6" stroke-opacity="0.741" vector-effect="non-scaling-stroke" d="
  M 589.62 795.30
  L 591.98 799.38"
/>
<path stroke="#d7cfb9" stroke-opacity="0.678" vector-effect="non-scaling-stroke" d="
  M 591.98 799.38
  L 593.21 801.79"
/>
<path stroke="#d3c9b1" stroke-opacity="0.804" vector-effect="non-scaling-stroke" d="
  M 593.21 801.79
  C 594.14 804.30 596.12 806.15 596.84 808.36
  Q 597.51 810.43 598.17 812.42
  A 0.87 0.86 48.8 0 0 599.77 812.53
  Q 601.65 808.63 606.36 807.31"
/>
<path stroke="#85927a" vector-effect="non-scaling-stroke" d="
  M 560.02 827.73
  L 560.52 816.22"
/>
<path stroke="#dad1bd" stroke-opacity="0.761" vector-effect="non-scaling-stroke" d="
  M 560.52 816.22
  Q 560.89 816.68 561.49 816.73
  Q 566.70 817.11 571.50 816.03"
/>
<path stroke="#8b9880" vector-effect="non-scaling-stroke" d="
  M 571.50 816.03
  Q 572.18 816.02 572.50 815.82"
/>
<path stroke="#dad1bd" stroke-opacity="0.761" vector-effect="non-scaling-stroke" d="
  M 572.50 815.82
  Q 579.14 814.23 583.46 809.76
  A 2.71 2.71 0.0 0 0 583.26 805.81
  L 580.12 803.15
  A 1.07 1.05 17.0 0 1 579.75 802.47
  L 579.26 798.74
  A 0.77 0.75 25.6 0 0 579.13 798.39
  Q 573.03 789.02 567.71 782.78
  Q 560.69 774.54 551.01 765.84"
/>
<path stroke="#8b9880" vector-effect="non-scaling-stroke" d="
  M 551.01 765.84
  Q 550.69 764.83 549.53 764.43"
/>
<path stroke="#dad1bd" stroke-opacity="0.761" vector-effect="non-scaling-stroke" d="
  M 549.53 764.43
  C 546.82 762.16 544.21 759.59 541.47 757.58
  Q 531.46 750.25 522.49 744.50
  Q 520.41 743.17 517.23 741.71"
/>
<path stroke="#8b9880" vector-effect="non-scaling-stroke" d="
  M 517.23 741.71
  Q 516.73 741.14 515.99 741.20"
/>
<path stroke="#dad1bd" stroke-opacity="0.761" vector-effect="non-scaling-stroke" d="
  M 515.99 741.20
  L 512.71 739.98"
/>
<path stroke="#8b9880" vector-effect="non-scaling-stroke" d="
  M 512.71 739.98
  Q 512.17 739.57 511.51 739.54"
/>
<path stroke="#dad1bd" stroke-opacity="0.761" vector-effect="non-scaling-stroke" d="
  M 511.51 739.54
  Q 510.01 738.97 508.49 738.52
  Q 506.95 738.06 506.30 738.74"
/>
<path stroke="#d9cdb6" stroke-opacity="0.741" vector-effect="non-scaling-stroke" d="
  M 506.30 738.74
  Q 503.76 741.66 502.52 745.03"
/>
<path stroke="#8b9880" vector-effect="non-scaling-stroke" d="
  M 502.52 745.03
  Q 502.24 745.43 502.25 745.94"
/>
<path stroke="#8b9880" vector-effect="non-scaling-stroke" d="
  M 502.25 745.94
  Q 501.79 746.76 501.78 747.96"
/>
<path stroke="#d9cdb6" stroke-opacity="0.741" vector-effect="non-scaling-stroke" d="
  M 501.78 747.96
  Q 501.73 748.08 501.68 748.21"
/>
<path stroke="#8b9880" vector-effect="non-scaling-stroke" d="
  M 501.68 748.21
  Q 501.43 749.33 501.55 750.47"
/>
<path stroke="#d9cdb6" stroke-opacity="0.741" vector-effect="non-scaling-stroke" d="
  M 501.55 750.47
  Q 501.52 750.81 501.38 751.09"
/>
<path stroke="#8b9880" vector-effect="non-scaling-stroke" d="
  M 501.38 751.09
  L 501.66 755.77"
/>
<path stroke="#d7cfb9" stroke-opacity="0.678" vector-effect="non-scaling-stroke" d="
  M 501.66 755.77
  Q 501.89 757.77 503.30 758.32"
/>
<path stroke="#d9cdb6" stroke-opacity="0.741" vector-effect="non-scaling-stroke" d="
  M 503.30 758.32
  Q 502.92 758.65 502.52 758.55"
/>
<path stroke="#85927a" vector-effect="non-scaling-stroke" d="
  M 502.52 758.55
  Q 497.25 758.34 491.04 760.25"
/>
<path stroke="#b7b89d" stroke-opacity="0.675" vector-effect="non-scaling-stroke" d="
  M 945.19 396.30
  L 948.10 400.77"
/>
<path stroke="#d7cfb9" stroke-opacity="0.678" vector-effect="non-scaling-stroke" d="
  M 948.10 400.77
  L 952.87 407.73"
/>
<path stroke="#d3c9b1" stroke-opacity="0.804" vector-effect="non-scaling-stroke" d="
  M 952.87 407.73
  Q 951.80 407.45 951.95 407.70
  Q 952.92 409.30 953.15 411.17
  A 0.16 0.14 -10.4 0 0 953.34 411.29
  A 0.24 0.24 0.0 0 0 953.51 410.98
  Q 953.20 409.99 953.30 409.83
  A 0.22 0.22 0.0 0 1 953.71 409.96
  Q 953.58 411.78 954.30 412.92
  A 1.86 1.82 -65.0 0 1 954.56 413.66
  L 956.27 426.81
  A 0.61 0.61 0.0 0 0 957.24 427.22
  L 961.80 423.81"
/>
<path stroke="#d3c9b1" stroke-opacity="0.804" vector-effect="non-scaling-stroke" d="
  M 600.01 802.17
  Q 596.41 803.92 597.38 801.53"
/>
<path stroke="#d9cdb6" stroke-opacity="0.741" vector-effect="non-scaling-stroke" d="
  M 597.38 801.53
  L 605.86 791.85"
/>
<path stroke="#d7cfb9" stroke-opacity="0.678" vector-effect="non-scaling-stroke" d="
  M 605.86 791.85
  L 610.30 786.80"
/>
<path stroke="#d9cdb6" stroke-opacity="0.741" vector-effect="non-scaling-stroke" d="
  M 610.30 786.80
  L 611.39 785.84"
/>
<path stroke="#dad1bd" stroke-opacity="0.761" vector-effect="non-scaling-stroke" d="
  M 611.39 785.84
  L 614.31 783.12"
/>
<path stroke="#d3c9b1" stroke-opacity="0.804" vector-effect="non-scaling-stroke" d="
  M 614.31 783.12
  L 683.14 710.31
  A 0.85 0.85 0.0 0 0 683.38 709.83
  Q 683.46 709.23 684.00 708.69
  Q 688.24 704.44 692.40 700.62
  C 699.64 693.98 706.10 685.93 712.70 679.61
  C 716.55 675.93 719.12 672.50 722.86 669.10
  C 726.64 665.66 731.56 659.69 735.96 655.44
  C 739.82 651.72 742.47 648.09 746.16 644.73
  Q 749.45 641.72 753.99 636.89
  Q 758.53 632.05 773.07 616.99
  A 1.96 1.76 82.6 0 0 773.40 616.51
  Q 774.70 613.92 778.30 611.31
  Q 780.78 609.51 784.18 605.52
  C 787.88 601.19 792.02 597.83 795.71 593.26
  C 797.52 591.03 799.30 589.80 801.69 587.01
  C 806.22 581.73 812.60 576.00 816.03 572.29
  Q 826.88 560.59 832.28 555.28
  Q 836.94 550.70 844.52 542.22
  C 846.33 540.19 848.83 538.10 850.60 535.55
  A 3.64 3.63 -2.9 0 1 851.26 534.82
  Q 854.11 532.43 856.30 529.78
  Q 859.56 525.81 861.00 524.48
  Q 862.82 522.78 873.66 511.78
  C 876.19 509.23 878.49 506.29 881.19 503.78
  Q 883.83 501.33 887.03 497.95
  Q 907.43 476.40 910.91 472.91
  Q 931.39 452.39 933.59 450.34
  C 937.16 447.00 940.85 443.73 944.05 440.13
  Q 950.96 432.39 954.04 429.65
  A 0.74 0.74 0.0 0 0 954.14 428.66
  Q 953.18 427.36 952.40 424.58
  Q 951.72 422.12 950.56 419.84
  Q 945.79 410.43 941.31 401.46
  Q 940.38 399.59 936.72 395.88"
/>
<path stroke="#d9cdb6" stroke-opacity="0.741" vector-effect="non-scaling-stroke" d="
  M 936.72 395.88
  Q 931.12 388.15 924.39 381.10
  Q 918.58 375.02 912.00 369.49"
/>
<path stroke="#d9cdb6" stroke-opacity="0.741" vector-effect="non-scaling-stroke" d="
  M 899.50 355.50
  L 893.72 355.21"
/>
<path stroke="#7d9079" stroke-opacity="0.741" vector-effect="non-scaling-stroke" d="
  M 879.52 349.34
  Q 880.21 349.43 880.74 349.75"
/>
<path stroke="#85927a" vector-effect="non-scaling-stroke" d="
  M 1116.86 335.45
  Q 1114.73 336.08 1112.88 337.81"
/>
<path stroke="#85927a" vector-effect="non-scaling-stroke" d="
  M 1105.44 348.53
  Q 1105.22 345.48 1108.40 343.35"
/>
<path stroke="#819682" stroke-opacity="0.761" vector-effect="non-scaling-stroke" d="
  M 511.51 739.54
  Q 512.05 739.93 512.71 739.98"
/>
<path stroke="#819682" stroke-opacity="0.761" vector-effect="non-scaling-stroke" d="
  M 515.99 741.20
  Q 516.41 741.69 517.23 741.71"
/>
<path stroke="#819682" stroke-opacity="0.761" vector-effect="non-scaling-stroke" d="
  M 549.53 764.43
  Q 550.08 765.29 551.01 765.84"
/>
<path stroke="#819682" stroke-opacity="0.761" vector-effect="non-scaling-stroke" d="
  M 572.50 815.82
  Q 571.95 815.78 571.50 816.03"
/>
<path stroke="#798d79" stroke-opacity="0.761" vector-effect="non-scaling-stroke" d="
  M 560.52 816.22
  Q 560.51 816.13 560.51 816.03"
/>
<path stroke="#798d79" stroke-opacity="0.761" vector-effect="non-scaling-stroke" d="
  M 538.04 779.47
  L 528.93 771.08"
/>
<path stroke="#798d79" stroke-opacity="0.761" vector-effect="non-scaling-stroke" d="
  M 520.06 764.50
  Q 515.90 761.92 511.28 760.48
  Q 508.55 759.63 505.99 758.88"
/>
<path stroke="#728c77" stroke-opacity="0.678" vector-effect="non-scaling-stroke" d="
  M 501.63 754.03
  L 501.66 755.77"
/>
<path stroke="#dad1bd" stroke-opacity="0.761" vector-effect="non-scaling-stroke" d="
  M 893.72 355.21
  Q 896.98 358.41 901.04 360.59
  A 2.17 1.37 26.7 0 1 901.29 360.76
  L 912.00 369.49"
/>
<path stroke="#819682" stroke-opacity="0.761" vector-effect="non-scaling-stroke" d="
  M 566.05 766.07
  Q 564.91 764.28 563.17 763.09"
/>
<path stroke="#819682" stroke-opacity="0.761" vector-effect="non-scaling-stroke" d="
  M 563.17 763.09
  Q 562.56 761.97 561.45 761.54"
/>
<path stroke="#819682" stroke-opacity="0.761" vector-effect="non-scaling-stroke" d="
  M 560.72 760.82
  Q 559.76 759.32 558.42 758.83"
/>
<path stroke="#819682" stroke-opacity="0.761" vector-effect="non-scaling-stroke" d="
  M 518.73 717.49
  Q 519.97 716.61 520.46 715.45"
/>
<path stroke="#819682" stroke-opacity="0.761" vector-effect="non-scaling-stroke" d="
  M 520.70 715.22
  Q 521.38 714.87 521.48 714.18"
/>
<path stroke="#819682" stroke-opacity="0.761" vector-effect="non-scaling-stroke" d="
  M 551.65 683.30
  Q 552.21 682.87 552.56 682.26"
/>
<path stroke="#819682" stroke-opacity="0.761" vector-effect="non-scaling-stroke" d="
  M 563.09 671.50
  Q 564.02 670.96 564.53 670.02"
/>
<path stroke="#758770" stroke-opacity="0.741" vector-effect="non-scaling-stroke" d="
  M 505.99 758.88
  L 502.52 758.55"
/>
<path stroke="#7d9079" stroke-opacity="0.741" vector-effect="non-scaling-stroke" d="
  M 501.63 754.03
  L 501.38 751.09"
/>
<path stroke="#7d9079" stroke-opacity="0.741" vector-effect="non-scaling-stroke" d="
  M 501.55 750.47
  L 501.68 748.21"
/>
<path stroke="#7d9079" stroke-opacity="0.741" vector-effect="non-scaling-stroke" d="
  M 501.78 747.96
  Q 502.29 746.91 502.25 745.94"
/>
<path stroke="#7d9079" stroke-opacity="0.741" vector-effect="non-scaling-stroke" d="
  M 502.25 745.94
  Q 502.52 745.60 502.52 745.03"
/>
<path stroke="#69836d" stroke-opacity="0.678" vector-effect="non-scaling-stroke" d="
  M 520.06 764.50
  L 528.93 771.08"
/>
<path stroke="#69836d" stroke-opacity="0.678" vector-effect="non-scaling-stroke" d="
  M 538.04 779.47
  L 540.27 782.06"
/>
<path stroke="#758770" stroke-opacity="0.741" vector-effect="non-scaling-stroke" d="
  M 540.27 782.06
  Q 541.29 783.78 543.01 785.08"
/>
<path stroke="#69836d" stroke-opacity="0.678" vector-effect="non-scaling-stroke" d="
  M 543.01 785.08
  L 547.23 790.83"
/>
<path stroke="#758770" stroke-opacity="0.741" vector-effect="non-scaling-stroke" d="
  M 547.23 790.83
  L 553.39 801.36
  A 0.92 0.82 86.4 0 0 553.70 801.67
  Q 554.38 802.09 554.39 802.84
  A 1.00 0.93 33.5 0 0 554.47 803.17
  L 560.51 816.03"
/>
<path stroke="#41654d" vector-effect="non-scaling-stroke" d="
  M 1138.92 96.70
  Q 1138.78 97.30 1138.95 97.52"
/>
<path stroke="#41654d" vector-effect="non-scaling-stroke" d="
  M 1152.96 92.41
  L 1151.30 92.38"
/>
<path stroke="#52755a" stroke-opacity="0.675" vector-effect="non-scaling-stroke" d="
  M 921.71 302.52
  Q 919.10 306.88 918.76 311.78
  A 1.51 1.46 -60.7 0 0 919.00 312.69
  Q 922.08 317.36 926.93 314.10
  Q 930.95 311.41 932.00 311.33
  A 1.58 1.57 18.5 0 0 933.05 310.81
  L 938.68 304.56
  A 0.96 0.37 -69.2 0 1 938.76 304.47
  Q 941.66 302.25 943.35 300.36
  Q 946.78 296.52 947.48 295.96
  C 950.31 293.69 952.66 290.50 955.67 287.50
  Q 973.40 269.78 977.28 265.78
  Q 981.50 261.42 986.71 256.37
  C 993.33 249.94 998.99 243.87 1006.33 236.58
  Q 1017.98 224.98 1031.64 211.14
  Q 1054.84 187.63 1075.38 166.13
  C 1076.72 164.73 1078.37 163.46 1079.61 162.02
  Q 1084.16 156.78 1091.69 149.43
  Q 1094.94 146.26 1106.21 134.73
  Q 1109.84 131.03 1108.10 126.29
  Q 1107.14 123.66 1104.52 122.37
  A 2.42 2.41 46.3 0 0 1102.48 122.32
  L 1095.08 125.50
  A 3.31 3.31 0.0 0 0 1094.07 126.19
  L 1086.32 133.91
  A 5.96 4.12 -58.7 0 1 1085.72 134.45
  C 1084.14 135.64 1082.25 136.77 1080.48 138.51
  Q 1067.77 151.04 1059.73 158.98
  Q 1056.14 162.52 1052.61 166.10
  Q 1031.70 187.28 1005.31 214.03
  Q 1003.56 215.80 1003.19 216.18
  Q 969.17 250.73 963.08 257.04
  Q 949.16 271.44 935.36 286.11
  Q 928.40 293.51 925.84 296.59
  Q 924.34 298.39 921.71 302.52"
/>
<path stroke="#8b9880" vector-effect="non-scaling-stroke" d="
  M 1026.80 242.41
  Q 1025.85 242.71 1024.21 244.76
  Q 1018.03 252.52 1010.39 257.88
  A 14.93 14.59 2.6 0 0 1007.76 260.23
  Q 1006.21 261.98 1004.17 264.00
  Q 1002.14 266.02 999.46 269.12
  Q 997.55 271.32 993.93 273.90
  Q 991.28 275.79 985.72 281.34
  C 983.69 283.36 981.25 286.63 979.70 288.77
  A 0.28 0.28 0.0 0 0 979.75 289.14
  L 979.76 289.14
  A 0.16 0.16 0.0 0 0 979.98 289.13
  C 982.59 286.36 984.40 283.54 986.98 281.28
  C 989.47 279.09 990.66 278.52 993.59 275.65
  Q 995.16 274.12 998.24 271.82
  Q 1001.87 269.13 1010.42 259.52
  A 0.37 0.28 -79.1 0 1 1010.51 259.44
  L 1012.76 257.85
  A 2.09 1.71 -77.3 0 0 1012.99 257.67
  L 1021.25 249.73
  A 2.32 2.24 -7.0 0 0 1021.55 249.36
  Q 1024.64 244.54 1026.98 242.75
  A 0.20 0.19 17.3 0 0 1026.80 242.41"
/>
<path stroke="#8b9880" vector-effect="non-scaling-stroke" d="
  M 997.4631 278.1864
  A 0.26 0.26 0.0 0 0 997.4586 277.8187
  L 997.4443 277.8047
  A 0.26 0.26 0.0 0 0 997.0766 277.8092
  L 986.3769 288.7736
  A 0.26 0.26 0.0 0 0 986.3814 289.1413
  L 986.3957 289.1553
  A 0.26 0.26 0.0 0 0 986.7634 289.1508
  L 997.4631 278.1864"
/>
<path stroke="#8b9880" vector-effect="non-scaling-stroke" d="
  M 978.4100 290.0201
  A 0.29 0.29 0.0 0 0 977.9999 290.0137
  L 969.4686 298.2811
  A 0.29 0.29 0.0 0 0 969.4622 298.6912
  L 969.4900 298.7199
  A 0.29 0.29 0.0 0 0 969.9001 298.7263
  L 978.4314 290.4589
  A 0.29 0.29 0.0 0 0 978.4378 290.0488
  L 978.4100 290.0201"
/>
<path stroke="#8b9880" vector-effect="non-scaling-stroke" d="
  M 968.6100 300.5161
  A 6.52 0.51 -47.2 0 0 963.8058 304.9535
  A 6.52 0.51 -47.2 0 0 959.7500 310.0839
  A 6.52 0.51 -47.2 0 0 964.5542 305.6465
  A 6.52 0.51 -47.2 0 0 968.6100 300.5161"
/>
<path stroke="#8b9880" vector-effect="non-scaling-stroke" d="
  M 1124.40 325.36
  Q 1124.57 325.48 1126.49 323.51
  Q 1127.92 322.03 1127.23 321.52
  Q 1126.53 321.01 1125.55 322.82
  Q 1124.24 325.23 1124.40 325.36"
/>
<path stroke="#d3c9b1" stroke-opacity="0.804" vector-effect="non-scaling-stroke" d="
  M 675.7300 688.7779
  A 0.85 0.22 -45.1 0 0 674.9742 689.2247
  A 0.85 0.22 -45.1 0 0 674.5300 689.9821
  A 0.85 0.22 -45.1 0 0 675.2858 689.5353
  A 0.85 0.22 -45.1 0 0 675.7300 688.7779"
/>
<path stroke="#41654d" vector-effect="non-scaling-stroke" d="
  M 447.92 852.51
  L 462.90 870.07
  A 0.83 0.83 0.0 0 0 464.36 869.64
  Q 465.20 863.36 469.95 859.20
  C 475.24 854.58 478.89 850.61 484.25 846.19
  Q 502.14 831.38 520.48 813.38
  A 22.50 22.44 6.0 0 1 523.82 810.68
  Q 527.94 807.94 530.88 805.36
  C 533.24 803.29 535.40 802.66 538.47 802.15
  A 1.61 1.61 0.0 0 0 539.70 799.97
  Q 537.99 795.67 534.62 792.16
  Q 528.33 785.59 523.05 780.44
  Q 519.29 776.77 514.49 774.74"
/>
<path stroke="#41654d" vector-effect="non-scaling-stroke" d="
  M 507.16 771.06
  Q 502.69 769.18 498.02 769.63
  A 1.08 1.07 14.7 0 0 497.26 770.07
  C 494.06 774.54 489.98 778.47 486.90 782.61
  C 480.03 791.86 470.63 804.23 461.75 814.11
  Q 458.77 817.42 453.72 824.32
  Q 444.33 837.15 443.08 839.09
  C 441.01 842.32 439.11 846.73 441.23 849.86
  Q 442.79 852.16 445.31 851.01"
/>
<path stroke="#7f9179" stroke-opacity="0.804" vector-effect="non-scaling-stroke" d="
  M 452.11 848.01
  L 461.22 836.36
  A 1.56 1.55 -85.9 0 1 461.62 836.01
  Q 463.22 835.04 463.14 834.35
  A 1.45 1.42 62.8 0 1 463.48 833.25
  L 477.10 817.14
  A 0.78 0.69 -14.9 0 0 477.20 816.99
  Q 477.76 815.82 480.17 813.42
  Q 481.38 812.22 484.81 807.54"
/>
<path stroke="#8b9880" vector-effect="non-scaling-stroke" d="
  M 484.81 807.54
  Q 487.77 804.06 497.32 793.36
  Q 499.93 790.44 499.22 786.49
  A 1.43 1.39 -75.7 0 0 498.73 785.64
  C 496.27 783.61 494.25 785.63 492.06 787.31
  Q 488.35 790.18 482.32 798.25"
/>
<path stroke="#7f9179" stroke-opacity="0.804" vector-effect="non-scaling-stroke" d="
  M 482.32 798.25
  Q 482.15 798.41 482.03 798.52
  A 1.63 0.10 -39.2 0 0 481.48 799.03
  Q 476.84 804.13 472.49 809.47
  Q 466.80 816.47 457.09 830.56
  Q 453.31 836.04 451.72 840.01"
/>
<path stroke="#d3c9b1" stroke-opacity="0.804" vector-effect="non-scaling-stroke" d="
  M 484.81 807.54
  Q 480.54 806.47 482.32 798.25"
/>
<path stroke="#41654d" vector-effect="non-scaling-stroke" d="
  M 415.82 897.64
  Q 418.00 900.87 422.63 901.57
  A 1.11 1.10 -60.4 0 0 423.52 901.32
  Q 438.66 888.33 453.03 873.73
  A 0.82 0.81 47.9 0 0 453.08 872.66
  C 449.41 868.06 445.69 864.88 440.02 859.84
  A 0.98 0.98 0.0 0 0 438.64 859.92
  Q 431.92 867.44 428.20 870.71
  Q 425.94 872.70 422.13 878.61
  Q 419.64 882.49 420.83 886.55"
/>
<path stroke="#41654d" vector-effect="non-scaling-stroke" d="
  M 407.58 905.10
  L 404.64 910.19
  A 0.75 0.75 0.0 0 0 405.66 911.22
  L 411.13 908.06
  A 0.60 0.60 0.0 0 0 411.21 907.08
  L 408.66 904.91
  A 0.72 0.71 34.7 0 0 407.58 905.10"
/>
</g>
<path fill="#476b53" d="
  M 1194.46 102.63
  C 1196.63 107.02 1199.70 111.57 1200.80 116.10
  C 1201.91 120.72 1202.11 123.88 1200.42 128.49
  A 4.33 4.31 -54.5 0 0 1201.11 132.67
  C 1202.20 134.02 1203.86 135.49 1204.33 137.16
  C 1205.75 142.21 1201.14 144.69 1196.67 145.44
  A 1.00 1.00 0.0 0 1 1195.83 145.19
  Q 1187.51 137.69 1185.63 127.50
  C 1184.83 123.14 1183.73 118.30 1182.52 116.36
  C 1179.19 111.02 1175.71 109.90 1169.19 106.97
  C 1163.56 104.44 1159.95 103.72 1153.52 103.82
  A 1.54 1.51 21.9 0 0 1152.48 104.25
  Q 1151.73 105.00 1151.87 106.70
  A 0.91 0.89 13.9 0 0 1152.29 107.38
  L 1160.33 112.43
  A 1.34 1.29 86.6 0 1 1160.69 112.76
  Q 1162.49 115.25 1162.92 117.44
  A 1.83 1.47 79.1 0 1 1161.83 119.51
  C 1158.43 120.18 1155.21 113.69 1150.15 113.01
  A 0.45 0.45 0.0 0 0 1149.68 113.63
  Q 1150.38 115.32 1151.52 116.19
  Q 1160.75 123.18 1172.39 134.12
  Q 1173.48 135.14 1176.34 139.09
  A 0.56 0.55 -29.9 0 1 1176.11 139.92
  L 1167.78 143.51
  A 2.10 1.97 -56.4 0 1 1167.10 143.67
  C 1157.85 144.43 1154.60 146.17 1153.18 155.26
  A 1.28 1.28 0.0 0 1 1151.59 156.30
  L 1147.74 155.28
  A 2.03 2.01 28.6 0 0 1145.74 155.86
  Q 1142.94 158.91 1142.52 163.39
  A 1.85 1.84 -15.0 0 1 1141.75 164.72
  Q 1137.44 167.74 1133.84 171.34
  Q 1126.56 178.61 1121.41 183.41
  Q 1114.10 190.24 1095.11 208.92
  C 1087.84 216.08 1081.33 224.78 1074.43 231.94
  Q 1067.93 238.68 1051.74 254.16
  C 1046.05 259.60 1042.43 265.11 1036.54 270.91
  Q 1031.76 275.62 1028.59 279.72
  C 1023.05 286.89 1016.92 292.73 1011.16 299.38
  Q 1009.77 300.99 1007.86 302.62
  C 1004.39 305.59 1002.77 306.78 999.28 310.46
  C 988.07 322.26 982.20 329.10 973.38 338.17
  Q 967.53 344.19 961.31 352.45
  A 2.10 2.10 0.0 0 1 959.26 353.25
  C 952.49 352.00 950.02 356.49 949.12 362.35
  A 1.88 1.88 0.0 0 0 949.46 363.75
  Q 954.49 370.60 959.24 375.17
  Q 961.32 377.17 962.30 379.71
  C 963.28 382.23 965.02 385.87 964.56 387.47
  A 0.63 0.63 0.0 0 1 963.43 387.65
  Q 957.70 379.23 949.43 372.21
  C 943.52 367.20 939.74 364.47 935.55 359.72
  C 931.29 354.87 929.26 352.25 924.83 349.29
  Q 917.92 344.67 915.38 342.38
  Q 914.32 341.42 910.64 337.18
  Q 912.06 336.07 912.23 335.17
  A 0.86 0.82 -58.8 0 0 912.09 334.54
  Q 909.17 330.54 904.40 328.29
  Q 901.57 326.31 898.27 326.16
  C 896.08 326.06 894.15 327.21 892.20 328.02
  A 10.09 9.86 -59.3 0 1 889.55 328.73
  Q 886.36 329.14 883.14 329.64
  Q 877.64 330.49 876.31 331.80
  Q 872.40 335.65 868.51 339.57
  C 864.86 335.88 864.61 333.04 864.19 327.66
  A 2.88 2.88 0.0 0 1 864.40 326.35
  Q 867.26 319.25 871.05 314.78
  C 887.08 295.90 904.10 278.58 926.49 255.91
  Q 940.36 241.88 959.70 223.28
  Q 983.54 200.37 1007.19 177.69
  C 1020.70 164.74 1041.57 145.69 1059.27 128.86
  Q 1077.81 111.23 1096.84 96.09
  Q 1098.55 94.73 1102.56 93.36
  A 6.67 6.53 17.8 0 0 1104.06 92.61
  Q 1107.69 90.17 1111.60 87.86
  C 1120.71 82.47 1130.18 79.96 1141.02 78.36
  Q 1152.49 76.66 1164.29 80.81
  Q 1182.79 87.32 1194.46 102.63
  Z
  M 1151.30 92.38
  Q 1144.43 92.94 1138.92 96.70
  Q 1138.78 97.30 1138.95 97.52
  Q 1140.94 99.12 1143.64 99.16
  A 2.92 2.80 -53.4 0 0 1144.58 99.00
  Q 1149.30 97.37 1156.24 95.76
  Q 1157.52 95.46 1158.34 94.72
  A 0.63 0.63 0.0 0 0 1158.07 93.63
  L 1152.96 92.41
  L 1151.30 92.38
  Z
  M 1138.98 110.30
  A 0.57 0.57 0.0 0 0 1138.93 109.34
  Q 1131.90 105.44 1123.37 103.08
  A 5.35 4.89 -33.5 0 0 1122.09 102.88
  L 1117.45 102.76
  A 0.88 0.88 0.0 0 0 1116.71 104.14
  L 1120.71 109.84
  A 0.69 0.68 -36.1 0 0 1121.70 109.99
  C 1127.04 105.78 1132.07 108.45 1137.93 110.63
  A 0.76 0.75 -51.7 0 0 1138.63 110.54
  L 1138.98 110.30
  Z
  M 921.71 302.52
  Q 919.10 306.88 918.76 311.78
  A 1.51 1.46 -60.7 0 0 919.00 312.69
  Q 922.08 317.36 926.93 314.10
  Q 930.95 311.41 932.00 311.33
  A 1.58 1.57 18.5 0 0 933.05 310.81
  L 938.68 304.56
  A 0.96 0.37 -69.2 0 1 938.76 304.47
  Q 941.66 302.25 943.35 300.36
  Q 946.78 296.52 947.48 295.96
  C 950.31 293.69 952.66 290.50 955.67 287.50
  Q 973.40 269.78 977.28 265.78
  Q 981.50 261.42 986.71 256.37
  C 993.33 249.94 998.99 243.87 1006.33 236.58
  Q 1017.98 224.98 1031.64 211.14
  Q 1054.84 187.63 1075.38 166.13
  C 1076.72 164.73 1078.37 163.46 1079.61 162.02
  Q 1084.16 156.78 1091.69 149.43
  Q 1094.94 146.26 1106.21 134.73
  Q 1109.84 131.03 1108.10 126.29
  Q 1107.14 123.66 1104.52 122.37
  A 2.42 2.41 46.3 0 0 1102.48 122.32
  L 1095.08 125.50
  A 3.31 3.31 0.0 0 0 1094.07 126.19
  L 1086.32 133.91
  A 5.96 4.12 -58.7 0 1 1085.72 134.45
  C 1084.14 135.64 1082.25 136.77 1080.48 138.51
  Q 1067.77 151.04 1059.73 158.98
  Q 1056.14 162.52 1052.61 166.10
  Q 1031.70 187.28 1005.31 214.03
  Q 1003.56 215.80 1003.19 216.18
  Q 969.17 250.73 963.08 257.04
  Q 949.16 271.44 935.36 286.11
  Q 928.40 293.51 925.84 296.59
  Q 924.34 298.39 921.71 302.52
  Z
  M 1026.80 242.41
  Q 1025.85 242.71 1024.21 244.76
  Q 1018.03 252.52 1010.39 257.88
  A 14.93 14.59 2.6 0 0 1007.76 260.23
  Q 1006.21 261.98 1004.17 264.00
  Q 1002.14 266.02 999.46 269.12
  Q 997.55 271.32 993.93 273.90
  Q 991.28 275.79 985.72 281.34
  C 983.69 283.36 981.25 286.63 979.70 288.77
  A 0.28 0.28 0.0 0 0 979.75 289.14
  L 979.76 289.14
  A 0.16 0.16 0.0 0 0 979.98 289.13
  C 982.59 286.36 984.40 283.54 986.98 281.28
  C 989.47 279.09 990.66 278.52 993.59 275.65
  Q 995.16 274.12 998.24 271.82
  Q 1001.87 269.13 1010.42 259.52
  A 0.37 0.28 -79.1 0 1 1010.51 259.44
  L 1012.76 257.85
  A 2.09 1.71 -77.3 0 0 1012.99 257.67
  L 1021.25 249.73
  A 2.32 2.24 -7.0 0 0 1021.55 249.36
  Q 1024.64 244.54 1026.98 242.75
  A 0.20 0.19 17.3 0 0 1026.80 242.41
  Z
  M 997.4631 278.1864
  A 0.26 0.26 0.0 0 0 997.4586 277.8187
  L 997.4443 277.8047
  A 0.26 0.26 0.0 0 0 997.0766 277.8092
  L 986.3769 288.7736
  A 0.26 0.26 0.0 0 0 986.3814 289.1413
  L 986.3957 289.1553
  A 0.26 0.26 0.0 0 0 986.7634 289.1508
  L 997.4631 278.1864
  Z
  M 978.4100 290.0201
  A 0.29 0.29 0.0 0 0 977.9999 290.0137
  L 969.4686 298.2811
  A 0.29 0.29 0.0 0 0 969.4622 298.6912
  L 969.4900 298.7199
  A 0.29 0.29 0.0 0 0 969.9001 298.7263
  L 978.4314 290.4589
  A 0.29 0.29 0.0 0 0 978.4378 290.0488
  L 978.4100 290.0201
  Z
  M 968.6100 300.5161
  A 6.52 0.51 -47.2 0 0 963.8058 304.9535
  A 6.52 0.51 -47.2 0 0 959.7500 310.0839
  A 6.52 0.51 -47.2 0 0 964.5542 305.6465
  A 6.52 0.51 -47.2 0 0 968.6100 300.5161
  Z"
/>
<path fill="#3b5e46" d="
  M 1152.96 92.41
  L 1151.30 92.38
  L 1152.96 92.41
  Z"
/>
<path fill="#3b5e46" d="
  M 1138.92 96.70
  L 1138.95 97.52
  Q 1138.78 97.30 1138.92 96.70
  Z"
/>
<path fill="#3b5e46" d="
  M 1205.35 160.98
  Q 1207.58 174.57 1207.47 183.04
  Q 1207.37 190.40 1207.89 196.66
  Q 1208.47 203.80 1206.10 210.69
  A 2.38 2.30 -14.0 0 1 1205.57 211.54
  C 1198.68 218.55 1193.73 225.81 1187.23 233.27
  C 1183.43 237.62 1178.27 244.34 1173.06 249.63
  Q 1170.90 251.82 1168.66 254.57
  C 1162.54 262.08 1159.86 265.51 1154.50 271.22
  Q 1146.80 279.44 1140.28 287.78
  Q 1134.12 295.66 1132.81 296.81
  Q 1129.18 299.96 1125.05 305.01
  C 1119.80 311.44 1117.50 313.47 1112.74 319.43
  Q 1109.96 322.92 1107.10 325.95
  Q 1098.86 334.68 1093.14 341.39
  Q 1083.49 352.73 1081.22 355.12
  Q 1074.25 362.48 1069.29 368.83
  C 1063.65 376.04 1055.00 384.85 1047.37 393.83
  Q 1037.96 404.89 1032.48 410.23
  Q 1028.77 413.84 1022.03 414.32
  Q 1025.64 403.59 1034.09 394.09
  C 1066.22 357.96 1102.14 316.82 1136.41 278.08
  Q 1169.61 240.54 1197.32 207.83
  Q 1200.44 204.16 1199.71 199.43
  A 0.74 0.74 0.0 0 0 1198.48 198.99
  Q 1195.16 202.00 1192.90 204.40
  Q 1168.45 230.39 1164.13 234.63
  Q 1159.51 239.17 1148.63 250.88
  Q 1144.78 255.03 1105.59 296.18
  Q 1084.92 317.88 1062.84 341.75
  Q 1034.07 372.84 1013.79 393.96
  C 1000.91 407.38 990.77 418.68 977.94 432.43
  Q 974.25 436.38 970.30 438.34
  Q 966.08 440.42 962.07 437.44
  L 960.49 434.52
  A 2.88 2.79 -60.8 0 1 960.15 433.25
  Q 960.00 428.48 961.80 423.81
  Q 963.03 423.44 961.46 420.19
  Q 960.32 415.01 959.38 412.81
  Q 956.79 406.74 951.37 398.02
  L 949.25 394.90
  Q 943.26 385.54 939.87 381.38
  Q 936.06 376.72 928.84 369.22
  Q 924.46 364.65 919.08 360.42
  Q 913.86 356.30 908.71 352.30
  Q 906.46 350.55 904.01 349.21
  Q 893.22 342.13 881.20 340.45
  Q 875.29 339.38 868.56 340.71
  Q 869.09 340.45 868.51 339.57
  Q 872.40 335.65 876.31 331.80
  Q 877.64 330.49 883.14 329.64
  Q 886.36 329.14 889.55 328.73
  A 10.09 9.86 -59.3 0 0 892.20 328.02
  C 894.15 327.21 896.08 326.06 898.27 326.16
  Q 901.57 326.31 904.40 328.29
  Q 900.55 328.10 896.51 328.05
  Q 895.03 328.03 894.27 328.94
  A 0.51 0.51 0.0 0 0 894.49 329.76
  Q 902.71 332.64 910.64 337.18
  Q 914.32 341.42 915.38 342.38
  Q 917.92 344.67 924.83 349.29
  C 929.26 352.25 931.29 354.87 935.55 359.72
  C 939.74 364.47 943.52 367.20 949.43 372.21
  Q 957.70 379.23 963.43 387.65
  A 0.63 0.63 0.0 0 0 964.56 387.47
  C 965.02 385.87 963.28 382.23 962.30 379.71
  Q 961.32 377.17 959.24 375.17
  Q 954.49 370.60 949.46 363.75
  A 1.88 1.88 0.0 0 1 949.12 362.35
  C 950.02 356.49 952.49 352.00 959.26 353.25
  A 2.10 2.10 0.0 0 0 961.31 352.45
  Q 967.53 344.19 973.38 338.17
  C 982.20 329.10 988.07 322.26 999.28 310.46
  C 1002.77 306.78 1004.39 305.59 1007.86 302.62
  Q 1009.77 300.99 1011.16 299.38
  C 1016.92 292.73 1023.05 286.89 1028.59 279.72
  Q 1031.76 275.62 1036.54 270.91
  C 1042.43 265.11 1046.05 259.60 1051.74 254.16
  Q 1067.93 238.68 1074.43 231.94
  C 1081.33 224.78 1087.84 216.08 1095.11 208.92
  Q 1114.10 190.24 1121.41 183.41
  Q 1126.56 178.61 1133.84 171.34
  Q 1137.44 167.74 1141.75 164.72
  A 1.85 1.84 -15.0 0 0 1142.52 163.39
  Q 1142.94 158.91 1145.74 155.86
  A 2.03 2.01 28.6 0 1 1147.74 155.28
  L 1151.59 156.30
  A 1.28 1.28 0.0 0 0 1153.18 155.26
  C 1154.60 146.17 1157.85 144.43 1167.10 143.67
  A 2.10 1.97 -56.4 0 0 1167.78 143.51
  L 1176.11 139.92
  A 0.56 0.55 -29.9 0 0 1176.34 139.09
  Q 1173.48 135.14 1172.39 134.12
  Q 1160.75 123.18 1151.52 116.19
  Q 1150.38 115.32 1149.68 113.63
  A 0.45 0.45 0.0 0 1 1150.15 113.01
  C 1155.21 113.69 1158.43 120.18 1161.83 119.51
  A 1.83 1.47 79.1 0 0 1162.92 117.44
  Q 1162.49 115.25 1160.69 112.76
  A 1.34 1.29 86.6 0 0 1160.33 112.43
  L 1152.29 107.38
  A 0.91 0.89 13.9 0 1 1151.87 106.70
  Q 1151.73 105.00 1152.48 104.25
  A 1.54 1.51 21.9 0 1 1153.52 103.82
  C 1159.95 103.72 1163.56 104.44 1169.19 106.97
  C 1175.71 109.90 1179.19 111.02 1182.52 116.36
  C 1183.73 118.30 1184.83 123.14 1185.63 127.50
  Q 1187.51 137.69 1195.83 145.19
  A 1.00 1.00 0.0 0 0 1196.67 145.44
  C 1201.14 144.69 1205.75 142.21 1204.33 137.16
  C 1203.86 135.49 1202.20 134.02 1201.11 132.67
  A 4.33 4.31 -54.5 0 1 1200.42 128.49
  C 1202.11 123.88 1201.91 120.72 1200.80 116.10
  C 1199.70 111.57 1196.63 107.02 1194.46 102.63
  Q 1207.60 118.86 1206.83 139.76
  Q 1206.74 142.15 1206.26 148.69
  A 4.34 4.27 -31.6 0 1 1205.90 150.15
  C 1204.34 153.70 1201.58 157.47 1205.35 160.98
  Z
  M 1170.09 117.66
  Q 1177.79 123.96 1184.74 132.01
  A 0.64 0.64 0.0 0 0 1185.85 131.55
  C 1185.28 123.53 1180.93 116.95 1174.79 111.92
  C 1168.64 106.89 1161.33 103.92 1153.36 104.95
  A 0.64 0.64 0.0 0 0 1153.12 106.13
  Q 1162.39 111.36 1170.09 117.66
  Z"
/>
<path fill="#729370" fill-opacity="0.345" d="
  M 921.71 302.52
  Q 921.75 302.81 921.87 302.91
  Q 921.86 302.76 921.71 302.52
  Q 924.34 298.39 925.84 296.59
  Q 928.40 293.51 935.36 286.11
  Q 949.16 271.44 963.08 257.04
  Q 969.17 250.73 1003.19 216.18
  Q 1003.56 215.80 1005.31 214.03
  Q 1031.70 187.28 1052.61 166.10
  Q 1056.14 162.52 1059.73 158.98
  Q 1067.77 151.04 1080.48 138.51
  C 1082.25 136.77 1084.14 135.64 1085.72 134.45
  A 5.96 4.12 -58.7 0 0 1086.32 133.91
  L 1094.07 126.19
  A 3.31 3.31 0.0 0 1 1095.08 125.50
  L 1102.48 122.32
  A 2.42 2.41 46.3 0 1 1104.52 122.37
  Q 1107.14 123.66 1108.10 126.29
  Q 1109.84 131.03 1106.21 134.73
  Q 1094.94 146.26 1091.69 149.43
  Q 1084.16 156.78 1079.61 162.02
  C 1078.37 163.46 1076.72 164.73 1075.38 166.13
  Q 1054.84 187.63 1031.64 211.14
  Q 1017.98 224.98 1006.33 236.58
  C 998.99 243.87 993.33 249.94 986.71 256.37
  Q 981.50 261.42 977.28 265.78
  Q 973.40 269.78 955.67 287.50
  C 952.66 290.50 950.31 293.69 947.48 295.96
  Q 946.78 296.52 943.35 300.36
  Q 941.66 302.25 938.76 304.47
  A 0.96 0.37 -69.2 0 0 938.68 304.56
  L 933.05 310.81
  A 1.58 1.57 18.5 0 1 932.00 311.33
  Q 930.95 311.41 926.93 314.10
  Q 922.08 317.36 919.00 312.69
  A 1.51 1.46 -60.7 0 1 918.76 311.78
  Q 919.10 306.88 921.71 302.52
  Z"
/>
<path fill="#476b53" d="
  M 1205.35 160.98
  Q 1209.03 163.75 1213.28 169.95
  Q 1220.46 180.44 1221.86 192.26
  Q 1222.34 196.32 1220.68 202.84
  Q 1219.70 206.71 1215.95 212.36
  C 1196.01 242.42 1173.55 270.61 1149.11 299.61
  C 1147.89 301.07 1145.16 303.66 1143.41 305.89
  C 1139.13 311.33 1136.65 314.72 1132.79 317.79
  Q 1132.63 317.04 1131.84 317.06
  A 0.95 0.94 23.7 0 0 1131.26 317.28
  Q 1128.46 319.69 1131.17 319.77
  Q 1126.94 325.53 1122.12 330.87
  Q 1120.36 332.81 1117.99 333.98
  Q 1117.80 333.16 1117.00 333.13
  A 0.67 0.66 25.7 0 0 1116.59 333.27
  Q 1113.94 335.33 1113.01 336.51
  Q 1111.94 337.87 1112.88 337.81
  Q 1110.90 341.24 1108.40 343.35
  L 1110.82 339.91
  A 0.22 0.22 0.0 0 0 1110.75 339.59
  L 1110.39 339.38
  A 0.39 0.38 -50.8 0 0 1109.94 339.43
  Q 1107.14 342.04 1105.40 345.30
  A 2.49 2.48 -6.7 0 1 1104.82 346.03
  Q 1099.64 350.65 1097.87 352.31
  C 1095.36 354.66 1094.09 356.67 1092.93 359.35
  A 0.31 0.31 0.0 0 0 1093.46 359.65
  C 1095.52 356.72 1100.30 351.04 1103.99 350.50
  Q 1098.19 358.72 1090.80 365.57
  Q 1091.09 364.13 1090.24 363.99
  Q 1089.09 363.80 1088.15 364.84
  Q 1084.82 368.55 1080.68 373.23
  Q 1080.27 373.69 1080.65 374.00
  A 0.35 0.34 37.4 0 0 1081.15 373.94
  Q 1084.47 369.40 1089.28 367.32
  Q 1083.60 374.35 1077.44 380.36
  C 1076.23 381.54 1074.94 383.39 1074.07 384.33
  C 1062.50 396.91 1052.17 409.30 1039.32 420.32
  C 1035.14 423.90 1028.07 426.91 1023.59 422.40
  Q 1021.24 420.02 1022.03 414.32
  Q 1028.77 413.84 1032.48 410.23
  Q 1037.96 404.89 1047.37 393.83
  C 1055.00 384.85 1063.65 376.04 1069.29 368.83
  Q 1074.25 362.48 1081.22 355.12
  Q 1083.49 352.73 1093.14 341.39
  Q 1098.86 334.68 1107.10 325.95
  Q 1109.96 322.92 1112.74 319.43
  C 1117.50 313.47 1119.80 311.44 1125.05 305.01
  Q 1129.18 299.96 1132.81 296.81
  Q 1134.12 295.66 1140.28 287.78
  Q 1146.80 279.44 1154.50 271.22
  C 1159.86 265.51 1162.54 262.08 1168.66 254.57
  Q 1170.90 251.82 1173.06 249.63
  C 1178.27 244.34 1183.43 237.62 1187.23 233.27
  C 1193.73 225.81 1198.68 218.55 1205.57 211.54
  A 2.38 2.30 -14.0 0 0 1206.10 210.69
  Q 1208.47 203.80 1207.89 196.66
  Q 1207.37 190.40 1207.47 183.04
  Q 1207.58 174.57 1205.35 160.98
  Z
  M 1124.40 325.36
  Q 1124.57 325.48 1126.49 323.51
  Q 1127.92 322.03 1127.23 321.52
  Q 1126.53 321.01 1125.55 322.82
  Q 1124.24 325.23 1124.40 325.36
  Z"
/>
<path fill="#cfc5ad" d="
  M 1026.98 242.75
  Q 1024.64 244.54 1021.55 249.36
  A 2.32 2.24 -7.0 0 1 1021.25 249.73
  L 1012.99 257.67
  A 2.09 1.71 -77.3 0 1 1012.76 257.85
  L 1010.51 259.44
  A 0.37 0.28 -79.1 0 0 1010.42 259.52
  Q 1001.87 269.13 998.24 271.82
  Q 995.16 274.12 993.59 275.65
  C 990.66 278.52 989.47 279.09 986.98 281.28
  C 984.40 283.54 982.59 286.36 979.98 289.13
  A 0.16 0.16 0.0 0 1 979.76 289.14
  L 979.75 289.14
  A 0.28 0.28 0.0 0 1 979.70 288.77
  C 981.25 286.63 983.69 283.36 985.72 281.34
  Q 991.28 275.79 993.93 273.90
  Q 997.55 271.32 999.46 269.12
  Q 1002.14 266.02 1004.17 264.00
  Q 1006.21 261.98 1007.76 260.23
  A 14.93 14.59 2.6 0 1 1010.39 257.88
  Q 1018.03 252.52 1024.21 244.76
  Q 1025.85 242.71 1026.80 242.41
  A 0.20 0.19 17.3 0 1 1026.98 242.75
  Z"
/>
<rect fill="#cfc5ad" x="-0.27" y="-7.92" transform="translate(991.92,283.48) rotate(44.3)" width="0.54" height="15.84" rx="0.26"/>
<rect fill="#cfc5ad" x="-6.23" y="-0.31" transform="translate(973.95,294.37) rotate(-44.1)" width="12.46" height="0.62" rx="0.29"/>
<ellipse fill="#cfc5ad" cx="0.00" cy="0.00" transform="translate(964.18,305.30) rotate(-47.2)" rx="6.52" ry="0.51"/>
<path fill="#eceadc" fill-opacity="0.353" d="
  M 921.71 302.52
  Q 921.86 302.76 921.87 302.91
  Q 921.75 302.81 921.71 302.52
  Z"
/>
<path fill="#cfc5ad" d="
  M 1132.79 317.79
  L 1131.17 319.77
  Q 1128.46 319.69 1131.26 317.28
  A 0.95 0.94 23.7 0 1 1131.84 317.06
  Q 1132.63 317.04 1132.79 317.79
  Z"
/>
<path fill="#cfc5ad" d="
  M 1127.23 321.52
  Q 1127.92 322.03 1126.49 323.51
  Q 1124.57 325.48 1124.40 325.36
  Q 1124.24 325.23 1125.55 322.82
  Q 1126.53 321.01 1127.23 321.52
  Z"
/>
<path fill="#cfc5ad" d="
  M 1117.99 333.98
  L 1116.86 335.45
  Q 1114.73 336.08 1112.88 337.81
  Q 1111.94 337.87 1113.01 336.51
  Q 1113.94 335.33 1116.59 333.27
  A 0.67 0.66 25.7 0 1 1117.00 333.13
  Q 1117.80 333.16 1117.99 333.98
  Z"
/>
<path fill="#3b5e46" d="
  M 1116.86 335.45
  Q 1112.61 343.21 1105.44 348.53
  Q 1105.22 345.48 1108.40 343.35
  Q 1110.90 341.24 1112.88 337.81
  Q 1114.73 336.08 1116.86 335.45
  Z"
/>
<path fill="#cfc5ad" d="
  M 1108.40 343.35
  Q 1105.22 345.48 1105.44 348.53
  Q 1104.43 349.47 1103.99 350.50
  C 1100.30 351.04 1095.52 356.72 1093.46 359.65
  A 0.31 0.31 0.0 0 1 1092.93 359.35
  C 1094.09 356.67 1095.36 354.66 1097.87 352.31
  Q 1099.64 350.65 1104.82 346.03
  A 2.49 2.48 -6.7 0 0 1105.40 345.30
  Q 1107.14 342.04 1109.94 339.43
  A 0.39 0.38 -50.8 0 1 1110.39 339.38
  L 1110.75 339.59
  A 0.22 0.22 0.0 0 1 1110.82 339.91
  L 1108.40 343.35
  Z"
/>
<path fill="#cfc5ad" d="
  M 881.20 340.45
  L 878.82 344.26
  A 0.57 0.56 22.4 0 0 879.18 345.11
  L 884.51 346.36
  Q 890.49 349.36 880.74 349.75
  Q 881.13 348.81 879.52 349.34
  Q 875.87 347.46 873.74 349.74
  Q 866.37 357.65 858.99 365.58
  L 834.71 390.70
  Q 825.01 400.49 815.61 410.54
  C 805.29 421.59 797.35 429.70 788.11 439.36
  C 782.03 445.72 777.65 451.12 772.49 455.77
  C 767.29 460.47 762.02 467.22 756.88 471.99
  C 753.13 475.47 751.47 477.53 747.36 482.04
  C 741.46 488.51 733.89 495.29 728.74 501.00
  C 724.97 505.18 721.12 508.42 717.76 512.01
  Q 707.06 523.44 701.19 529.43
  Q 695.94 534.78 690.58 540.02
  C 685.21 545.27 680.36 550.64 675.26 555.97
  Q 675.22 556.01 670.84 560.10
  Q 668.36 562.41 666.13 565.56
  Q 652.41 578.43 647.52 584.02
  Q 642.62 589.61 639.21 592.93
  Q 634.42 597.61 634.37 597.66
  Q 607.07 625.80 587.29 646.39
  C 584.81 648.97 581.93 651.39 579.56 654.22
  C 574.98 659.68 569.48 664.73 564.53 670.02
  Q 563.68 670.64 563.09 671.50
  L 552.56 682.26
  Q 551.87 682.50 551.65 683.30
  L 521.48 714.18
  Q 520.91 714.69 520.70 715.22
  L 520.46 715.45
  Q 519.35 716.28 518.73 717.49
  L 510.32 726.18
  A 0.62 0.62 0.0 0 0 510.59 727.21
  C 514.27 728.28 518.46 729.55 522.76 732.28
  C 526.49 734.66 532.00 737.19 536.11 740.40
  Q 538.13 741.97 541.37 744.07
  C 544.77 746.28 548.58 750.30 552.07 752.89
  C 554.47 754.67 556.38 756.69 558.42 758.83
  L 560.72 760.82
  L 561.45 761.54
  Q 562.18 762.51 563.17 763.09
  Q 564.30 764.84 566.05 766.07
  L 568.96 769.38
  Q 574.37 774.45 577.21 778.30
  Q 580.04 782.16 582.05 784.23
  A 3.59 3.15 10.3 0 1 582.44 784.72
  L 589.62 795.30
  L 591.98 799.38
  L 593.21 801.79
  C 594.14 804.30 596.12 806.15 596.84 808.36
  Q 597.51 810.43 598.17 812.42
  A 0.87 0.86 48.8 0 0 599.77 812.53
  Q 601.65 808.63 606.36 807.31
  L 599.50 815.23
  A 0.66 0.55 -12.9 0 0 599.40 815.36
  Q 597.50 818.44 595.13 820.78
  Q 591.27 824.60 586.54 823.48
  A 2.06 2.03 -53.0 0 0 585.04 823.70
  Q 579.47 826.89 574.70 828.28
  Q 567.43 830.40 560.02 827.73
  L 560.52 816.22
  Q 560.89 816.68 561.49 816.73
  Q 566.70 817.11 571.50 816.03
  Q 572.18 816.02 572.50 815.82
  Q 579.14 814.23 583.46 809.76
  A 2.71 2.71 0.0 0 0 583.26 805.81
  L 580.12 803.15
  A 1.07 1.05 17.0 0 1 579.75 802.47
  L 579.26 798.74
  A 0.77 0.75 25.6 0 0 579.13 798.39
  Q 573.03 789.02 567.71 782.78
  Q 560.69 774.54 551.01 765.84
  Q 550.69 764.83 549.53 764.43
  C 546.82 762.16 544.21 759.59 541.47 757.58
  Q 531.46 750.25 522.49 744.50
  Q 520.41 743.17 517.23 741.71
  Q 516.73 741.14 515.99 741.20
  L 512.71 739.98
  Q 512.17 739.57 511.51 739.54
  Q 510.01 738.97 508.49 738.52
  Q 506.95 738.06 506.30 738.74
  Q 503.76 741.66 502.52 745.03
  Q 502.24 745.43 502.25 745.94
  Q 501.79 746.76 501.78 747.96
  Q 501.73 748.08 501.68 748.21
  Q 501.43 749.33 501.55 750.47
  Q 501.52 750.81 501.38 751.09
  L 501.66 755.77
  Q 501.89 757.77 503.30 758.32
  Q 502.92 758.65 502.52 758.55
  Q 497.25 758.34 491.04 760.25
  Q 488.18 746.49 494.41 733.88
  A 5.57 5.57 0.0 0 0 494.96 731.96
  L 495.25 729.19
  A 3.48 3.44 -28.1 0 1 495.66 727.87
  Q 497.95 723.77 501.11 720.36
  C 509.94 710.81 520.37 700.47 529.24 691.17
  Q 577.29 640.77 616.11 600.62
  Q 620.99 595.57 623.63 592.60
  C 626.88 588.94 630.05 586.15 634.03 582.04
  Q 680.88 533.67 714.04 499.79
  Q 720.71 492.97 738.04 475.04
  Q 775.38 436.42 802.26 408.44
  C 814.26 395.95 827.13 383.04 838.94 370.40
  C 841.70 367.45 844.77 364.99 846.43 361.98
  Q 846.84 361.24 849.83 359.12
  A 3.31 3.01 2.7 0 0 850.29 358.74
  L 868.56 340.71
  Q 875.29 339.38 881.20 340.45
  Z"
/>
<path fill="#729370" fill-opacity="0.345" d="
  M 904.01 349.21
  Q 903.13 352.94 904.59 357.05
  L 899.50 355.50
  Q 899.61 351.59 898.49 349.75
  C 896.23 346.05 890.32 345.19 886.48 345.63
  A 0.40 0.40 0.0 0 0 886.13 345.95
  Q 886.08 346.15 886.15 346.32
  Q 886.22 346.51 886.04 346.44
  Q 885.06 346.05 884.51 346.36
  L 879.18 345.11
  A 0.57 0.56 22.4 0 1 878.82 344.26
  L 881.20 340.45
  Q 893.22 342.13 904.01 349.21
  Z"
/>
<path fill="#edddc8" fill-opacity="0.482" d="
  M 899.50 355.50
  L 893.72 355.21
  Q 889.90 355.72 885.19 355.93
  Q 883.50 356.00 880.67 357.76
  Q 875.49 356.79 872.09 363.65
  C 868.60 357.48 863.87 369.54 858.99 365.58
  Q 866.37 357.65 873.74 349.74
  Q 875.87 347.46 879.52 349.34
  Q 880.21 349.43 880.74 349.75
  Q 890.49 349.36 884.51 346.36
  Q 885.06 346.05 886.04 346.44
  Q 886.22 346.51 886.15 346.32
  Q 886.08 346.15 886.13 345.95
  A 0.40 0.40 0.0 0 1 886.48 345.63
  C 890.32 345.19 896.23 346.05 898.49 349.75
  Q 899.61 351.59 899.50 355.50
  Z"
/>
<path fill="#476b53" d="
  M 880.74 349.75
  Q 880.21 349.43 879.52 349.34
  Q 881.13 348.81 880.74 349.75
  Z"
/>
<path fill="#f0e7db" fill-opacity="0.522" d="
  M 893.72 355.21
  Q 896.98 358.41 901.04 360.59
  A 2.17 1.37 26.7 0 1 901.29 360.76
  L 912.00 369.49
  C 912.27 383.33 911.14 394.19 901.42 404.49
  C 892.53 413.92 879.94 422.37 867.31 424.04
  Q 854.98 425.67 848.90 427.18
  C 837.03 430.13 824.99 438.77 815.68 447.18
  Q 802.55 459.03 789.90 473.89
  Q 776.82 489.25 776.81 489.26
  C 769.75 496.94 763.26 502.15 756.05 507.53
  C 745.37 515.49 737.44 526.34 733.06 538.77
  C 730.35 546.48 729.78 557.49 728.25 564.61
  Q 723.46 586.78 706.71 602.94
  Q 700.32 609.10 693.56 610.09
  C 689.94 610.62 684.57 609.58 680.70 610.10
  C 673.72 611.03 663.87 618.67 658.52 623.53
  Q 655.33 626.43 649.41 635.24
  Q 633.95 658.24 630.23 663.99
  C 624.33 673.07 617.89 679.16 611.18 686.07
  C 598.29 699.32 591.41 713.39 584.12 730.69
  Q 575.69 750.69 571.92 759.26
  Q 570.28 762.99 570.06 769.47
  Q 569.46 769.11 568.96 769.38
  L 566.05 766.07
  Q 564.91 764.28 563.17 763.09
  Q 562.56 761.97 561.45 761.54
  L 560.72 760.82
  Q 559.76 759.32 558.42 758.83
  C 556.38 756.69 554.47 754.67 552.07 752.89
  C 548.58 750.30 544.77 746.28 541.37 744.07
  Q 538.13 741.97 536.11 740.40
  C 532.00 737.19 526.49 734.66 522.76 732.28
  C 518.46 729.55 514.27 728.28 510.59 727.21
  A 0.62 0.62 0.0 0 1 510.32 726.18
  L 518.73 717.49
  Q 519.97 716.61 520.46 715.45
  L 520.70 715.22
  Q 521.38 714.87 521.48 714.18
  L 551.65 683.30
  Q 552.21 682.87 552.56 682.26
  L 563.09 671.50
  Q 564.02 670.96 564.53 670.02
  C 569.48 664.73 574.98 659.68 579.56 654.22
  C 581.93 651.39 584.81 648.97 587.29 646.39
  Q 607.07 625.80 634.37 597.66
  Q 634.42 597.61 639.21 592.93
  Q 642.62 589.61 647.52 584.02
  Q 652.41 578.43 666.13 565.56
  Q 673.61 562.15 679.78 555.52
  Q 682.58 552.52 684.84 551.75
  A 0.54 0.54 0.0 0 1 685.54 552.33
  Q 685.35 553.72 684.41 554.84
  Q 682.00 557.73 679.77 560.67
  Q 677.08 562.41 675.07 564.87
  Q 672.48 568.04 672.40 568.13
  C 669.81 571.00 667.76 573.55 665.25 576.01
  Q 659.16 581.97 652.76 589.76
  Q 651.76 590.98 648.29 594.31
  Q 646.66 595.88 643.97 599.00
  Q 640.59 602.91 637.06 606.39
  L 590.78 654.59
  A 0.53 0.53 0.0 0 0 590.80 655.35
  C 595.28 659.49 603.90 656.55 608.88 654.68
  A 2.50 2.47 11.6 0 0 609.74 654.12
  Q 612.81 650.99 614.82 649.04
  C 617.60 646.34 619.90 642.39 623.21 639.76
  A 3.68 3.57 -2.1 0 0 623.89 639.05
  C 626.04 636.06 629.29 633.30 631.77 630.13
  Q 632.36 629.38 634.29 627.28
  Q 642.85 617.99 651.56 608.74
  Q 658.25 601.38 664.85 593.86
  C 666.27 592.24 667.65 591.33 668.82 589.80
  Q 670.23 587.94 671.61 586.59
  Q 682.23 576.20 685.57 571.81
  C 688.58 567.85 691.93 565.19 695.41 561.45
  Q 705.29 550.86 706.65 549.49
  Q 711.23 544.90 717.68 537.37
  Q 722.41 531.85 732.08 521.80
  Q 737.88 515.77 746.60 506.38
  Q 791.57 457.96 797.76 451.51
  Q 799.02 450.20 806.44 442.18
  Q 809.00 439.41 811.36 437.38
  Q 812.98 435.99 820.89 426.48
  A 13.50 12.89 -89.2 0 1 822.46 424.88
  C 826.47 421.43 830.96 417.64 833.77 412.87
  A 5.23 5.07 -10.4 0 1 834.27 412.17
  C 836.81 409.26 839.89 407.01 842.94 403.67
  Q 845.29 401.10 851.75 393.51
  Q 853.03 392.01 858.71 386.67
  Q 862.44 383.16 863.79 381.50
  Q 866.80 377.81 865.57 372.99
  A 1.17 1.16 6.8 0 0 864.99 372.26
  Q 863.33 371.37 861.87 372.20
  Q 857.48 374.73 853.38 379.16
  A 0.97 0.96 16.7 0 1 852.81 379.46
  Q 851.79 379.61 851.57 380.61
  A 0.11 0.11 0.0 0 0 851.77 380.70
  Q 852.08 380.30 852.09 380.29
  A 0.25 0.25 0.0 0 1 852.34 380.69
  C 847.80 386.36 841.90 390.27 836.87 395.51
  Q 837.21 394.32 838.14 393.50
  Q 838.23 393.43 838.32 393.43
  Q 838.46 393.42 838.65 393.20
  A 0.11 0.11 0.0 0 0 838.51 393.03
  L 836.66 394.10
  A 0.53 0.53 0.0 0 1 835.87 393.59
  Q 836.05 391.88 834.71 390.70
  L 858.99 365.58
  C 863.87 369.54 868.60 357.48 872.09 363.65
  L 873.41 369.33
  A 1.80 1.70 18.9 0 0 873.83 370.13
  Q 875.52 372.00 877.84 370.65
  Q 879.45 369.72 881.07 367.48
  C 883.43 364.22 882.79 360.96 880.67 357.76
  Q 883.50 356.00 885.19 355.93
  Q 889.90 355.72 893.72 355.21
  Z"
/>
<path fill="#cfc5ad" d="
  M 899.50 355.50
  L 904.59 357.05
  Q 914.35 361.11 920.38 366.87
  C 926.36 372.58 933.31 378.10 937.80 384.95
  Q 941.51 390.61 945.19 396.30
  L 948.10 400.77
  L 952.87 407.73
  Q 951.80 407.45 951.95 407.70
  Q 952.92 409.30 953.15 411.17
  A 0.16 0.14 -10.4 0 0 953.34 411.29
  A 0.24 0.24 0.0 0 0 953.51 410.98
  Q 953.20 409.99 953.30 409.83
  A 0.22 0.22 0.0 0 1 953.71 409.96
  Q 953.58 411.78 954.30 412.92
  A 1.86 1.82 -65.0 0 1 954.56 413.66
  L 956.27 426.81
  A 0.61 0.61 0.0 0 0 957.24 427.22
  L 961.80 423.81
  Q 960.00 428.48 960.15 433.25
  A 2.88 2.79 -60.8 0 0 960.49 434.52
  L 962.07 437.44
  C 959.80 439.71 957.95 442.57 956.04 444.60
  C 923.90 478.86 891.07 512.23 858.33 546.13
  Q 831.44 573.97 804.35 601.85
  Q 747.20 660.65 737.69 670.69
  Q 721.16 688.14 718.89 690.67
  C 712.92 697.32 706.66 703.33 700.46 710.13
  C 693.10 718.20 685.05 726.25 677.31 734.31
  Q 646.58 766.33 628.70 785.42
  C 624.42 789.99 620.53 793.36 616.75 798.22
  Q 615.64 799.64 610.65 803.40
  A 1.43 1.43 0.0 0 1 609.45 803.65
  Q 605.08 802.56 603.01 800.53
  A 1.10 1.05 -65.5 0 0 601.21 801.25
  Q 601.12 802.07 600.01 802.17
  Q 596.41 803.92 597.38 801.53
  L 605.86 791.85
  L 610.30 786.80
  L 611.39 785.84
  L 614.31 783.12
  L 683.14 710.31
  A 0.85 0.85 0.0 0 0 683.38 709.83
  Q 683.46 709.23 684.00 708.69
  Q 688.24 704.44 692.40 700.62
  C 699.64 693.98 706.10 685.93 712.70 679.61
  C 716.55 675.93 719.12 672.50 722.86 669.10
  C 726.64 665.66 731.56 659.69 735.96 655.44
  C 739.82 651.72 742.47 648.09 746.16 644.73
  Q 749.45 641.72 753.99 636.89
  Q 758.53 632.05 773.07 616.99
  A 1.96 1.76 82.6 0 0 773.40 616.51
  Q 774.70 613.92 778.30 611.31
  Q 780.78 609.51 784.18 605.52
  C 787.88 601.19 792.02 597.83 795.71 593.26
  C 797.52 591.03 799.30 589.80 801.69 587.01
  C 806.22 581.73 812.60 576.00 816.03 572.29
  Q 826.88 560.59 832.28 555.28
  Q 836.94 550.70 844.52 542.22
  C 846.33 540.19 848.83 538.10 850.60 535.55
  A 3.64 3.63 -2.9 0 1 851.26 534.82
  Q 854.11 532.43 856.30 529.78
  Q 859.56 525.81 861.00 524.48
  Q 862.82 522.78 873.66 511.78
  C 876.19 509.23 878.49 506.29 881.19 503.78
  Q 883.83 501.33 887.03 497.95
  Q 907.43 476.40 910.91 472.91
  Q 931.39 452.39 933.59 450.34
  C 937.16 447.00 940.85 443.73 944.05 440.13
  Q 950.96 432.39 954.04 429.65
  A 0.74 0.74 0.0 0 0 954.14 428.66
  Q 953.18 427.36 952.40 424.58
  Q 951.72 422.12 950.56 419.84
  Q 945.79 410.43 941.31 401.46
  Q 940.38 399.59 936.72 395.88
  Q 931.12 388.15 924.39 381.10
  Q 918.58 375.02 912.00 369.49
  L 901.29 360.76
  A 2.17 1.37 26.7 0 0 901.04 360.59
  Q 896.98 358.41 893.72 355.21
  L 899.50 355.50
  Z"
/>
<path fill="#eceadc" fill-opacity="0.353" d="
  M 880.67 357.76
  C 882.79 360.96 883.43 364.22 881.07 367.48
  Q 879.45 369.72 877.84 370.65
  Q 875.52 372.00 873.83 370.13
  A 1.80 1.70 18.9 0 1 873.41 369.33
  L 872.09 363.65
  Q 875.49 356.79 880.67 357.76
  Z"
/>
<path fill="#cfc5ad" d="
  M 1090.80 365.57
  L 1089.28 367.32
  Q 1084.47 369.40 1081.15 373.94
  A 0.35 0.34 37.4 0 1 1080.65 374.00
  Q 1080.27 373.69 1080.68 373.23
  Q 1084.82 368.55 1088.15 364.84
  Q 1089.09 363.80 1090.24 363.99
  Q 1091.09 364.13 1090.80 365.57
  Z"
/>
<path fill="#edddc8" fill-opacity="0.482" d="
  M 912.00 369.49
  Q 918.58 375.02 924.39 381.10
  Q 931.12 388.15 936.72 395.88
  Q 935.87 398.32 935.05 400.67
  C 933.98 403.72 932.63 405.43 930.47 407.62
  A 1.18 1.16 -52.6 0 1 929.05 407.82
  L 922.10 403.80
  A 0.83 0.83 0.0 0 0 920.96 404.13
  Q 918.73 408.31 918.60 409.11
  Q 917.62 414.86 915.12 418.19
  A 4.23 4.12 71.7 0 0 914.43 419.61
  L 913.33 423.78
  A 1.54 1.53 82.0 0 1 912.64 424.70
  Q 908.53 427.18 905.56 428.88
  Q 902.71 430.52 900.23 433.49
  Q 892.42 442.86 890.83 444.86
  C 887.20 449.39 883.28 452.74 879.89 456.82
  C 873.01 465.12 864.12 473.16 857.36 480.28
  Q 852.61 485.29 848.39 488.97
  Q 839.28 496.91 838.94 497.20
  Q 836.90 498.98 830.81 505.70
  Q 825.63 511.42 822.71 514.27
  Q 817.83 519.04 815.44 522.08
  C 814.12 523.74 811.76 524.93 810.50 526.49
  Q 807.19 530.59 803.64 533.64
  Q 799.86 536.89 797.96 539.42
  C 795.41 542.82 791.13 545.34 788.19 548.69
  Q 787.59 549.37 781.31 555.80
  Q 780.90 556.22 780.08 557.55
  A 3.09 3.02 87.6 0 1 779.29 558.43
  Q 775.44 561.38 772.75 564.74
  C 770.91 567.04 768.87 568.18 767.26 570.37
  C 764.18 574.57 760.45 578.07 756.96 582.29
  A 6.72 6.34 -1.4 0 1 756.02 583.22
  C 752.58 586.05 749.95 589.86 747.22 592.46
  Q 746.29 593.34 744.87 593.42
  A 0.29 0.29 0.0 0 1 744.64 592.92
  Q 745.17 592.37 745.15 591.21
  A 2.23 2.09 58.6 0 1 745.33 590.34
  Q 746.23 588.33 747.80 587.61
  A 0.36 0.35 48.4 0 0 747.83 586.99
  Q 745.49 585.55 743.74 588.00
  Q 743.48 588.36 741.39 591.89
  A 4.01 3.99 62.8 0 0 740.86 593.55
  C 740.47 598.14 738.80 602.21 734.76 604.64
  A 4.40 4.19 -83.8 0 0 733.73 605.51
  C 732.51 606.91 732.05 607.79 730.29 609.38
  Q 728.65 610.85 726.28 613.75
  Q 722.90 617.89 718.26 621.51
  Q 715.88 623.38 708.95 632.20
  A 7.76 7.73 -13.9 0 0 707.97 633.82
  Q 705.31 639.75 702.19 646.04
  C 700.04 650.37 694.28 655.51 692.41 657.66
  Q 689.51 661.02 686.24 663.49
  Q 680.48 667.83 679.31 668.42
  Q 674.71 670.72 672.22 674.66
  C 670.04 678.10 669.42 679.08 666.39 681.85
  C 663.73 684.27 659.35 686.87 656.73 689.79
  C 651.29 695.85 644.82 699.39 639.24 705.39
  Q 635.37 709.56 631.08 713.16
  A 4.84 4.51 -2.4 0 0 630.43 713.82
  C 629.31 715.21 628.69 716.38 627.29 717.73
  Q 618.52 726.19 613.45 730.80
  A 5.52 5.46 86.7 0 0 612.65 731.71
  C 611.07 733.98 608.99 735.45 607.28 737.80
  Q 606.30 739.14 604.72 739.93
  A 2.58 2.58 0.0 0 0 603.76 740.73
  Q 600.88 744.58 599.58 745.83
  Q 597.23 748.11 589.85 756.02
  Q 586.53 759.57 583.72 763.50
  Q 580.23 768.37 575.20 772.23
  A 0.86 0.84 69.3 0 0 574.87 772.98
  Q 574.90 773.23 574.87 773.29
  A 0.37 0.37 0.0 0 1 574.28 773.42
  L 570.06 769.47
  Q 570.28 762.99 571.92 759.26
  Q 575.69 750.69 584.12 730.69
  C 591.41 713.39 598.29 699.32 611.18 686.07
  C 617.89 679.16 624.33 673.07 630.23 663.99
  Q 633.95 658.24 649.41 635.24
  Q 655.33 626.43 658.52 623.53
  C 663.87 618.67 673.72 611.03 680.70 610.10
  C 684.57 609.58 689.94 610.62 693.56 610.09
  Q 700.32 609.10 706.71 602.94
  Q 723.46 586.78 728.25 564.61
  C 729.78 557.49 730.35 546.48 733.06 538.77
  C 737.44 526.34 745.37 515.49 756.05 507.53
  C 763.26 502.15 769.75 496.94 776.81 489.26
  Q 776.82 489.25 789.90 473.89
  Q 802.55 459.03 815.68 447.18
  C 824.99 438.77 837.03 430.13 848.90 427.18
  Q 854.98 425.67 867.31 424.04
  C 879.94 422.37 892.53 413.92 901.42 404.49
  C 911.14 394.19 912.27 383.33 912.00 369.49
  Z"
/>
<path fill="#eceadc" fill-opacity="0.353" d="
  M 651.56 608.74
  Q 646.39 613.00 644.61 613.48
  C 639.79 614.79 634.73 612.24 637.06 606.39
  Q 640.59 602.91 643.97 599.00
  Q 646.66 595.88 648.29 594.31
  Q 651.76 590.98 652.76 589.76
  Q 659.16 581.97 665.25 576.01
  C 667.76 573.55 669.81 571.00 672.40 568.13
  Q 672.48 568.04 675.07 564.87
  Q 677.08 562.41 679.77 560.67
  Q 689.05 550.33 698.84 540.42
  Q 698.88 540.39 701.80 537.21
  Q 703.45 535.41 705.35 533.61
  Q 706.48 532.54 713.45 524.69
  C 722.60 514.41 732.56 504.20 741.49 495.24
  C 745.25 491.46 748.21 488.02 751.23 485.00
  Q 760.20 476.04 772.90 462.29
  C 777.68 457.12 784.10 452.08 788.45 446.36
  Q 791.28 442.64 794.69 439.75
  Q 799.43 435.74 805.76 428.51
  C 809.91 423.77 815.49 419.18 820.36 413.52
  Q 828.33 404.26 836.87 395.51
  C 841.90 390.27 847.80 386.36 852.34 380.69
  A 0.25 0.25 0.0 0 0 852.09 380.29
  Q 852.08 380.30 851.77 380.70
  A 0.11 0.11 0.0 0 1 851.57 380.61
  Q 851.79 379.61 852.81 379.46
  A 0.97 0.96 16.7 0 0 853.38 379.16
  Q 857.48 374.73 861.87 372.20
  Q 863.33 371.37 864.99 372.26
  A 1.17 1.16 6.8 0 1 865.57 372.99
  Q 866.80 377.81 863.79 381.50
  Q 862.44 383.16 858.71 386.67
  Q 853.03 392.01 851.75 393.51
  Q 845.29 401.10 842.94 403.67
  C 839.89 407.01 836.81 409.26 834.27 412.17
  A 5.23 5.07 -10.4 0 0 833.77 412.87
  C 830.96 417.64 826.47 421.43 822.46 424.88
  A 13.50 12.89 -89.2 0 0 820.89 426.48
  Q 812.98 435.99 811.36 437.38
  Q 809.00 439.41 806.44 442.18
  Q 799.02 450.20 797.76 451.51
  Q 791.57 457.96 746.60 506.38
  Q 737.88 515.77 732.08 521.80
  Q 722.41 531.85 717.68 537.37
  Q 711.23 544.90 706.65 549.49
  Q 705.29 550.86 695.41 561.45
  C 691.93 565.19 688.58 567.85 685.57 571.81
  Q 682.23 576.20 671.61 586.59
  Q 670.23 587.94 668.82 589.80
  C 667.65 591.33 666.27 592.24 664.85 593.86
  Q 658.25 601.38 651.56 608.74
  Z"
/>
<path fill="#729370" fill-opacity="0.345" d="
  M 949.25 394.90
  L 951.37 398.02
  L 951.83 399.97
  A 0.50 0.49 -14.3 0 1 951.48 400.55
  Q 949.91 401.00 949.03 400.05
  A 0.05 0.05 0.0 0 0 948.95 400.11
  L 949.06 400.35
  A 0.28 0.28 0.0 0 1 948.72 400.73
  Q 948.35 400.63 948.10 400.77
  L 945.19 396.30
  L 941.49 389.93
  A 0.03 0.02 58.3 0 1 941.49 389.90
  L 941.69 389.66
  A 0.20 0.20 0.0 0 1 941.99 389.66
  Q 944.74 392.75 946.98 395.66
  Q 947.43 396.25 948.06 396.27
  Q 948.70 396.29 949.25 394.90
  Z"
/>
<path fill="#edddc8" fill-opacity="0.482" d="
  M 836.87 395.51
  Q 828.33 404.26 820.36 413.52
  C 815.49 419.18 809.91 423.77 805.76 428.51
  Q 799.43 435.74 794.69 439.75
  Q 791.28 442.64 788.45 446.36
  C 784.10 452.08 777.68 457.12 772.90 462.29
  Q 760.20 476.04 751.23 485.00
  C 748.21 488.02 745.25 491.46 741.49 495.24
  C 732.56 504.20 722.60 514.41 713.45 524.69
  Q 706.48 532.54 705.35 533.61
  Q 703.45 535.41 701.80 537.21
  Q 698.88 540.39 698.84 540.42
  Q 689.05 550.33 679.77 560.67
  Q 682.00 557.73 684.41 554.84
  Q 685.35 553.72 685.54 552.33
  A 0.54 0.54 0.0 0 0 684.84 551.75
  Q 682.58 552.52 679.78 555.52
  Q 673.61 562.15 666.13 565.56
  Q 668.36 562.41 670.84 560.10
  Q 675.22 556.01 675.26 555.97
  C 680.36 550.64 685.21 545.27 690.58 540.02
  Q 695.94 534.78 701.19 529.43
  Q 707.06 523.44 717.76 512.01
  C 721.12 508.42 724.97 505.18 728.74 501.00
  C 733.89 495.29 741.46 488.51 747.36 482.04
  C 751.47 477.53 753.13 475.47 756.88 471.99
  C 762.02 467.22 767.29 460.47 772.49 455.77
  C 777.65 451.12 782.03 445.72 788.11 439.36
  C 797.35 429.70 805.29 421.59 815.61 410.54
  Q 825.01 400.49 834.71 390.70
  Q 836.05 391.88 835.87 393.59
  A 0.53 0.53 0.0 0 0 836.66 394.10
  L 838.51 393.03
  A 0.11 0.11 0.0 0 1 838.65 393.20
  Q 838.46 393.42 838.32 393.43
  Q 838.23 393.43 838.14 393.50
  Q 837.21 394.32 836.87 395.51
  Z"
/>
<path fill="#dacfb8" fill-opacity="0.608" d="
  M 614.31 783.12
  Q 611.64 782.13 609.16 782.12
  A 1.41 1.37 27.4 0 0 608.33 782.37
  L 605.84 784.02
  Q 600.63 787.36 596.35 792.06
  Q 594.65 793.93 589.62 795.30
  L 582.44 784.72
  A 3.59 3.15 10.3 0 0 582.05 784.23
  Q 580.04 782.16 577.21 778.30
  Q 574.37 774.45 568.96 769.38
  Q 569.46 769.11 570.06 769.47
  L 574.28 773.42
  A 0.37 0.37 0.0 0 0 574.87 773.29
  Q 574.90 773.23 574.87 772.98
  A 0.86 0.84 69.3 0 1 575.20 772.23
  Q 580.23 768.37 583.72 763.50
  Q 586.53 759.57 589.85 756.02
  Q 597.23 748.11 599.58 745.83
  Q 600.88 744.58 603.76 740.73
  A 2.58 2.58 0.0 0 1 604.72 739.93
  Q 606.30 739.14 607.28 737.80
  C 608.99 735.45 611.07 733.98 612.65 731.71
  A 5.52 5.46 86.7 0 1 613.45 730.80
  Q 618.52 726.19 627.29 717.73
  C 628.69 716.38 629.31 715.21 630.43 713.82
  A 4.84 4.51 -2.4 0 1 631.08 713.16
  Q 635.37 709.56 639.24 705.39
  C 644.82 699.39 651.29 695.85 656.73 689.79
  C 659.35 686.87 663.73 684.27 666.39 681.85
  C 669.42 679.08 670.04 678.10 672.22 674.66
  Q 674.71 670.72 679.31 668.42
  Q 680.48 667.83 686.24 663.49
  Q 689.51 661.02 692.41 657.66
  C 694.28 655.51 700.04 650.37 702.19 646.04
  Q 705.31 639.75 707.97 633.82
  A 7.76 7.73 -13.9 0 1 708.95 632.20
  Q 715.88 623.38 718.26 621.51
  Q 722.90 617.89 726.28 613.75
  Q 728.65 610.85 730.29 609.38
  C 732.05 607.79 732.51 606.91 733.73 605.51
  A 4.40 4.19 -83.8 0 1 734.76 604.64
  C 738.80 602.21 740.47 598.14 740.86 593.55
  A 4.01 3.99 62.8 0 1 741.39 591.89
  Q 743.48 588.36 743.74 588.00
  Q 745.49 585.55 747.83 586.99
  A 0.36 0.35 48.4 0 1 747.80 587.61
  Q 746.23 588.33 745.33 590.34
  A 2.23 2.09 58.6 0 0 745.15 591.21
  Q 745.17 592.37 744.64 592.92
  A 0.29 0.29 0.0 0 0 744.87 593.42
  Q 746.29 593.34 747.22 592.46
  C 749.95 589.86 752.58 586.05 756.02 583.22
  A 6.72 6.34 -1.4 0 0 756.96 582.29
  C 760.45 578.07 764.18 574.57 767.26 570.37
  C 768.87 568.18 770.91 567.04 772.75 564.74
  Q 775.44 561.38 779.29 558.43
  A 3.09 3.02 87.6 0 0 780.08 557.55
  Q 780.90 556.22 781.31 555.80
  Q 787.59 549.37 788.19 548.69
  C 791.13 545.34 795.41 542.82 797.96 539.42
  Q 799.86 536.89 803.64 533.64
  Q 807.19 530.59 810.50 526.49
  C 811.76 524.93 814.12 523.74 815.44 522.08
  Q 817.83 519.04 822.71 514.27
  Q 825.63 511.42 830.81 505.70
  Q 836.90 498.98 838.94 497.20
  Q 839.28 496.91 848.39 488.97
  Q 852.61 485.29 857.36 480.28
  C 864.12 473.16 873.01 465.12 879.89 456.82
  C 883.28 452.74 887.20 449.39 890.83 444.86
  Q 892.42 442.86 900.23 433.49
  Q 902.71 430.52 905.56 428.88
  Q 908.53 427.18 912.64 424.70
  A 1.54 1.53 82.0 0 0 913.33 423.78
  L 914.43 419.61
  A 4.23 4.12 71.7 0 1 915.12 418.19
  Q 917.62 414.86 918.60 409.11
  Q 918.73 408.31 920.96 404.13
  A 0.83 0.83 0.0 0 1 922.10 403.80
  L 929.05 407.82
  A 1.18 1.16 -52.6 0 0 930.47 407.62
  C 932.63 405.43 933.98 403.72 935.05 400.67
  Q 935.87 398.32 936.72 395.88
  Q 940.38 399.59 941.31 401.46
  Q 945.79 410.43 950.56 419.84
  Q 951.72 422.12 952.40 424.58
  Q 953.18 427.36 954.14 428.66
  A 0.74 0.74 0.0 0 1 954.04 429.65
  Q 950.96 432.39 944.05 440.13
  C 940.85 443.73 937.16 447.00 933.59 450.34
  Q 931.39 452.39 910.91 472.91
  Q 907.43 476.40 887.03 497.95
  Q 883.83 501.33 881.19 503.78
  C 878.49 506.29 876.19 509.23 873.66 511.78
  Q 862.82 522.78 861.00 524.48
  Q 859.56 525.81 856.30 529.78
  Q 854.11 532.43 851.26 534.82
  A 3.64 3.63 -2.9 0 0 850.60 535.55
  C 848.83 538.10 846.33 540.19 844.52 542.22
  Q 836.94 550.70 832.28 555.28
  Q 826.88 560.59 816.03 572.29
  C 812.60 576.00 806.22 581.73 801.69 587.01
  C 799.30 589.80 797.52 591.03 795.71 593.26
  C 792.02 597.83 787.88 601.19 784.18 605.52
  Q 780.78 609.51 778.30 611.31
  Q 774.70 613.92 773.40 616.51
  A 1.96 1.76 82.6 0 1 773.07 616.99
  Q 758.53 632.05 753.99 636.89
  Q 749.45 641.72 746.16 644.73
  C 742.47 648.09 739.82 651.72 735.96 655.44
  C 731.56 659.69 726.64 665.66 722.86 669.10
  C 719.12 672.50 716.55 675.93 712.70 679.61
  C 706.10 685.93 699.64 693.98 692.40 700.62
  Q 688.24 704.44 684.00 708.69
  Q 683.46 709.23 683.38 709.83
  A 0.85 0.85 0.0 0 1 683.14 710.31
  L 614.31 783.12
  Z
  M 675.7300 688.7779
  A 0.85 0.22 -45.1 0 0 674.9742 689.2247
  A 0.85 0.22 -45.1 0 0 674.5300 689.9821
  A 0.85 0.22 -45.1 0 0 675.2858 689.5353
  A 0.85 0.22 -45.1 0 0 675.7300 688.7779
  Z
  M 615.2779 753.6664
  A 1.04 1.04 0.0 0 0 613.8083 753.6073
  L 607.5469 759.3853
  A 1.04 1.04 0.0 0 0 607.4878 760.8548
  L 607.5421 760.9136
  A 1.04 1.04 0.0 0 0 609.0117 760.9727
  L 615.2731 755.1947
  A 1.04 1.04 0.0 0 0 615.3322 753.7252
  L 615.2779 753.6664
  Z"
/>
<path fill="#eceadc" fill-opacity="0.353" d="
  M 961.46 420.19
  L 960.62 421.46
  L 956.10 418.56
  A 0.01 0.01 0.0 0 1 956.10 418.54
  L 956.26 418.34
  A 0.15 0.15 0.0 0 1 956.47 418.33
  L 959.35 420.77
  A 0.21 0.21 0.0 0 0 959.64 420.74
  L 959.83 420.52
  A 0.39 0.38 -46.2 0 0 959.82 420.01
  Q 956.89 416.74 955.41 412.55
  L 953.54 407.87
  A 0.02 0.01 58.3 0 0 953.52 407.86
  L 953.31 408.11
  A 0.26 0.25 53.3 0 1 952.88 408.04
  Q 952.81 407.89 952.87 407.73
  L 948.10 400.77
  Q 948.35 400.63 948.72 400.73
  A 0.28 0.28 0.0 0 0 949.06 400.35
  L 948.95 400.11
  A 0.05 0.05 0.0 0 1 949.03 400.05
  Q 949.91 401.00 951.48 400.55
  A 0.50 0.49 -14.3 0 0 951.83 399.97
  L 951.37 398.02
  Q 956.79 406.74 959.38 412.81
  Q 960.32 415.01 961.46 420.19
  Z"
/>
<path fill="#dacfb8" fill-opacity="0.608" d="
  M 955.41 412.55
  Q 955.54 419.20 957.06 425.63
  A 0.26 0.26 0.0 0 0 957.53 425.72
  L 960.62 421.46
  L 961.46 420.19
  Q 963.03 423.44 961.80 423.81
  L 957.24 427.22
  A 0.61 0.61 0.0 0 1 956.27 426.81
  L 954.56 413.66
  A 1.86 1.82 -65.0 0 0 954.30 412.92
  Q 953.58 411.78 953.71 409.96
  A 0.22 0.22 0.0 0 0 953.30 409.83
  Q 953.20 409.99 953.51 410.98
  A 0.24 0.24 0.0 0 1 953.34 411.29
  A 0.16 0.14 -10.4 0 1 953.15 411.17
  Q 952.92 409.30 951.95 407.70
  Q 951.80 407.45 952.87 407.73
  Q 952.81 407.89 952.88 408.04
  A 0.26 0.25 53.3 0 0 953.31 408.11
  L 953.52 407.86
  A 0.02 0.01 58.3 0 1 953.54 407.87
  L 955.41 412.55
  Z"
/>
<path fill="#edddc8" fill-opacity="0.482" d="
  M 955.41 412.55
  Q 956.89 416.74 959.82 420.01
  A 0.39 0.38 -46.2 0 1 959.83 420.52
  L 959.64 420.74
  A 0.21 0.21 0.0 0 1 959.35 420.77
  L 956.47 418.33
  A 0.15 0.15 0.0 0 0 956.26 418.34
  L 956.10 418.54
  A 0.01 0.01 0.0 0 0 956.10 418.56
  L 960.62 421.46
  L 957.53 425.72
  A 0.26 0.26 0.0 0 1 957.06 425.63
  Q 955.54 419.20 955.41 412.55
  Z"
/>
<path fill="#edddc8" fill-opacity="0.482" d="
  M 637.06 606.39
  C 634.73 612.24 639.79 614.79 644.61 613.48
  Q 646.39 613.00 651.56 608.74
  Q 642.85 617.99 634.29 627.28
  Q 632.36 629.38 631.77 630.13
  C 629.29 633.30 626.04 636.06 623.89 639.05
  A 3.68 3.57 -2.1 0 1 623.21 639.76
  C 619.90 642.39 617.60 646.34 614.82 649.04
  Q 612.81 650.99 609.74 654.12
  A 2.50 2.47 11.6 0 1 608.88 654.68
  C 603.90 656.55 595.28 659.49 590.80 655.35
  A 0.53 0.53 0.0 0 1 590.78 654.59
  L 637.06 606.39
  Z"
/>
<path fill="#476b53" d="
  M 564.53 670.02
  Q 564.02 670.96 563.09 671.50
  Q 563.68 670.64 564.53 670.02
  Z"
/>
<path fill="#476b53" d="
  M 552.56 682.26
  Q 552.21 682.87 551.65 683.30
  Q 551.87 682.50 552.56 682.26
  Z"
/>
<ellipse fill="#cfc5ad" cx="0.00" cy="0.00" transform="translate(675.13,689.38) rotate(-45.1)" rx="0.85" ry="0.22"/>
<path fill="#476b53" d="
  M 521.48 714.18
  Q 521.38 714.87 520.70 715.22
  Q 520.91 714.69 521.48 714.18
  Z"
/>
<path fill="#476b53" d="
  M 520.46 715.45
  Q 519.97 716.61 518.73 717.49
  Q 519.35 716.28 520.46 715.45
  Z"
/>
<path fill="#f0e7db" fill-opacity="0.522" d="
  M 511.51 739.54
  Q 512.05 739.93 512.71 739.98
  L 515.99 741.20
  Q 516.41 741.69 517.23 741.71
  Q 520.41 743.17 522.49 744.50
  Q 531.46 750.25 541.47 757.58
  C 544.21 759.59 546.82 762.16 549.53 764.43
  Q 550.08 765.29 551.01 765.84
  Q 560.69 774.54 567.71 782.78
  Q 573.03 789.02 579.13 798.39
  A 0.77 0.75 25.6 0 1 579.26 798.74
  L 579.75 802.47
  A 1.07 1.05 17.0 0 0 580.12 803.15
  L 583.26 805.81
  A 2.71 2.71 0.0 0 1 583.46 809.76
  Q 579.14 814.23 572.50 815.82
  Q 571.95 815.78 571.50 816.03
  Q 566.70 817.11 561.49 816.73
  Q 560.89 816.68 560.52 816.22
  Q 560.51 816.13 560.51 816.03
  Q 561.37 813.33 560.47 811.25
  Q 555.96 800.79 551.45 790.33
  Q 550.66 788.51 547.96 784.84
  Q 543.58 780.81 538.04 779.47
  L 528.93 771.08
  Q 529.59 771.18 530.25 771.60
  Q 530.87 772.00 531.52 772.08
  Q 532.30 772.18 532.94 772.83
  A 0.28 0.27 -44.3 0 0 533.33 772.83
  L 533.33 772.82
  A 0.23 0.23 0.0 0 0 533.32 772.49
  Q 527.48 767.20 520.06 764.50
  Q 515.90 761.92 511.28 760.48
  Q 508.55 759.63 505.99 758.88
  Q 506.37 754.20 506.51 749.68
  C 506.60 746.65 507.85 742.56 506.30 738.74
  Q 506.95 738.06 508.49 738.52
  Q 510.01 738.97 511.51 739.54
  Z
  M 566.02 782.67
  A 0.25 0.25 0.0 0 0 565.77 782.42
  A 0.25 0.25 0.0 0 0 565.52 782.67
  A 0.25 0.25 0.0 0 0 565.77 782.92
  A 0.25 0.25 0.0 0 0 566.02 782.67
  Z
  M 576.5953 805.6670
  A 0.52 0.15 -60.6 0 0 576.2093 806.0464
  A 0.52 0.15 -60.6 0 0 576.0847 806.5730
  A 0.52 0.15 -60.6 0 0 576.4707 806.1936
  A 0.52 0.15 -60.6 0 0 576.5953 805.6670
  Z"
/>
<path fill="#edddc8" fill-opacity="0.482" d="
  M 506.30 738.74
  C 507.85 742.56 506.60 746.65 506.51 749.68
  Q 506.37 754.20 505.99 758.88
  L 502.52 758.55
  Q 502.92 758.65 503.30 758.32
  L 504.54 753.24
  A 0.42 0.42 0.0 0 0 504.13 752.72
  Q 502.73 752.75 501.63 754.03
  L 501.38 751.09
  Q 501.52 750.81 501.55 750.47
  L 501.68 748.21
  Q 501.73 748.08 501.78 747.96
  Q 502.29 746.91 502.25 745.94
  Q 502.52 745.60 502.52 745.03
  Q 503.76 741.66 506.30 738.74
  Z"
/>
<path fill="#476b53" d="
  M 512.71 739.98
  Q 512.05 739.93 511.51 739.54
  Q 512.17 739.57 512.71 739.98
  Z"
/>
<path fill="#476b53" d="
  M 517.23 741.71
  Q 516.41 741.69 515.99 741.20
  Q 516.73 741.14 517.23 741.71
  Z"
/>
<path fill="#476b53" d="
  M 502.52 745.03
  Q 502.52 745.60 502.25 745.94
  Q 502.24 745.43 502.52 745.03
  Z"
/>
<path fill="#476b53" d="
  M 502.25 745.94
  Q 502.29 746.91 501.78 747.96
  Q 501.79 746.76 502.25 745.94
  Z"
/>
<path fill="#476b53" d="
  M 501.68 748.21
  L 501.55 750.47
  Q 501.43 749.33 501.68 748.21
  Z"
/>
<path fill="#476b53" d="
  M 501.38 751.09
  L 501.63 754.03
  L 501.66 755.77
  L 501.38 751.09
  Z"
/>
<path fill="#eceadc" fill-opacity="0.353" d="
  M 503.30 758.32
  Q 501.89 757.77 501.66 755.77
  L 501.63 754.03
  Q 502.73 752.75 504.13 752.72
  A 0.42 0.42 0.0 0 1 504.54 753.24
  L 503.30 758.32
  Z"
/>
<path fill="#f0e7db" fill-opacity="0.522" d="
  M 615.3322 753.7252
  A 1.04 1.04 0.0 0 1 615.2731 755.1947
  L 609.0117 760.9727
  A 1.04 1.04 0.0 0 1 607.5421 760.9136
  L 607.4878 760.8548
  A 1.04 1.04 0.0 0 1 607.5469 759.3853
  L 613.8083 753.6073
  A 1.04 1.04 0.0 0 1 615.2779 753.6664
  L 615.3322 753.7252
  Z
  M 611.11 757.96
  L 611.15 757.77
  A 0.29 0.28 -16.0 0 0 610.67 757.51
  L 608.49 759.57
  A 0.33 0.33 0.0 0 0 608.68 760.14
  Q 609.65 760.26 610.77 758.72
  A 2.02 1.94 70.3 0 0 611.11 757.96
  Z"
/>
<path fill="#dacfb8" fill-opacity="0.608" d="
  M 610.77 758.72
  Q 609.65 760.26 608.68 760.14
  A 0.33 0.33 0.0 0 1 608.49 759.57
  L 610.67 757.51
  A 0.29 0.28 -16.0 0 1 611.15 757.77
  L 611.11 757.96
  A 2.02 1.94 70.3 0 1 610.77 758.72
  Z"
/>
<path fill="#3b5e46" d="
  M 502.52 758.55
  L 505.99 758.88
  Q 508.55 759.63 511.28 760.48
  Q 515.90 761.92 520.06 764.50
  L 528.93 771.08
  L 538.04 779.47
  L 540.27 782.06
  Q 541.29 783.78 543.01 785.08
  L 547.23 790.83
  L 553.39 801.36
  A 0.92 0.82 86.4 0 0 553.70 801.67
  Q 554.38 802.09 554.39 802.84
  A 1.00 0.93 33.5 0 0 554.47 803.17
  L 560.51 816.03
  Q 560.51 816.13 560.52 816.22
  L 560.02 827.73
  Q 557.40 827.30 556.16 828.65
  C 550.04 835.29 542.99 840.66 536.26 846.67
  C 529.67 852.56 524.76 856.36 516.99 862.71
  Q 511.97 866.82 505.92 871.15
  Q 492.23 880.96 487.05 884.55
  Q 484.64 886.22 481.21 887.43
  C 477.44 888.77 470.59 887.00 466.75 885.87
  A 0.97 0.96 -70.7 0 0 465.58 886.44
  C 462.53 894.25 454.77 901.88 447.35 907.36
  Q 439.45 913.18 426.53 921.01
  Q 425.58 921.58 421.73 923.15
  A 2.67 2.63 -75.7 0 0 421.00 923.59
  L 417.02 926.92
  A 2.14 2.11 20.3 0 1 415.96 927.40
  Q 414.56 927.64 405.27 930.77
  Q 400.09 932.53 394.83 929.67
  A 2.29 2.22 85.4 0 1 394.09 929.02
  Q 391.37 925.34 392.28 921.02
  C 396.18 902.48 409.25 883.58 420.26 867.00
  Q 425.39 859.27 432.62 855.46
  A 1.62 1.61 -25.5 0 0 433.36 853.39
  L 432.10 850.46
  A 3.71 3.66 30.6 0 1 431.82 849.40
  Q 431.16 842.66 435.15 836.60
  Q 450.85 812.70 468.65 789.63
  Q 477.11 778.68 486.25 768.50
  Q 487.26 767.38 487.76 765.35
  A 4.50 4.37 70.7 0 1 488.48 763.80
  L 491.04 760.25
  Q 497.25 758.34 502.52 758.55
  Z
  M 445.31 851.01
  Q 445.80 852.42 446.40 853.03
  A 0.71 0.70 -37.1 0 0 447.26 853.14
  Q 447.61 852.94 447.92 852.51
  L 462.90 870.07
  A 0.83 0.83 0.0 0 0 464.36 869.64
  Q 465.20 863.36 469.95 859.20
  C 475.24 854.58 478.89 850.61 484.25 846.19
  Q 502.14 831.38 520.48 813.38
  A 22.50 22.44 6.0 0 1 523.82 810.68
  Q 527.94 807.94 530.88 805.36
  C 533.24 803.29 535.40 802.66 538.47 802.15
  A 1.61 1.61 0.0 0 0 539.70 799.97
  Q 537.99 795.67 534.62 792.16
  Q 528.33 785.59 523.05 780.44
  Q 519.29 776.77 514.49 774.74
  Q 511.49 771.73 507.16 771.06
  Q 502.69 769.18 498.02 769.63
  A 1.08 1.07 14.7 0 0 497.26 770.07
  C 494.06 774.54 489.98 778.47 486.90 782.61
  C 480.03 791.86 470.63 804.23 461.75 814.11
  Q 458.77 817.42 453.72 824.32
  Q 444.33 837.15 443.08 839.09
  C 441.01 842.32 439.11 846.73 441.23 849.86
  Q 442.79 852.16 445.31 851.01
  Z
  M 420.83 886.55
  Q 418.47 890.02 416.13 893.66
  Q 414.15 896.73 415.82 897.64
  Q 418.00 900.87 422.63 901.57
  A 1.11 1.10 -60.4 0 0 423.52 901.32
  Q 438.66 888.33 453.03 873.73
  A 0.82 0.81 47.9 0 0 453.08 872.66
  C 449.41 868.06 445.69 864.88 440.02 859.84
  A 0.98 0.98 0.0 0 0 438.64 859.92
  Q 431.92 867.44 428.20 870.71
  Q 425.94 872.70 422.13 878.61
  Q 419.64 882.49 420.83 886.55
  Z
  M 407.58 905.10
  L 404.64 910.19
  A 0.75 0.75 0.0 0 0 405.66 911.22
  L 411.13 908.06
  A 0.60 0.60 0.0 0 0 411.21 907.08
  L 408.66 904.91
  A 0.72 0.71 34.7 0 0 407.58 905.10
  Z"
/>
<path fill="#476b53" d="
  M 560.72 760.82
  L 558.42 758.83
  Q 559.76 759.32 560.72 760.82
  Z"
/>
<path fill="#476b53" d="
  M 563.17 763.09
  Q 562.18 762.51 561.45 761.54
  Q 562.56 761.97 563.17 763.09
  Z"
/>
<path fill="#476b53" d="
  M 566.05 766.07
  Q 564.30 764.84 563.17 763.09
  Q 564.91 764.28 566.05 766.07
  Z"
/>
<path fill="#eceadc" fill-opacity="0.353" d="
  M 528.93 771.08
  L 520.06 764.50
  Q 527.48 767.20 533.32 772.49
  A 0.23 0.23 0.0 0 1 533.33 772.82
  L 533.33 772.83
  A 0.28 0.27 -44.3 0 1 532.94 772.83
  Q 532.30 772.18 531.52 772.08
  Q 530.87 772.00 530.25 771.60
  Q 529.59 771.18 528.93 771.08
  Z"
/>
<path fill="#476b53" d="
  M 551.01 765.84
  Q 550.08 765.29 549.53 764.43
  Q 550.69 764.83 551.01 765.84
  Z"
/>
<path fill="#476b53" d="
  M 507.16 771.06
  L 508.29 774.70
  A 2.00 1.99 83.0 0 0 510.08 776.11
  Q 512.87 776.29 514.49 774.74
  Q 519.29 776.77 523.05 780.44
  Q 528.33 785.59 534.62 792.16
  Q 537.99 795.67 539.70 799.97
  A 1.61 1.61 0.0 0 1 538.47 802.15
  C 535.40 802.66 533.24 803.29 530.88 805.36
  Q 527.94 807.94 523.82 810.68
  A 22.50 22.44 6.0 0 0 520.48 813.38
  Q 502.14 831.38 484.25 846.19
  C 478.89 850.61 475.24 854.58 469.95 859.20
  Q 465.20 863.36 464.36 869.64
  A 0.83 0.83 0.0 0 1 462.90 870.07
  L 447.92 852.51
  Q 449.64 849.48 452.11 848.01
  L 461.22 836.36
  A 1.56 1.55 -85.9 0 1 461.62 836.01
  Q 463.22 835.04 463.14 834.35
  A 1.45 1.42 62.8 0 1 463.48 833.25
  L 477.10 817.14
  A 0.78 0.69 -14.9 0 0 477.20 816.99
  Q 477.76 815.82 480.17 813.42
  Q 481.38 812.22 484.81 807.54
  Q 487.77 804.06 497.32 793.36
  Q 499.93 790.44 499.22 786.49
  A 1.43 1.39 -75.7 0 0 498.73 785.64
  C 496.27 783.61 494.25 785.63 492.06 787.31
  Q 488.35 790.18 482.32 798.25
  Q 482.15 798.41 482.03 798.52
  A 1.63 0.10 -39.2 0 0 481.48 799.03
  Q 476.84 804.13 472.49 809.47
  Q 466.80 816.47 457.09 830.56
  Q 453.31 836.04 451.72 840.01
  Q 444.80 845.64 445.31 851.01
  Q 442.79 852.16 441.23 849.86
  C 439.11 846.73 441.01 842.32 443.08 839.09
  Q 444.33 837.15 453.72 824.32
  Q 458.77 817.42 461.75 814.11
  C 470.63 804.23 480.03 791.86 486.90 782.61
  C 489.98 778.47 494.06 774.54 497.26 770.07
  A 1.08 1.07 14.7 0 1 498.02 769.63
  Q 502.69 769.18 507.16 771.06
  Z"
/>
<path fill="#eceadc" fill-opacity="0.353" d="
  M 547.96 784.84
  L 540.27 782.06
  L 538.04 779.47
  Q 543.58 780.81 547.96 784.84
  Z"
/>
<path fill="#f0e7db" fill-opacity="0.522" d="
  M 614.31 783.12
  L 611.39 785.84
  Q 610.60 784.00 609.62 783.19
  A 1.39 1.39 0.0 0 0 607.84 783.21
  L 602.97 787.29
  A 0.07 0.06 -41.4 0 1 602.88 787.29
  L 602.72 787.09
  A 0.26 0.26 0.0 0 1 602.75 786.74
  L 605.84 784.02
  L 608.33 782.37
  A 1.41 1.37 27.4 0 1 609.16 782.12
  Q 611.64 782.13 614.31 783.12
  Z"
/>
<circle fill="#edddc8" fill-opacity="0.482" cx="565.77" cy="782.67" r="0.25"/>
<path fill="#edddc8" fill-opacity="0.482" d="
  M 547.96 784.84
  Q 550.66 788.51 551.45 790.33
  Q 555.96 800.79 560.47 811.25
  Q 561.37 813.33 560.51 816.03
  L 554.47 803.17
  A 1.00 0.93 33.5 0 1 554.39 802.84
  Q 554.38 802.09 553.70 801.67
  A 0.92 0.82 86.4 0 1 553.39 801.36
  L 547.23 790.83
  Q 548.36 786.29 543.01 785.08
  Q 541.29 783.78 540.27 782.06
  L 547.96 784.84
  Z"
/>
<path fill="#edddc8" fill-opacity="0.482" d="
  M 611.39 785.84
  L 610.30 786.80
  Q 610.59 786.09 610.60 785.63
  A 0.68 0.68 0.0 0 0 609.80 784.94
  C 606.33 785.58 603.27 788.13 605.86 791.85
  L 597.38 801.53
  L 596.01 802.75
  C 597.25 799.34 595.06 797.81 591.98 799.38
  L 589.62 795.30
  Q 594.65 793.93 596.35 792.06
  Q 600.63 787.36 605.84 784.02
  L 602.75 786.74
  A 0.26 0.26 0.0 0 0 602.72 787.09
  L 602.88 787.29
  A 0.07 0.06 -41.4 0 0 602.97 787.29
  L 607.84 783.21
  A 1.39 1.39 0.0 0 1 609.62 783.19
  Q 610.60 784.00 611.39 785.84
  Z"
/>
<path fill="#eceadc" fill-opacity="0.353" d="
  M 610.30 786.80
  L 605.86 791.85
  C 603.27 788.13 606.33 785.58 609.80 784.94
  A 0.68 0.68 0.0 0 1 610.60 785.63
  Q 610.59 786.09 610.30 786.80
  Z"
/>
<path fill="#cfc5ad" d="
  M 484.81 807.54
  Q 480.54 806.47 482.32 798.25
  Q 488.35 790.18 492.06 787.31
  C 494.25 785.63 496.27 783.61 498.73 785.64
  A 1.43 1.39 -75.7 0 1 499.22 786.49
  Q 499.93 790.44 497.32 793.36
  Q 487.77 804.06 484.81 807.54
  Z"
/>
<path fill="#eceadc" fill-opacity="0.353" d="
  M 547.23 790.83
  L 543.01 785.08
  Q 548.36 786.29 547.23 790.83
  Z"
/>
<path fill="#eceadc" fill-opacity="0.353" d="
  M 596.01 802.75
  Q 595.15 803.94 594.36 803.41
  A 0.51 0.51 0.0 0 1 594.13 803.07
  Q 593.94 802.14 593.21 801.79
  L 591.98 799.38
  C 595.06 797.81 597.25 799.34 596.01 802.75
  Z"
/>
<path fill="#dacfb8" fill-opacity="0.608" d="
  M 482.32 798.25
  Q 480.54 806.47 484.81 807.54
  Q 481.38 812.22 480.17 813.42
  Q 477.76 815.82 477.20 816.99
  A 0.78 0.69 -14.9 0 1 477.10 817.14
  L 463.48 833.25
  A 1.45 1.42 62.8 0 0 463.14 834.35
  Q 463.22 835.04 461.62 836.01
  A 1.56 1.55 -85.9 0 0 461.22 836.36
  L 452.11 848.01
  L 451.72 840.01
  Q 453.31 836.04 457.09 830.56
  Q 466.80 816.47 472.49 809.47
  Q 476.84 804.13 481.48 799.03
  A 1.63 0.10 -39.2 0 1 482.03 798.52
  Q 482.15 798.41 482.32 798.25
  Z"
/>
<path fill="#dacfb8" fill-opacity="0.608" d="
  M 597.38 801.53
  Q 596.41 803.92 600.01 802.17
  Q 599.76 803.19 599.34 803.71
  A 0.87 0.87 0.0 0 0 600.30 805.08
  Q 603.23 804.10 606.17 804.68
  Q 607.11 804.87 607.16 805.76
  Q 607.20 806.37 606.36 807.31
  Q 601.65 808.63 599.77 812.53
  A 0.87 0.86 48.8 0 1 598.17 812.42
  Q 597.51 810.43 596.84 808.36
  C 596.12 806.15 594.14 804.30 593.21 801.79
  Q 593.94 802.14 594.13 803.07
  A 0.51 0.51 0.0 0 0 594.36 803.41
  Q 595.15 803.94 596.01 802.75
  L 597.38 801.53
  Z
  M 598.35 804.66
  L 599.07 803.42
  A 0.26 0.26 0.0 0 0 598.73 803.06
  C 595.98 804.45 596.07 806.95 598.38 808.70
  A 0.58 0.57 -48.6 0 0 599.14 808.65
  L 601.35 806.44
  A 0.22 0.21 10.9 0 0 601.11 806.09
  L 597.97 807.45
  A 0.24 0.23 74.9 0 1 597.65 807.26
  L 597.61 807.00
  A 0.15 0.15 0.0 0 1 597.74 806.83
  L 605.88 805.50
  A 0.06 0.06 0.0 0 0 605.93 805.44
  L 605.92 805.31
  A 0.18 0.18 0.0 0 0 605.74 805.15
  L 598.77 805.35
  A 0.46 0.46 0.0 0 1 598.35 804.66
  Z"
/>
<path fill="#edddc8" fill-opacity="0.482" d="
  M 598.77 805.35
  L 605.74 805.15
  A 0.18 0.18 0.0 0 1 605.92 805.31
  L 605.93 805.44
  A 0.06 0.06 0.0 0 1 605.88 805.50
  L 597.74 806.83
  A 0.15 0.15 0.0 0 0 597.61 807.00
  L 597.65 807.26
  A 0.24 0.23 74.9 0 0 597.97 807.45
  L 601.11 806.09
  A 0.22 0.21 10.9 0 1 601.35 806.44
  L 599.14 808.65
  A 0.58 0.57 -48.6 0 1 598.38 808.70
  C 596.07 806.95 595.98 804.45 598.73 803.06
  A 0.26 0.26 0.0 0 1 599.07 803.42
  L 598.35 804.66
  A 0.46 0.46 0.0 0 0 598.77 805.35
  Z"
/>
<ellipse fill="#dacfb8" fill-opacity="0.608" cx="0.00" cy="0.00" transform="translate(576.34,806.12) rotate(-60.6)" rx="0.52" ry="0.15"/>
<path fill="#476b53" d="
  M 572.50 815.82
  Q 572.18 816.02 571.50 816.03
  Q 571.95 815.78 572.50 815.82
  Z"
/>
<path fill="#476b53" d="
  M 415.82 897.64
  Q 426.69 884.84 436.89 871.64
  Q 437.61 870.71 438.32 869.40
  A 1.24 1.22 -71.6 0 0 437.43 867.60
  Q 436.14 867.40 435.22 868.46
  Q 427.69 877.17 420.83 886.55
  Q 419.64 882.49 422.13 878.61
  Q 425.94 872.70 428.20 870.71
  Q 431.92 867.44 438.64 859.92
  A 0.98 0.98 0.0 0 1 440.02 859.84
  C 445.69 864.88 449.41 868.06 453.08 872.66
  A 0.82 0.81 47.9 0 1 453.03 873.73
  Q 438.66 888.33 423.52 901.32
  A 1.11 1.10 -60.4 0 1 422.63 901.57
  Q 418.00 900.87 415.82 897.64
  Z"
/>
<path fill="#476b53" d="
  M 407.58 905.10
  A 0.72 0.71 34.7 0 1 408.66 904.91
  L 411.21 907.08
  A 0.60 0.60 0.0 0 1 411.13 908.06
  L 405.66 911.22
  A 0.75 0.75 0.0 0 1 404.64 910.19
  L 407.58 905.10
  Z"
/>
</svg>
