<?xml version="1.0" encoding="UTF-8" standalone="no"?>
<!DOCTYPE svg PUBLIC "-//W3C//DTD SVG 1.1//EN" "http://www.w3.org/Graphics/SVG/1.1/DTD/svg11.dtd">
<svg xmlns="http://www.w3.org/2000/svg" version="1.1" viewBox="0.00 0.00 357.00 524.00">
<path stroke="#111d1a" stroke-width="2.00" fill="none" stroke-linecap="butt" vector-effect="non-scaling-stroke" d="
  M 98.86 396.92
  Q 97.10 396.73 97.46 396.03"
/>
<path fill="#0e271d" d="
  M 26.92 96.33
  C 28.35 90.82 32.26 86.24 37.97 85.11
  C 40.46 84.62 42.68 83.58 45.38 83.08
  Q 56.76 80.96 65.26 79.84
  Q 95.08 75.92 135.82 70.88
  C 152.44 68.82 168.62 66.00 183.51 63.83
  Q 212.54 59.59 244.26 56.42
  C 262.79 54.56 267.84 68.58 270.54 83.44
  C 273.67 100.70 277.14 126.29 280.86 147.63
  C 283.30 161.62 285.82 176.26 287.42 190.27
  C 288.54 200.11 290.18 208.18 291.00 216.93
  Q 293.85 247.73 300.82 291.03
  Q 304.04 311.03 307.36 338.69
  Q 309.73 358.49 311.98 370.52
  C 314.84 385.77 317.89 401.61 319.33 417.44
  Q 320.00 424.78 316.92 429.03
  A 1.89 1.85 -21.9 0 0 316.59 429.78
  L 316.16 431.78
  A 2.66 2.59 -19.2 0 1 315.58 432.94
  C 310.32 438.96 302.41 439.80 294.25 441.03
  Q 292.08 441.36 259.09 444.96
  Q 243.28 446.69 223.96 449.37
  C 179.65 455.53 146.67 460.53 104.52 466.14
  C 94.56 467.46 87.94 468.45 80.83 464.78
  Q 77.35 462.99 75.92 458.48
  A 4.86 4.83 -78.0 0 0 74.54 456.34
  Q 72.89 454.88 72.69 453.80
  C 68.56 431.76 65.80 405.09 62.07 382.45
  Q 59.07 364.29 55.12 336.59
  C 51.98 314.51 46.54 283.49 43.51 259.25
  Q 43.29 257.45 35.59 190.07
  Q 34.96 184.59 30.87 156.43
  Q 27.18 130.98 25.02 107.26
  Q 24.62 102.87 27.22 100.55
  A 1.56 1.56 0.0 0 0 27.68 99.84
  Q 28.05 98.69 27.11 97.38
  A 1.26 1.26 0.0 0 1 26.92 96.33
  Z
  M 255.66 99.92
  A 0.41 0.41 0.0 0 1 255.75 100.70
  C 252.65 101.93 248.45 101.96 245.10 102.84
  Q 239.91 104.19 229.23 105.69
  Q 200.47 109.74 139.28 118.10
  Q 109.28 122.20 86.01 125.76
  Q 71.27 128.01 60.39 129.35
  Q 49.07 130.74 34.67 132.70
  A 1.32 1.32 0.0 0 0 33.54 134.20
  C 35.76 149.82 38.11 172.89 39.78 185.60
  Q 54.59 298.45 59.36 330.74
  Q 64.40 364.91 66.88 382.50
  C 70.18 405.91 73.41 422.54 78.44 451.55
  C 78.99 454.72 77.78 457.03 81.36 459.23
  C 85.84 461.99 90.68 462.17 96.38 461.40
  C 113.96 459.02 128.50 456.60 143.25 454.74
  Q 167.33 451.72 172.70 450.91
  C 193.32 447.84 213.99 445.77 234.99 442.67
  Q 264.80 438.28 295.49 434.46
  Q 301.67 433.69 305.28 432.76
  Q 308.69 431.88 312.30 429.15
  A 3.72 3.70 -17.7 0 0 313.75 426.36
  C 313.88 423.30 314.26 421.52 313.85 418.20
  Q 311.45 398.36 305.56 362.23
  C 302.52 343.60 299.82 320.95 297.25 303.25
  Q 294.91 287.19 288.98 244.58
  Q 288.18 238.78 287.39 231.85
  C 286.22 221.46 285.38 217.58 285.08 209.37
  Q 284.94 205.63 283.66 199.73
  Q 282.63 194.98 281.57 188.25
  Q 277.18 160.39 277.02 159.31
  C 274.42 141.88 270.50 122.02 268.05 103.82
  C 266.94 95.54 265.54 89.28 264.00 79.84
  C 262.63 71.41 258.67 61.18 247.99 62.02
  Q 240.52 62.61 201.53 67.82
  Q 185.25 70.00 155.99 72.95
  Q 146.25 73.93 119.66 78.41
  C 94.92 82.58 66.90 85.56 41.73 89.49
  C 40.12 89.74 37.71 90.91 35.38 91.74
  C 32.65 92.72 31.42 96.59 30.31 99.05
  A 3.23 3.14 -30.1 0 0 30.07 99.90
  Q 29.72 102.38 30.16 104.88
  Q 30.81 108.65 31.18 112.46
  Q 31.96 120.62 33.09 130.02
  A 0.91 0.90 -10.8 0 0 34.21 130.78
  Q 41.99 128.79 49.51 127.93
  C 62.16 126.48 80.41 123.96 110.01 119.57
  Q 144.66 114.43 242.42 100.98
  C 245.41 100.57 249.30 100.37 252.75 99.89
  Q 254.17 99.70 255.66 99.92
  Z"
/>
<path fill="#0e271d" d="
  M 104.2003 95.4602
  A 5.76 5.57 -89.5 0 1 109.7198 101.2686
  A 5.76 5.57 -89.5 0 1 104.0997 106.9798
  A 5.76 5.57 -89.5 0 1 98.5802 101.1714
  A 5.76 5.57 -89.5 0 1 104.2003 95.4602
  Z
  M 104.8597 98.8310
  A 2.58 2.33 -70.3 0 0 101.7964 100.4746
  A 2.58 2.33 -70.3 0 0 103.1203 103.6890
  A 2.58 2.33 -70.3 0 0 106.1836 102.0454
  A 2.58 2.33 -70.3 0 0 104.8597 98.8310
  Z"
/>
<path fill="#0e271d" d="
  M 84.65 104.72
  A 5.70 5.70 0.0 0 1 78.95 110.42
  A 5.70 5.70 0.0 0 1 73.25 104.72
  A 5.70 5.70 0.0 0 1 78.95 99.02
  A 5.70 5.70 0.0 0 1 84.65 104.72
  Z
  M 81.13 104.78
  A 2.10 2.10 0.0 0 0 79.03 102.68
  A 2.10 2.10 0.0 0 0 76.93 104.78
  A 2.10 2.10 0.0 0 0 79.03 106.88
  A 2.10 2.10 0.0 0 0 81.13 104.78
  Z"
/>
<path fill="#0e271d" d="
  M 57.1710 103.0681
  A 6.38 5.97 -60.3 0 1 59.1957 111.5679
  A 6.38 5.97 -60.3 0 1 50.8490 114.1519
  A 6.38 5.97 -60.3 0 1 48.8243 105.6521
  A 6.38 5.97 -60.3 0 1 57.1710 103.0681
  Z
  M 55.4648 106.4456
  A 2.70 2.25 -55.1 0 0 52.0747 107.3727
  A 2.70 2.25 -55.1 0 0 52.3752 110.8744
  A 2.70 2.25 -55.1 0 0 55.7653 109.9473
  A 2.70 2.25 -55.1 0 0 55.4648 106.4456
  Z"
/>
<rect fill="#0e271d" x="-32.33" y="-0.71" transform="translate(195.73,135.79) rotate(-7.7)" width="64.66" height="1.42" rx="0.26"/>
<rect fill="#0e271d" x="-29.82" y="-1.80" transform="translate(94.45,150.70) rotate(-8.1)" width="59.64" height="3.60" rx="1.76"/>
<path fill="#0e271d" d="
  M 67.82 182.37
  A 0.59 0.57 78.5 0 1 68.22 181.75
  Q 72.68 180.35 75.50 179.98
  Q 90.15 178.05 104.60 175.54
  Q 108.61 174.85 112.57 174.46
  C 116.08 174.12 118.90 173.46 123.15 172.86
  Q 151.28 168.90 196.34 162.23
  Q 206.33 160.75 215.23 159.71
  Q 231.30 157.82 234.16 157.36
  C 239.93 156.44 246.42 156.41 252.50 155.33
  A 1.09 1.09 0.0 0 1 253.75 156.17
  Q 254.75 160.92 255.21 164.00
  Q 256.05 169.58 258.55 190.95
  Q 260.70 209.22 263.68 232.01
  C 265.42 245.31 265.95 257.72 267.76 270.46
  C 268.01 272.25 266.87 273.84 268.17 275.43
  A 1.46 1.42 -18.9 0 1 266.99 277.75
  Q 265.92 277.75 264.07 277.53
  A 3.77 3.72 40.1 0 0 262.54 277.65
  C 257.20 279.24 252.09 279.34 242.48 280.74
  C 222.79 283.60 203.40 286.05 178.46 289.57
  C 156.60 292.66 134.04 294.99 112.62 297.85
  C 108.15 298.44 103.07 297.99 99.08 298.72
  Q 94.96 299.47 88.86 299.39
  A 4.29 4.16 39.5 0 0 87.99 299.46
  L 82.49 300.49
  A 1.07 1.06 0.7 0 1 81.25 299.22
  L 81.57 297.73
  A 1.10 0.93 49.7 0 0 81.57 297.38
  Q 80.03 288.31 78.60 276.93
  Q 73.25 234.35 72.50 227.00
  Q 69.91 201.60 67.82 182.37
  Z
  M 265.89 274.12
  C 265.95 273.52 265.26 272.60 265.13 271.62
  Q 260.43 235.74 259.04 223.50
  Q 253.86 177.63 253.47 174.00
  Q 252.75 167.37 252.68 159.18
  A 0.87 0.86 86.5 0 0 251.71 158.32
  Q 201.87 164.54 145.43 172.96
  Q 112.15 177.92 86.23 181.15
  Q 77.98 182.18 70.38 182.55
  A 0.68 0.67 81.6 0 0 69.76 183.39
  C 71.61 190.41 72.18 198.58 73.08 205.07
  Q 79.63 252.12 83.81 296.98
  A 1.03 1.03 0.0 0 0 85.08 297.89
  Q 89.00 296.94 93.29 296.47
  Q 122.89 293.22 128.99 292.47
  Q 160.92 288.53 239.01 277.62
  Q 252.08 275.80 264.58 275.13
  Q 265.80 275.06 265.89 274.12
  Z"
/>
<path fill="#131316" d="
  M 74.10 184.79
  Q 80.79 187.68 90.35 192.14
  C 93.63 193.67 97.93 194.90 101.63 196.65
  Q 140.89 215.23 165.03 226.29
  A 1.32 1.32 0.0 0 0 166.38 226.14
  Q 193.99 204.80 203.92 196.91
  Q 214.40 188.60 234.21 172.37
  C 239.17 168.31 243.51 165.79 247.99 161.63
  A 0.55 0.55 0.0 0 1 248.84 161.77
  Q 249.19 162.38 248.50 163.02
  Q 240.62 170.38 232.87 176.87
  Q 213.37 193.19 173.35 224.36
  Q 172.22 225.24 169.69 227.32
  A 0.89 0.89 0.0 0 0 169.89 228.82
  Q 195.80 240.60 226.33 255.15
  C 231.02 257.39 236.01 259.15 240.31 261.18
  A 14.52 14.50 -14.1 0 1 242.80 262.67
  Q 244.80 264.14 246.00 265.01
  Q 249.26 267.39 260.60 271.14
  A 0.31 0.31 0.0 0 1 260.80 271.50
  L 260.74 271.80
  A 0.21 0.21 0.0 0 1 260.47 271.96
  C 258.97 271.53 257.55 270.45 256.01 269.93
  Q 251.53 268.40 246.10 265.62
  C 243.38 264.23 240.28 263.30 237.13 262.13
  Q 232.57 260.43 214.23 252.24
  Q 192.76 242.66 167.51 230.38
  A 1.83 1.82 -50.8 0 0 165.59 230.58
  Q 143.16 248.14 137.05 253.14
  Q 130.70 258.31 121.63 265.55
  Q 109.22 275.46 106.43 278.20
  Q 100.62 283.90 98.40 285.14
  Q 97.64 285.56 95.29 288.04
  A 11.06 10.99 4.6 0 1 93.41 289.63
  Q 90.51 291.57 86.76 295.04
  A 1.05 1.04 40.3 0 1 85.47 295.14
  L 85.44 295.13
  A 0.62 0.62 0.0 0 1 85.35 294.16
  Q 95.84 284.01 96.05 283.80
  Q 101.01 278.82 124.88 259.38
  Q 143.89 243.89 162.98 229.27
  A 0.65 0.65 0.0 0 0 162.86 228.16
  Q 133.96 215.09 101.57 199.42
  Q 96.94 197.18 92.86 196.27
  A 1.76 1.74 70.6 0 1 92.14 195.92
  L 89.79 193.97
  A 2.16 1.74 -6.1 0 0 89.51 193.79
  C 82.79 190.57 77.79 188.57 73.67 185.54
  A 0.44 0.44 0.0 0 1 74.10 184.79
  Z"
/>
<path fill="#131316" d="
  M 170.24 327.61
  Q 170.25 327.41 170.35 327.40
  Q 173.02 327.03 186.14 324.32
  Q 194.21 322.66 201.95 321.49
  Q 226.88 317.70 237.14 316.71
  Q 241.80 316.26 245.84 316.45
  A 0.28 0.27 35.5 0 1 245.93 316.98
  Q 242.42 318.39 238.24 318.95
  Q 234.88 319.39 195.47 324.87
  Q 182.50 326.68 170.29 327.65
  A 0.04 0.04 0.0 0 1 170.24 327.61
  Z"
/>
<path fill="#0e271d" d="
  M 154.39 319.91
  A 0.73 0.73 0.0 0 1 153.75 320.73
  L 94.68 328.19
  A 8.07 1.01 -7.2 0 1 86.55 328.20
  L 86.37 326.75
  A 8.07 1.01 -7.2 0 1 94.25 324.73
  L 153.32 317.27
  A 0.73 0.73 0.0 0 1 154.13 317.91
  L 154.39 319.91
  Z"
/>
<rect fill="#131316" x="-57.78" y="-1.31" transform="translate(145.74,339.49) rotate(-7.9)" width="115.56" height="2.62" rx="1.28"/>
<path fill="#131316" d="
  M 166.44 360.07
  Q 166.19 360.39 165.65 360.61
  Q 162.88 361.76 156.80 362.81
  C 137.73 366.11 115.64 369.14 93.68 370.75
  A 1.66 1.65 -5.3 0 1 91.92 369.29
  L 91.87 368.94
  A 1.17 1.17 0.0 0 1 92.93 367.64
  C 113.98 365.89 134.97 362.82 158.48 359.15
  Q 162.53 358.52 165.95 358.88
  A 0.73 0.73 0.0 0 1 166.44 360.07
  Z"
/>
<path fill="#0e271d" d="
  M 237.14 380.20
  Q 238.35 385.56 238.88 389.51
  Q 240.45 401.25 242.17 413.84
  A 0.67 0.66 -7.2 0 0 242.90 414.40
  L 277.84 410.27
  A 0.70 0.70 0.0 0 0 278.15 408.99
  L 260.48 396.94
  A 1.08 1.08 0.0 0 0 259.06 397.12
  L 244.65 413.44
  A 0.62 0.61 62.5 0 1 243.58 413.10
  L 243.51 412.53
  A 1.23 1.22 61.7 0 1 243.78 411.61
  L 256.81 395.98
  A 1.22 1.22 0.0 0 0 256.56 394.19
  L 240.55 383.28
  A 0.67 0.66 -55.8 0 1 240.38 382.36
  L 240.66 381.94
  A 0.61 0.61 0.0 0 1 241.59 381.86
  Q 244.57 384.87 247.95 385.27
  A 0.77 0.69 62.3 0 1 248.27 385.39
  L 258.72 392.52
  A 0.50 0.50 0.0 0 0 259.35 392.46
  L 275.01 376.80
  A 0.43 0.43 0.0 0 1 275.74 377.05
  L 275.81 377.63
  A 0.77 0.74 63.0 0 1 275.63 378.22
  L 262.73 393.25
  A 1.18 1.18 0.0 0 0 262.92 394.97
  L 279.89 407.74
  A 0.55 0.54 -77.6 0 0 280.75 407.19
  Q 279.88 403.12 279.68 401.27
  Q 278.23 387.33 277.61 375.33
  A 0.58 0.57 -4.7 0 0 276.97 374.79
  L 237.94 379.40
  A 0.21 0.21 0.0 0 1 237.74 379.08
  Q 239.13 376.95 241.56 376.51
  Q 253.52 374.32 267.24 372.68
  C 272.41 372.06 275.45 371.60 279.20 373.30
  A 1.39 1.38 -88.0 0 1 279.93 374.09
  Q 280.91 376.67 281.14 379.68
  Q 281.65 386.40 284.00 405.51
  Q 284.52 409.82 284.44 410.10
  A 5.04 2.86 -68.9 0 0 284.27 410.78
  Q 283.93 412.53 281.71 412.88
  Q 259.55 416.36 241.96 418.27
  A 2.59 2.58 -11.6 0 1 239.22 416.47
  Q 238.55 414.29 238.21 411.50
  Q 236.58 397.75 235.19 380.93
  A 1.09 1.08 -5.5 0 1 236.15 379.77
  L 236.48 379.73
  A 0.61 0.60 80.0 0 1 237.14 380.20
  Z"
/>
<path fill="#131316" d="
  M 168.18 387.28
  L 168.35 387.00
  A 2.74 2.74 0.0 0 1 170.13 385.75
  Q 185.85 382.55 203.15 380.65
  Q 205.02 380.44 207.55 380.65
  C 210.30 380.88 210.97 381.49 211.29 384.20
  Q 213.25 400.95 215.40 417.23
  Q 215.65 419.13 213.82 421.09
  A 1.82 1.77 12.7 0 1 212.99 421.60
  Q 209.38 422.63 207.45 422.91
  Q 192.85 424.99 178.18 426.62
  Q 174.26 427.06 171.83 427.04
  A 2.29 2.29 0.0 0 1 169.59 425.17
  Q 166.76 410.09 165.52 390.24
  A 1.40 1.39 -5.4 0 1 166.75 388.76
  L 167.05 388.72
  A 0.64 0.63 -8.4 0 1 167.74 389.23
  Q 169.32 397.57 171.06 411.70
  C 171.48 415.09 172.72 418.46 172.30 421.84
  A 1.29 1.29 0.0 0 0 173.74 423.28
  L 210.20 418.98
  A 1.44 1.44 0.0 0 0 211.46 417.41
  L 208.31 385.31
  A 1.62 1.62 0.0 0 0 206.51 383.86
  L 168.83 388.31
  A 0.68 0.68 0.0 0 1 168.18 387.28
  Z"
/>
<path fill="#131316" d="
  M 209.93 415.94
  A 0.84 0.76 -45.9 0 1 209.89 417.10
  Q 209.48 417.51 208.78 417.41
  Q 208.13 417.31 207.67 417.01
  Q 200.68 412.48 191.55 406.01
  A 0.82 0.81 39.9 0 0 190.51 406.10
  L 174.75 421.86
  A 0.38 0.38 0.0 0 1 174.15 421.77
  L 173.98 421.46
  A 1.09 1.07 -39.0 0 1 174.12 420.24
  L 179.35 414.15
  A 0.66 0.55 -12.9 0 0 179.45 414.02
  Q 182.11 409.55 187.12 405.41
  A 1.55 1.55 0.0 0 0 187.01 402.94
  L 171.12 392.10
  A 0.94 0.94 0.0 0 1 170.85 390.82
  L 171.10 390.42
  A 0.56 0.56 0.0 0 1 171.87 390.23
  L 189.20 400.85
  A 1.28 1.27 38.3 0 0 190.77 400.67
  L 205.71 385.72
  A 0.92 0.92 0.0 0 1 206.83 385.59
  L 207.13 385.78
  A 0.56 0.56 0.0 0 1 207.26 386.62
  L 193.52 402.18
  A 1.39 1.38 40.0 0 0 193.70 404.18
  Q 198.68 408.13 207.90 414.17
  Q 208.37 414.48 209.93 415.94
  Z"
/>
<path fill="#131316" d="
  M 98.86 396.92
  Q 97.10 396.73 97.46 396.03
  Q 103.13 393.54 108.81 392.81
  Q 119.57 391.43 130.57 389.90
  Q 133.74 389.45 136.99 389.88
  A 1.04 1.04 0.0 0 1 136.99 391.94
  L 98.86 396.92
  Z"
/>
<path fill="#0e271d" d="
  M 97.46 396.03
  Q 97.10 396.73 98.86 396.92
  Q 97.85 396.72 97.34 397.37
  A 0.70 0.69 54.0 0 0 97.24 398.03
  C 98.18 400.49 98.45 402.58 99.12 407.90
  Q 99.67 412.22 100.34 415.79
  Q 101.67 422.80 102.42 431.46
  A 0.92 0.91 84.5 0 0 103.43 432.30
  Q 116.89 430.86 138.59 427.88
  Q 139.69 427.73 140.25 427.01
  A 0.40 0.39 -65.1 0 0 140.02 426.38
  L 137.16 425.77
  A 2.75 2.63 67.1 0 1 136.16 425.34
  L 120.99 415.00
  A 1.04 1.04 0.0 0 0 119.63 415.17
  L 105.38 431.32
  A 0.87 0.87 0.0 0 1 103.86 430.83
  L 103.82 430.40
  A 1.25 1.22 -28.9 0 1 104.10 429.47
  L 117.37 413.56
  A 0.78 0.78 0.0 0 0 117.23 412.43
  L 100.97 400.67
  A 0.74 0.57 10.9 0 1 100.81 400.49
  Q 100.40 399.84 100.39 399.81
  A 0.66 0.66 0.0 0 1 101.50 399.17
  C 104.04 401.87 107.31 402.28 110.01 404.11
  Q 116.18 408.28 118.68 410.10
  A 1.45 1.45 0.0 0 0 120.63 409.89
  L 133.65 395.15
  A 1.60 1.59 -70.9 0 1 134.75 394.61
  L 135.16 394.58
  A 0.50 0.49 16.6 0 1 135.59 395.37
  L 123.23 411.80
  A 0.94 0.94 0.0 0 0 123.43 413.12
  Q 130.14 418.04 138.46 423.61
  Q 139.10 424.04 140.42 425.58
  A 0.54 0.54 0.0 0 0 141.36 425.18
  L 138.21 393.11
  A 0.81 0.80 9.2 0 1 139.34 392.30
  L 139.42 392.34
  A 2.37 2.36 5.0 0 1 140.82 394.00
  C 142.79 402.42 143.26 411.28 144.63 420.01
  C 145.42 425.09 146.56 428.06 142.28 430.71
  A 2.50 2.44 22.5 0 1 141.48 431.03
  C 128.35 433.65 114.73 435.20 102.29 436.22
  A 2.72 2.72 0.0 0 1 99.38 433.92
  Q 97.71 423.16 95.89 406.96
  C 95.69 405.17 95.77 402.71 95.06 400.42
  Q 94.14 397.43 97.46 396.03
  Z"
/>
</svg>
