<?xml version="1.0" encoding="UTF-8" standalone="no"?>
<!DOCTYPE svg PUBLIC "-//W3C//DTD SVG 1.1//EN" "http://www.w3.org/Graphics/SVG/1.1/DTD/svg11.dtd">
<svg xmlns="http://www.w3.org/2000/svg" version="1.1" viewBox="0.00 0.00 296.00 257.00">
<path fill="#0b170f" d="
  M 95.74 26.13
  A 1.14 1.14 0.0 0 1 95.13 23.96
  Q 100.37 21.52 106.41 22.32
  C 111.73 23.03 116.60 25.88 115.67 31.81
  C 114.94 36.46 110.89 40.62 106.90 43.04
  A 0.78 0.77 41.7 0 0 106.98 44.40
  Q 115.64 48.50 114.07 56.81
  C 112.15 67.00 96.92 74.78 89.36 65.29
  A 1.83 1.72 -6.6 0 0 88.62 64.74
  Q 86.04 63.73 87.07 60.82
  Q 92.51 45.49 97.84 27.06
  A 0.84 0.84 0.0 0 0 96.94 25.99
  L 95.74 26.13
  Z
  M 96.58 42.52
  A 0.49 0.49 0.0 0 0 97.16 43.15
  Q 103.58 41.54 108.34 37.34
  C 115.68 30.86 111.51 24.24 102.55 25.46
  A 0.61 0.60 -84.4 0 0 102.06 25.87
  L 96.58 42.52
  Z
  M 96.40 46.25
  A 0.70 0.69 17.9 0 0 95.51 46.70
  L 90.88 62.20
  A 0.54 0.52 34.0 0 0 90.99 62.71
  Q 95.74 67.92 101.96 65.52
  Q 107.08 63.55 109.39 59.19
  C 112.87 52.62 109.40 48.67 103.22 46.65
  C 101.13 45.97 98.85 47.09 96.40 46.25
  Z"
/>
<path fill="#0b170f" d="
  M 152.11 33.91
  L 152.15 33.94
  A 1.98 1.98 0.0 0 1 152.82 36.38
  L 150.30 41.98
  A 0.84 0.84 0.0 0 0 151.14 43.16
  Q 153.41 42.95 155.84 43.59
  A 1.34 1.34 0.0 0 1 155.65 46.21
  L 148.49 47.00
  A 0.45 0.44 7.9 0 0 148.13 47.27
  Q 145.46 53.76 144.43 60.49
  Q 144.12 62.55 144.63 64.11
  A 1.61 1.61 0.0 0 0 146.40 65.21
  Q 150.07 64.64 152.79 62.64
  A 1.20 1.08 -25.2 0 1 154.63 63.19
  C 155.42 66.97 144.11 71.67 141.42 65.39
  C 139.37 60.58 142.35 52.54 144.33 47.83
  A 0.85 0.85 0.0 0 0 143.54 46.65
  Q 141.66 46.66 141.23 46.51
  A 1.44 1.44 0.0 0 1 141.50 43.69
  L 145.45 43.32
  A 0.82 0.80 8.9 0 0 146.10 42.86
  L 150.04 34.39
  A 1.35 1.34 -58.0 0 1 152.11 33.91
  Z"
/>
<path fill="#0b170f" d="
  M 170.28 44.32
  Q 172.77 44.18 174.75 44.45
  A 1.86 1.65 12.9 0 1 176.34 46.68
  Q 176.04 47.48 174.02 47.67
  Q 172.69 47.81 168.87 47.67
  A 1.72 1.71 -77.9 0 0 167.20 48.76
  C 165.82 52.28 162.64 61.33 163.82 64.79
  A 2.17 1.82 -14.0 0 0 166.17 65.94
  Q 169.10 65.41 171.66 63.25
  A 1.29 1.21 -35.6 0 1 173.55 63.50
  Q 174.33 64.81 173.56 65.57
  Q 169.49 69.56 165.61 69.33
  C 155.70 68.75 161.85 53.67 163.67 48.89
  A 0.65 0.65 0.0 0 0 163.00 48.02
  Q 161.72 48.12 160.12 47.67
  A 1.30 1.28 -74.0 0 1 159.24 46.07
  Q 159.59 44.88 160.73 44.82
  Q 163.85 44.62 164.35 44.59
  A 1.20 1.18 9.8 0 0 165.36 43.89
  L 169.12 35.54
  A 1.82 1.82 0.0 0 1 171.52 34.64
  L 171.76 34.75
  A 1.41 1.40 24.2 0 1 172.47 36.60
  L 169.50 43.19
  A 0.80 0.80 0.0 0 0 170.28 44.32
  Z"
/>
<path fill="#0b170f" d="
  M 122.87 55.42
  Q 122.50 57.63 122.93 59.84
  C 123.96 65.08 129.86 63.88 132.59 60.95
  A 1.21 1.09 -34.8 0 1 134.54 61.20
  C 135.45 63.73 130.84 66.06 128.98 66.48
  C 122.59 67.95 120.04 63.79 118.99 58.22
  A 1.60 1.45 -47.9 0 1 118.99 57.67
  L 120.03 52.27
  A 0.91 0.76 70.9 0 1 120.14 51.98
  C 123.14 46.63 128.27 39.71 134.45 43.99
  C 137.51 46.12 137.18 49.52 134.93 52.14
  Q 130.70 57.07 123.81 54.85
  A 0.73 0.73 0.0 0 0 122.87 55.42
  Z
  M 132.8819 46.8421
  A 4.61 2.48 -34.0 0 0 127.6732 47.3640
  A 4.61 2.48 -34.0 0 0 125.2381 51.9979
  A 4.61 2.48 -34.0 0 0 130.4468 51.4760
  A 4.61 2.48 -34.0 0 0 132.8819 46.8421
  Z"
/>
<path fill="#0b170f" d="
  M 182.16 58.37
  Q 181.75 60.15 181.84 62.70
  C 181.98 66.57 185.34 67.74 188.44 65.90
  Q 191.46 64.10 191.51 64.07
  A 1.00 1.00 0.0 0 1 192.98 64.73
  Q 193.24 66.00 192.24 66.98
  C 187.71 71.45 179.70 70.98 178.59 63.97
  Q 177.07 54.33 184.49 48.25
  C 187.29 45.95 190.59 44.98 193.63 47.40
  C 196.63 49.80 195.09 54.62 192.46 56.81
  Q 188.42 60.16 183.33 57.80
  A 0.84 0.83 19.0 0 0 182.16 58.37
  Z
  M 191.9326 50.1509
  A 4.49 2.30 -32.6 0 0 186.9108 50.6324
  A 4.49 2.30 -32.6 0 0 184.3674 54.9891
  A 4.49 2.30 -32.6 0 0 189.3892 54.5076
  A 4.49 2.30 -32.6 0 0 191.9326 50.1509
  Z"
/>
<path fill="#0b170f" d="
  M 204.82 53.95
  A 0.42 0.42 0.0 0 0 205.54 54.34
  C 208.06 51.63 211.76 49.10 215.48 50.27
  Q 217.26 50.83 217.43 52.56
  A 1.54 1.42 -78.0 0 1 215.26 54.10
  C 213.86 53.21 212.98 52.82 211.26 53.91
  C 205.89 57.32 203.09 63.09 201.51 69.15
  A 1.76 1.76 0.0 0 1 199.41 70.42
  L 199.35 70.40
  A 1.74 1.73 12.4 0 1 198.05 68.37
  Q 199.76 59.74 202.14 49.67
  Q 202.43 48.45 203.04 47.87
  A 1.41 1.38 -26.0 0 1 205.40 48.65
  Q 205.66 50.60 204.82 53.95
  Z"
/>
<path fill="#0b170f" d="
  M 128.30 127.31
  A 0.59 0.59 0.0 0 0 127.20 127.39
  L 124.52 136.06
  A 1.36 1.35 -63.1 0 1 122.42 136.75
  L 122.18 136.60
  A 2.13 2.13 0.0 0 1 121.29 134.12
  L 133.64 96.62
  A 1.30 1.30 0.0 0 1 135.46 95.86
  L 135.75 96.02
  A 2.13 2.12 -66.4 0 1 136.73 98.54
  L 129.94 119.17
  A 0.52 0.52 0.0 0 0 130.70 119.78
  L 138.71 115.16
  A 1.89 1.88 -30.0 0 1 141.29 115.85
  L 141.52 116.24
  A 1.05 1.05 0.0 0 1 141.14 117.67
  L 130.72 123.68
  A 0.58 0.57 60.5 0 0 130.51 124.46
  L 134.68 131.67
  A 2.91 2.91 0.0 0 0 137.52 133.11
  L 139.61 132.88
  A 1.23 1.23 0.0 0 1 140.78 134.78
  Q 139.45 136.81 135.91 136.30
  A 2.09 2.07 -21.4 0 1 134.91 135.87
  Q 130.85 132.63 128.30 127.31
  Z"
/>
<ellipse fill="#0b170f" cx="0.00" cy="0.00" transform="translate(51.33,101.97) rotate(-78.7)" rx="3.06" ry="2.08"/>
<path fill="#0b170f" d="
  M 184.11 123.69
  L 183.27 123.78
  A 0.76 0.75 -8.6 0 1 182.44 123.17
  C 182.08 121.19 183.94 120.42 185.57 120.27
  A 0.91 0.90 -84.5 0 0 186.37 119.61
  C 188.21 113.02 191.47 98.98 199.47 99.07
  C 203.34 99.11 205.37 104.12 203.46 106.99
  A 1.44 1.44 0.0 0 1 200.83 106.35
  L 200.47 103.10
  A 0.80 0.79 -84.2 0 0 199.94 102.44
  C 195.16 100.88 191.09 115.00 189.69 119.09
  A 0.49 0.49 0.0 0 0 190.21 119.74
  L 195.18 119.19
  A 1.92 1.92 0.0 0 1 197.30 120.89
  L 197.35 121.29
  A 1.13 1.13 0.0 0 1 196.35 122.53
  L 189.22 123.32
  A 1.31 1.31 0.0 0 0 188.08 124.35
  L 182.59 148.98
  A 1.55 1.55 0.0 0 1 180.73 150.15
  L 180.71 150.14
  A 1.73 1.72 12.5 0 1 179.39 148.08
  L 184.72 124.38
  A 0.57 0.56 -86.7 0 0 184.11 123.69
  Z"
/>
<path fill="#0b170f" d="
  M 90.77 110.04
  Q 93.29 109.93 95.28 110.23
  A 1.88 1.66 13.6 0 1 96.86 112.50
  Q 96.55 113.30 94.50 113.47
  Q 93.16 113.59 89.30 113.40
  A 1.74 1.73 -77.2 0 0 87.60 114.48
  C 86.16 118.02 82.83 127.12 83.98 130.63
  A 2.19 1.84 -13.3 0 0 86.34 131.82
  Q 89.31 131.32 91.92 129.17
  A 1.30 1.22 -34.9 0 1 93.82 129.45
  Q 94.60 130.78 93.81 131.54
  Q 89.65 135.52 85.73 135.24
  C 75.73 134.52 82.13 119.37 84.03 114.57
  A 0.66 0.66 0.0 0 0 83.37 113.68
  Q 82.07 113.77 80.46 113.29
  A 1.31 1.29 -73.3 0 1 79.60 111.66
  Q 79.96 110.47 81.12 110.42
  Q 84.27 110.26 84.78 110.24
  A 1.21 1.20 10.5 0 0 85.81 109.54
  L 89.71 101.16
  A 1.83 1.83 0.0 0 1 92.15 100.28
  L 92.39 100.39
  A 1.42 1.42 0.0 0 1 93.08 102.27
  L 90.00 108.89
  A 0.81 0.81 0.0 0 0 90.77 110.04
  Z"
/>
<path fill="#0b170f" d="
  M 202.36 140.34
  A 1.39 1.39 0.0 0 1 200.53 141.61
  L 200.34 141.55
  A 2.36 2.36 0.0 0 1 198.73 139.13
  Q 199.03 134.87 200.53 129.52
  Q 204.46 115.54 209.44 101.67
  A 1.53 1.52 -67.1 0 1 211.54 100.81
  L 211.60 100.83
  A 1.89 1.89 0.0 0 1 212.56 103.15
  Q 207.57 117.52 205.24 124.73
  Q 202.63 132.77 202.36 140.34
  Z"
/>
<path fill="#0b170f" d="
  M 60.20 120.12
  C 62.17 118.25 63.74 116.22 66.81 115.02
  C 70.76 113.48 72.98 117.44 72.99 120.78
  Q 73.00 123.08 72.62 126.84
  A 1.62 1.56 37.9 0 0 72.73 127.60
  L 73.49 129.50
  A 1.28 1.28 0.0 0 1 72.49 131.25
  Q 69.75 131.67 69.42 129.04
  Q 68.98 125.49 69.38 120.08
  A 1.59 1.59 0.0 0 0 67.50 118.40
  C 64.19 119.02 58.67 126.82 56.75 130.09
  A 1.65 1.59 -48.4 0 1 54.06 130.30
  Q 53.17 129.10 53.64 127.66
  Q 56.22 119.82 58.42 111.64
  A 1.34 1.33 22.0 0 1 60.36 110.82
  L 60.44 110.86
  A 2.17 2.17 0.0 0 1 61.55 113.45
  L 59.59 119.74
  A 0.37 0.37 0.0 0 0 60.20 120.12
  Z"
/>
<rect fill="#0b170f" x="-1.63" y="-10.63" transform="translate(45.89,122.41) rotate(16.5)" width="3.26" height="21.26" rx="1.59"/>
<path fill="#0b170f" d="
  M 111.40 127.96
  A 0.53 0.52 58.4 0 0 110.45 127.73
  C 108.46 130.62 104.51 134.61 101.03 134.47
  C 96.82 134.30 96.33 130.33 97.43 126.69
  C 99.27 120.64 103.37 114.88 109.52 112.76
  A 1.41 1.39 45.3 0 1 110.48 112.77
  Q 113.01 113.71 113.75 115.81
  A 1.11 1.08 2.1 0 0 114.39 116.48
  C 116.97 117.50 116.90 118.73 115.68 121.17
  Q 113.36 125.85 115.86 130.25
  Q 116.50 131.38 117.72 131.58
  A 1.12 1.11 24.7 0 1 118.40 133.40
  Q 116.75 135.34 115.30 134.27
  Q 111.93 131.81 111.40 127.96
  Z
  M 111.0252 116.6779
  A 8.57 2.90 -54.1 0 0 103.6509 121.9195
  A 8.57 2.90 -54.1 0 0 100.9748 130.5621
  A 8.57 2.90 -54.1 0 0 108.3491 125.3205
  A 8.57 2.90 -54.1 0 0 111.0252 116.6779
  Z"
/>
<path fill="#0b170f" d="
  M 143.98 123.83
  L 145.18 123.46
  A 0.89 0.86 6.2 0 0 145.67 123.08
  Q 147.11 120.64 148.96 118.72
  C 152.13 115.43 157.50 114.27 160.25 118.60
  A 2.90 2.88 -68.0 0 1 160.61 119.46
  C 162.19 126.30 153.84 128.58 148.76 126.96
  A 0.83 0.82 13.1 0 0 147.69 127.62
  C 147.36 129.88 147.10 132.33 148.88 134.04
  C 151.39 136.44 154.63 134.08 156.86 132.36
  A 1.24 1.20 58.7 0 1 158.70 132.84
  Q 159.26 133.98 158.30 135.06
  C 155.90 137.78 151.52 139.28 148.08 137.52
  C 143.87 135.36 143.60 131.17 144.33 126.81
  C 144.48 125.89 144.28 125.58 143.69 124.98
  A 0.69 0.69 0.0 0 1 143.98 123.83
  Z
  M 149.76 124.22
  Q 149.84 124.35 150.29 124.43
  Q 154.48 125.18 157.01 122.33
  Q 158.02 121.18 157.28 119.89
  Q 156.53 118.59 155.03 118.90
  Q 151.30 119.65 149.84 123.65
  Q 149.69 124.09 149.76 124.22
  Z"
/>
<path fill="#0b170f" d="
  M 220.40 119.77
  Q 227.20 121.14 226.74 128.17
  Q 226.32 134.44 221.09 138.80
  C 218.25 141.17 214.36 142.30 211.46 139.68
  C 205.32 134.15 213.67 122.21 219.50 119.85
  A 1.54 1.51 -49.6 0 1 220.40 119.77
  Z
  M 221.8568 123.9536
  A 7.95 3.82 -61.8 0 0 214.7334 129.1549
  A 7.95 3.82 -61.8 0 0 214.3432 137.9664
  A 7.95 3.82 -61.8 0 0 221.4666 132.7651
  A 7.95 3.82 -61.8 0 0 221.8568 123.9536
  Z"
/>
<path fill="#0b170f" d="
  M 235.31 137.29
  C 238.40 135.55 241.43 130.10 243.10 126.78
  A 1.80 1.69 28.7 0 1 245.57 126.14
  Q 246.84 126.87 246.57 128.37
  Q 245.78 132.79 246.44 137.88
  A 0.66 0.66 0.0 0 0 247.03 138.45
  Q 247.99 138.55 248.73 137.48
  Q 252.67 131.82 254.89 126.52
  A 1.69 1.68 21.9 0 1 257.07 125.60
  L 257.14 125.63
  A 1.67 1.67 0.0 0 1 258.08 127.77
  C 256.29 132.47 253.10 139.02 249.04 141.91
  A 3.02 2.91 -69.7 0 1 248.13 142.35
  C 243.71 143.57 243.41 139.26 242.90 136.27
  A 0.70 0.70 0.0 0 0 241.64 135.98
  Q 239.28 139.29 236.25 141.45
  C 234.17 142.94 231.48 141.39 231.37 138.95
  Q 231.04 131.91 233.23 122.27
  A 1.89 1.88 10.4 0 1 235.34 120.82
  L 235.75 120.88
  A 1.17 1.16 -81.6 0 1 236.73 122.21
  L 234.59 136.79
  A 0.49 0.49 0.0 0 0 235.31 137.29
  Z"
/>
<path fill="#0b170f" d="
  M 14.14 184.07
  Q 13.67 183.73 12.85 183.56
  A 1.35 1.35 0.0 0 1 12.73 180.94
  L 15.61 180.05
  A 1.03 1.02 -1.7 0 0 16.31 179.32
  C 17.51 174.55 23.40 156.27 31.03 159.03
  Q 34.94 160.44 34.33 165.02
  A 3.20 3.19 80.5 0 1 32.59 167.47
  L 32.52 167.50
  A 1.13 1.13 0.0 0 1 30.86 166.41
  L 31.09 163.57
  A 1.08 1.08 0.0 0 0 30.49 162.50
  Q 29.20 161.84 27.56 163.34
  C 23.57 166.98 21.30 173.47 19.79 178.78
  A 0.81 0.81 0.0 0 0 20.65 179.81
  C 22.42 179.63 25.82 179.31 26.94 180.37
  A 1.54 1.33 -24.8 0 1 25.88 182.73
  Q 23.05 183.14 19.25 183.24
  A 1.50 1.50 0.0 0 0 17.85 184.33
  Q 14.59 195.94 12.48 208.81
  A 1.46 1.46 0.0 0 1 10.92 210.03
  L 10.87 210.03
  A 1.31 1.31 0.0 0 1 9.68 208.56
  Q 11.24 196.39 14.47 185.02
  A 0.87 0.87 0.0 0 0 14.14 184.07
  Z"
/>
<path fill="#0b170f" d="
  M 162.89 186.16
  L 162.94 186.59
  A 1.30 1.30 0.0 0 1 161.59 188.06
  L 155.27 187.74
  A 0.81 0.80 12.8 0 0 154.50 188.22
  C 152.50 192.85 149.52 199.66 150.47 204.55
  A 2.05 2.05 0.0 0 0 153.02 206.13
  Q 155.88 205.35 158.57 203.52
  A 0.96 0.96 0.0 0 1 160.07 204.21
  L 160.12 204.71
  A 1.86 1.85 69.3 0 1 159.35 206.43
  Q 155.25 209.29 151.84 209.05
  C 147.38 208.74 146.25 203.61 146.98 200.00
  Q 147.98 195.07 150.45 188.83
  A 0.76 0.76 0.0 0 0 149.66 187.80
  L 147.77 188.01
  A 1.46 1.46 0.0 0 1 146.19 186.25
  L 146.30 185.79
  A 1.19 1.18 -86.9 0 1 147.33 184.86
  L 151.74 184.37
  A 0.50 0.49 9.9 0 0 152.13 184.10
  L 155.87 176.32
  A 1.75 1.75 0.0 0 1 158.38 175.60
  L 158.60 175.74
  A 1.46 1.46 0.0 0 1 159.15 177.58
  L 156.24 183.82
  A 0.81 0.81 0.0 0 0 157.06 184.97
  L 160.88 184.55
  A 1.82 1.82 0.0 0 1 162.89 186.16
  Z"
/>
<path fill="#0b170f" d="
  M 54.55 185.06
  A 0.47 0.47 0.0 0 0 55.21 185.63
  C 56.50 184.92 57.57 183.35 58.95 182.70
  C 61.14 181.67 65.27 180.74 66.49 183.41
  A 1.57 1.38 71.8 0 1 65.57 185.57
  Q 64.58 185.73 62.99 185.29
  C 59.42 184.28 54.83 191.02 53.63 193.90
  Q 52.52 196.54 51.16 200.24
  A 1.66 1.65 -69.1 0 1 49.01 201.21
  L 48.96 201.19
  A 1.88 1.87 -72.4 0 1 47.84 199.01
  L 52.32 180.12
  A 1.58 1.57 12.5 0 1 54.18 178.94
  L 54.22 178.96
  A 1.56 1.56 0.0 0 1 55.46 180.50
  Q 55.45 182.59 54.55 185.06
  Z"
/>
<path fill="#0b170f" d="
  M 41.6465 180.2800
  A 11.41 7.37 -60.8 0 1 42.5134 193.8355
  A 11.41 7.37 -60.8 0 1 30.5135 200.2000
  A 11.41 7.37 -60.8 0 1 29.6466 186.6445
  A 11.41 7.37 -60.8 0 1 41.6465 180.2800
  Z
  M 39.8805 183.4825
  A 7.86 3.86 -61.5 0 0 32.7378 188.5482
  A 7.86 3.86 -61.5 0 0 32.3795 197.2975
  A 7.86 3.86 -61.5 0 0 39.5222 192.2318
  A 7.86 3.86 -61.5 0 0 39.8805 183.4825
  Z"
/>
<path fill="#0b170f" d="
  M 99.17 196.73
  A 1.31 1.31 0.0 0 1 100.31 198.84
  Q 97.91 201.91 94.66 203.36
  C 90.28 205.31 85.67 204.61 84.51 199.60
  C 83.09 193.46 88.79 183.71 94.67 181.46
  Q 96.77 180.65 98.71 181.81
  Q 102.30 183.95 100.78 188.50
  Q 100.25 190.07 99.28 190.63
  A 1.29 1.22 78.9 0 1 97.46 189.33
  Q 97.72 186.84 97.69 185.67
  A 1.35 1.34 -13.2 0 0 95.78 184.49
  C 91.35 186.52 87.65 193.86 87.93 199.00
  A 2.31 2.24 -1.4 0 0 90.22 201.11
  C 93.31 201.13 96.14 198.79 98.48 196.97
  Q 98.73 196.77 99.17 196.73
  Z"
/>
<path fill="#0b170f" d="
  M 125.61 203.33
  A 0.95 0.95 0.0 0 1 127.02 202.46
  Q 131.79 205.12 134.17 203.81
  A 1.40 1.39 -34.7 0 0 134.56 201.67
  Q 130.89 197.44 130.13 196.39
  C 126.06 190.74 130.71 185.23 136.25 183.25
  Q 139.94 181.93 142.13 183.99
  C 144.37 186.10 144.33 189.20 141.79 190.95
  A 1.23 1.23 0.0 0 1 139.88 189.75
  L 140.22 187.44
  A 1.22 1.22 0.0 0 0 138.90 186.05
  C 134.78 186.41 129.34 191.28 133.48 195.60
  C 136.50 198.76 141.94 204.16 135.95 207.08
  Q 132.34 208.84 126.99 205.67
  A 2.81 2.81 0.0 0 1 125.61 203.36
  L 125.61 203.33
  Z"
/>
<path fill="#0b170f" d="
  M 115.95 200.37
  C 114.09 201.75 112.08 205.09 108.94 204.54
  C 104.78 203.82 104.47 198.47 105.39 195.16
  Q 106.87 189.83 109.34 184.43
  A 1.64 1.64 0.0 0 1 111.55 183.64
  L 111.61 183.67
  A 1.71 1.71 0.0 0 1 112.43 185.90
  Q 107.70 196.60 108.72 200.27
  Q 108.91 200.95 109.50 200.98
  Q 109.92 201.00 110.45 200.69
  C 115.38 197.81 117.39 192.32 119.68 186.02
  A 1.72 1.72 0.0 0 1 121.99 185.03
  L 122.06 185.06
  A 2.03 2.03 0.0 0 1 123.14 187.60
  C 120.89 193.77 117.81 199.08 121.10 203.58
  A 1.64 1.64 0.0 0 1 120.64 205.93
  L 120.47 206.04
  A 1.81 1.79 -33.8 0 1 118.05 205.57
  Q 116.49 203.40 116.89 200.94
  A 0.59 0.59 0.0 0 0 115.95 200.37
  Z"
/>
<path fill="#0b170f" d="
  M 176.12 187.44
  C 178.60 188.72 180.15 189.20 181.18 191.95
  C 183.16 197.26 177.80 206.74 172.32 208.56
  C 165.76 210.74 163.29 205.33 164.37 199.83
  Q 165.82 192.48 173.15 187.60
  A 2.95 2.94 -48.0 0 1 176.12 187.44
  Z
  M 174.52 191.90
  Q 173.79 191.60 173.10 191.65
  A 1.33 1.31 17.1 0 0 172.16 192.14
  C 169.35 195.62 166.88 200.25 168.00 204.72
  A 1.61 1.60 -12.8 0 0 169.88 205.90
  C 175.13 204.81 178.12 197.64 178.16 192.91
  A 1.45 1.44 85.8 0 0 176.50 191.47
  Q 175.94 191.55 175.49 191.82
  A 1.11 1.08 39.7 0 1 174.52 191.90
  Z"
/>
<path fill="#0b170f" d="
  M 191.83 197.36
  C 193.48 196.10 194.72 193.56 197.27 192.07
  C 199.99 190.49 202.35 192.28 202.67 195.08
  Q 202.83 196.44 202.51 198.69
  A 0.41 0.41 0.0 0 0 203.25 198.98
  C 205.03 196.38 208.97 192.66 211.95 195.94
  C 213.97 198.16 213.44 202.45 213.32 205.77
  A 1.39 1.28 37.6 0 0 213.41 206.30
  L 214.31 208.66
  A 0.88 0.86 -37.0 0 1 214.18 209.50
  C 212.36 211.80 209.73 209.45 209.86 206.95
  Q 210.05 203.26 210.17 199.62
  A 1.13 1.13 0.0 0 0 208.33 198.71
  Q 204.15 202.13 200.75 207.99
  A 2.05 2.05 0.0 0 1 198.11 208.82
  L 198.05 208.80
  A 2.04 2.04 0.0 0 1 197.00 206.22
  Q 199.32 200.11 199.23 196.82
  A 0.91 0.91 0.0 0 0 197.70 196.18
  C 193.94 199.76 191.23 203.73 188.16 208.31
  A 1.60 1.56 3.9 0 1 187.49 208.88
  Q 186.75 209.23 186.36 209.15
  A 2.08 2.07 -81.3 0 1 184.71 206.89
  Q 184.90 205.08 185.25 204.00
  Q 187.66 196.77 189.83 188.87
  A 1.49 1.49 0.0 0 1 192.13 188.04
  L 192.42 188.26
  A 2.23 2.22 -62.2 0 1 193.18 190.73
  L 191.16 196.89
  A 0.43 0.43 0.0 0 0 191.83 197.36
  Z"
/>
<path fill="#0b170f" d="
  M 221.80 202.52
  Q 221.37 203.08 221.66 205.81
  Q 222.18 210.63 226.29 210.14
  A 3.61 3.29 -56.4 0 0 227.21 209.91
  Q 227.39 209.84 231.20 207.63
  A 1.23 1.15 -15.1 0 1 233.04 208.61
  Q 233.00 209.83 231.77 210.92
  C 225.59 216.38 217.97 213.08 218.10 204.84
  Q 218.22 197.32 224.47 192.19
  C 226.78 190.29 230.60 189.11 233.20 191.09
  C 236.17 193.35 235.96 197.04 233.56 199.66
  Q 231.05 202.41 227.19 202.62
  C 225.61 202.71 224.01 202.17 222.70 202.10
  A 1.06 1.05 -69.8 0 0 221.80 202.52
  Z
  M 231.6986 194.0453
  A 4.55 2.29 -33.4 0 0 226.6394 194.6382
  A 4.55 2.29 -33.4 0 0 224.1014 199.0547
  A 4.55 2.29 -33.4 0 0 229.1606 198.4618
  A 4.55 2.29 -33.4 0 0 231.6986 194.0453
  Z"
/>
<path fill="#0b170f" d="
  M 244.31 197.45
  A 0.51 0.51 0.0 0 0 245.18 197.91
  C 247.99 194.86 252.72 191.34 256.56 194.28
  A 1.79 1.78 38.9 0 1 256.84 196.84
  Q 255.95 197.89 253.91 196.93
  C 249.97 195.09 244.09 204.54 242.99 207.47
  Q 241.31 211.93 241.09 212.47
  A 1.85 1.84 -72.5 0 1 238.96 213.58
  L 238.89 213.56
  A 1.47 1.46 13.1 0 1 237.82 211.85
  L 241.87 191.69
  A 1.73 1.73 0.0 0 1 243.95 190.34
  L 244.28 190.41
  A 1.56 1.56 0.0 0 1 245.46 192.27
  L 244.31 197.45
  Z"
/>
<path fill="#0b170f" d="
  M 265.72 212.57
  A 1.23 1.22 -27.3 0 0 266.35 210.60
  Q 262.48 205.97 261.98 205.29
  C 258.21 200.12 261.37 194.99 266.63 192.65
  Q 269.66 191.30 272.09 191.85
  C 275.17 192.54 276.59 194.84 275.23 197.75
  Q 274.43 199.48 273.22 199.84
  A 1.22 1.22 0.0 0 1 271.70 198.29
  L 272.27 196.56
  A 1.17 1.17 0.0 0 0 271.12 195.02
  Q 266.31 195.16 263.97 199.88
  A 3.15 3.14 44.5 0 0 264.00 202.73
  Q 265.35 205.28 268.12 208.12
  C 268.93 208.95 269.85 211.21 269.68 212.59
  C 268.98 218.34 260.53 216.45 257.58 213.88
  A 1.38 1.37 -11.9 0 1 259.07 211.60
  Q 262.77 213.34 265.72 212.57
  Z"
/>
</svg>
