<?xml version="1.0" encoding="UTF-8" standalone="no"?>
<!DOCTYPE svg PUBLIC "-//W3C//DTD SVG 1.1//EN" "http://www.w3.org/Graphics/SVG/1.1/DTD/svg11.dtd">
<svg xmlns="http://www.w3.org/2000/svg" version="1.1" viewBox="0.00 0.00 382.00 256.00">
<path fill="#101f18" d="
  M 61.06 68.06
  A 0.61 0.61 0.0 0 0 61.71 68.84
  L 77.43 67.30
  A 2.51 2.51 0.0 0 1 80.12 69.28
  L 80.14 69.38
  A 1.78 1.77 -10.3 0 1 78.64 71.54
  L 59.91 74.10
  A 1.36 1.35 -86.0 0 0 58.79 75.08
  L 52.27 98.38
  A 2.36 2.36 0.0 0 1 49.38 100.02
  L 49.33 100.00
  A 2.36 2.35 14.7 0 1 47.66 97.16
  Q 49.92 88.11 53.07 77.31
  C 53.50 75.82 53.38 74.56 52.35 73.38
  A 0.99 0.98 -33.3 0 1 52.67 71.85
  C 54.39 71.01 55.20 70.36 55.74 68.44
  Q 58.42 59.07 61.42 50.44
  A 0.96 0.96 0.0 0 0 60.20 49.22
  Q 58.81 49.70 57.64 49.70
  A 1.86 1.85 88.0 0 1 55.79 47.97
  C 55.71 46.80 56.28 46.28 57.41 45.92
  Q 61.34 44.67 64.41 44.00
  Q 70.13 42.76 85.75 42.37
  A 2.46 2.44 85.3 0 1 88.24 44.49
  L 88.27 44.74
  A 1.38 1.38 0.0 0 1 87.02 46.30
  L 68.30 47.79
  A 2.31 2.30 5.4 0 0 66.26 49.47
  L 61.06 68.06
  Z"
/>
<path fill="#101f18" d="
  M 150.40 46.02
  L 150.48 46.07
  A 3.02 3.00 -67.7 0 1 151.90 49.49
  Q 149.02 60.04 144.61 74.07
  Q 142.67 80.22 139.70 96.06
  C 139.41 97.62 139.56 99.10 139.44 100.95
  A 1.60 1.58 82.1 0 1 138.40 102.34
  C 132.58 104.47 134.76 93.53 135.32 91.03
  Q 140.03 69.81 147.60 47.09
  A 1.94 1.93 24.0 0 1 150.40 46.02
  Z"
/>
<path fill="#101f18" d="
  M 81.06 81.22
  C 81.29 80.35 82.96 78.99 83.59 77.86
  C 87.32 71.17 93.82 64.35 101.62 68.83
  C 105.22 70.90 105.49 75.95 103.09 79.26
  Q 97.50 87.00 88.10 84.67
  A 1.21 1.20 14.6 0 0 86.65 85.52
  C 85.56 89.45 85.39 94.41 90.45 95.58
  C 94.37 96.49 97.71 91.28 100.02 92.00
  A 1.73 1.70 -63.0 0 1 100.86 94.66
  C 97.05 99.85 89.31 102.24 84.20 97.31
  Q 81.44 94.65 80.77 89.29
  C 80.52 87.21 82.04 84.22 81.14 82.16
  A 1.49 1.43 -51.0 0 1 81.06 81.22
  Z
  M 89.83 80.36
  Q 96.20 81.32 99.16 76.41
  C 100.12 74.79 100.14 73.12 98.26 72.33
  C 94.45 70.70 90.72 76.03 89.11 78.89
  A 0.99 0.99 0.0 0 0 89.83 80.36
  Z"
/>
<path fill="#101f18" d="
  M 114.88 85.30
  A 1.02 1.02 0.0 0 0 113.59 86.14
  C 112.25 95.81 117.08 99.25 124.98 92.95
  A 1.97 1.83 -26.9 0 1 128.07 93.83
  C 128.82 96.94 122.34 99.89 120.20 100.33
  C 111.40 102.15 106.99 93.89 108.16 86.39
  Q 108.16 86.37 108.89 81.93
  A 3.27 3.18 62.6 0 1 109.15 81.07
  C 111.80 75.14 115.83 69.74 122.06 68.28
  C 128.06 66.87 133.70 72.65 130.43 78.69
  Q 125.28 88.20 114.88 85.30
  Z
  M 116.49 81.23
  Q 123.07 82.09 126.01 76.97
  C 126.97 75.29 126.95 73.57 125.00 72.79
  C 121.04 71.20 117.32 76.76 115.72 79.74
  A 1.02 1.02 0.0 0 0 116.49 81.23
  Z"
/>
<path fill="#101f18" d="
  M 167.41 73.78
  C 164.79 72.08 160.46 75.27 158.77 77.27
  C 152.51 84.63 165.20 88.61 165.09 96.10
  Q 165.04 99.59 161.45 101.26
  C 157.18 103.24 150.45 102.04 147.46 98.11
  A 1.08 1.04 36.1 0 1 147.29 97.14
  C 147.85 95.42 149.34 94.88 151.15 95.72
  C 154.06 97.07 156.72 98.54 159.84 96.32
  A 1.42 1.41 52.0 0 0 160.09 94.26
  C 157.35 91.01 156.29 89.74 154.74 87.87
  C 150.13 82.29 151.60 76.28 157.02 72.09
  C 160.36 69.50 166.24 67.12 170.14 69.92
  Q 172.19 71.40 172.25 74.18
  C 172.29 76.30 170.78 80.28 168.01 80.13
  A 1.99 1.82 -69.9 0 1 166.74 77.05
  Q 167.16 76.45 167.73 74.70
  A 0.81 0.80 25.9 0 0 167.41 73.78
  Z"
/>
<path fill="#101f18" d="
  M 203.92 94.00
  A 0.61 0.60 -27.4 0 0 205.01 94.34
  Q 211.03 86.52 214.02 79.02
  C 214.98 76.60 218.23 76.80 219.40 79.01
  Q 219.84 79.85 219.49 82.59
  Q 218.78 88.19 219.81 94.06
  A 1.01 1.00 -14.5 0 0 221.13 94.83
  C 224.28 93.70 228.98 81.96 230.22 78.41
  A 2.69 2.69 0.0 0 1 233.49 76.71
  L 233.98 76.84
  A 1.71 1.70 -73.7 0 1 235.15 78.98
  C 233.02 85.83 228.57 97.60 222.12 100.31
  C 216.63 102.61 214.97 96.79 214.73 92.58
  Q 214.69 92.02 214.51 91.86
  A 1.03 1.03 0.0 0 0 212.97 92.10
  C 211.04 95.21 207.72 99.82 204.65 101.23
  C 201.94 102.48 199.12 99.64 198.74 97.24
  C 197.65 90.29 199.03 83.06 200.27 74.51
  A 2.58 2.58 0.0 0 1 203.23 72.33
  L 203.33 72.35
  A 2.60 2.59 -80.8 0 1 205.48 75.34
  Q 203.65 86.33 203.92 94.00
  Z"
/>
<path fill="#101f18" d="
  M 263.80 100.07
  Q 262.48 102.21 260.03 101.99
  C 257.20 101.72 255.50 98.19 254.66 95.59
  A 1.14 1.14 0.0 0 0 252.67 95.25
  C 249.80 99.04 244.07 104.07 239.16 101.85
  C 233.91 99.49 235.79 92.84 238.00 88.53
  C 241.55 81.58 245.74 74.16 253.51 73.38
  C 255.76 73.16 259.45 77.35 261.00 78.86
  A 2.16 2.16 0.0 0 1 261.37 81.47
  Q 258.97 85.67 258.89 91.78
  Q 258.83 96.47 263.33 98.52
  A 1.08 1.08 0.0 0 1 263.80 100.07
  Z
  M 241.19 96.17
  A 1.56 1.56 0.0 0 0 243.69 96.98
  Q 250.77 91.20 255.10 82.58
  A 1.75 1.73 57.8 0 0 255.29 81.71
  C 255.25 79.95 253.50 77.87 251.53 78.81
  C 247.03 80.97 243.48 87.53 241.76 92.34
  Q 240.86 94.87 241.19 96.17
  Z"
/>
<path fill="#101f18" d="
  M 277.00 81.47
  A 0.76 0.76 0.0 0 0 278.36 82.09
  C 281.14 77.95 288.44 74.49 292.20 79.32
  Q 293.24 80.65 292.64 81.94
  A 2.77 2.71 -64.8 0 1 288.98 83.30
  Q 288.95 83.28 287.38 82.37
  A 2.27 2.26 43.9 0 0 285.05 82.41
  C 278.94 86.30 275.29 94.22 273.48 100.72
  C 272.92 102.75 271.90 104.49 269.79 103.79
  A 2.59 2.47 -78.3 0 1 268.11 101.10
  Q 268.46 97.61 269.23 94.26
  Q 272.26 81.08 272.72 77.27
  A 3.29 3.29 0.0 0 1 275.73 74.38
  L 276.08 74.34
  A 2.03 2.02 4.5 0 1 278.27 76.90
  L 277.00 81.47
  Z"
/>
<path fill="#101f18" d="
  M 303.42 87.31
  Q 305.76 84.00 309.10 81.55
  C 314.48 77.62 318.34 83.72 317.13 88.57
  A 0.79 0.79 0.0 0 0 318.56 89.19
  C 320.48 86.25 324.62 82.56 328.04 84.24
  C 331.69 86.05 331.35 92.55 330.86 96.07
  Q 330.38 99.60 332.22 102.24
  A 0.84 0.84 0.0 0 1 332.29 103.08
  Q 331.09 105.63 328.97 105.01
  Q 325.84 104.08 325.83 100.22
  Q 325.82 96.81 326.28 91.38
  A 1.91 1.73 -87.6 0 0 324.56 89.31
  Q 324.01 89.31 323.24 90.26
  Q 319.65 94.69 315.93 100.41
  C 314.70 102.30 313.33 103.41 311.20 102.30
  A 2.37 2.19 -69.3 0 1 310.13 99.65
  Q 312.09 92.19 312.55 88.26
  Q 312.70 87.00 312.16 86.39
  A 1.35 1.30 -45.3 0 0 310.17 86.44
  Q 303.19 94.46 298.58 103.45
  A 1.50 1.49 -72.2 0 1 297.04 104.25
  C 293.49 103.78 293.28 101.10 294.12 97.96
  Q 296.29 89.83 299.28 78.13
  A 2.60 2.60 0.0 0 1 302.41 76.24
  L 302.70 76.34
  A 3.01 3.00 -71.5 0 1 304.58 80.13
  L 302.38 86.78
  A 0.59 0.59 0.0 0 0 303.42 87.31
  Z"
/>
<path fill="#101f18" d="
  M 335.77 116.67
  A 1.66 1.66 0.0 0 1 335.53 114.10
  Q 337.51 112.16 338.76 110.07
  C 340.49 107.18 337.78 103.66 340.37 101.33
  C 341.72 100.11 343.93 100.91 344.46 102.73
  C 345.92 107.68 342.92 113.01 338.94 116.53
  A 2.52 2.52 0.0 0 1 335.88 116.74
  L 335.77 116.67
  Z"
/>
<path fill="#101f18" d="
  M 202.17 143.48
  L 202.32 143.53
  A 2.39 2.39 0.0 0 1 203.84 146.61
  Q 197.76 163.58 193.48 180.73
  C 192.26 185.62 191.20 189.54 191.05 195.14
  Q 191.02 196.34 190.08 196.91
  A 2.29 2.28 -34.6 0 1 187.08 196.37
  C 186.17 195.19 185.88 193.35 186.08 191.78
  Q 187.44 181.28 190.91 169.88
  Q 194.40 158.42 198.96 145.09
  A 2.57 2.56 18.3 0 1 202.17 143.48
  Z"
/>
<path fill="#101f18" d="
  M 332.22 202.83
  L 331.81 202.89
  A 2.40 2.39 83.3 0 1 329.11 200.75
  C 328.56 195.16 329.79 190.12 331.07 184.02
  Q 334.65 167.05 341.84 145.75
  A 2.49 2.49 0.0 0 1 345.02 144.19
  L 345.11 144.22
  A 2.54 2.54 0.0 0 1 346.70 147.39
  Q 337.89 175.28 333.72 195.48
  Q 333.27 197.64 333.94 200.28
  A 2.07 2.06 79.1 0 1 332.22 202.83
  Z"
/>
<path fill="#101f18" d="
  M 120.05 161.18
  C 123.00 161.12 128.51 160.31 128.70 163.92
  A 0.97 0.95 71.9 0 1 128.28 164.77
  C 125.74 166.48 122.45 166.09 118.78 166.08
  A 2.75 2.74 9.8 0 0 116.19 167.90
  Q 114.36 173.07 112.67 180.20
  C 111.77 183.99 109.61 193.52 117.49 190.28
  Q 119.52 189.45 122.39 187.66
  Q 123.42 187.02 124.22 187.59
  A 2.02 1.99 37.9 0 1 124.61 190.52
  C 121.71 193.92 117.43 196.67 112.92 195.76
  C 101.76 193.51 108.74 174.35 111.27 168.12
  A 0.97 0.97 0.0 0 0 110.43 166.78
  Q 107.86 166.64 106.41 166.33
  A 1.64 1.53 13.8 0 1 105.13 164.38
  C 105.74 162.32 109.56 161.95 111.40 161.96
  A 2.59 2.59 0.0 0 0 113.78 160.43
  L 118.32 150.23
  A 2.22 2.22 0.0 0 1 121.29 149.12
  L 121.53 149.22
  A 2.17 2.17 0.0 0 1 122.70 152.12
  L 119.23 159.93
  A 0.89 0.88 -78.5 0 0 120.05 161.18
  Z"
/>
<ellipse fill="#101f18" cx="0.00" cy="0.00" transform="translate(213.37,155.90) rotate(-84.9)" rx="4.37" ry="2.99"/>
<ellipse fill="#101f18" cx="0.00" cy="0.00" transform="translate(263.35,157.52) rotate(-79.9)" rx="4.02" ry="3.00"/>
<path fill="#101f18" d="
  M 51.40 174.77
  A 0.59 0.59 0.0 0 0 52.42 175.30
  Q 56.70 170.22 61.32 167.61
  C 66.46 164.72 70.46 169.47 70.12 174.29
  Q 69.45 183.81 69.46 184.75
  Q 69.47 185.27 70.51 187.61
  A 1.20 1.19 45.9 0 1 70.50 188.62
  Q 69.65 190.37 67.41 190.43
  C 65.05 190.50 64.10 188.03 64.28 186.22
  C 64.82 180.66 65.80 174.19 64.99 172.73
  A 1.72 1.71 57.5 0 0 62.49 172.17
  C 56.88 176.21 52.15 182.48 47.95 188.08
  C 46.68 189.77 44.82 191.29 43.23 189.00
  Q 42.20 187.51 42.69 185.89
  Q 45.22 177.61 49.34 163.24
  A 2.46 2.45 14.3 0 1 52.23 161.53
  L 52.27 161.54
  A 2.50 2.49 13.7 0 1 54.16 164.64
  L 51.40 174.77
  Z"
/>
<path fill="#101f18" d="
  M 95.2791 164.8934
  A 15.81 10.19 -63.4 0 1 97.3114 183.5927
  A 15.81 10.19 -63.4 0 1 81.1209 193.1666
  A 15.81 10.19 -63.4 0 1 79.0886 174.4673
  A 15.81 10.19 -63.4 0 1 95.2791 164.8934
  Z
  M 93.1992 169.4277
  A 10.74 5.02 -62.8 0 0 83.8251 176.6854
  A 10.74 5.02 -62.8 0 0 83.3808 188.5323
  A 10.74 5.02 -62.8 0 0 92.7549 181.2746
  A 10.74 5.02 -62.8 0 0 93.1992 169.4277
  Z"
/>
<path fill="#101f18" d="
  M 163.59 189.56
  A 3.37 2.77 -14.5 0 0 166.63 190.97
  C 170.21 190.69 173.59 188.00 176.26 185.59
  C 177.46 184.51 179.38 184.04 180.30 185.51
  Q 180.95 186.54 180.34 187.37
  C 177.08 191.75 170.31 197.15 164.54 195.64
  C 148.40 191.42 164.25 161.02 175.62 164.06
  C 180.07 165.25 181.51 169.67 180.03 173.73
  Q 179.30 175.72 177.54 176.11
  A 1.72 1.60 85.8 0 1 175.61 174.31
  C 175.68 172.87 176.36 170.47 175.16 169.40
  C 172.99 167.48 169.13 171.39 167.88 173.13
  C 165.22 176.80 161.29 185.38 163.59 189.56
  Z"
/>
<path fill="#101f18" d="
  M 225.27 178.93
  A 0.63 0.63 0.0 0 0 226.38 179.29
  C 229.85 175.08 237.01 167.22 242.18 173.61
  C 244.42 176.37 243.54 184.90 243.02 187.66
  C 242.67 189.50 243.26 190.17 244.40 191.18
  A 0.82 0.81 30.8 0 1 244.63 192.07
  C 243.14 196.13 238.71 194.71 237.86 190.84
  A 2.85 2.59 -51.1 0 1 237.81 190.00
  C 238.15 186.78 239.28 180.30 238.22 177.69
  A 1.68 1.68 0.0 0 0 235.71 176.94
  C 230.22 180.72 227.48 185.49 221.45 193.17
  C 218.97 196.32 215.70 193.15 216.66 189.98
  Q 219.01 182.19 222.36 168.93
  A 2.78 2.78 0.0 0 1 225.53 166.83
  L 225.69 166.86
  A 2.49 2.49 0.0 0 1 227.71 169.81
  Q 226.72 174.74 225.33 177.83
  Q 225.22 178.05 225.27 178.93
  Z"
/>
<path fill="#101f18" d="
  M 287.99 187.70
  A 1.97 1.72 -62.3 0 1 288.69 190.65
  C 285.78 194.59 279.97 198.92 274.89 198.27
  Q 271.01 197.77 268.96 195.36
  C 265.41 191.16 266.58 186.50 268.41 181.13
  Q 270.50 175.02 275.97 169.99
  C 279.65 166.62 284.96 165.63 287.92 170.35
  Q 290.22 174.02 287.68 178.26
  Q 286.94 179.50 285.32 179.47
  A 1.51 1.51 0.0 0 1 283.84 177.82
  Q 283.90 177.10 284.26 175.62
  C 284.73 173.68 283.99 171.57 281.73 172.27
  C 275.82 174.11 272.63 183.27 272.14 188.86
  C 271.56 195.29 276.83 193.76 280.45 191.70
  Q 281.83 190.91 286.00 188.00
  Q 286.89 187.39 287.99 187.70
  Z"
/>
<path fill="#101f18" d="
  M 314.30 188.96
  A 1.02 1.02 0.0 0 0 312.52 188.77
  C 309.85 192.63 304.94 197.93 300.24 197.76
  C 295.21 197.58 293.77 191.72 294.89 187.39
  Q 298.01 175.37 308.02 168.57
  Q 311.00 166.54 314.15 168.19
  C 316.22 169.27 316.71 172.15 319.45 173.47
  A 2.29 2.28 27.6 0 1 320.45 176.65
  Q 317.60 181.68 319.06 186.50
  C 320.10 189.96 320.64 192.35 324.12 193.79
  A 1.48 1.47 36.2 0 1 324.51 196.29
  C 319.52 200.44 315.88 192.84 314.30 188.96
  Z
  M 299.71 191.46
  A 1.63 1.62 -28.1 0 0 302.33 192.25
  Q 309.57 186.06 313.88 176.97
  A 1.82 1.81 56.5 0 0 314.06 176.06
  C 313.98 174.22 312.11 172.10 310.08 173.12
  C 305.44 175.48 301.89 182.40 300.21 187.46
  Q 299.33 190.11 299.71 191.46
  Z"
/>
<rect fill="#101f18" x="-2.58" y="-13.48" transform="translate(206.23,182.76) rotate(15.3)" width="5.16" height="26.96" rx="2.52"/>
<rect fill="#101f18" x="-2.64" y="-13.39" transform="translate(255.96,184.37) rotate(14.4)" width="5.28" height="26.78" rx="2.52"/>
</svg>
