<?xml version="1.0" encoding="UTF-8" standalone="no"?>
<!DOCTYPE svg PUBLIC "-//W3C//DTD SVG 1.1//EN" "http://www.w3.org/Graphics/SVG/1.1/DTD/svg11.dtd">
<svg xmlns="http://www.w3.org/2000/svg" version="1.1" viewBox="0.00 0.00 256.00 345.00">
<path fill="#111916" d="
  M 94.52 50.38
  Q 94.17 49.37 94.61 47.07
  C 95.04 44.77 95.22 42.16 94.10 40.45
  A 2.32 2.32 0.0 0 0 91.23 39.58
  C 83.47 42.93 78.67 55.59 77.69 63.45
  C 77.20 67.44 77.44 74.88 82.29 76.25
  C 86.44 77.42 92.02 73.26 94.79 70.22
  A 0.90 0.90 0.0 0 1 96.20 70.31
  L 96.40 70.59
  A 1.32 1.31 -43.3 0 1 96.35 72.14
  C 87.28 83.64 73.03 81.25 74.22 64.40
  Q 74.94 54.14 80.97 44.83
  C 83.48 40.95 87.58 36.33 92.45 36.80
  C 98.86 37.42 99.82 46.20 96.76 50.68
  A 1.27 1.27 0.0 0 1 94.52 50.38
  Z"
/>
<path fill="#111916" d="
  M 134.58 39.92
  A 1.91 1.90 21.4 0 1 135.56 42.15
  C 131.71 55.52 128.27 65.58 127.30 77.62
  A 1.45 1.45 0.0 0 1 125.82 78.95
  L 125.77 78.95
  A 1.51 1.51 0.0 0 1 124.30 77.56
  Q 124.02 74.16 124.71 70.98
  Q 128.06 55.64 132.61 40.72
  A 1.37 1.36 -68.3 0 1 134.52 39.89
  L 134.58 39.92
  Z"
/>
<path fill="#111916" d="
  M 113.53 70.22
  A 0.32 0.32 0.0 0 0 112.97 70.19
  Q 111.01 73.41 108.10 75.11
  C 103.94 77.54 99.42 75.03 100.56 70.04
  Q 102.66 60.81 110.47 56.13
  A 3.22 3.22 0.0 0 1 114.41 56.61
  L 117.80 60.00
  A 1.98 1.96 35.3 0 1 118.19 62.22
  C 116.30 66.24 115.86 71.50 120.40 73.75
  A 1.12 1.12 0.0 0 1 120.30 75.81
  C 116.23 77.33 115.07 73.42 113.53 70.22
  Z
  M 113.1492 59.5526
  A 7.88 2.75 -55.8 0 0 106.4455 64.5243
  A 7.88 2.75 -55.8 0 0 104.2908 72.5874
  A 7.88 2.75 -55.8 0 0 110.9945 67.6157
  A 7.88 2.75 -55.8 0 0 113.1492 59.5526
  Z"
/>
<path fill="#111916" d="
  M 151.14 66.86
  A 0.61 0.61 0.0 0 0 152.07 66.77
  C 154.53 63.12 159.30 59.83 161.31 66.45
  C 162.11 69.10 160.55 72.83 161.72 75.11
  A 1.53 1.53 0.0 0 1 159.76 77.22
  C 156.92 76.02 157.86 69.93 158.03 67.28
  A 0.86 0.86 0.0 0 0 156.57 66.61
  Q 152.41 70.67 149.30 75.98
  A 1.59 1.58 -61.9 0 1 147.24 76.61
  Q 145.56 75.80 146.00 74.27
  Q 147.42 69.29 147.72 65.10
  A 0.81 0.81 0.0 0 0 146.32 64.50
  Q 141.72 69.49 137.86 76.13
  A 1.96 1.94 -50.6 0 1 134.71 76.45
  Q 133.94 75.56 134.24 74.49
  Q 136.55 66.47 138.48 58.07
  A 1.59 1.59 0.0 0 1 140.34 56.86
  L 140.41 56.87
  A 1.77 1.77 0.0 0 1 141.83 58.76
  Q 141.53 62.25 140.30 64.65
  A 0.69 0.69 0.0 0 0 140.66 65.60
  L 140.95 65.71
  A 0.34 0.34 0.0 0 0 141.37 65.57
  C 143.01 62.89 145.46 59.25 148.92 60.46
  A 1.81 1.79 -6.9 0 1 149.81 61.15
  C 150.41 62.02 150.97 63.74 150.94 65.00
  Q 150.90 66.63 151.14 66.86
  Z"
/>
<path fill="#111916" d="
  M 165.24 84.33
  C 165.83 82.50 167.94 81.47 167.20 78.54
  C 166.77 76.79 167.02 75.69 168.51 74.84
  A 1.47 1.26 -28.9 0 1 170.42 75.24
  C 172.31 78.75 170.09 83.79 167.19 85.78
  A 1.29 1.28 81.6 0 1 165.24 84.33
  Z"
/>
<path fill="#111916" d="
  M 54.67 120.88
  A 0.49 0.49 0.0 0 0 55.20 121.49
  C 57.44 121.28 60.58 120.69 61.81 122.41
  A 1.32 1.32 0.0 0 1 60.73 124.50
  L 55.00 124.50
  A 1.76 1.76 0.0 0 0 53.31 125.77
  Q 50.42 135.95 49.34 148.07
  Q 49.23 149.29 48.27 149.77
  A 1.12 1.10 -15.6 0 1 46.66 148.88
  C 46.09 141.64 47.87 134.12 49.75 126.84
  A 1.07 1.05 -57.5 0 0 49.56 125.94
  Q 49.22 125.52 48.65 125.35
  A 1.32 1.27 -48.0 0 1 48.57 122.92
  Q 49.63 122.45 50.39 122.08
  A 1.47 1.44 86.1 0 0 51.12 121.23
  C 52.52 116.76 54.25 109.78 57.36 104.89
  C 60.47 99.99 69.36 99.22 68.40 107.19
  Q 68.18 109.10 66.32 109.27
  A 0.80 0.78 -15.7 0 1 65.52 108.83
  Q 64.78 107.26 64.91 105.55
  A 1.25 1.25 0.0 0 0 63.02 104.38
  C 58.38 107.17 55.95 115.72 54.67 120.88
  Z"
/>
<rect fill="#111916" x="-1.68" y="-23.60" transform="translate(202.38,125.32) rotate(26.3)" width="3.36" height="47.20" rx="1.66"/>
<path fill="#111916" d="
  M 142.24 124.86
  Q 141.21 124.46 139.82 124.60
  A 1.18 1.17 -1.7 0 1 138.52 123.38
  L 138.55 123.01
  A 1.50 1.49 -87.7 0 1 140.04 121.63
  L 142.79 121.63
  A 1.47 1.45 10.4 0 0 144.16 120.70
  L 147.16 113.11
  A 2.05 2.05 0.0 0 1 149.82 111.97
  L 150.17 112.10
  A 1.08 1.08 0.0 0 1 150.77 113.50
  L 148.09 120.27
  A 0.76 0.76 0.0 0 0 148.86 121.30
  C 150.64 121.15 153.41 120.86 154.59 122.40
  A 1.34 1.33 -18.6 0 1 153.52 124.54
  L 147.08 124.54
  A 1.20 1.19 -79.8 0 0 145.96 125.32
  C 144.62 128.91 142.17 136.09 143.45 139.47
  A 2.12 1.83 -15.4 0 0 145.77 140.57
  Q 148.18 140.08 150.66 138.12
  A 0.93 0.93 0.0 0 1 152.17 138.85
  L 152.17 139.93
  A 1.32 1.31 -21.6 0 1 151.75 140.89
  C 145.90 146.34 138.18 143.84 140.03 135.01
  Q 141.55 127.78 142.57 125.71
  A 0.62 0.62 0.0 0 0 142.24 124.86
  Z"
/>
<path fill="#111916" d="
  M 132.71 127.41
  Q 132.63 126.90 132.92 125.88
  A 1.64 1.61 0.7 0 0 130.94 123.89
  C 127.31 124.78 123.60 128.36 127.01 131.89
  C 129.68 134.65 134.62 139.82 129.56 142.42
  C 127.27 143.60 120.43 143.98 120.22 140.12
  A 1.09 1.09 0.0 0 1 121.74 139.06
  C 123.56 139.84 126.07 140.77 127.69 139.81
  A 1.51 1.51 0.0 0 0 128.02 137.47
  Q 124.87 134.15 123.50 132.03
  C 118.11 123.68 134.80 115.68 136.03 124.30
  Q 136.32 126.34 134.86 128.02
  A 1.23 1.23 0.0 0 1 132.71 127.41
  Z"
/>
<path fill="#111916" d="
  M 89.07 126.14
  A 0.49 0.49 0.0 0 0 89.97 126.47
  Q 92.00 123.43 95.57 122.40
  C 98.02 121.69 100.63 122.94 100.11 125.81
  A 0.74 0.74 0.0 0 1 99.36 126.42
  Q 97.86 126.37 97.08 125.99
  A 2.51 2.39 37.1 0 0 94.39 126.30
  Q 88.39 131.47 86.16 139.64
  A 1.62 1.61 -73.7 0 1 84.12 140.76
  L 84.06 140.74
  A 1.80 1.80 0.0 0 1 82.92 138.70
  L 86.21 122.09
  A 1.69 1.67 -81.2 0 1 88.04 120.74
  L 88.34 120.78
  A 1.31 1.30 6.3 0 1 89.50 122.22
  L 89.07 126.14
  Z"
/>
<path fill="#111916" d="
  M 75.8512 121.7967
  A 10.46 7.01 -62.8 0 1 77.3048 134.3043
  A 10.46 7.01 -62.8 0 1 66.2888 140.4033
  A 10.46 7.01 -62.8 0 1 64.8352 127.8957
  A 10.46 7.01 -62.8 0 1 75.8512 121.7967
  Z
  M 74.3808 124.6873
  A 7.23 3.62 -63.9 0 0 67.9491 129.5874
  A 7.23 3.62 -63.9 0 0 68.0192 137.6727
  A 7.23 3.62 -63.9 0 0 74.4509 132.7726
  A 7.23 3.62 -63.9 0 0 74.3808 124.6873
  Z"
/>
<path fill="#111916" d="
  M 101.86 128.62
  Q 102.62 128.43 103.28 127.53
  C 105.53 124.48 108.51 120.98 112.51 121.23
  C 117.67 121.56 118.77 127.01 115.34 130.33
  Q 111.61 133.93 106.27 132.29
  A 0.78 0.78 0.0 0 0 105.28 132.88
  C 104.32 137.49 107.25 141.69 112.15 138.29
  Q 113.73 137.19 114.25 136.93
  A 1.20 1.20 0.0 0 1 115.82 138.62
  C 111.60 145.59 100.67 143.00 101.64 134.39
  C 101.83 132.71 102.10 131.81 101.66 130.75
  Q 101.35 130.01 101.32 129.36
  A 0.73 0.73 0.0 0 1 101.86 128.62
  Z
  M 114.31 126.24
  L 112.99 124.17
  A 0.91 0.91 0.0 0 0 111.73 123.89
  L 110.63 124.60
  A 5.52 2.14 -32.6 0 0 107.13 129.38
  A 5.52 2.14 -32.6 0 0 112.93 128.20
  L 114.04 127.50
  A 0.91 0.91 0.0 0 0 114.31 126.24
  Z"
/>
<path fill="#111916" d="
  M 165.20 142.11
  A 0.42 0.42 0.0 0 0 164.59 141.61
  Q 161.73 143.30 160.18 141.86
  C 156.26 138.21 158.06 129.39 159.36 124.84
  A 1.50 1.50 0.0 0 1 161.36 123.85
  L 161.68 123.98
  A 1.23 1.22 18.2 0 1 162.42 125.43
  C 161.29 129.65 160.03 134.83 161.46 138.65
  A 1.14 1.14 0.0 0 0 163.22 139.15
  C 167.70 135.71 168.82 129.83 170.60 124.70
  A 1.27 1.27 0.0 0 1 172.63 124.15
  L 172.69 124.20
  A 2.71 2.69 -62.1 0 1 173.53 126.96
  Q 170.81 136.83 167.39 145.88
  C 165.15 151.80 160.19 165.57 151.07 157.66
  A 2.21 2.19 -58.8 0 1 150.47 155.18
  L 150.82 154.28
  A 0.87 0.87 0.0 0 1 152.35 154.12
  C 156.42 160.18 159.15 155.50 160.87 151.87
  Q 164.30 144.59 165.20 142.11
  Z"
/>
<path fill="#111916" d="
  M 117.56 195.15
  A 0.42 0.42 0.0 0 0 118.34 195.29
  Q 120.34 191.71 123.70 189.74
  C 128.72 186.80 130.44 192.54 130.05 196.28
  Q 129.56 200.87 129.55 201.07
  A 2.01 2.01 0.0 0 0 130.14 202.69
  L 131.29 203.83
  A 0.98 0.98 0.0 0 1 131.29 205.23
  L 130.63 205.90
  A 1.79 1.78 -47.8 0 1 128.25 206.02
  C 125.32 203.62 126.51 197.72 126.65 194.26
  A 1.21 1.21 0.0 0 0 124.94 193.10
  Q 124.22 193.42 122.96 194.72
  Q 118.66 199.15 115.34 205.32
  A 1.69 1.66 2.5 0 1 114.51 206.07
  C 112.70 206.80 111.35 205.66 111.75 203.97
  Q 115.33 188.80 119.92 170.29
  A 1.43 1.42 -70.6 0 1 121.90 169.34
  L 121.97 169.37
  A 2.13 2.12 -71.3 0 1 123.15 171.77
  Q 120.89 181.70 117.59 194.31
  Q 117.48 194.70 117.56 195.15
  Z"
/>
<path fill="#111916" d="
  M 179.60 189.13
  L 184.60 189.13
  A 1.45 1.44 -12.5 0 1 185.91 189.96
  L 186.06 190.29
  A 1.37 1.37 0.0 0 1 184.93 192.19
  L 178.78 192.76
  A 1.48 1.48 0.0 0 0 177.48 193.88
  Q 176.22 199.16 175.32 204.03
  Q 174.00 211.23 174.18 217.51
  A 1.50 1.49 6.2 0 1 172.32 219.00
  L 172.28 218.99
  A 2.25 2.24 -80.7 0 1 170.59 216.63
  Q 171.44 205.76 174.07 194.78
  A 0.92 0.91 -67.2 0 0 173.67 193.78
  Q 173.08 193.39 172.71 193.39
  A 1.26 1.26 0.0 0 1 172.17 190.98
  L 174.76 189.84
  A 1.39 1.37 -4.0 0 0 175.53 188.97
  C 177.41 182.84 180.17 170.28 187.30 169.47
  C 192.04 168.93 194.10 176.20 190.24 178.14
  A 0.94 0.93 -13.5 0 1 188.88 177.31
  L 188.88 173.96
  A 1.16 1.15 77.5 0 0 187.24 172.91
  C 182.81 174.96 180.40 183.72 179.04 188.38
  A 0.59 0.58 -81.8 0 0 179.60 189.13
  Z"
/>
<path fill="#111916" d="
  M 236.51 171.51
  L 236.66 171.69
  A 3.48 3.46 35.8 0 1 237.21 175.00
  C 233.48 185.64 230.27 194.06 228.63 203.66
  Q 228.20 206.20 228.81 208.94
  A 1.47 1.47 0.0 0 1 227.21 210.73
  L 226.71 210.67
  A 1.71 1.71 0.0 0 1 225.22 209.28
  C 224.22 203.85 226.61 196.31 228.28 191.02
  Q 231.89 179.62 234.64 171.82
  A 1.08 1.08 0.0 0 1 236.51 171.51
  Z"
/>
<path fill="#111916" d="
  M 104.24 183.82
  A 0.53 0.53 0.0 0 0 104.81 184.52
  C 107.03 184.26 109.85 183.80 111.15 185.64
  A 1.24 1.24 0.0 0 1 110.14 187.60
  L 103.85 187.60
  A 1.85 1.85 0.0 0 0 102.11 188.83
  C 100.65 192.89 98.12 200.11 99.39 203.51
  A 1.75 1.75 0.0 0 0 101.63 204.54
  Q 103.81 203.73 106.36 202.13
  A 1.25 1.10 -22.7 0 1 108.20 202.75
  Q 108.44 204.00 107.37 204.88
  C 104.24 207.44 98.29 209.64 96.38 204.71
  C 94.67 200.26 96.79 193.79 98.51 189.41
  A 0.96 0.95 -79.5 0 0 97.62 188.11
  L 95.47 188.11
  A 0.92 0.91 -5.8 0 1 94.57 187.38
  C 94.08 184.94 96.93 185.08 99.11 184.82
  A 1.71 1.68 -83.1 0 0 100.50 183.71
  C 101.64 180.57 102.51 177.18 104.44 175.45
  A 1.52 1.50 -35.5 0 1 106.78 175.82
  Q 107.49 177.10 106.51 179.01
  Q 104.60 182.74 104.24 183.82
  Z"
/>
<path fill="#111916" d="
  M 37.60 195.46
  A 0.61 0.61 0.0 0 0 36.86 195.89
  C 35.92 199.30 37.44 203.65 41.82 202.87
  Q 42.86 202.69 46.02 200.11
  A 1.35 1.35 0.0 0 1 47.98 200.38
  L 48.02 200.44
  A 1.73 1.73 0.0 0 1 47.78 202.69
  Q 43.39 206.79 38.89 205.85
  C 32.67 204.55 33.27 198.38 33.65 193.10
  A 3.11 2.98 62.3 0 1 33.99 191.92
  Q 35.22 189.61 37.93 186.75
  C 40.62 183.90 45.75 181.99 48.33 185.80
  C 49.65 187.77 49.68 189.97 48.26 191.91
  Q 44.36 197.21 37.60 195.46
  Z
  M 46.18 188.95
  L 44.82 186.90
  A 0.91 0.91 0.0 0 0 43.56 186.65
  L 42.22 187.53
  A 5.53 2.12 -33.6 0 0 38.79 192.36
  L 38.81 192.39
  A 5.53 2.12 -33.6 0 0 44.59 191.10
  L 45.92 190.21
  A 0.91 0.91 0.0 0 0 46.18 188.95
  Z"
/>
<path fill="#111916" d="
  M 64.39 199.16
  A 0.32 0.31 -42.8 0 0 63.83 199.14
  Q 61.95 202.36 59.11 204.09
  C 55.05 206.56 50.54 204.16 51.58 199.21
  Q 53.49 190.06 61.12 185.31
  A 3.18 3.18 0.0 0 1 65.02 185.71
  L 68.42 189.00
  A 1.95 1.94 34.2 0 1 68.85 191.18
  C 67.05 195.18 66.71 200.39 71.23 202.53
  A 1.11 1.11 0.0 0 1 71.17 204.56
  C 67.18 206.13 65.96 202.29 64.39 199.16
  Z
  M 63.7111 188.6141
  A 7.68 2.76 -57.9 0 0 57.2919 193.6533
  A 7.68 2.76 -57.9 0 0 55.5489 201.6259
  A 7.68 2.76 -57.9 0 0 61.9681 196.5867
  A 7.68 2.76 -57.9 0 0 63.7111 188.6141
  Z"
/>
<path fill="#111916" d="
  M 81.38 191.02
  C 83.03 188.25 89.48 184.74 91.90 188.58
  A 1.55 1.53 -5.4 0 1 90.02 190.82
  Q 86.72 189.57 83.98 192.60
  Q 79.72 197.32 78.19 204.57
  A 1.85 1.85 0.0 0 1 76.02 206.00
  L 75.94 205.99
  A 1.77 1.77 0.0 0 1 74.55 203.86
  Q 76.40 195.45 77.61 187.58
  Q 77.75 186.72 78.46 186.21
  A 1.55 1.45 69.6 0 1 80.78 187.37
  Q 81.00 189.25 80.35 190.51
  A 0.44 0.44 0.0 0 0 80.69 191.15
  L 81.04 191.19
  A 0.37 0.36 -71.0 0 0 81.38 191.02
  Z"
/>
<path fill="#111916" d="
  M 192.38 198.75
  A 0.71 0.71 0.0 0 0 191.52 199.30
  C 190.99 201.89 191.46 206.40 195.01 206.48
  C 196.84 206.52 199.95 203.50 200.95 203.76
  A 1.22 1.17 -65.7 0 1 201.60 205.59
  Q 200.40 207.43 198.35 208.31
  C 190.64 211.60 187.53 205.95 188.00 199.36
  C 188.08 198.23 187.76 197.39 187.72 196.52
  A 0.94 0.94 0.0 0 1 188.14 195.70
  Q 188.86 195.22 191.58 191.35
  Q 194.63 187.02 199.24 187.51
  C 203.47 187.97 204.79 192.42 202.35 195.71
  Q 198.92 200.32 192.38 198.75
  Z
  M 200.1485 191.2973
  A 4.00 2.16 -32.9 0 0 195.6167 191.6564
  A 4.00 2.16 -32.9 0 0 193.4315 195.6427
  A 4.00 2.16 -32.9 0 0 197.9633 195.2836
  A 4.00 2.16 -32.9 0 0 200.1485 191.2973
  Z"
/>
<path fill="#111916" d="
  M 143.82 206.25
  A 0.56 0.56 0.0 0 0 143.00 205.60
  Q 139.53 207.76 137.62 204.68
  C 135.29 200.96 136.46 193.60 137.50 189.18
  A 1.45 1.45 0.0 0 1 139.33 188.12
  L 139.39 188.14
  A 1.66 1.66 0.0 0 1 140.52 190.09
  Q 138.92 197.20 139.92 202.23
  A 1.23 1.23 0.0 0 0 141.81 203.01
  C 145.19 200.77 147.37 194.46 148.75 189.56
  A 1.58 1.57 19.8 0 1 150.91 188.55
  L 150.98 188.58
  A 2.03 2.02 20.4 0 1 152.09 191.00
  Q 149.34 200.41 147.37 206.38
  C 145.49 212.06 141.39 223.75 134.54 223.77
  C 132.14 223.77 128.58 222.31 129.37 219.37
  A 1.15 1.15 0.0 0 1 131.29 218.86
  L 132.60 220.18
  A 2.67 2.67 0.0 0 0 135.64 220.69
  C 139.48 218.81 142.41 210.43 143.82 206.25
  Z"
/>
<path fill="#111916" d="
  M 211.08 199.13
  A 0.88 0.87 -75.6 0 0 209.98 199.79
  Q 209.61 201.54 210.06 203.96
  C 210.57 206.74 213.67 207.45 216.03 206.28
  Q 217.20 205.70 218.73 204.58
  A 1.44 1.34 -25.7 0 1 220.94 205.26
  Q 221.12 206.01 220.32 206.83
  C 213.64 213.64 205.37 208.09 206.42 199.70
  Q 207.23 193.17 212.62 189.31
  C 215.60 187.17 220.20 187.56 221.74 191.24
  C 223.33 195.05 219.53 198.51 216.08 199.32
  Q 213.64 199.89 211.08 199.13
  Z
  M 219.11 192.99
  L 217.74 190.92
  A 0.80 0.80 0.0 0 0 216.63 190.70
  L 215.30 191.59
  A 5.26 2.01 -33.7 0 0 212.04 196.18
  L 212.07 196.23
  A 5.26 2.01 -33.7 0 0 217.56 194.98
  L 218.89 194.10
  A 0.80 0.80 0.0 0 0 219.11 192.99
  Z"
/>
<path fill="#111916" d="
  M 58.40 295.40
  L 50.27 303.53
  A 1.79 1.79 0.0 0 1 47.34 301.60
  L 49.40 296.39
  A 0.48 0.47 -56.8 0 1 50.18 296.22
  L 50.50 296.54
  A 0.42 0.42 0.0 0 1 50.59 297.00
  L 49.09 300.80
  A 0.67 0.67 0.0 0 0 50.16 301.54
  Q 55.68 296.61 58.66 291.06
  A 2.45 2.38 62.6 0 0 58.91 290.23
  L 60.26 278.05
  A 0.47 0.47 0.0 0 0 59.44 277.68
  Q 53.35 284.31 44.46 290.71
  Q 42.76 291.94 41.38 293.94
  Q 39.73 296.37 37.19 298.18
  Q 31.69 302.09 27.29 304.08
  A 0.43 0.43 0.0 0 0 27.31 304.87
  L 27.78 305.06
  A 1.24 1.20 41.2 0 0 28.80 305.01
  Q 37.21 300.57 39.65 299.87
  A 2.48 2.35 -69.1 0 0 40.36 299.53
  Q 44.86 296.36 45.19 296.04
  C 46.70 294.56 49.40 293.52 51.07 291.58
  Q 53.92 288.28 56.78 284.06
  A 0.37 0.36 -63.0 0 1 57.21 283.92
  L 57.58 284.07
  A 0.32 0.31 -64.8 0 1 57.74 284.52
  Q 55.63 288.44 52.02 292.72
  Q 50.98 293.95 47.39 296.05
  Q 45.72 297.02 42.69 300.16
  A 1.67 1.63 69.1 0 0 42.24 301.19
  Q 42.13 302.99 41.02 304.57
  A 0.59 0.58 20.8 0 0 41.44 305.49
  L 41.75 305.53
  A 1.37 1.35 23.7 0 0 42.90 305.09
  Q 44.71 303.05 46.14 302.72
  A 0.33 0.33 0.0 0 1 46.51 303.20
  Q 44.48 307.05 40.59 307.49
  A 0.73 0.73 0.0 0 1 39.81 306.97
  Q 39.46 305.81 38.90 305.70
  Q 38.23 305.56 37.24 306.13
  Q 34.29 307.83 31.08 307.91
  A 0.43 0.43 0.0 0 1 30.67 307.32
  L 31.05 306.37
  A 0.65 0.65 0.0 0 1 31.68 305.96
  Q 35.18 306.10 39.17 303.57
  A 2.35 2.33 84.7 0 0 40.10 302.44
  L 40.52 301.39
  A 0.56 0.55 -5.3 0 0 39.71 300.72
  L 32.06 305.45
  A 2.84 2.77 23.9 0 1 31.04 305.83
  C 28.57 306.23 25.62 306.99 24.27 305.77
  A 1.04 1.03 -38.2 0 1 24.47 304.14
  L 36.34 297.21
  A 5.42 5.40 -1.7 0 0 38.43 295.00
  C 39.48 292.94 40.72 291.45 42.61 290.07
  Q 48.09 286.11 53.91 281.19
  A 0.20 0.20 0.0 0 0 53.78 280.84
  Q 52.82 280.84 52.01 280.50
  A 0.47 0.47 0.0 0 0 51.38 280.76
  L 51.18 281.27
  A 0.89 0.87 -87.0 0 1 50.62 281.78
  L 43.08 284.02
  A 1.31 1.30 -30.5 0 1 41.77 283.69
  L 40.77 282.70
  A 0.95 0.94 56.9 0 0 39.75 282.48
  Q 34.37 284.60 28.43 281.92
  A 1.15 1.15 0.0 0 1 28.59 279.77
  Q 34.40 278.10 38.90 274.96
  A 0.48 0.48 0.0 0 1 39.59 275.12
  L 39.78 275.43
  A 0.56 0.55 56.0 0 1 39.65 276.13
  L 34.90 279.98
  A 1.01 0.95 -62.6 0 1 34.30 280.19
  Q 31.75 280.16 31.29 280.59
  A 0.35 0.34 26.6 0 0 31.49 281.18
  Q 35.99 281.74 39.16 280.62
  C 41.37 279.84 43.03 278.03 44.84 277.01
  A 0.46 0.46 0.0 0 1 45.46 277.65
  Q 44.38 279.50 42.82 280.73
  A 0.51 0.51 0.0 0 0 43.17 281.64
  C 48.86 281.23 49.10 278.03 51.85 274.00
  A 1.22 1.21 26.0 0 1 53.23 273.53
  L 53.26 273.54
  A 0.77 0.77 0.0 0 1 53.69 274.63
  L 51.63 278.47
  A 0.25 0.25 0.0 0 0 51.85 278.84
  L 54.13 278.84
  A 1.89 1.88 -67.2 0 0 55.45 278.30
  C 57.98 275.80 60.83 274.40 60.72 269.65
  Q 60.63 265.89 61.73 261.67
  A 0.59 0.58 -15.8 0 0 60.74 261.12
  Q 59.94 261.94 59.66 262.43
  Q 56.37 268.20 49.72 272.22
  Q 47.21 273.74 45.50 273.40
  C 42.43 272.79 40.68 274.57 37.33 272.89
  A 0.83 0.83 0.0 0 1 37.17 271.51
  Q 38.89 270.06 43.20 267.02
  Q 44.63 266.01 46.96 262.59
  A 5.10 4.88 -5.8 0 1 47.65 261.78
  L 49.57 259.98
  A 0.55 0.55 0.0 0 1 50.34 259.99
  L 50.55 260.20
  A 0.22 0.21 -49.4 0 1 50.57 260.48
  L 45.93 266.38
  A 8.72 8.67 0.2 0 1 44.32 267.97
  L 40.02 271.24
  A 0.51 0.51 0.0 0 0 40.32 272.16
  Q 43.72 272.21 46.48 269.84
  A 0.38 0.38 0.0 0 1 47.10 270.19
  Q 46.94 271.12 45.91 271.55
  A 0.41 0.41 0.0 0 0 45.78 272.22
  L 45.97 272.42
  A 0.47 0.46 -37.5 0 0 46.53 272.49
  Q 55.20 267.47 60.69 258.96
  Q 61.92 257.04 61.94 255.35
  A 0.74 0.74 0.0 0 0 60.55 255.00
  Q 57.84 260.18 52.78 264.36
  A 1.15 1.15 0.0 0 1 51.59 264.51
  L 51.56 264.50
  A 0.52 0.52 0.0 0 1 51.38 263.64
  L 56.72 258.42
  A 1.81 1.72 77.2 0 0 57.16 257.68
  Q 58.31 253.99 61.88 252.07
  A 1.01 1.01 0.0 0 0 62.41 251.29
  L 63.05 245.45
  A 0.45 0.44 -23.6 0 0 62.25 245.14
  Q 59.87 248.39 58.21 250.20
  Q 56.74 251.81 54.11 253.07
  A 0.36 0.35 -6.2 0 1 53.61 252.67
  Q 53.76 252.04 54.02 251.77
  C 56.10 249.52 57.56 248.37 59.34 245.79
  Q 60.71 243.80 62.26 242.76
  A 1.64 1.64 0.0 0 0 62.98 241.59
  Q 63.17 240.05 63.92 238.62
  A 0.81 0.81 0.0 0 1 65.43 239.13
  C 64.69 243.31 67.42 243.32 68.38 246.35
  Q 69.42 249.60 73.03 252.82
  A 0.40 0.39 -24.0 0 1 72.76 253.51
  L 71.57 253.51
  A 1.46 1.45 75.0 0 1 70.31 252.78
  L 66.25 245.76
  A 0.64 0.64 0.0 0 0 65.06 246.08
  L 65.06 250.82
  A 4.29 4.26 -64.2 0 0 65.97 253.46
  L 70.09 258.71
  A 1.64 1.62 76.4 0 0 71.04 259.30
  L 75.17 260.16
  A 1.12 1.11 79.1 0 0 76.32 258.45
  Q 75.46 257.16 75.47 256.49
  A 0.69 0.69 0.0 0 1 76.54 255.93
  Q 80.91 258.87 83.83 259.23
  A 0.74 0.74 0.0 0 0 84.21 257.82
  Q 80.39 256.18 77.75 253.76
  Q 70.41 247.03 66.31 238.60
  A 1.36 1.35 83.7 0 0 65.41 237.87
  Q 64.35 237.60 63.26 237.93
  A 1.69 1.67 9.8 0 0 62.36 238.56
  Q 56.71 246.43 47.73 254.24
  Q 46.17 255.61 44.07 256.74
  A 0.50 0.50 0.0 0 0 44.37 257.68
  Q 50.55 256.96 55.72 255.19
  Q 56.21 255.02 56.43 255.20
  A 0.81 0.75 -44.4 0 1 56.37 256.38
  Q 54.10 258.32 53.87 258.59
  A 0.68 0.68 0.0 0 1 53.02 258.73
  Q 52.27 258.30 51.57 258.20
  A 2.49 2.40 40.4 0 0 50.59 258.26
  Q 46.07 259.46 42.02 259.37
  Q 40.78 259.35 40.22 258.89
  A 1.15 1.13 -34.8 0 1 40.59 256.93
  Q 43.85 255.80 46.47 253.47
  Q 55.74 245.28 62.57 235.39
  A 1.99 1.98 -25.8 0 0 62.91 234.42
  C 63.00 233.00 63.06 230.38 64.53 229.75
  A 2.01 1.74 89.7 0 1 66.77 232.31
  Q 66.44 233.42 66.38 234.45
  A 1.94 1.86 36.0 0 0 66.54 235.34
  Q 70.15 243.79 75.84 250.14
  Q 79.01 253.68 81.35 254.68
  Q 84.51 256.01 86.48 257.17
  A 1.49 1.49 0.0 0 1 86.61 259.65
  C 84.21 261.44 81.80 260.44 79.24 259.40
  A 0.68 0.67 83.9 0 0 78.43 260.41
  L 79.64 262.16
  A 0.66 0.66 0.0 0 1 78.73 263.09
  L 76.39 261.53
  A 0.99 0.96 -29.2 0 0 75.79 261.37
  Q 73.92 261.49 71.48 260.68
  A 0.63 0.63 0.0 0 0 70.78 261.65
  Q 74.44 266.54 78.14 268.62
  A 3.79 3.74 -89.6 0 1 79.62 270.14
  Q 83.61 277.67 93.00 280.55
  A 1.66 1.66 0.0 0 1 93.38 283.55
  Q 90.10 285.56 85.64 284.01
  A 1.41 1.40 31.7 0 0 84.18 284.35
  L 81.80 286.73
  A 1.64 1.64 0.0 0 1 79.66 286.88
  L 77.82 285.48
  A 0.80 0.79 50.1 0 0 77.00 285.40
  Q 75.29 286.25 72.14 284.65
  A 0.45 0.45 0.0 0 0 71.67 285.41
  L 75.68 288.45
  A 1.84 1.68 -15.5 0 0 76.19 288.71
  Q 81.17 290.21 82.20 291.59
  Q 86.94 297.93 93.99 303.23
  Q 96.88 305.41 95.70 306.98
  A 1.47 1.46 14.7 0 1 94.72 307.55
  L 89.42 308.18
  A 0.96 0.95 59.3 0 1 88.73 308.00
  L 82.88 303.57
  A 0.66 0.66 0.0 0 0 81.82 304.10
  L 81.82 306.15
  A 0.76 0.73 70.5 0 1 81.56 306.72
  Q 79.95 308.07 78.52 307.51
  Q 74.09 305.81 69.14 302.18
  C 66.22 300.05 64.38 297.01 62.24 293.90
  A 0.49 0.49 0.0 0 0 61.34 294.20
  L 61.44 296.98
  A 2.55 2.37 -42.9 0 1 61.40 297.52
  Q 59.13 309.97 59.93 321.89
  A 1.88 1.87 -12.3 0 1 58.71 323.78
  L 58.60 323.82
  A 1.14 1.13 -12.3 0 1 57.07 322.84
  C 56.86 320.02 56.43 317.57 56.67 314.37
  Q 57.43 304.06 58.72 295.56
  A 0.19 0.19 0.0 0 0 58.40 295.40
  Z
  M 68.42 281.87
  A 0.51 0.51 0.0 0 0 69.19 281.26
  Q 68.09 278.77 68.67 278.35
  A 1.12 0.78 56.9 0 1 69.97 278.88
  Q 70.70 280.05 71.22 281.61
  A 1.51 1.50 9.2 0 0 71.77 282.37
  Q 73.51 283.70 76.17 284.09
  A 0.42 0.42 0.0 0 0 76.63 283.56
  L 75.78 280.72
  A 0.44 0.43 -85.9 0 1 76.38 280.20
  C 77.90 280.92 78.95 282.64 80.54 284.47
  A 0.41 0.41 0.0 0 0 81.23 284.35
  Q 82.19 281.99 84.17 281.62
  A 1.13 0.99 -41.4 0 1 84.58 281.62
  L 90.13 282.72
  A 1.29 1.27 41.7 0 0 90.74 282.69
  L 91.17 282.56
  A 0.40 0.40 0.0 0 0 91.20 281.81
  Q 84.54 279.27 81.23 274.77
  Q 78.01 270.40 76.13 269.15
  C 73.58 267.45 70.49 264.46 69.72 262.38
  Q 68.17 258.15 65.30 255.01
  A 0.58 0.58 0.0 0 0 64.29 255.40
  L 64.29 264.67
  A 1.53 1.50 -66.6 0 0 64.68 265.69
  L 66.92 268.18
  A 2.25 2.25 0.0 0 1 67.35 268.88
  C 67.79 270.03 70.37 274.53 72.28 274.78
  A 0.14 0.14 0.0 0 1 72.40 274.95
  L 72.35 275.21
  A 0.27 0.26 -80.5 0 1 72.06 275.42
  C 68.20 274.95 66.27 270.38 64.72 268.07
  A 0.68 0.68 0.0 0 0 63.48 268.50
  L 63.63 270.31
  A 0.36 0.36 0.0 0 1 63.63 270.43
  L 62.81 276.81
  A 1.31 1.30 -68.3 0 0 63.32 278.01
  L 68.42 281.87
  Z
  M 75.71 303.12
  Q 75.12 301.52 75.49 300.73
  Q 75.79 300.09 75.37 299.31
  Q 74.36 297.44 75.51 297.51
  A 1.41 1.41 0.0 0 1 76.38 297.88
  L 81.04 302.13
  A 0.92 0.88 66.2 0 0 81.62 302.37
  Q 85.86 302.45 87.99 304.94
  A 3.54 3.54 0.0 0 0 90.68 306.18
  L 92.98 306.18
  A 0.83 0.83 0.0 0 0 93.46 304.67
  Q 92.82 304.21 89.82 301.95
  C 86.87 299.72 84.11 295.98 81.83 293.34
  A 3.54 3.39 -3.5 0 0 80.99 292.63
  C 77.20 290.30 72.74 289.58 70.49 285.28
  A 0.92 0.90 3.7 0 0 70.22 284.98
  L 63.28 280.32
  A 0.47 0.47 0.0 0 0 62.54 280.71
  L 62.54 281.47
  A 1.33 1.32 -73.6 0 0 63.14 282.58
  Q 67.79 285.58 70.56 289.01
  A 4.24 4.08 87.7 0 0 71.28 289.70
  L 80.76 296.88
  A 0.57 0.57 0.0 0 1 80.79 297.76
  L 80.75 297.80
  A 0.83 0.82 42.9 0 1 79.69 297.83
  Q 75.03 294.10 73.29 292.90
  C 69.49 290.29 67.27 287.51 63.33 283.90
  A 0.63 0.63 0.0 0 0 62.28 284.37
  L 62.28 290.58
  A 1.58 1.57 28.2 0 0 62.55 291.46
  L 67.40 298.47
  A 0.80 0.80 0.0 0 0 68.80 297.73
  Q 68.32 296.49 68.16 293.75
  A 0.60 0.60 0.0 0 1 68.76 293.11
  L 69.10 293.11
  A 0.43 0.42 -2.2 0 1 69.53 293.50
  L 70.10 299.95
  A 0.72 0.68 29.3 0 0 70.20 300.27
  C 71.07 301.70 73.62 304.65 75.53 304.09
  A 0.75 0.75 0.0 0 1 76.33 304.33
  Q 76.87 304.98 78.27 305.87
  A 1.24 1.11 27.9 0 0 80.02 305.44
  C 80.81 303.47 78.72 301.36 77.23 300.21
  A 0.70 0.69 -71.1 0 0 76.11 300.76
  L 76.11 303.05
  A 0.21 0.21 0.0 0 1 75.71 303.12
  Z"
/>
<ellipse fill="#111916" cx="0.00" cy="0.00" transform="translate(68.22,265.99) rotate(-122.1)" rx="3.00" ry="1.02"/>
<path fill="#111916" d="
  M 71.40 270.11
  L 72.76 270.94
  A 1.60 1.52 -1.5 0 1 73.17 271.31
  Q 75.73 274.75 79.74 277.42
  A 0.60 0.59 60.0 0 1 79.45 278.51
  C 78.37 278.58 77.05 278.21 76.16 277.31
  Q 73.01 274.11 70.87 270.65
  A 0.39 0.39 0.0 0 1 71.40 270.11
  Z"
/>
</svg>
