<?xml version="1.0" encoding="UTF-8" standalone="no"?>
<!DOCTYPE svg PUBLIC "-//W3C//DTD SVG 1.1//EN" "http://www.w3.org/Graphics/SVG/1.1/DTD/svg11.dtd">
<svg xmlns="http://www.w3.org/2000/svg" version="1.1" viewBox="0.00 0.00 259.00 256.00">
<path fill="#151d16" d="
  M 80.47 45.14
  A 0.93 0.92 89.8 0 1 79.42 44.09
  Q 79.66 42.43 81.38 42.07
  Q 91.42 39.97 103.12 39.58
  A 1.72 1.71 82.8 0 1 104.84 40.92
  L 104.85 40.95
  A 1.24 1.23 -8.2 0 1 103.76 42.40
  L 87.41 44.13
  A 0.36 0.36 0.0 0 0 87.11 44.38
  L 82.08 60.27
  A 0.72 0.71 -85.9 0 0 82.87 61.19
  L 97.19 58.96
  A 1.78 1.77 81.0 0 1 99.21 60.44
  L 99.27 60.85
  A 1.20 1.19 81.3 0 1 98.28 62.21
  L 82.07 64.73
  A 1.87 1.85 3.1 0 0 80.57 66.06
  Q 78.66 72.93 77.58 78.02
  Q 77.08 80.42 77.62 81.29
  A 1.15 1.15 0.0 0 0 78.40 81.82
  Q 81.73 82.42 87.43 80.94
  Q 93.04 79.49 98.40 77.71
  A 1.52 1.52 0.0 0 1 100.38 78.92
  L 100.45 79.37
  A 1.52 1.52 0.0 0 1 99.40 81.06
  Q 89.09 84.28 83.07 85.33
  C 79.82 85.90 74.40 84.72 73.58 80.81
  Q 73.25 79.24 74.18 75.49
  Q 77.33 62.83 83.12 45.93
  A 0.81 0.81 0.0 0 0 82.23 44.86
  L 80.47 45.14
  Z"
/>
<path fill="#151d16" d="
  M 149.30 66.75
  A 1.39 1.38 -11.3 0 1 147.13 65.31
  L 147.74 62.89
  A 1.34 1.33 -86.5 0 0 146.29 61.24
  Q 141.50 61.85 138.81 66.33
  C 136.47 70.22 143.73 74.98 145.35 78.60
  C 146.86 81.99 145.16 84.46 141.45 84.97
  Q 136.29 85.69 132.62 82.45
  A 1.57 1.56 -46.8 0 1 132.55 80.17
  L 132.80 79.92
  A 1.34 1.34 0.0 0 1 134.55 79.79
  Q 137.49 81.95 140.97 81.33
  A 1.14 1.14 0.0 0 0 141.71 79.55
  C 138.32 74.69 131.20 70.38 136.57 63.17
  C 139.01 59.90 145.37 56.10 149.32 58.64
  C 152.12 60.44 151.70 64.96 149.30 66.75
  Z"
/>
<path fill="#151d16" d="
  M 120.77 75.44
  A 0.51 0.51 0.0 0 0 119.85 75.28
  C 118.12 77.90 114.44 82.15 111.06 82.49
  C 104.97 83.09 104.49 77.51 105.85 73.09
  C 107.61 67.41 111.95 60.25 117.98 58.89
  C 120.57 58.31 122.56 61.59 124.48 62.62
  A 2.04 2.03 -65.6 0 1 125.41 65.12
  C 123.86 69.31 122.86 72.37 125.25 76.67
  A 3.08 3.05 4.4 0 0 126.07 77.62
  Q 126.36 77.83 127.34 78.41
  C 128.65 79.16 128.91 80.97 127.55 81.72
  A 3.33 2.84 48.6 0 1 124.15 81.23
  Q 121.67 79.22 120.77 75.44
  Z
  M 119.6366 62.5890
  A 9.52 3.37 -58.2 0 0 111.7559 68.9042
  A 9.52 3.37 -58.2 0 0 109.6034 78.7710
  A 9.52 3.37 -58.2 0 0 117.4841 72.4558
  A 9.52 3.37 -58.2 0 0 119.6366 62.5890
  Z"
/>
<path fill="#151d16" d="
  M 162.42 79.68
  Q 162.97 79.51 163.52 78.75
  C 167.20 73.64 168.20 70.09 170.89 62.69
  A 1.55 1.55 0.0 0 1 173.01 61.82
  L 173.08 61.85
  A 2.00 1.99 -69.8 0 1 174.15 64.19
  Q 170.78 76.30 166.38 86.88
  Q 163.84 93.00 160.20 98.45
  C 157.57 102.39 152.10 104.67 148.10 101.09
  A 2.10 2.10 0.0 0 1 147.68 98.47
  L 147.71 98.43
  A 1.34 1.34 0.0 0 1 149.81 98.15
  Q 152.66 100.97 155.06 98.85
  C 159.19 95.18 161.73 88.72 164.38 82.77
  A 0.50 0.49 87.7 0 0 163.69 82.13
  C 159.01 84.71 156.79 79.27 156.38 75.63
  Q 155.69 69.52 156.99 61.82
  A 1.74 1.74 0.0 0 1 159.13 60.42
  L 159.53 60.52
  A 1.53 1.52 9.9 0 1 160.68 62.15
  C 159.96 69.07 158.86 73.92 161.04 78.93
  A 1.27 1.09 69.3 0 0 162.42 79.68
  Z"
/>
<path fill="#151d16" d="
  M 59.56 156.06
  A 0.53 0.52 -20.7 0 0 60.50 156.48
  C 62.99 152.89 68.75 148.17 72.90 150.42
  C 76.06 152.13 76.41 155.92 75.57 159.22
  Q 73.41 167.77 64.91 172.41
  Q 60.62 174.76 57.78 171.85
  A 1.08 1.07 62.1 0 0 56.83 171.55
  Q 56.41 171.63 55.79 172.15
  Q 55.20 172.65 54.69 172.46
  Q 52.59 171.67 53.01 169.51
  Q 56.67 150.27 62.59 130.25
  A 1.23 1.23 0.0 0 1 64.47 129.58
  L 64.53 129.62
  A 2.38 2.37 23.4 0 1 65.55 132.19
  L 59.56 156.06
  Z
  M 58.09 168.83
  C 61.14 171.30 63.62 169.44 66.25 167.27
  C 69.80 164.33 72.91 159.84 72.39 155.26
  A 1.99 1.99 0.0 0 0 70.09 153.52
  C 64.72 154.42 59.53 163.15 57.85 168.00
  A 0.74 0.74 0.0 0 0 58.09 168.83
  Z"
/>
<path fill="#151d16" d="
  M 133.57 155.75
  A 0.23 0.23 0.0 0 0 133.91 155.92
  L 144.18 149.99
  A 1.46 1.45 -31.3 0 1 146.14 150.46
  L 146.35 150.78
  A 1.75 1.75 0.0 0 1 145.75 153.25
  L 134.81 159.57
  A 0.61 0.61 0.0 0 0 134.58 160.40
  Q 135.21 161.49 139.97 168.04
  Q 142.01 170.85 145.20 169.66
  A 1.56 1.43 9.3 0 1 147.00 171.95
  Q 144.92 174.13 141.93 173.34
  C 137.96 172.29 134.34 166.53 132.36 162.94
  Q 132.06 162.40 131.56 162.67
  Q 131.20 162.87 131.08 163.33
  Q 130.22 166.65 128.83 172.87
  A 1.79 1.78 11.9 0 1 126.75 174.22
  L 126.50 174.17
  A 1.76 1.75 13.9 0 1 125.18 171.99
  L 136.62 130.54
  A 1.28 1.27 -66.8 0 1 138.51 129.78
  L 138.63 129.86
  A 2.43 2.43 0.0 0 1 139.71 132.48
  Q 136.82 144.55 133.69 154.73
  Q 133.53 155.26 133.57 155.75
  Z"
/>
<ellipse fill="#151d16" cx="0.00" cy="0.00" transform="translate(159.41,142.15) rotate(-91.1)" rx="3.28" ry="2.05"/>
<path fill="#151d16" d="
  M 115.25 149.57
  Q 124.37 154.23 119.98 164.33
  C 117.87 169.18 112.07 175.44 106.64 173.13
  C 103.15 171.64 102.25 167.37 102.86 163.80
  Q 104.53 154.16 113.66 149.57
  A 1.78 1.76 -44.6 0 1 115.25 149.57
  Z
  M 116.28 154.64
  L 113.15 154.32
  A 1.32 1.29 25.7 0 0 112.12 154.67
  Q 106.81 159.75 106.58 166.45
  C 106.52 168.25 107.89 171.07 110.23 169.92
  Q 111.54 169.28 112.83 168.10
  Q 117.57 163.75 117.80 156.39
  A 1.71 1.70 -86.0 0 0 116.28 154.64
  Z"
/>
<path fill="#151d16" d="
  M 169.57 160.15
  L 169.85 160.22
  A 0.34 0.32 -64.3 0 0 170.22 160.08
  C 171.99 157.35 174.77 154.66 178.05 153.58
  C 181.11 152.58 183.23 155.60 183.58 158.24
  Q 184.00 161.42 183.58 166.18
  Q 183.47 167.49 185.15 168.59
  A 1.06 1.06 0.0 0 1 185.62 169.49
  Q 185.59 171.22 183.35 171.96
  A 2.25 1.96 66.7 0 1 180.88 170.77
  Q 179.73 168.51 179.96 166.21
  Q 180.39 162.04 180.00 158.48
  A 1.32 1.31 70.3 0 0 177.98 157.52
  C 173.54 160.40 169.68 166.49 166.67 171.17
  A 2.01 1.87 -51.7 0 1 163.69 171.63
  Q 162.54 170.50 163.16 168.42
  Q 165.32 161.20 167.33 151.08
  Q 167.45 150.47 167.63 150.29
  A 1.77 1.76 65.5 0 1 170.66 151.43
  Q 170.90 155.53 169.27 159.54
  A 0.46 0.46 0.0 0 0 169.57 160.15
  Z"
/>
<path fill="#151d16" d="
  M 94.5016 150.8322
  A 12.40 8.12 -63.3 0 1 96.1842 165.5585
  A 12.40 8.12 -63.3 0 1 83.3584 172.9878
  A 12.40 8.12 -63.3 0 1 81.6758 158.2615
  A 12.40 8.12 -63.3 0 1 94.5016 150.8322
  Z
  M 92.9459 154.1333
  A 8.81 4.25 -63.1 0 0 85.1699 160.0672
  A 8.81 4.25 -63.1 0 0 84.9741 169.8467
  A 8.81 4.25 -63.1 0 0 92.7501 163.9128
  A 8.81 4.25 -63.1 0 0 92.9459 154.1333
  Z"
/>
<path fill="#151d16" d="
  M 202.33 170.25
  A 0.55 0.55 0.0 0 0 201.48 169.68
  C 198.93 171.45 196.61 173.46 193.72 171.47
  C 188.79 168.08 190.18 162.02 192.60 157.33
  Q 195.40 151.91 201.00 150.50
  A 4.00 3.99 -29.4 0 1 204.78 151.55
  L 208.51 155.28
  A 1.60 1.59 28.0 0 1 208.95 156.71
  Q 206.27 170.53 203.04 181.52
  C 201.48 186.81 198.50 196.13 191.38 192.63
  Q 187.32 190.64 186.69 185.26
  A 2.36 2.35 70.0 0 1 187.74 183.00
  L 187.79 182.97
  A 1.07 1.07 0.0 0 1 189.41 183.57
  C 190.26 186.58 190.66 190.41 194.29 189.83
  A 1.35 1.35 0.0 0 0 195.15 189.33
  C 199.04 184.48 200.81 176.66 202.33 170.25
  Z
  M 202.6751 154.1895
  A 7.99 4.17 -63.5 0 0 195.3781 159.4794
  A 7.99 4.17 -63.5 0 0 195.5449 168.4905
  A 7.99 4.17 -63.5 0 0 202.8419 163.2006
  A 7.99 4.17 -63.5 0 0 202.6751 154.1895
  Z"
/>
<rect fill="#151d16" x="-1.88" y="-10.34" transform="translate(154.64,163.50) rotate(12.9)" width="3.76" height="20.68" rx="1.84"/>
<path fill="#151d16" d="
  M 126.39 205.33
  Q 82.14 206.80 37.53 210.22
  A 0.50 0.50 0.0 0 1 37.01 209.60
  L 37.09 209.27
  A 0.41 0.41 0.0 0 1 37.44 208.97
  C 70.16 205.47 95.28 203.70 126.31 202.69
  C 157.33 201.69 182.51 201.84 215.39 203.22
  A 0.41 0.41 0.0 0 1 215.76 203.50
  L 215.86 203.83
  A 0.50 0.50 0.0 0 1 215.39 204.48
  Q 170.64 203.94 126.39 205.33
  Z"
/>
<path fill="#151d16" d="
  M 132.52 219.44
  Q 132.26 219.45 132.00 219.46
  Q 97.03 220.90 62.11 222.73
  A 0.45 0.44 85.4 0 1 61.64 222.32
  L 61.64 222.30
  A 0.41 0.41 0.0 0 1 62.00 221.85
  C 87.66 218.53 108.05 217.14 132.44 216.46
  C 156.82 215.78 177.26 216.04 203.07 217.92
  A 0.41 0.41 0.0 0 1 203.45 218.35
  L 203.45 218.37
  A 0.45 0.44 -88.6 0 1 203.00 218.81
  Q 168.04 218.92 133.04 219.43
  Q 132.78 219.44 132.52 219.44
  Z"
/>
</svg>
